<svg width="460" height="458" viewBox="0 0 460 458" fill="none" xmlns="http://www.w3.org/2000/svg">
<g clip-path="url(#clip0_1228_6964)">
<path d="M125.6 183V161.58H73.4V138.54L130.64 56.1H157.1V136.92H173.66V161.58H157.1V183H125.6ZM125.6 136.92V95.34H130.28L96.62 144.48V136.92H125.6ZM229.93 184.98C214.33 184.98 202.33 179.28 193.93 167.88C185.65 156.36 181.51 140.1 181.51 119.1C181.51 97.86 185.65 81.72 193.93 70.68C202.33 59.64 214.33 54.12 229.93 54.12C245.65 54.12 257.65 59.64 265.93 70.68C274.21 81.72 278.35 97.8 278.35 118.92C278.35 140.04 274.15 156.36 265.75 167.88C257.47 179.28 245.53 184.98 229.93 184.98ZM229.93 158.52C235.69 158.52 239.95 155.4 242.71 149.16C245.59 142.92 247.03 132.9 247.03 119.1C247.03 105.18 245.59 95.28 242.71 89.4C239.95 83.4 235.69 80.4 229.93 80.4C224.17 80.4 219.85 83.4 216.97 89.4C214.21 95.28 212.83 105.12 212.83 118.92C212.83 132.84 214.21 142.92 216.97 149.16C219.85 155.4 224.17 158.52 229.93 158.52ZM337.859 184.98C322.259 184.98 310.259 179.28 301.859 167.88C293.579 156.36 289.439 140.1 289.439 119.1C289.439 97.86 293.579 81.72 301.859 70.68C310.259 59.64 322.259 54.12 337.859 54.12C353.579 54.12 365.579 59.64 373.859 70.68C382.139 81.72 386.279 97.8 386.279 118.92C386.279 140.04 382.079 156.36 373.679 167.88C365.399 179.28 353.459 184.98 337.859 184.98ZM337.859 158.52C343.619 158.52 347.879 155.4 350.639 149.16C353.519 142.92 354.959 132.9 354.959 119.1C354.959 105.18 353.519 95.28 350.639 89.4C347.879 83.4 343.619 80.4 337.859 80.4C332.099 80.4 327.779 83.4 324.899 89.4C322.139 95.28 320.759 105.12 320.759 118.92C320.759 132.84 322.139 142.92 324.899 149.16C327.779 155.4 332.099 158.52 337.859 158.52Z" fill="white"/>
<path d="M54.8358 286.173L38.3249 286.483L29.9598 286.608C27.1659 286.66 24.3586 286.65 21.5568 286.669L21.0626 286.672L21.0604 286.173L21.0003 272.111L20.998 271.552L21.5568 271.554L38.1958 271.624C43.7425 271.63 49.288 271.749 54.8347 271.807L55.1408 271.81L55.1386 272.111C55.1175 274.492 55.0429 276.861 54.9928 279.207L54.8358 286.173ZM54.8358 286.173L54.6778 279.076C54.6277 276.736 54.5531 274.417 54.532 272.111L54.8358 272.414C49.2892 272.471 43.7436 272.591 38.1969 272.597L21.5579 272.667L22.1134 272.112L22.0533 286.174L21.5568 285.677C24.3018 285.697 27.0412 285.686 29.7939 285.738L38.0678 285.863L54.8358 286.173Z" fill="#EBEBEB"/>
<path d="M36.2711 303.904L19.7602 304.215L11.3951 304.339C8.60113 304.392 5.79384 304.382 2.99211 304.401L2.49788 304.404L2.49566 303.904L2.43777 289.842L2.43555 289.283L2.99433 289.285L19.6333 289.356C25.18 289.361 30.7255 289.48 36.2722 289.538L36.5783 289.541L36.5761 289.842C36.555 292.223 36.4804 294.593 36.4303 296.938L36.2711 303.904ZM36.2711 303.904L36.1131 296.808C36.063 294.467 35.9884 292.148 35.9672 289.842L36.2711 290.146C30.7244 290.203 25.1789 290.323 19.6322 290.328L2.99322 290.399L3.54867 289.843L3.48967 303.904L2.99322 303.408C5.73929 303.428 8.47757 303.417 11.2303 303.469L19.5042 303.594L36.2711 303.904Z" fill="#EBEBEB"/>
<path d="M36.271 -0.379139L19.7601 -0.0685787L11.395 0.0560923C8.60102 0.108409 5.79373 0.0972757 2.992 0.117312L2.49777 0.120652L2.49555 -0.379139L2.43767 -14.4423L2.43433 -15L2.99311 -14.9978L19.6321 -14.9276C25.1788 -14.9221 30.7243 -14.803 36.271 -14.7451L36.5771 -14.7418L36.5749 -14.4412C36.5537 -12.0602 36.4792 -9.69041 36.4291 -7.34506L36.271 -0.379139ZM36.271 -0.379139L36.113 -7.47529C36.0629 -9.81619 35.9883 -12.1348 35.9671 -14.4412L36.271 -14.1373C30.7254 -14.0817 25.1788 -13.9615 19.6321 -13.9559L2.99311 -13.8858L3.54856 -14.4412L3.48957 -0.380252L2.99311 -0.876705C5.73919 -0.856669 8.47747 -0.8678 11.2302 -0.815483L19.5041 -0.690814L36.271 -0.379139Z" fill="#EBEBEB"/>
<path d="M457.007 -0.379139L440.496 -0.0685787L432.131 0.0560923C429.337 0.108409 426.529 0.0972757 423.728 0.117312L423.233 0.120652L423.231 -0.379139L423.171 -14.4412L423.169 -15L423.728 -14.9978L440.367 -14.9276C445.913 -14.9221 451.459 -14.803 457.006 -14.7451L457.312 -14.7418L457.31 -14.4412C457.288 -12.0602 457.214 -9.69041 457.164 -7.34506L457.007 -0.379139ZM457.007 -0.379139L456.849 -7.47529C456.799 -9.81619 456.724 -12.1348 456.703 -14.4412L457.007 -14.1373C451.46 -14.0806 445.913 -13.9603 440.368 -13.9548L423.729 -13.8847L424.284 -14.4401L424.224 -0.378027L423.728 -0.874478C426.473 -0.854443 429.212 -0.865573 431.965 -0.813256L440.239 -0.688587L457.007 -0.379139Z" fill="#EBEBEB"/>
<path d="M438.443 17.3523L421.932 17.6629L413.567 17.7875C410.773 17.8399 407.966 17.8287 405.164 17.8488L404.67 17.8521L404.668 17.3523L404.608 3.29023L404.605 2.73145L405.164 2.73367L421.803 2.8038C427.35 2.80936 432.895 2.92847 438.442 2.98635L438.748 2.98969L438.746 3.29023C438.725 5.6712 438.65 8.04104 438.6 10.3864L438.443 17.3523ZM438.443 17.3523L438.285 10.2562C438.235 7.91526 438.161 5.59662 438.139 3.29023L438.443 3.59411C432.897 3.65088 427.351 3.7711 421.804 3.77667L405.165 3.84679L405.721 3.29134L405.661 17.3534L405.164 16.857C407.909 16.8759 410.649 16.8659 413.401 16.9182L421.675 17.0429L438.443 17.3523Z" fill="#EBEBEB"/>
<path d="M353.214 181.865L336.703 182.176L328.338 182.3C325.544 182.353 322.736 182.341 319.935 182.361L319.441 182.365L319.438 181.865L319.378 167.803L319.376 167.244L319.935 167.246L336.574 167.316C342.12 167.322 347.666 167.442 353.213 167.499L353.519 167.502L353.517 167.803C353.495 170.184 353.421 172.554 353.371 174.899L353.214 181.865ZM353.214 181.865L353.056 174.769C353.006 172.427 352.931 170.109 352.91 167.803L353.214 168.107C347.667 168.164 342.12 168.284 336.575 168.289L319.936 168.359L320.491 167.804L320.431 181.866L319.935 181.371C322.68 181.391 325.419 181.38 328.172 181.432L336.446 181.557L353.214 181.865Z" fill="#EBEBEB"/>
<path d="M334.65 199.596L318.139 199.907L309.774 200.032C306.98 200.084 304.173 200.073 301.371 200.093L300.877 200.096L300.875 199.596L300.814 185.534L300.812 184.976L301.371 184.978L318.01 185.048C323.557 185.054 329.102 185.174 334.649 185.23L334.955 185.234L334.953 185.534C334.932 187.915 334.857 190.285 334.807 192.631L334.65 199.596ZM334.65 199.596L334.492 192.5C334.442 190.159 334.367 187.841 334.346 185.534L334.65 185.838C329.103 185.895 323.558 186.015 318.011 186.021L301.372 186.091L301.928 185.535L301.867 199.598L301.371 199.101C304.116 199.121 306.855 199.11 309.608 199.162L317.882 199.287L334.65 199.596Z" fill="#EBEBEB"/>
<path d="M316.159 181.865L299.648 182.176L291.283 182.3C288.489 182.353 285.682 182.341 282.88 182.361L282.386 182.365L282.384 181.865L282.324 167.803L282.321 167.244L282.88 167.246L299.519 167.316C305.066 167.322 310.611 167.442 316.158 167.499L316.464 167.502L316.462 167.803C316.441 170.184 316.366 172.554 316.316 174.899L316.159 181.865ZM316.159 181.865L316.001 174.769C315.951 172.427 315.876 170.109 315.855 167.803L316.159 168.107C310.612 168.164 305.066 168.284 299.52 168.289L282.881 168.359L283.437 167.804L283.377 181.866L282.88 181.371C285.626 181.391 288.364 181.38 291.117 181.432L299.391 181.557L316.159 181.865Z" fill="#EBEBEB"/>
<path d="M457.007 303.904L440.496 304.215L432.131 304.339C429.337 304.392 426.529 304.382 423.728 304.401L423.233 304.404L423.231 303.904L423.171 289.842L423.169 289.283L423.728 289.285L440.367 289.356C445.913 289.361 451.46 289.48 457.006 289.538L457.312 289.541L457.31 289.842C457.288 292.223 457.214 294.593 457.164 296.938L457.007 303.904ZM457.007 303.904L456.849 296.808C456.799 294.467 456.724 292.148 456.703 289.842L457.007 290.146C451.46 290.203 445.914 290.323 440.368 290.328L423.729 290.399L424.284 289.843L424.224 303.905L423.728 303.409C426.473 303.429 429.212 303.418 431.965 303.47L440.239 303.595L457.007 303.904Z" fill="#EBEBEB"/>
<path d="M174.262 41.4373L157.751 41.7478L149.386 41.8725C146.592 41.9248 143.784 41.9148 140.983 41.9337L140.488 41.9371L140.486 41.4373L140.426 27.3752L140.424 26.8164L140.983 26.8186L157.622 26.8888C163.168 26.8943 168.714 27.0134 174.261 27.0713L174.567 27.0746L174.564 27.3752C174.543 29.7562 174.469 32.126 174.419 34.4713L174.262 41.4373ZM174.262 41.4373L174.104 34.3411C174.053 32.0002 173.979 29.6816 173.958 27.3752L174.262 27.6791C168.715 27.7358 163.169 27.8561 157.623 27.8616L140.984 27.9318L141.539 27.3763L141.479 41.4384L140.983 40.9419C143.728 40.962 146.467 40.9508 149.22 41.0031L157.494 41.1278L174.262 41.4373Z" fill="#EBEBEB"/>
<path d="M422.821 153.252L429.373 142.687L426.138 140.684C425.186 140.094 424.671 139.018 424.766 137.903C424.819 137.286 424.839 136.666 424.825 136.044C424.801 134.928 425.384 133.889 426.368 133.361L429.722 131.563L423.845 120.604L420.492 122.403C419.508 122.93 418.32 122.841 417.404 122.204C416.893 121.848 416.366 121.521 415.823 121.224C414.842 120.686 414.231 119.661 414.266 118.542L414.386 114.738L401.961 114.352L401.846 118.17C401.813 119.289 401.126 120.263 400.114 120.742C399.839 120.872 399.566 121.009 399.297 121.154C399.026 121.299 398.762 121.45 398.502 121.607C397.548 122.183 396.363 122.217 395.415 121.63L392.156 119.611L385.603 130.176L388.845 132.187C389.795 132.778 390.311 133.855 390.214 134.97C390.16 135.583 390.14 136.202 390.153 136.821C390.176 137.936 389.593 138.974 388.61 139.5L385.255 141.299L391.132 152.258L394.487 150.459C395.47 149.933 396.657 150.02 397.573 150.656C398.081 151.009 398.608 151.334 399.149 151.629C400.132 152.165 400.744 153.191 400.709 154.309L400.593 158.122L413.018 158.508L413.136 154.693C413.171 153.578 413.855 152.607 414.865 152.131C415.141 152.001 415.416 151.862 415.689 151.716C415.959 151.571 416.224 151.42 416.485 151.263C417.444 150.684 418.634 150.65 419.587 151.242L422.821 153.252ZM412.3 145.407C407.345 148.065 401.178 146.202 398.52 141.247C395.862 136.291 397.719 130.116 402.675 127.457C407.631 124.799 413.811 126.665 416.469 131.621C419.126 136.577 417.256 142.748 412.3 145.407Z" fill="#EBEBEB"/>
<path d="M64.7347 272.956L71.2877 262.392L68.0518 260.387C67.1001 259.797 66.5847 258.722 66.6805 257.606C66.7339 256.99 66.7528 256.37 66.7395 255.747C66.715 254.631 67.2982 253.592 68.2822 253.065L71.6361 251.266L65.7588 240.306L62.4061 242.105C61.4221 242.633 60.2344 242.543 59.3183 241.906C58.8074 241.551 58.2797 241.223 57.7376 240.926C56.7559 240.388 56.1448 239.363 56.1804 238.245L56.3006 234.44L43.8748 234.054L43.7602 237.872C43.7268 238.992 43.04 239.965 42.0282 240.444C41.7532 240.574 41.4805 240.711 41.21 240.856C40.9395 241.001 40.6746 241.152 40.4152 241.309C39.4613 241.886 38.2758 241.919 37.3285 241.331L34.0693 239.312L27.5164 249.877L30.7578 251.888C31.7084 252.479 32.2238 253.556 32.1269 254.671C32.0735 255.284 32.0535 255.903 32.0657 256.522C32.0891 257.637 31.5058 258.675 30.5229 259.201L27.168 261L33.0453 271.959L36.4002 270.16C37.3831 269.634 38.5697 269.721 39.4858 270.358C39.9945 270.711 40.521 271.036 41.062 271.331C42.0448 271.868 42.6571 272.893 42.6226 274.011L42.5057 277.825L54.9315 278.211L55.0495 274.397C55.084 273.281 55.7685 272.311 56.7781 271.833C57.0542 271.703 57.3291 271.564 57.6018 271.418C57.8723 271.273 58.1373 271.122 58.3977 270.965C59.3561 270.386 60.5472 270.353 61.5 270.944L64.7347 272.956ZM54.2135 265.11C49.2579 267.768 43.0912 265.906 40.433 260.95C37.7749 255.994 39.6316 249.819 44.5883 247.161C49.544 244.503 55.724 246.368 58.3821 251.324C61.0403 256.282 59.1691 262.453 54.2135 265.11Z" fill="#1F4779"/>
<path d="M192.007 70.6213L187.655 63.0777L185.346 64.4112C184.667 64.803 183.832 64.7663 183.175 64.3378C182.813 64.1007 182.436 63.8836 182.048 63.6866C181.351 63.3326 180.902 62.628 180.902 61.8466V59.1807H172.191V61.8466C172.191 62.628 171.743 63.3326 171.046 63.6866C170.657 63.8836 170.281 64.1018 169.918 64.3378C169.261 64.7652 168.427 64.8042 167.748 64.4112L165.439 63.0777L161.087 70.6213L163.405 71.9571C164.085 72.3489 164.459 73.0947 164.419 73.8783C164.408 74.0909 164.403 74.3047 164.403 74.5195C164.403 74.7343 164.408 74.948 164.419 75.1607C164.459 75.9409 164.088 76.6834 163.412 77.0741L161.087 78.4176L165.439 85.9613L167.754 84.6266C168.433 84.2348 169.269 84.2738 169.926 84.7023C170.288 84.9383 170.662 85.1554 171.049 85.3524C171.745 85.7075 172.192 86.411 172.192 87.1924V89.8594H180.904V87.1913C180.904 86.4099 181.351 85.7064 182.047 85.3513C182.433 85.1543 182.808 84.9372 183.169 84.7012C183.826 84.2716 184.66 84.2337 185.34 84.6255L187.656 85.9602L192.008 78.4165L189.692 77.0808C189.014 76.6901 188.642 75.9465 188.681 75.1651C188.692 74.9514 188.698 74.7365 188.698 74.5195C188.698 74.3047 188.692 74.0909 188.681 73.8783C188.641 73.0947 189.015 72.3478 189.695 71.956L192.007 70.6213ZM183.681 74.5195C183.681 78.4588 180.49 81.6501 176.55 81.6501C172.611 81.6501 169.413 78.4588 169.413 74.5195C169.413 70.5801 172.611 67.3821 176.55 67.3821C180.49 67.381 183.681 70.579 183.681 74.5195Z" fill="#1F4779"/>
<path d="M0 378.294L57.4994 378.023L115 377.924L230 377.738L345 377.923L402.499 378.021L460 378.294L402.499 378.566L345 378.663L230 378.849L115 378.662L57.4994 378.564L0 378.294Z" fill="#263238"/>
<path d="M244.384 282.5H204.855V285.738H244.384V282.5Z" fill="#37474F"/>
<path d="M244.384 286.718H204.855V289.956H244.384V286.718Z" fill="#37474F"/>
<path d="M244.384 290.936H204.855V294.174H244.384V290.936Z" fill="#37474F"/>
<path d="M244.384 295.154H204.855V298.392H244.384V295.154Z" fill="#37474F"/>
<path d="M244.384 299.372H204.855V302.61H244.384V299.372Z" fill="#37474F"/>
<path d="M261.496 383.514H186.343V386.752H261.496V383.514Z" fill="#37474F"/>
<path d="M261.496 387.731H186.343V390.97H261.496V387.731Z" fill="#37474F"/>
<path d="M261.496 391.95H186.343V395.188H261.496V391.95Z" fill="#37474F"/>
<path d="M261.496 396.168H186.343V399.406H261.496V396.168Z" fill="#37474F"/>
<path d="M261.496 400.385H186.343V403.623H261.496V400.385Z" fill="#37474F"/>
<path d="M153.368 255.733C153.404 255.296 136.919 249.773 136.919 249.773L137.893 193.131L159.754 188.44L153.368 255.733Z" fill="#E0AF7F"/>
<path opacity="0.2" d="M153.368 255.733C153.404 255.296 136.919 249.773 136.919 249.773L137.893 193.131L159.754 188.44L153.368 255.733Z" fill="black"/>
<path d="M304.368 277.966C304.484 277.542 321.864 278.031 321.864 278.031L340.442 224.513L321.531 212.586L304.368 277.966Z" fill="#E0AF7F"/>
<path opacity="0.2" d="M304.368 277.966C304.484 277.542 321.864 278.031 321.864 278.031L340.442 224.513L321.531 212.586L304.368 277.966Z" fill="black"/>
<path d="M150.194 276.589C150.194 276.589 156.306 184.981 161.667 154.846C161.667 154.846 272.33 163.215 332.07 186.049C332.07 186.049 301.271 293.051 299.678 298.361C299.678 298.362 221.75 283.011 150.194 276.589Z" fill="#E0AF7F"/>
<path opacity="0.1" d="M248.971 167.08C247.172 178.11 245.351 189.137 243.467 200.152L237.763 233.188L237.456 232.722L274.535 241.53L293.055 246.018L311.554 250.595L292.957 246.433L274.382 242.184L237.269 233.515L236.894 233.427L236.962 233.047L242.867 200.046C244.852 189.048 246.901 178.062 248.971 167.08Z" fill="black"/>
<path opacity="0.1" d="M244.903 173.366C244.923 174.377 244.117 175.416 242.959 175.516C242.398 175.57 241.788 175.391 241.332 174.993C240.876 174.596 240.603 173.984 240.6 173.366C240.602 172.748 240.873 172.135 241.331 171.737C241.786 171.337 242.398 171.161 242.959 171.213C244.118 171.316 244.923 172.356 244.903 173.366ZM244.903 173.366C244.898 172.856 244.673 172.355 244.292 172.033C243.911 171.712 243.412 171.58 242.959 171.633C242.026 171.741 241.42 172.579 241.433 173.366C241.419 174.153 242.023 174.995 242.959 175.101C243.412 175.152 243.912 175.021 244.293 174.699C244.673 174.378 244.898 173.876 244.903 173.366Z" fill="black"/>
<path opacity="0.1" d="M242.959 186.998C242.979 188.008 242.173 189.047 241.016 189.148C240.455 189.202 239.845 189.022 239.388 188.625C238.932 188.228 238.659 187.615 238.656 186.998C238.659 186.38 238.931 185.767 239.387 185.369C239.843 184.968 240.455 184.793 241.016 184.845C242.176 184.946 242.98 185.987 242.959 186.998ZM242.959 186.998C242.955 186.488 242.729 185.987 242.348 185.665C241.968 185.344 241.469 185.212 241.016 185.265C240.082 185.373 239.476 186.211 239.49 186.998C239.475 187.785 240.08 188.627 241.016 188.733C241.469 188.784 241.969 188.653 242.349 188.33C242.729 188.008 242.955 187.508 242.959 186.998Z" fill="black"/>
<path opacity="0.1" d="M240.566 201.4C240.587 202.411 239.78 203.45 238.623 203.551C238.062 203.604 237.452 203.425 236.995 203.027C236.539 202.63 236.266 202.018 236.263 201.4C236.266 200.782 236.538 200.169 236.994 199.772C237.45 199.371 238.062 199.195 238.623 199.247C239.783 199.349 240.587 200.389 240.566 201.4ZM240.566 201.4C240.562 200.89 240.336 200.389 239.956 200.068C239.576 199.746 239.077 199.615 238.624 199.667C237.69 199.775 237.084 200.613 237.098 201.4C237.083 202.187 237.688 203.03 238.624 203.135C239.077 203.187 239.577 203.055 239.957 202.732C240.336 202.411 240.562 201.91 240.566 201.4Z" fill="black"/>
<path opacity="0.1" d="M238.173 215.802C238.194 216.813 237.387 217.853 236.229 217.953C235.668 218.005 235.058 217.827 234.602 217.43C234.146 217.032 233.873 216.42 233.87 215.802C233.872 215.185 234.145 214.571 234.601 214.174C235.056 213.773 235.668 213.597 236.229 213.65C237.389 213.751 238.194 214.792 238.173 215.802ZM238.173 215.802C238.169 215.293 237.943 214.792 237.562 214.47C237.181 214.148 236.682 214.017 236.229 214.069C235.296 214.177 234.69 215.015 234.703 215.802C234.689 216.589 235.293 217.432 236.229 217.538C236.682 217.59 237.182 217.458 237.563 217.136C237.943 216.813 238.169 216.311 238.173 215.802Z" fill="black"/>
<path opacity="0.1" d="M246.328 238.77C246.349 239.781 245.542 240.819 244.384 240.921C243.823 240.973 243.213 240.795 242.757 240.398C242.3 240 242.028 239.388 242.024 238.77C242.027 238.152 242.298 237.539 242.756 237.142C243.211 236.741 243.823 236.565 244.384 236.617C245.543 236.72 246.348 237.761 246.328 238.77ZM246.328 238.77C246.323 238.26 246.097 237.759 245.717 237.438C245.336 237.116 244.837 236.985 244.384 237.037C243.45 237.145 242.845 237.983 242.858 238.77C242.844 239.557 243.448 240.4 244.384 240.506C244.837 240.557 245.337 240.425 245.718 240.104C246.097 239.782 246.322 239.28 246.328 238.77Z" fill="black"/>
<path opacity="0.1" d="M259.922 242.088C259.943 243.098 259.136 244.137 257.979 244.238C257.418 244.29 256.808 244.112 256.351 243.715C255.895 243.318 255.622 242.705 255.619 242.088C255.622 241.47 255.894 240.856 256.35 240.459C256.805 240.058 257.418 239.882 257.979 239.935C259.139 240.036 259.943 241.077 259.922 242.088ZM259.922 242.088C259.918 241.578 259.692 241.077 259.312 240.755C258.932 240.433 258.433 240.302 257.98 240.354C257.046 240.462 256.44 241.301 256.454 242.088C256.439 242.875 257.044 243.717 257.98 243.823C258.433 243.875 258.933 243.743 259.313 243.421C259.692 243.098 259.918 242.597 259.922 242.088Z" fill="black"/>
<path opacity="0.1" d="M273.518 245.404C273.538 246.415 272.732 247.454 271.574 247.555C271.013 247.607 270.403 247.43 269.947 247.031C269.491 246.634 269.218 246.022 269.215 245.404C269.218 244.786 269.488 244.173 269.946 243.775C270.401 243.375 271.013 243.199 271.574 243.251C272.733 243.352 273.538 244.393 273.518 245.404ZM273.518 245.404C273.513 244.894 273.288 244.393 272.908 244.072C272.527 243.75 272.029 243.619 271.576 243.671C270.642 243.779 270.036 244.617 270.049 245.404C270.035 246.191 270.639 247.034 271.576 247.139C272.029 247.191 272.528 247.059 272.909 246.736C273.288 246.415 273.512 245.914 273.518 245.404Z" fill="black"/>
<path opacity="0.1" d="M287.112 248.719C287.134 249.73 286.327 250.769 285.169 250.87C284.608 250.922 283.998 250.744 283.542 250.347C283.085 249.949 282.812 249.337 282.809 248.719C282.812 248.102 283.083 247.488 283.54 247.091C283.996 246.69 284.608 246.514 285.169 246.567C286.328 246.669 287.132 247.71 287.112 248.719ZM287.112 248.719C287.108 248.21 286.882 247.709 286.501 247.387C286.121 247.065 285.622 246.934 285.169 246.986C284.235 247.094 283.629 247.932 283.643 248.719C283.628 249.506 284.233 250.349 285.169 250.455C285.622 250.506 286.122 250.375 286.502 250.052C286.882 249.731 287.108 249.229 287.112 248.719Z" fill="black"/>
<path opacity="0.1" d="M300.702 252.186C300.645 253.196 299.761 254.17 298.599 254.181C298.036 254.19 297.441 253.966 297.016 253.533C296.591 253.101 296.366 252.471 296.411 251.855C296.461 251.239 296.779 250.649 297.265 250.287C297.751 249.923 298.374 249.794 298.93 249.89C300.078 250.081 300.8 251.18 300.702 252.186ZM300.702 252.186C300.736 251.678 300.549 251.161 300.195 250.81C299.84 250.46 299.353 250.291 298.897 250.308C297.958 250.344 297.289 251.133 297.242 251.919C297.166 252.703 297.705 253.589 298.63 253.767C299.078 253.854 299.586 253.761 299.99 253.469C300.394 253.177 300.658 252.694 300.702 252.186Z" fill="black"/>
<path opacity="0.1" d="M235.78 230.204C235.8 231.214 234.994 232.254 233.836 232.354C233.275 232.408 232.665 232.23 232.209 231.831C231.752 231.434 231.48 230.822 231.476 230.204C231.48 229.586 231.751 228.973 232.208 228.575C232.663 228.175 233.275 227.999 233.836 228.051C234.996 228.153 235.801 229.194 235.78 230.204ZM235.78 230.204C235.775 229.694 235.549 229.193 235.169 228.871C234.788 228.55 234.289 228.418 233.836 228.471C232.902 228.579 232.297 229.417 232.31 230.204C232.296 230.991 232.9 231.833 233.836 231.939C234.289 231.99 234.789 231.859 235.169 231.537C235.55 231.216 235.775 230.714 235.78 230.204Z" fill="black"/>
<path opacity="0.2" d="M212.887 254.068C225.792 242.464 226.847 222.596 215.243 209.69C203.64 196.785 183.771 195.73 170.866 207.333C157.96 218.937 156.905 238.806 168.509 251.711C180.113 264.616 199.981 265.672 212.887 254.068Z" fill="black"/>
<path d="M215.438 239.623C220.365 226.606 213.807 212.059 200.79 207.132C187.773 202.205 173.227 208.763 168.3 221.78C163.372 234.796 169.93 249.343 182.947 254.27C195.964 259.197 210.51 252.64 215.438 239.623Z" fill="#263238"/>
<path d="M190.356 221.439L184.464 220.484L183.51 226.376L189.402 227.33L190.356 221.439Z" fill="#E0AF7F"/>
<path d="M185.418 214.592L179.527 213.638L178.572 219.529L184.464 220.484L185.418 214.592Z" fill="#E0AF7F"/>
<path d="M208.985 218.409L203.093 217.455L202.139 223.347L208.03 224.301L208.985 218.409Z" fill="#E0AF7F"/>
<path d="M181.622 238.026L175.73 237.071L174.776 242.963L180.667 243.917L181.622 238.026Z" fill="#E0AF7F"/>
<path d="M205.188 241.843L199.297 240.889L198.342 246.78L204.234 247.735L205.188 241.843Z" fill="#E0AF7F"/>
<path d="M188.469 233.088L182.577 232.134L181.623 238.025L187.514 238.98L188.469 233.088Z" fill="#E0AF7F"/>
<path d="M195.304 228.218L189.412 227.264L188.458 233.155L194.349 234.11L195.304 228.218Z" fill="#E0AF7F"/>
<path d="M202.139 223.347L196.248 222.393L195.293 228.284L201.185 229.239L202.139 223.347Z" fill="#E0AF7F"/>
<path d="M200.257 234.994L194.365 234.04L193.411 239.932L199.303 240.886L200.257 234.994Z" fill="#E0AF7F"/>
<path d="M300.516 263.773C311.516 250.349 309.55 230.549 296.126 219.549C282.701 208.549 262.902 210.515 251.902 223.939C240.902 237.364 242.868 257.163 256.292 268.163C269.716 279.163 289.516 277.197 300.516 263.773Z" fill="#E0AF7F"/>
<path opacity="0.2" d="M300.516 263.773C311.516 250.349 309.55 230.549 296.126 219.549C282.701 208.549 262.902 210.515 251.902 223.939C240.902 237.364 242.868 257.163 256.292 268.163C269.716 279.163 289.516 277.197 300.516 263.773Z" fill="black"/>
<path opacity="0.2" d="M306.785 251.138C306.64 251.757 306.475 252.355 306.289 252.953L245.036 239.888C245.181 238.795 245.377 237.702 245.634 236.599C249.646 219.718 266.588 209.283 283.479 213.293C300.361 217.305 310.796 234.248 306.785 251.138Z" fill="black"/>
<path d="M285.92 267.127C298.763 261.761 304.825 247 299.459 234.157C294.093 221.314 279.332 215.253 266.489 220.619C253.647 225.984 247.585 240.745 252.951 253.588C258.316 266.431 273.077 272.492 285.92 267.127Z" fill="#263238"/>
<path d="M282.552 230.1L276.745 228.72L269.876 257.623L275.683 259.003L282.552 230.1Z" fill="#E0AF7F"/>
<path d="M308.608 250.548L244.268 235.257C248.49 217.494 266.318 206.518 284.081 210.739C301.846 214.961 312.83 232.785 308.608 250.548Z" fill="#E0AF7F"/>
<path opacity="0.2" d="M308.608 250.548L244.268 235.257C248.49 217.494 266.318 206.518 284.081 210.739C301.846 214.961 312.83 232.785 308.608 250.548Z" fill="black"/>
<path opacity="0.1" d="M221.532 262.549C221.694 260.036 222.617 257.489 224.439 255.474C225.338 254.459 226.536 253.662 227.856 253.176C229.183 252.689 230.617 252.603 231.976 252.719C233.36 252.88 234.772 253.368 235.926 254.24C237.056 255.132 237.924 256.292 238.433 257.542C239.483 260.033 239.598 262.696 239.089 265.165C238.67 262.697 238.033 260.3 236.874 258.333C235.724 256.352 233.905 255.119 231.738 254.927C229.527 254.652 227.37 255.246 225.634 256.714C223.895 258.176 222.568 260.272 221.532 262.549Z" fill="black"/>
<path d="M158.802 198.453C159.063 195.096 159.44 191.754 159.758 188.405C160.115 185.061 160.483 181.718 160.889 178.382C161.275 175.043 161.71 171.71 162.138 168.375C162.556 165.04 163.039 161.714 163.487 158.383L163.606 157.493L164.508 157.55C171.76 158.006 178.994 158.592 186.219 159.335C189.831 159.706 193.439 160.125 197.042 160.589C200.638 161.105 204.239 161.582 207.816 162.236L186.091 160.892L164.39 159.488L165.41 158.655C164.917 161.98 164.459 165.31 163.937 168.63C163.422 171.952 162.917 175.274 162.362 178.59C161.827 181.908 161.254 185.222 160.67 188.534C160.046 191.841 159.482 195.155 158.802 198.453Z" fill="white"/>
<path d="M164.028 223.85C164.757 219.814 166.591 215.968 169.056 212.618C169.669 211.776 170.367 210.998 171.038 210.196C171.765 209.446 172.521 208.72 173.267 207.984C174.08 207.323 174.902 206.668 175.737 206.032C176.624 205.47 177.5 204.883 178.402 204.343C179.351 203.887 180.295 203.417 181.253 202.983L184.24 201.95L187.33 201.313C188.367 201.161 189.421 201.13 190.462 201.051C194.653 200.943 198.776 201.837 202.561 203.369C198.532 202.615 194.518 202.196 190.561 202.574C186.614 202.941 182.778 204.122 179.349 206.053C175.893 207.94 172.832 210.542 170.246 213.566C167.67 216.606 165.538 220.047 164.028 223.85Z" fill="white"/>
<path d="M250.713 232.339C251.993 228.442 254.341 224.887 257.244 221.909C257.968 221.16 258.767 220.486 259.543 219.784C260.365 219.142 261.215 218.528 262.055 217.901C262.952 217.358 263.856 216.822 264.771 216.308C265.728 215.874 266.676 215.413 267.644 215.004C268.648 214.683 269.648 214.347 270.656 214.051L273.756 213.44L276.905 213.235C277.954 213.227 279.001 213.342 280.043 213.407C284.208 213.879 288.168 215.334 291.705 217.374C287.819 216.071 283.902 215.101 279.931 214.93C275.97 214.75 272.009 215.389 268.345 216.829C264.662 218.22 261.27 220.375 258.292 223.012C255.319 225.666 252.734 228.781 250.713 232.339Z" fill="white"/>
<path d="M153.709 333.043C145.659 333.043 128.036 331.233 116.696 316.653C102.187 297.999 107.431 262.205 107.66 260.69L113.96 261.647C113.907 261.991 108.902 296.254 121.725 312.741C134.262 328.86 157.002 326.546 157.23 326.518L157.947 332.849C157.699 332.879 156.139 333.043 153.709 333.043Z" fill="#E0AF7F"/>
<path opacity="0.4" d="M153.709 333.043C145.659 333.043 128.036 331.233 116.696 316.653C102.187 297.999 107.431 262.205 107.66 260.69L113.96 261.647C113.907 261.991 108.902 296.254 121.725 312.741C134.262 328.86 157.002 326.546 157.23 326.518L157.947 332.849C157.699 332.879 156.139 333.043 153.709 333.043Z" fill="white"/>
<path d="M115.814 265.98C114.665 265.98 113.492 265.884 112.298 265.691C101.672 263.97 96.9677 257.612 94.8917 252.58C92.8113 247.538 92.3304 241.438 93.4624 234.452L106.938 236.636C106.237 240.964 106.44 244.779 107.511 247.374C108.275 249.227 109.757 251.451 114.48 252.215C116.638 252.565 118.97 252.38 121.412 248.697C123.297 245.854 124.43 241.985 124.826 239.534L138.301 241.716C137.99 243.644 136.668 250.39 132.789 256.24C128.57 262.605 122.632 265.98 115.814 265.98Z" fill="#E0AF7F"/>
<path d="M167.021 351.277C166.998 350.986 155.605 349.166 155.605 349.166L150.075 311.982L163.874 306.531L167.021 351.277Z" fill="#E0AF7F"/>
<path opacity="0.2" d="M167.021 351.277C166.998 350.986 155.605 349.166 155.605 349.166L150.075 311.982L163.874 306.531L167.021 351.277Z" fill="black"/>
<path d="M279.665 351.346C279.695 351.056 291.125 349.488 291.125 349.488L297.476 312.436L283.8 306.681L279.665 351.346Z" fill="#E0AF7F"/>
<path opacity="0.2" d="M279.665 351.346C279.695 351.056 291.125 349.488 291.125 349.488L297.476 312.436L283.8 306.681L279.665 351.346Z" fill="black"/>
<path d="M162.28 298.205C162.28 298.205 254.431 294.265 285.56 299.453C285.56 299.453 276.419 388.621 275.924 390.351C275.924 390.351 184.258 390.104 169.928 390.351C169.928 390.351 162.162 331.058 162.28 298.205Z" fill="#E0AF7F"/>
<path opacity="0.2" d="M190.271 322.639C190.271 322.639 240.576 320.652 257.57 323.267C257.57 323.267 252.58 368.231 252.31 369.103C252.31 369.103 202.269 368.978 194.446 369.103C194.445 369.104 191.007 338.33 190.271 322.639Z" fill="black"/>
<path opacity="0.2" d="M197.147 369.085C195.995 369.085 195.082 369.099 194.443 369.107C194.443 369.107 191.011 338.328 190.268 322.638C190.268 322.638 191.412 322.593 193.41 322.526L197.147 369.085Z" fill="black"/>
<path d="M211.984 333.733C209.165 332.845 206.161 334.41 205.272 337.227C204.383 340.05 205.95 343.051 208.77 343.94C211.587 344.828 214.588 343.264 215.476 340.444C216.365 337.627 214.802 334.622 211.984 333.733ZM214.856 340.247C214.076 342.725 211.439 344.099 208.964 343.318C206.49 342.538 205.116 339.902 205.897 337.424C206.677 334.95 209.314 333.575 211.791 334.357C214.262 335.136 215.637 337.773 214.856 340.247ZM211.984 333.733C209.165 332.845 206.161 334.41 205.272 337.227C204.383 340.05 205.95 343.051 208.77 343.94C211.587 344.828 214.588 343.264 215.476 340.444C216.365 337.627 214.802 334.622 211.984 333.733ZM214.856 340.247C214.076 342.725 211.439 344.099 208.964 343.318C206.49 342.538 205.116 339.902 205.897 337.424C206.677 334.95 209.314 333.575 211.791 334.357C214.262 335.136 215.637 337.773 214.856 340.247ZM211.984 333.733C209.165 332.845 206.161 334.41 205.272 337.227C204.383 340.05 205.95 343.051 208.77 343.94C211.587 344.828 214.588 343.264 215.476 340.444C216.365 337.627 214.802 334.622 211.984 333.733ZM214.856 340.247C214.076 342.725 211.439 344.099 208.964 343.318C206.49 342.538 205.116 339.902 205.897 337.424C206.677 334.95 209.314 333.575 211.791 334.357C214.262 335.136 215.637 337.773 214.856 340.247ZM213.768 328.08C207.822 326.208 201.492 329.51 199.619 335.447C197.748 341.386 201.044 347.721 206.986 349.592C212.924 351.462 219.259 348.164 221.13 342.224C223.003 336.289 219.705 329.951 213.768 328.08ZM216.272 340.694C215.247 343.947 211.77 345.76 208.519 344.734C205.269 343.71 203.457 340.233 204.481 336.979C205.506 333.726 208.986 331.917 212.236 332.941C215.484 333.966 217.296 337.442 216.272 340.694ZM215.476 340.444C216.365 337.627 214.802 334.622 211.984 333.733C209.165 332.845 206.161 334.41 205.272 337.227C204.383 340.05 205.95 343.051 208.77 343.94C211.587 344.829 214.588 343.265 215.476 340.444ZM214.856 340.247C214.076 342.725 211.439 344.099 208.964 343.318C206.49 342.538 205.116 339.902 205.897 337.424C206.677 334.95 209.314 333.575 211.791 334.357C214.262 335.136 215.637 337.773 214.856 340.247ZM211.984 333.733C209.165 332.845 206.161 334.41 205.272 337.227C204.383 340.05 205.95 343.051 208.77 343.94C211.587 344.828 214.588 343.264 215.476 340.444C216.365 337.627 214.802 334.622 211.984 333.733ZM214.856 340.247C214.076 342.725 211.439 344.099 208.964 343.318C206.49 342.538 205.116 339.902 205.897 337.424C206.677 334.95 209.314 333.575 211.791 334.357C214.262 335.136 215.637 337.773 214.856 340.247ZM211.984 333.733C209.165 332.845 206.161 334.41 205.272 337.227C204.383 340.05 205.95 343.051 208.77 343.94C211.587 344.828 214.588 343.264 215.476 340.444C216.365 337.627 214.802 334.622 211.984 333.733ZM214.856 340.247C214.076 342.725 211.439 344.099 208.964 343.318C206.49 342.538 205.116 339.902 205.897 337.424C206.677 334.95 209.314 333.575 211.791 334.357C214.262 335.136 215.637 337.773 214.856 340.247Z" fill="#E0AF7F"/>
<path d="M209.195 349.799L205.06 348.495L204.365 351.495L208.044 352.654L209.195 349.799Z" fill="#E0AF7F"/>
<path d="M201.763 345.925L199.759 342.079L197.148 343.709L198.929 347.129L201.763 345.925Z" fill="#E0AF7F"/>
<path d="M199.246 337.929L200.548 333.794L197.55 333.1L196.39 336.778L199.246 337.929Z" fill="#E0AF7F"/>
<path d="M203.12 330.497L206.965 328.493L205.335 325.882L201.914 327.663L203.12 330.497Z" fill="#E0AF7F"/>
<path d="M211.114 327.98L215.25 329.284L215.944 326.284L212.266 325.124L211.114 327.98Z" fill="#E0AF7F"/>
<path d="M218.548 331.854L220.55 335.7L223.163 334.069L221.381 330.648L218.548 331.854Z" fill="#E0AF7F"/>
<path d="M221.064 339.85L219.761 343.985L222.761 344.678L223.92 341.001L221.064 339.85Z" fill="#E0AF7F"/>
<path d="M217.19 347.281L213.344 349.284L214.974 351.896L218.395 350.114L217.19 347.281Z" fill="#E0AF7F"/>
<path d="M230.174 349.473C228.507 348.386 226.275 348.859 225.19 350.526C224.102 352.196 224.576 354.425 226.244 355.512C227.91 356.597 230.139 356.125 231.225 354.457C232.31 352.79 231.841 350.558 230.174 349.473ZM230.859 354.217C229.905 355.683 227.946 356.097 226.482 355.143C225.018 354.19 224.604 352.231 225.558 350.766C226.511 349.303 228.47 348.888 229.935 349.842C231.397 350.794 231.812 352.753 230.859 354.217ZM230.174 349.473C228.507 348.386 226.275 348.859 225.19 350.526C224.102 352.196 224.576 354.425 226.244 355.512C227.91 356.597 230.139 356.125 231.225 354.457C232.31 352.79 231.841 350.558 230.174 349.473ZM230.859 354.217C229.905 355.683 227.946 356.097 226.482 355.143C225.018 354.19 224.604 352.231 225.558 350.766C226.511 349.303 228.47 348.888 229.935 349.842C231.397 350.794 231.812 352.753 230.859 354.217ZM230.174 349.473C228.507 348.386 226.275 348.859 225.19 350.526C224.102 352.196 224.576 354.425 226.244 355.512C227.91 356.597 230.139 356.125 231.225 354.457C232.31 352.79 231.841 350.558 230.174 349.473ZM230.859 354.217C229.905 355.683 227.946 356.097 226.482 355.143C225.018 354.19 224.604 352.231 225.558 350.766C226.511 349.303 228.47 348.888 229.935 349.842C231.397 350.794 231.812 352.753 230.859 354.217ZM232.353 346.129C228.835 343.84 224.133 344.837 221.845 348.349C219.557 351.863 220.549 356.567 224.064 358.854C227.576 361.141 232.281 360.147 234.569 356.634C236.857 353.123 235.864 348.415 232.353 346.129ZM231.696 354.761C230.442 356.686 227.86 357.232 225.938 355.98C224.015 354.728 223.469 352.145 224.721 350.221C225.974 348.296 228.558 347.752 230.48 349.004C232.402 350.256 232.948 352.839 231.696 354.761ZM231.225 354.456C232.31 352.79 231.841 350.558 230.174 349.473C228.507 348.386 226.275 348.859 225.19 350.526C224.102 352.196 224.576 354.425 226.244 355.512C227.91 356.596 230.139 356.125 231.225 354.456ZM230.859 354.217C229.905 355.683 227.946 356.097 226.482 355.143C225.018 354.19 224.604 352.231 225.558 350.766C226.511 349.303 228.47 348.888 229.935 349.842C231.397 350.794 231.812 352.753 230.859 354.217ZM230.174 349.473C228.507 348.386 226.275 348.859 225.19 350.526C224.102 352.196 224.576 354.425 226.244 355.512C227.91 356.597 230.139 356.125 231.225 354.457C232.31 352.79 231.841 350.558 230.174 349.473ZM230.859 354.217C229.905 355.683 227.946 356.097 226.482 355.143C225.018 354.19 224.604 352.231 225.558 350.766C226.511 349.303 228.47 348.888 229.935 349.842C231.397 350.794 231.812 352.753 230.859 354.217ZM230.174 349.473C228.507 348.386 226.275 348.859 225.19 350.526C224.102 352.196 224.576 354.425 226.244 355.512C227.91 356.597 230.139 356.125 231.225 354.457C232.31 352.79 231.841 350.558 230.174 349.473ZM230.859 354.217C229.905 355.683 227.946 356.097 226.482 355.143C225.018 354.19 224.604 352.231 225.558 350.766C226.511 349.303 228.47 348.888 229.935 349.842C231.397 350.794 231.812 352.753 230.859 354.217Z" fill="#DBDBDB"/>
<path d="M225.46 359.386L223.013 357.793L222.021 359.613L224.198 361.029L225.46 359.386Z" fill="#DBDBDB"/>
<path d="M221.34 355.53L220.737 352.674L218.748 353.258L219.285 355.798L221.34 355.53Z" fill="#DBDBDB"/>
<path d="M221.154 349.89L222.747 347.443L220.927 346.451L219.51 348.626L221.154 349.89Z" fill="#DBDBDB"/>
<path d="M225.01 345.77L227.867 345.167L227.281 343.178L224.741 343.715L225.01 345.77Z" fill="#DBDBDB"/>
<path d="M230.651 345.583L233.096 347.176L234.089 345.357L231.913 343.94L230.651 345.583Z" fill="#DBDBDB"/>
<path d="M234.77 349.44L235.373 352.297L237.361 351.711L236.825 349.171L234.77 349.44Z" fill="#DBDBDB"/>
<path d="M234.956 355.079L233.363 357.526L235.183 358.519L236.6 356.343L234.956 355.079Z" fill="#DBDBDB"/>
<path d="M231.1 359.2L228.244 359.803L228.828 361.792L231.37 361.255L231.1 359.2Z" fill="#DBDBDB"/>
<path d="M283.336 379.975L286.878 380.634L297.006 312.036L292.971 311.295L283.336 379.975Z" fill="#E0AF7F"/>
<path d="M252.31 369.105L257.569 323.27L292.971 311.295C292.971 311.295 283.336 380.717 283.336 379.976L252.31 369.105Z" fill="#E0AF7F"/>
<path opacity="0.4" d="M252.31 369.105L257.569 323.27L292.971 311.295C292.971 311.295 283.336 380.717 283.336 379.976L252.31 369.105Z" fill="white"/>
<path d="M166.509 325.125C165.932 321.329 165.62 317.501 165.383 313.669C165.274 311.752 165.225 309.833 165.183 307.914C165.145 305.995 165.112 304.074 165.169 302.154L165.184 301.65L165.675 301.623C172.708 301.246 179.736 300.784 186.773 300.476C193.808 300.129 200.843 299.814 207.884 299.594C200.865 300.229 193.844 300.77 186.82 301.28C179.798 301.829 172.769 302.223 165.744 302.702L166.249 302.171L166.22 307.902L166.287 313.637C166.297 315.549 166.332 317.463 166.387 319.376L166.509 325.125Z" fill="white"/>
<path d="M262.507 323.942C264.7 322.9 266.927 321.931 269.181 321.038C271.429 320.123 273.696 319.257 275.99 318.462C278.288 317.677 280.593 316.909 282.937 316.258C285.277 315.599 287.64 314.99 290.052 314.595L290.645 314.498L290.54 315.065C289.984 318.032 289.403 320.995 288.716 323.942C288.974 320.927 289.336 317.929 289.725 314.936L290.212 315.405C287.874 315.963 285.554 316.615 283.241 317.299C280.93 317.99 278.626 318.718 276.328 319.466L262.507 323.942Z" fill="white"/>
<path opacity="0.1" d="M181.829 298.392L182.425 309.856L182.935 321.323L183.819 344.262L184.51 367.208L184.786 378.683L184.976 390.162L184.378 378.698L183.868 367.23L182.985 344.291L182.296 321.345L182.019 309.869L181.829 298.392Z" fill="black"/>
<path opacity="0.1" d="M178.545 305.302C178.766 306.289 178.18 307.467 177.066 307.794C176.526 307.957 175.894 307.903 175.367 307.603C174.841 307.303 174.452 306.758 174.328 306.152C174.209 305.546 174.353 304.891 174.723 304.411C175.09 303.929 175.656 303.634 176.216 303.575C177.371 303.446 178.366 304.308 178.545 305.302ZM178.545 305.302C178.44 304.803 178.12 304.357 177.684 304.116C177.247 303.876 176.732 303.846 176.298 303.987C175.404 304.278 174.975 305.218 175.145 305.989C175.286 306.762 176.045 307.469 176.984 307.388C177.438 307.349 177.902 307.122 178.21 306.73C178.52 306.338 178.641 305.803 178.545 305.302Z" fill="black"/>
<path opacity="0.1" d="M179.334 319.048C179.555 320.035 178.969 321.213 177.855 321.54C177.315 321.703 176.683 321.649 176.156 321.349C175.63 321.049 175.241 320.504 175.117 319.898C174.998 319.292 175.142 318.637 175.512 318.157C175.879 317.674 176.444 317.38 177.005 317.321C178.16 317.192 179.155 318.054 179.334 319.048ZM179.334 319.048C179.229 318.549 178.909 318.103 178.473 317.862C178.036 317.622 177.521 317.592 177.087 317.733C176.193 318.024 175.765 318.966 175.934 319.735C176.075 320.508 176.834 321.215 177.773 321.134C178.227 321.095 178.691 320.867 178.999 320.476C179.309 320.084 179.431 319.549 179.334 319.048Z" fill="black"/>
<path opacity="0.1" d="M179.835 333.639C180.056 334.626 179.47 335.804 178.356 336.131C177.816 336.294 177.184 336.24 176.657 335.94C176.131 335.64 175.742 335.095 175.618 334.489C175.499 333.884 175.643 333.228 176.013 332.748C176.38 332.265 176.946 331.971 177.506 331.912C178.661 331.783 179.656 332.645 179.835 333.639ZM179.835 333.639C179.73 333.14 179.41 332.694 178.974 332.453C178.537 332.213 178.022 332.183 177.588 332.324C176.694 332.615 176.266 333.555 176.435 334.324C176.576 335.099 177.335 335.805 178.274 335.724C178.728 335.685 179.192 335.456 179.5 335.066C179.81 334.676 179.931 334.14 179.835 333.639Z" fill="black"/>
<path opacity="0.1" d="M180.336 348.231C180.556 349.218 179.971 350.396 178.857 350.723C178.317 350.885 177.685 350.832 177.158 350.531C176.632 350.232 176.243 349.687 176.118 349.081C175.999 348.474 176.144 347.82 176.514 347.34C176.881 346.858 177.446 346.563 178.006 346.504C179.162 346.375 180.157 347.235 180.336 348.231ZM180.336 348.231C180.23 347.732 179.91 347.285 179.474 347.045C179.038 346.805 178.523 346.775 178.089 346.916C177.195 347.206 176.766 348.147 176.935 348.917C177.077 349.692 177.836 350.398 178.774 350.317C179.228 350.278 179.693 350.051 180.001 349.659C180.31 349.267 180.432 348.731 180.336 348.231Z" fill="black"/>
<path opacity="0.1" d="M180.837 362.821C181.058 363.809 180.472 364.986 179.358 365.314C178.818 365.476 178.186 365.423 177.659 365.122C177.133 364.823 176.744 364.277 176.62 363.672C176.501 363.065 176.645 362.411 177.015 361.931C177.382 361.449 177.948 361.154 178.508 361.095C179.663 360.966 180.658 361.827 180.837 362.821ZM180.837 362.821C180.732 362.323 180.411 361.876 179.976 361.636C179.539 361.395 179.024 361.365 178.59 361.507C177.696 361.797 177.267 362.739 177.437 363.508C177.578 364.283 178.337 364.989 179.276 364.907C179.73 364.868 180.194 364.641 180.502 364.25C180.812 363.859 180.933 363.322 180.837 362.821Z" fill="black"/>
<path opacity="0.1" d="M181.338 377.413C181.558 378.4 180.973 379.578 179.859 379.905C179.319 380.068 178.687 380.015 178.16 379.714C177.634 379.415 177.245 378.869 177.12 378.264C177.001 377.658 177.146 377.002 177.516 376.523C177.883 376.04 178.447 375.746 179.008 375.687C180.164 375.558 181.158 376.418 181.338 377.413ZM181.338 377.413C181.232 376.914 180.913 376.468 180.476 376.228C180.04 375.987 179.525 375.957 179.091 376.099C178.197 376.389 177.768 377.331 177.937 378.1C178.079 378.874 178.838 379.58 179.776 379.499C180.23 379.46 180.695 379.232 181.004 378.841C181.312 378.449 181.434 377.914 181.338 377.413Z" fill="black"/>
<path d="M185.845 399.723L133.667 415.534L135.515 421.631L187.692 405.819L185.845 399.723Z" fill="#E0AF7F"/>
<path opacity="0.4" d="M185.845 399.723L133.667 415.534L135.515 421.631L187.692 405.819L185.845 399.723Z" fill="white"/>
<path d="M160.876 405.22L154.805 407.15L157.673 416.168L163.744 414.237L160.876 405.22Z" fill="#E0AF7F"/>
<path d="M135.104 430.565L121.64 372.261L81 381.895L101.012 438.717L135.104 430.565Z" fill="#E0AF7F"/>
<path d="M144.122 427.6L135.104 430.565L121.64 372.261L134.61 375.349L144.122 427.6Z" fill="#E0AF7F"/>
<path opacity="0.2" d="M144.122 427.6L135.104 430.565L121.64 372.261L134.61 375.349L144.122 427.6Z" fill="black"/>
<path d="M186.789 409.688C190.609 409.688 193.706 406.592 193.706 402.771C193.706 398.951 190.609 395.854 186.789 395.854C182.969 395.854 179.872 398.951 179.872 402.771C179.872 406.592 182.969 409.688 186.789 409.688Z" fill="#E0AF7F"/>
<path d="M257.967 399.557L256.106 405.649L308.251 421.57L310.111 415.477L257.967 399.557Z" fill="#E0AF7F"/>
<path opacity="0.4" d="M257.967 399.557L256.106 405.649L308.251 421.57L310.111 415.477L257.967 399.557Z" fill="white"/>
<path d="M282.967 405.081L280.079 414.092L286.146 416.036L289.034 407.025L282.967 405.081Z" fill="#E0AF7F"/>
<path d="M308.674 430.514L322.263 372.238L362.882 381.959L342.75 438.738L308.674 430.514Z" fill="#E0AF7F"/>
<path d="M299.663 427.53L308.674 430.514L322.263 372.238L309.286 375.298L299.663 427.53Z" fill="#E0AF7F"/>
<path opacity="0.2" d="M299.663 427.53L308.674 430.514L322.263 372.238L309.286 375.298L299.663 427.53Z" fill="black"/>
<path d="M250.131 402.597C250.124 406.417 253.214 409.52 257.034 409.529C260.854 409.537 263.957 406.447 263.966 402.627C263.974 398.807 260.884 395.703 257.064 395.694C253.243 395.685 250.139 398.775 250.131 402.597Z" fill="#E0AF7F"/>
<path d="M302.335 330.683C302.499 330.529 319.258 314.984 338.974 320.302C359.135 325.741 375.78 356.107 375.945 356.415L381.55 353.386C380.822 352.038 363.46 320.299 340.632 314.153C317.416 307.891 298.732 325.322 297.948 326.068L302.335 330.683Z" fill="#E0AF7F"/>
<path opacity="0.4" d="M302.335 330.683C302.499 330.529 319.258 314.984 338.974 320.302C359.135 325.741 375.78 356.107 375.945 356.415L381.55 353.386C380.822 352.038 363.46 320.299 340.632 314.153C317.416 307.891 298.732 325.322 297.948 326.068L302.335 330.683Z" fill="white"/>
<path d="M368.516 386.984L380.589 380.61C379.43 378.417 378.003 374.645 377.796 371.24C377.528 366.828 379.279 365.276 381.21 364.255C385.44 362.021 387.964 362.907 389.689 363.923C392.107 365.351 394.567 368.273 396.614 372.151L408.687 365.777C405.384 359.519 401.326 354.94 396.628 352.166C391.94 349.403 384.356 347.158 374.836 352.182C367.416 356.1 363.628 363.162 364.17 372.068C364.595 379.078 367.604 385.257 368.516 386.984Z" fill="#E0AF7F"/>
<path d="M304.88 309.412C307.497 307.604 310.175 305.901 312.863 304.214C315.545 302.516 318.271 300.893 320.997 299.27C323.736 297.671 326.478 296.073 329.262 294.549L333.44 292.268C334.854 291.542 336.248 290.784 337.679 290.087C336.377 291.001 335.038 291.852 333.718 292.737L329.697 295.286C327.014 296.984 324.289 298.607 321.562 300.227C318.822 301.826 316.081 303.423 313.296 304.946C310.518 306.481 307.729 307.999 304.88 309.412Z" fill="#263238"/>
<path d="M297.946 335.46C301.694 337.595 305.245 340.005 308.749 342.482C312.233 344.986 315.668 347.559 318.905 350.408C315.156 348.275 311.605 345.865 308.102 343.387C304.621 340.881 301.185 338.307 297.946 335.46Z" fill="#263238"/>
<path d="M304.101 332.255C306.993 333.133 309.84 334.126 312.68 335.136C315.525 336.133 318.339 337.213 321.152 338.292C323.956 339.397 326.758 340.503 329.53 341.69L333.687 343.473C335.057 344.105 336.441 344.702 337.799 345.366C336.35 344.938 334.925 344.441 333.488 343.982L329.22 342.488C326.374 341.489 323.562 340.411 320.749 339.329C317.946 338.223 315.142 337.117 312.371 335.929C309.595 334.755 306.827 333.562 304.101 332.255Z" fill="#263238"/>
<path d="M312.317 311.856C315.088 311.135 317.88 310.535 320.676 309.953C323.469 309.359 326.279 308.851 329.087 308.343C331.9 307.861 334.714 307.381 337.542 306.986L341.785 306.397C343.207 306.241 344.622 306.047 346.05 305.925C344.666 306.297 343.27 306.597 341.88 306.934L337.69 307.828C334.896 308.422 332.088 308.93 329.28 309.437C326.466 309.918 323.653 310.397 320.823 310.791C317.998 311.199 315.167 311.587 312.317 311.856Z" fill="#263238"/>
<path d="M254.068 347.844C254.538 345.592 255.293 343.397 256.271 341.304C257.249 339.214 258.447 337.209 259.95 335.427C261.457 333.664 263.311 332.109 265.543 331.248C267.775 330.417 270.329 330.423 272.568 331.317C274.833 332.2 276.62 334.103 277.583 336.292C278.082 337.385 278.395 338.557 278.524 339.756C278.637 340.952 278.589 342.198 278.112 343.392C277.871 343.98 277.49 344.573 276.882 344.968C276.589 345.173 276.229 345.29 275.876 345.345C275.529 345.395 275.173 345.379 274.767 345.239C274.023 344.922 273.649 344.323 273.329 343.783C273.043 343.222 272.823 342.648 272.673 342.068C272.047 339.745 271.984 337.381 272.094 335.045C272.425 330.391 273.648 325.736 276.156 321.731C277.421 319.752 279.01 317.93 280.982 316.598C282.93 315.258 285.211 314.335 287.539 314.068C288.685 313.791 289.868 313.817 291.038 313.76C291.625 313.698 292.207 313.839 292.791 313.87C293.371 313.947 293.965 313.937 294.53 314.105C296.843 314.52 299.017 315.448 301.047 316.572C303.065 317.735 304.863 319.229 306.504 320.849C308.13 322.487 309.609 324.278 310.798 326.249C308.166 322.492 304.776 319.231 300.78 317.047C298.769 316.002 296.644 315.143 294.405 314.796C293.859 314.644 293.285 314.67 292.727 314.608C292.164 314.591 291.605 314.463 291.041 314.539C289.918 314.621 288.787 314.616 287.691 314.911C285.447 315.227 283.365 316.13 281.533 317.388C279.692 318.648 278.206 320.376 277.014 322.269C274.651 326.097 273.494 330.618 273.205 335.111C273.079 337.356 273.136 339.651 273.697 341.784C273.964 342.803 274.447 343.952 275.148 344.274C275.238 344.283 275.298 344.331 275.408 344.334C275.517 344.325 275.633 344.35 275.737 344.323C275.947 344.288 276.153 344.232 276.331 344.105C276.697 343.875 276.986 343.468 277.181 343C277.571 342.054 277.643 340.932 277.545 339.851C277.436 338.764 277.157 337.684 276.708 336.682C275.827 334.681 274.265 332.95 272.242 332.102C270.229 331.247 267.873 331.178 265.783 331.905C263.684 332.658 261.871 334.105 260.359 335.783C257.327 339.178 255.282 343.426 254.068 347.844Z" fill="#1F4779"/>
<path d="M151.21 376.691C152.284 374.666 153.864 372.914 155.708 371.529C157.55 370.145 159.665 369.071 161.942 368.544C164.206 368.002 166.638 367.993 168.903 368.681C171.169 369.359 173.211 370.688 174.845 372.381C176.49 374.073 177.719 376.128 178.565 378.313C179.394 380.502 179.892 382.848 179.716 385.246C179.597 386.426 179.357 387.701 178.424 388.721C177.961 389.223 177.246 389.554 176.549 389.565C175.879 389.559 175.246 389.46 174.631 389.131C174.02 388.816 173.53 388.269 173.251 387.662C172.967 387.055 172.861 386.413 172.832 385.792C172.788 384.545 173.057 383.361 173.423 382.234C174.17 379.978 175.397 377.946 176.831 376.103C178.272 374.263 179.969 372.625 181.87 371.26C185.641 368.522 190.445 367 195.132 367.614C197.445 367.926 199.74 368.594 201.765 369.774C203.807 370.915 205.578 372.499 207.022 374.309C208.465 376.127 209.589 378.169 210.455 380.298C211.321 382.427 211.96 384.65 212.274 386.918C211.339 382.458 209.504 378.126 206.582 374.669C205.135 372.941 203.391 371.458 201.412 370.413C199.449 369.33 197.248 368.748 195.031 368.5C190.579 368.015 186.062 369.436 182.47 372.093C178.882 374.732 175.947 378.415 174.463 382.582C174.114 383.62 173.87 384.707 173.902 385.753C173.927 386.791 174.292 387.789 175.125 388.21C175.517 388.436 176.05 388.524 176.517 388.531C176.968 388.519 177.368 388.34 177.69 388.007C178.34 387.329 178.618 386.22 178.717 385.156C178.892 382.981 178.442 380.732 177.664 378.653C176.876 376.57 175.705 374.626 174.191 373C172.681 371.376 170.778 370.109 168.672 369.42C166.569 368.72 164.264 368.662 162.074 369.126C157.689 370.061 153.629 372.802 151.21 376.691Z" fill="#1F4779"/>
<path d="M99.7124 107.876C99.5866 103.296 98.6149 98.6842 96.4832 94.6658C95.4157 92.6755 93.9998 90.8367 92.1409 89.6044C90.2854 88.4 87.9812 87.9047 85.8228 88.2542C83.6556 88.5948 81.7266 89.9028 80.393 91.6359C79.7174 92.5019 79.1886 93.4826 78.8235 94.5133C78.4696 95.5396 78.2714 96.6461 78.425 97.6579C78.5018 98.1577 78.6855 98.6218 78.9861 98.9324C79.1274 99.0971 79.3144 99.2018 79.5103 99.2864C79.6049 99.3365 79.724 99.3409 79.8276 99.3754C79.9344 99.3988 80.0035 99.3654 80.0936 99.3788C80.8516 99.2341 81.5952 98.2334 82.0983 97.3072C83.1514 95.3704 83.7558 93.1542 84.1687 90.9446C84.9602 86.5133 84.9157 81.846 83.5343 77.5638C82.8285 75.4411 81.7978 73.4074 80.3107 71.7455C78.8313 70.087 77.0258 68.7134 74.922 67.8707C73.928 67.3231 72.8283 67.0593 71.7574 66.7097C71.2287 66.5027 70.6543 66.4938 70.1045 66.3747C69.5468 66.3023 68.9969 66.1398 68.4292 66.1565C66.1729 65.9595 63.9044 66.2856 61.7015 66.8211C57.2991 67.9887 53.2295 70.3463 49.7766 73.3662C51.4018 71.7355 53.2651 70.3485 55.2354 69.1464C57.2156 67.9642 59.3172 66.9435 61.5546 66.2945C63.793 65.6879 66.1273 65.305 68.4715 65.4541C69.0603 65.4252 69.6336 65.5777 70.2158 65.6411C70.7901 65.7502 71.3901 65.7513 71.9444 65.9517C73.0665 66.2868 74.223 66.5428 75.2682 67.086C77.4655 67.9008 79.4602 69.3412 81.032 71.1077C82.6304 72.8709 83.7369 75.0203 84.4938 77.2432C85.9731 81.7313 86.0488 86.5434 85.2596 91.1417C84.8099 93.4369 84.1832 95.7166 83.0222 97.8237C82.7373 98.3514 82.3855 98.8567 81.9748 99.3331C81.5351 99.7806 81.0297 100.274 80.2316 100.404C79.8042 100.443 79.4558 100.373 79.1296 100.241C78.8002 100.105 78.4785 99.9053 78.2425 99.6359C77.7471 99.1072 77.519 98.4404 77.4243 97.8126C77.2462 96.5392 77.4967 95.3192 77.8919 94.1827C78.3026 93.0484 78.887 91.9854 79.6328 91.0437C81.0899 89.1492 83.2794 87.7266 85.6893 87.4094C88.0769 87.0754 90.5592 87.6799 92.5283 89.0201C94.4907 90.3881 95.92 92.3416 96.963 94.4131C97.9971 96.5025 98.6805 98.7354 99.1325 100.998C99.5833 103.266 99.7937 105.578 99.7124 107.876Z" fill="#1F4779"/>
<path d="M345.509 165.941C341.025 164.995 336.313 164.864 331.909 165.999C329.725 166.573 327.606 167.521 325.974 169.04C324.37 170.563 323.35 172.689 323.186 174.869C323.012 177.057 323.833 179.237 325.208 180.938C325.891 181.797 326.723 182.54 327.639 183.135C328.554 183.719 329.584 184.171 330.604 184.257C331.108 184.299 331.603 184.229 331.974 184.009C332.168 183.91 332.313 183.753 332.441 183.582C332.512 183.502 332.544 183.387 332.602 183.295C332.649 183.197 332.633 183.121 332.668 183.037C332.705 182.266 331.904 181.311 331.122 180.605C329.484 179.129 327.47 178.025 325.417 177.108C321.293 175.305 316.743 174.258 312.258 174.602C310.029 174.794 307.811 175.321 305.847 176.379C303.889 177.431 302.133 178.865 300.823 180.714C300.058 181.553 299.545 182.561 298.956 183.521C298.631 183.987 298.488 184.542 298.245 185.05C298.043 185.575 297.757 186.072 297.642 186.628C296.924 188.776 296.712 191.059 296.718 193.325C296.826 197.878 298.17 202.386 300.3 206.449C299.094 204.488 298.18 202.352 297.471 200.156C296.784 197.954 296.281 195.673 296.173 193.345C296.106 191.026 296.278 188.668 296.97 186.422C297.079 185.844 297.361 185.32 297.559 184.769C297.799 184.236 297.941 183.653 298.265 183.161C298.852 182.148 299.371 181.084 300.144 180.193C301.449 178.247 303.315 176.644 305.399 175.527C307.487 174.384 309.834 173.81 312.173 173.593C316.882 173.202 321.58 174.25 325.867 176.09C327.994 177.063 330.064 178.204 331.842 179.826C332.288 180.226 332.698 180.685 333.065 181.197C333.398 181.73 333.759 182.336 333.7 183.142C333.638 183.566 333.488 183.89 333.286 184.176C333.075 184.464 332.807 184.731 332.49 184.897C331.861 185.256 331.158 185.322 330.525 185.268C329.245 185.144 328.117 184.616 327.106 183.966C326.099 183.301 325.201 182.485 324.459 181.54C322.956 179.681 322.084 177.22 322.338 174.804C322.571 172.405 323.737 170.131 325.499 168.529C327.287 166.941 329.52 166.007 331.778 165.476C334.051 164.958 336.382 164.813 338.689 164.902C340.995 164.99 343.291 165.325 345.509 165.941Z" fill="#1F4779"/>
<path d="M276.595 93.9231C275.834 91.2861 275.731 88.4654 276.16 85.7416C276.586 83.0178 277.509 80.3385 279.016 77.9921C280.501 75.6423 282.573 73.6119 285.078 72.3174C287.577 71.0128 290.425 70.4473 293.228 70.5319C296.039 70.6087 298.802 71.3356 301.344 72.4966C303.877 73.6731 306.257 75.2627 308.099 77.4489C308.978 78.5497 309.825 79.8332 309.876 81.445C309.899 82.2408 309.576 83.0913 309.005 83.6679C308.439 84.2088 307.822 84.6485 307.044 84.8745C306.278 85.1094 305.426 85.0515 304.697 84.7732C303.964 84.4971 303.346 84.0441 302.81 83.5432C301.743 82.5258 300.987 81.2947 300.363 80.0302C299.123 77.4867 298.47 74.7284 298.156 71.9612C297.849 69.1884 297.929 66.3733 298.411 63.6228C299.342 58.1373 302.17 52.84 306.672 49.4472C308.904 47.7808 311.416 46.4317 314.128 45.7449C316.821 45.0091 319.655 44.8789 322.402 45.2139C325.155 45.5546 327.827 46.3527 330.352 47.4424C332.878 48.5333 335.289 49.8935 337.465 51.5632C332.944 48.5043 327.747 46.3137 322.34 45.7794C319.65 45.5056 316.905 45.6893 314.322 46.4495C311.723 47.1619 309.338 48.5077 307.221 50.1529C305.128 51.8281 303.348 53.8885 302.046 56.2316C300.733 58.5692 299.876 61.1516 299.423 63.7997C298.556 69.0849 299.116 74.7139 301.349 79.5527C301.924 80.7426 302.629 81.8858 303.548 82.7685C304.45 83.6489 305.64 84.2244 306.754 83.8716C307.302 83.728 307.841 83.3517 308.261 82.9532C308.655 82.5481 308.86 82.026 308.855 81.4505C308.84 80.2817 308.136 79.0896 307.323 78.0867C305.637 76.0608 303.358 74.508 300.94 73.3748C298.509 72.2472 295.867 71.5582 293.196 71.4369C290.529 71.3144 287.824 71.8276 285.432 73.0131C283.035 74.1863 281.007 76.0797 279.519 78.3215C276.547 82.8085 275.383 88.5723 276.595 93.9231Z" fill="#1F4779"/>
<path d="M147.489 376.934C144.994 376.148 142.337 377.532 141.551 380.025C140.764 382.521 142.15 385.176 144.644 385.963C147.137 386.749 149.792 385.365 150.577 382.871C151.363 380.379 149.981 377.719 147.489 376.934ZM150.029 382.697C149.339 384.889 147.005 386.105 144.816 385.414C142.626 384.724 141.411 382.392 142.102 380.201C142.792 378.011 145.124 376.796 147.316 377.487C149.503 378.175 150.719 380.508 150.029 382.697ZM147.489 376.934C144.994 376.148 142.337 377.532 141.551 380.025C140.764 382.521 142.15 385.176 144.644 385.963C147.137 386.749 149.792 385.365 150.577 382.871C151.363 380.379 149.981 377.719 147.489 376.934ZM150.029 382.697C149.339 384.889 147.005 386.105 144.816 385.414C142.626 384.724 141.411 382.392 142.102 380.201C142.792 378.011 145.124 376.796 147.316 377.487C149.503 378.175 150.719 380.508 150.029 382.697ZM147.489 376.934C144.994 376.148 142.337 377.532 141.551 380.025C140.764 382.521 142.15 385.176 144.644 385.963C147.137 386.749 149.792 385.365 150.577 382.871C151.363 380.379 149.981 377.719 147.489 376.934ZM150.029 382.697C149.339 384.889 147.005 386.105 144.816 385.414C142.626 384.724 141.411 382.392 142.102 380.201C142.792 378.011 145.124 376.796 147.316 377.487C149.503 378.175 150.719 380.508 150.029 382.697ZM149.066 371.933C143.806 370.277 138.206 373.199 136.55 378.451C134.895 383.705 137.811 389.309 143.067 390.964C148.319 392.619 153.923 389.701 155.579 384.446C157.236 379.194 154.319 373.588 149.066 371.933ZM151.281 383.091C150.374 385.97 147.298 387.573 144.423 386.667C141.548 385.761 139.944 382.684 140.851 379.807C141.758 376.929 144.836 375.328 147.711 376.235C150.584 377.139 152.187 380.215 151.281 383.091ZM150.577 382.871C151.363 380.379 149.981 377.719 147.489 376.934C144.994 376.148 142.337 377.532 141.551 380.025C140.764 382.521 142.15 385.176 144.644 385.963C147.137 386.749 149.792 385.365 150.577 382.871ZM150.029 382.697C149.339 384.889 147.005 386.105 144.816 385.414C142.626 384.724 141.411 382.392 142.102 380.201C142.792 378.011 145.124 376.796 147.316 377.487C149.503 378.175 150.719 380.508 150.029 382.697ZM147.489 376.934C144.994 376.148 142.337 377.532 141.551 380.025C140.764 382.521 142.15 385.176 144.644 385.963C147.137 386.749 149.792 385.365 150.577 382.871C151.363 380.379 149.981 377.719 147.489 376.934ZM150.029 382.697C149.339 384.889 147.005 386.105 144.816 385.414C142.626 384.724 141.411 382.392 142.102 380.201C142.792 378.011 145.124 376.796 147.316 377.487C149.503 378.175 150.719 380.508 150.029 382.697ZM147.489 376.934C144.994 376.148 142.337 377.532 141.551 380.025C140.764 382.521 142.15 385.176 144.644 385.963C147.137 386.749 149.792 385.365 150.577 382.871C151.363 380.379 149.981 377.719 147.489 376.934ZM150.029 382.697C149.339 384.889 147.005 386.105 144.816 385.414C142.626 384.724 141.411 382.392 142.102 380.201C142.792 378.011 145.124 376.796 147.316 377.487C149.503 378.175 150.719 380.508 150.029 382.697Z" fill="#455A64"/>
<path d="M145.021 391.144L141.362 389.991L140.749 392.645L144.002 393.67L145.021 391.144Z" fill="#455A64"/>
<path d="M138.446 387.717L136.673 384.315L134.364 385.758L135.939 388.784L138.446 387.717Z" fill="#455A64"/>
<path d="M136.219 380.645L137.372 376.987L134.719 376.372L133.694 379.627L136.219 380.645Z" fill="#455A64"/>
<path d="M139.646 374.069L143.048 372.298L141.606 369.987L138.58 371.564L139.646 374.069Z" fill="#455A64"/>
<path d="M146.718 371.844L150.377 372.996L150.992 370.343L147.737 369.317L146.718 371.844Z" fill="#455A64"/>
<path d="M153.293 375.27L155.066 378.673L157.376 377.231L155.8 374.204L153.293 375.27Z" fill="#455A64"/>
<path d="M155.521 382.344L154.368 386.003L157.021 386.616L158.047 383.362L155.521 382.344Z" fill="#455A64"/>
<path d="M152.093 388.918L148.691 390.69L150.133 393L153.16 391.425L152.093 388.918Z" fill="#455A64"/>
<path d="M332.044 345.13C337.062 338.368 335.649 328.818 328.887 323.8C322.124 318.781 312.572 320.194 307.556 326.954C302.536 333.718 303.95 343.27 310.713 348.289C317.473 353.307 327.025 351.893 332.044 345.13ZM325.518 340.286C323.173 343.447 318.715 344.107 315.557 341.763C312.397 339.418 311.736 334.96 314.082 331.799C316.425 328.641 320.884 327.981 324.044 330.326C327.201 332.67 327.861 337.128 325.518 340.286Z" fill="#1F4779"/>
<path d="M313.443 349.526L308.735 346.032L306.522 349.559L310.709 352.666L313.443 349.526Z" fill="#1F4779"/>
<path d="M305.659 341.289L304.8 335.488L300.741 336.417L301.505 341.576L305.659 341.289Z" fill="#1F4779"/>
<path d="M305.978 329.96L309.474 325.251L305.947 323.037L302.839 327.226L305.978 329.96Z" fill="#1F4779"/>
<path d="M314.216 322.174L320.017 321.316L319.089 317.258L313.929 318.021L314.216 322.174Z" fill="#1F4779"/>
<path d="M325.546 322.495L330.254 325.989L332.467 322.463L328.28 319.354L325.546 322.495Z" fill="#1F4779"/>
<path d="M333.33 330.732L334.189 336.533L338.247 335.604L337.483 330.446L333.33 330.732Z" fill="#1F4779"/>
<path d="M333.011 342.062L329.515 346.77L333.042 348.984L336.15 344.795L333.011 342.062Z" fill="#1F4779"/>
<path d="M324.772 349.847L318.972 350.705L319.9 354.763L325.059 354L324.772 349.847Z" fill="#1F4779"/>
<path d="M314.338 336.774L317.577 340.859L322.735 340.093L324.65 335.248L321.414 331.165L316.256 331.926L314.338 336.774ZM320.478 334.684C321.213 335.229 321.365 336.261 320.82 336.996C320.276 337.727 319.242 337.883 318.508 337.337C317.776 336.794 317.623 335.757 318.166 335.025C318.711 334.291 319.747 334.14 320.478 334.684Z" fill="#1F4779"/>
<path d="M343.475 48.2052C341.292 47.5173 338.967 48.7295 338.279 50.9101C337.591 53.0952 338.803 55.4183 340.986 56.1062C343.167 56.7941 345.49 55.583 346.178 53.4002C346.866 51.2196 345.656 48.8931 343.475 48.2052ZM345.698 53.2477C345.094 55.1656 343.053 56.2286 341.137 55.6253C339.221 55.022 338.158 52.9805 338.761 51.0626C339.364 49.1469 341.406 48.0839 343.324 48.6872C345.238 49.2916 346.303 51.3331 345.698 53.2477ZM343.475 48.2052C341.292 47.5173 338.967 48.7295 338.279 50.9101C337.591 53.0952 338.803 55.4183 340.986 56.1062C343.167 56.7941 345.49 55.583 346.178 53.4002C346.866 51.2196 345.656 48.8931 343.475 48.2052ZM345.698 53.2477C345.094 55.1656 343.053 56.2286 341.137 55.6253C339.221 55.022 338.158 52.9805 338.761 51.0626C339.364 49.1469 341.406 48.0839 343.324 48.6872C345.238 49.2916 346.303 51.3331 345.698 53.2477ZM343.475 48.2052C341.292 47.5173 338.967 48.7295 338.279 50.9101C337.591 53.0952 338.803 55.4183 340.986 56.1062C343.167 56.7941 345.49 55.583 346.178 53.4002C346.866 51.2196 345.656 48.8931 343.475 48.2052ZM345.698 53.2477C345.094 55.1656 343.053 56.2286 341.137 55.6253C339.221 55.022 338.158 52.9805 338.761 51.0626C339.364 49.1469 341.406 48.0839 343.324 48.6872C345.238 49.2916 346.303 51.3331 345.698 53.2477ZM344.855 43.8296C340.254 42.3803 335.353 44.9371 333.903 49.5321C332.455 54.1304 335.007 59.0337 339.607 60.4819C344.203 61.93 349.107 59.3765 350.555 54.7782C352.005 50.1833 349.452 45.2777 344.855 43.8296ZM346.795 53.5928C346.001 56.1106 343.309 57.5143 340.793 56.7206C338.276 55.927 336.873 53.2354 337.667 50.7176C338.461 48.1997 341.154 46.7983 343.67 47.5919C346.185 48.3856 347.587 51.0771 346.795 53.5928ZM346.179 53.4002C346.867 51.2196 345.657 48.892 343.476 48.2052C341.294 47.5173 338.968 48.7295 338.28 50.9101C337.592 53.0952 338.805 55.4183 340.987 56.1062C343.168 56.7941 345.491 55.583 346.179 53.4002ZM345.698 53.2477C345.094 55.1656 343.053 56.2286 341.137 55.6253C339.221 55.022 338.158 52.9805 338.761 51.0626C339.364 49.1469 341.406 48.0839 343.324 48.6872C345.238 49.2916 346.303 51.3331 345.698 53.2477ZM343.475 48.2052C341.292 47.5173 338.967 48.7295 338.279 50.9101C337.591 53.0952 338.803 55.4183 340.986 56.1062C343.167 56.7941 345.49 55.583 346.178 53.4002C346.866 51.2196 345.656 48.8931 343.475 48.2052ZM345.698 53.2477C345.094 55.1656 343.053 56.2286 341.137 55.6253C339.221 55.022 338.158 52.9805 338.761 51.0626C339.364 49.1469 341.406 48.0839 343.324 48.6872C345.238 49.2916 346.303 51.3331 345.698 53.2477ZM343.475 48.2052C341.292 47.5173 338.967 48.7295 338.279 50.9101C337.591 53.0952 338.803 55.4183 340.986 56.1062C343.167 56.7941 345.49 55.583 346.178 53.4002C346.866 51.2196 345.656 48.8931 343.475 48.2052ZM345.698 53.2477C345.094 55.1656 343.053 56.2286 341.137 55.6253C339.221 55.022 338.158 52.9805 338.761 51.0626C339.364 49.1469 341.406 48.0839 343.324 48.6872C345.238 49.2916 346.303 51.3331 345.698 53.2477Z" fill="#1F4779"/>
<path d="M341.316 60.6414L338.114 59.6318L337.578 61.9538L340.425 62.851L341.316 60.6414Z" fill="#1F4779"/>
<path d="M335.562 57.6426L334.011 54.665L331.99 55.9273L333.369 58.5754L335.562 57.6426Z" fill="#1F4779"/>
<path d="M333.614 51.4528L334.624 48.2515L332.302 47.7139L331.405 50.5612L333.614 51.4528Z" fill="#1F4779"/>
<path d="M336.613 45.6999L339.59 44.1494L338.328 42.1279L335.68 43.5071L336.613 45.6999Z" fill="#1F4779"/>
<path d="M342.802 43.7517L346.003 44.7602L346.541 42.4382L343.693 41.541L342.802 43.7517Z" fill="#1F4779"/>
<path d="M348.555 46.7502L350.106 49.7267L352.127 48.4644L350.748 45.8174L348.555 46.7502Z" fill="#1F4779"/>
<path d="M350.503 52.9395L349.495 56.1408L351.817 56.6773L352.714 53.83L350.503 52.9395Z" fill="#1F4779"/>
<path d="M347.505 58.6934L344.528 60.2428L345.789 62.2654L348.437 60.8862L347.505 58.6934Z" fill="#1F4779"/>
<path d="M300.937 207.232C298.754 206.544 296.429 207.756 295.741 209.936C295.053 212.122 296.265 214.445 298.448 215.133C300.629 215.82 302.952 214.609 303.64 212.427C304.327 210.246 303.118 207.92 300.937 207.232ZM303.159 212.275C302.555 214.193 300.514 215.256 298.598 214.653C296.683 214.049 295.62 212.008 296.223 210.09C296.826 208.174 298.868 207.111 300.786 207.715C302.699 208.318 303.763 210.359 303.159 212.275ZM300.937 207.232C298.754 206.544 296.429 207.756 295.741 209.936C295.053 212.122 296.265 214.445 298.448 215.133C300.629 215.82 302.952 214.609 303.64 212.427C304.327 210.246 303.118 207.92 300.937 207.232ZM303.159 212.275C302.555 214.193 300.514 215.256 298.598 214.653C296.683 214.049 295.62 212.008 296.223 210.09C296.826 208.174 298.868 207.111 300.786 207.715C302.699 208.318 303.763 210.359 303.159 212.275ZM300.937 207.232C298.754 206.544 296.429 207.756 295.741 209.936C295.053 212.122 296.265 214.445 298.448 215.133C300.629 215.82 302.952 214.609 303.64 212.427C304.327 210.246 303.118 207.92 300.937 207.232ZM303.159 212.275C302.555 214.193 300.514 215.256 298.598 214.653C296.683 214.049 295.62 212.008 296.223 210.09C296.826 208.174 298.868 207.111 300.786 207.715C302.699 208.318 303.763 210.359 303.159 212.275ZM302.317 202.856C297.716 201.407 292.815 203.963 291.365 208.558C289.917 213.157 292.469 218.06 297.069 219.508C301.665 220.956 306.568 218.403 308.017 213.805C309.466 209.21 306.912 204.304 302.317 202.856ZM304.255 212.619C303.462 215.137 300.77 216.541 298.253 215.747C295.738 214.954 294.334 212.262 295.128 209.744C295.921 207.226 298.615 205.825 301.131 206.618C303.645 207.412 305.048 210.103 304.255 212.619ZM303.64 212.428C304.328 210.247 303.118 207.92 300.937 207.233C298.754 206.545 296.429 207.757 295.741 209.938C295.053 212.123 296.265 214.446 298.448 215.134C300.629 215.82 302.952 214.609 303.64 212.428ZM303.159 212.275C302.555 214.193 300.514 215.256 298.598 214.653C296.683 214.049 295.62 212.008 296.223 210.09C296.826 208.174 298.868 207.111 300.786 207.715C302.699 208.318 303.763 210.359 303.159 212.275ZM300.937 207.232C298.754 206.544 296.429 207.756 295.741 209.936C295.053 212.122 296.265 214.445 298.448 215.133C300.629 215.82 302.952 214.609 303.64 212.427C304.327 210.246 303.118 207.92 300.937 207.232ZM303.159 212.275C302.555 214.193 300.514 215.256 298.598 214.653C296.683 214.049 295.62 212.008 296.223 210.09C296.826 208.174 298.868 207.111 300.786 207.715C302.699 208.318 303.763 210.359 303.159 212.275ZM300.937 207.232C298.754 206.544 296.429 207.756 295.741 209.936C295.053 212.122 296.265 214.445 298.448 215.133C300.629 215.82 302.952 214.609 303.64 212.427C304.327 210.246 303.118 207.92 300.937 207.232ZM303.159 212.275C302.555 214.193 300.514 215.256 298.598 214.653C296.683 214.049 295.62 212.008 296.223 210.09C296.826 208.174 298.868 207.111 300.786 207.715C302.699 208.318 303.763 210.359 303.159 212.275Z" fill="#1F4779"/>
<path d="M298.776 219.668L295.575 218.658L295.039 220.98L297.886 221.877L298.776 219.668Z" fill="#1F4779"/>
<path d="M293.023 216.669L291.473 213.691L289.451 214.954L290.83 217.602L293.023 216.669Z" fill="#1F4779"/>
<path d="M291.075 210.48L292.084 207.279L289.762 206.741L288.865 209.589L291.075 210.48Z" fill="#1F4779"/>
<path d="M294.074 204.726L297.051 203.176L295.789 201.154L293.141 202.533L294.074 204.726Z" fill="#1F4779"/>
<path d="M300.262 202.778L303.464 203.787L304.001 201.465L301.154 200.567L300.262 202.778Z" fill="#1F4779"/>
<path d="M306.016 205.777L307.567 208.753L309.588 207.491L308.209 204.844L306.016 205.777Z" fill="#1F4779"/>
<path d="M307.964 211.966L306.956 215.167L309.278 215.704L310.175 212.856L307.964 211.966Z" fill="#1F4779"/>
<path d="M304.965 217.72L301.989 219.27L303.25 221.292L305.898 219.913L304.965 217.72Z" fill="#1F4779"/>
<path d="M57.4895 82.0361C59.2059 74.9923 54.8859 67.8895 47.8421 66.173C40.796 64.4566 33.6921 68.7766 31.9767 75.8205C30.2603 82.8665 34.5803 89.9705 41.6264 91.6869C48.6702 93.4022 55.7731 89.0822 57.4895 82.0361ZM50.6906 80.3798C49.888 83.6724 46.5731 85.6894 43.2827 84.8869C39.9901 84.0843 37.9731 80.7694 38.7757 77.4768C39.5771 74.1875 42.8931 72.1705 46.1858 72.9731C49.475 73.7734 51.492 77.0894 50.6906 80.3798Z" fill="#1F4779"/>
<path d="M44.2065 91.7541L39.3009 90.5586L38.7266 94.0972L43.0889 95.1602L44.2065 91.7541Z" fill="#1F4779"/>
<path d="M35.2727 87.826L32.6491 83.5127L29.7405 85.6087L32.0736 89.4445L35.2727 87.826Z" fill="#1F4779"/>
<path d="M31.7318 78.7319L32.9273 73.8263L29.3887 73.252L28.3257 77.6143L31.7318 78.7319Z" fill="#1F4779"/>
<path d="M35.66 69.7978L39.9733 67.1742L37.8784 64.2656L34.0415 66.5987L35.66 69.7978Z" fill="#1F4779"/>
<path d="M44.7542 66.2567L49.6597 67.4522L50.2352 63.9136L45.8717 62.8506L44.7542 66.2567Z" fill="#1F4779"/>
<path d="M53.688 70.1849L56.3116 74.4982L59.2202 72.4033L56.8871 68.5664L53.688 70.1849Z" fill="#1F4779"/>
<path d="M57.2292 79.2793L56.0337 84.1848L59.5723 84.7603L60.6353 80.3969L57.2292 79.2793Z" fill="#1F4779"/>
<path d="M53.3009 88.2129L48.9875 90.8365L51.0836 93.7451L54.9205 91.412L53.3009 88.2129Z" fill="#1F4779"/>
<path d="M40.6458 81.3385L44.5829 83.4946L48.4176 81.1593L48.3141 76.6745L44.3792 74.5195L40.5422 76.8504L40.6458 81.3385ZM44.8166 77.6229C45.5825 77.8099 46.0489 78.5769 45.8618 79.3427C45.676 80.1052 44.9079 80.5749 44.1421 80.3879C43.3796 80.202 42.911 79.4306 43.0968 78.6681C43.2839 77.9034 44.0541 77.4381 44.8166 77.6229Z" fill="#1F4779"/>
</g>
<defs>
<clipPath id="clip0_1228_6964">
<rect width="460" height="457.395" fill="white"/>
</clipPath>
</defs>
</svg>
