<svg width="460" height="458" viewBox="0 0 460 458" fill="none" xmlns="http://www.w3.org/2000/svg">
<g clip-path="url(#clip0_1228_7740)">
<path d="M125.6 183V161.58H73.4V138.54L130.64 56.1H157.1V136.92H173.66V161.58H157.1V183H125.6ZM125.6 136.92V95.34H130.28L96.62 144.48V136.92H125.6ZM229.93 184.98C214.33 184.98 202.33 179.28 193.93 167.88C185.65 156.36 181.51 140.1 181.51 119.1C181.51 97.86 185.65 81.72 193.93 70.68C202.33 59.64 214.33 54.12 229.93 54.12C245.65 54.12 257.65 59.64 265.93 70.68C274.21 81.72 278.35 97.8 278.35 118.92C278.35 140.04 274.15 156.36 265.75 167.88C257.47 179.28 245.53 184.98 229.93 184.98ZM229.93 158.52C235.69 158.52 239.95 155.4 242.71 149.16C245.59 142.92 247.03 132.9 247.03 119.1C247.03 105.18 245.59 95.28 242.71 89.4C239.95 83.4 235.69 80.4 229.93 80.4C224.17 80.4 219.85 83.4 216.97 89.4C214.21 95.28 212.83 105.12 212.83 118.92C212.83 132.84 214.21 142.92 216.97 149.16C219.85 155.4 224.17 158.52 229.93 158.52ZM334.259 184.98C325.259 184.98 316.559 183.78 308.159 181.38C299.879 178.86 293.219 175.5 288.179 171.3L298.259 146.82C303.539 150.54 309.119 153.3 314.999 155.1C320.879 156.9 326.939 157.8 333.179 157.8C339.659 157.8 344.519 156.72 347.759 154.56C350.999 152.28 352.619 148.92 352.619 144.48C352.619 140.28 351.119 137.16 348.119 135.12C345.239 133.08 340.919 132.06 335.159 132.06H312.839V106.14H331.919C337.079 106.14 341.159 105.06 344.159 102.9C347.159 100.62 348.659 97.44 348.659 93.36C348.659 89.4 347.219 86.4 344.339 84.36C341.459 82.32 337.259 81.3 331.739 81.3C320.219 81.3 309.779 84.96 300.419 92.28L290.339 68.16C295.739 63.72 302.399 60.3 310.319 57.9C318.239 55.38 326.459 54.12 334.979 54.12C349.139 54.12 360.239 57.24 368.279 63.48C376.319 69.6 380.339 78.12 380.339 89.04C380.339 96.36 378.239 102.66 374.039 107.94C369.959 113.22 364.319 116.7 357.119 118.38V115.86C365.519 117.18 372.119 120.72 376.919 126.48C381.719 132.12 384.119 139.2 384.119 147.72C384.119 159.24 379.679 168.36 370.799 175.08C361.919 181.68 349.739 184.98 334.259 184.98Z" fill="white"/>
<path d="M54.8358 286.173L38.3249 286.483L29.9598 286.608C27.1659 286.66 24.3586 286.65 21.5568 286.669L21.0626 286.672L21.0604 286.173L21.0003 272.111L20.998 271.552L21.5568 271.554L38.1958 271.624C43.7425 271.63 49.288 271.749 54.8347 271.807L55.1408 271.81L55.1386 272.111C55.1175 274.492 55.0429 276.861 54.9928 279.207L54.8358 286.173ZM54.8358 286.173L54.6778 279.076C54.6277 276.736 54.5531 274.417 54.532 272.111L54.8358 272.414C49.2892 272.471 43.7436 272.591 38.1969 272.597L21.5579 272.667L22.1134 272.112L22.0533 286.174L21.5568 285.677C24.3018 285.697 27.0412 285.686 29.7939 285.738L38.0678 285.863L54.8358 286.173Z" fill="#EBEBEB"/>
<path d="M36.2711 303.904L19.7602 304.215L11.3951 304.339C8.60113 304.392 5.79384 304.382 2.99211 304.401L2.49788 304.404L2.49566 303.904L2.43777 289.842L2.43555 289.283L2.99433 289.285L19.6333 289.356C25.18 289.361 30.7255 289.48 36.2722 289.538L36.5783 289.541L36.5761 289.842C36.555 292.223 36.4804 294.593 36.4303 296.938L36.2711 303.904ZM36.2711 303.904L36.1131 296.808C36.063 294.467 35.9884 292.148 35.9672 289.842L36.2711 290.146C30.7244 290.203 25.1789 290.323 19.6322 290.328L2.99322 290.399L3.54867 289.843L3.48967 303.904L2.99322 303.408C5.73929 303.428 8.47757 303.417 11.2303 303.469L19.5042 303.594L36.2711 303.904Z" fill="#EBEBEB"/>
<path d="M36.271 -0.379139L19.7601 -0.0685787L11.395 0.0560923C8.60102 0.108409 5.79373 0.0972757 2.992 0.117312L2.49777 0.120652L2.49555 -0.379139L2.43767 -14.4423L2.43433 -15L2.99311 -14.9978L19.6321 -14.9276C25.1788 -14.9221 30.7243 -14.803 36.271 -14.7451L36.5771 -14.7418L36.5749 -14.4412C36.5537 -12.0602 36.4792 -9.69041 36.4291 -7.34506L36.271 -0.379139ZM36.271 -0.379139L36.113 -7.47529C36.0629 -9.81619 35.9883 -12.1348 35.9671 -14.4412L36.271 -14.1373C30.7254 -14.0817 25.1788 -13.9615 19.6321 -13.9559L2.99311 -13.8858L3.54856 -14.4412L3.48957 -0.380252L2.99311 -0.876705C5.73919 -0.856669 8.47747 -0.8678 11.2302 -0.815483L19.5041 -0.690814L36.271 -0.379139Z" fill="#EBEBEB"/>
<path d="M457.007 -0.379139L440.496 -0.0685787L432.131 0.0560923C429.337 0.108409 426.529 0.0972757 423.728 0.117312L423.233 0.120652L423.231 -0.379139L423.171 -14.4412L423.169 -15L423.728 -14.9978L440.367 -14.9276C445.913 -14.9221 451.459 -14.803 457.006 -14.7451L457.312 -14.7418L457.31 -14.4412C457.288 -12.0602 457.214 -9.69041 457.164 -7.34506L457.007 -0.379139ZM457.007 -0.379139L456.849 -7.47529C456.799 -9.81619 456.724 -12.1348 456.703 -14.4412L457.007 -14.1373C451.46 -14.0806 445.913 -13.9603 440.368 -13.9548L423.729 -13.8847L424.284 -14.4401L424.224 -0.378027L423.728 -0.874478C426.473 -0.854443 429.212 -0.865573 431.965 -0.813256L440.239 -0.688587L457.007 -0.379139Z" fill="#EBEBEB"/>
<path d="M438.443 17.3523L421.932 17.6629L413.567 17.7875C410.773 17.8399 407.966 17.8287 405.164 17.8488L404.67 17.8521L404.668 17.3523L404.608 3.29023L404.605 2.73145L405.164 2.73367L421.803 2.8038C427.35 2.80936 432.895 2.92847 438.442 2.98635L438.748 2.98969L438.746 3.29023C438.725 5.6712 438.65 8.04104 438.6 10.3864L438.443 17.3523ZM438.443 17.3523L438.285 10.2562C438.235 7.91526 438.161 5.59662 438.139 3.29023L438.443 3.59411C432.897 3.65088 427.351 3.7711 421.804 3.77667L405.165 3.84679L405.721 3.29134L405.661 17.3534L405.164 16.857C407.909 16.8759 410.649 16.8659 413.401 16.9182L421.675 17.0429L438.443 17.3523Z" fill="#EBEBEB"/>
<path d="M353.214 181.865L336.703 182.176L328.338 182.3C325.544 182.353 322.736 182.341 319.935 182.361L319.441 182.365L319.438 181.865L319.378 167.803L319.376 167.244L319.935 167.246L336.574 167.316C342.12 167.322 347.666 167.442 353.213 167.499L353.519 167.502L353.517 167.803C353.495 170.184 353.421 172.554 353.371 174.899L353.214 181.865ZM353.214 181.865L353.056 174.769C353.006 172.427 352.931 170.109 352.91 167.803L353.214 168.107C347.667 168.164 342.12 168.284 336.575 168.289L319.936 168.359L320.491 167.804L320.431 181.866L319.935 181.371C322.68 181.391 325.419 181.38 328.172 181.432L336.446 181.557L353.214 181.865Z" fill="#EBEBEB"/>
<path d="M334.65 199.596L318.139 199.907L309.774 200.032C306.98 200.084 304.173 200.073 301.371 200.093L300.877 200.096L300.875 199.596L300.814 185.534L300.812 184.976L301.371 184.978L318.01 185.048C323.557 185.054 329.102 185.174 334.649 185.23L334.955 185.234L334.953 185.534C334.932 187.915 334.857 190.285 334.807 192.631L334.65 199.596ZM334.65 199.596L334.492 192.5C334.442 190.159 334.367 187.841 334.346 185.534L334.65 185.838C329.103 185.895 323.558 186.015 318.011 186.021L301.372 186.091L301.928 185.535L301.867 199.598L301.371 199.101C304.116 199.121 306.855 199.11 309.608 199.162L317.882 199.287L334.65 199.596Z" fill="#EBEBEB"/>
<path d="M316.159 181.865L299.648 182.176L291.283 182.3C288.489 182.353 285.682 182.341 282.88 182.361L282.386 182.365L282.384 181.865L282.324 167.803L282.321 167.244L282.88 167.246L299.519 167.316C305.066 167.322 310.611 167.442 316.158 167.499L316.464 167.502L316.462 167.803C316.441 170.184 316.366 172.554 316.316 174.899L316.159 181.865ZM316.159 181.865L316.001 174.769C315.951 172.427 315.876 170.109 315.855 167.803L316.159 168.107C310.612 168.164 305.066 168.284 299.52 168.289L282.881 168.359L283.437 167.804L283.377 181.866L282.88 181.371C285.626 181.391 288.364 181.38 291.117 181.432L299.391 181.557L316.159 181.865Z" fill="#EBEBEB"/>
<path d="M457.007 303.904L440.496 304.215L432.131 304.339C429.337 304.392 426.529 304.382 423.728 304.401L423.233 304.404L423.231 303.904L423.171 289.842L423.169 289.283L423.728 289.285L440.367 289.356C445.913 289.361 451.46 289.48 457.006 289.538L457.312 289.541L457.31 289.842C457.288 292.223 457.214 294.593 457.164 296.938L457.007 303.904ZM457.007 303.904L456.849 296.808C456.799 294.467 456.724 292.148 456.703 289.842L457.007 290.146C451.46 290.203 445.914 290.323 440.368 290.328L423.729 290.399L424.284 289.843L424.224 303.905L423.728 303.409C426.473 303.429 429.212 303.418 431.965 303.47L440.239 303.595L457.007 303.904Z" fill="#EBEBEB"/>
<path d="M174.262 41.4373L157.751 41.7478L149.386 41.8725C146.592 41.9248 143.784 41.9148 140.983 41.9337L140.488 41.9371L140.486 41.4373L140.426 27.3752L140.424 26.8164L140.983 26.8186L157.622 26.8888C163.168 26.8943 168.714 27.0134 174.261 27.0713L174.567 27.0746L174.564 27.3752C174.543 29.7562 174.469 32.126 174.419 34.4713L174.262 41.4373ZM174.262 41.4373L174.104 34.3411C174.053 32.0002 173.979 29.6816 173.958 27.3752L174.262 27.6791C168.715 27.7358 163.169 27.8561 157.623 27.8616L140.984 27.9318L141.539 27.3763L141.479 41.4384L140.983 40.9419C143.728 40.962 146.467 40.9508 149.22 41.0031L157.494 41.1278L174.262 41.4373Z" fill="#EBEBEB"/>
<path d="M422.821 153.252L429.373 142.687L426.138 140.684C425.186 140.094 424.671 139.018 424.766 137.903C424.819 137.286 424.839 136.666 424.825 136.044C424.801 134.928 425.384 133.889 426.368 133.361L429.722 131.563L423.845 120.604L420.492 122.403C419.508 122.93 418.32 122.841 417.404 122.204C416.893 121.848 416.366 121.521 415.823 121.224C414.842 120.686 414.231 119.661 414.266 118.542L414.386 114.738L401.961 114.352L401.846 118.17C401.813 119.289 401.126 120.263 400.114 120.742C399.839 120.872 399.566 121.009 399.297 121.154C399.026 121.299 398.762 121.45 398.502 121.607C397.548 122.183 396.363 122.217 395.415 121.63L392.156 119.611L385.603 130.176L388.845 132.187C389.795 132.778 390.311 133.855 390.214 134.97C390.16 135.583 390.14 136.202 390.153 136.821C390.176 137.936 389.593 138.974 388.61 139.5L385.255 141.299L391.132 152.258L394.487 150.459C395.47 149.933 396.657 150.02 397.573 150.656C398.081 151.009 398.608 151.334 399.149 151.629C400.132 152.165 400.744 153.191 400.709 154.309L400.593 158.122L413.018 158.508L413.136 154.693C413.171 153.578 413.855 152.607 414.865 152.131C415.141 152.001 415.416 151.862 415.689 151.716C415.959 151.571 416.224 151.42 416.485 151.263C417.444 150.684 418.634 150.65 419.587 151.242L422.821 153.252ZM412.3 145.407C407.345 148.065 401.178 146.202 398.52 141.247C395.862 136.291 397.719 130.116 402.675 127.457C407.631 124.799 413.811 126.665 416.469 131.621C419.126 136.577 417.256 142.748 412.3 145.407Z" fill="#EBEBEB"/>
<path d="M64.7347 272.956L71.2877 262.392L68.0518 260.387C67.1001 259.797 66.5847 258.722 66.6805 257.606C66.7339 256.99 66.7528 256.37 66.7395 255.747C66.715 254.631 67.2982 253.592 68.2822 253.065L71.6361 251.266L65.7588 240.306L62.4061 242.105C61.4221 242.633 60.2344 242.543 59.3183 241.906C58.8074 241.551 58.2797 241.223 57.7376 240.926C56.7559 240.388 56.1448 239.363 56.1804 238.245L56.3006 234.44L43.8748 234.054L43.7602 237.872C43.7268 238.992 43.04 239.965 42.0282 240.444C41.7532 240.574 41.4805 240.711 41.21 240.856C40.9395 241.001 40.6746 241.152 40.4152 241.309C39.4613 241.886 38.2758 241.919 37.3285 241.331L34.0693 239.312L27.5164 249.877L30.7578 251.888C31.7084 252.479 32.2238 253.556 32.1269 254.671C32.0735 255.284 32.0535 255.903 32.0657 256.522C32.0891 257.637 31.5058 258.675 30.5229 259.201L27.168 261L33.0453 271.959L36.4002 270.16C37.3831 269.634 38.5697 269.721 39.4858 270.358C39.9945 270.711 40.521 271.036 41.062 271.331C42.0448 271.868 42.6571 272.893 42.6226 274.011L42.5057 277.825L54.9315 278.211L55.0495 274.397C55.084 273.281 55.7685 272.311 56.7781 271.833C57.0542 271.703 57.3291 271.564 57.6018 271.418C57.8723 271.273 58.1373 271.122 58.3977 270.965C59.3561 270.386 60.5472 270.353 61.5 270.944L64.7347 272.956ZM54.2135 265.11C49.2579 267.768 43.0912 265.906 40.433 260.95C37.7749 255.994 39.6316 249.819 44.5883 247.161C49.544 244.503 55.724 246.368 58.3821 251.324C61.0403 256.282 59.1691 262.453 54.2135 265.11Z" fill="#1F4779"/>
<path d="M192.007 70.6213L187.655 63.0777L185.346 64.4112C184.667 64.803 183.832 64.7663 183.175 64.3378C182.813 64.1007 182.436 63.8836 182.048 63.6866C181.351 63.3326 180.902 62.628 180.902 61.8466V59.1807H172.191V61.8466C172.191 62.628 171.743 63.3326 171.046 63.6866C170.657 63.8836 170.281 64.1018 169.918 64.3378C169.261 64.7652 168.427 64.8042 167.748 64.4112L165.439 63.0777L161.087 70.6213L163.405 71.9571C164.085 72.3489 164.459 73.0947 164.419 73.8783C164.408 74.0909 164.403 74.3047 164.403 74.5195C164.403 74.7343 164.408 74.948 164.419 75.1607C164.459 75.9409 164.088 76.6834 163.412 77.0741L161.087 78.4176L165.439 85.9613L167.754 84.6266C168.433 84.2348 169.269 84.2738 169.926 84.7023C170.288 84.9383 170.662 85.1554 171.049 85.3524C171.745 85.7075 172.192 86.411 172.192 87.1924V89.8594H180.904V87.1913C180.904 86.4099 181.351 85.7064 182.047 85.3513C182.433 85.1543 182.808 84.9372 183.169 84.7012C183.826 84.2716 184.66 84.2337 185.34 84.6255L187.656 85.9602L192.008 78.4165L189.692 77.0808C189.014 76.6901 188.642 75.9465 188.681 75.1651C188.692 74.9514 188.698 74.7365 188.698 74.5195C188.698 74.3047 188.692 74.0909 188.681 73.8783C188.641 73.0947 189.015 72.3478 189.695 71.956L192.007 70.6213ZM183.681 74.5195C183.681 78.4588 180.49 81.6501 176.55 81.6501C172.611 81.6501 169.413 78.4588 169.413 74.5195C169.413 70.5801 172.611 67.3821 176.55 67.3821C180.49 67.381 183.681 70.579 183.681 74.5195Z" fill="#1F4779"/>
<path d="M0 378.294L57.4994 378.023L115 377.924L230 377.738L345 377.923L402.499 378.021L460 378.294L402.499 378.566L345 378.663L230 378.849L115 378.662L57.4994 378.564L0 378.294Z" fill="#263238"/>
<path d="M252.932 282.5H213.402V285.738H252.932V282.5Z" fill="#37474F"/>
<path d="M252.932 286.718H213.402V289.956H252.932V286.718Z" fill="#37474F"/>
<path d="M252.932 290.936H213.402V294.174H252.932V290.936Z" fill="#37474F"/>
<path d="M252.932 295.154H213.402V298.392H252.932V295.154Z" fill="#37474F"/>
<path d="M252.932 299.372H213.402V302.61H252.932V299.372Z" fill="#37474F"/>
<path d="M270.043 383.514H194.89V386.752H270.043V383.514Z" fill="#37474F"/>
<path d="M270.043 387.731H194.89V390.97H270.043V387.731Z" fill="#37474F"/>
<path d="M270.043 391.95H194.89V395.188H270.043V391.95Z" fill="#37474F"/>
<path d="M270.043 396.168H194.89V399.406H270.043V396.168Z" fill="#37474F"/>
<path d="M270.043 400.385H194.89V403.623H270.043V400.385Z" fill="#37474F"/>
<path d="M161.915 255.733C161.952 255.296 145.466 249.773 145.466 249.773L146.44 193.131L168.301 188.44L161.915 255.733Z" fill="#E0AF7F"/>
<path opacity="0.2" d="M161.915 255.733C161.952 255.296 145.466 249.773 145.466 249.773L146.44 193.131L168.301 188.44L161.915 255.733Z" fill="black"/>
<path d="M312.915 277.966C313.031 277.542 330.411 278.031 330.411 278.031L348.989 224.513L330.079 212.586L312.915 277.966Z" fill="#E0AF7F"/>
<path opacity="0.2" d="M312.915 277.966C313.031 277.542 330.411 278.031 330.411 278.031L348.989 224.513L330.079 212.586L312.915 277.966Z" fill="black"/>
<path d="M158.741 276.589C158.741 276.589 164.854 184.981 170.214 154.846C170.214 154.846 280.878 163.215 340.618 186.049C340.618 186.049 309.819 293.051 308.225 298.361C308.225 298.362 230.297 283.011 158.741 276.589Z" fill="#E0AF7F"/>
<path opacity="0.1" d="M257.519 167.08C255.72 178.11 253.899 189.137 252.014 200.152L246.311 233.188L246.003 232.722L283.082 241.53L301.603 246.018L320.102 250.595L301.505 246.433L282.929 242.184L245.816 233.515L245.441 233.427L245.509 233.047L251.414 200.046C253.399 189.048 255.448 178.062 257.519 167.08Z" fill="black"/>
<path opacity="0.1" d="M253.45 173.366C253.47 174.377 252.664 175.416 251.507 175.516C250.946 175.57 250.336 175.391 249.879 174.993C249.423 174.596 249.15 173.984 249.147 173.366C249.149 172.748 249.421 172.135 249.878 171.737C250.334 171.337 250.946 171.161 251.507 171.213C252.666 171.316 253.47 172.356 253.45 173.366ZM253.45 173.366C253.446 172.856 253.22 172.355 252.839 172.033C252.459 171.712 251.96 171.58 251.507 171.633C250.573 171.741 249.967 172.579 249.981 173.366C249.966 174.153 250.571 174.995 251.507 175.101C251.96 175.152 252.46 175.021 252.84 174.699C253.22 174.378 253.446 173.876 253.45 173.366Z" fill="black"/>
<path opacity="0.1" d="M251.507 186.998C251.527 188.008 250.721 189.047 249.563 189.148C249.002 189.202 248.392 189.022 247.936 188.625C247.479 188.228 247.207 187.615 247.203 186.998C247.207 186.38 247.478 185.767 247.935 185.369C248.39 184.968 249.002 184.793 249.563 184.845C250.723 184.946 251.528 185.987 251.507 186.998ZM251.507 186.998C251.502 186.488 251.276 185.987 250.896 185.665C250.515 185.344 250.016 185.212 249.563 185.265C248.629 185.373 248.024 186.211 248.037 186.998C248.023 187.785 248.627 188.627 249.563 188.733C250.016 188.784 250.516 188.653 250.897 188.33C251.276 188.008 251.502 187.508 251.507 186.998Z" fill="black"/>
<path opacity="0.1" d="M249.114 201.4C249.135 202.411 248.328 203.45 247.17 203.551C246.609 203.604 245.999 203.425 245.543 203.027C245.086 202.63 244.814 202.018 244.81 201.4C244.814 200.782 245.085 200.169 245.542 199.772C245.997 199.371 246.609 199.195 247.17 199.247C248.33 199.349 249.135 200.389 249.114 201.4ZM249.114 201.4C249.109 200.89 248.883 200.389 248.504 200.068C248.123 199.746 247.624 199.615 247.171 199.667C246.237 199.775 245.632 200.613 245.645 201.4C245.631 202.187 246.235 203.03 247.171 203.135C247.624 203.187 248.124 203.055 248.505 202.732C248.883 202.411 249.109 201.91 249.114 201.4Z" fill="black"/>
<path opacity="0.1" d="M246.72 215.802C246.741 216.813 245.934 217.853 244.777 217.953C244.216 218.005 243.606 217.827 243.149 217.43C242.693 217.032 242.42 216.42 242.417 215.802C242.419 215.185 242.692 214.571 243.148 214.174C243.604 213.773 244.216 213.597 244.777 213.65C245.937 213.751 246.741 214.792 246.72 215.802ZM246.72 215.802C246.716 215.293 246.49 214.792 246.109 214.47C245.729 214.148 245.23 214.017 244.777 214.069C243.843 214.177 243.237 215.015 243.251 215.802C243.236 216.589 243.841 217.432 244.777 217.538C245.23 217.59 245.73 217.458 246.11 217.136C246.49 216.813 246.716 216.311 246.72 215.802Z" fill="black"/>
<path opacity="0.1" d="M254.875 238.77C254.896 239.781 254.089 240.819 252.932 240.921C252.371 240.973 251.761 240.795 251.304 240.398C250.848 240 250.575 239.388 250.572 238.77C250.574 238.152 250.846 237.539 251.303 237.142C251.758 236.741 252.371 236.565 252.932 236.617C254.09 236.72 254.895 237.761 254.875 238.77ZM254.875 238.77C254.871 238.26 254.645 237.759 254.264 237.438C253.883 237.116 253.385 236.985 252.932 237.037C251.998 237.145 251.392 237.983 251.406 238.77C251.391 239.557 251.995 240.4 252.932 240.506C253.385 240.557 253.884 240.425 254.265 240.104C254.645 239.782 254.87 239.28 254.875 238.77Z" fill="black"/>
<path opacity="0.1" d="M268.47 242.088C268.491 243.098 267.684 244.137 266.526 244.238C265.965 244.29 265.355 244.112 264.899 243.715C264.442 243.318 264.17 242.705 264.166 242.088C264.17 241.47 264.441 240.856 264.898 240.459C265.353 240.058 265.965 239.882 266.526 239.935C267.686 240.036 268.491 241.077 268.47 242.088ZM268.47 242.088C268.465 241.578 268.239 241.077 267.86 240.755C267.479 240.433 266.98 240.302 266.527 240.354C265.593 240.462 264.988 241.301 265.001 242.088C264.987 242.875 265.591 243.717 266.527 243.823C266.98 243.875 267.48 243.743 267.861 243.421C268.239 243.098 268.465 242.597 268.47 242.088Z" fill="black"/>
<path opacity="0.1" d="M282.065 245.404C282.085 246.415 281.279 247.454 280.122 247.555C279.561 247.607 278.951 247.43 278.494 247.031C278.038 246.634 277.765 246.022 277.762 245.404C277.765 244.786 278.036 244.173 278.493 243.775C278.949 243.375 279.561 243.199 280.122 243.251C281.281 243.352 282.085 244.393 282.065 245.404ZM282.065 245.404C282.061 244.894 281.835 244.393 281.455 244.072C281.075 243.75 280.576 243.619 280.123 243.671C279.189 243.779 278.583 244.617 278.597 245.404C278.582 246.191 279.187 247.034 280.123 247.139C280.576 247.191 281.076 247.059 281.456 246.736C281.835 246.415 282.06 245.914 282.065 245.404Z" fill="black"/>
<path opacity="0.1" d="M295.66 248.719C295.681 249.73 294.874 250.769 293.716 250.87C293.155 250.922 292.545 250.744 292.089 250.347C291.632 249.949 291.36 249.337 291.356 248.719C291.36 248.102 291.63 247.488 292.088 247.091C292.543 246.69 293.155 246.514 293.716 246.567C294.875 246.669 295.68 247.71 295.66 248.719ZM295.66 248.719C295.655 248.21 295.429 247.709 295.049 247.387C294.668 247.065 294.169 246.934 293.716 246.986C292.782 247.094 292.177 247.932 292.19 248.719C292.176 249.506 292.78 250.349 293.716 250.455C294.169 250.506 294.669 250.375 295.05 250.052C295.429 249.731 295.655 249.229 295.66 248.719Z" fill="black"/>
<path opacity="0.1" d="M309.249 252.186C309.192 253.196 308.308 254.17 307.146 254.181C306.583 254.19 305.989 253.966 305.563 253.533C305.138 253.101 304.913 252.471 304.958 251.855C305.008 251.239 305.326 250.649 305.813 250.287C306.298 249.923 306.921 249.794 307.477 249.89C308.626 250.081 309.347 251.18 309.249 252.186ZM309.249 252.186C309.284 251.678 309.097 251.161 308.743 250.81C308.387 250.46 307.9 250.291 307.445 250.308C306.505 250.344 305.836 251.133 305.789 251.919C305.714 252.703 306.252 253.589 307.178 253.767C307.625 253.854 308.134 253.761 308.538 253.469C308.942 253.177 309.206 252.694 309.249 252.186Z" fill="black"/>
<path opacity="0.1" d="M244.327 230.204C244.347 231.214 243.541 232.254 242.384 232.354C241.822 232.408 241.213 232.23 240.756 231.831C240.3 231.434 240.027 230.822 240.024 230.204C240.027 229.586 240.299 228.973 240.755 228.575C241.21 228.175 241.822 227.999 242.384 228.051C243.543 228.153 244.348 229.194 244.327 230.204ZM244.327 230.204C244.323 229.694 244.097 229.193 243.716 228.871C243.335 228.55 242.837 228.418 242.384 228.471C241.45 228.579 240.844 229.417 240.857 230.204C240.843 230.991 241.447 231.833 242.384 231.939C242.837 231.99 243.336 231.859 243.716 231.537C244.098 231.216 244.323 230.714 244.327 230.204Z" fill="black"/>
<path opacity="0.2" d="M221.434 254.068C234.339 242.464 235.394 222.596 223.791 209.69C212.187 196.785 192.318 195.73 179.413 207.333C166.508 218.937 165.452 238.806 177.056 251.711C188.66 264.616 208.528 265.672 221.434 254.068Z" fill="black"/>
<path d="M223.985 239.623C228.912 226.606 222.354 212.059 209.338 207.132C196.321 202.205 181.774 208.763 176.847 221.78C171.92 234.796 178.478 249.343 191.494 254.27C204.511 259.197 219.058 252.64 223.985 239.623Z" fill="#263238"/>
<path d="M198.903 221.439L193.012 220.484L192.057 226.376L197.949 227.33L198.903 221.439Z" fill="#E0AF7F"/>
<path d="M193.966 214.592L188.074 213.638L187.12 219.529L193.011 220.484L193.966 214.592Z" fill="#E0AF7F"/>
<path d="M217.532 218.409L211.641 217.455L210.686 223.347L216.578 224.301L217.532 218.409Z" fill="#E0AF7F"/>
<path d="M190.169 238.026L184.278 237.071L183.323 242.963L189.215 243.917L190.169 238.026Z" fill="#E0AF7F"/>
<path d="M213.736 241.843L207.844 240.889L206.89 246.78L212.781 247.735L213.736 241.843Z" fill="#E0AF7F"/>
<path d="M197.016 233.088L191.125 232.134L190.17 238.025L196.062 238.98L197.016 233.088Z" fill="#E0AF7F"/>
<path d="M203.851 228.218L197.959 227.264L197.005 233.155L202.897 234.11L203.851 228.218Z" fill="#E0AF7F"/>
<path d="M210.686 223.347L204.795 222.393L203.841 228.284L209.732 229.239L210.686 223.347Z" fill="#E0AF7F"/>
<path d="M208.804 234.994L202.913 234.04L201.958 239.932L207.85 240.886L208.804 234.994Z" fill="#E0AF7F"/>
<path d="M309.063 263.773C320.063 250.349 318.097 230.549 304.673 219.549C291.249 208.549 271.449 210.515 260.449 223.939C249.45 237.364 251.415 257.163 264.839 268.163C278.264 279.163 298.063 277.197 309.063 263.773Z" fill="#E0AF7F"/>
<path opacity="0.2" d="M309.063 263.773C320.063 250.349 318.097 230.549 304.673 219.549C291.249 208.549 271.449 210.515 260.449 223.939C249.45 237.364 251.415 257.163 264.839 268.163C278.264 279.163 298.063 277.197 309.063 263.773Z" fill="black"/>
<path opacity="0.2" d="M315.332 251.138C315.187 251.757 315.023 252.355 314.837 252.953L253.584 239.888C253.728 238.795 253.924 237.702 254.181 236.599C258.193 219.718 275.135 209.283 292.027 213.293C308.908 217.305 319.344 234.248 315.332 251.138Z" fill="black"/>
<path d="M294.468 267.127C307.311 261.761 313.372 247 308.006 234.157C302.641 221.314 287.88 215.253 275.037 220.619C262.194 225.984 256.132 240.745 261.498 253.588C266.864 266.431 281.625 272.492 294.468 267.127Z" fill="#263238"/>
<path d="M291.099 230.1L285.292 228.72L278.424 257.623L284.231 259.003L291.099 230.1Z" fill="#E0AF7F"/>
<path d="M317.155 250.548L252.816 235.257C257.038 217.494 274.866 206.518 292.629 210.739C310.393 214.961 321.377 232.785 317.155 250.548Z" fill="#E0AF7F"/>
<path opacity="0.2" d="M317.155 250.548L252.816 235.257C257.038 217.494 274.866 206.518 292.629 210.739C310.393 214.961 321.377 232.785 317.155 250.548Z" fill="black"/>
<path opacity="0.1" d="M230.079 262.549C230.242 260.036 231.164 257.489 232.987 255.474C233.885 254.459 235.084 253.662 236.404 253.176C237.731 252.689 239.164 252.603 240.524 252.719C241.907 252.88 243.32 253.368 244.473 254.24C245.604 255.132 246.471 256.292 246.981 257.542C248.03 260.033 248.145 262.696 247.636 265.165C247.218 262.697 246.58 260.3 245.421 258.333C244.271 256.352 242.453 255.119 240.285 254.927C238.075 254.652 235.917 255.246 234.181 256.714C232.442 258.176 231.115 260.272 230.079 262.549Z" fill="black"/>
<path d="M167.349 198.453C167.611 195.096 167.987 191.754 168.305 188.405C168.663 185.061 169.03 181.718 169.436 178.382C169.822 175.043 170.258 171.71 170.685 168.375C171.104 165.04 171.587 161.714 172.034 158.383L172.153 157.493L173.055 157.55C180.307 158.006 187.541 158.592 194.766 159.335C198.379 159.706 201.986 160.125 205.589 160.589C209.186 161.105 212.787 161.582 216.363 162.236L194.638 160.892L172.937 159.488L173.958 158.655C173.465 161.98 173.006 165.31 172.484 168.63C171.97 171.952 171.464 175.274 170.909 178.59C170.375 181.908 169.801 185.222 169.217 188.534C168.594 191.841 168.029 195.155 167.349 198.453Z" fill="white"/>
<path d="M172.575 223.85C173.304 219.814 175.139 215.968 177.603 212.618C178.216 211.776 178.914 210.998 179.586 210.196C180.313 209.446 181.068 208.72 181.814 207.984C182.628 207.323 183.449 206.668 184.284 206.032C185.171 205.47 186.047 204.883 186.949 204.343C187.898 203.887 188.842 203.417 189.801 202.983L192.787 201.95L195.877 201.313C196.915 201.161 197.969 201.13 199.01 201.051C203.201 200.943 207.324 201.837 211.108 203.369C207.08 202.615 203.066 202.196 199.109 202.574C195.162 202.941 191.326 204.122 187.896 206.053C184.44 207.94 181.379 210.542 178.793 213.566C176.217 216.606 174.086 220.047 172.575 223.85Z" fill="white"/>
<path d="M259.261 232.339C260.541 228.442 262.888 224.887 265.791 221.909C266.515 221.16 267.314 220.486 268.09 219.784C268.913 219.142 269.762 218.528 270.602 217.901C271.5 217.358 272.403 216.822 273.318 216.308C274.276 215.874 275.223 215.413 276.191 215.004C277.195 214.683 278.195 214.347 279.203 214.051L282.303 213.44L285.453 213.235C286.501 213.227 287.549 213.342 288.59 213.407C292.756 213.879 296.715 215.334 300.253 217.374C296.367 216.071 292.45 215.101 288.478 214.93C284.518 214.75 280.556 215.389 276.893 216.829C273.209 218.22 269.818 220.375 266.839 223.012C263.867 225.666 261.281 228.781 259.261 232.339Z" fill="white"/>
<path d="M162.257 333.043C154.206 333.043 136.584 331.233 125.243 316.653C110.735 297.999 115.979 262.205 116.208 260.69L122.507 261.647C122.455 261.991 117.449 296.254 130.272 312.741C142.809 328.86 165.549 326.546 165.777 326.518L166.494 332.849C166.246 332.879 164.687 333.043 162.257 333.043Z" fill="#E0AF7F"/>
<path opacity="0.4" d="M162.257 333.043C154.206 333.043 136.584 331.233 125.243 316.653C110.735 297.999 115.979 262.205 116.208 260.69L122.507 261.647C122.455 261.991 117.449 296.254 130.272 312.741C142.809 328.86 165.549 326.546 165.777 326.518L166.494 332.849C166.246 332.879 164.687 333.043 162.257 333.043Z" fill="white"/>
<path d="M124.361 265.98C123.213 265.98 122.039 265.884 120.845 265.691C110.219 263.97 105.515 257.612 103.439 252.58C101.359 247.538 100.878 241.438 102.01 234.452L115.485 236.636C114.784 240.964 114.988 244.779 116.059 247.374C116.822 249.227 118.305 251.451 123.028 252.215C125.185 252.565 127.517 252.38 129.959 248.697C131.845 245.854 132.977 241.985 133.373 239.534L146.849 241.716C146.537 243.644 145.216 250.39 141.336 256.24C137.118 262.605 131.179 265.98 124.361 265.98Z" fill="#E0AF7F"/>
<path d="M175.568 351.277C175.545 350.986 164.152 349.166 164.152 349.166L158.622 311.982L172.421 306.531L175.568 351.277Z" fill="#E0AF7F"/>
<path opacity="0.2" d="M175.568 351.277C175.545 350.986 164.152 349.166 164.152 349.166L158.622 311.982L172.421 306.531L175.568 351.277Z" fill="black"/>
<path d="M288.212 351.346C288.242 351.056 299.673 349.488 299.673 349.488L306.023 312.436L292.347 306.681L288.212 351.346Z" fill="#E0AF7F"/>
<path opacity="0.2" d="M288.212 351.346C288.242 351.056 299.673 349.488 299.673 349.488L306.023 312.436L292.347 306.681L288.212 351.346Z" fill="black"/>
<path d="M170.828 298.205C170.828 298.205 262.978 294.265 294.107 299.453C294.107 299.453 284.966 388.621 284.472 390.351C284.472 390.351 192.805 390.104 178.476 390.351C178.476 390.351 170.71 331.058 170.828 298.205Z" fill="#E0AF7F"/>
<path opacity="0.2" d="M198.818 322.639C198.818 322.639 249.123 320.652 266.117 323.267C266.117 323.267 261.127 368.231 260.858 369.103C260.858 369.103 210.816 368.978 202.993 369.103C202.992 369.104 199.555 338.33 198.818 322.639Z" fill="black"/>
<path opacity="0.2" d="M205.694 369.085C204.542 369.085 203.629 369.099 202.99 369.107C202.99 369.107 199.559 338.328 198.815 322.638C198.815 322.638 199.959 322.593 201.957 322.526L205.694 369.085Z" fill="black"/>
<path d="M220.532 333.733C217.712 332.845 214.708 334.41 213.82 337.227C212.93 340.05 214.498 343.051 217.317 343.94C220.134 344.828 223.135 343.264 224.024 340.444C224.912 337.627 223.349 334.622 220.532 333.733ZM223.404 340.247C222.623 342.725 219.986 344.099 217.512 343.318C215.037 342.538 213.664 339.902 214.444 337.424C215.224 334.95 217.861 333.575 220.338 334.357C222.809 335.136 224.184 337.773 223.404 340.247ZM220.532 333.733C217.712 332.845 214.708 334.41 213.82 337.227C212.93 340.05 214.498 343.051 217.317 343.94C220.134 344.828 223.135 343.264 224.024 340.444C224.912 337.627 223.349 334.622 220.532 333.733ZM223.404 340.247C222.623 342.725 219.986 344.099 217.512 343.318C215.037 342.538 213.664 339.902 214.444 337.424C215.224 334.95 217.861 333.575 220.338 334.357C222.809 335.136 224.184 337.773 223.404 340.247ZM220.532 333.733C217.712 332.845 214.708 334.41 213.82 337.227C212.93 340.05 214.498 343.051 217.317 343.94C220.134 344.828 223.135 343.264 224.024 340.444C224.912 337.627 223.349 334.622 220.532 333.733ZM223.404 340.247C222.623 342.725 219.986 344.099 217.512 343.318C215.037 342.538 213.664 339.902 214.444 337.424C215.224 334.95 217.861 333.575 220.338 334.357C222.809 335.136 224.184 337.773 223.404 340.247ZM222.315 328.08C216.37 326.208 210.039 329.51 208.166 335.447C206.295 341.386 209.591 347.721 215.534 349.592C221.471 351.462 227.806 348.164 229.677 342.224C231.551 336.289 228.252 329.951 222.315 328.08ZM224.82 340.694C223.794 343.947 220.317 345.76 217.067 344.734C213.816 343.71 212.004 340.233 213.028 336.979C214.053 333.726 217.533 331.917 220.783 332.941C224.031 333.966 225.844 337.442 224.82 340.694ZM224.024 340.444C224.912 337.627 223.349 334.622 220.532 333.733C217.712 332.845 214.708 334.41 213.82 337.227C212.93 340.05 214.498 343.051 217.317 343.94C220.134 344.829 223.135 343.265 224.024 340.444ZM223.404 340.247C222.623 342.725 219.986 344.099 217.512 343.318C215.037 342.538 213.664 339.902 214.444 337.424C215.224 334.95 217.861 333.575 220.338 334.357C222.809 335.136 224.184 337.773 223.404 340.247ZM220.532 333.733C217.712 332.845 214.708 334.41 213.82 337.227C212.93 340.05 214.498 343.051 217.317 343.94C220.134 344.828 223.135 343.264 224.024 340.444C224.912 337.627 223.349 334.622 220.532 333.733ZM223.404 340.247C222.623 342.725 219.986 344.099 217.512 343.318C215.037 342.538 213.664 339.902 214.444 337.424C215.224 334.95 217.861 333.575 220.338 334.357C222.809 335.136 224.184 337.773 223.404 340.247ZM220.532 333.733C217.712 332.845 214.708 334.41 213.82 337.227C212.93 340.05 214.498 343.051 217.317 343.94C220.134 344.828 223.135 343.264 224.024 340.444C224.912 337.627 223.349 334.622 220.532 333.733ZM223.404 340.247C222.623 342.725 219.986 344.099 217.512 343.318C215.037 342.538 213.664 339.902 214.444 337.424C215.224 334.95 217.861 333.575 220.338 334.357C222.809 335.136 224.184 337.773 223.404 340.247Z" fill="#E0AF7F"/>
<path d="M217.742 349.799L213.607 348.495L212.913 351.495L216.591 352.654L217.742 349.799Z" fill="#E0AF7F"/>
<path d="M210.31 345.925L208.306 342.079L205.695 343.709L207.476 347.129L210.31 345.925Z" fill="#E0AF7F"/>
<path d="M207.793 337.929L209.096 333.794L206.097 333.1L204.937 336.778L207.793 337.929Z" fill="#E0AF7F"/>
<path d="M211.667 330.497L215.513 328.493L213.882 325.882L210.461 327.663L211.667 330.497Z" fill="#E0AF7F"/>
<path d="M219.661 327.98L223.798 329.284L224.491 326.284L220.813 325.124L219.661 327.98Z" fill="#E0AF7F"/>
<path d="M227.095 331.854L229.097 335.7L231.71 334.069L229.928 330.648L227.095 331.854Z" fill="#E0AF7F"/>
<path d="M229.612 339.85L228.308 343.985L231.308 344.678L232.467 341.001L229.612 339.85Z" fill="#E0AF7F"/>
<path d="M225.738 347.281L221.891 349.284L223.522 351.896L226.942 350.114L225.738 347.281Z" fill="#E0AF7F"/>
<path d="M238.722 349.473C237.054 348.386 234.822 348.859 233.737 350.526C232.649 352.196 233.124 354.425 234.791 355.512C236.457 356.597 238.686 356.125 239.772 354.457C240.858 352.79 240.388 350.558 238.722 349.473ZM239.406 354.217C238.452 355.683 236.493 356.097 235.029 355.143C233.566 354.19 233.151 352.231 234.105 350.766C235.058 349.303 237.017 348.888 238.482 349.842C239.945 350.794 240.359 352.753 239.406 354.217ZM238.722 349.473C237.054 348.386 234.822 348.859 233.737 350.526C232.649 352.196 233.124 354.425 234.791 355.512C236.457 356.597 238.686 356.125 239.772 354.457C240.858 352.79 240.388 350.558 238.722 349.473ZM239.406 354.217C238.452 355.683 236.493 356.097 235.029 355.143C233.566 354.19 233.151 352.231 234.105 350.766C235.058 349.303 237.017 348.888 238.482 349.842C239.945 350.794 240.359 352.753 239.406 354.217ZM238.722 349.473C237.054 348.386 234.822 348.859 233.737 350.526C232.649 352.196 233.124 354.425 234.791 355.512C236.457 356.597 238.686 356.125 239.772 354.457C240.858 352.79 240.388 350.558 238.722 349.473ZM239.406 354.217C238.452 355.683 236.493 356.097 235.029 355.143C233.566 354.19 233.151 352.231 234.105 350.766C235.058 349.303 237.017 348.888 238.482 349.842C239.945 350.794 240.359 352.753 239.406 354.217ZM240.9 346.129C237.382 343.84 232.681 344.837 230.392 348.349C228.105 351.863 229.096 356.567 232.612 358.854C236.124 361.141 240.829 360.147 243.116 356.634C245.405 353.123 244.412 348.415 240.9 346.129ZM240.243 354.761C238.99 356.686 236.407 357.232 234.485 355.98C232.563 354.728 232.016 352.145 233.268 350.221C234.522 348.296 237.105 347.752 239.028 349.004C240.949 350.256 241.495 352.839 240.243 354.761ZM239.772 354.456C240.858 352.79 240.388 350.558 238.722 349.473C237.054 348.386 234.822 348.859 233.737 350.526C232.649 352.196 233.124 354.425 234.791 355.512C236.457 356.596 238.686 356.125 239.772 354.456ZM239.406 354.217C238.452 355.683 236.493 356.097 235.029 355.143C233.566 354.19 233.151 352.231 234.105 350.766C235.058 349.303 237.017 348.888 238.482 349.842C239.945 350.794 240.359 352.753 239.406 354.217ZM238.722 349.473C237.054 348.386 234.822 348.859 233.737 350.526C232.649 352.196 233.124 354.425 234.791 355.512C236.457 356.597 238.686 356.125 239.772 354.457C240.858 352.79 240.388 350.558 238.722 349.473ZM239.406 354.217C238.452 355.683 236.493 356.097 235.029 355.143C233.566 354.19 233.151 352.231 234.105 350.766C235.058 349.303 237.017 348.888 238.482 349.842C239.945 350.794 240.359 352.753 239.406 354.217ZM238.722 349.473C237.054 348.386 234.822 348.859 233.737 350.526C232.649 352.196 233.124 354.425 234.791 355.512C236.457 356.597 238.686 356.125 239.772 354.457C240.858 352.79 240.388 350.558 238.722 349.473ZM239.406 354.217C238.452 355.683 236.493 356.097 235.029 355.143C233.566 354.19 233.151 352.231 234.105 350.766C235.058 349.303 237.017 348.888 238.482 349.842C239.945 350.794 240.359 352.753 239.406 354.217Z" fill="#DBDBDB"/>
<path d="M234.007 359.386L231.561 357.793L230.569 359.613L232.745 361.029L234.007 359.386Z" fill="#DBDBDB"/>
<path d="M229.888 355.53L229.284 352.674L227.295 353.258L227.833 355.798L229.888 355.53Z" fill="#DBDBDB"/>
<path d="M229.702 349.89L231.295 347.443L229.475 346.451L228.058 348.626L229.702 349.89Z" fill="#DBDBDB"/>
<path d="M233.558 345.77L236.414 345.167L235.828 343.178L233.288 343.715L233.558 345.77Z" fill="#DBDBDB"/>
<path d="M239.198 345.583L241.644 347.176L242.636 345.357L240.46 343.94L239.198 345.583Z" fill="#DBDBDB"/>
<path d="M243.317 349.44L243.921 352.297L245.909 351.711L245.372 349.171L243.317 349.44Z" fill="#DBDBDB"/>
<path d="M243.504 355.079L241.911 357.526L243.731 358.519L245.148 356.343L243.504 355.079Z" fill="#DBDBDB"/>
<path d="M239.648 359.2L236.791 359.803L237.376 361.792L239.917 361.255L239.648 359.2Z" fill="#DBDBDB"/>
<path d="M291.883 379.975L295.425 380.634L305.553 312.036L301.518 311.295L291.883 379.975Z" fill="#E0AF7F"/>
<path d="M260.857 369.105L266.116 323.27L301.518 311.295C301.518 311.295 291.883 380.717 291.883 379.976L260.857 369.105Z" fill="#E0AF7F"/>
<path opacity="0.4" d="M260.857 369.105L266.116 323.27L301.518 311.295C301.518 311.295 291.883 380.717 291.883 379.976L260.857 369.105Z" fill="white"/>
<path d="M175.056 325.125C174.48 321.329 174.168 317.501 173.931 313.669C173.822 311.752 173.773 309.833 173.73 307.914C173.693 305.995 173.659 304.074 173.716 302.154L173.732 301.65L174.222 301.623C181.255 301.246 188.283 300.784 195.32 300.476C202.355 300.129 209.39 299.814 216.431 299.594C209.413 300.229 202.391 300.77 195.367 301.28C188.346 301.829 181.316 302.223 174.291 302.702L174.797 302.171L174.768 307.902L174.835 313.637C174.845 315.549 174.879 317.463 174.935 319.376L175.056 325.125Z" fill="white"/>
<path d="M271.054 323.942C273.247 322.9 275.474 321.931 277.728 321.038C279.976 320.123 282.243 319.257 284.537 318.462C286.835 317.677 289.14 316.909 291.484 316.258C293.824 315.599 296.187 314.99 298.6 314.595L299.193 314.498L299.087 315.065C298.532 318.032 297.951 320.995 297.264 323.942C297.521 320.927 297.884 317.929 298.272 314.936L298.76 315.405C296.421 315.963 294.101 316.615 291.788 317.299C289.478 317.99 287.173 318.718 284.876 319.466L271.054 323.942Z" fill="white"/>
<path opacity="0.1" d="M190.376 298.392L190.973 309.856L191.483 321.323L192.366 344.262L193.058 367.208L193.334 378.683L193.523 390.162L192.925 378.698L192.415 367.23L191.533 344.291L190.844 321.345L190.567 309.869L190.376 298.392Z" fill="black"/>
<path opacity="0.1" d="M187.093 305.302C187.313 306.289 186.728 307.467 185.613 307.794C185.073 307.957 184.441 307.903 183.915 307.603C183.388 307.303 183 306.758 182.875 306.152C182.756 305.546 182.901 304.891 183.27 304.411C183.638 303.929 184.203 303.634 184.763 303.575C185.918 303.446 186.913 304.308 187.093 305.302ZM187.093 305.302C186.987 304.803 186.667 304.357 186.231 304.116C185.795 303.876 185.279 303.846 184.845 303.987C183.951 304.278 183.523 305.218 183.692 305.989C183.833 306.762 184.593 307.469 185.531 307.388C185.985 307.349 186.449 307.122 186.758 306.73C187.067 306.338 187.188 305.803 187.093 305.302Z" fill="black"/>
<path opacity="0.1" d="M187.882 319.048C188.102 320.035 187.517 321.213 186.402 321.54C185.863 321.703 185.23 321.649 184.704 321.349C184.177 321.049 183.789 320.504 183.664 319.898C183.545 319.292 183.69 318.637 184.059 318.157C184.427 317.674 184.991 317.38 185.552 317.321C186.707 317.192 187.702 318.054 187.882 319.048ZM187.882 319.048C187.776 318.549 187.457 318.103 187.02 317.862C186.584 317.622 186.068 317.592 185.634 317.733C184.74 318.024 184.312 318.966 184.481 319.735C184.622 320.508 185.382 321.215 186.32 321.134C186.774 321.095 187.238 320.867 187.547 320.476C187.856 320.084 187.979 319.549 187.882 319.048Z" fill="black"/>
<path opacity="0.1" d="M188.383 333.639C188.603 334.626 188.018 335.804 186.903 336.131C186.363 336.294 185.731 336.24 185.205 335.94C184.678 335.64 184.29 335.095 184.165 334.489C184.046 333.884 184.191 333.228 184.56 332.748C184.928 332.265 185.493 331.971 186.053 331.912C187.208 331.783 188.203 332.645 188.383 333.639ZM188.383 333.639C188.277 333.14 187.957 332.694 187.521 332.453C187.085 332.213 186.569 332.183 186.135 332.324C185.241 332.615 184.813 333.555 184.982 334.324C185.123 335.099 185.883 335.805 186.821 335.724C187.275 335.685 187.739 335.456 188.048 335.066C188.357 334.676 188.478 334.14 188.383 333.639Z" fill="black"/>
<path opacity="0.1" d="M188.883 348.231C189.104 349.218 188.518 350.396 187.404 350.723C186.864 350.885 186.232 350.832 185.705 350.531C185.179 350.232 184.79 349.687 184.666 349.081C184.547 348.474 184.691 347.82 185.061 347.34C185.428 346.858 185.994 346.563 186.554 346.504C187.709 346.375 188.704 347.235 188.883 348.231ZM188.883 348.231C188.778 347.732 188.457 347.285 188.022 347.045C187.586 346.805 187.07 346.775 186.636 346.916C185.742 347.206 185.314 348.147 185.483 348.917C185.624 349.692 186.383 350.398 187.322 350.317C187.776 350.278 188.24 350.051 188.548 349.659C188.858 349.267 188.979 348.731 188.883 348.231Z" fill="black"/>
<path opacity="0.1" d="M189.385 362.821C189.605 363.809 189.02 364.986 187.905 365.314C187.365 365.476 186.733 365.423 186.207 365.122C185.68 364.823 185.292 364.277 185.167 363.672C185.048 363.065 185.193 362.411 185.562 361.931C185.929 361.449 186.495 361.154 187.055 361.095C188.21 360.966 189.205 361.827 189.385 362.821ZM189.385 362.821C189.279 362.323 188.958 361.876 188.523 361.636C188.087 361.395 187.571 361.365 187.137 361.507C186.243 361.797 185.815 362.739 185.984 363.508C186.125 364.283 186.885 364.989 187.823 364.907C188.277 364.868 188.741 364.641 189.05 364.25C189.359 363.859 189.48 363.322 189.385 362.821Z" fill="black"/>
<path opacity="0.1" d="M189.885 377.413C190.106 378.4 189.52 379.578 188.406 379.905C187.866 380.068 187.234 380.015 186.707 379.714C186.181 379.415 185.792 378.869 185.668 378.264C185.549 377.658 185.693 377.002 186.063 376.523C186.43 376.04 186.995 375.746 187.556 375.687C188.711 375.558 189.705 376.418 189.885 377.413ZM189.885 377.413C189.78 376.914 189.46 376.468 189.024 376.228C188.587 375.987 188.072 375.957 187.638 376.099C186.744 376.389 186.316 377.331 186.485 378.1C186.626 378.874 187.385 379.58 188.324 379.499C188.778 379.46 189.242 379.232 189.551 378.841C189.86 378.449 189.981 377.914 189.885 377.413Z" fill="black"/>
<path d="M194.392 399.723L142.215 415.534L144.062 421.631L196.239 405.819L194.392 399.723Z" fill="#E0AF7F"/>
<path opacity="0.4" d="M194.392 399.723L142.215 415.534L144.062 421.631L196.239 405.819L194.392 399.723Z" fill="white"/>
<path d="M169.423 405.22L163.352 407.15L166.22 416.168L172.291 414.237L169.423 405.22Z" fill="#E0AF7F"/>
<path d="M143.652 430.565L130.187 372.261L89.5474 381.895L109.559 438.717L143.652 430.565Z" fill="#E0AF7F"/>
<path d="M152.669 427.6L143.652 430.565L130.188 372.261L143.158 375.349L152.669 427.6Z" fill="#E0AF7F"/>
<path opacity="0.2" d="M152.669 427.6L143.652 430.565L130.188 372.261L143.158 375.349L152.669 427.6Z" fill="black"/>
<path d="M195.336 409.688C199.156 409.688 202.253 406.592 202.253 402.771C202.253 398.951 199.156 395.854 195.336 395.854C191.516 395.854 188.419 398.951 188.419 402.771C188.419 406.592 191.516 409.688 195.336 409.688Z" fill="#E0AF7F"/>
<path d="M266.514 399.557L264.654 405.649L316.798 421.57L318.659 415.477L266.514 399.557Z" fill="#E0AF7F"/>
<path opacity="0.4" d="M266.514 399.557L264.654 405.649L316.798 421.57L318.659 415.477L266.514 399.557Z" fill="white"/>
<path d="M291.514 405.081L288.626 414.092L294.693 416.036L297.581 407.025L291.514 405.081Z" fill="#E0AF7F"/>
<path d="M317.221 430.514L330.81 372.238L371.429 381.959L351.297 438.738L317.221 430.514Z" fill="#E0AF7F"/>
<path d="M308.21 427.53L317.221 430.514L330.81 372.238L317.833 375.298L308.21 427.53Z" fill="#E0AF7F"/>
<path opacity="0.2" d="M308.21 427.53L317.221 430.514L330.81 372.238L317.833 375.298L308.21 427.53Z" fill="black"/>
<path d="M258.679 402.597C258.671 406.417 261.761 409.52 265.581 409.529C269.401 409.537 272.505 406.447 272.514 402.627C272.522 398.807 269.431 395.703 265.611 395.694C261.79 395.685 258.687 398.775 258.679 402.597Z" fill="#E0AF7F"/>
<path d="M310.883 330.683C311.046 330.529 327.806 314.984 347.521 320.302C367.682 325.741 384.328 356.107 384.492 356.415L390.097 353.386C389.369 352.038 372.008 320.299 349.18 314.153C325.963 307.891 307.28 325.322 306.495 326.068L310.883 330.683Z" fill="#E0AF7F"/>
<path opacity="0.4" d="M310.883 330.683C311.046 330.529 327.806 314.984 347.521 320.302C367.682 325.741 384.328 356.107 384.492 356.415L390.097 353.386C389.369 352.038 372.008 320.299 349.18 314.153C325.963 307.891 307.28 325.322 306.495 326.068L310.883 330.683Z" fill="white"/>
<path d="M377.063 386.984L389.136 380.61C387.977 378.417 386.55 374.645 386.343 371.24C386.075 366.828 387.826 365.276 389.757 364.255C393.987 362.021 396.512 362.907 398.236 363.923C400.655 365.351 403.115 368.273 405.162 372.151L417.235 365.777C413.931 359.519 409.874 354.94 405.175 352.166C400.488 349.403 392.903 347.158 383.384 352.182C375.963 356.1 372.175 363.162 372.718 372.068C373.143 379.078 376.152 385.257 377.063 386.984Z" fill="#E0AF7F"/>
<path d="M313.427 309.412C316.044 307.604 318.722 305.901 321.411 304.214C324.092 302.516 326.818 300.893 329.544 299.27C332.284 297.671 335.025 296.073 337.809 294.549L341.988 292.268C343.401 291.542 344.795 290.784 346.226 290.087C344.924 291.001 343.585 291.852 342.265 292.737L338.244 295.286C335.562 296.984 332.837 298.607 330.11 300.227C327.369 301.826 324.629 303.423 321.844 304.946C319.065 306.481 316.277 307.999 313.427 309.412Z" fill="#263238"/>
<path d="M306.494 335.46C310.242 337.595 313.792 340.005 317.296 342.482C320.781 344.986 324.216 347.559 327.453 350.408C323.704 348.275 320.153 345.865 316.65 343.387C313.168 340.881 309.733 338.307 306.494 335.46Z" fill="#263238"/>
<path d="M312.648 332.255C315.54 333.133 318.387 334.126 321.227 335.136C324.072 336.133 326.886 337.213 329.699 338.292C332.503 339.397 335.306 340.503 338.077 341.69L342.234 343.473C343.604 344.105 344.989 344.702 346.347 345.366C344.898 344.938 343.473 344.441 342.036 343.982L337.767 342.488C334.922 341.489 332.109 340.411 329.296 339.329C326.493 338.223 323.689 337.117 320.919 335.929C318.143 334.755 315.374 333.562 312.648 332.255Z" fill="#263238"/>
<path d="M320.864 311.856C323.636 311.135 326.427 310.535 329.224 309.953C332.016 309.359 334.826 308.851 337.634 308.343C340.447 307.861 343.261 307.381 346.09 306.986L350.333 306.397C351.754 306.241 353.169 306.047 354.597 305.925C353.214 306.297 351.818 306.597 350.427 306.934L346.238 307.828C343.444 308.422 340.635 308.93 337.827 309.437C335.013 309.918 332.2 310.397 329.37 310.791C326.545 311.199 323.715 311.587 320.864 311.856Z" fill="#263238"/>
<path d="M254.068 347.844C254.538 345.592 255.293 343.397 256.271 341.304C257.249 339.214 258.447 337.209 259.95 335.427C261.457 333.664 263.311 332.109 265.543 331.248C267.775 330.417 270.329 330.423 272.568 331.317C274.833 332.2 276.62 334.103 277.583 336.292C278.082 337.385 278.395 338.557 278.524 339.756C278.637 340.952 278.589 342.198 278.112 343.392C277.871 343.98 277.49 344.573 276.882 344.968C276.589 345.173 276.229 345.29 275.876 345.345C275.529 345.395 275.173 345.379 274.767 345.239C274.023 344.922 273.649 344.323 273.329 343.783C273.043 343.222 272.823 342.648 272.673 342.068C272.047 339.745 271.984 337.381 272.094 335.045C272.425 330.391 273.648 325.736 276.156 321.731C277.421 319.752 279.01 317.93 280.982 316.598C282.93 315.258 285.211 314.335 287.539 314.068C288.685 313.791 289.868 313.817 291.038 313.76C291.625 313.698 292.207 313.839 292.791 313.87C293.371 313.947 293.965 313.937 294.53 314.105C296.843 314.52 299.017 315.448 301.047 316.572C303.065 317.735 304.863 319.229 306.504 320.849C308.13 322.487 309.609 324.278 310.798 326.249C308.166 322.492 304.776 319.231 300.78 317.047C298.769 316.002 296.644 315.143 294.405 314.796C293.859 314.644 293.285 314.67 292.727 314.608C292.164 314.591 291.605 314.463 291.041 314.539C289.918 314.621 288.787 314.616 287.691 314.911C285.447 315.227 283.365 316.13 281.533 317.388C279.692 318.648 278.206 320.376 277.014 322.269C274.651 326.097 273.494 330.618 273.205 335.111C273.079 337.356 273.136 339.651 273.697 341.784C273.964 342.803 274.447 343.952 275.148 344.274C275.238 344.283 275.298 344.331 275.408 344.334C275.517 344.325 275.633 344.35 275.737 344.323C275.947 344.288 276.153 344.232 276.331 344.105C276.697 343.875 276.986 343.468 277.181 343C277.571 342.054 277.643 340.932 277.545 339.851C277.436 338.764 277.157 337.684 276.708 336.682C275.827 334.681 274.265 332.95 272.242 332.102C270.229 331.247 267.873 331.178 265.783 331.905C263.684 332.658 261.871 334.105 260.359 335.783C257.327 339.178 255.282 343.426 254.068 347.844Z" fill="#1F4779"/>
<path d="M151.21 376.691C152.284 374.666 153.864 372.914 155.708 371.529C157.55 370.145 159.665 369.071 161.942 368.544C164.206 368.002 166.638 367.993 168.903 368.681C171.169 369.359 173.211 370.688 174.845 372.381C176.49 374.073 177.719 376.128 178.565 378.313C179.394 380.502 179.892 382.848 179.716 385.246C179.597 386.426 179.357 387.701 178.424 388.721C177.961 389.223 177.246 389.554 176.549 389.565C175.879 389.559 175.246 389.46 174.631 389.131C174.02 388.816 173.53 388.269 173.251 387.662C172.967 387.055 172.861 386.413 172.832 385.792C172.788 384.545 173.057 383.361 173.423 382.234C174.17 379.978 175.397 377.946 176.831 376.103C178.272 374.263 179.969 372.625 181.87 371.26C185.641 368.522 190.445 367 195.132 367.614C197.445 367.926 199.74 368.594 201.765 369.774C203.807 370.915 205.578 372.499 207.022 374.309C208.465 376.127 209.589 378.169 210.455 380.298C211.321 382.427 211.96 384.65 212.274 386.918C211.339 382.458 209.504 378.126 206.582 374.669C205.135 372.941 203.391 371.458 201.412 370.413C199.449 369.33 197.248 368.748 195.031 368.5C190.579 368.015 186.062 369.436 182.47 372.093C178.882 374.732 175.947 378.415 174.463 382.582C174.114 383.62 173.87 384.707 173.902 385.753C173.927 386.791 174.292 387.789 175.125 388.21C175.517 388.436 176.05 388.524 176.517 388.531C176.968 388.519 177.368 388.34 177.69 388.007C178.34 387.329 178.618 386.22 178.717 385.156C178.892 382.981 178.442 380.732 177.664 378.653C176.876 376.57 175.705 374.626 174.191 373C172.681 371.376 170.778 370.109 168.672 369.42C166.569 368.72 164.264 368.662 162.074 369.126C157.689 370.061 153.629 372.802 151.21 376.691Z" fill="#1F4779"/>
<path d="M99.7124 107.876C99.5866 103.296 98.6149 98.6842 96.4832 94.6658C95.4157 92.6755 93.9998 90.8367 92.1409 89.6044C90.2854 88.4 87.9812 87.9047 85.8228 88.2542C83.6556 88.5948 81.7266 89.9028 80.393 91.6359C79.7174 92.5019 79.1886 93.4826 78.8235 94.5133C78.4696 95.5396 78.2714 96.6461 78.425 97.6579C78.5018 98.1577 78.6855 98.6218 78.9861 98.9324C79.1274 99.0971 79.3144 99.2018 79.5103 99.2864C79.6049 99.3365 79.724 99.3409 79.8276 99.3754C79.9344 99.3988 80.0035 99.3654 80.0936 99.3788C80.8516 99.2341 81.5952 98.2334 82.0983 97.3072C83.1514 95.3704 83.7558 93.1542 84.1687 90.9446C84.9602 86.5133 84.9157 81.846 83.5343 77.5638C82.8285 75.4411 81.7978 73.4074 80.3107 71.7455C78.8313 70.087 77.0258 68.7134 74.922 67.8707C73.928 67.3231 72.8283 67.0593 71.7574 66.7097C71.2287 66.5027 70.6543 66.4938 70.1045 66.3747C69.5468 66.3023 68.9969 66.1398 68.4292 66.1565C66.1729 65.9595 63.9044 66.2856 61.7015 66.8211C57.2991 67.9887 53.2295 70.3463 49.7766 73.3662C51.4018 71.7355 53.2651 70.3485 55.2354 69.1464C57.2156 67.9642 59.3172 66.9435 61.5546 66.2945C63.793 65.6879 66.1273 65.305 68.4715 65.4541C69.0603 65.4252 69.6336 65.5777 70.2158 65.6411C70.7901 65.7502 71.3901 65.7513 71.9444 65.9517C73.0665 66.2868 74.223 66.5428 75.2682 67.086C77.4655 67.9008 79.4602 69.3412 81.032 71.1077C82.6304 72.8709 83.7369 75.0203 84.4938 77.2432C85.9731 81.7313 86.0488 86.5434 85.2596 91.1417C84.8099 93.4369 84.1832 95.7166 83.0222 97.8237C82.7373 98.3514 82.3855 98.8567 81.9748 99.3331C81.5351 99.7806 81.0297 100.274 80.2316 100.404C79.8042 100.443 79.4558 100.373 79.1296 100.241C78.8002 100.105 78.4785 99.9053 78.2425 99.6359C77.7471 99.1072 77.519 98.4404 77.4243 97.8126C77.2462 96.5392 77.4967 95.3192 77.8919 94.1827C78.3026 93.0484 78.887 91.9854 79.6328 91.0437C81.0899 89.1492 83.2794 87.7266 85.6893 87.4094C88.0769 87.0754 90.5592 87.6799 92.5283 89.0201C94.4907 90.3881 95.92 92.3416 96.963 94.4131C97.9971 96.5025 98.6805 98.7354 99.1325 100.998C99.5833 103.266 99.7937 105.578 99.7124 107.876Z" fill="#1F4779"/>
<path d="M345.509 165.941C341.025 164.995 336.313 164.864 331.909 165.999C329.725 166.573 327.606 167.521 325.974 169.04C324.37 170.563 323.35 172.689 323.186 174.869C323.012 177.057 323.833 179.237 325.208 180.938C325.891 181.797 326.723 182.54 327.639 183.135C328.554 183.719 329.584 184.171 330.604 184.257C331.108 184.299 331.603 184.229 331.974 184.009C332.168 183.91 332.313 183.753 332.441 183.582C332.512 183.502 332.544 183.387 332.602 183.295C332.649 183.197 332.633 183.121 332.668 183.037C332.705 182.266 331.904 181.311 331.122 180.605C329.484 179.129 327.47 178.025 325.417 177.108C321.293 175.305 316.743 174.258 312.258 174.602C310.029 174.794 307.811 175.321 305.847 176.379C303.889 177.431 302.133 178.865 300.823 180.714C300.058 181.553 299.545 182.561 298.956 183.521C298.631 183.987 298.488 184.542 298.245 185.05C298.043 185.575 297.757 186.072 297.642 186.628C296.924 188.776 296.712 191.059 296.718 193.325C296.826 197.878 298.17 202.386 300.3 206.449C299.094 204.488 298.18 202.352 297.471 200.156C296.784 197.954 296.281 195.673 296.173 193.345C296.106 191.026 296.278 188.668 296.97 186.422C297.079 185.844 297.361 185.32 297.559 184.769C297.799 184.236 297.941 183.653 298.265 183.161C298.852 182.148 299.371 181.084 300.144 180.193C301.449 178.247 303.315 176.644 305.399 175.527C307.487 174.384 309.834 173.81 312.173 173.593C316.882 173.202 321.58 174.25 325.867 176.09C327.994 177.063 330.064 178.204 331.842 179.826C332.288 180.226 332.698 180.685 333.065 181.197C333.398 181.73 333.759 182.336 333.7 183.142C333.638 183.566 333.488 183.89 333.286 184.176C333.075 184.464 332.807 184.731 332.49 184.897C331.861 185.256 331.158 185.322 330.525 185.268C329.245 185.144 328.117 184.616 327.106 183.966C326.099 183.301 325.201 182.485 324.459 181.54C322.956 179.681 322.084 177.22 322.338 174.804C322.571 172.405 323.737 170.131 325.499 168.529C327.287 166.941 329.52 166.007 331.778 165.476C334.051 164.958 336.382 164.813 338.689 164.902C340.995 164.99 343.291 165.325 345.509 165.941Z" fill="#1F4779"/>
<path d="M276.595 93.9231C275.834 91.2861 275.731 88.4654 276.16 85.7416C276.586 83.0178 277.509 80.3385 279.016 77.9921C280.501 75.6423 282.573 73.6119 285.078 72.3174C287.577 71.0128 290.425 70.4473 293.228 70.5319C296.039 70.6087 298.802 71.3356 301.344 72.4966C303.877 73.6731 306.257 75.2627 308.099 77.4489C308.978 78.5497 309.825 79.8332 309.876 81.445C309.899 82.2408 309.576 83.0913 309.005 83.6679C308.439 84.2088 307.822 84.6485 307.044 84.8745C306.278 85.1094 305.426 85.0515 304.697 84.7732C303.964 84.4971 303.346 84.0441 302.81 83.5432C301.743 82.5258 300.987 81.2947 300.363 80.0302C299.123 77.4867 298.47 74.7284 298.156 71.9612C297.849 69.1884 297.929 66.3733 298.411 63.6228C299.342 58.1373 302.17 52.84 306.672 49.4472C308.904 47.7808 311.416 46.4317 314.128 45.7449C316.821 45.0091 319.655 44.8789 322.402 45.2139C325.155 45.5546 327.827 46.3527 330.352 47.4424C332.878 48.5333 335.289 49.8935 337.465 51.5632C332.944 48.5043 327.747 46.3137 322.34 45.7794C319.65 45.5056 316.905 45.6893 314.322 46.4495C311.723 47.1619 309.338 48.5077 307.221 50.1529C305.128 51.8281 303.348 53.8885 302.046 56.2316C300.733 58.5692 299.876 61.1516 299.423 63.7997C298.556 69.0849 299.116 74.7139 301.349 79.5527C301.924 80.7426 302.629 81.8858 303.548 82.7685C304.45 83.6489 305.64 84.2244 306.754 83.8716C307.302 83.728 307.841 83.3517 308.261 82.9532C308.655 82.5481 308.86 82.026 308.855 81.4505C308.84 80.2817 308.136 79.0896 307.323 78.0867C305.637 76.0608 303.358 74.508 300.94 73.3748C298.509 72.2472 295.867 71.5582 293.196 71.4369C290.529 71.3144 287.824 71.8276 285.432 73.0131C283.035 74.1863 281.007 76.0797 279.519 78.3215C276.547 82.8085 275.383 88.5723 276.595 93.9231Z" fill="#1F4779"/>
<path d="M147.489 376.934C144.994 376.148 142.337 377.532 141.551 380.025C140.764 382.521 142.15 385.176 144.644 385.963C147.137 386.749 149.792 385.365 150.577 382.871C151.363 380.379 149.981 377.719 147.489 376.934ZM150.029 382.697C149.339 384.889 147.005 386.105 144.816 385.414C142.626 384.724 141.411 382.392 142.102 380.201C142.792 378.011 145.124 376.796 147.316 377.487C149.503 378.175 150.719 380.508 150.029 382.697ZM147.489 376.934C144.994 376.148 142.337 377.532 141.551 380.025C140.764 382.521 142.15 385.176 144.644 385.963C147.137 386.749 149.792 385.365 150.577 382.871C151.363 380.379 149.981 377.719 147.489 376.934ZM150.029 382.697C149.339 384.889 147.005 386.105 144.816 385.414C142.626 384.724 141.411 382.392 142.102 380.201C142.792 378.011 145.124 376.796 147.316 377.487C149.503 378.175 150.719 380.508 150.029 382.697ZM147.489 376.934C144.994 376.148 142.337 377.532 141.551 380.025C140.764 382.521 142.15 385.176 144.644 385.963C147.137 386.749 149.792 385.365 150.577 382.871C151.363 380.379 149.981 377.719 147.489 376.934ZM150.029 382.697C149.339 384.889 147.005 386.105 144.816 385.414C142.626 384.724 141.411 382.392 142.102 380.201C142.792 378.011 145.124 376.796 147.316 377.487C149.503 378.175 150.719 380.508 150.029 382.697ZM149.066 371.933C143.806 370.277 138.206 373.199 136.55 378.451C134.895 383.705 137.811 389.309 143.067 390.964C148.319 392.619 153.923 389.701 155.579 384.446C157.236 379.194 154.319 373.588 149.066 371.933ZM151.281 383.091C150.374 385.97 147.298 387.573 144.423 386.667C141.548 385.761 139.944 382.684 140.851 379.807C141.758 376.929 144.836 375.328 147.711 376.235C150.584 377.139 152.187 380.215 151.281 383.091ZM150.577 382.871C151.363 380.379 149.981 377.719 147.489 376.934C144.994 376.148 142.337 377.532 141.551 380.025C140.764 382.521 142.15 385.176 144.644 385.963C147.137 386.749 149.792 385.365 150.577 382.871ZM150.029 382.697C149.339 384.889 147.005 386.105 144.816 385.414C142.626 384.724 141.411 382.392 142.102 380.201C142.792 378.011 145.124 376.796 147.316 377.487C149.503 378.175 150.719 380.508 150.029 382.697ZM147.489 376.934C144.994 376.148 142.337 377.532 141.551 380.025C140.764 382.521 142.15 385.176 144.644 385.963C147.137 386.749 149.792 385.365 150.577 382.871C151.363 380.379 149.981 377.719 147.489 376.934ZM150.029 382.697C149.339 384.889 147.005 386.105 144.816 385.414C142.626 384.724 141.411 382.392 142.102 380.201C142.792 378.011 145.124 376.796 147.316 377.487C149.503 378.175 150.719 380.508 150.029 382.697ZM147.489 376.934C144.994 376.148 142.337 377.532 141.551 380.025C140.764 382.521 142.15 385.176 144.644 385.963C147.137 386.749 149.792 385.365 150.577 382.871C151.363 380.379 149.981 377.719 147.489 376.934ZM150.029 382.697C149.339 384.889 147.005 386.105 144.816 385.414C142.626 384.724 141.411 382.392 142.102 380.201C142.792 378.011 145.124 376.796 147.316 377.487C149.503 378.175 150.719 380.508 150.029 382.697Z" fill="#455A64"/>
<path d="M145.021 391.144L141.362 389.991L140.749 392.645L144.002 393.67L145.021 391.144Z" fill="#455A64"/>
<path d="M138.446 387.717L136.673 384.315L134.364 385.758L135.939 388.784L138.446 387.717Z" fill="#455A64"/>
<path d="M136.219 380.645L137.372 376.987L134.719 376.372L133.694 379.627L136.219 380.645Z" fill="#455A64"/>
<path d="M139.646 374.069L143.048 372.298L141.606 369.987L138.58 371.564L139.646 374.069Z" fill="#455A64"/>
<path d="M146.718 371.844L150.377 372.996L150.992 370.343L147.737 369.317L146.718 371.844Z" fill="#455A64"/>
<path d="M153.293 375.27L155.066 378.673L157.376 377.231L155.8 374.204L153.293 375.27Z" fill="#455A64"/>
<path d="M155.521 382.344L154.368 386.003L157.021 386.616L158.047 383.362L155.521 382.344Z" fill="#455A64"/>
<path d="M152.093 388.918L148.691 390.69L150.133 393L153.16 391.425L152.093 388.918Z" fill="#455A64"/>
<path d="M332.044 345.13C337.062 338.368 335.649 328.818 328.887 323.8C322.124 318.781 312.572 320.194 307.556 326.954C302.536 333.718 303.95 343.27 310.713 348.289C317.473 353.307 327.025 351.893 332.044 345.13ZM325.518 340.286C323.173 343.447 318.715 344.107 315.557 341.763C312.397 339.418 311.736 334.96 314.082 331.799C316.425 328.641 320.884 327.981 324.044 330.326C327.201 332.67 327.861 337.128 325.518 340.286Z" fill="#1F4779"/>
<path d="M313.443 349.526L308.735 346.032L306.522 349.559L310.709 352.666L313.443 349.526Z" fill="#1F4779"/>
<path d="M305.659 341.289L304.8 335.488L300.741 336.417L301.505 341.576L305.659 341.289Z" fill="#1F4779"/>
<path d="M305.978 329.96L309.474 325.251L305.947 323.037L302.839 327.226L305.978 329.96Z" fill="#1F4779"/>
<path d="M314.216 322.174L320.017 321.316L319.089 317.258L313.929 318.021L314.216 322.174Z" fill="#1F4779"/>
<path d="M325.546 322.495L330.254 325.989L332.467 322.463L328.28 319.354L325.546 322.495Z" fill="#1F4779"/>
<path d="M333.33 330.732L334.189 336.533L338.247 335.604L337.483 330.446L333.33 330.732Z" fill="#1F4779"/>
<path d="M333.011 342.062L329.515 346.77L333.042 348.984L336.15 344.795L333.011 342.062Z" fill="#1F4779"/>
<path d="M324.772 349.847L318.972 350.705L319.9 354.763L325.059 354L324.772 349.847Z" fill="#1F4779"/>
<path d="M314.338 336.774L317.577 340.859L322.735 340.093L324.65 335.248L321.414 331.165L316.256 331.926L314.338 336.774ZM320.478 334.684C321.213 335.229 321.365 336.261 320.82 336.996C320.276 337.727 319.242 337.883 318.508 337.337C317.776 336.794 317.623 335.757 318.166 335.025C318.711 334.291 319.747 334.14 320.478 334.684Z" fill="#1F4779"/>
<path d="M343.475 48.2052C341.292 47.5173 338.967 48.7295 338.279 50.9101C337.591 53.0952 338.803 55.4183 340.986 56.1062C343.167 56.7941 345.49 55.583 346.178 53.4002C346.866 51.2196 345.656 48.8931 343.475 48.2052ZM345.698 53.2477C345.094 55.1656 343.053 56.2286 341.137 55.6253C339.221 55.022 338.158 52.9805 338.761 51.0626C339.364 49.1469 341.406 48.0839 343.324 48.6872C345.238 49.2916 346.303 51.3331 345.698 53.2477ZM343.475 48.2052C341.292 47.5173 338.967 48.7295 338.279 50.9101C337.591 53.0952 338.803 55.4183 340.986 56.1062C343.167 56.7941 345.49 55.583 346.178 53.4002C346.866 51.2196 345.656 48.8931 343.475 48.2052ZM345.698 53.2477C345.094 55.1656 343.053 56.2286 341.137 55.6253C339.221 55.022 338.158 52.9805 338.761 51.0626C339.364 49.1469 341.406 48.0839 343.324 48.6872C345.238 49.2916 346.303 51.3331 345.698 53.2477ZM343.475 48.2052C341.292 47.5173 338.967 48.7295 338.279 50.9101C337.591 53.0952 338.803 55.4183 340.986 56.1062C343.167 56.7941 345.49 55.583 346.178 53.4002C346.866 51.2196 345.656 48.8931 343.475 48.2052ZM345.698 53.2477C345.094 55.1656 343.053 56.2286 341.137 55.6253C339.221 55.022 338.158 52.9805 338.761 51.0626C339.364 49.1469 341.406 48.0839 343.324 48.6872C345.238 49.2916 346.303 51.3331 345.698 53.2477ZM344.855 43.8296C340.254 42.3803 335.353 44.9371 333.903 49.5321C332.455 54.1304 335.007 59.0337 339.607 60.4819C344.203 61.93 349.107 59.3765 350.555 54.7782C352.005 50.1833 349.452 45.2777 344.855 43.8296ZM346.795 53.5928C346.001 56.1106 343.309 57.5143 340.793 56.7206C338.276 55.927 336.873 53.2354 337.667 50.7176C338.461 48.1997 341.154 46.7983 343.67 47.5919C346.185 48.3856 347.587 51.0771 346.795 53.5928ZM346.179 53.4002C346.867 51.2196 345.657 48.892 343.476 48.2052C341.294 47.5173 338.968 48.7295 338.28 50.9101C337.592 53.0952 338.805 55.4183 340.987 56.1062C343.168 56.7941 345.491 55.583 346.179 53.4002ZM345.698 53.2477C345.094 55.1656 343.053 56.2286 341.137 55.6253C339.221 55.022 338.158 52.9805 338.761 51.0626C339.364 49.1469 341.406 48.0839 343.324 48.6872C345.238 49.2916 346.303 51.3331 345.698 53.2477ZM343.475 48.2052C341.292 47.5173 338.967 48.7295 338.279 50.9101C337.591 53.0952 338.803 55.4183 340.986 56.1062C343.167 56.7941 345.49 55.583 346.178 53.4002C346.866 51.2196 345.656 48.8931 343.475 48.2052ZM345.698 53.2477C345.094 55.1656 343.053 56.2286 341.137 55.6253C339.221 55.022 338.158 52.9805 338.761 51.0626C339.364 49.1469 341.406 48.0839 343.324 48.6872C345.238 49.2916 346.303 51.3331 345.698 53.2477ZM343.475 48.2052C341.292 47.5173 338.967 48.7295 338.279 50.9101C337.591 53.0952 338.803 55.4183 340.986 56.1062C343.167 56.7941 345.49 55.583 346.178 53.4002C346.866 51.2196 345.656 48.8931 343.475 48.2052ZM345.698 53.2477C345.094 55.1656 343.053 56.2286 341.137 55.6253C339.221 55.022 338.158 52.9805 338.761 51.0626C339.364 49.1469 341.406 48.0839 343.324 48.6872C345.238 49.2916 346.303 51.3331 345.698 53.2477Z" fill="#1F4779"/>
<path d="M341.316 60.6414L338.114 59.6318L337.578 61.9538L340.425 62.851L341.316 60.6414Z" fill="#1F4779"/>
<path d="M335.562 57.6426L334.011 54.665L331.99 55.9273L333.369 58.5754L335.562 57.6426Z" fill="#1F4779"/>
<path d="M333.614 51.4528L334.624 48.2515L332.302 47.7139L331.405 50.5612L333.614 51.4528Z" fill="#1F4779"/>
<path d="M336.613 45.6999L339.59 44.1494L338.328 42.1279L335.68 43.5071L336.613 45.6999Z" fill="#1F4779"/>
<path d="M342.802 43.7517L346.003 44.7602L346.541 42.4382L343.693 41.541L342.802 43.7517Z" fill="#1F4779"/>
<path d="M348.555 46.7502L350.106 49.7267L352.127 48.4644L350.748 45.8174L348.555 46.7502Z" fill="#1F4779"/>
<path d="M350.503 52.9395L349.495 56.1408L351.817 56.6773L352.714 53.83L350.503 52.9395Z" fill="#1F4779"/>
<path d="M347.505 58.6934L344.528 60.2428L345.789 62.2654L348.437 60.8862L347.505 58.6934Z" fill="#1F4779"/>
<path d="M300.937 207.232C298.754 206.544 296.429 207.756 295.741 209.936C295.053 212.122 296.265 214.445 298.448 215.133C300.629 215.82 302.952 214.609 303.64 212.427C304.327 210.246 303.118 207.92 300.937 207.232ZM303.159 212.275C302.555 214.193 300.514 215.256 298.598 214.653C296.683 214.049 295.62 212.008 296.223 210.09C296.826 208.174 298.868 207.111 300.786 207.715C302.699 208.318 303.763 210.359 303.159 212.275ZM300.937 207.232C298.754 206.544 296.429 207.756 295.741 209.936C295.053 212.122 296.265 214.445 298.448 215.133C300.629 215.82 302.952 214.609 303.64 212.427C304.327 210.246 303.118 207.92 300.937 207.232ZM303.159 212.275C302.555 214.193 300.514 215.256 298.598 214.653C296.683 214.049 295.62 212.008 296.223 210.09C296.826 208.174 298.868 207.111 300.786 207.715C302.699 208.318 303.763 210.359 303.159 212.275ZM300.937 207.232C298.754 206.544 296.429 207.756 295.741 209.936C295.053 212.122 296.265 214.445 298.448 215.133C300.629 215.82 302.952 214.609 303.64 212.427C304.327 210.246 303.118 207.92 300.937 207.232ZM303.159 212.275C302.555 214.193 300.514 215.256 298.598 214.653C296.683 214.049 295.62 212.008 296.223 210.09C296.826 208.174 298.868 207.111 300.786 207.715C302.699 208.318 303.763 210.359 303.159 212.275ZM302.317 202.856C297.716 201.407 292.815 203.963 291.365 208.558C289.917 213.157 292.469 218.06 297.069 219.508C301.665 220.956 306.568 218.403 308.017 213.805C309.466 209.21 306.912 204.304 302.317 202.856ZM304.255 212.619C303.462 215.137 300.77 216.541 298.253 215.747C295.738 214.954 294.334 212.262 295.128 209.744C295.921 207.226 298.615 205.825 301.131 206.618C303.645 207.412 305.048 210.103 304.255 212.619ZM303.64 212.428C304.328 210.247 303.118 207.92 300.937 207.233C298.754 206.545 296.429 207.757 295.741 209.938C295.053 212.123 296.265 214.446 298.448 215.134C300.629 215.82 302.952 214.609 303.64 212.428ZM303.159 212.275C302.555 214.193 300.514 215.256 298.598 214.653C296.683 214.049 295.62 212.008 296.223 210.09C296.826 208.174 298.868 207.111 300.786 207.715C302.699 208.318 303.763 210.359 303.159 212.275ZM300.937 207.232C298.754 206.544 296.429 207.756 295.741 209.936C295.053 212.122 296.265 214.445 298.448 215.133C300.629 215.82 302.952 214.609 303.64 212.427C304.327 210.246 303.118 207.92 300.937 207.232ZM303.159 212.275C302.555 214.193 300.514 215.256 298.598 214.653C296.683 214.049 295.62 212.008 296.223 210.09C296.826 208.174 298.868 207.111 300.786 207.715C302.699 208.318 303.763 210.359 303.159 212.275ZM300.937 207.232C298.754 206.544 296.429 207.756 295.741 209.936C295.053 212.122 296.265 214.445 298.448 215.133C300.629 215.82 302.952 214.609 303.64 212.427C304.327 210.246 303.118 207.92 300.937 207.232ZM303.159 212.275C302.555 214.193 300.514 215.256 298.598 214.653C296.683 214.049 295.62 212.008 296.223 210.09C296.826 208.174 298.868 207.111 300.786 207.715C302.699 208.318 303.763 210.359 303.159 212.275Z" fill="#1F4779"/>
<path d="M298.776 219.668L295.575 218.658L295.039 220.98L297.886 221.877L298.776 219.668Z" fill="#1F4779"/>
<path d="M293.023 216.669L291.473 213.691L289.451 214.954L290.83 217.602L293.023 216.669Z" fill="#1F4779"/>
<path d="M291.075 210.48L292.084 207.279L289.762 206.741L288.865 209.589L291.075 210.48Z" fill="#1F4779"/>
<path d="M294.074 204.726L297.051 203.176L295.789 201.154L293.141 202.533L294.074 204.726Z" fill="#1F4779"/>
<path d="M300.262 202.778L303.464 203.787L304.001 201.465L301.154 200.567L300.262 202.778Z" fill="#1F4779"/>
<path d="M306.016 205.777L307.567 208.753L309.588 207.491L308.209 204.844L306.016 205.777Z" fill="#1F4779"/>
<path d="M307.964 211.966L306.956 215.167L309.278 215.704L310.175 212.856L307.964 211.966Z" fill="#1F4779"/>
<path d="M304.965 217.72L301.989 219.27L303.25 221.292L305.898 219.913L304.965 217.72Z" fill="#1F4779"/>
<path d="M57.4895 82.0361C59.2059 74.9923 54.8859 67.8895 47.8421 66.173C40.796 64.4566 33.6921 68.7766 31.9767 75.8205C30.2603 82.8665 34.5803 89.9705 41.6264 91.6869C48.6702 93.4022 55.7731 89.0822 57.4895 82.0361ZM50.6906 80.3798C49.888 83.6724 46.5731 85.6894 43.2827 84.8869C39.9901 84.0843 37.9731 80.7694 38.7757 77.4768C39.5771 74.1875 42.8931 72.1705 46.1858 72.9731C49.475 73.7734 51.492 77.0894 50.6906 80.3798Z" fill="#1F4779"/>
<path d="M44.2065 91.7541L39.3009 90.5586L38.7266 94.0972L43.0889 95.1602L44.2065 91.7541Z" fill="#1F4779"/>
<path d="M35.2727 87.826L32.6491 83.5127L29.7405 85.6087L32.0736 89.4445L35.2727 87.826Z" fill="#1F4779"/>
<path d="M31.7318 78.7319L32.9273 73.8263L29.3887 73.252L28.3257 77.6143L31.7318 78.7319Z" fill="#1F4779"/>
<path d="M35.66 69.7978L39.9733 67.1742L37.8784 64.2656L34.0415 66.5987L35.66 69.7978Z" fill="#1F4779"/>
<path d="M44.7542 66.2567L49.6597 67.4522L50.2352 63.9136L45.8717 62.8506L44.7542 66.2567Z" fill="#1F4779"/>
<path d="M53.688 70.1849L56.3116 74.4982L59.2202 72.4033L56.8871 68.5664L53.688 70.1849Z" fill="#1F4779"/>
<path d="M57.2292 79.2793L56.0337 84.1848L59.5723 84.7603L60.6353 80.3969L57.2292 79.2793Z" fill="#1F4779"/>
<path d="M53.3009 88.2129L48.9875 90.8365L51.0836 93.7451L54.9205 91.412L53.3009 88.2129Z" fill="#1F4779"/>
<path d="M40.6458 81.3385L44.5829 83.4946L48.4176 81.1593L48.3141 76.6745L44.3792 74.5195L40.5422 76.8504L40.6458 81.3385ZM44.8166 77.6229C45.5825 77.8099 46.0489 78.5769 45.8618 79.3427C45.676 80.1052 44.9079 80.5749 44.1421 80.3879C43.3796 80.202 42.911 79.4306 43.0968 78.6681C43.2839 77.9034 44.0541 77.4381 44.8166 77.6229Z" fill="#1F4779"/>
</g>
<defs>
<clipPath id="clip0_1228_7740">
<rect width="460" height="457.395" fill="white"/>
</clipPath>
</defs>
</svg>
