<svg width="460" height="458" fill="none" xmlns="http://www.w3.org/2000/svg"><g clip-path="url(#a)"><path d="M125.6 183v-21.42H73.4v-23.04l57.24-82.44h26.46v80.82h16.56v24.66H157.1V183h-31.5Zm0-46.08V95.34h4.68l-33.66 49.14v-7.56h28.98Zm104.33 48.06c-15.6 0-27.6-5.7-36-17.1-8.28-11.52-12.42-27.78-12.42-48.78 0-21.24 4.14-37.38 12.42-48.42 8.4-11.04 20.4-16.56 36-16.56 15.72 0 27.72 5.52 36 16.56 8.28 11.04 12.42 27.12 12.42 48.24s-4.2 37.44-12.6 48.96c-8.28 11.4-20.22 17.1-35.82 17.1Zm0-26.46c5.76 0 10.02-3.12 12.78-9.36 2.88-6.24 4.32-16.26 4.32-30.06 0-13.92-1.44-23.82-4.32-29.7-2.76-6-7.02-9-12.78-9s-10.08 3-12.96 9c-2.76 5.88-4.14 15.72-4.14 29.52 0 13.92 1.38 24 4.14 30.24 2.88 6.24 7.2 9.36 12.96 9.36Zm104.329 26.46c-9 0-17.7-1.2-26.1-3.6-8.28-2.52-14.94-5.88-19.98-10.08l10.08-24.48c5.28 3.72 10.86 6.48 16.74 8.28 5.88 1.8 11.94 2.7 18.18 2.7 6.48 0 11.34-1.08 14.58-3.24 3.24-2.28 4.86-5.64 4.86-10.08 0-4.2-1.5-7.32-4.5-9.36-2.88-2.04-7.2-3.06-12.96-3.06h-22.32v-25.92h19.08c5.16 0 9.24-1.08 12.24-3.24 3-2.28 4.5-5.46 4.5-9.54 0-3.96-1.44-6.96-4.32-9-2.88-2.04-7.08-3.06-12.6-3.06-11.52 0-21.96 3.66-31.32 10.98l-10.08-24.12c5.4-4.44 12.06-7.86 19.98-10.26 7.92-2.52 16.14-3.78 24.66-3.78 14.16 0 25.26 3.12 33.3 9.36 8.04 6.12 12.06 14.64 12.06 25.56 0 7.32-2.1 13.62-6.3 18.9-4.08 5.28-9.72 8.76-16.92 10.44v-2.52c8.4 1.32 15 4.86 19.8 10.62 4.8 5.64 7.2 12.72 7.2 21.24 0 11.52-4.44 20.64-13.32 27.36-8.88 6.6-21.06 9.9-36.54 9.9Z" fill="#fff"/><path d="m54.836 286.173-16.511.31-8.365.125c-2.794.052-5.601.042-8.403.061l-.494.003-.003-.499-.06-14.062-.002-.559.559.002 16.639.07c5.547.006 11.092.125 16.639.183l.306.003-.002.301c-.022 2.381-.096 4.75-.146 7.096l-.157 6.966Zm0 0-.158-7.097c-.05-2.34-.125-4.659-.146-6.965l.304.303c-5.547.057-11.092.177-16.64.183l-16.638.07.555-.555-.06 14.062-.496-.497c2.745.02 5.484.009 8.237.061l8.274.125 16.768.31ZM36.271 303.904l-16.51.311-8.366.124c-2.794.053-5.601.043-8.403.062l-.494.003-.002-.5-.058-14.062-.002-.559.558.002 16.64.071c5.546.005 11.091.124 16.638.182l.306.003-.002.301c-.021 2.381-.096 4.751-.146 7.096l-.159 6.966Zm0 0-.158-7.096c-.05-2.341-.125-4.66-.146-6.966l.304.304c-5.547.057-11.092.177-16.639.182l-16.639.071.556-.556-.06 14.061-.496-.496c2.746.02 5.485.009 8.237.061l8.274.125 16.767.31ZM36.271-.38l-16.51.311-8.366.125C8.601.108 5.794.097 2.992.117l-.494.004-.002-.5-.058-14.063L2.434-15l.56.002 16.638.07c5.547.006 11.092.125 16.639.183l.306.003-.002.3c-.021 2.382-.096 4.752-.146 7.097L36.271-.38Zm0 0-.158-7.095c-.05-2.341-.125-4.66-.146-6.966l.304.304c-5.546.055-11.092.176-16.639.181l-16.639.07.556-.555-.06 14.06-.496-.496c2.746.02 5.484.01 8.237.062l8.274.124 16.767.312ZM457.007-.38l-16.511.311-8.365.125c-2.794.052-5.602.041-8.403.061l-.495.004-.002-.5-.06-14.062-.002-.559.559.002 16.639.07c5.546.006 11.092.125 16.639.183l.306.003-.002.3c-.022 2.382-.096 4.752-.146 7.097l-.157 6.966Zm0 0-.158-7.095c-.05-2.341-.125-4.66-.146-6.966l.304.304c-5.547.056-11.094.177-16.639.182l-16.639.07.555-.555-.06 14.062-.496-.496c2.745.02 5.484.008 8.237.06l8.274.125 16.768.31ZM438.443 17.352l-16.511.31-8.365.126c-2.794.052-5.601.04-8.403.06l-.494.004-.002-.5-.06-14.062-.003-.559.559.003 16.639.07c5.547.005 11.092.124 16.639.182l.306.004-.002.3c-.021 2.381-.096 4.751-.146 7.096l-.157 6.966Zm0 0-.158-7.096c-.05-2.34-.124-4.66-.146-6.966l.304.304c-5.546.057-11.092.177-16.639.183l-16.639.07.556-.556-.06 14.062-.497-.496c2.745.019 5.485.009 8.237.061l8.274.125 16.768.31ZM353.214 181.865l-16.511.311-8.365.124c-2.794.053-5.602.041-8.403.061l-.494.004-.003-.5-.06-14.062-.002-.559.559.002 16.639.07c5.546.006 11.092.126 16.639.183l.306.003-.002.301c-.022 2.381-.096 4.751-.146 7.096l-.157 6.966Zm0 0-.158-7.096c-.05-2.342-.125-4.66-.146-6.966l.304.304c-5.547.057-11.094.177-16.639.182l-16.639.07.555-.555-.06 14.062-.496-.495c2.745.02 5.484.009 8.237.061l8.274.125 16.768.308ZM334.65 199.596l-16.511.311-8.365.125c-2.794.052-5.601.041-8.403.061l-.494.003-.002-.5-.061-14.062-.002-.558.559.002 16.639.07c5.547.006 11.092.126 16.639.182l.306.004-.002.3c-.021 2.381-.096 4.751-.146 7.097l-.157 6.965Zm0 0-.158-7.096c-.05-2.341-.125-4.659-.146-6.966l.304.304c-5.547.057-11.092.177-16.639.183l-16.639.07.556-.556-.061 14.063-.496-.497c2.745.02 5.484.009 8.237.061l8.274.125 16.768.309ZM316.159 181.865l-16.511.311-8.365.124c-2.794.053-5.601.041-8.403.061l-.494.004-.002-.5-.06-14.062-.003-.559.559.002 16.639.07c5.547.006 11.092.126 16.639.183l.306.003-.002.301c-.021 2.381-.096 4.751-.146 7.096l-.157 6.966Zm0 0-.158-7.096c-.05-2.342-.125-4.66-.146-6.966l.304.304c-5.547.057-11.093.177-16.639.182l-16.639.07.556-.555-.06 14.062-.497-.495c2.746.02 5.484.009 8.237.061l8.274.125 16.768.308ZM457.007 303.904l-16.511.311-8.365.124c-2.794.053-5.602.043-8.403.062l-.495.003-.002-.5-.06-14.062-.002-.559.559.002 16.639.071c5.546.005 11.093.124 16.639.182l.306.003-.002.301c-.022 2.381-.096 4.751-.146 7.096l-.157 6.966Zm0 0-.158-7.096c-.05-2.341-.125-4.66-.146-6.966l.304.304c-5.547.057-11.093.177-16.639.182l-16.639.071.555-.556-.06 14.062-.496-.496c2.745.02 5.484.009 8.237.061l8.274.125 16.768.309ZM174.262 41.437l-16.511.31-8.365.126c-2.794.052-5.602.042-8.403.06l-.495.004-.002-.5-.06-14.062-.002-.559.559.003 16.639.07c5.546.005 11.092.124 16.639.182l.306.004-.003.3c-.021 2.381-.095 4.751-.145 7.096l-.157 6.966Zm0 0-.158-7.096c-.051-2.34-.125-4.66-.146-6.966l.304.304c-5.547.057-11.093.177-16.639.183l-16.639.07.555-.556-.06 14.062-.496-.496c2.745.02 5.484.009 8.237.061l8.274.125 16.768.31ZM422.821 153.252l6.552-10.565-3.235-2.003c-.952-.59-1.467-1.666-1.372-2.781.053-.617.073-1.237.059-1.859a2.955 2.955 0 0 1 1.543-2.683l3.354-1.798-5.877-10.959-3.353 1.799a2.956 2.956 0 0 1-3.088-.199 17.225 17.225 0 0 0-1.581-.98c-.981-.538-1.592-1.563-1.557-2.682l.12-3.804-12.425-.386-.115 3.818c-.033 1.119-.72 2.093-1.732 2.572a17.342 17.342 0 0 0-1.612.865c-.954.576-2.139.61-3.087.023l-3.259-2.019-6.553 10.565 3.242 2.011a2.958 2.958 0 0 1 1.369 2.783 17.036 17.036 0 0 0-.061 1.851 2.952 2.952 0 0 1-1.543 2.679l-3.355 1.799 5.877 10.959 3.355-1.799a2.957 2.957 0 0 1 3.086.197 17.16 17.16 0 0 0 1.576.973c.983.536 1.595 1.562 1.56 2.68l-.116 3.813 12.425.386.118-3.815c.035-1.115.719-2.086 1.729-2.562a18.145 18.145 0 0 0 1.62-.868c.959-.579 2.149-.613 3.102-.021l3.234 2.01Zm-10.521-7.845c-4.955 2.658-11.122.795-13.78-4.16-2.658-4.956-.801-11.131 4.155-13.79 4.956-2.658 11.136-.792 13.794 4.164 2.657 4.956.787 11.127-4.169 13.786Z" fill="#EBEBEB"/><path d="m64.735 272.956 6.553-10.564-3.236-2.005c-.952-.59-1.467-1.665-1.372-2.781.054-.616.073-1.236.06-1.859a2.951 2.951 0 0 1 1.542-2.682l3.354-1.799-5.877-10.96-3.353 1.799a2.954 2.954 0 0 1-3.088-.199 17.552 17.552 0 0 0-1.58-.98c-.982-.538-1.593-1.563-1.558-2.681l.12-3.805-12.425-.386-.115 3.818c-.033 1.12-.72 2.093-1.732 2.572a18.142 18.142 0 0 0-1.613.865c-.954.577-2.14.61-3.087.022l-3.259-2.019-6.553 10.565 3.242 2.011a2.957 2.957 0 0 1 1.369 2.783 17.398 17.398 0 0 0-.061 1.851 2.95 2.95 0 0 1-1.543 2.679L27.168 261l5.877 10.959 3.355-1.799a2.954 2.954 0 0 1 3.086.198c.509.353 1.035.678 1.576.973.983.537 1.595 1.562 1.56 2.68l-.116 3.814 12.425.386.119-3.814c.034-1.116.719-2.086 1.728-2.564a17.929 17.929 0 0 0 1.62-.868c.958-.579 2.15-.612 3.102-.021l3.235 2.012Zm-10.521-7.846c-4.956 2.658-11.123.796-13.781-4.16-2.658-4.956-.801-11.131 4.155-13.789 4.956-2.658 11.136-.793 13.794 4.163 2.658 4.958.787 11.129-4.168 13.786ZM192.007 70.621l-4.352-7.543-2.309 1.333a2.07 2.07 0 0 1-2.171-.073 11.841 11.841 0 0 0-1.127-.651 2.07 2.07 0 0 1-1.146-1.84V59.18h-8.711v2.666c0 .781-.448 1.486-1.145 1.84-.389.197-.765.415-1.128.65a2.069 2.069 0 0 1-2.17.074l-2.309-1.333-4.352 7.543 2.318 1.336c.68.392 1.054 1.138 1.014 1.921a12.41 12.41 0 0 0 0 1.283c.04.78-.331 1.522-1.007 1.913l-2.325 1.344 4.352 7.543 2.315-1.334a2.073 2.073 0 0 1 2.172.075c.362.236.736.453 1.123.65a2.07 2.07 0 0 1 1.143 1.84v2.667h8.712v-2.668a2.07 2.07 0 0 1 1.143-1.84 12.12 12.12 0 0 0 1.122-.65 2.068 2.068 0 0 1 2.171-.075l2.316 1.334 4.352-7.543-2.316-1.336c-.678-.39-1.05-1.135-1.011-1.916a12.546 12.546 0 0 0 0-1.287c-.04-.783.334-1.53 1.014-1.922l2.312-1.335Zm-8.326 3.898c0 3.94-3.191 7.131-7.131 7.131-3.939 0-7.137-3.191-7.137-7.13a7.14 7.14 0 0 1 7.137-7.138c3.94-.001 7.131 3.197 7.131 7.137Z" fill="#1F4779"/><path d="m0 378.294 57.5-.271 57.5-.099 115-.186 115 .185 57.499.098 57.501.273-57.501.272-57.499.097-115 .186-115-.187-57.5-.098-57.5-.27Z" fill="#263238"/><path d="M252.932 282.5h-39.53v3.238h39.53V282.5ZM252.932 286.718h-39.53v3.238h39.53v-3.238ZM252.932 290.936h-39.53v3.238h39.53v-3.238ZM252.932 295.154h-39.53v3.238h39.53v-3.238ZM252.932 299.372h-39.53v3.238h39.53v-3.238ZM270.043 383.514H194.89v3.238h75.153v-3.238ZM270.043 387.731H194.89v3.239h75.153v-3.239ZM270.043 391.95H194.89v3.238h75.153v-3.238ZM270.043 396.168H194.89v3.238h75.153v-3.238ZM270.043 400.385H194.89v3.238h75.153v-3.238Z" fill="#37474F"/><path d="M161.915 255.733c.037-.437-16.449-5.96-16.449-5.96l.974-56.642 21.861-4.691-6.386 67.293Z" fill="#E0AF7F"/><path opacity=".2" d="M161.915 255.733c.037-.437-16.449-5.96-16.449-5.96l.974-56.642 21.861-4.691-6.386 67.293Z" fill="#000"/><path d="M312.915 277.966c.116-.424 17.496.065 17.496.065l18.578-53.518-18.91-11.927-17.164 65.38Z" fill="#E0AF7F"/><path opacity=".2" d="M312.915 277.966c.116-.424 17.496.065 17.496.065l18.578-53.518-18.91-11.927-17.164 65.38Z" fill="#000"/><path d="M158.741 276.589s6.113-91.608 11.473-121.743c0 0 110.664 8.369 170.404 31.203 0 0-30.799 107.002-32.393 112.312 0 .001-77.928-15.35-149.484-21.772Z" fill="#E0AF7F"/><path opacity=".1" d="M257.519 167.08a4292.178 4292.178 0 0 1-5.505 33.072l-5.703 33.036-.308-.466 37.079 8.808 18.521 4.488 18.499 4.577-18.597-4.162-18.576-4.249-37.113-8.669-.375-.088.068-.38 5.905-33.001a4283.219 4283.219 0 0 1 6.105-32.966ZM253.45 173.366c.02 1.011-.786 2.05-1.943 2.15a2.195 2.195 0 0 1-1.628-.523 2.2 2.2 0 0 1-.732-1.627 2.198 2.198 0 0 1 .731-1.629 2.197 2.197 0 0 1 1.629-.524c1.159.103 1.963 1.143 1.943 2.153Zm0 0a1.781 1.781 0 0 0-.611-1.333 1.77 1.77 0 0 0-1.332-.4c-.934.108-1.54.946-1.526 1.733-.015.787.59 1.629 1.526 1.735.453.051.953-.08 1.333-.402.38-.321.606-.823.61-1.333ZM251.507 186.998c.02 1.01-.786 2.049-1.944 2.15a2.196 2.196 0 0 1-1.627-.523 2.203 2.203 0 0 1-.733-1.627 2.206 2.206 0 0 1 .732-1.629 2.19 2.19 0 0 1 1.628-.524c1.16.101 1.965 1.142 1.944 2.153Zm0 0a1.788 1.788 0 0 0-.611-1.333 1.774 1.774 0 0 0-1.333-.4c-.934.108-1.539.946-1.526 1.733-.014.787.59 1.629 1.526 1.735.453.051.953-.08 1.334-.403.379-.322.605-.822.61-1.332ZM249.114 201.4c.021 1.011-.786 2.05-1.944 2.151a2.196 2.196 0 0 1-1.627-.524 2.201 2.201 0 0 1-.733-1.627 2.203 2.203 0 0 1 .732-1.628 2.19 2.19 0 0 1 1.628-.525c1.16.102 1.965 1.142 1.944 2.153Zm0 0a1.787 1.787 0 0 0-.61-1.332 1.775 1.775 0 0 0-1.333-.401c-.934.108-1.539.946-1.526 1.733-.014.787.59 1.63 1.526 1.735.453.052.953-.08 1.334-.403a1.79 1.79 0 0 0 .609-1.332ZM246.72 215.802c.021 1.011-.786 2.051-1.943 2.151a2.208 2.208 0 0 1-1.628-.523 2.204 2.204 0 0 1-.732-1.628 2.2 2.2 0 0 1 .731-1.628 2.189 2.189 0 0 1 1.629-.524c1.16.101 1.964 1.142 1.943 2.152Zm0 0a1.78 1.78 0 0 0-.611-1.332 1.772 1.772 0 0 0-1.332-.401c-.934.108-1.54.946-1.526 1.733-.015.787.59 1.63 1.526 1.736.453.052.953-.08 1.333-.402a1.79 1.79 0 0 0 .61-1.334ZM254.875 238.77c.021 1.011-.786 2.049-1.943 2.151a2.208 2.208 0 0 1-1.628-.523 2.204 2.204 0 0 1-.732-1.628 2.194 2.194 0 0 1 .731-1.628 2.192 2.192 0 0 1 1.629-.525c1.158.103 1.963 1.144 1.943 2.153Zm0 0a1.777 1.777 0 0 0-.611-1.332 1.773 1.773 0 0 0-1.332-.401c-.934.108-1.54.946-1.526 1.733-.015.787.589 1.63 1.526 1.736.453.051.952-.081 1.333-.402a1.79 1.79 0 0 0 .61-1.334ZM268.47 242.088c.021 1.01-.786 2.049-1.944 2.15a2.204 2.204 0 0 1-1.627-.523 2.203 2.203 0 0 1-.733-1.627 2.205 2.205 0 0 1 .732-1.629 2.185 2.185 0 0 1 1.628-.524c1.16.101 1.965 1.142 1.944 2.153Zm0 0a1.79 1.79 0 0 0-.61-1.333 1.775 1.775 0 0 0-1.333-.401c-.934.108-1.539.947-1.526 1.734-.014.787.59 1.629 1.526 1.735.453.052.953-.08 1.334-.402.378-.323.604-.824.609-1.333ZM282.065 245.404c.02 1.011-.786 2.05-1.943 2.151a2.2 2.2 0 0 1-1.628-.524 2.2 2.2 0 0 1-.732-1.627 2.202 2.202 0 0 1 .731-1.629 2.197 2.197 0 0 1 1.629-.524c1.159.101 1.963 1.142 1.943 2.153Zm0 0a1.78 1.78 0 0 0-.61-1.332 1.772 1.772 0 0 0-1.332-.401c-.934.108-1.54.946-1.526 1.733-.015.787.59 1.63 1.526 1.735.453.052.953-.08 1.333-.403.379-.321.604-.822.609-1.332ZM295.66 248.719c.021 1.011-.786 2.05-1.944 2.151a2.204 2.204 0 0 1-1.627-.523 2.205 2.205 0 0 1-.733-1.628 2.2 2.2 0 0 1 .732-1.628 2.185 2.185 0 0 1 1.628-.524c1.159.102 1.964 1.143 1.944 2.152Zm0 0a1.788 1.788 0 0 0-.611-1.332 1.775 1.775 0 0 0-1.333-.401c-.934.108-1.539.946-1.526 1.733-.014.787.59 1.63 1.526 1.736.453.051.953-.08 1.334-.403a1.79 1.79 0 0 0 .61-1.333ZM309.249 252.186c-.057 1.01-.941 1.984-2.103 1.995a2.202 2.202 0 0 1-1.583-.648 2.197 2.197 0 0 1-.605-1.678c.05-.616.368-1.206.855-1.568a2.19 2.19 0 0 1 1.664-.397c1.149.191 1.87 1.29 1.772 2.296Zm0 0a1.787 1.787 0 0 0-.506-1.376 1.778 1.778 0 0 0-1.298-.502c-.94.036-1.609.825-1.656 1.611-.075.784.463 1.67 1.389 1.848.447.087.956-.006 1.36-.298.404-.292.668-.775.711-1.283ZM244.327 230.204c.02 1.01-.786 2.05-1.943 2.15a2.19 2.19 0 0 1-1.628-.523 2.2 2.2 0 0 1-.732-1.627 2.205 2.205 0 0 1 .731-1.629 2.194 2.194 0 0 1 1.629-.524c1.159.102 1.964 1.143 1.943 2.153Zm0 0a1.781 1.781 0 0 0-.611-1.333 1.772 1.772 0 0 0-1.332-.4c-.934.108-1.54.946-1.527 1.733-.014.787.59 1.629 1.527 1.735.453.051.952-.08 1.332-.402.382-.321.607-.823.611-1.333Z" fill="#000"/><path opacity=".2" d="M221.434 254.068c12.905-11.604 13.96-31.472 2.357-44.378-11.604-12.905-31.473-13.96-44.378-2.357-12.905 11.604-13.961 31.473-2.357 44.378 11.604 12.905 31.472 13.961 44.378 2.357Z" fill="#000"/><path d="M223.985 239.623c4.927-13.017-1.631-27.564-14.647-32.491-13.017-4.927-27.564 1.631-32.491 14.648-4.927 13.016 1.631 27.563 14.647 32.49 13.017 4.927 27.564-1.63 32.491-14.647Z" fill="#263238"/><path d="m198.903 221.439-5.891-.955-.955 5.892 5.892.954.954-5.891ZM193.966 214.592l-5.892-.954-.954 5.891 5.891.955.955-5.892ZM217.532 218.409l-5.891-.954-.955 5.892 5.892.954.954-5.892ZM190.169 238.026l-5.891-.955-.955 5.892 5.892.954.954-5.891ZM213.736 241.843l-5.892-.954-.954 5.891 5.891.955.955-5.892ZM197.016 233.088l-5.891-.954-.955 5.891 5.892.955.954-5.892Z" fill="#E0AF7F"/><path d="m203.851 228.218-5.892-.954-.954 5.891 5.892.955.954-5.892ZM210.686 223.347l-5.891-.954-.954 5.891 5.891.955.954-5.892ZM208.804 234.994l-5.891-.954-.955 5.892 5.892.954.954-5.892ZM309.063 263.773c11-13.424 9.034-33.224-4.39-44.224s-33.224-9.034-44.224 4.39c-10.999 13.425-9.034 33.224 4.39 44.224 13.425 11 33.224 9.034 44.224-4.39Z" fill="#E0AF7F"/><path opacity=".2" d="M309.063 263.773c11-13.424 9.034-33.224-4.39-44.224s-33.224-9.034-44.224 4.39c-10.999 13.425-9.034 33.224 4.39 44.224 13.425 11 33.224 9.034 44.224-4.39Z" fill="#000"/><path opacity=".2" d="M315.332 251.138a26.178 26.178 0 0 1-.495 1.815l-61.253-13.065c.144-1.093.34-2.186.597-3.289 4.012-16.881 20.954-27.316 37.846-23.306 16.881 4.012 27.317 20.955 23.305 37.845Z" fill="#000"/><path d="M294.468 267.127c12.843-5.366 18.904-20.127 13.538-32.97-5.365-12.843-20.126-18.904-32.969-13.538-12.843 5.365-18.905 20.126-13.539 32.969 5.366 12.843 20.127 18.904 32.97 13.539Z" fill="#263238"/><path d="m291.099 230.1-5.807-1.38-6.868 28.903 5.807 1.38 6.868-28.903Z" fill="#E0AF7F"/><path d="m317.155 250.548-64.339-15.291c4.222-17.763 22.05-28.739 39.813-24.518 17.764 4.222 28.748 22.046 24.526 39.809Z" fill="#E0AF7F"/><path opacity=".2" d="m317.155 250.548-64.339-15.291c4.222-17.763 22.05-28.739 39.813-24.518 17.764 4.222 28.748 22.046 24.526 39.809Z" fill="#000"/><path opacity=".1" d="M230.079 262.549c.163-2.513 1.085-5.06 2.908-7.075.898-1.015 2.097-1.812 3.417-2.298 1.327-.487 2.76-.573 4.12-.457 1.383.161 2.796.649 3.949 1.521a8.191 8.191 0 0 1 2.508 3.302c1.049 2.491 1.164 5.154.655 7.623-.418-2.468-1.056-4.865-2.215-6.832-1.15-1.981-2.968-3.214-5.136-3.406-2.21-.275-4.368.319-6.104 1.787-1.739 1.462-3.066 3.558-4.102 5.835Z" fill="#000"/><path d="M167.349 198.453c.262-3.357.638-6.699.956-10.048.358-3.344.725-6.687 1.131-10.023.386-3.339.822-6.672 1.249-10.007.419-3.335.902-6.661 1.349-9.992l.119-.89.902.057a548.835 548.835 0 0 1 21.711 1.785c3.613.371 7.22.79 10.823 1.254 3.597.516 7.198.993 10.774 1.647l-21.725-1.344-21.701-1.404 1.021-.833c-.493 3.325-.952 6.655-1.474 9.975-.514 3.322-1.02 6.644-1.575 9.96a674.297 674.297 0 0 1-1.692 9.944c-.623 3.307-1.188 6.621-1.868 9.919ZM172.575 223.85c.729-4.036 2.564-7.882 5.028-11.232.613-.842 1.311-1.62 1.983-2.422.727-.75 1.482-1.476 2.228-2.212.814-.661 1.635-1.316 2.47-1.952.887-.562 1.763-1.149 2.665-1.689.949-.456 1.893-.926 2.852-1.36l2.986-1.033 3.09-.637c1.038-.152 2.092-.183 3.133-.262 4.191-.108 8.314.786 12.098 2.318-4.028-.754-8.042-1.173-11.999-.795a28.206 28.206 0 0 0-11.213 3.479c-3.456 1.887-6.517 4.489-9.103 7.513-2.576 3.04-4.707 6.481-6.218 10.284ZM259.261 232.339c1.28-3.897 3.627-7.452 6.53-10.43.724-.749 1.523-1.423 2.299-2.125.823-.642 1.672-1.256 2.512-1.883a98.317 98.317 0 0 1 2.716-1.593c.958-.434 1.905-.895 2.873-1.304 1.004-.321 2.004-.657 3.012-.953l3.1-.611 3.15-.205c1.048-.008 2.096.107 3.137.172 4.166.472 8.125 1.927 11.663 3.967-3.886-1.303-7.803-2.273-11.775-2.444-3.96-.18-7.922.459-11.585 1.899-3.684 1.391-7.075 3.546-10.054 6.183-2.972 2.654-5.558 5.769-7.578 9.327Z" fill="#fff"/><path d="M162.257 333.043c-8.051 0-25.673-1.81-37.014-16.39-14.508-18.654-9.264-54.448-9.035-55.963l6.299.957c-.052.344-5.058 34.607 7.765 51.094 12.537 16.119 35.277 13.805 35.505 13.777l.717 6.331c-.248.03-1.807.194-4.237.194Z" fill="#E0AF7F"/><path opacity=".4" d="M162.257 333.043c-8.051 0-25.673-1.81-37.014-16.39-14.508-18.654-9.264-54.448-9.035-55.963l6.299.957c-.052.344-5.058 34.607 7.765 51.094 12.537 16.119 35.277 13.805 35.505 13.777l.717 6.331c-.248.03-1.807.194-4.237.194Z" fill="#fff"/><path d="M124.361 265.98a22.03 22.03 0 0 1-3.516-.289c-10.626-1.721-15.33-8.079-17.406-13.111-2.08-5.042-2.561-11.142-1.429-18.128l13.475 2.184c-.701 4.328-.497 8.143.574 10.738.763 1.853 2.246 4.077 6.969 4.841 2.157.35 4.489.165 6.931-3.518 1.886-2.843 3.018-6.712 3.414-9.163l13.476 2.182c-.312 1.928-1.633 8.674-5.513 14.524-4.218 6.365-10.157 9.74-16.975 9.74ZM175.568 351.277c-.023-.291-11.416-2.111-11.416-2.111l-5.53-37.184 13.799-5.451 3.147 44.746Z" fill="#E0AF7F"/><path opacity=".2" d="M175.568 351.277c-.023-.291-11.416-2.111-11.416-2.111l-5.53-37.184 13.799-5.451 3.147 44.746Z" fill="#000"/><path d="M288.212 351.346c.03-.29 11.461-1.858 11.461-1.858l6.35-37.052-13.676-5.755-4.135 44.665Z" fill="#E0AF7F"/><path opacity=".2" d="M288.212 351.346c.03-.29 11.461-1.858 11.461-1.858l6.35-37.052-13.676-5.755-4.135 44.665Z" fill="#000"/><path d="M170.828 298.205s92.15-3.94 123.279 1.248c0 0-9.141 89.168-9.635 90.898 0 0-91.667-.247-105.996 0 0 0-7.766-59.293-7.648-92.146Z" fill="#E0AF7F"/><path opacity=".2" d="M198.818 322.639s50.305-1.987 67.299.628c0 0-4.99 44.964-5.259 45.836 0 0-50.042-.125-57.865 0-.001.001-3.438-30.773-4.175-46.464Z" fill="#000"/><path opacity=".2" d="M205.694 369.085c-1.152 0-2.065.014-2.704.022 0 0-3.431-30.779-4.175-46.469 0 0 1.144-.045 3.142-.112l3.737 46.559Z" fill="#000"/><path d="M220.532 333.733a5.351 5.351 0 1 0-3.215 10.207 5.346 5.346 0 0 0 6.707-3.496 5.35 5.35 0 0 0-3.492-6.711Zm2.872 6.514a4.697 4.697 0 1 1-8.96-2.823 4.696 4.696 0 0 1 5.894-3.067 4.696 4.696 0 0 1 3.066 5.89Zm-2.872-6.514a5.351 5.351 0 1 0-3.215 10.207 5.346 5.346 0 0 0 6.707-3.496 5.35 5.35 0 0 0-3.492-6.711Zm2.872 6.514a4.697 4.697 0 1 1-8.96-2.823 4.696 4.696 0 0 1 5.894-3.067 4.696 4.696 0 0 1 3.066 5.89Zm-2.872-6.514a5.351 5.351 0 1 0-3.215 10.207 5.346 5.346 0 0 0 6.707-3.496 5.35 5.35 0 0 0-3.492-6.711Zm2.872 6.514a4.697 4.697 0 1 1-8.96-2.823 4.696 4.696 0 0 1 5.894-3.067 4.696 4.696 0 0 1 3.066 5.89Zm-1.089-12.167c-5.945-1.872-12.276 1.43-14.149 7.367-1.871 5.939 1.425 12.274 7.368 14.145 5.937 1.87 12.272-1.428 14.143-7.368 1.874-5.935-1.425-12.273-7.362-14.144Zm2.505 12.614c-1.026 3.253-4.503 5.066-7.753 4.04a6.19 6.19 0 0 1-4.039-7.755 6.19 6.19 0 0 1 7.755-4.038 6.19 6.19 0 0 1 4.037 7.753Zm-.796-.25a5.35 5.35 0 1 0-6.707 3.496 5.345 5.345 0 0 0 6.707-3.496Zm-.62-.197a4.697 4.697 0 1 1-8.96-2.823 4.696 4.696 0 0 1 5.894-3.067 4.696 4.696 0 0 1 3.066 5.89Zm-2.872-6.514a5.351 5.351 0 1 0-3.215 10.207 5.346 5.346 0 0 0 6.707-3.496 5.35 5.35 0 0 0-3.492-6.711Zm2.872 6.514a4.697 4.697 0 1 1-8.96-2.823 4.696 4.696 0 0 1 5.894-3.067 4.696 4.696 0 0 1 3.066 5.89Zm-2.872-6.514a5.351 5.351 0 1 0-3.215 10.207 5.346 5.346 0 0 0 6.707-3.496 5.35 5.35 0 0 0-3.492-6.711Zm2.872 6.514a4.697 4.697 0 1 1-8.96-2.823 4.696 4.696 0 0 1 5.894-3.067 4.696 4.696 0 0 1 3.066 5.89Z" fill="#E0AF7F"/><path d="m217.742 349.799-4.135-1.304-.694 3 3.678 1.159 1.151-2.855ZM210.31 345.925l-2.004-3.846-2.611 1.63 1.781 3.42 2.834-1.204ZM207.793 337.929l1.303-4.135-2.999-.694-1.16 3.678 2.856 1.151ZM211.667 330.497l3.846-2.004-1.631-2.611-3.421 1.781 1.206 2.834ZM219.661 327.98l4.137 1.304.693-3-3.678-1.16-1.152 2.856ZM227.095 331.854l2.002 3.846 2.613-1.631-1.782-3.421-2.833 1.206ZM229.612 339.85l-1.304 4.135 3 .693 1.159-3.677-2.855-1.151ZM225.738 347.281l-3.847 2.003 1.631 2.612 3.42-1.782-1.204-2.833Z" fill="#E0AF7F"/><path d="M238.722 349.473a3.602 3.602 0 1 0-3.931 6.039 3.599 3.599 0 0 0 4.981-1.055 3.602 3.602 0 0 0-1.05-4.984Zm.684 4.744a3.163 3.163 0 1 1-5.301-3.449 3.163 3.163 0 0 1 5.301 3.449Zm-.684-4.744a3.602 3.602 0 1 0-3.931 6.039 3.599 3.599 0 0 0 4.981-1.055 3.602 3.602 0 0 0-1.05-4.984Zm.684 4.744a3.163 3.163 0 1 1-5.301-3.449 3.163 3.163 0 0 1 5.301 3.449Zm-.684-4.744a3.602 3.602 0 1 0-3.931 6.039 3.599 3.599 0 0 0 4.981-1.055 3.602 3.602 0 0 0-1.05-4.984Zm.684 4.744a3.163 3.163 0 1 1-5.301-3.449 3.163 3.163 0 0 1 5.301 3.449Zm1.494-8.088a7.596 7.596 0 0 0-10.508 2.22 7.593 7.593 0 0 0 12.724 8.285 7.592 7.592 0 0 0-2.216-10.505Zm-.657 8.632a4.165 4.165 0 0 1-5.758 1.219 4.168 4.168 0 0 1-1.217-5.759 4.167 4.167 0 0 1 5.76-1.217 4.166 4.166 0 0 1 1.215 5.757Zm-.471-.305a3.6 3.6 0 1 0-6.035-3.93 3.602 3.602 0 0 0 1.054 4.986 3.6 3.6 0 0 0 4.981-1.056Zm-.366-.239a3.163 3.163 0 1 1-5.301-3.449 3.163 3.163 0 0 1 5.301 3.449Zm-.684-4.744a3.602 3.602 0 1 0-3.931 6.039 3.599 3.599 0 0 0 4.981-1.055 3.602 3.602 0 0 0-1.05-4.984Zm.684 4.744a3.163 3.163 0 1 1-5.301-3.449 3.163 3.163 0 0 1 5.301 3.449Zm-.684-4.744a3.602 3.602 0 1 0-3.931 6.039 3.599 3.599 0 0 0 4.981-1.055 3.602 3.602 0 0 0-1.05-4.984Zm.684 4.744a3.163 3.163 0 1 1-5.301-3.449 3.163 3.163 0 0 1 5.301 3.449Z" fill="#DBDBDB"/><path d="m234.007 359.386-2.446-1.593-.992 1.82 2.176 1.416 1.262-1.643ZM229.888 355.53l-.604-2.856-1.989.584.538 2.54 2.055-.268ZM229.702 349.89l1.593-2.447-1.82-.992-1.417 2.175 1.644 1.264ZM233.558 345.77l2.856-.603-.586-1.989-2.54.537.27 2.055ZM239.198 345.583l2.446 1.593.992-1.819-2.176-1.417-1.262 1.643ZM243.317 349.44l.604 2.857 1.988-.586-.537-2.54-2.055.269ZM243.504 355.079l-1.593 2.447 1.82.993 1.417-2.176-1.644-1.264ZM239.648 359.2l-2.857.603.585 1.989 2.541-.537-.269-2.055Z" fill="#DBDBDB"/><path d="m291.883 379.975 3.542.659 10.128-68.598-4.035-.741-9.635 68.68Z" fill="#E0AF7F"/><path d="m260.857 369.105 5.259-45.835 35.402-11.975s-9.635 69.422-9.635 68.681l-31.026-10.871Z" fill="#E0AF7F"/><path opacity=".4" d="m260.857 369.105 5.259-45.835 35.402-11.975s-9.635 69.422-9.635 68.681l-31.026-10.871Z" fill="#fff"/><path d="M175.056 325.125c-.576-3.796-.888-7.624-1.125-11.456-.109-1.917-.158-3.836-.201-5.755-.037-1.919-.071-3.84-.014-5.76l.016-.504.49-.027c7.033-.377 14.061-.839 21.098-1.147 7.035-.347 14.07-.662 21.111-.882-7.018.635-14.04 1.176-21.064 1.686-7.021.549-14.051.943-21.076 1.422l.506-.531-.029 5.731.067 5.735c.01 1.912.044 3.826.1 5.739l.121 5.749ZM271.054 323.942a109.734 109.734 0 0 1 6.674-2.904 137.49 137.49 0 0 1 6.809-2.576c2.298-.785 4.603-1.553 6.947-2.204 2.34-.659 4.703-1.268 7.116-1.663l.593-.097-.106.567c-.555 2.967-1.136 5.93-1.823 8.877.257-3.015.62-6.013 1.008-9.006l.488.469c-2.339.558-4.659 1.21-6.972 1.894a300.13 300.13 0 0 0-6.912 2.167l-13.822 4.476Z" fill="#fff"/><path opacity=".1" d="m190.376 298.392.597 11.464.51 11.467.883 22.939.692 22.946.276 11.475.189 11.479-.598-11.464-.51-11.468-.882-22.939-.689-22.946-.277-11.476-.191-11.477ZM187.093 305.302c.22.987-.365 2.165-1.48 2.492a2.194 2.194 0 0 1-1.698-.191 2.198 2.198 0 0 1-1.04-1.451 2.203 2.203 0 0 1 .395-1.741 2.195 2.195 0 0 1 1.493-.836c1.155-.129 2.15.733 2.33 1.727Zm0 0a1.79 1.79 0 0 0-.862-1.186 1.774 1.774 0 0 0-1.386-.129c-.894.291-1.322 1.231-1.153 2.002.141.773.901 1.48 1.839 1.399a1.773 1.773 0 0 0 1.227-.658c.309-.392.43-.927.335-1.428ZM187.882 319.048c.22.987-.365 2.165-1.48 2.492a2.195 2.195 0 0 1-1.698-.191 2.198 2.198 0 0 1-1.04-1.451 2.203 2.203 0 0 1 .395-1.741 2.189 2.189 0 0 1 1.493-.836c1.155-.129 2.15.733 2.33 1.727Zm0 0a1.787 1.787 0 0 0-.862-1.186 1.774 1.774 0 0 0-1.386-.129c-.894.291-1.322 1.233-1.153 2.002.141.773.901 1.48 1.839 1.399a1.776 1.776 0 0 0 1.227-.658c.309-.392.432-.927.335-1.428ZM188.383 333.639c.22.987-.365 2.165-1.48 2.492a2.194 2.194 0 0 1-1.698-.191 2.198 2.198 0 0 1-1.04-1.451 2.204 2.204 0 0 1 .395-1.741 2.19 2.19 0 0 1 1.493-.836c1.155-.129 2.15.733 2.33 1.727Zm0 0a1.79 1.79 0 0 0-.862-1.186 1.774 1.774 0 0 0-1.386-.129c-.894.291-1.322 1.231-1.153 2 .141.775.901 1.481 1.839 1.4a1.78 1.78 0 0 0 1.227-.658c.309-.39.43-.926.335-1.427ZM188.883 348.231c.221.987-.365 2.165-1.479 2.492a2.197 2.197 0 0 1-1.699-.192 2.193 2.193 0 0 1-1.039-1.45 2.198 2.198 0 0 1 .395-1.741 2.193 2.193 0 0 1 1.493-.836c1.155-.129 2.15.731 2.329 1.727Zm0 0a1.786 1.786 0 0 0-.861-1.186 1.774 1.774 0 0 0-1.386-.129c-.894.29-1.322 1.231-1.153 2.001.141.775.9 1.481 1.839 1.4a1.769 1.769 0 0 0 1.226-.658c.31-.392.431-.928.335-1.428ZM189.385 362.821c.22.988-.365 2.165-1.48 2.493a2.194 2.194 0 0 1-1.698-.192 2.196 2.196 0 0 1-1.04-1.45 2.202 2.202 0 0 1 .395-1.741 2.193 2.193 0 0 1 1.493-.836c1.155-.129 2.15.732 2.33 1.726Zm0 0a1.791 1.791 0 0 0-.862-1.185 1.765 1.765 0 0 0-1.386-.129c-.894.29-1.322 1.232-1.153 2.001.141.775.901 1.481 1.839 1.399a1.775 1.775 0 0 0 1.227-.657c.309-.391.43-.928.335-1.429ZM189.885 377.413c.221.987-.365 2.165-1.479 2.492-.54.163-1.172.11-1.699-.191a2.195 2.195 0 0 1-1.039-1.45 2.198 2.198 0 0 1 .395-1.741 2.187 2.187 0 0 1 1.493-.836c1.155-.129 2.149.731 2.329 1.726Zm0 0a1.781 1.781 0 0 0-.861-1.185 1.766 1.766 0 0 0-1.386-.129c-.894.29-1.322 1.232-1.153 2.001.141.774.9 1.48 1.839 1.399a1.776 1.776 0 0 0 1.227-.658c.309-.392.43-.927.334-1.428Z" fill="#000"/><path d="m194.392 399.723-52.177 15.811 1.847 6.097 52.177-15.812-1.847-6.096Z" fill="#E0AF7F"/><path opacity=".4" d="m194.392 399.723-52.177 15.811 1.847 6.097 52.177-15.812-1.847-6.096Z" fill="#fff"/><path d="m169.423 405.22-6.071 1.93 2.868 9.018 6.071-1.931-2.868-9.017ZM143.652 430.565l-13.465-58.304-40.64 9.634 20.012 56.822 34.093-8.152ZM152.669 427.6l-9.017 2.965-13.464-58.304 12.97 3.088 9.511 52.251Z" fill="#E0AF7F"/><path opacity=".2" d="m152.669 427.6-9.017 2.965-13.464-58.304 12.97 3.088 9.511 52.251Z" fill="#000"/><path d="M195.336 409.688a6.917 6.917 0 1 0 0-13.834 6.917 6.917 0 0 0 0 13.834ZM266.514 399.557l-1.86 6.092 52.144 15.921 1.861-6.093-52.145-15.92Z" fill="#E0AF7F"/><path opacity=".4" d="m266.514 399.557-1.86 6.092 52.144 15.921 1.861-6.093-52.145-15.92Z" fill="#fff"/><path d="m291.514 405.081-2.888 9.011 6.067 1.944 2.888-9.011-6.067-1.944ZM317.221 430.514l13.589-58.276 40.619 9.721-20.132 56.779-34.076-8.224Z" fill="#E0AF7F"/><path d="m308.21 427.53 9.011 2.984 13.589-58.276-12.977 3.06-9.623 52.232Z" fill="#E0AF7F"/><path opacity=".2" d="m308.21 427.53 9.011 2.984 13.589-58.276-12.977 3.06-9.623 52.232Z" fill="#000"/><path d="M258.679 402.597a6.918 6.918 0 1 0 13.836.028 6.918 6.918 0 0 0-13.836-.028ZM310.883 330.683c.163-.154 16.923-15.699 36.638-10.381 20.161 5.439 36.807 35.805 36.971 36.113l5.605-3.029c-.728-1.348-18.089-33.087-40.917-39.233-23.217-6.262-41.9 11.169-42.685 11.915l4.388 4.615Z" fill="#E0AF7F"/><path opacity=".4" d="M310.883 330.683c.163-.154 16.923-15.699 36.638-10.381 20.161 5.439 36.807 35.805 36.971 36.113l5.605-3.029c-.728-1.348-18.089-33.087-40.917-39.233-23.217-6.262-41.9 11.169-42.685 11.915l4.388 4.615Z" fill="#fff"/><path d="m377.063 386.984 12.073-6.374c-1.159-2.193-2.586-5.965-2.793-9.37-.268-4.412 1.483-5.964 3.414-6.985 4.23-2.234 6.755-1.348 8.479-.332 2.419 1.428 4.879 4.35 6.926 8.228l12.073-6.374c-3.304-6.258-7.361-10.837-12.06-13.611-4.687-2.763-12.272-5.008-21.791.016-7.421 3.918-11.209 10.98-10.666 19.886.425 7.01 3.434 13.189 4.345 14.916Z" fill="#E0AF7F"/><path d="M313.427 309.412c2.617-1.808 5.295-3.511 7.984-5.198 2.681-1.698 5.407-3.321 8.133-4.944 2.74-1.599 5.481-3.197 8.265-4.721l4.179-2.281c1.413-.726 2.807-1.484 4.238-2.181-1.302.914-2.641 1.765-3.961 2.65l-4.021 2.549c-2.682 1.698-5.407 3.321-8.134 4.941-2.741 1.599-5.481 3.196-8.266 4.719-2.779 1.535-5.567 3.053-8.417 4.466ZM306.494 335.46c3.748 2.135 7.298 4.545 10.802 7.022 3.485 2.504 6.92 5.077 10.157 7.926-3.749-2.133-7.3-4.543-10.803-7.021-3.482-2.506-6.917-5.08-10.156-7.927ZM312.648 332.255c2.892.878 5.739 1.871 8.579 2.881 2.845.997 5.659 2.077 8.472 3.156 2.804 1.105 5.607 2.211 8.378 3.398l4.157 1.783c1.37.632 2.755 1.229 4.113 1.893-1.449-.428-2.874-.925-4.311-1.384l-4.269-1.494c-2.845-.999-5.658-2.077-8.471-3.159-2.803-1.106-5.607-2.212-8.377-3.4-2.776-1.174-5.545-2.367-8.271-3.674ZM320.864 311.856c2.772-.721 5.563-1.321 8.36-1.903 2.792-.594 5.602-1.102 8.41-1.61 2.813-.482 5.627-.962 8.456-1.357l4.243-.589c1.421-.156 2.836-.35 4.264-.472-1.383.372-2.779.672-4.17 1.009l-4.189.894c-2.794.594-5.603 1.102-8.411 1.609-2.814.481-5.627.96-8.457 1.354-2.825.408-5.655.796-8.506 1.065Z" fill="#263238"/><path d="M254.068 347.844a29.93 29.93 0 0 1 2.203-6.54c.978-2.09 2.176-4.095 3.679-5.877 1.507-1.763 3.361-3.318 5.593-4.179 2.232-.831 4.786-.825 7.025.069 2.265.883 4.052 2.786 5.015 4.975.499 1.093.812 2.265.941 3.464.113 1.196.065 2.442-.412 3.636-.241.588-.622 1.181-1.23 1.576-.293.205-.653.322-1.006.377-.347.05-.703.034-1.109-.106-.744-.317-1.118-.916-1.438-1.456a8.422 8.422 0 0 1-.656-1.715c-.626-2.323-.689-4.687-.579-7.023.331-4.654 1.554-9.309 4.062-13.314 1.265-1.979 2.854-3.801 4.826-5.133 1.948-1.34 4.229-2.263 6.557-2.53 1.146-.277 2.329-.251 3.499-.308.587-.062 1.169.079 1.753.11.58.077 1.174.067 1.739.235 2.313.415 4.487 1.343 6.517 2.467 2.018 1.163 3.816 2.657 5.457 4.277 1.626 1.638 3.105 3.429 4.294 5.4-2.632-3.757-6.022-7.018-10.018-9.202-2.011-1.045-4.136-1.904-6.375-2.251-.546-.152-1.12-.126-1.678-.188-.563-.017-1.122-.145-1.686-.069-1.123.082-2.254.077-3.35.372-2.244.316-4.326 1.219-6.158 2.477-1.841 1.26-3.327 2.988-4.519 4.881-2.363 3.828-3.52 8.349-3.809 12.842-.126 2.245-.069 4.54.492 6.673.267 1.019.75 2.168 1.451 2.49.09.009.15.057.26.06.109-.009.225.016.329-.011.21-.035.416-.091.594-.218.366-.23.655-.637.85-1.105.39-.946.462-2.068.364-3.149a10.285 10.285 0 0 0-.837-3.169c-.881-2.001-2.443-3.732-4.466-4.58-2.013-.855-4.369-.924-6.459-.197-2.099.753-3.912 2.2-5.424 3.878-3.032 3.395-5.077 7.643-6.291 12.061ZM151.21 376.691c1.074-2.025 2.654-3.777 4.498-5.162 1.842-1.384 3.957-2.458 6.234-2.985 2.264-.542 4.696-.551 6.961.137 2.266.678 4.308 2.007 5.942 3.7 1.645 1.692 2.874 3.747 3.72 5.932.829 2.189 1.327 4.535 1.151 6.933-.119 1.18-.359 2.455-1.292 3.475a2.694 2.694 0 0 1-1.875.844c-.67-.006-1.303-.105-1.918-.434a3.147 3.147 0 0 1-1.38-1.469c-.284-.607-.39-1.249-.419-1.87-.044-1.247.225-2.431.591-3.558.747-2.256 1.974-4.288 3.408-6.131a24.748 24.748 0 0 1 5.039-4.843c3.771-2.738 8.575-4.26 13.262-3.646 2.313.312 4.608.98 6.633 2.16 2.042 1.141 3.813 2.725 5.257 4.535 1.443 1.818 2.567 3.86 3.433 5.989.866 2.129 1.505 4.352 1.819 6.62-.935-4.46-2.77-8.792-5.692-12.249-1.447-1.728-3.191-3.211-5.17-4.256-1.963-1.083-4.164-1.665-6.381-1.913-4.452-.485-8.969.936-12.561 3.593-3.588 2.639-6.523 6.322-8.007 10.489-.349 1.038-.593 2.125-.561 3.171.025 1.038.39 2.036 1.223 2.457.392.226.925.314 1.392.321a1.656 1.656 0 0 0 1.173-.524c.65-.678.928-1.787 1.027-2.851.175-2.175-.275-4.424-1.053-6.503-.788-2.083-1.959-4.027-3.473-5.653-1.51-1.624-3.413-2.891-5.519-3.58-2.103-.7-4.408-.758-6.598-.294-4.385.935-8.445 3.676-10.864 7.565ZM99.712 107.876c-.125-4.58-1.097-9.192-3.229-13.21-1.067-1.99-2.483-3.83-4.342-5.062-1.856-1.204-4.16-1.7-6.318-1.35-2.167.34-4.096 1.649-5.43 3.382a10.255 10.255 0 0 0-1.57 2.877c-.353 1.027-.552 2.133-.398 3.145.077.5.26.964.561 1.274.141.165.328.27.524.354.095.05.214.055.318.09.106.023.175-.01.266.003.758-.145 1.501-1.146 2.004-2.072 1.053-1.937 1.658-4.153 2.07-6.362.792-4.432.748-9.099-.634-13.381-.706-2.123-1.736-4.157-3.223-5.818-1.48-1.659-3.285-3.033-5.389-3.875-.994-.548-2.094-.812-3.165-1.161-.528-.207-1.103-.216-1.653-.335-.557-.073-1.107-.235-1.675-.219-2.256-.197-4.525.13-6.727.665-4.403 1.168-8.472 3.525-11.925 6.545 1.625-1.63 3.488-3.017 5.458-4.22 1.98-1.182 4.082-2.203 6.32-2.852 2.238-.606 4.572-.989 6.917-.84.588-.029 1.162.124 1.744.187.574.11 1.174.11 1.728.31 1.123.336 2.279.592 3.324 1.135 2.198.815 4.192 2.255 5.764 4.022 1.598 1.763 2.705 3.912 3.462 6.135 1.48 4.488 1.555 9.3.766 13.899-.45 2.295-1.077 4.575-2.238 6.682a8.509 8.509 0 0 1-1.047 1.51c-.44.447-.945.94-1.743 1.07a2.277 2.277 0 0 1-1.102-.163c-.33-.136-.651-.336-.887-.605-.496-.529-.724-1.196-.819-1.823-.178-1.274.073-2.494.468-3.63.41-1.135.995-2.198 1.74-3.14 1.458-1.894 3.647-3.316 6.057-3.634 2.388-.334 4.87.27 6.84 1.611 1.962 1.368 3.391 3.322 4.434 5.393 1.034 2.09 1.718 4.322 2.17 6.585.45 2.268.66 4.58.58 6.878ZM345.509 165.941c-4.484-.946-9.196-1.077-13.6.058-2.184.574-4.303 1.522-5.935 3.041-1.604 1.523-2.624 3.649-2.788 5.829-.174 2.188.647 4.368 2.022 6.069a10.23 10.23 0 0 0 2.431 2.197c.915.584 1.945 1.036 2.965 1.122.504.042.999-.028 1.37-.248.194-.099.339-.256.467-.427.071-.08.103-.195.161-.287.047-.098.031-.174.066-.258.037-.771-.764-1.726-1.546-2.432-1.638-1.476-3.652-2.58-5.705-3.497-4.124-1.803-8.674-2.85-13.159-2.506-2.229.192-4.447.719-6.411 1.777-1.958 1.052-3.714 2.486-5.024 4.335-.765.839-1.278 1.847-1.867 2.807-.325.466-.468 1.021-.711 1.529-.202.525-.488 1.022-.603 1.578-.718 2.148-.93 4.431-.924 6.697.108 4.553 1.452 9.061 3.582 13.124-1.206-1.961-2.12-4.097-2.829-6.293-.687-2.202-1.19-4.483-1.298-6.811-.067-2.319.105-4.677.797-6.923.109-.578.391-1.102.589-1.653.24-.533.382-1.116.706-1.608.587-1.013 1.106-2.077 1.879-2.968 1.305-1.946 3.171-3.549 5.255-4.666 2.088-1.143 4.435-1.717 6.774-1.934 4.709-.391 9.407.657 13.694 2.497 2.127.973 4.197 2.114 5.975 3.736.446.4.856.859 1.223 1.371.333.533.694 1.139.635 1.945a2.31 2.31 0 0 1-.414 1.034c-.211.288-.479.555-.796.721-.629.359-1.332.425-1.965.371-1.28-.124-2.408-.652-3.419-1.302a11.22 11.22 0 0 1-2.647-2.426c-1.503-1.859-2.375-4.32-2.121-6.736.233-2.399 1.399-4.673 3.161-6.275 1.788-1.588 4.021-2.522 6.279-3.053 2.273-.518 4.604-.663 6.911-.574a29.74 29.74 0 0 1 6.82 1.039ZM276.595 93.923c-.761-2.637-.864-5.458-.435-8.181.426-2.724 1.349-5.404 2.856-7.75 1.485-2.35 3.557-4.38 6.062-5.675 2.499-1.304 5.347-1.87 8.15-1.785 2.811.077 5.574.804 8.116 1.965 2.533 1.176 4.913 2.766 6.755 4.952.879 1.1 1.726 2.384 1.777 3.996a3.12 3.12 0 0 1-.871 2.223c-.566.54-1.183.98-1.961 1.206-.766.235-1.618.178-2.347-.1-.733-.277-1.351-.73-1.887-1.23-1.067-1.018-1.823-2.25-2.447-3.514-1.24-2.543-1.893-5.302-2.207-8.069a29.538 29.538 0 0 1 .255-8.338c.931-5.486 3.759-10.783 8.261-14.176 2.232-1.666 4.744-3.015 7.456-3.702 2.693-.736 5.527-.866 8.274-.531 2.753.34 5.425 1.139 7.95 2.228 2.526 1.091 4.937 2.452 7.113 4.121-4.521-3.059-9.718-5.25-15.125-5.784-2.69-.273-5.435-.09-8.018.67-2.599.713-4.984 2.059-7.101 3.704-2.093 1.675-3.873 3.736-5.175 6.079-1.313 2.337-2.17 4.92-2.623 7.568-.867 5.285-.307 10.914 1.926 15.753.575 1.19 1.28 2.333 2.199 3.216.902.88 2.092 1.455 3.206 1.103.548-.144 1.087-.52 1.507-.919.394-.405.599-.927.594-1.502-.015-1.17-.719-2.361-1.532-3.364-1.686-2.026-3.965-3.579-6.383-4.712-2.431-1.128-5.073-1.817-7.744-1.938-2.667-.123-5.372.39-7.764 1.576-2.397 1.173-4.425 3.067-5.913 5.308-2.972 4.487-4.136 10.251-2.924 15.602Z" fill="#1F4779"/><path d="M147.489 376.934a4.733 4.733 0 1 0-2.848 9.028 4.733 4.733 0 0 0 2.848-9.028Zm2.54 5.763a4.154 4.154 0 0 1-5.213 2.717 4.153 4.153 0 0 1-2.714-5.213 4.154 4.154 0 0 1 5.214-2.714 4.153 4.153 0 0 1 2.713 5.21Zm-2.54-5.763a4.733 4.733 0 1 0-2.848 9.028 4.733 4.733 0 0 0 2.848-9.028Zm2.54 5.763a4.154 4.154 0 0 1-5.213 2.717 4.153 4.153 0 0 1-2.714-5.213 4.154 4.154 0 0 1 5.214-2.714 4.153 4.153 0 0 1 2.713 5.21Zm-2.54-5.763a4.733 4.733 0 1 0-2.848 9.028 4.733 4.733 0 0 0 2.848-9.028Zm2.54 5.763a4.154 4.154 0 0 1-5.213 2.717 4.153 4.153 0 0 1-2.714-5.213 4.154 4.154 0 0 1 5.214-2.714 4.153 4.153 0 0 1 2.713 5.21Zm-.963-10.764c-5.26-1.656-10.86 1.266-12.516 6.518-1.655 5.254 1.261 10.858 6.517 12.513 5.252 1.655 10.856-1.263 12.512-6.518 1.657-5.252-1.26-10.858-6.513-12.513Zm2.215 11.158a5.474 5.474 0 0 1-6.858 3.576 5.475 5.475 0 0 1-3.572-6.86 5.474 5.474 0 0 1 6.86-3.572 5.472 5.472 0 0 1 3.57 6.856Zm-.704-.22a4.732 4.732 0 1 0-9.026-2.846 4.733 4.733 0 1 0 9.026 2.846Zm-.548-.174a4.154 4.154 0 0 1-5.213 2.717 4.153 4.153 0 0 1-2.714-5.213 4.154 4.154 0 0 1 5.214-2.714 4.153 4.153 0 0 1 2.713 5.21Zm-2.54-5.763a4.733 4.733 0 1 0-2.848 9.028 4.733 4.733 0 0 0 2.848-9.028Zm2.54 5.763a4.154 4.154 0 0 1-5.213 2.717 4.153 4.153 0 0 1-2.714-5.213 4.154 4.154 0 0 1 5.214-2.714 4.153 4.153 0 0 1 2.713 5.21Zm-2.54-5.763a4.733 4.733 0 1 0-2.848 9.028 4.733 4.733 0 0 0 2.848-9.028Zm2.54 5.763a4.154 4.154 0 0 1-5.213 2.717 4.153 4.153 0 0 1-2.714-5.213 4.154 4.154 0 0 1 5.214-2.714 4.153 4.153 0 0 1 2.713 5.21Z" fill="#455A64"/><path d="m145.021 391.144-3.659-1.153-.613 2.654 3.253 1.025 1.019-2.526ZM138.446 387.717l-1.773-3.402-2.309 1.443 1.575 3.026 2.507-1.067ZM136.219 380.645l1.153-3.658-2.653-.615-1.025 3.255 2.525 1.018ZM139.646 374.069l3.402-1.771-1.442-2.311-3.026 1.577 1.066 2.505ZM146.718 371.844l3.659 1.152.615-2.653-3.255-1.026-1.019 2.527ZM153.293 375.27l1.773 3.403 2.31-1.442-1.576-3.027-2.507 1.066ZM155.521 382.344l-1.153 3.659 2.653.613 1.026-3.254-2.526-1.018ZM152.093 388.918l-3.402 1.772 1.442 2.31 3.027-1.575-1.067-2.507Z" fill="#455A64"/><path d="M332.044 345.13c5.018-6.762 3.605-16.312-3.157-21.33-6.763-5.019-16.315-3.606-21.331 3.154-5.02 6.764-3.606 16.316 3.157 21.335 6.76 5.018 16.312 3.604 21.331-3.159Zm-6.526-4.844a7.118 7.118 0 0 1-9.961 1.477 7.12 7.12 0 0 1-1.475-9.964 7.12 7.12 0 0 1 9.962-1.473 7.12 7.12 0 0 1 1.474 9.96Z" fill="#1F4779"/><path d="m313.443 349.526-4.708-3.494-2.213 3.527 4.187 3.107 2.734-3.14ZM305.659 341.289l-.859-5.801-4.059.929.764 5.159 4.154-.287ZM305.978 329.96l3.496-4.709-3.527-2.214-3.108 4.189 3.139 2.734ZM314.216 322.174l5.801-.858-.928-4.058-5.16.763.287 4.153ZM325.546 322.495l4.708 3.494 2.213-3.526-4.187-3.109-2.734 3.141ZM333.33 330.732l.859 5.801 4.058-.929-.764-5.158-4.153.286ZM333.011 342.062l-3.496 4.708 3.527 2.214 3.108-4.189-3.139-2.733ZM324.772 349.847l-5.8.858.928 4.058 5.159-.763-.287-4.153ZM314.338 336.774l3.239 4.085 5.158-.766 1.915-4.845-3.236-4.083-5.158.761-1.918 4.848Zm6.14-2.09a1.652 1.652 0 1 1-1.969 2.654 1.652 1.652 0 0 1 1.969-2.654ZM343.475 48.205a4.143 4.143 0 1 0-2.489 7.901 4.138 4.138 0 0 0 5.192-2.706 4.141 4.141 0 0 0-2.703-5.195Zm2.223 5.043a3.636 3.636 0 1 1-6.937-2.185 3.637 3.637 0 0 1 6.937 2.185Zm-2.223-5.043a4.143 4.143 0 1 0-2.489 7.901 4.138 4.138 0 0 0 5.192-2.706 4.141 4.141 0 0 0-2.703-5.195Zm2.223 5.043a3.636 3.636 0 1 1-6.937-2.185 3.637 3.637 0 0 1 6.937 2.185Zm-2.223-5.043a4.143 4.143 0 1 0-2.489 7.901 4.138 4.138 0 0 0 5.192-2.706 4.141 4.141 0 0 0-2.703-5.195Zm2.223 5.043a3.636 3.636 0 1 1-6.937-2.185 3.637 3.637 0 0 1 6.937 2.185Zm-.843-9.418a8.73 8.73 0 1 0 5.7 10.949 8.728 8.728 0 0 0-5.7-10.95Zm1.94 9.763a4.79 4.79 0 0 1-6.002 3.128 4.79 4.79 0 0 1-3.126-6.003 4.79 4.79 0 0 1 6.003-3.126 4.792 4.792 0 0 1 3.125 6Zm-.616-.193a4.14 4.14 0 1 0-7.899-2.49 4.142 4.142 0 1 0 7.899 2.49Zm-.481-.152a3.636 3.636 0 1 1-6.937-2.185 3.637 3.637 0 0 1 6.937 2.185Zm-2.223-5.043a4.143 4.143 0 1 0-2.489 7.901 4.138 4.138 0 0 0 5.192-2.706 4.141 4.141 0 0 0-2.703-5.195Zm2.223 5.043a3.636 3.636 0 1 1-6.937-2.185 3.637 3.637 0 0 1 6.937 2.185Zm-2.223-5.043a4.143 4.143 0 1 0-2.489 7.901 4.138 4.138 0 0 0 5.192-2.706 4.141 4.141 0 0 0-2.703-5.195Zm2.223 5.043a3.636 3.636 0 1 1-6.937-2.185 3.637 3.637 0 0 1 6.937 2.185Z" fill="#1F4779"/><path d="m341.316 60.641-3.202-1.01-.536 2.323 2.847.897.891-2.21ZM335.562 57.643l-1.551-2.978-2.021 1.262 1.379 2.648 2.193-.932ZM333.614 51.453l1.01-3.202-2.322-.537-.897 2.847 2.209.892ZM336.613 45.7l2.977-1.55-1.262-2.022-2.648 1.38.933 2.192ZM342.802 43.752l3.201 1.008.538-2.322-2.848-.897-.891 2.21ZM348.555 46.75l1.551 2.977 2.021-1.263-1.379-2.647-2.193.933ZM350.503 52.94l-1.008 3.2 2.322.537.897-2.847-2.211-.89ZM347.505 58.693l-2.977 1.55 1.261 2.022 2.648-1.379-.932-2.193ZM300.937 207.232a4.143 4.143 0 1 0-2.489 7.901 4.142 4.142 0 0 0 2.489-7.901Zm2.222 5.043a3.636 3.636 0 1 1-6.936-2.185 3.636 3.636 0 1 1 6.936 2.185Zm-2.222-5.043a4.143 4.143 0 1 0-2.489 7.901 4.142 4.142 0 0 0 2.489-7.901Zm2.222 5.043a3.636 3.636 0 1 1-6.936-2.185 3.636 3.636 0 1 1 6.936 2.185Zm-2.222-5.043a4.143 4.143 0 1 0-2.489 7.901 4.142 4.142 0 0 0 2.489-7.901Zm2.222 5.043a3.636 3.636 0 1 1-6.936-2.185 3.636 3.636 0 1 1 6.936 2.185Zm-.842-9.419a8.734 8.734 0 0 0-10.952 5.702 8.73 8.73 0 1 0 10.952-5.702Zm1.938 9.763a4.79 4.79 0 0 1-6.002 3.128 4.791 4.791 0 0 1-3.125-6.003 4.79 4.79 0 0 1 6.003-3.126 4.791 4.791 0 0 1 3.124 6.001Zm-.615-.191a4.14 4.14 0 1 0-7.899-2.49 4.141 4.141 0 1 0 7.899 2.49Zm-.481-.153a3.636 3.636 0 1 1-6.936-2.185 3.636 3.636 0 1 1 6.936 2.185Zm-2.222-5.043a4.143 4.143 0 1 0-2.489 7.901 4.142 4.142 0 0 0 2.489-7.901Zm2.222 5.043a3.636 3.636 0 1 1-6.936-2.185 3.636 3.636 0 1 1 6.936 2.185Zm-2.222-5.043a4.143 4.143 0 1 0-2.489 7.901 4.142 4.142 0 0 0 2.489-7.901Zm2.222 5.043a3.636 3.636 0 1 1-6.936-2.185 3.636 3.636 0 1 1 6.936 2.185Z" fill="#1F4779"/><path d="m298.776 219.668-3.201-1.01-.536 2.322 2.847.897.89-2.209ZM293.023 216.669l-1.55-2.978-2.022 1.263 1.379 2.648 2.193-.933ZM291.075 210.48l1.009-3.201-2.322-.538-.897 2.848 2.21.891ZM294.074 204.726l2.977-1.55-1.262-2.022-2.648 1.379.933 2.193ZM300.262 202.778l3.202 1.009.537-2.322-2.847-.898-.892 2.211ZM306.016 205.777l1.551 2.976 2.021-1.262-1.379-2.647-2.193.933ZM307.964 211.966l-1.008 3.201 2.322.537.897-2.848-2.211-.89ZM304.965 217.72l-2.976 1.55 1.261 2.022 2.648-1.379-.933-2.193ZM57.49 82.036c1.716-7.044-2.604-14.147-9.648-15.863-7.046-1.716-14.15 2.604-15.865 9.647-1.717 7.047 2.603 14.15 9.65 15.867 7.043 1.715 14.146-2.605 15.862-9.65Zm-6.8-1.656a6.13 6.13 0 0 1-7.407 4.507 6.13 6.13 0 0 1-4.507-7.41 6.13 6.13 0 0 1 7.41-4.504 6.129 6.129 0 0 1 4.505 7.407Z" fill="#1F4779"/><path d="m44.206 91.754-4.905-1.195-.574 3.538 4.362 1.063 1.117-3.406ZM35.273 87.826l-2.624-4.313-2.909 2.096 2.334 3.836 3.199-1.619ZM31.732 78.732l1.195-4.906-3.538-.574-1.063 4.362 3.406 1.118ZM35.66 69.798l4.313-2.624-2.095-2.908-3.837 2.333 1.619 3.199ZM44.754 66.257l4.906 1.195.575-3.538-4.363-1.063-1.118 3.406ZM53.688 70.185l2.624 4.313 2.908-2.095-2.333-3.837-3.199 1.619ZM57.23 79.28l-1.196 4.905 3.538.575 1.063-4.363-3.406-1.118ZM53.3 88.213l-4.313 2.624 2.097 2.908 3.836-2.333-1.62-3.2ZM40.646 81.338l3.937 2.157 3.835-2.336-.104-4.485-3.935-2.155-3.837 2.331.104 4.489Zm4.17-3.715a1.42 1.42 0 0 1 1.046 1.72 1.422 1.422 0 1 1-2.765-.675 1.424 1.424 0 0 1 1.72-1.045Z" fill="#1F4779"/></g><defs><clipPath id="a"><path fill="#fff" d="M0 0h460v457.395H0z"/></clipPath></defs></svg>