<svg width="460" height="458" viewBox="0 0 460 458" fill="none" xmlns="http://www.w3.org/2000/svg">
<path d="M125.6 183V161.58H73.4V138.54L130.64 56.1H157.1V136.92H173.66V161.58H157.1V183H125.6ZM125.6 136.92V95.34H130.28L96.62 144.48V136.92H125.6ZM229.93 184.98C214.33 184.98 202.33 179.28 193.93 167.88C185.65 156.36 181.51 140.1 181.51 119.1C181.51 97.86 185.65 81.72 193.93 70.68C202.33 59.64 214.33 54.12 229.93 54.12C245.65 54.12 257.65 59.64 265.93 70.68C274.21 81.72 278.35 97.8 278.35 118.92C278.35 140.04 274.15 156.36 265.75 167.88C257.47 179.28 245.53 184.98 229.93 184.98ZM229.93 158.52C235.69 158.52 239.95 155.4 242.71 149.16C245.59 142.92 247.03 132.9 247.03 119.1C247.03 105.18 245.59 95.28 242.71 89.4C239.95 83.4 235.69 80.4 229.93 80.4C224.17 80.4 219.85 83.4 216.97 89.4C214.21 95.28 212.83 105.12 212.83 118.92C212.83 132.84 214.21 142.92 216.97 149.16C219.85 155.4 224.17 158.52 229.93 158.52ZM341.459 183V161.58H289.259V138.54L346.499 56.1H372.959V136.92H389.519V161.58H372.959V183H341.459ZM341.459 136.92V95.34H346.139L312.479 144.48V136.92H341.459Z" fill="white"/>
<g clip-path="url(#clip0_1312_227)">
<path d="M54.8358 286.172L38.3249 286.483L29.9598 286.607C27.1659 286.66 24.3586 286.65 21.5568 286.669L21.0626 286.672L21.0604 286.172L21.0003 272.11L20.998 271.551L21.5568 271.554L38.1958 271.624C43.7425 271.629 49.288 271.748 54.8347 271.806L55.1408 271.81L55.1386 272.11C55.1175 274.491 55.0429 276.861 54.9928 279.206L54.8358 286.172ZM54.8358 286.172L54.6778 279.076C54.6277 276.735 54.5531 274.416 54.532 272.11L54.8358 272.414C49.2892 272.471 43.7436 272.591 38.1969 272.596L21.5579 272.667L22.1134 272.111L22.0533 286.173L21.5568 285.677C24.3018 285.697 27.0412 285.686 29.7939 285.738L38.0678 285.863L54.8358 286.172Z" fill="#EBEBEB"/>
<path d="M36.2711 303.904L19.7602 304.215L11.3951 304.339C8.60113 304.392 5.79384 304.382 2.99211 304.401L2.49788 304.404L2.49566 303.904L2.43777 289.842L2.43555 289.283L2.99433 289.285L19.6333 289.356C25.18 289.361 30.7255 289.48 36.2722 289.538L36.5783 289.541L36.5761 289.842C36.555 292.223 36.4804 294.593 36.4303 296.938L36.2711 303.904ZM36.2711 303.904L36.1131 296.808C36.063 294.467 35.9884 292.148 35.9672 289.842L36.2711 290.146C30.7244 290.203 25.1789 290.323 19.6322 290.328L2.99322 290.399L3.54867 289.843L3.48967 303.904L2.99322 303.408C5.73929 303.428 8.47757 303.417 11.2303 303.469L19.5042 303.594L36.2711 303.904Z" fill="#EBEBEB"/>
<path d="M36.271 -0.379139L19.7601 -0.0685787L11.395 0.0560923C8.60102 0.108409 5.79373 0.0972757 2.992 0.117312L2.49777 0.120652L2.49555 -0.379139L2.43767 -14.4423L2.43433 -15L2.99311 -14.9978L19.6321 -14.9276C25.1788 -14.9221 30.7243 -14.803 36.271 -14.7451L36.5771 -14.7418L36.5749 -14.4412C36.5537 -12.0602 36.4792 -9.69041 36.4291 -7.34506L36.271 -0.379139ZM36.271 -0.379139L36.113 -7.47529C36.0629 -9.81619 35.9883 -12.1348 35.9671 -14.4412L36.271 -14.1373C30.7254 -14.0817 25.1788 -13.9615 19.6321 -13.9559L2.99311 -13.8858L3.54856 -14.4412L3.48957 -0.380252L2.99311 -0.876705C5.73919 -0.856669 8.47747 -0.8678 11.2302 -0.815483L19.5041 -0.690814L36.271 -0.379139Z" fill="#EBEBEB"/>
<path d="M457.007 -0.379139L440.496 -0.0685787L432.131 0.0560923C429.337 0.108409 426.529 0.0972757 423.728 0.117312L423.233 0.120652L423.231 -0.379139L423.171 -14.4412L423.169 -15L423.728 -14.9978L440.367 -14.9276C445.913 -14.9221 451.459 -14.803 457.006 -14.7451L457.312 -14.7418L457.31 -14.4412C457.288 -12.0602 457.214 -9.69041 457.164 -7.34506L457.007 -0.379139ZM457.007 -0.379139L456.849 -7.47529C456.799 -9.81619 456.724 -12.1348 456.703 -14.4412L457.007 -14.1373C451.46 -14.0806 445.913 -13.9603 440.368 -13.9548L423.729 -13.8847L424.284 -14.4401L424.224 -0.378027L423.728 -0.874478C426.473 -0.854443 429.212 -0.865573 431.965 -0.813256L440.239 -0.688587L457.007 -0.379139Z" fill="#EBEBEB"/>
<path d="M438.443 17.3523L421.932 17.6629L413.567 17.7875C410.773 17.8399 407.966 17.8287 405.164 17.8488L404.67 17.8521L404.668 17.3523L404.608 3.29023L404.605 2.73145L405.164 2.73367L421.803 2.8038C427.35 2.80936 432.895 2.92847 438.442 2.98635L438.748 2.98969L438.746 3.29023C438.725 5.6712 438.65 8.04104 438.6 10.3864L438.443 17.3523ZM438.443 17.3523L438.285 10.2562C438.235 7.91526 438.161 5.59662 438.139 3.29023L438.443 3.59411C432.897 3.65088 427.351 3.7711 421.804 3.77667L405.165 3.84679L405.721 3.29134L405.661 17.3534L405.164 16.857C407.909 16.8759 410.649 16.8659 413.401 16.9182L421.675 17.0429L438.443 17.3523Z" fill="#EBEBEB"/>
<path d="M353.214 181.865L336.703 182.176L328.338 182.3C325.544 182.353 322.736 182.341 319.935 182.361L319.441 182.365L319.438 181.865L319.378 167.803L319.376 167.244L319.935 167.246L336.574 167.316C342.12 167.322 347.666 167.442 353.213 167.499L353.519 167.502L353.517 167.803C353.495 170.184 353.421 172.554 353.371 174.899L353.214 181.865ZM353.214 181.865L353.056 174.769C353.006 172.427 352.931 170.109 352.91 167.803L353.214 168.107C347.667 168.164 342.12 168.284 336.575 168.289L319.936 168.359L320.491 167.804L320.431 181.866L319.935 181.371C322.68 181.391 325.419 181.38 328.172 181.432L336.446 181.557L353.214 181.865Z" fill="#EBEBEB"/>
<path d="M334.65 199.596L318.139 199.907L309.774 200.032C306.98 200.084 304.173 200.073 301.371 200.093L300.877 200.096L300.875 199.596L300.814 185.534L300.812 184.976L301.371 184.978L318.01 185.048C323.557 185.054 329.102 185.174 334.649 185.23L334.955 185.234L334.953 185.534C334.932 187.915 334.857 190.285 334.807 192.631L334.65 199.596ZM334.65 199.596L334.492 192.5C334.442 190.159 334.367 187.841 334.346 185.534L334.65 185.838C329.103 185.895 323.558 186.015 318.011 186.021L301.372 186.091L301.928 185.535L301.867 199.598L301.371 199.101C304.116 199.121 306.855 199.11 309.608 199.162L317.882 199.287L334.65 199.596Z" fill="#EBEBEB"/>
<path d="M316.159 181.865L299.648 182.176L291.283 182.3C288.489 182.353 285.682 182.341 282.88 182.361L282.386 182.365L282.384 181.865L282.324 167.803L282.321 167.244L282.88 167.246L299.519 167.316C305.066 167.322 310.611 167.442 316.158 167.499L316.464 167.502L316.462 167.803C316.441 170.184 316.366 172.554 316.316 174.899L316.159 181.865ZM316.159 181.865L316.001 174.769C315.951 172.427 315.876 170.109 315.855 167.803L316.159 168.107C310.612 168.164 305.066 168.284 299.52 168.289L282.881 168.359L283.437 167.804L283.377 181.866L282.88 181.371C285.626 181.391 288.364 181.38 291.117 181.432L299.391 181.557L316.159 181.865Z" fill="#EBEBEB"/>
<path d="M457.007 303.904L440.496 304.215L432.131 304.339C429.337 304.392 426.529 304.382 423.728 304.401L423.233 304.404L423.231 303.904L423.171 289.842L423.169 289.283L423.728 289.285L440.367 289.356C445.913 289.361 451.46 289.48 457.006 289.538L457.312 289.541L457.31 289.842C457.288 292.223 457.214 294.593 457.164 296.938L457.007 303.904ZM457.007 303.904L456.849 296.808C456.799 294.467 456.724 292.148 456.703 289.842L457.007 290.146C451.46 290.203 445.914 290.323 440.368 290.328L423.729 290.399L424.284 289.843L424.224 303.905L423.728 303.409C426.473 303.429 429.212 303.418 431.965 303.47L440.239 303.595L457.007 303.904Z" fill="#EBEBEB"/>
<path d="M174.262 41.4378L157.751 41.7483L149.386 41.873C146.592 41.9253 143.784 41.9153 140.983 41.9342L140.488 41.9375L140.486 41.4378L140.426 27.3757L140.424 26.8169L140.983 26.8191L157.622 26.8892C163.168 26.8948 168.714 27.0139 174.261 27.0718L174.567 27.0751L174.564 27.3757C174.543 29.7566 174.469 32.1265 174.419 34.4718L174.262 41.4378ZM174.262 41.4378L174.104 34.3416C174.053 32.0007 173.979 29.6821 173.958 27.3757L174.262 27.6796C168.715 27.7363 163.169 27.8565 157.623 27.8621L140.984 27.9322L141.539 27.3768L141.479 41.4389L140.983 40.9424C143.728 40.9625 146.467 40.9513 149.22 41.0036L157.494 41.1283L174.262 41.4378Z" fill="#EBEBEB"/>
<path d="M422.821 153.252L429.373 142.687L426.138 140.684C425.186 140.094 424.671 139.018 424.766 137.903C424.819 137.286 424.839 136.666 424.825 136.044C424.801 134.928 425.384 133.889 426.368 133.361L429.722 131.563L423.845 120.604L420.492 122.403C419.508 122.93 418.32 122.841 417.404 122.204C416.893 121.848 416.366 121.521 415.823 121.224C414.842 120.686 414.231 119.661 414.266 118.542L414.386 114.738L401.961 114.352L401.846 118.17C401.813 119.289 401.126 120.263 400.114 120.742C399.839 120.872 399.566 121.009 399.297 121.154C399.026 121.299 398.762 121.45 398.502 121.607C397.548 122.183 396.363 122.217 395.415 121.63L392.156 119.611L385.603 130.176L388.845 132.187C389.795 132.778 390.311 133.855 390.214 134.97C390.16 135.583 390.14 136.202 390.153 136.821C390.176 137.936 389.593 138.974 388.61 139.5L385.255 141.299L391.132 152.258L394.487 150.459C395.47 149.933 396.657 150.02 397.573 150.656C398.081 151.009 398.608 151.334 399.149 151.629C400.132 152.165 400.744 153.191 400.709 154.309L400.593 158.122L413.018 158.508L413.136 154.693C413.171 153.578 413.855 152.607 414.865 152.131C415.141 152.001 415.416 151.862 415.689 151.716C415.959 151.571 416.224 151.42 416.485 151.263C417.444 150.684 418.634 150.65 419.587 151.242L422.821 153.252ZM412.3 145.407C407.345 148.065 401.178 146.202 398.52 141.247C395.862 136.291 397.719 130.116 402.675 127.457C407.631 124.799 413.811 126.665 416.469 131.621C419.126 136.577 417.256 142.748 412.3 145.407Z" fill="#EBEBEB"/>
<path d="M64.7347 272.956L71.2877 262.391L68.0518 260.386C67.1001 259.796 66.5847 258.721 66.6805 257.606C66.7339 256.989 66.7528 256.369 66.7395 255.747C66.715 254.63 67.2982 253.592 68.2822 253.064L71.6361 251.265L65.7588 240.306L62.4061 242.104C61.4221 242.632 60.2344 242.543 59.3183 241.905C58.8074 241.55 58.2797 241.223 57.7376 240.926C56.7559 240.388 56.1448 239.363 56.1804 238.244L56.3006 234.439L43.8748 234.053L43.7602 237.871C43.7268 238.991 43.04 239.965 42.0282 240.444C41.7532 240.574 41.4805 240.711 41.21 240.856C40.9395 241 40.6746 241.152 40.4152 241.309C39.4613 241.885 38.2758 241.919 37.3285 241.331L34.0693 239.312L27.5164 249.876L30.7578 251.888C31.7084 252.479 32.2238 253.555 32.1269 254.67C32.0735 255.284 32.0535 255.903 32.0657 256.522C32.0891 257.637 31.5058 258.674 30.5229 259.201L27.168 261L33.0453 271.958L36.4002 270.16C37.3831 269.633 38.5697 269.721 39.4858 270.358C39.9945 270.711 40.521 271.036 41.062 271.331C42.0448 271.867 42.6571 272.892 42.6226 274.011L42.5057 277.825L54.9315 278.211L55.0495 274.396C55.084 273.281 55.7685 272.31 56.7781 271.833C57.0542 271.702 57.3291 271.563 57.6018 271.417C57.8723 271.273 58.1373 271.121 58.3977 270.964C59.3561 270.386 60.5472 270.352 61.5 270.943L64.7347 272.956ZM54.2135 265.109C49.2579 267.767 43.0912 265.905 40.433 260.95C37.7749 255.994 39.6316 249.818 44.5883 247.16C49.544 244.502 55.724 246.368 58.3821 251.323C61.0403 256.281 59.1691 262.452 54.2135 265.109Z" fill="#1F4779"/>
<path d="M192.007 70.6213L187.655 63.0777L185.346 64.4112C184.667 64.803 183.832 64.7663 183.175 64.3378C182.813 64.1007 182.436 63.8836 182.048 63.6866C181.351 63.3326 180.902 62.628 180.902 61.8466V59.1807H172.191V61.8466C172.191 62.628 171.743 63.3326 171.046 63.6866C170.657 63.8836 170.281 64.1018 169.918 64.3378C169.261 64.7652 168.427 64.8042 167.748 64.4112L165.439 63.0777L161.087 70.6213L163.405 71.9571C164.085 72.3489 164.459 73.0947 164.419 73.8783C164.408 74.0909 164.403 74.3047 164.403 74.5195C164.403 74.7343 164.408 74.948 164.419 75.1607C164.459 75.9409 164.088 76.6834 163.412 77.0741L161.087 78.4176L165.439 85.9613L167.754 84.6266C168.433 84.2348 169.269 84.2738 169.926 84.7023C170.288 84.9383 170.662 85.1554 171.049 85.3524C171.745 85.7075 172.192 86.411 172.192 87.1924V89.8594H180.904V87.1913C180.904 86.4099 181.351 85.7064 182.047 85.3513C182.433 85.1543 182.808 84.9372 183.169 84.7012C183.826 84.2716 184.66 84.2337 185.34 84.6255L187.656 85.9602L192.008 78.4165L189.692 77.0808C189.014 76.6901 188.642 75.9465 188.681 75.1651C188.692 74.9514 188.698 74.7365 188.698 74.5195C188.698 74.3047 188.692 74.0909 188.681 73.8783C188.641 73.0947 189.015 72.3478 189.695 71.956L192.007 70.6213ZM183.681 74.5195C183.681 78.4588 180.49 81.6501 176.55 81.6501C172.611 81.6501 169.413 78.4588 169.413 74.5195C169.413 70.5801 172.611 67.3821 176.55 67.3821C180.49 67.381 183.681 70.579 183.681 74.5195Z" fill="#1F4779"/>
<path d="M0 378.294L57.4994 378.023L115 377.924L230 377.738L345 377.923L402.499 378.021L460 378.294L402.499 378.566L345 378.663L230 378.849L115 378.662L57.4994 378.564L0 378.294Z" fill="#263238"/>
<path d="M252.932 282.5H213.402V285.738H252.932V282.5Z" fill="#37474F"/>
<path d="M252.932 286.718H213.402V289.956H252.932V286.718Z" fill="#37474F"/>
<path d="M252.932 290.936H213.402V294.174H252.932V290.936Z" fill="#37474F"/>
<path d="M252.932 295.154H213.402V298.392H252.932V295.154Z" fill="#37474F"/>
<path d="M252.932 299.372H213.402V302.61H252.932V299.372Z" fill="#37474F"/>
<path d="M270.043 383.514H194.89V386.752H270.043V383.514Z" fill="#37474F"/>
<path d="M270.043 387.731H194.89V390.97H270.043V387.731Z" fill="#37474F"/>
<path d="M270.043 391.95H194.89V395.188H270.043V391.95Z" fill="#37474F"/>
<path d="M270.043 396.168H194.89V399.406H270.043V396.168Z" fill="#37474F"/>
<path d="M270.043 400.385H194.89V403.623H270.043V400.385Z" fill="#37474F"/>
<path d="M161.915 255.733C161.952 255.295 145.466 249.773 145.466 249.773L146.44 193.131L168.301 188.44L161.915 255.733Z" fill="#E0AF7F"/>
<path opacity="0.2" d="M161.915 255.733C161.952 255.295 145.466 249.773 145.466 249.773L146.44 193.131L168.301 188.44L161.915 255.733Z" fill="black"/>
<path d="M312.915 277.966C313.031 277.542 330.411 278.031 330.411 278.031L348.989 224.513L330.079 212.586L312.915 277.966Z" fill="#E0AF7F"/>
<path opacity="0.2" d="M312.915 277.966C313.031 277.542 330.411 278.031 330.411 278.031L348.989 224.513L330.079 212.586L312.915 277.966Z" fill="black"/>
<path d="M158.741 276.589C158.741 276.589 164.854 184.981 170.214 154.846C170.214 154.846 280.878 163.215 340.618 186.049C340.618 186.049 309.819 293.051 308.225 298.361C308.225 298.362 230.297 283.011 158.741 276.589Z" fill="#E0AF7F"/>
<path opacity="0.1" d="M257.519 167.081C255.72 178.11 253.899 189.137 252.014 200.153L246.311 233.189L246.003 232.723L283.082 241.531L301.603 246.019L320.102 250.596L301.505 246.434L282.929 242.184L245.816 233.515L245.441 233.427L245.509 233.048L251.414 200.047C253.399 189.048 255.448 178.063 257.519 167.081Z" fill="black"/>
<path opacity="0.1" d="M253.45 173.366C253.47 174.377 252.664 175.417 251.507 175.517C250.946 175.57 250.336 175.391 249.879 174.994C249.423 174.596 249.15 173.984 249.147 173.366C249.149 172.749 249.421 172.135 249.878 171.738C250.334 171.337 250.946 171.161 251.507 171.214C252.666 171.316 253.47 172.357 253.45 173.366ZM253.45 173.366C253.446 172.857 253.22 172.356 252.839 172.034C252.459 171.712 251.96 171.581 251.507 171.633C250.573 171.741 249.967 172.579 249.981 173.366C249.966 174.153 250.571 174.996 251.507 175.102C251.96 175.153 252.46 175.022 252.84 174.7C253.22 174.378 253.446 173.876 253.45 173.366Z" fill="black"/>
<path opacity="0.1" d="M251.507 186.998C251.527 188.008 250.721 189.047 249.563 189.148C249.002 189.202 248.392 189.022 247.936 188.625C247.479 188.228 247.207 187.615 247.203 186.998C247.207 186.38 247.478 185.767 247.935 185.369C248.39 184.968 249.002 184.793 249.563 184.845C250.723 184.946 251.528 185.987 251.507 186.998ZM251.507 186.998C251.502 186.488 251.276 185.987 250.896 185.665C250.515 185.344 250.016 185.212 249.563 185.265C248.629 185.373 248.024 186.211 248.037 186.998C248.023 187.785 248.627 188.627 249.563 188.733C250.016 188.784 250.516 188.653 250.897 188.33C251.276 188.008 251.502 187.508 251.507 186.998Z" fill="black"/>
<path opacity="0.1" d="M249.114 201.401C249.135 202.411 248.328 203.451 247.17 203.551C246.609 203.605 245.999 203.425 245.543 203.028C245.086 202.631 244.814 202.018 244.81 201.401C244.814 200.783 245.085 200.169 245.542 199.772C245.997 199.371 246.609 199.195 247.17 199.248C248.33 199.349 249.135 200.39 249.114 201.401ZM249.114 201.401C249.109 200.891 248.883 200.39 248.504 200.068C248.123 199.746 247.624 199.615 247.171 199.667C246.237 199.775 245.632 200.614 245.645 201.401C245.631 202.188 246.235 203.03 247.171 203.136C247.624 203.187 248.124 203.056 248.505 202.733C248.883 202.411 249.109 201.91 249.114 201.401Z" fill="black"/>
<path opacity="0.1" d="M246.72 215.803C246.741 216.814 245.934 217.853 244.777 217.953C244.216 218.006 243.606 217.828 243.149 217.43C242.693 217.033 242.42 216.421 242.417 215.803C242.419 215.185 242.692 214.572 243.148 214.174C243.604 213.774 244.216 213.598 244.777 213.65C245.937 213.751 246.741 214.792 246.72 215.803ZM246.72 215.803C246.716 215.293 246.49 214.792 246.109 214.47C245.729 214.149 245.23 214.017 244.777 214.07C243.843 214.178 243.237 215.016 243.251 215.803C243.236 216.59 243.841 217.432 244.777 217.538C245.23 217.591 245.73 217.458 246.11 217.136C246.49 216.814 246.716 216.312 246.72 215.803Z" fill="black"/>
<path opacity="0.1" d="M254.875 238.771C254.896 239.782 254.089 240.82 252.932 240.922C252.371 240.974 251.761 240.796 251.304 240.399C250.848 240.001 250.575 239.389 250.572 238.771C250.574 238.153 250.846 237.54 251.303 237.143C251.758 236.742 252.371 236.566 252.932 236.618C254.09 236.721 254.895 237.762 254.875 238.771ZM254.875 238.771C254.871 238.261 254.645 237.76 254.264 237.439C253.883 237.117 253.385 236.986 252.932 237.038C251.998 237.146 251.392 237.984 251.406 238.771C251.391 239.558 251.995 240.401 252.932 240.507C253.385 240.558 253.884 240.426 254.265 240.105C254.645 239.783 254.87 239.281 254.875 238.771Z" fill="black"/>
<path opacity="0.1" d="M268.47 242.088C268.491 243.099 267.684 244.137 266.526 244.239C265.965 244.291 265.355 244.113 264.899 243.715C264.442 243.318 264.17 242.706 264.166 242.088C264.17 241.47 264.441 240.857 264.898 240.46C265.353 240.059 265.965 239.883 266.526 239.935C267.686 240.037 268.491 241.077 268.47 242.088ZM268.47 242.088C268.465 241.578 268.239 241.077 267.86 240.756C267.479 240.434 266.98 240.303 266.527 240.355C265.593 240.463 264.988 241.301 265.001 242.088C264.987 242.875 265.591 243.718 266.527 243.823C266.98 243.876 267.48 243.743 267.861 243.422C268.239 243.099 268.465 242.598 268.47 242.088Z" fill="black"/>
<path opacity="0.1" d="M282.065 245.404C282.085 246.415 281.279 247.454 280.122 247.555C279.561 247.607 278.951 247.43 278.494 247.031C278.038 246.634 277.765 246.022 277.762 245.404C277.765 244.786 278.036 244.173 278.493 243.775C278.949 243.375 279.561 243.199 280.122 243.251C281.281 243.352 282.085 244.393 282.065 245.404ZM282.065 245.404C282.061 244.894 281.835 244.393 281.455 244.072C281.075 243.75 280.576 243.619 280.123 243.671C279.189 243.779 278.583 244.617 278.597 245.404C278.582 246.191 279.187 247.034 280.123 247.139C280.576 247.191 281.076 247.059 281.456 246.736C281.835 246.415 282.06 245.914 282.065 245.404Z" fill="black"/>
<path opacity="0.1" d="M295.66 248.72C295.681 249.731 294.874 250.769 293.716 250.87C293.155 250.923 292.545 250.745 292.089 250.347C291.632 249.95 291.36 249.338 291.356 248.72C291.36 248.102 291.63 247.489 292.088 247.091C292.543 246.691 293.155 246.515 293.716 246.567C294.875 246.67 295.68 247.71 295.66 248.72ZM295.66 248.72C295.655 248.21 295.429 247.709 295.049 247.387C294.668 247.066 294.169 246.934 293.716 246.987C292.782 247.095 292.177 247.933 292.19 248.72C292.176 249.507 292.78 250.349 293.716 250.455C294.169 250.506 294.669 250.375 295.05 250.052C295.429 249.732 295.655 249.23 295.66 248.72Z" fill="black"/>
<path opacity="0.1" d="M309.249 252.187C309.192 253.196 308.308 254.17 307.146 254.181C306.583 254.19 305.989 253.967 305.563 253.534C305.138 253.102 304.913 252.472 304.958 251.855C305.008 251.239 305.326 250.649 305.813 250.288C306.298 249.924 306.921 249.795 307.477 249.89C308.626 250.082 309.347 251.18 309.249 252.187ZM309.249 252.187C309.284 251.678 309.097 251.162 308.743 250.811C308.387 250.46 307.9 250.291 307.445 250.309C306.505 250.344 305.836 251.134 305.789 251.92C305.714 252.703 306.252 253.589 307.178 253.767C307.625 253.854 308.134 253.762 308.538 253.469C308.942 253.177 309.206 252.694 309.249 252.187Z" fill="black"/>
<path opacity="0.1" d="M244.327 230.205C244.347 231.215 243.541 232.255 242.384 232.355C241.822 232.409 241.213 232.231 240.756 231.832C240.3 231.435 240.027 230.823 240.024 230.205C240.027 229.587 240.299 228.974 240.755 228.576C241.21 228.176 241.822 228 242.384 228.052C243.543 228.154 244.348 229.195 244.327 230.205ZM244.327 230.205C244.323 229.695 244.097 229.194 243.716 228.872C243.335 228.551 242.837 228.419 242.384 228.472C241.45 228.58 240.844 229.418 240.857 230.205C240.843 230.992 241.447 231.834 242.384 231.94C242.837 231.991 243.336 231.86 243.716 231.538C244.098 231.217 244.323 230.715 244.327 230.205Z" fill="black"/>
<path opacity="0.2" d="M221.434 254.069C234.339 242.465 235.394 222.597 223.791 209.691C212.187 196.786 192.318 195.731 179.413 207.334C166.508 218.938 165.452 238.807 177.056 251.712C188.66 264.617 208.528 265.673 221.434 254.069Z" fill="black"/>
<path d="M223.985 239.624C228.912 226.607 222.354 212.06 209.338 207.133C196.321 202.206 181.774 208.764 176.847 221.781C171.92 234.797 178.478 249.344 191.494 254.271C204.511 259.198 219.058 252.641 223.985 239.624Z" fill="#263238"/>
<path d="M198.903 221.44L193.012 220.485L192.057 226.377L197.949 227.331L198.903 221.44Z" fill="#E0AF7F"/>
<path d="M193.966 214.593L188.074 213.639L187.12 219.53L193.011 220.485L193.966 214.593Z" fill="#E0AF7F"/>
<path d="M217.532 218.41L211.641 217.456L210.686 223.348L216.578 224.302L217.532 218.41Z" fill="#E0AF7F"/>
<path d="M190.169 238.027L184.278 237.072L183.323 242.964L189.215 243.918L190.169 238.027Z" fill="#E0AF7F"/>
<path d="M213.736 241.845L207.844 240.89L206.89 246.782L212.781 247.736L213.736 241.845Z" fill="#E0AF7F"/>
<path d="M197.016 233.09L191.125 232.135L190.17 238.027L196.062 238.981L197.016 233.09Z" fill="#E0AF7F"/>
<path d="M203.851 228.22L197.959 227.265L197.005 233.157L202.897 234.111L203.851 228.22Z" fill="#E0AF7F"/>
<path d="M210.686 223.348L204.795 222.394L203.841 228.285L209.732 229.24L210.686 223.348Z" fill="#E0AF7F"/>
<path d="M208.804 234.995L202.913 234.041L201.958 239.932L207.85 240.886L208.804 234.995Z" fill="#E0AF7F"/>
<path d="M309.063 263.774C320.063 250.35 318.097 230.55 304.673 219.55C291.249 208.55 271.449 210.516 260.449 223.94C249.45 237.365 251.415 257.164 264.839 268.164C278.264 279.164 298.063 277.198 309.063 263.774Z" fill="#E0AF7F"/>
<path opacity="0.2" d="M309.063 263.774C320.063 250.35 318.097 230.55 304.673 219.55C291.249 208.55 271.449 210.516 260.449 223.94C249.45 237.365 251.415 257.164 264.839 268.164C278.264 279.164 298.063 277.198 309.063 263.774Z" fill="black"/>
<path opacity="0.2" d="M315.332 251.139C315.187 251.758 315.023 252.356 314.837 252.953L253.584 239.889C253.728 238.795 253.924 237.702 254.181 236.599C258.193 219.719 275.135 209.283 292.027 213.294C308.908 217.306 319.344 234.248 315.332 251.139Z" fill="black"/>
<path d="M294.468 267.127C307.311 261.761 313.372 247.001 308.006 234.158C302.641 221.315 287.88 215.253 275.037 220.619C262.194 225.985 256.132 240.746 261.498 253.589C266.864 266.431 281.625 272.493 294.468 267.127Z" fill="#263238"/>
<path d="M291.099 230.101L285.292 228.721L278.424 257.624L284.231 259.004L291.099 230.101Z" fill="#E0AF7F"/>
<path d="M317.155 250.549L252.816 235.258C257.038 217.495 274.866 206.519 292.629 210.74C310.393 214.962 321.377 232.786 317.155 250.549Z" fill="#E0AF7F"/>
<path opacity="0.2" d="M317.155 250.549L252.816 235.258C257.038 217.495 274.866 206.519 292.629 210.74C310.393 214.962 321.377 232.786 317.155 250.549Z" fill="black"/>
<path opacity="0.1" d="M230.079 262.549C230.242 260.037 231.164 257.489 232.987 255.474C233.885 254.459 235.084 253.662 236.404 253.177C237.731 252.689 239.164 252.604 240.524 252.719C241.907 252.881 243.32 253.368 244.473 254.241C245.604 255.133 246.471 256.292 246.981 257.542C248.03 260.034 248.145 262.696 247.636 265.165C247.218 262.697 246.58 260.301 245.421 258.334C244.271 256.353 242.453 255.119 240.285 254.928C238.075 254.653 235.917 255.246 234.181 256.714C232.442 258.177 231.115 260.273 230.079 262.549Z" fill="black"/>
<path d="M167.349 198.452C167.611 195.095 167.987 191.753 168.305 188.404C168.663 185.06 169.03 181.718 169.436 178.382C169.822 175.042 170.258 171.709 170.685 168.375C171.104 165.04 171.587 161.714 172.034 158.382L172.153 157.493L173.055 157.549C180.307 158.006 187.541 158.591 194.766 159.335C198.379 159.706 201.986 160.124 205.589 160.588C209.186 161.105 212.787 161.581 216.363 162.236L194.638 160.891L172.937 159.487L173.958 158.655C173.465 161.98 173.006 165.309 172.484 168.629C171.97 171.951 171.464 175.274 170.909 178.59C170.375 181.908 169.801 185.222 169.217 188.533C168.594 191.84 168.029 195.154 167.349 198.452Z" fill="white"/>
<path d="M172.575 223.849C173.304 219.813 175.139 215.967 177.603 212.618C178.216 211.775 178.914 210.997 179.586 210.196C180.313 209.445 181.068 208.72 181.814 207.984C182.628 207.323 183.449 206.667 184.284 206.032C185.171 205.469 186.047 204.883 186.949 204.343C187.898 203.887 188.842 203.417 189.801 202.983L192.787 201.95L195.877 201.313C196.915 201.16 197.969 201.129 199.01 201.05C203.201 200.942 207.324 201.836 211.108 203.369C207.08 202.614 203.066 202.196 199.109 202.573C195.162 202.94 191.326 204.121 187.896 206.053C184.44 207.939 181.379 210.542 178.793 213.565C176.217 216.605 174.086 220.047 172.575 223.849Z" fill="white"/>
<path d="M259.261 232.339C260.541 228.442 262.888 224.887 265.791 221.909C266.515 221.16 267.314 220.486 268.09 219.784C268.913 219.142 269.762 218.528 270.602 217.901C271.5 217.358 272.403 216.822 273.318 216.308C274.276 215.874 275.223 215.413 276.191 215.004C277.195 214.683 278.195 214.347 279.203 214.051L282.303 213.44L285.453 213.235C286.501 213.227 287.549 213.342 288.59 213.407C292.756 213.879 296.715 215.334 300.253 217.374C296.367 216.071 292.45 215.101 288.478 214.93C284.518 214.75 280.556 215.389 276.893 216.829C273.209 218.22 269.818 220.375 266.839 223.012C263.867 225.666 261.281 228.781 259.261 232.339Z" fill="white"/>
<path d="M162.257 333.043C154.206 333.043 136.584 331.233 125.243 316.653C110.735 297.999 115.979 262.205 116.208 260.69L122.507 261.647C122.455 261.991 117.449 296.254 130.272 312.741C142.809 328.86 165.549 326.546 165.777 326.518L166.494 332.849C166.246 332.879 164.687 333.043 162.257 333.043Z" fill="#E0AF7F"/>
<path opacity="0.4" d="M162.257 333.043C154.206 333.043 136.584 331.233 125.243 316.653C110.735 297.999 115.979 262.205 116.208 260.69L122.507 261.647C122.455 261.991 117.449 296.254 130.272 312.741C142.809 328.86 165.549 326.546 165.777 326.518L166.494 332.849C166.246 332.879 164.687 333.043 162.257 333.043Z" fill="white"/>
<path d="M124.361 265.98C123.213 265.98 122.039 265.884 120.845 265.691C110.219 263.97 105.515 257.612 103.439 252.58C101.359 247.538 100.878 241.438 102.01 234.452L115.485 236.636C114.784 240.964 114.988 244.779 116.059 247.374C116.822 249.227 118.305 251.451 123.028 252.215C125.185 252.565 127.517 252.38 129.959 248.697C131.845 245.854 132.977 241.985 133.373 239.534L146.849 241.716C146.537 243.644 145.216 250.39 141.336 256.24C137.118 262.605 131.179 265.98 124.361 265.98Z" fill="#E0AF7F"/>
<path d="M175.568 351.277C175.545 350.986 164.152 349.166 164.152 349.166L158.622 311.982L172.421 306.531L175.568 351.277Z" fill="#E0AF7F"/>
<path opacity="0.2" d="M175.568 351.277C175.545 350.986 164.152 349.166 164.152 349.166L158.622 311.982L172.421 306.531L175.568 351.277Z" fill="black"/>
<path d="M288.212 351.346C288.242 351.056 299.673 349.488 299.673 349.488L306.023 312.436L292.347 306.681L288.212 351.346Z" fill="#E0AF7F"/>
<path opacity="0.2" d="M288.212 351.346C288.242 351.056 299.673 349.488 299.673 349.488L306.023 312.436L292.347 306.681L288.212 351.346Z" fill="black"/>
<path d="M170.828 298.205C170.828 298.205 262.978 294.265 294.107 299.453C294.107 299.453 284.966 388.621 284.472 390.351C284.472 390.351 192.805 390.104 178.476 390.351C178.476 390.351 170.71 331.058 170.828 298.205Z" fill="#E0AF7F"/>
<path opacity="0.2" d="M198.818 322.639C198.818 322.639 249.123 320.652 266.117 323.268C266.117 323.268 261.127 368.231 260.858 369.103C260.858 369.103 210.816 368.978 202.993 369.103C202.992 369.104 199.555 338.331 198.818 322.639Z" fill="black"/>
<path opacity="0.2" d="M205.694 369.085C204.542 369.085 203.629 369.1 202.99 369.108C202.99 369.108 199.559 338.329 198.815 322.638C198.815 322.638 199.959 322.594 201.957 322.527L205.694 369.085Z" fill="black"/>
<path d="M220.532 333.735C217.712 332.847 214.708 334.412 213.82 337.229C212.93 340.052 214.498 343.053 217.317 343.941C220.134 344.829 223.135 343.265 224.024 340.446C224.912 337.629 223.349 334.623 220.532 333.735ZM223.404 340.249C222.623 342.727 219.986 344.1 217.512 343.32C215.037 342.54 213.664 339.904 214.444 337.426C215.224 334.951 217.861 333.577 220.338 334.358C222.809 335.137 224.184 337.774 223.404 340.249ZM220.532 333.735C217.712 332.847 214.708 334.412 213.82 337.229C212.93 340.052 214.498 343.053 217.317 343.941C220.134 344.829 223.135 343.265 224.024 340.446C224.912 337.629 223.349 334.623 220.532 333.735ZM223.404 340.249C222.623 342.727 219.986 344.1 217.512 343.32C215.037 342.54 213.664 339.904 214.444 337.426C215.224 334.951 217.861 333.577 220.338 334.358C222.809 335.137 224.184 337.774 223.404 340.249ZM220.532 333.735C217.712 332.847 214.708 334.412 213.82 337.229C212.93 340.052 214.498 343.053 217.317 343.941C220.134 344.829 223.135 343.265 224.024 340.446C224.912 337.629 223.349 334.623 220.532 333.735ZM223.404 340.249C222.623 342.727 219.986 344.1 217.512 343.32C215.037 342.54 213.664 339.904 214.444 337.426C215.224 334.951 217.861 333.577 220.338 334.358C222.809 335.137 224.184 337.774 223.404 340.249ZM222.315 328.081C216.37 326.209 210.039 329.512 208.166 335.448C206.295 341.388 209.591 347.722 215.534 349.594C221.471 351.464 227.806 348.165 229.677 342.226C231.551 336.291 228.252 329.952 222.315 328.081ZM224.82 340.695C223.794 343.949 220.317 345.761 217.067 344.736C213.816 343.712 212.004 340.234 213.028 336.981C214.053 333.727 217.533 331.918 220.783 332.942C224.031 333.968 225.844 337.444 224.82 340.695ZM224.024 340.446C224.912 337.629 223.349 334.623 220.532 333.735C217.712 332.847 214.708 334.412 213.82 337.229C212.93 340.052 214.498 343.053 217.317 343.941C220.134 344.83 223.135 343.267 224.024 340.446ZM223.404 340.249C222.623 342.727 219.986 344.1 217.512 343.32C215.037 342.54 213.664 339.904 214.444 337.426C215.224 334.951 217.861 333.577 220.338 334.358C222.809 335.137 224.184 337.774 223.404 340.249ZM220.532 333.735C217.712 332.847 214.708 334.412 213.82 337.229C212.93 340.052 214.498 343.053 217.317 343.941C220.134 344.829 223.135 343.265 224.024 340.446C224.912 337.629 223.349 334.623 220.532 333.735ZM223.404 340.249C222.623 342.727 219.986 344.1 217.512 343.32C215.037 342.54 213.664 339.904 214.444 337.426C215.224 334.951 217.861 333.577 220.338 334.358C222.809 335.137 224.184 337.774 223.404 340.249ZM220.532 333.735C217.712 332.847 214.708 334.412 213.82 337.229C212.93 340.052 214.498 343.053 217.317 343.941C220.134 344.829 223.135 343.265 224.024 340.446C224.912 337.629 223.349 334.623 220.532 333.735ZM223.404 340.249C222.623 342.727 219.986 344.1 217.512 343.32C215.037 342.54 213.664 339.904 214.444 337.426C215.224 334.951 217.861 333.577 220.338 334.358C222.809 335.137 224.184 337.774 223.404 340.249Z" fill="#E0AF7F"/>
<path d="M217.742 349.8L213.607 348.496L212.913 351.496L216.591 352.655L217.742 349.8Z" fill="#E0AF7F"/>
<path d="M210.31 345.925L208.306 342.08L205.695 343.709L207.476 347.13L210.31 345.925Z" fill="#E0AF7F"/>
<path d="M207.793 337.93L209.096 333.795L206.097 333.1L204.937 336.779L207.793 337.93Z" fill="#E0AF7F"/>
<path d="M211.667 330.498L215.513 328.494L213.882 325.883L210.461 327.664L211.667 330.498Z" fill="#E0AF7F"/>
<path d="M219.661 327.981L223.798 329.285L224.491 326.285L220.813 325.125L219.661 327.981Z" fill="#E0AF7F"/>
<path d="M227.095 331.854L229.097 335.7L231.71 334.07L229.928 330.649L227.095 331.854Z" fill="#E0AF7F"/>
<path d="M229.612 339.85L228.308 343.985L231.308 344.679L232.467 341.001L229.612 339.85Z" fill="#E0AF7F"/>
<path d="M225.738 347.282L221.891 349.285L223.522 351.897L226.942 350.115L225.738 347.282Z" fill="#E0AF7F"/>
<path d="M238.722 349.473C237.054 348.386 234.822 348.859 233.737 350.526C232.649 352.196 233.124 354.425 234.791 355.512C236.457 356.597 238.686 356.125 239.772 354.457C240.858 352.79 240.388 350.558 238.722 349.473ZM239.406 354.217C238.452 355.683 236.493 356.097 235.029 355.143C233.566 354.19 233.151 352.231 234.105 350.766C235.058 349.303 237.017 348.888 238.482 349.842C239.945 350.794 240.359 352.753 239.406 354.217ZM238.722 349.473C237.054 348.386 234.822 348.859 233.737 350.526C232.649 352.196 233.124 354.425 234.791 355.512C236.457 356.597 238.686 356.125 239.772 354.457C240.858 352.79 240.388 350.558 238.722 349.473ZM239.406 354.217C238.452 355.683 236.493 356.097 235.029 355.143C233.566 354.19 233.151 352.231 234.105 350.766C235.058 349.303 237.017 348.888 238.482 349.842C239.945 350.794 240.359 352.753 239.406 354.217ZM238.722 349.473C237.054 348.386 234.822 348.859 233.737 350.526C232.649 352.196 233.124 354.425 234.791 355.512C236.457 356.597 238.686 356.125 239.772 354.457C240.858 352.79 240.388 350.558 238.722 349.473ZM239.406 354.217C238.452 355.683 236.493 356.097 235.029 355.143C233.566 354.19 233.151 352.231 234.105 350.766C235.058 349.303 237.017 348.888 238.482 349.842C239.945 350.794 240.359 352.753 239.406 354.217ZM240.9 346.129C237.382 343.84 232.681 344.837 230.392 348.349C228.105 351.863 229.096 356.567 232.612 358.854C236.124 361.141 240.829 360.147 243.116 356.634C245.405 353.123 244.412 348.415 240.9 346.129ZM240.243 354.761C238.99 356.686 236.407 357.232 234.485 355.98C232.563 354.728 232.016 352.145 233.268 350.221C234.522 348.296 237.105 347.752 239.028 349.004C240.949 350.256 241.495 352.839 240.243 354.761ZM239.772 354.456C240.858 352.79 240.388 350.558 238.722 349.473C237.054 348.386 234.822 348.859 233.737 350.526C232.649 352.196 233.124 354.425 234.791 355.512C236.457 356.596 238.686 356.125 239.772 354.456ZM239.406 354.217C238.452 355.683 236.493 356.097 235.029 355.143C233.566 354.19 233.151 352.231 234.105 350.766C235.058 349.303 237.017 348.888 238.482 349.842C239.945 350.794 240.359 352.753 239.406 354.217ZM238.722 349.473C237.054 348.386 234.822 348.859 233.737 350.526C232.649 352.196 233.124 354.425 234.791 355.512C236.457 356.597 238.686 356.125 239.772 354.457C240.858 352.79 240.388 350.558 238.722 349.473ZM239.406 354.217C238.452 355.683 236.493 356.097 235.029 355.143C233.566 354.19 233.151 352.231 234.105 350.766C235.058 349.303 237.017 348.888 238.482 349.842C239.945 350.794 240.359 352.753 239.406 354.217ZM238.722 349.473C237.054 348.386 234.822 348.859 233.737 350.526C232.649 352.196 233.124 354.425 234.791 355.512C236.457 356.597 238.686 356.125 239.772 354.457C240.858 352.79 240.388 350.558 238.722 349.473ZM239.406 354.217C238.452 355.683 236.493 356.097 235.029 355.143C233.566 354.19 233.151 352.231 234.105 350.766C235.058 349.303 237.017 348.888 238.482 349.842C239.945 350.794 240.359 352.753 239.406 354.217Z" fill="#DBDBDB"/>
<path d="M234.007 359.386L231.561 357.793L230.569 359.613L232.745 361.029L234.007 359.386Z" fill="#DBDBDB"/>
<path d="M229.888 355.53L229.284 352.674L227.295 353.258L227.833 355.798L229.888 355.53Z" fill="#DBDBDB"/>
<path d="M229.702 349.89L231.295 347.443L229.475 346.452L228.058 348.627L229.702 349.89Z" fill="#DBDBDB"/>
<path d="M233.558 345.771L236.414 345.167L235.828 343.178L233.288 343.716L233.558 345.771Z" fill="#DBDBDB"/>
<path d="M239.198 345.584L241.644 347.177L242.636 345.358L240.46 343.941L239.198 345.584Z" fill="#DBDBDB"/>
<path d="M243.317 349.44L243.921 352.297L245.909 351.711L245.372 349.171L243.317 349.44Z" fill="#DBDBDB"/>
<path d="M243.504 355.08L241.911 357.526L243.731 358.519L245.148 356.343L243.504 355.08Z" fill="#DBDBDB"/>
<path d="M239.648 359.201L236.791 359.804L237.376 361.792L239.917 361.256L239.648 359.201Z" fill="#DBDBDB"/>
<path d="M291.883 379.974L295.425 380.633L305.553 312.036L301.518 311.294L291.883 379.974Z" fill="#E0AF7F"/>
<path d="M260.857 369.104L266.116 323.269L301.518 311.294C301.518 311.294 291.883 380.717 291.883 379.975L260.857 369.104Z" fill="#E0AF7F"/>
<path opacity="0.4" d="M260.857 369.104L266.116 323.269L301.518 311.294C301.518 311.294 291.883 380.717 291.883 379.975L260.857 369.104Z" fill="white"/>
<path d="M175.056 325.126C174.48 321.329 174.168 317.501 173.931 313.67C173.822 311.753 173.773 309.834 173.73 307.915C173.693 305.996 173.659 304.075 173.716 302.154L173.732 301.65L174.222 301.623C181.255 301.246 188.283 300.784 195.32 300.477C202.355 300.13 209.39 299.815 216.431 299.594C209.413 300.23 202.391 300.771 195.367 301.281C188.346 301.829 181.316 302.223 174.291 302.702L174.797 302.171L174.768 307.903L174.835 313.637C174.845 315.55 174.879 317.463 174.935 319.377L175.056 325.126Z" fill="white"/>
<path d="M271.054 323.942C273.247 322.9 275.474 321.931 277.728 321.038C279.976 320.123 282.243 319.257 284.537 318.462C286.835 317.677 289.14 316.909 291.484 316.258C293.824 315.599 296.187 314.99 298.6 314.595L299.193 314.498L299.087 315.065C298.532 318.032 297.951 320.995 297.264 323.942C297.521 320.927 297.884 317.929 298.272 314.936L298.76 315.405C296.421 315.963 294.101 316.615 291.788 317.299C289.478 317.99 287.173 318.718 284.876 319.466L271.054 323.942Z" fill="white"/>
<path opacity="0.1" d="M190.376 298.392L190.973 309.856L191.483 321.324L192.366 344.263L193.058 367.209L193.334 378.684L193.523 390.162L192.925 378.698L192.415 367.231L191.533 344.292L190.844 321.346L190.567 309.869L190.376 298.392Z" fill="black"/>
<path opacity="0.1" d="M187.093 305.302C187.313 306.29 186.728 307.467 185.613 307.795C185.073 307.957 184.441 307.904 183.915 307.603C183.388 307.304 183 306.758 182.875 306.153C182.756 305.546 182.901 304.892 183.27 304.412C183.638 303.93 184.203 303.635 184.763 303.576C185.918 303.447 186.913 304.308 187.093 305.302ZM187.093 305.302C186.987 304.804 186.667 304.357 186.231 304.117C185.795 303.876 185.279 303.846 184.845 303.988C183.951 304.278 183.523 305.219 183.692 305.989C183.833 306.763 184.593 307.47 185.531 307.388C185.985 307.349 186.449 307.122 186.758 306.73C187.067 306.339 187.188 305.803 187.093 305.302Z" fill="black"/>
<path opacity="0.1" d="M187.882 319.048C188.102 320.036 187.517 321.213 186.402 321.541C185.863 321.703 185.23 321.65 184.704 321.349C184.177 321.05 183.789 320.504 183.664 319.899C183.545 319.292 183.69 318.638 184.059 318.158C184.427 317.675 184.991 317.381 185.552 317.322C186.707 317.193 187.702 318.054 187.882 319.048ZM187.882 319.048C187.776 318.55 187.457 318.103 187.02 317.863C186.584 317.622 186.068 317.592 185.634 317.734C184.74 318.024 184.312 318.966 184.481 319.735C184.622 320.509 185.382 321.216 186.32 321.134C186.774 321.095 187.238 320.867 187.547 320.477C187.856 320.085 187.979 319.549 187.882 319.048Z" fill="black"/>
<path opacity="0.1" d="M188.383 333.639C188.603 334.627 188.018 335.804 186.903 336.132C186.363 336.294 185.731 336.241 185.205 335.94C184.678 335.641 184.29 335.095 184.165 334.49C184.046 333.884 184.191 333.228 184.56 332.749C184.928 332.266 185.493 331.972 186.053 331.913C187.208 331.784 188.203 332.645 188.383 333.639ZM188.383 333.639C188.277 333.141 187.957 332.694 187.521 332.454C187.085 332.213 186.569 332.183 186.135 332.325C185.241 332.615 184.813 333.556 184.982 334.325C185.123 335.1 185.883 335.805 186.821 335.724C187.275 335.685 187.739 335.457 188.048 335.066C188.357 334.677 188.478 334.14 188.383 333.639Z" fill="black"/>
<path opacity="0.1" d="M188.883 348.231C189.104 349.218 188.518 350.396 187.404 350.723C186.864 350.886 186.232 350.832 185.705 350.532C185.179 350.232 184.79 349.687 184.666 349.081C184.547 348.475 184.691 347.82 185.061 347.341C185.428 346.859 185.994 346.564 186.554 346.505C187.709 346.375 188.704 347.236 188.883 348.231ZM188.883 348.231C188.778 347.732 188.457 347.286 188.022 347.046C187.586 346.805 187.07 346.775 186.636 346.916C185.742 347.207 185.314 348.148 185.483 348.918C185.624 349.693 186.383 350.398 187.322 350.317C187.776 350.278 188.24 350.051 188.548 349.659C188.858 349.267 188.979 348.732 188.883 348.231Z" fill="black"/>
<path opacity="0.1" d="M189.385 362.821C189.605 363.809 189.02 364.986 187.905 365.314C187.365 365.476 186.733 365.423 186.207 365.122C185.68 364.823 185.292 364.277 185.167 363.672C185.048 363.065 185.193 362.411 185.562 361.931C185.929 361.449 186.495 361.154 187.055 361.095C188.21 360.966 189.205 361.827 189.385 362.821ZM189.385 362.821C189.279 362.323 188.958 361.876 188.523 361.636C188.087 361.395 187.571 361.365 187.137 361.507C186.243 361.797 185.815 362.739 185.984 363.508C186.125 364.283 186.885 364.989 187.823 364.907C188.277 364.868 188.741 364.641 189.05 364.25C189.359 363.859 189.48 363.322 189.385 362.821Z" fill="black"/>
<path opacity="0.1" d="M189.885 377.413C190.106 378.4 189.52 379.578 188.406 379.905C187.866 380.068 187.234 380.015 186.707 379.714C186.181 379.415 185.792 378.869 185.668 378.264C185.549 377.658 185.693 377.002 186.063 376.523C186.43 376.04 186.995 375.746 187.556 375.687C188.711 375.558 189.705 376.418 189.885 377.413ZM189.885 377.413C189.78 376.914 189.46 376.468 189.024 376.228C188.587 375.987 188.072 375.957 187.638 376.099C186.744 376.389 186.316 377.331 186.485 378.1C186.626 378.874 187.385 379.58 188.324 379.499C188.778 379.46 189.242 379.232 189.551 378.841C189.86 378.449 189.981 377.914 189.885 377.413Z" fill="black"/>
<path d="M194.392 399.723L142.215 415.534L144.062 421.631L196.239 405.819L194.392 399.723Z" fill="#E0AF7F"/>
<path opacity="0.4" d="M194.392 399.723L142.215 415.534L144.062 421.631L196.239 405.819L194.392 399.723Z" fill="white"/>
<path d="M169.423 405.219L163.352 407.15L166.22 416.168L172.291 414.237L169.423 405.219Z" fill="#E0AF7F"/>
<path d="M143.652 430.565L130.187 372.261L89.5474 381.895L109.559 438.717L143.652 430.565Z" fill="#E0AF7F"/>
<path d="M152.669 427.6L143.652 430.565L130.188 372.261L143.158 375.349L152.669 427.6Z" fill="#E0AF7F"/>
<path opacity="0.2" d="M152.669 427.6L143.652 430.565L130.188 372.261L143.158 375.349L152.669 427.6Z" fill="black"/>
<path d="M195.336 409.688C199.156 409.688 202.253 406.591 202.253 402.771C202.253 398.951 199.156 395.854 195.336 395.854C191.516 395.854 188.419 398.951 188.419 402.771C188.419 406.591 191.516 409.688 195.336 409.688Z" fill="#E0AF7F"/>
<path d="M266.514 399.557L264.654 405.649L316.798 421.57L318.659 415.477L266.514 399.557Z" fill="#E0AF7F"/>
<path opacity="0.4" d="M266.514 399.557L264.654 405.649L316.798 421.57L318.659 415.477L266.514 399.557Z" fill="white"/>
<path d="M291.514 405.081L288.626 414.092L294.693 416.036L297.581 407.025L291.514 405.081Z" fill="#E0AF7F"/>
<path d="M317.221 430.514L330.81 372.238L371.429 381.959L351.297 438.738L317.221 430.514Z" fill="#E0AF7F"/>
<path d="M308.21 427.53L317.221 430.514L330.81 372.238L317.833 375.298L308.21 427.53Z" fill="#E0AF7F"/>
<path opacity="0.2" d="M308.21 427.53L317.221 430.514L330.81 372.238L317.833 375.298L308.21 427.53Z" fill="black"/>
<path d="M258.679 402.596C258.671 406.417 261.761 409.52 265.581 409.529C269.401 409.537 272.505 406.447 272.514 402.626C272.522 398.806 269.431 395.703 265.611 395.694C261.79 395.685 258.687 398.775 258.679 402.596Z" fill="#E0AF7F"/>
<path d="M310.883 330.683C311.046 330.529 327.806 314.984 347.521 320.302C367.682 325.741 384.328 356.107 384.492 356.415L390.097 353.386C389.369 352.038 372.008 320.299 349.18 314.153C325.963 307.891 307.28 325.322 306.495 326.068L310.883 330.683Z" fill="#E0AF7F"/>
<path opacity="0.4" d="M310.883 330.683C311.046 330.529 327.806 314.984 347.521 320.302C367.682 325.741 384.328 356.107 384.492 356.415L390.097 353.386C389.369 352.038 372.008 320.299 349.18 314.153C325.963 307.891 307.28 325.322 306.495 326.068L310.883 330.683Z" fill="white"/>
<path d="M377.063 386.985L389.136 380.611C387.977 378.417 386.55 374.646 386.343 371.241C386.075 366.828 387.826 365.277 389.757 364.256C393.987 362.022 396.512 362.908 398.236 363.923C400.655 365.351 403.115 368.273 405.162 372.151L417.235 365.777C413.931 359.519 409.874 354.94 405.175 352.166C400.488 349.403 392.903 347.158 383.384 352.183C375.963 356.1 372.175 363.163 372.718 372.069C373.143 379.078 376.152 385.257 377.063 386.985Z" fill="#E0AF7F"/>
<path d="M313.427 309.412C316.044 307.604 318.722 305.901 321.411 304.214C324.092 302.516 326.818 300.893 329.544 299.27C332.284 297.671 335.025 296.073 337.809 294.549L341.988 292.268C343.401 291.542 344.795 290.784 346.226 290.087C344.924 291.001 343.585 291.852 342.265 292.737L338.244 295.286C335.562 296.984 332.837 298.607 330.11 300.227C327.369 301.826 324.629 303.423 321.844 304.946C319.065 306.481 316.277 307.999 313.427 309.412Z" fill="#263238"/>
<path d="M306.494 335.46C310.242 337.595 313.792 340.005 317.296 342.482C320.781 344.987 324.216 347.559 327.453 350.409C323.704 348.276 320.153 345.866 316.65 343.387C313.168 340.881 309.733 338.308 306.494 335.46Z" fill="#263238"/>
<path d="M312.648 332.255C315.54 333.134 318.387 334.127 321.227 335.136C324.072 336.134 326.886 337.213 329.699 338.293C332.503 339.397 335.306 340.504 338.077 341.69L342.234 343.473C343.604 344.106 344.989 344.702 346.347 345.367C344.898 344.938 343.473 344.442 342.036 343.982L337.767 342.488C334.922 341.49 332.109 340.411 329.296 339.329C326.493 338.224 323.689 337.117 320.919 335.93C318.143 334.755 315.374 333.562 312.648 332.255Z" fill="#263238"/>
<path d="M320.864 311.855C323.636 311.135 326.427 310.535 329.224 309.953C332.016 309.358 334.826 308.851 337.634 308.342C340.447 307.86 343.261 307.38 346.09 306.985L350.333 306.396C351.754 306.24 353.169 306.047 354.597 305.924C353.214 306.296 351.818 306.597 350.427 306.934L346.238 307.828C343.444 308.421 340.635 308.93 337.827 309.436C335.013 309.917 332.2 310.397 329.37 310.791C326.545 311.198 323.715 311.587 320.864 311.855Z" fill="#263238"/>
<path d="M254.068 347.843C254.538 345.591 255.293 343.396 256.271 341.304C257.249 339.213 258.447 337.208 259.95 335.426C261.457 333.663 263.311 332.108 265.543 331.248C267.775 330.416 270.329 330.423 272.568 331.317C274.833 332.199 276.62 334.103 277.583 336.291C278.082 337.384 278.395 338.556 278.524 339.755C278.637 340.952 278.589 342.197 278.112 343.392C277.871 343.98 277.49 344.573 276.882 344.968C276.589 345.173 276.229 345.29 275.876 345.344C275.529 345.394 275.173 345.379 274.767 345.238C274.023 344.921 273.649 344.322 273.329 343.782C273.043 343.221 272.823 342.647 272.673 342.067C272.047 339.744 271.984 337.381 272.094 335.044C272.425 330.391 273.648 325.735 276.156 321.73C277.421 319.751 279.01 317.929 280.982 316.598C282.93 315.258 285.211 314.335 287.539 314.068C288.685 313.791 289.868 313.816 291.038 313.759C291.625 313.697 292.207 313.838 292.791 313.87C293.371 313.946 293.965 313.936 294.53 314.104C296.843 314.52 299.017 315.448 301.047 316.571C303.065 317.734 304.863 319.228 306.504 320.849C308.13 322.486 309.609 324.277 310.798 326.249C308.166 322.492 304.776 319.23 300.78 317.046C298.769 316.001 296.644 315.143 294.405 314.796C293.859 314.643 293.285 314.67 292.727 314.608C292.164 314.591 291.605 314.463 291.041 314.539C289.918 314.621 288.787 314.615 287.691 314.91C285.447 315.226 283.365 316.129 281.533 317.387C279.692 318.647 278.206 320.376 277.014 322.268C274.651 326.096 273.494 330.618 273.205 335.11C273.079 337.355 273.136 339.651 273.697 341.783C273.964 342.803 274.447 343.952 275.148 344.273C275.238 344.282 275.298 344.33 275.408 344.333C275.517 344.325 275.633 344.349 275.737 344.322C275.947 344.288 276.153 344.231 276.331 344.104C276.697 343.875 276.986 343.467 277.181 343C277.571 342.054 277.643 340.932 277.545 339.851C277.436 338.763 277.157 337.684 276.708 336.682C275.827 334.681 274.265 332.95 272.242 332.101C270.229 331.247 267.873 331.178 265.783 331.904C263.684 332.658 261.871 334.105 260.359 335.782C257.327 339.177 255.282 343.425 254.068 347.843Z" fill="#1F4779"/>
<path d="M151.21 376.691C152.284 374.666 153.864 372.914 155.708 371.529C157.55 370.145 159.665 369.071 161.942 368.544C164.206 368.002 166.638 367.993 168.903 368.681C171.169 369.359 173.211 370.688 174.845 372.381C176.49 374.073 177.719 376.128 178.565 378.313C179.394 380.502 179.892 382.848 179.716 385.246C179.597 386.426 179.357 387.701 178.424 388.721C177.961 389.223 177.246 389.554 176.549 389.565C175.879 389.559 175.246 389.46 174.631 389.131C174.02 388.816 173.53 388.269 173.251 387.662C172.967 387.055 172.861 386.413 172.832 385.792C172.788 384.545 173.057 383.361 173.423 382.234C174.17 379.978 175.397 377.946 176.831 376.103C178.272 374.263 179.969 372.625 181.87 371.26C185.641 368.522 190.445 367 195.132 367.614C197.445 367.926 199.74 368.594 201.765 369.774C203.807 370.915 205.578 372.499 207.022 374.309C208.465 376.127 209.589 378.169 210.455 380.298C211.321 382.427 211.96 384.65 212.274 386.918C211.339 382.458 209.504 378.126 206.582 374.669C205.135 372.941 203.391 371.458 201.412 370.413C199.449 369.33 197.248 368.748 195.031 368.5C190.579 368.015 186.062 369.436 182.47 372.093C178.882 374.732 175.947 378.415 174.463 382.582C174.114 383.62 173.87 384.707 173.902 385.753C173.927 386.791 174.292 387.789 175.125 388.21C175.517 388.436 176.05 388.524 176.517 388.531C176.968 388.519 177.368 388.34 177.69 388.007C178.34 387.329 178.618 386.22 178.717 385.156C178.892 382.981 178.442 380.732 177.664 378.653C176.876 376.57 175.705 374.626 174.191 373C172.681 371.376 170.778 370.109 168.672 369.42C166.569 368.72 164.264 368.662 162.074 369.126C157.689 370.061 153.629 372.802 151.21 376.691Z" fill="#1F4779"/>
<path d="M99.7124 107.876C99.5866 103.295 98.6149 98.6837 96.4832 94.6653C95.4157 92.6751 93.9998 90.8362 92.1409 89.604C90.2854 88.3996 87.9812 87.9042 85.8228 88.2537C83.6556 88.5944 81.7266 89.9023 80.393 91.6354C79.7174 92.5014 79.1886 93.4821 78.8235 94.5128C78.4696 95.5391 78.2714 96.6456 78.425 97.6574C78.5018 98.1572 78.6855 98.6214 78.9861 98.9319C79.1274 99.0967 79.3144 99.2013 79.5103 99.2859C79.6049 99.336 79.724 99.3404 79.8276 99.3749C79.9344 99.3983 80.0035 99.3649 80.0936 99.3783C80.8516 99.2336 81.5952 98.2329 82.0983 97.3068C83.1514 95.3699 83.7558 93.1537 84.1687 90.9442C84.9602 86.5128 84.9157 81.8455 83.5343 77.5633C82.8285 75.4406 81.7978 73.4069 80.3107 71.745C78.8313 70.0865 77.0258 68.7129 74.922 67.8702C73.928 67.3226 72.8283 67.0588 71.7574 66.7093C71.2287 66.5022 70.6543 66.4933 70.1045 66.3742C69.5468 66.3019 68.9969 66.1393 68.4292 66.156C66.1729 65.959 63.9044 66.2852 61.7015 66.8206C57.2991 67.9882 53.2295 70.3458 49.7766 73.3657C51.4018 71.735 53.2651 70.3481 55.2354 69.1459C57.2156 67.9637 59.3172 66.943 61.5546 66.2941C63.793 65.6874 66.1273 65.3045 68.4715 65.4537C69.0603 65.4247 69.6336 65.5772 70.2158 65.6407C70.7901 65.7497 71.3901 65.7509 71.9444 65.9512C73.0665 66.2863 74.223 66.5423 75.2682 67.0855C77.4655 67.9003 79.4602 69.3407 81.032 71.1072C82.6304 72.8704 83.7369 75.0198 84.4938 77.2427C85.9731 81.7308 86.0488 86.5429 85.2596 91.1412C84.8099 93.4364 84.1832 95.7161 83.0222 97.8233C82.7373 98.3509 82.3855 98.8562 81.9748 99.3326C81.5351 99.7801 81.0297 100.273 80.2316 100.403C79.8042 100.442 79.4558 100.372 79.1296 100.241C78.8002 100.104 78.4785 99.9048 78.2425 99.6354C77.7471 99.1067 77.519 98.4399 77.4243 97.8121C77.2462 96.5387 77.4967 95.3187 77.8919 94.1822C78.3026 93.048 78.887 91.9849 79.6328 91.0432C81.0899 89.1487 83.2794 87.7261 85.6893 87.4089C88.0769 87.0749 90.5592 87.6794 92.5283 89.0196C94.4907 90.3876 95.92 92.3411 96.963 94.4126C97.9971 96.502 98.6805 98.7349 99.1325 100.998C99.5833 103.265 99.7937 105.577 99.7124 107.876Z" fill="#1F4779"/>
<path d="M345.509 165.941C341.025 164.994 336.313 164.863 331.909 165.998C329.725 166.573 327.606 167.52 325.974 169.039C324.37 170.562 323.35 172.688 323.186 174.869C323.012 177.056 323.833 179.237 325.208 180.938C325.891 181.797 326.723 182.539 327.639 183.135C328.554 183.718 329.584 184.17 330.604 184.257C331.108 184.298 331.603 184.228 331.974 184.009C332.168 183.91 332.313 183.753 332.441 183.581C332.512 183.501 332.544 183.387 332.602 183.294C332.649 183.196 332.633 183.12 332.668 183.037C332.705 182.266 331.904 181.311 331.122 180.605C329.484 179.129 327.47 178.025 325.417 177.107C321.293 175.304 316.743 174.258 312.258 174.602C310.029 174.793 307.811 175.321 305.847 176.378C303.889 177.43 302.133 178.865 300.823 180.714C300.058 181.552 299.545 182.561 298.956 183.52C298.631 183.986 298.488 184.542 298.245 185.05C298.043 185.575 297.757 186.071 297.642 186.628C296.924 188.775 296.712 191.058 296.718 193.324C296.826 197.877 298.17 202.385 300.3 206.448C299.094 204.488 298.18 202.352 297.471 200.156C296.784 197.954 296.281 195.672 296.173 193.344C296.106 191.026 296.278 188.667 296.97 186.422C297.079 185.843 297.361 185.32 297.559 184.769C297.799 184.236 297.941 183.653 298.265 183.161C298.852 182.148 299.371 181.083 300.144 180.193C301.449 178.246 303.315 176.643 305.399 175.527C307.487 174.384 309.834 173.809 312.173 173.592C316.882 173.201 321.58 174.25 325.867 176.09C327.994 177.063 330.064 178.204 331.842 179.826C332.288 180.225 332.698 180.685 333.065 181.197C333.398 181.729 333.759 182.336 333.7 183.142C333.638 183.566 333.488 183.89 333.286 184.176C333.075 184.464 332.807 184.73 332.49 184.897C331.861 185.255 331.158 185.321 330.525 185.268C329.245 185.143 328.117 184.615 327.106 183.965C326.099 183.301 325.201 182.485 324.459 181.54C322.956 179.681 322.084 177.22 322.338 174.803C322.571 172.404 323.737 170.13 325.499 168.529C327.287 166.94 329.52 166.006 331.778 165.475C334.051 164.958 336.382 164.813 338.689 164.902C340.995 164.99 343.291 165.325 345.509 165.941Z" fill="#1F4779"/>
<path d="M276.595 93.9221C275.834 91.2851 275.731 88.4644 276.16 85.7406C276.586 83.0168 277.509 80.3375 279.016 77.9911C280.501 75.6413 282.573 73.6109 285.078 72.3164C287.577 71.0118 290.425 70.4463 293.228 70.5309C296.039 70.6077 298.802 71.3346 301.344 72.4956C303.877 73.6722 306.257 75.2617 308.099 77.4479C308.978 78.5488 309.825 79.8322 309.876 81.444C309.899 82.2399 309.576 83.0903 309.005 83.6669C308.439 84.2079 307.822 84.6476 307.044 84.8735C306.278 85.1084 305.426 85.0505 304.697 84.7722C303.964 84.4962 303.346 84.0431 302.81 83.5422C301.743 82.5248 300.987 81.2937 300.363 80.0292C299.123 77.4857 298.47 74.7274 298.156 71.9602C297.849 69.1874 297.929 66.3723 298.411 63.6218C299.342 58.1363 302.17 52.839 306.672 49.4462C308.904 47.7798 311.416 46.4307 314.128 45.7439C316.821 45.0082 319.655 44.8779 322.402 45.213C325.155 45.5536 327.827 46.3517 330.352 47.4414C332.878 48.5323 335.289 49.8925 337.465 51.5622C332.944 48.5034 327.747 46.3127 322.34 45.7784C319.65 45.5046 316.905 45.6883 314.322 46.4485C311.723 47.1609 309.338 48.5067 307.221 50.1519C305.128 51.8271 303.348 53.8875 302.046 56.2307C300.733 58.5682 299.876 61.1507 299.423 63.7988C298.556 69.0839 299.116 74.7129 301.349 79.5517C301.924 80.7416 302.629 81.8848 303.548 82.7675C304.45 83.648 305.64 84.2235 306.754 83.8706C307.302 83.727 307.841 83.3508 308.261 82.9523C308.655 82.5471 308.86 82.025 308.855 81.4495C308.84 80.2808 308.136 79.0886 307.323 78.0857C305.637 76.0598 303.358 74.507 300.94 73.3738C298.509 72.2463 295.867 71.5572 293.196 71.4359C290.529 71.3135 287.824 71.8266 285.432 73.0121C283.035 74.1853 281.007 76.0787 279.519 78.3206C276.547 82.8076 275.383 88.5713 276.595 93.9221Z" fill="#1F4779"/>
<path d="M147.489 376.933C144.994 376.147 142.337 377.532 141.551 380.024C140.764 382.521 142.15 385.176 144.644 385.963C147.137 386.749 149.792 385.365 150.577 382.87C151.363 380.378 149.981 377.719 147.489 376.933ZM150.029 382.697C149.339 384.889 147.005 386.104 144.816 385.414C142.626 384.724 141.411 382.392 142.102 380.2C142.792 378.011 145.124 376.795 147.316 377.486C149.503 378.174 150.719 380.507 150.029 382.697ZM147.489 376.933C144.994 376.147 142.337 377.532 141.551 380.024C140.764 382.521 142.15 385.176 144.644 385.963C147.137 386.749 149.792 385.365 150.577 382.87C151.363 380.378 149.981 377.719 147.489 376.933ZM150.029 382.697C149.339 384.889 147.005 386.104 144.816 385.414C142.626 384.724 141.411 382.392 142.102 380.2C142.792 378.011 145.124 376.795 147.316 377.486C149.503 378.174 150.719 380.507 150.029 382.697ZM147.489 376.933C144.994 376.147 142.337 377.532 141.551 380.024C140.764 382.521 142.15 385.176 144.644 385.963C147.137 386.749 149.792 385.365 150.577 382.87C151.363 380.378 149.981 377.719 147.489 376.933ZM150.029 382.697C149.339 384.889 147.005 386.104 144.816 385.414C142.626 384.724 141.411 382.392 142.102 380.2C142.792 378.011 145.124 376.795 147.316 377.486C149.503 378.174 150.719 380.507 150.029 382.697ZM149.066 371.933C143.806 370.277 138.206 373.199 136.55 378.45C134.895 383.704 137.811 389.309 143.067 390.964C148.319 392.618 153.923 389.701 155.579 384.446C157.236 379.194 154.319 373.587 149.066 371.933ZM151.281 383.091C150.374 385.969 147.298 387.572 144.423 386.666C141.548 385.76 139.944 382.683 140.851 379.806C141.758 376.929 144.836 375.328 147.711 376.234C150.584 377.139 152.187 380.215 151.281 383.091ZM150.577 382.87C151.363 380.378 149.981 377.719 147.489 376.933C144.994 376.147 142.337 377.532 141.551 380.024C140.764 382.521 142.15 385.176 144.644 385.963C147.137 386.749 149.792 385.365 150.577 382.87ZM150.029 382.697C149.339 384.889 147.005 386.104 144.816 385.414C142.626 384.724 141.411 382.392 142.102 380.2C142.792 378.011 145.124 376.795 147.316 377.486C149.503 378.174 150.719 380.507 150.029 382.697ZM147.489 376.933C144.994 376.147 142.337 377.532 141.551 380.024C140.764 382.521 142.15 385.176 144.644 385.963C147.137 386.749 149.792 385.365 150.577 382.87C151.363 380.378 149.981 377.719 147.489 376.933ZM150.029 382.697C149.339 384.889 147.005 386.104 144.816 385.414C142.626 384.724 141.411 382.392 142.102 380.2C142.792 378.011 145.124 376.795 147.316 377.486C149.503 378.174 150.719 380.507 150.029 382.697ZM147.489 376.933C144.994 376.147 142.337 377.532 141.551 380.024C140.764 382.521 142.15 385.176 144.644 385.963C147.137 386.749 149.792 385.365 150.577 382.87C151.363 380.378 149.981 377.719 147.489 376.933ZM150.029 382.697C149.339 384.889 147.005 386.104 144.816 385.414C142.626 384.724 141.411 382.392 142.102 380.2C142.792 378.011 145.124 376.795 147.316 377.486C149.503 378.174 150.719 380.507 150.029 382.697Z" fill="#455A64"/>
<path d="M145.021 391.144L141.362 389.991L140.749 392.644L144.002 393.67L145.021 391.144Z" fill="#455A64"/>
<path d="M138.446 387.717L136.673 384.315L134.364 385.758L135.939 388.784L138.446 387.717Z" fill="#455A64"/>
<path d="M136.219 380.645L137.372 376.987L134.719 376.372L133.694 379.627L136.219 380.645Z" fill="#455A64"/>
<path d="M139.646 374.069L143.048 372.298L141.606 369.987L138.58 371.564L139.646 374.069Z" fill="#455A64"/>
<path d="M146.718 371.844L150.377 372.996L150.992 370.342L147.737 369.317L146.718 371.844Z" fill="#455A64"/>
<path d="M153.293 375.27L155.066 378.673L157.376 377.23L155.8 374.204L153.293 375.27Z" fill="#455A64"/>
<path d="M155.521 382.343L154.368 386.002L157.021 386.615L158.047 383.361L155.521 382.343Z" fill="#455A64"/>
<path d="M152.093 388.918L148.691 390.69L150.133 393L153.16 391.425L152.093 388.918Z" fill="#455A64"/>
<path d="M332.044 345.129C337.062 338.367 335.649 328.817 328.887 323.799C322.124 318.78 312.572 320.194 307.556 326.953C302.536 333.717 303.95 343.269 310.713 348.288C317.473 353.306 327.025 351.892 332.044 345.129ZM325.518 340.285C323.173 343.446 318.715 344.106 315.557 341.762C312.397 339.417 311.736 334.959 314.082 331.798C316.425 328.64 320.884 327.98 324.044 330.325C327.201 332.669 327.861 337.127 325.518 340.285Z" fill="#1F4779"/>
<path d="M313.443 349.526L308.735 346.032L306.522 349.558L310.709 352.666L313.443 349.526Z" fill="#1F4779"/>
<path d="M305.659 341.288L304.8 335.488L300.741 336.416L301.505 341.575L305.659 341.288Z" fill="#1F4779"/>
<path d="M305.978 329.959L309.474 325.251L305.947 323.037L302.839 327.225L305.978 329.959Z" fill="#1F4779"/>
<path d="M314.216 322.174L320.017 321.316L319.089 317.257L313.929 318.021L314.216 322.174Z" fill="#1F4779"/>
<path d="M325.546 322.494L330.254 325.988L332.467 322.463L328.28 319.354L325.546 322.494Z" fill="#1F4779"/>
<path d="M333.33 330.732L334.189 336.532L338.247 335.604L337.483 330.446L333.33 330.732Z" fill="#1F4779"/>
<path d="M333.011 342.061L329.515 346.77L333.042 348.984L336.15 344.795L333.011 342.061Z" fill="#1F4779"/>
<path d="M324.772 349.846L318.972 350.704L319.9 354.763L325.059 353.999L324.772 349.846Z" fill="#1F4779"/>
<path d="M314.338 336.774L317.577 340.859L322.735 340.093L324.65 335.248L321.414 331.165L316.256 331.926L314.338 336.774ZM320.478 334.684C321.213 335.229 321.365 336.261 320.82 336.996C320.276 337.727 319.242 337.883 318.508 337.337C317.776 336.794 317.623 335.757 318.166 335.025C318.711 334.291 319.747 334.14 320.478 334.684Z" fill="#1F4779"/>
<path d="M343.475 48.2048C341.292 47.5168 338.967 48.729 338.279 50.9096C337.591 53.0947 338.803 55.4178 340.986 56.1057C343.167 56.7936 345.49 55.5825 346.178 53.3997C346.866 51.2191 345.656 48.8927 343.475 48.2048ZM345.698 53.2472C345.094 55.1651 343.053 56.2281 341.137 55.6248C339.221 55.0215 338.158 52.98 338.761 51.0621C339.364 49.1465 341.406 48.0834 343.324 48.6867C345.238 49.2912 346.303 51.3326 345.698 53.2472ZM343.475 48.2048C341.292 47.5168 338.967 48.729 338.279 50.9096C337.591 53.0947 338.803 55.4178 340.986 56.1057C343.167 56.7936 345.49 55.5825 346.178 53.3997C346.866 51.2191 345.656 48.8927 343.475 48.2048ZM345.698 53.2472C345.094 55.1651 343.053 56.2281 341.137 55.6248C339.221 55.0215 338.158 52.98 338.761 51.0621C339.364 49.1465 341.406 48.0834 343.324 48.6867C345.238 49.2912 346.303 51.3326 345.698 53.2472ZM343.475 48.2048C341.292 47.5168 338.967 48.729 338.279 50.9096C337.591 53.0947 338.803 55.4178 340.986 56.1057C343.167 56.7936 345.49 55.5825 346.178 53.3997C346.866 51.2191 345.656 48.8927 343.475 48.2048ZM345.698 53.2472C345.094 55.1651 343.053 56.2281 341.137 55.6248C339.221 55.0215 338.158 52.98 338.761 51.0621C339.364 49.1465 341.406 48.0834 343.324 48.6867C345.238 49.2912 346.303 51.3326 345.698 53.2472ZM344.855 43.8291C340.254 42.3798 335.353 44.9366 333.903 49.5316C332.455 54.1299 335.007 59.0332 339.607 60.4814C344.203 61.9295 349.107 59.376 350.555 54.7777C352.005 50.1828 349.452 45.2772 344.855 43.8291ZM346.795 53.5923C346.001 56.1101 343.309 57.5138 340.793 56.7201C338.276 55.9265 336.873 53.235 337.667 50.7171C338.461 48.1992 341.154 46.7978 343.67 47.5914C346.185 48.3851 347.587 51.0766 346.795 53.5923ZM346.179 53.3997C346.867 51.2191 345.657 48.8915 343.476 48.2048C341.294 47.5168 338.968 48.729 338.28 50.9096C337.592 53.0947 338.805 55.4178 340.987 56.1057C343.168 56.7936 345.491 55.5825 346.179 53.3997ZM345.698 53.2472C345.094 55.1651 343.053 56.2281 341.137 55.6248C339.221 55.0215 338.158 52.98 338.761 51.0621C339.364 49.1465 341.406 48.0834 343.324 48.6867C345.238 49.2912 346.303 51.3326 345.698 53.2472ZM343.475 48.2048C341.292 47.5168 338.967 48.729 338.279 50.9096C337.591 53.0947 338.803 55.4178 340.986 56.1057C343.167 56.7936 345.49 55.5825 346.178 53.3997C346.866 51.2191 345.656 48.8927 343.475 48.2048ZM345.698 53.2472C345.094 55.1651 343.053 56.2281 341.137 55.6248C339.221 55.0215 338.158 52.98 338.761 51.0621C339.364 49.1465 341.406 48.0834 343.324 48.6867C345.238 49.2912 346.303 51.3326 345.698 53.2472ZM343.475 48.2048C341.292 47.5168 338.967 48.729 338.279 50.9096C337.591 53.0947 338.803 55.4178 340.986 56.1057C343.167 56.7936 345.49 55.5825 346.178 53.3997C346.866 51.2191 345.656 48.8927 343.475 48.2048ZM345.698 53.2472C345.094 55.1651 343.053 56.2281 341.137 55.6248C339.221 55.0215 338.158 52.98 338.761 51.0621C339.364 49.1465 341.406 48.0834 343.324 48.6867C345.238 49.2912 346.303 51.3326 345.698 53.2472Z" fill="#1F4779"/>
<path d="M341.316 60.6405L338.114 59.6309L337.578 61.9528L340.425 62.85L341.316 60.6405Z" fill="#1F4779"/>
<path d="M335.562 57.6422L334.011 54.6646L331.99 55.9268L333.369 58.5749L335.562 57.6422Z" fill="#1F4779"/>
<path d="M333.614 51.4528L334.624 48.2515L332.302 47.7139L331.405 50.5612L333.614 51.4528Z" fill="#1F4779"/>
<path d="M336.613 45.699L339.59 44.1484L338.328 42.127L335.68 43.5061L336.613 45.699Z" fill="#1F4779"/>
<path d="M342.802 43.7512L346.003 44.7597L346.541 42.4377L343.693 41.5405L342.802 43.7512Z" fill="#1F4779"/>
<path d="M348.555 46.7497L350.106 49.7262L352.127 48.4639L350.748 45.8169L348.555 46.7497Z" fill="#1F4779"/>
<path d="M350.503 52.939L349.495 56.1403L351.817 56.6768L352.714 53.8295L350.503 52.939Z" fill="#1F4779"/>
<path d="M347.505 58.6929L344.528 60.2423L345.789 62.2649L348.437 60.8857L347.505 58.6929Z" fill="#1F4779"/>
<path d="M300.937 207.231C298.754 206.543 296.429 207.755 295.741 209.936C295.053 212.121 296.265 214.444 298.448 215.132C300.629 215.82 302.952 214.609 303.64 212.426C304.327 210.245 303.118 207.919 300.937 207.231ZM303.159 212.275C302.555 214.193 300.514 215.256 298.598 214.652C296.683 214.049 295.62 212.008 296.223 210.09C296.826 208.174 298.868 207.111 300.786 207.714C302.699 208.318 303.763 210.359 303.159 212.275ZM300.937 207.231C298.754 206.543 296.429 207.755 295.741 209.936C295.053 212.121 296.265 214.444 298.448 215.132C300.629 215.82 302.952 214.609 303.64 212.426C304.327 210.245 303.118 207.919 300.937 207.231ZM303.159 212.275C302.555 214.193 300.514 215.256 298.598 214.652C296.683 214.049 295.62 212.008 296.223 210.09C296.826 208.174 298.868 207.111 300.786 207.714C302.699 208.318 303.763 210.359 303.159 212.275ZM300.937 207.231C298.754 206.543 296.429 207.755 295.741 209.936C295.053 212.121 296.265 214.444 298.448 215.132C300.629 215.82 302.952 214.609 303.64 212.426C304.327 210.245 303.118 207.919 300.937 207.231ZM303.159 212.275C302.555 214.193 300.514 215.256 298.598 214.652C296.683 214.049 295.62 212.008 296.223 210.09C296.826 208.174 298.868 207.111 300.786 207.714C302.699 208.318 303.763 210.359 303.159 212.275ZM302.317 202.855C297.716 201.406 292.815 203.963 291.365 208.558C289.917 213.156 292.469 218.06 297.069 219.508C301.665 220.956 306.568 218.402 308.017 213.804C309.466 209.209 306.912 204.304 302.317 202.855ZM304.255 212.619C303.462 215.137 300.77 216.54 298.253 215.746C295.738 214.954 294.334 212.261 295.128 209.743C295.921 207.226 298.615 205.824 301.131 206.618C303.645 207.411 305.048 210.103 304.255 212.619ZM303.64 212.427C304.328 210.247 303.118 207.919 300.937 207.232C298.754 206.544 296.429 207.757 295.741 209.937C295.053 212.122 296.265 214.445 298.448 215.133C300.629 215.82 302.952 214.609 303.64 212.427ZM303.159 212.275C302.555 214.193 300.514 215.256 298.598 214.652C296.683 214.049 295.62 212.008 296.223 210.09C296.826 208.174 298.868 207.111 300.786 207.714C302.699 208.318 303.763 210.359 303.159 212.275ZM300.937 207.231C298.754 206.543 296.429 207.755 295.741 209.936C295.053 212.121 296.265 214.444 298.448 215.132C300.629 215.82 302.952 214.609 303.64 212.426C304.327 210.245 303.118 207.919 300.937 207.231ZM303.159 212.275C302.555 214.193 300.514 215.256 298.598 214.652C296.683 214.049 295.62 212.008 296.223 210.09C296.826 208.174 298.868 207.111 300.786 207.714C302.699 208.318 303.763 210.359 303.159 212.275ZM300.937 207.231C298.754 206.543 296.429 207.755 295.741 209.936C295.053 212.121 296.265 214.444 298.448 215.132C300.629 215.82 302.952 214.609 303.64 212.426C304.327 210.245 303.118 207.919 300.937 207.231ZM303.159 212.275C302.555 214.193 300.514 215.256 298.598 214.652C296.683 214.049 295.62 212.008 296.223 210.09C296.826 208.174 298.868 207.111 300.786 207.714C302.699 208.318 303.763 210.359 303.159 212.275Z" fill="#1F4779"/>
<path d="M298.776 219.667L295.575 218.657L295.039 220.979L297.886 221.876L298.776 219.667Z" fill="#1F4779"/>
<path d="M293.023 216.669L291.473 213.691L289.451 214.953L290.83 217.601L293.023 216.669Z" fill="#1F4779"/>
<path d="M291.075 210.479L292.084 207.278L289.762 206.74L288.865 209.588L291.075 210.479Z" fill="#1F4779"/>
<path d="M294.074 204.725L297.051 203.175L295.789 201.153L293.141 202.532L294.074 204.725Z" fill="#1F4779"/>
<path d="M300.262 202.778L303.464 203.786L304.001 201.464L301.154 200.567L300.262 202.778Z" fill="#1F4779"/>
<path d="M306.016 205.776L307.567 208.753L309.588 207.49L308.209 204.843L306.016 205.776Z" fill="#1F4779"/>
<path d="M307.964 211.965L306.956 215.167L309.278 215.703L310.175 212.856L307.964 211.965Z" fill="#1F4779"/>
<path d="M304.965 217.719L301.989 219.27L303.25 221.291L305.898 219.912L304.965 217.719Z" fill="#1F4779"/>
<path d="M57.4895 82.0357C59.2059 74.9918 54.8859 67.889 47.8421 66.1726C40.796 64.4561 33.6921 68.7761 31.9767 75.82C30.2603 82.866 34.5803 89.97 41.6264 91.6864C48.6702 93.4018 55.7731 89.0817 57.4895 82.0357ZM50.6906 80.3793C49.888 83.6719 46.5731 85.6889 43.2827 84.8864C39.9901 84.0838 37.9731 80.7689 38.7757 77.4763C39.5771 74.187 42.8931 72.1701 46.1858 72.9726C49.475 73.773 51.492 77.0889 50.6906 80.3793Z" fill="#1F4779"/>
<path d="M44.2065 91.7536L39.3009 90.5581L38.7266 94.0967L43.0889 95.1597L44.2065 91.7536Z" fill="#1F4779"/>
<path d="M35.2727 87.8256L32.6491 83.5122L29.7405 85.6082L32.0736 89.444L35.2727 87.8256Z" fill="#1F4779"/>
<path d="M31.7318 78.7314L32.9273 73.8258L29.3887 73.2515L28.3257 77.6138L31.7318 78.7314Z" fill="#1F4779"/>
<path d="M35.66 69.7974L39.9733 67.1737L37.8784 64.2651L34.0415 66.5982L35.66 69.7974Z" fill="#1F4779"/>
<path d="M44.7542 66.2562L49.6597 67.4517L50.2352 63.9131L45.8717 62.8501L44.7542 66.2562Z" fill="#1F4779"/>
<path d="M53.688 70.1844L56.3116 74.4977L59.2202 72.4028L56.8871 68.5659L53.688 70.1844Z" fill="#1F4779"/>
<path d="M57.2292 79.2783L56.0337 84.1838L59.5723 84.7593L60.6353 80.3959L57.2292 79.2783Z" fill="#1F4779"/>
<path d="M53.3009 88.2129L48.9875 90.8365L51.0836 93.7451L54.9205 91.412L53.3009 88.2129Z" fill="#1F4779"/>
<path d="M40.6458 81.338L44.5829 83.4942L48.4176 81.1588L48.3141 76.6741L44.3792 74.519L40.5422 76.8499L40.6458 81.338ZM44.8166 77.6224C45.5825 77.8094 46.0489 78.5764 45.8618 79.3422C45.676 80.1047 44.9079 80.5744 44.1421 80.3874C43.3796 80.2015 42.911 79.4301 43.0968 78.6676C43.2839 77.9029 44.0541 77.4377 44.8166 77.6224Z" fill="#1F4779"/>
</g>
<defs>
<clipPath id="clip0_1312_227">
<rect width="460" height="457.395" fill="white"/>
</clipPath>
</defs>
</svg>
