<svg width="59" height="13" viewBox="0 0 59 13" fill="none" xmlns="http://www.w3.org/2000/svg">
<path d="M7.68599e-05 -0.000187559C2.57885 4.85709 16.3462 11.3207 26.1622 12.4681C36.7684 13.7302 42.8826 12.6593 55.3605 7.26661C55.1942 8.03154 54.9862 8.64348 54.903 9.21718C54.7782 9.86736 54.6535 10.5558 54.695 11.206C54.695 11.3972 55.0694 11.7414 55.3189 11.7797C55.5685 11.8179 55.9844 11.5502 56.0676 11.359C56.8163 9.52315 57.4818 7.68732 58.1889 5.81325C58.3968 5.20131 58.1473 4.74236 57.4402 4.55113C54.7366 3.93918 52.0331 3.289 49.2879 2.7153C48.664 2.60056 47.9154 2.75355 47.0835 2.75355C47.749 4.39814 49.2463 4.20691 50.3278 4.62762C51.4508 5.08657 52.657 5.3543 54.1127 5.81325C50.6605 7.95505 47.1667 9.29367 43.4649 10.1351C29.9055 13.2713 17.4276 10.6705 5.90631 3.7097C4.40896 2.79179 3.03639 1.7209 1.58062 0.764738C1.1231 0.573508 0.707161 0.382276 7.68599e-05 -0.000187559Z" fill="#163A65"/>
</svg>
