<svg width="59" height="13" viewBox="0 0 59 13" fill="none" xmlns="http://www.w3.org/2000/svg">
<path d="M-0.000221989 12.942C2.70721 8.15525 16.6421 2.06119 26.4852 1.17607C37.1213 0.197326 43.2048 1.43095 55.5344 7.15463C55.3885 6.38554 55.1969 5.76827 55.1291 5.19256C55.0217 4.53927 54.9153 3.84776 54.9742 3.19891C54.9793 3.00775 55.3627 2.67364 55.6132 2.64206C55.8637 2.61049 56.2723 2.88921 56.3504 3.0826C57.0498 4.93774 57.6661 6.79066 58.3229 8.68293C58.5145 9.3002 58.2528 9.75233 57.5409 9.92463C54.8219 10.4642 52.102 11.0421 49.3425 11.5423C48.7158 11.6404 47.9715 11.4675 47.1399 11.4453C47.849 9.81903 49.3408 10.0501 50.433 9.65843C51.5679 9.2296 52.7808 8.99415 54.2483 8.57419C50.8544 6.34106 47.3975 4.90971 43.7195 3.96984C30.2486 0.47304 17.7058 2.73999 6.00287 9.391C4.48157 10.2686 3.08092 11.3025 1.60017 12.2195C1.13771 12.3985 0.716814 12.5785 -0.000221989 12.942Z" fill="#153862"/>
</svg>
