<svg width="761" height="531" viewBox="0 0 761 531" fill="none" xmlns="http://www.w3.org/2000/svg">
<path d="M694.844 205.116H678.842C678.959 204.411 679.059 203.699 679.059 202.958C679.059 195.627 673.118 189.686 665.787 189.686C663.254 189.686 660.915 190.431 658.901 191.664C659.405 189.298 659.683 186.849 659.683 184.333C659.683 164.993 644.005 149.319 624.665 149.319C605.325 149.319 589.648 164.996 589.648 184.333C589.648 186.976 589.965 189.542 590.52 192.018C588.385 190.551 585.809 189.689 583.022 189.689C575.691 189.689 569.75 195.63 569.75 202.961C569.75 203.699 569.85 204.411 569.967 205.119H538.351C533.864 205.119 530.192 208.792 530.192 213.279C530.192 217.766 533.864 221.439 538.351 221.439H694.837C699.324 221.439 702.996 217.766 702.996 213.279C703.006 208.788 699.334 205.116 694.844 205.116ZM596.14 204.581C596.267 204.762 596.407 204.936 596.538 205.113H596.087C596.113 204.939 596.117 204.759 596.14 204.581Z" fill="#1F4779"/>
<path d="M103.067 378.491H93.0499C93.1234 378.05 93.1869 377.603 93.1869 377.142C93.1869 372.554 89.4679 368.832 84.8769 368.832C83.2931 368.832 81.8263 369.299 80.5666 370.068C80.8807 368.588 81.0578 367.054 81.0578 365.477C81.0578 353.371 71.2442 343.558 59.1385 343.558C47.0328 343.558 37.2193 353.371 37.2193 365.477C37.2193 367.131 37.4198 368.738 37.7673 370.288C36.4307 369.37 34.8168 368.832 33.0727 368.832C28.485 368.832 24.7627 372.551 24.7627 377.142C24.7627 377.603 24.8262 378.05 24.8997 378.491H5.10892C2.29885 378.491 0 380.79 0 383.6C0 386.41 2.29885 388.709 5.10892 388.709H103.067C105.877 388.709 108.176 386.41 108.176 383.6C108.173 380.79 105.874 378.491 103.067 378.491ZM41.279 378.161C41.3592 378.274 41.4461 378.381 41.5296 378.495H41.2456C41.2623 378.384 41.2623 378.271 41.279 378.161Z" fill="#1F4779"/>
<path d="M80.1756 247.571H137.864C143.654 247.571 148.393 242.833 148.393 237.042C148.393 231.252 143.654 226.51 137.864 226.51H80.1756C74.385 226.51 69.647 231.248 69.647 237.042C69.647 242.829 74.385 247.571 80.1756 247.571Z" fill="#1F4779"/>
<path d="M300.417 202.833H358.106C363.896 202.833 368.634 198.095 368.634 192.304C368.634 186.514 363.896 181.776 358.106 181.776H300.417C294.627 181.776 289.889 186.514 289.889 192.304C289.885 198.095 294.623 202.833 300.417 202.833Z" fill="#1F4779"/>
<path d="M692.765 347.838H750.453C756.244 347.838 760.982 343.1 760.982 337.309C760.982 331.519 756.244 326.777 750.453 326.777H692.765C686.974 326.777 682.236 331.515 682.236 337.309C682.236 343.096 686.974 347.838 692.765 347.838Z" fill="#1F4779"/>
<path d="M615.847 444.44H673.535C679.326 444.44 684.064 439.702 684.064 433.908C684.064 428.117 679.326 423.379 673.535 423.379H615.847C610.056 423.379 605.318 428.117 605.318 433.908C605.318 439.702 610.056 444.44 615.847 444.44Z" fill="#1F4779"/>
<g clip-path="url(#clip0_1228_8515)">
<path d="M567.103 487.227H561.293C560.73 487.227 560.276 486.771 560.276 486.211V170.919C560.276 170.356 560.733 169.902 561.293 169.902H567.103C567.665 169.902 568.119 170.359 568.119 170.919V486.211C568.119 486.771 567.665 487.227 567.103 487.227Z" fill="#505050"/>
<path d="M494.88 130.956L562.496 198.574C563.385 199.463 564.826 199.463 565.716 198.574L633.331 130.956C634.221 130.067 634.221 128.625 633.331 127.736L565.716 60.1201C564.826 59.2308 563.385 59.2308 562.496 60.1201L494.88 127.736C493.991 128.625 493.991 130.067 494.88 130.956Z" fill="#E0AF7F"/>
<path d="M564.11 142.397C567.507 142.397 570.333 145.225 570.333 148.622C570.333 152.088 567.507 154.847 564.11 154.847C560.641 154.847 557.883 152.088 557.883 148.622C557.88 145.225 560.641 142.397 564.11 142.397ZM558.803 101.086H569.415L567.999 137.94H560.221L558.803 101.086Z" fill="#224769"/>
<path d="M68.2964 111.659L169.616 6.99223C173.718 2.75588 179.961 1.38956 185.457 3.52848L374.47 77.045" stroke="#666666" stroke-width="2.59263" stroke-miterlimit="10" stroke-linecap="round"/>
<path d="M169.383 7.00528C169.383 10.8735 172.52 14.0106 176.389 14.0106C180.257 14.0106 183.394 10.8735 183.394 7.00528C183.391 3.13708 180.257 0 176.389 0C172.52 0 169.383 3.13708 169.383 7.00528Z" fill="#3971B7"/>
<path d="M370.467 84.0478C370.467 87.916 373.604 91.053 377.473 91.053C381.341 91.053 384.478 87.916 384.478 84.0478C384.478 80.1796 381.341 77.0425 377.473 77.0425C373.602 77.0451 370.467 80.1796 370.467 84.0478Z" fill="#3971B7"/>
<path d="M619.886 509.834H126.802C120.548 509.834 115.433 504.719 115.433 498.466C115.433 492.212 120.548 487.097 126.802 487.097H619.886C626.139 487.097 631.255 492.212 631.255 498.466C631.255 504.719 626.137 509.834 619.886 509.834Z" fill="#666666"/>
<path d="M213.989 469.849H523.629C528.532 469.849 532.506 465.874 532.506 460.971V235.379C532.506 230.476 528.532 226.502 523.629 226.502H213.989C209.086 226.502 205.112 230.476 205.112 235.379V460.971C205.112 465.874 209.086 469.849 213.989 469.849Z" fill="white"/>
<path d="M532.506 251.612V235.379C532.506 230.476 528.532 226.502 523.629 226.502H213.989C209.086 226.502 205.112 230.476 205.112 235.379V251.612H532.506Z" fill="#E0AF7F"/>
<path d="M502.902 242.877C505.721 242.877 508.007 240.591 508.007 237.772C508.007 234.953 505.721 232.667 502.902 232.667C500.082 232.667 497.797 234.953 497.797 237.772C497.797 240.591 500.082 242.877 502.902 242.877Z" fill="#E4E4E4"/>
<path d="M490.752 242.877C493.571 242.877 495.857 240.591 495.857 237.772C495.857 234.953 493.571 232.667 490.752 232.667C487.933 232.667 485.647 234.953 485.647 237.772C485.647 240.591 487.933 242.877 490.752 242.877Z" fill="#E4E4E4"/>
<path d="M515.219 242.877C518.039 242.877 520.324 240.591 520.324 237.772C520.324 234.953 518.039 232.667 515.219 232.667C512.4 232.667 510.114 234.953 510.114 237.772C510.114 240.591 512.4 242.877 515.219 242.877Z" fill="#7F7F7F"/>
<path d="M314.549 288.673H521.92C522.846 288.673 523.595 287.924 523.595 286.999V263.434C523.595 262.509 522.846 261.759 521.92 261.759H314.549C313.623 261.759 312.874 262.509 312.874 263.434V286.999C312.874 287.924 313.623 288.673 314.549 288.673Z" fill="#E4E4E4"/>
<path d="M219.568 448.77H304.329C305.413 448.77 306.291 447.891 306.291 446.807V296.648C306.291 295.564 305.413 294.688 304.329 294.688H219.568C218.484 294.688 217.605 295.566 217.605 296.648V446.81C217.608 447.894 218.487 448.77 219.568 448.77Z" stroke="#F1F1F1" stroke-width="2.59263" stroke-miterlimit="10"/>
<path d="M219.272 288.673H302.732C303.657 288.673 304.407 287.924 304.407 286.999V263.434C304.407 262.509 303.657 261.759 302.732 261.759H219.272C218.347 261.759 217.598 262.509 217.598 263.434V286.999C217.598 287.924 218.347 288.673 219.272 288.673Z" fill="#E4E4E4"/>
<path d="M296.268 312.373H225.892C225.402 312.373 225.005 311.976 225.005 311.486V306.762C225.005 306.272 225.402 305.875 225.892 305.875H296.268C296.758 305.875 297.155 306.272 297.155 306.762V311.486C297.155 311.976 296.758 312.373 296.268 312.373Z" fill="#E4E4E4"/>
<path d="M296.268 321.947H225.892C225.402 321.947 225.005 321.551 225.005 321.061V316.337C225.005 315.847 225.402 315.45 225.892 315.45H296.268C296.758 315.45 297.155 315.847 297.155 316.337V321.061C297.155 321.551 296.758 321.947 296.268 321.947Z" fill="#E4E4E4"/>
<path d="M296.268 331.522H225.892C225.402 331.522 225.005 331.125 225.005 330.635V325.911C225.005 325.421 225.402 325.024 225.892 325.024H296.268C296.758 325.024 297.155 325.421 297.155 325.911V330.635C297.155 331.125 296.758 331.522 296.268 331.522Z" fill="#E4E4E4"/>
<path d="M296.268 341.095H225.892C225.402 341.095 225.005 340.699 225.005 340.209V335.485C225.005 334.995 225.402 334.598 225.892 334.598H296.268C296.758 334.598 297.155 334.995 297.155 335.485V340.209C297.155 340.699 296.758 341.095 296.268 341.095Z" fill="#E4E4E4"/>
<path d="M296.268 350.671H225.892C225.402 350.671 225.005 350.274 225.005 349.784V345.06C225.005 344.57 225.402 344.174 225.892 344.174H296.268C296.758 344.174 297.155 344.57 297.155 345.06V349.784C297.155 350.274 296.758 350.671 296.268 350.671Z" fill="#E4E4E4"/>
<path d="M296.268 360.245H225.892C225.402 360.245 225.005 359.849 225.005 359.358V354.635C225.005 354.145 225.402 353.748 225.892 353.748H296.268C296.758 353.748 297.155 354.145 297.155 354.635V359.358C297.155 359.846 296.758 360.245 296.268 360.245Z" fill="#E4E4E4"/>
<path d="M296.268 369.817H225.892C225.402 369.817 225.005 369.42 225.005 368.93V364.206C225.005 363.716 225.402 363.32 225.892 363.32H296.268C296.758 363.32 297.155 363.716 297.155 364.206V368.93C297.155 369.42 296.758 369.817 296.268 369.817Z" fill="#E4E4E4"/>
<path d="M296.268 379.391H225.892C225.402 379.391 225.005 378.995 225.005 378.504V373.781C225.005 373.291 225.402 372.894 225.892 372.894H296.268C296.758 372.894 297.155 373.291 297.155 373.781V378.504C297.155 378.995 296.758 379.391 296.268 379.391Z" fill="#E4E4E4"/>
<path d="M296.268 388.967H225.892C225.402 388.967 225.005 388.57 225.005 388.08V383.356C225.005 382.866 225.402 382.47 225.892 382.47H296.268C296.758 382.47 297.155 382.866 297.155 383.356V388.08C297.155 388.57 296.758 388.967 296.268 388.967Z" fill="#E4E4E4"/>
<path d="M296.268 398.541H225.892C225.402 398.541 225.005 398.144 225.005 397.654V392.931C225.005 392.441 225.402 392.044 225.892 392.044H296.268C296.758 392.044 297.155 392.441 297.155 392.931V397.654C297.155 398.144 296.758 398.541 296.268 398.541Z" fill="#E4E4E4"/>
<path d="M296.268 408.115H225.892C225.402 408.115 225.005 407.719 225.005 407.229V402.505C225.005 402.015 225.402 401.618 225.892 401.618H296.268C296.758 401.618 297.155 402.015 297.155 402.505V407.229C297.155 407.719 296.758 408.115 296.268 408.115Z" fill="#E4E4E4"/>
<path d="M296.268 417.689H225.892C225.402 417.689 225.005 417.292 225.005 416.802V412.079C225.005 411.589 225.402 411.192 225.892 411.192H296.268C296.758 411.192 297.155 411.589 297.155 412.079V416.802C297.155 417.292 296.758 417.689 296.268 417.689Z" fill="#E4E4E4"/>
<path d="M296.268 427.265H225.892C225.402 427.265 225.005 426.868 225.005 426.378V421.655C225.005 421.165 225.402 420.768 225.892 420.768H296.268C296.758 420.768 297.155 421.165 297.155 421.655V426.378C297.155 426.868 296.758 427.265 296.268 427.265Z" fill="#E4E4E4"/>
<path d="M296.268 436.839H225.892C225.402 436.839 225.005 436.443 225.005 435.953V431.229C225.005 430.739 225.402 430.342 225.892 430.342H296.268C296.758 430.342 297.155 430.739 297.155 431.229V435.953C297.155 436.443 296.758 436.839 296.268 436.839Z" fill="#E4E4E4"/>
<path d="M184.529 464.601L157.991 438.063L159.288 434.187L187.026 461.926L184.529 464.601Z" fill="#E4E4E4"/>
<path d="M160.488 464.601L187.026 438.063L185.727 434.187L157.991 461.926L160.488 464.601Z" fill="#E4E4E4"/>
<path d="M184.529 429.907L157.991 403.369L159.288 399.493L187.026 427.232L184.529 429.907Z" fill="#E4E4E4"/>
<path d="M160.488 429.907L187.026 403.369L185.727 399.493L157.991 427.232L160.488 429.907Z" fill="#E4E4E4"/>
<path d="M184.529 395.213L157.991 368.675L159.288 364.799L187.026 392.537L184.529 395.213Z" fill="#E4E4E4"/>
<path d="M160.488 395.213L187.026 368.675L185.727 364.799L157.991 392.537L160.488 395.213Z" fill="#E4E4E4"/>
<path d="M184.529 360.517L157.991 333.979L159.288 330.103L187.026 357.842L184.529 360.517Z" fill="#E4E4E4"/>
<path d="M160.488 360.517L187.026 333.979L185.727 330.103L157.991 357.842L160.488 360.517Z" fill="#E4E4E4"/>
<path d="M184.529 325.823L157.991 299.285L159.288 295.409L187.026 323.147L184.529 325.823Z" fill="#E4E4E4"/>
<path d="M160.488 325.823L187.026 299.285L185.727 295.409L157.991 323.147L160.488 325.823Z" fill="#E4E4E4"/>
<path d="M184.529 291.128L157.991 264.588L159.288 260.714L187.026 288.453L184.529 291.128Z" fill="#E4E4E4"/>
<path d="M160.488 291.128L187.026 264.588L185.727 260.714L157.991 288.453L160.488 291.128Z" fill="#E4E4E4"/>
<path d="M161.471 120.664H156.799V470.287H161.471V120.664Z" fill="#E4E4E4"/>
<path d="M188.567 120.664H183.895V470.287H188.567V120.664Z" fill="#E4E4E4"/>
<path d="M184.529 256.431L157.991 229.892L159.288 226.019L187.026 253.755L184.529 256.431Z" fill="#E4E4E4"/>
<path d="M160.488 256.431L187.026 229.892L185.727 226.019L157.991 253.755L160.488 256.431Z" fill="#E4E4E4"/>
<path d="M184.529 221.737L157.991 195.199L159.288 191.323L187.026 219.062L184.529 221.737Z" fill="#E4E4E4"/>
<path d="M160.488 221.737L187.026 195.199L185.727 191.323L157.991 219.062L160.488 221.737Z" fill="#E4E4E4"/>
<path d="M184.529 187.043L157.991 160.505L159.288 156.629L187.026 184.367L184.529 187.043Z" fill="#E4E4E4"/>
<path d="M160.488 187.043L187.026 160.505L185.727 156.629L157.991 184.367L160.488 187.043Z" fill="#E4E4E4"/>
<path d="M184.529 152.347L157.991 125.809L159.288 121.933L187.026 149.672L184.529 152.347Z" fill="#E4E4E4"/>
<path d="M160.488 152.347L187.026 125.809L185.727 121.933L157.991 149.672L160.488 152.347Z" fill="#E4E4E4"/>
<path d="M195.543 112.136H152.202V151.212H195.543V112.136Z" fill="#DDAA3A"/>
<path d="M209.575 112.136H166.234V151.212H209.575V112.136Z" fill="#E0AF7F"/>
<path d="M191.991 450.511H148.65V489.587H191.991V450.511Z" fill="#DDAA3A"/>
<path d="M209.575 450.511H166.234V489.587H209.575V450.511Z" fill="#E0AF7F"/>
<path opacity="0.3" d="M203.327 450.511V478.926C203.327 481.363 201.351 483.339 198.914 483.339H166.234V489.589H209.575V450.513H203.327V450.511Z" fill="#666666"/>
<path d="M127.694 110.028H86.6626V138.27H127.694V110.028Z" fill="#E4E4E4"/>
<path d="M127.694 128.602H86.6626V138.267H127.694V128.602Z" fill="#F1F1F1"/>
<path d="M68.2964 111.66C68.2964 115.639 71.5242 118.867 75.5039 118.867C79.4836 118.867 82.7114 115.639 82.7114 111.66C82.7114 107.68 79.4836 104.452 75.5039 104.452C71.5242 104.452 68.2964 107.68 68.2964 111.66Z" fill="#3971B7"/>
<path opacity="0.3" d="M312.81 456.882H520.469C522.198 456.882 523.598 455.482 523.598 453.752V297.448C523.598 295.719 522.198 294.319 520.469 294.319H312.81C311.081 294.319 309.681 295.719 309.681 297.448V453.752C309.681 455.479 311.081 456.882 312.81 456.882Z" fill="#666666"/>
<path d="M421.529 108.76H416.859V287.418H421.529V108.76Z" fill="#224769"/>
<path d="M315.897 448.77H520.572C522.242 448.77 523.595 447.416 523.595 445.747V297.708C523.595 296.038 522.242 294.685 520.572 294.685H315.897C314.227 294.685 312.874 296.038 312.874 297.708V445.747C312.874 447.416 314.227 448.77 315.897 448.77Z" fill="white" stroke="#979797" stroke-width="2.59263" stroke-miterlimit="10"/>
<path d="M509.798 398.882H324.51C322.434 398.882 320.749 397.197 320.749 395.12V327.416C320.749 325.34 322.434 323.654 324.51 323.654H509.798C511.874 323.654 513.56 325.34 513.56 327.416V395.12C513.56 397.199 511.877 398.882 509.798 398.882Z" fill="#E4E4E4"/>
<path d="M392.966 319.211H322.39C321.482 319.211 320.749 318.477 320.749 317.57V303.414C320.749 302.507 321.482 301.773 322.39 301.773H392.966C393.874 301.773 394.607 302.507 394.607 303.414V317.57C394.607 318.475 393.874 319.211 392.966 319.211Z" fill="#E4E4E4"/>
<path d="M362.544 413.243H323.196C322.599 413.243 322.117 412.761 322.117 412.165V405.774C322.117 405.178 322.599 404.695 323.196 404.695H362.547C363.143 404.695 363.625 405.178 363.625 405.774V412.165C363.623 412.761 363.14 413.243 362.544 413.243Z" fill="#E4E4E4"/>
<path d="M513.3 425.213H322.864C322.452 425.213 322.117 424.878 322.117 424.466V417.412C322.117 416.999 322.452 416.665 322.864 416.665H513.3C513.712 416.665 514.047 416.999 514.047 417.412V424.466C514.047 424.878 513.712 425.213 513.3 425.213Z" fill="#E4E4E4"/>
<path d="M513.3 437.29H322.864C322.452 437.29 322.117 436.956 322.117 436.543V429.489C322.117 429.077 322.452 428.742 322.864 428.742H513.3C513.712 428.742 514.047 429.077 514.047 429.489V436.543C514.047 436.956 513.712 437.29 513.3 437.29Z" fill="#E4E4E4"/>
<path d="M412.652 413.243H373.301C372.705 413.243 372.223 412.761 372.223 412.165V405.774C372.223 405.178 372.705 404.695 373.301 404.695H412.652C413.248 404.695 413.731 405.178 413.731 405.774V412.165C413.731 412.761 413.248 413.243 412.652 413.243Z" fill="#E4E4E4"/>
<path d="M462.76 413.243H423.412C422.815 413.243 422.333 412.761 422.333 412.165V405.774C422.333 405.178 422.815 404.695 423.412 404.695H462.76C463.356 404.695 463.838 405.178 463.838 405.774V412.165C463.838 412.761 463.356 413.243 462.76 413.243Z" fill="#E4E4E4"/>
<path d="M512.867 413.243H473.516C472.92 413.243 472.438 412.761 472.438 412.165V405.774C472.438 405.178 472.92 404.695 473.516 404.695H512.867C513.463 404.695 513.945 405.178 513.945 405.774V412.165C513.945 412.761 513.463 413.243 512.867 413.243Z" fill="#E4E4E4"/>
<path d="M419.348 276.615C424.45 276.615 428.585 280.75 428.585 285.852V295.09H410.113V285.852C410.11 280.75 414.245 276.615 419.348 276.615Z" fill="#224769"/>
<path d="M80.8213 109.624L107.359 83.0854L111.235 84.3844L83.4969 112.123L80.8213 109.624Z" fill="#E4E4E4"/>
<path d="M93.707 98.8336L107.36 112.123L111.236 110.824L95.9056 96.145L93.707 98.8336Z" fill="#E4E4E4"/>
<path d="M115.517 109.624L142.055 83.0854L145.931 84.3844L118.193 112.123L115.517 109.624Z" fill="#E4E4E4"/>
<path d="M115.517 85.5821L142.055 112.123L145.931 110.824L118.193 83.0854L115.517 85.5821Z" fill="#E4E4E4"/>
<path d="M150.211 109.624L176.749 83.0854L180.625 84.3844L152.887 112.123L150.211 109.624Z" fill="#E4E4E4"/>
<path d="M150.211 85.5821L176.749 112.123L180.625 110.824L152.887 83.0854L150.211 85.5821Z" fill="#E4E4E4"/>
<path d="M184.905 109.624L211.443 83.0854L215.319 84.3844L187.581 112.123L184.905 109.624Z" fill="#E4E4E4"/>
<path d="M184.905 85.5821L211.443 112.123L215.319 110.824L187.581 83.0854L184.905 85.5821Z" fill="#E4E4E4"/>
<path d="M219.601 109.624L246.139 83.0854L250.015 84.3844L222.276 112.123L219.601 109.624Z" fill="#E4E4E4"/>
<path d="M219.601 85.5821L246.139 112.123L250.015 110.824L222.276 83.0854L219.601 85.5821Z" fill="#E4E4E4"/>
<path d="M254.297 109.624L280.836 83.0854L284.709 84.3844L256.97 112.123L254.297 109.624Z" fill="#E4E4E4"/>
<path d="M254.297 85.5821L280.836 112.123L284.709 110.824L256.97 83.0854L254.297 85.5821Z" fill="#E4E4E4"/>
<path d="M103.969 86.5674L108.123 81.8955H394.805L399.096 86.5674H103.969Z" fill="#E4E4E4"/>
<path d="M75.1362 111.325C75.1362 110.034 76.1811 108.989 77.4722 108.989H421.75V113.661H77.4722C76.1837 113.661 75.1362 112.616 75.1362 111.325Z" fill="#E4E4E4"/>
<path d="M288.991 109.624L315.529 83.0854L319.405 84.3844L291.667 112.123L288.991 109.624Z" fill="#E4E4E4"/>
<path d="M288.991 85.5821L315.529 112.123L319.405 110.824L291.667 83.0854L288.991 85.5821Z" fill="#E4E4E4"/>
<path d="M323.687 109.624L350.225 83.0854L354.101 84.3844L326.363 112.123L323.687 109.624Z" fill="#E4E4E4"/>
<path d="M323.687 85.5821L350.225 112.123L354.101 110.824L326.363 83.0854L323.687 85.5821Z" fill="#E4E4E4"/>
<path d="M358.381 109.624L384.919 83.0854L388.795 84.3844L361.056 112.123L358.381 109.624Z" fill="#E4E4E4"/>
<path d="M358.381 85.5821L384.919 112.123L388.795 110.824L361.056 83.0854L358.381 85.5821Z" fill="#E4E4E4"/>
<path d="M393.075 109.624L406.92 95.9604L409.779 98.0371L395.751 112.123L393.075 109.624Z" fill="#E4E4E4"/>
<path d="M393.075 85.5821L419.613 112.123L421.607 109.235L395.751 83.0854L393.075 85.5821Z" fill="#E4E4E4"/>
<path d="M209.275 117.646H172.823V145.936H209.275V117.646Z" fill="#E0AF7F"/>
<path d="M223.369 245.979H234.777C237.128 245.979 239.055 244.055 239.055 241.701C239.055 239.35 237.131 237.423 234.777 237.423H223.369C221.018 237.423 219.091 239.347 219.091 241.701C219.091 244.053 221.018 245.979 223.369 245.979Z" fill="#F1CB6F"/>
<path d="M241.188 239.24H252.596C254.948 239.24 256.874 237.317 256.874 234.962C256.874 232.611 254.95 230.685 252.596 230.685H241.188C238.837 230.685 236.911 232.608 236.911 234.962C236.913 237.317 238.837 239.24 241.188 239.24Z" fill="#F1CB6F"/>
<path d="M191.053 129.377H202.46C204.812 129.377 206.738 127.454 206.738 125.1C206.738 122.748 204.814 120.822 202.46 120.822H191.053C188.701 120.822 186.775 122.746 186.775 125.1C186.775 127.454 188.699 129.377 191.053 129.377Z" fill="#E0AF7F"/>
<path d="M510.627 489.423H536.271C538.075 489.423 539.537 487.961 539.537 486.156V455.766H507.36V486.156C507.363 487.961 508.825 489.423 510.627 489.423Z" fill="#224769"/>
<path d="M511.769 485.143H509.993C509.386 485.143 508.894 484.65 508.894 484.044V456.637C508.894 456.03 509.386 455.538 509.993 455.538H511.769C512.375 455.538 512.868 456.03 512.868 456.637V484.044C512.868 484.65 512.375 485.143 511.769 485.143Z" fill="#3570A6"/>
<path d="M515.334 485.143C514.727 485.143 514.235 484.65 514.235 484.044V456.637C514.235 456.03 514.727 455.538 515.334 455.538C515.941 455.538 516.433 456.03 516.433 456.637V484.044C516.433 484.65 515.941 485.143 515.334 485.143Z" fill="#3570A6"/>
<path opacity="0.3" d="M534.91 455.768V485.327C534.91 487.131 533.448 488.593 531.644 488.593H508.471C509.046 489.104 509.798 489.423 510.628 489.423H536.271C538.076 489.423 539.538 487.961 539.538 486.156V455.766H534.91V455.768Z" fill="#666666"/>
<path d="M538.999 457.301H507.963C506.845 457.301 505.94 456.396 505.94 455.279C505.94 454.161 506.845 453.256 507.963 453.256H538.999C540.116 453.256 541.021 454.161 541.021 455.279C541.021 456.396 540.116 457.301 538.999 457.301Z" fill="#EEBD42"/>
<path d="M506.519 461.439C506.519 462.077 507.038 462.595 507.675 462.595C508.313 462.595 508.832 462.077 508.832 461.439C508.832 460.801 508.313 460.283 507.675 460.283C507.038 460.283 506.519 460.799 506.519 461.439Z" fill="#666666"/>
<path d="M522.867 461.439C522.867 462.077 523.386 462.595 524.023 462.595C524.661 462.595 525.18 462.077 525.18 461.439C525.18 460.801 524.661 460.283 524.023 460.283C523.383 460.283 522.867 460.799 522.867 461.439Z" fill="#666666"/>
<path d="M524.026 461.44V472.91C524.026 475.964 521.55 478.44 518.496 478.44H513.199C510.145 478.44 507.669 475.964 507.669 472.91V461.44" stroke="#666666" stroke-width="1.21257" stroke-miterlimit="10" stroke-linecap="round"/>
<path d="M529.927 460.34H530.935C531.41 460.34 531.796 459.953 531.796 459.479C531.796 459.004 531.41 458.618 530.935 458.618H529.927C529.452 458.618 529.066 459.004 529.066 459.479C529.066 459.953 529.452 460.34 529.927 460.34Z" fill="#3570A6"/>
<path d="M162.553 82.9062L175.428 6.26553C175.581 5.35811 176.885 5.35811 177.036 6.26553L189.918 83.5544" stroke="#E4E4E4" stroke-width="5.18526" stroke-miterlimit="10"/>
<path d="M167.768 51.959H185.372" stroke="#E4E4E4" stroke-width="5.18526" stroke-miterlimit="10"/>
<path d="M610.617 422.088H607.224V489.675H610.617V422.088Z" fill="#505050"/>
<path d="M557.968 422.088H554.575V489.675H557.968V422.088Z" fill="#505050"/>
<path d="M566.298 425.297L561.126 451.828H568.212L573.381 425.297H566.298Z" fill="white"/>
<path d="M582.134 425.297L576.961 451.828H584.047L589.217 425.297H582.134Z" fill="white"/>
<path d="M549.262 425.297V451.828H552.373L557.545 425.297H549.262Z" fill="white"/>
<path d="M597.97 425.297L592.797 451.828H599.883L605.055 425.297H597.97Z" fill="white"/>
<path d="M615.798 425.297H613.804L608.635 451.828H615.798V425.297Z" fill="white"/>
<path d="M557.546 425.297L552.374 451.828H561.126L566.299 425.297H557.546Z" fill="#EEBD42"/>
<path d="M573.381 425.297L568.211 451.828H576.962L582.134 425.297H573.381Z" fill="#EEBD42"/>
<path d="M589.217 425.297L584.047 451.828H592.797L597.97 425.297H589.217Z" fill="#EEBD42"/>
<path d="M605.055 425.297L599.883 451.828H608.636L613.805 425.297H605.055Z" fill="#EEBD42"/>
<path opacity="0.3" d="M611.827 425.321V447.941H549.239V451.828H615.799V425.297L611.827 425.321Z" fill="#666666"/>
<path d="M566.298 459.536L561.126 481.303H568.212L573.381 459.536H566.298Z" fill="white"/>
<path d="M582.134 459.536L576.961 481.303H584.047L589.217 459.536H582.134Z" fill="white"/>
<path d="M549.262 459.536V481.303H552.373L557.545 459.536H549.262Z" fill="white"/>
<path d="M597.97 459.536L592.797 481.303H599.883L605.055 459.536H597.97Z" fill="white"/>
<path d="M615.798 459.536H613.804L608.635 481.303H615.798V459.536Z" fill="white"/>
<path d="M557.546 459.536L552.374 481.303H561.126L566.299 459.536H557.546Z" fill="#F1CB6F"/>
<path d="M573.381 459.536L568.211 481.303H576.962L582.134 459.536H573.381Z" fill="#F1CB6F"/>
<path d="M589.217 459.536L584.047 481.303H592.797L597.97 459.536H589.217Z" fill="#F1CB6F"/>
<path d="M605.055 459.536L599.883 481.303H608.636L613.805 459.536H605.055Z" fill="#F1CB6F"/>
<path opacity="0.3" d="M611.827 459.559V477.417H549.239V481.303H615.799V459.536L611.827 459.559Z" fill="#666666"/>
<path d="M272.822 464.713H271.609C259.208 464.713 249.157 474.765 249.157 487.166H295.277C295.274 474.765 285.223 464.713 272.822 464.713Z" fill="#DEB660"/>
<path opacity="0.3" d="M274.038 464.775C280.403 468.739 284.655 475.778 284.655 483.828H249.432C249.268 484.92 249.157 486.029 249.157 487.165H295.277C295.274 475.177 285.871 465.41 274.038 464.775Z" fill="#666666"/>
<path d="M274.136 475.848H275.816C276.624 475.848 277.286 475.187 277.286 474.378C277.286 473.569 276.624 472.908 275.816 472.908H274.136C273.327 472.908 272.666 473.569 272.666 474.378C272.666 475.187 273.327 475.848 274.136 475.848Z" fill="#E0AF7F"/>
<path d="M265.17 479.631H260.967C260.158 479.631 259.497 478.97 259.497 478.161C259.497 477.353 260.158 476.691 260.967 476.691H265.17C265.979 476.691 266.64 477.353 266.64 478.161C266.642 478.968 265.979 479.631 265.17 479.631Z" fill="#E0AF7F"/>
<path opacity="0.3" d="M286.458 474.025H285.879C285.516 474.025 285.218 473.727 285.218 473.364C285.218 473.001 285.516 472.703 285.879 472.703H286.458C286.821 472.703 287.119 473.001 287.119 473.364C287.119 473.727 286.821 474.025 286.458 474.025Z" fill="#666666"/>
<path opacity="0.3" d="M288.361 481.306H288.856C289.037 481.306 289.188 481.158 289.188 480.974C289.188 480.792 289.04 480.642 288.856 480.642H288.361C288.179 480.642 288.029 480.79 288.029 480.974C288.029 481.155 288.179 481.306 288.361 481.306Z" fill="#666666"/>
<path d="M265.158 470.634H266.068C266.545 470.634 266.936 470.243 266.936 469.765C266.936 469.288 266.545 468.897 266.068 468.897H265.158C264.681 468.897 264.289 469.288 264.289 469.765C264.289 470.243 264.681 470.634 265.158 470.634Z" fill="#E0AF7F"/>
<path d="M258.87 474.935H258.292C257.949 474.935 257.672 474.655 257.672 474.315C257.672 473.973 257.952 473.696 258.292 473.696H258.87C259.212 473.696 259.489 473.976 259.489 474.315C259.492 474.655 259.212 474.935 258.87 474.935Z" fill="#E0AF7F"/>
<path d="M277.564 481.471H278.391C278.687 481.471 278.928 481.23 278.928 480.934C278.928 480.639 278.687 480.397 278.391 480.397H277.564C277.268 480.397 277.027 480.639 277.027 480.934C277.027 481.227 277.268 481.471 277.564 481.471Z" fill="#E0AF7F"/>
<path d="M270.99 480.808H270.08C269.761 480.808 269.502 480.549 269.502 480.23C269.502 479.911 269.761 479.652 270.08 479.652H270.99C271.309 479.652 271.568 479.911 271.568 480.23C271.568 480.549 271.309 480.808 270.99 480.808Z" fill="#E0AF7F"/>
<path d="M253.865 481.388H255.024C255.252 481.388 255.439 481.201 255.439 480.973C255.439 480.745 255.252 480.558 255.024 480.558H253.865C253.637 480.558 253.453 480.745 253.453 480.973C253.453 481.201 253.637 481.388 253.865 481.388Z" fill="#E0AF7F"/>
<path d="M267.433 474.686H267.35C267.122 474.686 266.936 474.5 266.936 474.272C266.936 474.043 267.122 473.859 267.35 473.859H267.433C267.661 473.859 267.848 474.046 267.848 474.272C267.846 474.5 267.659 474.686 267.433 474.686Z" fill="#E0AF7F"/>
<path d="M274.877 469.227H275.043C275.452 469.227 275.787 468.892 275.787 468.483C275.787 468.073 275.452 467.739 275.043 467.739H274.877C274.467 467.739 274.133 468.073 274.133 468.483C274.133 468.892 274.467 469.227 274.877 469.227Z" fill="#E0AF7F"/>
<path d="M292.058 488.187H310.105C310.932 488.187 311.609 487.51 311.609 486.683C311.609 485.856 310.932 485.18 310.105 485.18H292.058C291.231 485.18 290.554 485.856 290.554 486.683C290.554 487.51 291.231 488.187 292.058 488.187Z" fill="#E0AF7F"/>
<path d="M258.833 489.963H245.434C244.532 489.963 243.793 489.225 243.793 488.322C243.793 487.42 244.532 486.681 245.434 486.681H258.833C259.735 486.681 260.474 487.42 260.474 488.322C260.474 489.227 259.735 489.963 258.833 489.963Z" fill="#505050"/>
<path d="M312.918 451.229H310.914C290.453 451.229 273.866 467.816 273.866 488.277H349.967C349.967 467.816 333.379 451.229 312.918 451.229Z" fill="#E0AF7F"/>
<path opacity="0.3" d="M314.925 451.33C325.428 457.869 332.444 469.486 332.444 482.771H274.319C274.05 484.573 273.866 486.401 273.866 488.278H349.967C349.967 468.493 334.448 452.38 314.925 451.33Z" fill="#666666"/>
<path d="M315.083 469.602H317.857C319.192 469.602 320.284 468.51 320.284 467.175C320.284 465.84 319.192 464.749 317.857 464.749H315.083C313.748 464.749 312.656 465.84 312.656 467.175C312.656 468.51 313.748 469.602 315.083 469.602Z" fill="#E0AF7F"/>
<path d="M300.29 475.843H293.355C292.02 475.843 290.928 474.752 290.928 473.416C290.928 472.081 292.02 470.99 293.355 470.99H300.29C301.625 470.99 302.717 472.081 302.717 473.416C302.717 474.752 301.625 475.843 300.29 475.843Z" fill="#E0AF7F"/>
<path opacity="0.3" d="M335.417 466.595H334.461C333.859 466.595 333.369 466.105 333.369 465.504C333.369 464.902 333.862 464.412 334.461 464.412H335.417C336.019 464.412 336.509 464.902 336.509 465.504C336.509 466.105 336.016 466.595 335.417 466.595Z" fill="#666666"/>
<path opacity="0.3" d="M338.555 478.607H339.375C339.675 478.607 339.922 478.361 339.922 478.06C339.922 477.759 339.675 477.513 339.375 477.513H338.555C338.255 477.513 338.008 477.759 338.008 478.06C338.011 478.361 338.257 478.607 338.555 478.607Z" fill="#666666"/>
<path d="M300.269 460.996H301.77C302.558 460.996 303.204 460.351 303.204 459.563C303.204 458.774 302.558 458.129 301.77 458.129H300.269C299.481 458.129 298.835 458.774 298.835 459.563C298.835 460.353 299.481 460.996 300.269 460.996Z" fill="#B99775"/>
<path d="M289.896 468.096H288.942C288.379 468.096 287.917 467.634 287.917 467.071C287.917 466.509 288.379 466.047 288.942 466.047H289.896C290.458 466.047 290.92 466.509 290.92 467.071C290.917 467.634 290.458 468.096 289.896 468.096Z" fill="#B99775"/>
<path d="M320.743 478.879H322.106C322.594 478.879 322.993 478.48 322.993 477.992C322.993 477.505 322.594 477.105 322.106 477.105H320.743C320.255 477.105 319.856 477.505 319.856 477.992C319.856 478.48 320.255 478.879 320.743 478.879Z" fill="#B99775"/>
<path d="M309.89 477.787H308.389C307.862 477.787 307.435 477.357 307.435 476.831C307.435 476.304 307.865 475.876 308.389 475.876H309.89C310.416 475.876 310.846 476.307 310.846 476.831C310.846 477.357 310.416 477.787 309.89 477.787Z" fill="#B99775"/>
<path d="M281.635 478.744H283.546C283.922 478.744 284.228 478.438 284.228 478.062C284.228 477.686 283.922 477.38 283.546 477.38H281.635C281.26 477.38 280.954 477.686 280.954 478.062C280.954 478.436 281.262 478.744 281.635 478.744Z" fill="#B99775"/>
<path d="M304.023 467.686H303.886C303.51 467.686 303.204 467.38 303.204 467.004C303.204 466.628 303.51 466.322 303.886 466.322H304.023C304.399 466.322 304.705 466.628 304.705 467.004C304.705 467.38 304.397 467.686 304.023 467.686Z" fill="#B99775"/>
<path d="M316.307 458.677H316.579C317.256 458.677 317.808 458.124 317.808 457.448C317.808 456.771 317.256 456.219 316.579 456.219H316.307C315.63 456.219 315.078 456.771 315.078 457.448C315.078 458.124 315.63 458.677 316.307 458.677Z" fill="#B99775"/>
<path d="M344.656 489.962H374.437C375.801 489.962 376.919 488.844 376.919 487.481C376.919 486.114 375.801 485 374.437 485H344.656C343.292 485 342.175 486.117 342.175 487.481C342.175 488.844 343.292 489.962 344.656 489.962Z" fill="#505050"/>
<path d="M289.831 492.894H267.721C266.233 492.894 265.015 491.676 265.015 490.188C265.015 488.7 266.233 487.481 267.721 487.481H289.831C291.319 487.481 292.538 488.7 292.538 490.188C292.538 491.676 291.322 492.894 289.831 492.894Z" fill="#505050"/>
<path d="M171.278 459.711H176.842C178.322 459.711 179.533 458.501 179.533 457.02C179.533 455.54 178.322 454.329 176.842 454.329H171.278C169.798 454.329 168.587 455.54 168.587 457.02C168.587 458.501 169.798 459.711 171.278 459.711Z" fill="#E0AF7F"/>
<path d="M177.651 466.893H183.215C184.695 466.893 185.906 465.682 185.906 464.201C185.906 462.721 184.695 461.51 183.215 461.51H177.651C176.171 461.51 174.96 462.721 174.96 464.201C174.957 465.679 176.171 466.893 177.651 466.893Z" fill="#B59677"/>
<path opacity="0.3" d="M157.011 486.995H153.602C152.466 486.995 151.538 486.067 151.538 484.931C151.538 483.795 152.466 482.867 153.602 482.867H157.011C158.147 482.867 159.075 483.795 159.075 484.931C159.075 486.067 158.147 486.995 157.011 486.995Z" fill="#666666"/>
<path opacity="0.3" d="M161.139 481.787H157.73C156.594 481.787 155.666 480.859 155.666 479.723C155.666 478.588 156.594 477.66 157.73 477.66H161.139C162.275 477.66 163.203 478.588 163.203 479.723C163.203 480.859 162.275 481.787 161.139 481.787Z" fill="#666666"/>
<path d="M182.546 140.562H189.665C191.379 140.562 192.779 139.159 192.779 137.448C192.779 135.734 191.376 134.334 189.665 134.334H182.546C180.832 134.334 179.432 135.737 179.432 137.448C179.43 139.159 180.832 140.562 182.546 140.562Z" fill="#E0AF7F"/>
<path opacity="0.3" d="M112.088 122.17H117.429C118.897 122.17 120.1 120.97 120.1 119.5C120.1 118.032 118.899 116.829 117.429 116.829H112.088C110.621 116.829 109.418 118.029 109.418 119.5C109.421 120.967 110.621 122.17 112.088 122.17Z" fill="#666666"/>
<path d="M234.001 502.944H605.714C607.3 502.944 608.599 501.645 608.599 500.058C608.599 498.472 607.3 497.173 605.714 497.173H234.001C232.414 497.173 231.115 498.472 231.115 500.058C231.115 501.645 232.414 502.944 234.001 502.944Z" fill="#505050"/>
<path d="M216.349 516.623H138.546C136.763 516.623 135.306 515.164 135.306 513.382C135.306 511.599 136.765 510.142 138.546 510.142H216.349C218.132 510.142 219.589 511.601 219.589 513.382C219.589 515.164 218.132 516.623 216.349 516.623Z" fill="#505050"/>
<path d="M331.612 530.309H253.81C252.026 530.309 250.569 528.849 250.569 527.068C250.569 525.284 252.028 523.827 253.81 523.827H331.612C333.396 523.827 334.853 525.287 334.853 527.068C334.853 528.849 333.393 530.309 331.612 530.309Z" fill="#505050"/>
</g>
<defs>
<clipPath id="clip0_1228_8515">
<rect width="567" height="530.309" fill="white" transform="translate(67)"/>
</clipPath>
</defs>
</svg>
