<svg width="1440" height="867" viewBox="0 0 1440 867" fill="none" xmlns="http://www.w3.org/2000/svg">
<g clip-path="url(#clip0_1178_5312)">
<rect width="1440" height="867" fill="white"/>
<path d="M-2 0L1440 1.23357e-06L1440 873L-2 873L-2 0Z" fill="white"/>
<mask id="mask0_1178_5312" style="mask-type:alpha" maskUnits="userSpaceOnUse" x="799" y="158" width="628" height="267">
<path opacity="0.7" fill-rule="evenodd" clip-rule="evenodd" d="M815.292 188.032C833.055 198.315 868.581 227.121 868.581 260.087C868.581 262.394 868.551 265.108 868.518 268.166C867.951 319.715 866.311 468.899 988.481 412.438C1005.77 404.446 1023.54 396.673 1041.01 389.031C1065.07 378.505 1088.56 368.227 1109.46 357.972C1183.62 410.075 1252.71 442.782 1329.68 373.087C1433.53 279.054 1462.38 118.154 1376.37 174.373C1361.28 186.186 1317.83 210.494 1264.75 213.223C1261.03 213.413 1256.66 213.62 1251.74 213.852C1219.57 215.369 1163.81 217.998 1113.43 224.758C968.347 159.062 735.294 132.667 815.292 188.032Z" fill="url(#paint0_linear_1178_5312)"/>
</mask>
<g mask="url(#mask0_1178_5312)">
<rect x="779.164" y="-32.7932" width="24" height="660.825" stroke="#285994" stroke-opacity="0.09"/>
<rect x="803.164" y="-32.7932" width="24" height="660.825" stroke="#285994" stroke-opacity="0.09"/>
<rect x="827.164" y="-32.7932" width="24" height="660.825" stroke="#285994" stroke-opacity="0.09"/>
<rect x="851.164" y="-32.7932" width="24" height="660.825" stroke="#285994" stroke-opacity="0.09"/>
<rect x="875.164" y="-32.7932" width="24" height="660.825" stroke="#285994" stroke-opacity="0.09"/>
<rect x="899.164" y="-32.7932" width="24" height="660.825" stroke="#285994" stroke-opacity="0.09"/>
<rect x="923.164" y="-32.7932" width="24" height="660.825" stroke="#285994" stroke-opacity="0.09"/>
<rect x="947.164" y="-32.7932" width="24" height="660.825" stroke="#285994" stroke-opacity="0.09"/>
<rect x="971.164" y="-32.7932" width="24" height="660.825" stroke="#285994" stroke-opacity="0.09"/>
<rect x="995.164" y="-32.7932" width="24" height="660.825" stroke="#285994" stroke-opacity="0.09"/>
<rect x="1019.16" y="-32.7932" width="24" height="660.825" stroke="#285994" stroke-opacity="0.09"/>
<rect x="1043.16" y="-32.7932" width="24" height="660.825" stroke="#285994" stroke-opacity="0.09"/>
<rect x="1067.16" y="-32.7932" width="24" height="660.825" stroke="#285994" stroke-opacity="0.09"/>
<rect x="1091.16" y="-32.7932" width="24" height="660.825" stroke="#285994" stroke-opacity="0.09"/>
<rect x="1115.16" y="-32.7932" width="24" height="660.825" stroke="#285994" stroke-opacity="0.09"/>
<rect x="1139.16" y="-32.7932" width="24" height="660.825" stroke="#285994" stroke-opacity="0.09"/>
<rect x="1163.16" y="-32.7932" width="24" height="660.825" stroke="#285994" stroke-opacity="0.09"/>
<rect x="1187.16" y="-32.7932" width="24" height="660.825" stroke="#285994" stroke-opacity="0.09"/>
<rect x="1211.16" y="-32.7932" width="24" height="660.825" stroke="#285994" stroke-opacity="0.09"/>
<rect x="1235.16" y="-32.7932" width="24" height="660.825" stroke="#285994" stroke-opacity="0.09"/>
<rect x="1259.16" y="-32.7932" width="24" height="660.825" stroke="#285994" stroke-opacity="0.09"/>
<rect x="1283.16" y="-32.7932" width="24" height="660.825" stroke="#285994" stroke-opacity="0.09"/>
<rect x="1307.16" y="-32.7932" width="24" height="660.825" stroke="#285994" stroke-opacity="0.09"/>
<rect x="1331.16" y="-32.7932" width="24" height="660.825" stroke="#285994" stroke-opacity="0.09"/>
<rect x="1355.16" y="-32.7932" width="24" height="660.825" stroke="#285994" stroke-opacity="0.09"/>
<rect x="1379.16" y="-32.7932" width="24" height="660.825" stroke="#285994" stroke-opacity="0.09"/>
<rect x="1403.16" y="-32.7932" width="24" height="660.825" stroke="#285994" stroke-opacity="0.09"/>
<rect x="1427.16" y="-32.7932" width="24" height="660.825" stroke="#285994" stroke-opacity="0.09"/>
<rect x="395.164" y="159.207" width="24" height="1440" transform="rotate(-90 395.164 159.207)" stroke="#285994" stroke-opacity="0.09"/>
<rect x="395.164" y="183.207" width="24" height="1440" transform="rotate(-90 395.164 183.207)" stroke="#285994" stroke-opacity="0.09"/>
<rect x="395.164" y="207.207" width="24" height="1440" transform="rotate(-90 395.164 207.207)" stroke="#285994" stroke-opacity="0.09"/>
<rect x="395.164" y="231.207" width="24" height="1440" transform="rotate(-90 395.164 231.207)" stroke="#285994" stroke-opacity="0.09"/>
<rect x="395.164" y="255.207" width="24" height="1440" transform="rotate(-90 395.164 255.207)" stroke="#285994" stroke-opacity="0.09"/>
<rect x="395.164" y="279.207" width="24" height="1440" transform="rotate(-90 395.164 279.207)" stroke="#285994" stroke-opacity="0.09"/>
<rect x="395.164" y="303.207" width="24" height="1440" transform="rotate(-90 395.164 303.207)" stroke="#285994" stroke-opacity="0.09"/>
<rect x="395.164" y="327.207" width="24" height="1440" transform="rotate(-90 395.164 327.207)" stroke="#285994" stroke-opacity="0.09"/>
<rect x="395.164" y="351.207" width="24" height="1440" transform="rotate(-90 395.164 351.207)" stroke="#285994" stroke-opacity="0.09"/>
<rect x="395.164" y="375.207" width="24" height="1440" transform="rotate(-90 395.164 375.207)" stroke="#285994" stroke-opacity="0.09"/>
<rect x="395.164" y="399.207" width="24" height="1440" transform="rotate(-90 395.164 399.207)" stroke="#285994" stroke-opacity="0.09"/>
<rect x="395.164" y="423.207" width="24" height="1440" transform="rotate(-90 395.164 423.207)" stroke="#285994" stroke-opacity="0.09"/>
<rect x="395.164" y="447.207" width="24" height="1440" transform="rotate(-90 395.164 447.207)" stroke="#285994" stroke-opacity="0.09"/>
</g>
<mask id="mask1_1178_5312" style="mask-type:alpha" maskUnits="userSpaceOnUse" x="-132" y="505" width="628" height="267">
<path opacity="0.7" fill-rule="evenodd" clip-rule="evenodd" d="M-115.708 535.032C-97.9447 545.315 -62.4188 574.121 -62.4188 607.087C-62.4188 609.394 -62.4486 612.108 -62.4822 615.166C-63.0489 666.715 -64.6887 815.899 57.4811 759.438C74.7736 751.446 92.5419 743.673 110.009 736.031C134.072 725.505 157.564 715.227 178.455 704.972C252.625 757.075 321.705 789.782 398.676 720.087C502.527 626.054 531.378 465.154 445.37 521.373C430.281 533.186 386.832 557.494 333.749 560.223C330.034 560.413 325.662 560.62 320.736 560.852C288.571 562.369 232.814 564.998 182.429 571.758C37.3467 506.062 -195.706 479.667 -115.708 535.032Z" fill="url(#paint1_linear_1178_5312)"/>
</mask>
<g mask="url(#mask1_1178_5312)">
<rect x="-7.83594" y="314.207" width="24" height="660.825" stroke="#285994" stroke-opacity="0.09"/>
<rect x="16.1641" y="314.207" width="24" height="660.825" stroke="#285994" stroke-opacity="0.09"/>
<rect x="40.1641" y="314.207" width="24" height="660.825" stroke="#285994" stroke-opacity="0.09"/>
<rect x="64.1641" y="314.207" width="24" height="660.825" stroke="#285994" stroke-opacity="0.09"/>
<rect x="88.1641" y="314.207" width="24" height="660.825" stroke="#285994" stroke-opacity="0.09"/>
<rect x="112.164" y="314.207" width="24" height="660.825" stroke="#285994" stroke-opacity="0.09"/>
<rect x="136.164" y="314.207" width="24" height="660.825" stroke="#285994" stroke-opacity="0.09"/>
<rect x="160.164" y="314.207" width="24" height="660.825" stroke="#285994" stroke-opacity="0.09"/>
<rect x="184.164" y="314.207" width="24" height="660.825" stroke="#285994" stroke-opacity="0.09"/>
<rect x="208.164" y="314.207" width="24" height="660.825" stroke="#285994" stroke-opacity="0.09"/>
<rect x="232.164" y="314.207" width="24" height="660.825" stroke="#285994" stroke-opacity="0.09"/>
<rect x="256.164" y="314.207" width="24" height="660.825" stroke="#285994" stroke-opacity="0.09"/>
<rect x="280.164" y="314.207" width="24" height="660.825" stroke="#285994" stroke-opacity="0.09"/>
<rect x="304.164" y="314.207" width="24" height="660.825" stroke="#285994" stroke-opacity="0.09"/>
<rect x="328.164" y="314.207" width="24" height="660.825" stroke="#285994" stroke-opacity="0.09"/>
<rect x="352.164" y="314.207" width="24" height="660.825" stroke="#285994" stroke-opacity="0.09"/>
<rect x="376.164" y="314.207" width="24" height="660.825" stroke="#285994" stroke-opacity="0.09"/>
<rect x="400.164" y="314.207" width="24" height="660.825" stroke="#285994" stroke-opacity="0.09"/>
<rect x="424.164" y="314.207" width="24" height="660.825" stroke="#285994" stroke-opacity="0.09"/>
<rect x="448.164" y="314.207" width="24" height="660.825" stroke="#285994" stroke-opacity="0.09"/>
<rect x="472.164" y="314.207" width="24" height="660.825" stroke="#285994" stroke-opacity="0.09"/>
<rect x="496.164" y="314.207" width="24" height="660.825" stroke="#285994" stroke-opacity="0.09"/>
<rect x="-535.836" y="506.207" width="24" height="1440" transform="rotate(-90 -535.836 506.207)" stroke="#285994" stroke-opacity="0.09"/>
<rect x="-535.836" y="530.207" width="24" height="1440" transform="rotate(-90 -535.836 530.207)" stroke="#285994" stroke-opacity="0.09"/>
<rect x="-535.836" y="554.207" width="24" height="1440" transform="rotate(-90 -535.836 554.207)" stroke="#285994" stroke-opacity="0.09"/>
<rect x="-535.836" y="578.207" width="24" height="1440" transform="rotate(-90 -535.836 578.207)" stroke="#285994" stroke-opacity="0.09"/>
<rect x="-535.836" y="602.207" width="24" height="1440" transform="rotate(-90 -535.836 602.207)" stroke="#285994" stroke-opacity="0.09"/>
<rect x="-535.836" y="626.207" width="24" height="1440" transform="rotate(-90 -535.836 626.207)" stroke="#285994" stroke-opacity="0.09"/>
<rect x="-535.836" y="650.207" width="24" height="1440" transform="rotate(-90 -535.836 650.207)" stroke="#285994" stroke-opacity="0.09"/>
<rect x="-535.836" y="674.207" width="24" height="1440" transform="rotate(-90 -535.836 674.207)" stroke="#285994" stroke-opacity="0.09"/>
<rect x="-535.836" y="698.207" width="24" height="1440" transform="rotate(-90 -535.836 698.207)" stroke="#285994" stroke-opacity="0.09"/>
<rect x="-535.836" y="722.207" width="24" height="1440" transform="rotate(-90 -535.836 722.207)" stroke="#285994" stroke-opacity="0.09"/>
<rect x="-535.836" y="746.207" width="24" height="1440" transform="rotate(-90 -535.836 746.207)" stroke="#285994" stroke-opacity="0.09"/>
<rect x="-535.836" y="770.207" width="24" height="1440" transform="rotate(-90 -535.836 770.207)" stroke="#285994" stroke-opacity="0.09"/>
<rect x="-535.836" y="794.207" width="24" height="1440" transform="rotate(-90 -535.836 794.207)" stroke="#285994" stroke-opacity="0.09"/>
</g>
</g>
<defs>
<linearGradient id="paint0_linear_1178_5312" x1="1420.4" y1="141.127" x2="1230.32" y2="460.219" gradientUnits="userSpaceOnUse">
<stop stop-color="white" stop-opacity="0.42"/>
<stop offset="1" stop-color="white"/>
</linearGradient>
<linearGradient id="paint1_linear_1178_5312" x1="489.404" y1="488.127" x2="299.319" y2="807.219" gradientUnits="userSpaceOnUse">
<stop stop-color="white" stop-opacity="0.42"/>
<stop offset="1" stop-color="white"/>
</linearGradient>
<clipPath id="clip0_1178_5312">
<rect width="1440" height="867" fill="white"/>
</clipPath>
</defs>
</svg>
