<svg width="1440" height="867" viewBox="0 0 1440 867" fill="none" xmlns="http://www.w3.org/2000/svg">
<g clip-path="url(#clip0_1178_3913)">
<rect width="1440" height="867" fill="white"/>
<path d="M-2 0L1440 1.23357e-06L1440 873L-2 873L-2 0Z" fill="white"/>
<mask id="mask0_1178_3913" style="mask-type:alpha" maskUnits="userSpaceOnUse" x="312" y="155" width="816" height="557">
<path opacity="0.7" fill-rule="evenodd" clip-rule="evenodd" d="M333.144 217.652C356.196 239.102 402.3 299.196 402.3 367.968C402.3 372.781 402.262 378.443 402.218 384.821C401.483 492.36 399.355 803.58 557.903 685.794C580.345 669.122 603.404 652.906 626.073 636.964C657.3 615.004 687.787 593.564 714.9 572.171C811.155 680.865 900.805 749.095 1000.7 603.702C1135.47 407.535 1172.91 71.876 1061.29 189.156C1041.71 213.8 985.326 264.511 916.436 270.202C911.615 270.6 905.94 271.031 899.547 271.515C857.805 274.679 785.445 280.164 720.057 294.267C531.773 157.215 229.325 102.153 333.144 217.652Z" fill="url(#paint0_linear_1178_3913)"/>
</mask>
<g mask="url(#mask0_1178_3913)">
<rect x="290.309" y="-243.022" width="24" height="1378.58" stroke="#393953" stroke-opacity="0.07"/>
<rect x="314.309" y="-243.022" width="24" height="1378.58" stroke="#393953" stroke-opacity="0.07"/>
<rect x="338.309" y="-243.022" width="24" height="1378.58" stroke="#393953" stroke-opacity="0.07"/>
<rect x="362.309" y="-243.022" width="24" height="1378.58" stroke="#393953" stroke-opacity="0.07"/>
<rect x="386.309" y="-243.022" width="24" height="1378.58" stroke="#393953" stroke-opacity="0.07"/>
<rect x="410.309" y="-243.022" width="24" height="1378.58" stroke="#393953" stroke-opacity="0.07"/>
<rect x="434.309" y="-243.022" width="24" height="1378.58" stroke="#393953" stroke-opacity="0.07"/>
<rect x="458.309" y="-243.022" width="24" height="1378.58" stroke="#393953" stroke-opacity="0.07"/>
<rect x="482.309" y="-243.022" width="24" height="1378.58" stroke="#393953" stroke-opacity="0.07"/>
<rect x="506.309" y="-243.022" width="24" height="1378.58" stroke="#393953" stroke-opacity="0.07"/>
<rect x="530.309" y="-243.022" width="24" height="1378.58" stroke="#393953" stroke-opacity="0.07"/>
<rect x="554.309" y="-243.022" width="24" height="1378.58" stroke="#393953" stroke-opacity="0.07"/>
<rect x="578.309" y="-243.022" width="24" height="1378.58" stroke="#393953" stroke-opacity="0.07"/>
<rect x="602.309" y="-243.022" width="24" height="1378.58" stroke="#393953" stroke-opacity="0.07"/>
<rect x="626.309" y="-243.022" width="24" height="1378.58" stroke="#393953" stroke-opacity="0.07"/>
<rect x="650.309" y="-243.022" width="24" height="1378.58" stroke="#393953" stroke-opacity="0.07"/>
<rect x="674.309" y="-243.022" width="24" height="1378.58" stroke="#393953" stroke-opacity="0.07"/>
<rect x="698.309" y="-243.022" width="24" height="1378.58" stroke="#393953" stroke-opacity="0.07"/>
<rect x="722.309" y="-243.022" width="24" height="1378.58" stroke="#393953" stroke-opacity="0.07"/>
<rect x="746.309" y="-243.022" width="24" height="1378.58" stroke="#393953" stroke-opacity="0.07"/>
<rect x="770.309" y="-243.022" width="24" height="1378.58" stroke="#393953" stroke-opacity="0.07"/>
<rect x="794.309" y="-243.022" width="24" height="1378.58" stroke="#393953" stroke-opacity="0.07"/>
<rect x="818.309" y="-243.022" width="24" height="1378.58" stroke="#393953" stroke-opacity="0.07"/>
<rect x="842.309" y="-243.022" width="24" height="1378.58" stroke="#393953" stroke-opacity="0.07"/>
<rect x="866.309" y="-243.022" width="24" height="1378.58" stroke="#393953" stroke-opacity="0.07"/>
<rect x="890.309" y="-243.022" width="24" height="1378.58" stroke="#393953" stroke-opacity="0.07"/>
<rect x="914.309" y="-243.022" width="24" height="1378.58" stroke="#393953" stroke-opacity="0.07"/>
<rect x="938.309" y="-243.022" width="24" height="1378.58" stroke="#393953" stroke-opacity="0.07"/>
<rect x="962.309" y="-243.022" width="24" height="1378.58" stroke="#393953" stroke-opacity="0.07"/>
<rect x="986.309" y="-243.022" width="24" height="1378.58" stroke="#393953" stroke-opacity="0.07"/>
<rect x="1010.31" y="-243.022" width="24" height="1378.58" stroke="#393953" stroke-opacity="0.07"/>
<rect x="1034.31" y="-243.022" width="24" height="1378.58" stroke="#393953" stroke-opacity="0.07"/>
<rect x="1058.31" y="-243.022" width="24" height="1378.58" stroke="#393953" stroke-opacity="0.07"/>
<rect x="1082.31" y="-243.022" width="24" height="1378.58" stroke="#393953" stroke-opacity="0.07"/>
<rect x="1106.31" y="-243.022" width="24" height="1378.58" stroke="#393953" stroke-opacity="0.07"/>
<rect x="2.30859" y="164.978" width="24" height="1440" transform="rotate(-90 2.30859 164.978)" stroke="#393953" stroke-opacity="0.07"/>
<rect x="2.30859" y="188.978" width="24" height="1440" transform="rotate(-90 2.30859 188.978)" stroke="#393953" stroke-opacity="0.07"/>
<rect x="2.30859" y="212.978" width="24" height="1440" transform="rotate(-90 2.30859 212.978)" stroke="#393953" stroke-opacity="0.07"/>
<rect x="2.30859" y="236.978" width="24" height="1440" transform="rotate(-90 2.30859 236.978)" stroke="#393953" stroke-opacity="0.07"/>
<rect x="2.30859" y="260.978" width="24" height="1440" transform="rotate(-90 2.30859 260.978)" stroke="#393953" stroke-opacity="0.07"/>
<rect x="2.30859" y="284.978" width="24" height="1440" transform="rotate(-90 2.30859 284.978)" stroke="#393953" stroke-opacity="0.07"/>
<rect x="2.30859" y="308.978" width="24" height="1440" transform="rotate(-90 2.30859 308.978)" stroke="#393953" stroke-opacity="0.07"/>
<rect x="2.30859" y="332.978" width="24" height="1440" transform="rotate(-90 2.30859 332.978)" stroke="#393953" stroke-opacity="0.07"/>
<rect x="2.30859" y="356.978" width="24" height="1440" transform="rotate(-90 2.30859 356.978)" stroke="#393953" stroke-opacity="0.07"/>
<rect x="2.30859" y="380.978" width="24" height="1440" transform="rotate(-90 2.30859 380.978)" stroke="#393953" stroke-opacity="0.07"/>
<rect x="2.30859" y="404.978" width="24" height="1440" transform="rotate(-90 2.30859 404.978)" stroke="#393953" stroke-opacity="0.07"/>
<rect x="2.30859" y="428.978" width="24" height="1440" transform="rotate(-90 2.30859 428.978)" stroke="#393953" stroke-opacity="0.07"/>
<rect x="2.30859" y="452.978" width="24" height="1440" transform="rotate(-90 2.30859 452.978)" stroke="#393953" stroke-opacity="0.07"/>
<rect x="2.30859" y="476.978" width="24" height="1440" transform="rotate(-90 2.30859 476.978)" stroke="#393953" stroke-opacity="0.07"/>
<rect x="2.30859" y="500.978" width="24" height="1440" transform="rotate(-90 2.30859 500.978)" stroke="#393953" stroke-opacity="0.07"/>
<rect x="2.30859" y="524.978" width="24" height="1440" transform="rotate(-90 2.30859 524.978)" stroke="#393953" stroke-opacity="0.07"/>
<rect x="2.30859" y="548.978" width="24" height="1440" transform="rotate(-90 2.30859 548.978)" stroke="#393953" stroke-opacity="0.07"/>
</g>
</g>
<defs>
<linearGradient id="paint0_linear_1178_3913" x1="1118.44" y1="119.801" x2="667.916" y2="590.281" gradientUnits="userSpaceOnUse">
<stop stop-color="white" stop-opacity="0.42"/>
<stop offset="1" stop-color="white"/>
</linearGradient>
<clipPath id="clip0_1178_3913">
<rect width="1440" height="867" fill="white"/>
</clipPath>
</defs>
</svg>
