<svg width="20" height="22" viewBox="0 0 20 22" fill="none" xmlns="http://www.w3.org/2000/svg">
<circle cx="10" cy="12" r="9.5" stroke="#DAD9E8" stroke-opacity="0.28"/>
<path d="M10.6 15.12C10.032 15.12 9.524 15.004 9.076 14.772C8.636 14.54 8.288 14.18 8.032 13.692C7.784 13.204 7.66 12.58 7.66 11.82C7.66 11.028 7.792 10.384 8.056 9.888C8.32 9.392 8.676 9.028 9.124 8.796C9.58 8.564 10.096 8.448 10.672 8.448C11 8.448 11.316 8.484 11.62 8.556C11.924 8.62 12.172 8.7 12.364 8.796L12.04 9.672C11.848 9.6 11.624 9.532 11.368 9.468C11.112 9.404 10.872 9.372 10.648 9.372C10.216 9.372 9.86 9.464 9.58 9.648C9.3 9.832 9.092 10.104 8.956 10.464C8.82 10.824 8.752 11.272 8.752 11.808C8.752 12.32 8.82 12.756 8.956 13.116C9.092 13.476 9.296 13.748 9.568 13.932C9.84 14.116 10.18 14.208 10.588 14.208C10.94 14.208 11.248 14.172 11.512 14.1C11.784 14.028 12.032 13.94 12.256 13.836V14.772C12.04 14.884 11.8 14.968 11.536 15.024C11.28 15.088 10.968 15.12 10.6 15.12Z" fill="#C8D2DB" fill-opacity="0.28"/>
</svg>
