<svg width="371" height="371" viewBox="0 0 371 371" fill="none" xmlns="http://www.w3.org/2000/svg">
<circle cx="185.5" cy="185.5" r="185.5" fill="#F0F3F5"/>
<path d="M142.999 264.979C145.691 264.025 148.45 263.27 151.252 262.718L151.591 263.961C151.629 264.108 151.719 264.236 151.843 264.322C151.968 264.408 152.119 264.446 152.27 264.43L163.366 263.138C166.418 256.176 172.023 245.63 172.104 245.468C172.023 242.835 172.104 240.623 172.104 238.103C165.756 240.461 154.014 244.935 147.876 247.794C147.738 247.883 147.63 248.014 147.57 248.167C147.509 248.321 147.497 248.49 147.537 248.65C147.537 248.65 147.65 249.054 147.796 249.635C144.792 249.635 135.795 249.199 133.631 251.25C133.294 251.719 133.129 252.289 133.162 252.865C133.033 255.094 134.148 272.409 135.924 277.496C136.845 280.161 138.783 279.871 140.108 277.319C141.641 273.476 142.625 269.436 143.031 265.318C143.031 265.108 142.983 265.124 142.999 264.979ZM141.141 250.523C143.112 250.362 143.726 250.394 147.957 250.265C148.716 253.14 150.283 259.051 151.091 262.072C148.241 262.513 145.428 263.166 142.676 264.026C141.818 259.571 141.305 255.057 141.141 250.523Z" fill="#879DB1"/>
<path d="M265.531 129.015C265.884 128.51 265.433 127.861 265.051 127.356C266.131 126.221 267.329 125.21 268.623 124.341C270.807 123.229 272.804 121.769 274.538 120.014C275.258 119.25 276.613 117.678 276.105 116.755C275.597 115.832 274.693 115.774 273.465 116.308C273.997 115.737 274.431 115.079 274.75 114.361C275.145 113.236 274.213 112.327 272.194 113.163C272.928 111.966 273.098 110.711 271.856 110.106C270.853 109.615 269.385 110.784 268.538 111.548C266.875 113.033 265.314 114.633 263.866 116.337C262.976 114.433 261.565 112.24 259.8 112.933C258.035 113.625 259.405 116.726 260.308 118.413L257.104 120.678C256.619 120.411 256.072 120.286 255.523 120.317C251.881 120.952 235.152 133.962 233.458 133.962C232.16 133.962 213.61 124.875 197.574 122.25C197.543 122.152 197.485 122.064 197.408 121.998C197.33 121.932 197.236 121.889 197.136 121.875C194.339 121.387 191.503 121.17 188.666 121.226C188.58 121.232 188.496 121.257 188.421 121.299C188.345 121.342 188.28 121.4 188.229 121.471H187.043C186.76 120.303 185.716 117.606 185.349 116.567C186.309 115.716 187.636 115.284 188.327 113.913C189.598 111.375 189.541 106.961 189.189 104.134C190.784 102.894 190.826 100.904 190.459 98.87C190.318 98.0478 189.88 96.1872 189.203 95.7257C188.821 95.4661 188.017 95.7257 187.325 95.9853C186.633 94.341 186.633 95.0911 186.916 94.4276C187.047 94.1218 187.123 93.7945 187.142 93.4612C187.89 93.692 189.443 92.1631 188.906 90.1439C188.625 89.421 188.28 88.7258 187.876 88.0669C188.073 87.5765 188.497 86.9852 187.17 85.1823C186.598 84.5524 185.856 84.1106 185.038 83.913H184.389C183.921 83.2182 183.233 82.709 182.441 82.4707C181.245 82.1592 179.978 82.3405 178.912 82.9755C178.629 83.1919 178.403 83.4803 178.121 83.6823C177.483 83.2862 176.75 83.0768 176.004 83.0768C175.257 83.0768 174.524 83.2862 173.886 83.6823C173.512 83.8321 173.172 84.0575 172.886 84.345C172.6 84.6325 172.373 84.9762 172.22 85.3554C171.529 85.1115 170.795 85.0176 170.066 85.0797C169.336 85.1418 168.628 85.3585 167.985 85.7159C165.547 87.067 163.722 89.3398 162.903 92.0477C162.88 92.4561 162.88 92.8654 162.903 93.2737H162.748C160.631 92.9564 157.934 98.0911 160.094 102.086C160.348 102.562 160.673 103.009 160.983 103.529C161.887 104.971 161.534 105.404 163.553 107.163C164.146 107.683 164.244 107.639 164.611 107.957C164.978 108.274 164.837 108.115 165.049 108.923C165.164 109.399 165.371 109.846 165.657 110.24C165.943 110.634 166.303 110.966 166.715 111.216C166.865 112.627 167.454 113.952 168.395 114.995C168.693 115.336 169.04 115.628 169.425 115.861C169.529 115.92 169.645 115.955 169.764 115.962C170.187 118.644 170.71 122.135 170.936 123.62L169.679 124.313C168.035 124.988 166.437 125.774 164.894 126.664C164.773 126.749 164.687 126.878 164.654 127.024C163.157 127.832 161.746 128.596 160.941 129.087C149.732 135.88 117.899 180.664 117.575 182.712C117.539 182.83 117.539 182.956 117.575 183.073C118.031 183.817 118.587 184.492 119.226 185.078C119.029 185.445 118.793 185.789 118.521 186.102C115.697 187.991 111.462 190.804 109.189 193.314C109.03 193.459 108.91 193.644 108.842 193.851C108.774 194.058 108.76 194.279 108.802 194.493C108.843 194.707 108.938 194.906 109.078 195.071C109.218 195.236 109.397 195.361 109.599 195.434C110.022 195.578 110.093 195.535 112.846 193.991C112.089 194.669 111.47 195.493 111.025 196.415C110.841 197.208 111.547 197.669 112.436 197.525C112.937 197.391 113.413 197.177 113.848 196.89C113.593 197.292 113.458 197.76 113.458 198.239C113.458 198.718 113.593 199.186 113.848 199.588C115.26 201.405 118.958 195.679 120.906 194.265C121.697 195.289 122.77 197.684 124.478 197.049C125.96 196.487 124.337 193.155 124.478 192.188C125.052 191.625 125.665 191.104 126.313 190.631C127.402 191.456 128.647 192.04 129.969 192.347C132.298 192.347 156.607 167.28 158.457 165.275C157.793 171.65 154.447 199.011 155.153 204.333C155.478 206.742 161.139 207.088 163.524 207.218C162.804 224.525 162.325 250.747 162.197 251.021C158.457 259.257 157.44 261.507 156.184 264.002C153.897 268.473 144.269 284.973 143.182 288.723C143.027 289.315 143.013 289.546 143.62 290.642C141.801 292.596 140.112 294.673 138.566 296.858C137.79 298.3 141.121 311.743 143.479 316.503C144.015 317.57 144.89 319.214 146.062 319.171C149.591 319.041 149.577 306.089 149.478 302.469C149.478 302.357 149.438 302.25 149.365 302.166C150.005 301.19 150.703 300.256 151.455 299.368C151.903 299.683 152.375 299.963 152.866 300.204C153.346 300.421 153.883 300.046 154.278 299.714C158.979 295.935 184.332 263.656 189.767 248.425C192.238 241.473 195.527 231.867 196.459 225.059C197.028 220.755 197.08 216.395 196.614 212.078C196.614 212.017 196.638 211.958 196.68 211.915C196.722 211.872 196.78 211.847 196.84 211.847C196.9 211.847 196.957 211.872 196.999 211.915C197.042 211.958 197.066 212.017 197.066 212.078C197.773 216.42 197.91 220.839 197.475 225.218C196.43 234.665 189.132 254.353 185.236 261.593C188.596 260.959 195.428 259.574 198.731 258.564C209.742 255.146 219.906 244.949 220.796 233.497C221.083 228.102 221.083 222.695 220.796 217.299C220.7 209.851 219.753 202.44 217.972 195.217C220.965 193.559 223.704 191.612 224.593 189.823C226.499 186.001 221.459 164.005 220.358 157.832C226.386 158.51 236.649 159.736 241.434 155.914C246.912 151.414 258.741 138.75 265.531 129.015ZM148.716 301.676C146.175 300.103 142.618 296.368 142.081 293.44C142.66 292.69 143.267 291.998 143.832 291.219C145.745 294.201 148.13 296.838 150.89 299.022C150.115 299.862 149.389 300.748 148.716 301.676ZM260.943 118.817C261.016 118.77 261.069 118.695 261.09 118.61C261.111 118.524 261.099 118.433 261.056 118.356C260.562 117.418 259.08 114.115 260.111 113.74C260.703 113.51 261.226 113.885 261.663 114.389C262.332 115.256 262.852 116.231 263.202 117.274C263.228 117.359 263.277 117.435 263.342 117.494C263.407 117.553 263.486 117.593 263.572 117.609C263.658 117.625 263.746 117.617 263.827 117.586C263.909 117.555 263.981 117.502 264.035 117.433C265.447 115.832 268.75 112.183 270.613 111.202C272.025 110.452 272.364 111.836 268.905 115.067C268.111 115.686 267.348 116.346 266.618 117.043C266.578 117.1 266.557 117.168 266.557 117.238C266.557 117.308 266.578 117.376 266.618 117.433C266.618 117.808 266.915 118.226 267.423 117.837C268.65 116.736 269.947 115.719 271.305 114.793C271.998 114.29 272.804 113.973 273.648 113.87C273.225 115.197 269.286 118.803 268.948 119.207C268.84 119.305 268.775 119.443 268.766 119.59C268.757 119.737 268.804 119.882 268.899 119.993C268.993 120.105 269.126 120.174 269.27 120.186C269.414 120.198 269.557 120.152 269.668 120.058C271.235 119.019 273.973 116.596 274.919 116.957C275.865 117.317 273.056 120 272.35 120.635C268.298 124.226 269.343 121.918 264.656 126.793C262.616 124.51 260.274 122.529 257.697 120.909L260.943 118.817ZM199.607 187.804C199.367 185.813 199.07 183.664 198.703 181.429L199.31 180.607C202.133 176.9 202.98 171.001 202.712 166.371C204.223 173.135 205.423 179.784 206.34 186.39L199.607 187.804ZM178.615 138.419C174.902 135.534 168.931 130.558 165.458 127.154L171.105 124.269C176.29 129.218 180.729 134.924 184.276 141.202C189.7 151.383 193.723 162.279 196.233 173.582L176.102 144.491L178.728 138.923C178.763 138.838 178.771 138.743 178.75 138.653C178.73 138.562 178.683 138.48 178.615 138.419ZM188.158 122.063C188.243 122.221 189.217 124.341 190.699 128.048C190.699 128.207 190.431 131.813 190.304 133.082C188.502 132.352 186.803 131.382 185.25 130.197C185.561 128.942 186.958 123.245 187.057 121.962L188.158 122.063ZM183.147 137.553C183.245 137.294 183.344 136.947 183.457 136.544L184.403 137.048C184.939 137.409 184.728 136.313 185.208 139.486C185.208 140.02 185.349 140.611 185.377 141.26C184.728 140.063 183.923 138.779 183.161 137.553H183.147ZM182.356 136.342C179.689 132.477 176.653 128.892 173.293 125.64L183.923 130.356C183.514 131.351 182.921 134.394 182.37 136.342H182.356ZM193.212 144.794C191.8 140.856 190.713 136.457 190.177 135.303C190.209 134.943 190.209 134.581 190.177 134.221C190.381 134.299 190.595 134.348 190.812 134.366C190.948 134.367 191.08 134.318 191.184 134.228C191.288 134.138 191.356 134.013 191.377 133.875C191.49 133.399 191.673 130.991 191.701 130.457C195.808 141.05 199.236 151.905 201.964 162.953C193.988 145.616 195.216 150.635 193.226 144.794H193.212ZM204.886 172.328C201.668 156.563 196.007 136.904 189.57 122.337C191.934 122.338 194.294 122.531 196.628 122.914C197.828 133.875 196.826 133.5 197.63 133.933C198.435 134.366 203.277 136.356 203.997 136.659C203.926 137.77 204.943 169.53 204.9 172.328H204.886ZM188.638 96.6488C189.374 98.2896 189.633 100.112 189.386 101.899C189.271 102.354 189.035 102.767 188.704 103.093C188.373 103.419 187.959 103.644 187.51 103.744C187.061 103.845 186.593 103.815 186.16 103.66C185.726 103.505 185.342 103.23 185.052 102.865C184.379 101.415 183.872 99.8908 183.542 98.3219C183.923 97.8171 187.989 96.8074 188.638 96.6488ZM169.213 111.072C168.698 110.832 168.17 110.62 167.632 110.437C167.272 110.286 166.949 110.052 166.691 109.754C166.432 109.455 166.244 109.1 166.14 108.716C166.037 108.332 166.021 107.928 166.093 107.537C166.166 107.145 166.325 106.775 166.56 106.457C167.449 105.692 168.254 105.735 168.988 106.875C169.453 107.755 169.439 107.827 169.651 107.913C169.712 107.941 169.778 107.954 169.844 107.954C169.91 107.953 169.976 107.938 170.036 107.909C170.096 107.88 170.15 107.839 170.193 107.787C170.236 107.736 170.268 107.676 170.286 107.61C170.496 106.708 170.529 105.772 170.385 104.856C170.216 103.86 170.187 99.4469 170.216 99.3026C170.628 99.5247 171.091 99.6293 171.557 99.6055C174.112 99.5046 174.62 98.1632 175.637 97.067C176.808 97.1824 177.048 97.7594 178.375 97.067C178.997 96.7059 179.566 96.2594 180.069 95.7401C180.475 95.9098 180.867 96.1124 181.241 96.3459C182.087 96.7616 183.041 96.8892 183.963 96.7101C184.886 96.531 185.727 96.0545 186.365 95.3507C186.52 95.6536 186.662 95.9565 186.789 96.2738C185.491 96.685 184.27 97.3138 183.175 98.1344C182.935 98.4373 183.288 100.082 183.372 100.471C182.19 100.623 181.046 101 179.999 101.582C179.787 100.832 179.321 99.4325 178.587 99.043C178.366 98.974 178.13 98.974 177.909 99.043C176.639 99.245 172.079 100.644 171.529 101.408C171.049 101.942 172.418 106.067 172.841 106.745C174.465 109.312 179.222 108.562 180.111 105.562C180.332 104.556 180.332 103.511 180.111 102.505C180.521 102.505 181.749 102.057 181.89 102.014C182.864 104.25 183.147 104.38 184.276 106.788C184.121 106.918 183.867 107.134 183.655 107.279C182.652 107.957 182.441 107.841 182.497 108.13C182.514 108.187 182.55 108.236 182.599 108.268C182.649 108.3 182.708 108.312 182.765 108.303C183.358 108.216 183.937 108.051 184.488 107.812C184.817 107.687 185.089 107.44 185.25 107.12C185.645 106.211 183.457 102.793 182.596 101.769C182.765 101.769 183.161 101.481 183.457 101.322C183.852 102.937 184.121 104.207 185.645 104.841C186.086 105.011 186.555 105.089 187.026 105.069C187.497 105.049 187.958 104.932 188.384 104.726C188.61 107.264 188.567 111.389 187.382 113.639C186.775 114.808 185.278 115.255 184.318 116.221C184.036 116.495 184.219 116.885 184.318 117.303C185.885 121.76 185.913 121.745 185.829 122.322C185.413 124.717 184.833 127.078 184.092 129.39C183.739 129.231 179.773 127.082 172.009 123.995C171.769 122.365 170.484 113.668 170.075 112.067C170.103 111.505 170.032 111.375 169.213 111V111.072ZM179.095 105.187C178.643 106.759 176.512 107.437 174.987 107.005C173.463 106.572 173.364 105.779 172.644 103.904C172.306 103.187 172.073 102.424 171.952 101.639C172.418 101.12 177.514 100.053 178.149 99.9517C179.04 101.509 179.375 103.334 179.095 105.115V105.187ZM123.857 191.785C123.32 192.318 124.04 194.064 124.153 195.578C124.153 195.708 124.153 196.27 124.068 196.314C123.292 196.573 122.572 195.376 122.134 194.655C121.697 193.934 121.259 192.953 120.567 193.213C119.156 193.89 115.881 198.333 114.596 198.794C113.947 197.525 117.659 193.905 117.786 193.703C117.841 193.61 117.869 193.504 117.869 193.396C117.868 193.288 117.839 193.182 117.784 193.09C117.728 192.997 117.649 192.922 117.555 192.873C117.461 192.823 117.356 192.801 117.25 192.809C116.996 192.809 116.827 193.039 116.431 193.4C115.229 194.599 113.853 195.601 112.352 196.371C113.713 194.776 115.17 193.268 116.714 191.857C116.79 191.777 116.843 191.677 116.869 191.568C116.869 191.568 116.572 190.804 115.994 191.107C115.175 191.568 111.194 193.919 109.938 194.525C109.768 194.41 109.867 194.237 109.938 194.064C111.928 191.568 116.304 188.539 118.986 186.621C119.301 186.29 119.563 185.91 119.763 185.496C121.62 187.262 123.602 188.887 125.692 190.357C125.048 190.788 124.435 191.265 123.857 191.785ZM156.706 204.895C156.396 204.693 156.17 204.506 156.127 204.246C155.351 198.362 159.671 165.015 159.6 163.703C159.6 163.626 159.585 163.549 159.556 163.478C159.526 163.407 159.484 163.343 159.43 163.289C159.376 163.236 159.312 163.193 159.242 163.165C159.171 163.137 159.097 163.124 159.021 163.126C158.301 163.126 159.572 163.126 141.587 180.722C140.401 181.861 131.338 190.717 129.828 191.309C127.753 191.15 119.946 184.789 118.676 182.785C121.132 177.708 150.918 135.938 161.223 129.548C162.014 129.058 163.369 128.293 164.851 127.486C165.364 127.98 165.916 128.428 166.503 128.827C169.778 132 174.338 135.952 177.796 138.923L175.1 144.39C175.059 144.462 175.038 144.544 175.038 144.628C175.038 144.711 175.059 144.793 175.1 144.866C196.995 176.958 196.67 176.597 196.811 176.597C198.215 184.013 199.088 191.523 199.423 199.068C199.423 201.102 199.423 200.929 199.508 200.785C199.592 200.641 199.508 200.886 199.508 200.886C196.092 204.693 162.282 208.242 156.706 204.895ZM234.743 157.111C228.348 158.02 221.12 156.664 219.723 156.606C218.946 152.761 217.399 149.122 215.177 145.919C215.143 145.872 215.093 145.84 215.037 145.829C214.982 145.819 214.924 145.83 214.876 145.861C214.827 145.892 214.792 145.94 214.778 145.996C214.763 146.053 214.77 146.112 214.796 146.164C215.615 147.866 218.354 155.207 219.031 156.996C218.819 157.688 225.412 185.539 223.548 189.289C221.883 192.679 212.185 196.948 208.684 198.174C207.991 190.145 206.86 182.161 205.296 174.26C205.776 170.106 205.154 145.414 204.971 136.284C204.966 136.178 204.931 136.075 204.871 135.989C204.811 135.902 204.728 135.834 204.632 135.794L198.294 133.068C198.265 129.64 198.053 126.217 197.659 122.813C213.483 125.611 231.92 134.856 233.458 134.87C235.689 134.87 252.262 121.889 255.692 121.37C257.217 121.125 263.767 126.966 264.529 128.582C257.838 138.13 246.079 150.678 240.63 155.02C238.874 156.219 236.848 156.939 234.743 157.111Z" fill="#123054"/>
<path d="M197.257 77.0412C197.239 76.9464 197.204 76.856 197.152 76.7752C197.1 76.6944 197.033 76.6249 196.956 76.5706C196.878 76.5162 196.79 76.4781 196.698 76.4585C196.605 76.4388 196.51 76.438 196.418 76.456C196.325 76.4741 196.237 76.5106 196.158 76.5635C196.079 76.6165 196.011 76.6849 195.958 76.7647C195.905 76.8445 195.868 76.9343 195.849 77.0289C195.83 77.1234 195.829 77.2209 195.847 77.3158C196.129 78.7608 196.185 79.0931 196.805 79.0931C196.923 79.0935 197.038 79.064 197.142 79.0071C197.245 78.9502 197.333 78.8678 197.397 78.7674C197.462 78.667 197.501 78.5517 197.511 78.4319C197.52 78.3122 197.501 78.1918 197.454 78.0816C197.412 77.8504 197.285 77.1713 197.257 77.0412ZM201.572 86.607C202.489 86.8816 203.363 86.4336 203.335 86.2024C203.307 85.9712 203.335 86.0868 202.094 85.61C201.262 85.2921 200.345 84.165 200.021 84.3384C199.696 84.5118 200.19 85.4366 200.303 85.61C200.605 86.079 201.052 86.4302 201.572 86.607ZM227.365 72.8797C225.518 80.8126 224.164 87.5463 223.938 88.8901C223.788 89.4748 223.76 90.0851 223.854 90.6819C224.601 92.3147 234.261 95.537 235.488 94.9012C236.715 94.2654 239.902 86.9105 243.611 79.3243C245.883 79.3987 248.156 79.2292 250.394 78.8186C252.75 78.3757 255.043 77.633 257.22 76.6077C261.986 74.3536 267.204 64.7011 267.909 59.846C268.438 54.5747 267.348 49.2658 264.793 44.6592C252.961 23.6347 218.255 34.9489 221.076 58.2998C221.881 63.643 224.051 68.6729 227.365 72.8797ZM235.968 90.0894C235.968 90.3206 235.714 90.2917 234.557 90.0894C232.192 89.7848 229.902 89.0353 227.802 87.8786C226.815 87.3295 226.547 87.2139 226.646 86.9683C226.745 86.7226 226.956 86.8093 228.479 87.2428C228.62 87.2428 232.992 88.6878 234.247 89.1357C235.869 89.8871 235.968 89.8871 235.968 90.0894ZM235.714 66.5796C237.22 66.6596 238.72 66.3411 240.071 65.6548C241.327 66.2781 242.685 66.6555 244.076 66.7674C241.707 71.2902 236.898 80.5092 235.347 85.4221L229.368 83.7315C230.778 80.1769 233.895 71.8538 235.685 66.5796H235.714ZM235.22 65.3802C234.167 65.2173 233.196 64.705 232.455 63.922C231.713 63.139 231.243 62.1284 231.116 61.0453C230.721 58.1553 232.527 54.9186 235.248 55.6844C236.955 56.1613 237.166 57.5484 236.87 59.2969C236.616 60.5685 235.7 63.7619 235.192 65.3224L235.22 65.3802ZM239.056 61.9123C239.207 60.9668 239.553 60.0652 240.071 59.268C240.318 58.8334 240.679 58.4785 241.113 58.2435C241.546 58.0085 242.036 57.9028 242.525 57.9386C243.569 58.2565 244.02 60.2795 243.16 61.551C242.333 62.6752 241.304 63.6268 240.128 64.3543C239.723 64.111 239.401 63.7465 239.204 63.31C239.007 62.8735 238.946 62.3857 239.028 61.9123H239.056ZM226.096 43.5466C232.414 35.7581 244.302 32.6659 252.89 35.8737C257.556 37.5147 261.48 40.8373 263.932 45.2228C266.364 49.6062 267.404 54.6563 266.908 59.6726C266.259 64.1665 261.267 73.501 256.881 75.5674C252.871 77.4415 248.496 78.351 244.09 78.2261C243.611 78.2261 243.103 78.2261 242.92 78.5729C242.088 80.3069 240.565 83.6593 239.07 86.8093C238.038 86.2986 236.967 85.8734 235.869 85.5377C237.505 80.7404 242.666 71.3191 245.12 66.753C247.246 66.9396 249.383 66.5614 251.325 65.6548C251.85 65.3718 252.285 64.9414 252.579 64.414C252.873 63.8867 253.014 63.2842 252.986 62.6774C252.958 62.0706 252.762 61.4847 252.42 60.9882C252.078 60.4918 251.605 60.1056 251.057 59.8749C248.871 58.7767 246.911 61.4065 245.769 63.6174C245.458 64.1954 245.106 64.8745 244.711 65.6403C243.57 65.5635 242.446 65.3253 241.369 64.9323C242.441 64.16 243.392 63.2244 244.189 62.1579C244.636 61.4671 244.862 60.6512 244.837 59.823C244.811 58.9947 244.536 58.195 244.048 57.534C243.665 57.0781 243.133 56.7811 242.551 56.6986C241.97 56.6161 241.379 56.7539 240.889 57.0861C239.902 57.7079 239.11 58.6085 238.61 59.6799C238.11 60.7514 237.922 61.9479 238.069 63.1261C238.222 63.7911 238.572 64.3915 239.07 64.8456C238.145 65.2382 237.152 65.4348 236.151 65.4236C236.715 63.7185 237.632 60.6407 237.871 59.3836C238.022 58.6669 238.055 57.9296 237.97 57.2017C237.861 56.5768 237.578 55.9975 237.155 55.5335C236.732 55.0695 236.188 54.7406 235.587 54.5862C232.16 53.5892 229.636 57.4762 230.129 61.1031C230.269 62.4028 230.813 63.622 231.682 64.5798C232.55 65.5376 233.697 66.1831 234.952 66.4206C233.147 71.6226 230.327 80.0179 228.916 83.6015L225.814 82.7778C227.802 72.5474 228.042 72.793 227.76 72.663C224.556 68.4769 222.506 63.487 221.823 58.2131C221.491 55.5981 221.699 52.9406 222.435 50.4137C223.172 47.8868 224.419 45.547 226.096 43.5466ZM245.67 65.727C246.657 63.8919 248.631 59.8749 250.549 60.8575C250.933 61.0158 251.267 61.2785 251.516 61.6172C251.764 61.9559 251.918 62.3577 251.96 62.7793C251.931 65.3224 248.067 65.7704 245.613 65.727H245.67ZM299.653 72.0994C301.353 71.0753 303.36 70.7257 305.294 71.1168C307.419 71.1558 309.449 72.0262 310.967 73.5497C312.485 75.0731 313.377 77.1341 313.46 79.3099C312.182 78.5503 310.688 78.2645 309.229 78.5007C305.689 78.8186 301.064 80.7837 301.684 84.2806C302.192 87.1706 305.915 86.7804 308.735 86.0001C311.556 85.2198 313.798 83.8038 314.376 81.0149C317.803 83.5726 318.607 88.052 318.748 92.4303C318.748 92.4916 318.772 92.5504 318.814 92.5938C318.856 92.6371 318.914 92.6615 318.974 92.6615C319.033 92.6615 319.091 92.6371 319.133 92.5938C319.175 92.5504 319.199 92.4916 319.199 92.4303C319.298 87.5318 318.438 82.7345 314.531 79.9457C314.572 78.6911 314.363 77.4412 313.918 76.2717C313.473 75.1022 312.801 74.0374 311.943 73.1417C311.084 72.2461 310.058 71.5382 308.925 71.061C307.791 70.5838 306.576 70.3472 305.351 70.3654C303.393 70.0725 301.397 70.4918 299.71 71.5503C299.188 71.8104 299.428 72.2006 299.653 72.0994ZM312.515 82.4599C310.921 84.5985 306.408 85.7111 304.321 85.3499C303.546 85.2198 302.911 84.8875 302.742 84.0639C302.234 81.1739 307.099 79.5989 310.004 79.4977C311.187 79.4048 312.367 79.7146 313.361 80.3791C313.254 81.1346 312.963 81.8503 312.515 82.4599ZM293.195 55.2076C294.704 53.3002 293.688 49.9767 289.472 49.9623C287.836 49.9623 287.046 51.6674 287.159 53.3002C287.413 57.1872 291.686 57.0716 293.195 55.2076ZM288.146 53.228C288.146 52.2743 288.583 51.0316 289.556 51.046C291.827 51.046 292.87 52.1298 292.87 53.3291C292.814 56.0601 287.963 57.4762 288.146 53.228ZM287.568 217.045C275.172 211.974 269.418 236.524 259.293 257.62C259.229 258.507 259.257 259.399 259.377 260.279C259.377 262.49 259.617 277.128 260.872 278.789C261.211 279.454 262.635 278.789 263.298 278.37C268.927 274.8 274.232 270.718 279.149 266.175C279.191 266.126 279.222 266.068 279.242 266.006C279.261 265.944 279.268 265.878 279.262 265.814C281.885 261.984 291.714 242.044 294.097 232.044C295.761 224.964 294.111 219.69 287.568 217.045ZM291.996 235.397C285.36 234.525 278.943 232.378 273.085 229.068C276.385 222.666 280.46 215.369 287.187 218.115C294.675 221.164 294.52 227.478 291.996 235.353V235.397ZM268.53 272.966C268.097 272.594 267.624 272.274 267.119 272.012C265.214 271.02 263.012 270.803 260.957 271.406C260.816 269.686 260.012 258.502 260.012 258.401C270.575 262.36 267.317 260.64 277.781 265.972C276.681 267.042 272.549 270.004 268.53 272.937V272.966ZM275.806 231.148C277.182 231.918 278.594 232.618 280.037 233.244C276.805 238.446 273.948 243.884 271.491 249.514C269.122 254.586 269.207 254.557 266.795 260.091C265.385 259.629 263.975 259.196 262.564 258.762C264.087 255.655 274.918 232.94 275.806 231.12V231.148ZM267.345 260.236C271.928 251.812 276.596 241.336 280.601 233.432C282.011 234.038 283.422 234.53 284.832 234.963C284.084 236.408 281.899 240.252 281.32 241.364C280.742 242.477 274.946 254.181 274.537 255.077C273.889 256.522 272.112 260.554 271.562 261.84C270.123 261.19 268.741 260.698 267.289 260.207L267.345 260.236ZM272.069 262.028C272.93 260.424 276.469 253.69 276.906 252.823C277.569 251.479 284.959 236.004 285.368 235.108C286.665 235.483 288.033 235.801 288.907 235.975C286.327 243.2 278.895 257.115 276.215 263.978C273.776 262.808 273.226 262.519 272.013 261.999L272.069 262.028ZM272.93 229.487L275.454 230.932C270.367 239.808 265.936 249.063 262.198 258.618L260.082 257.953C268.276 240.064 268.657 237.723 272.873 229.458L272.93 229.487ZM278.74 265.236L276.61 264.195C278.909 259.571 286.101 247.708 289.387 236.076C290.177 236.22 290.952 236.35 291.7 236.452C288.076 246.36 283.725 255.972 278.683 265.207L278.74 265.236ZM234.557 274.613C235.119 274.137 235.521 273.491 235.706 272.768C235.891 272.044 235.849 271.28 235.587 270.582C235.467 269.575 235.017 268.64 234.309 267.931C233.602 267.221 232.68 266.78 231.695 266.679C230.71 266.578 229.721 266.824 228.89 267.375C228.06 267.927 227.437 268.752 227.125 269.715C225.32 268.516 223.36 267.244 221.484 266.03C222.895 264.108 227.041 264.961 227.464 266.536C227.473 266.597 227.506 266.652 227.555 266.689C227.604 266.726 227.665 266.741 227.725 266.731C227.785 266.722 227.838 266.688 227.874 266.638C227.91 266.588 227.924 266.525 227.915 266.464C227.704 263.95 222.599 262.476 220.54 265.438C218.72 264.296 216.464 262.909 214.574 261.854C216.196 260.409 219.82 261.218 220.215 262.721C220.234 262.773 220.27 262.816 220.316 262.843C220.363 262.869 220.417 262.878 220.47 262.868C220.522 262.858 220.569 262.828 220.603 262.786C220.636 262.743 220.654 262.689 220.652 262.635C220.469 260.294 215.745 258.719 213.601 261.291C212.703 260.775 211.759 260.349 210.781 260.019C210.602 259.943 210.406 259.922 210.216 259.958C210.026 259.994 209.85 260.085 209.709 260.221C206.141 264.773 194.112 276.593 188.556 277.966C188.416 277.987 188.284 278.046 188.174 278.137C188.063 278.227 187.978 278.345 187.927 278.48C187.875 278.615 187.859 278.761 187.881 278.904C187.902 279.047 187.96 279.182 188.048 279.295C189.268 280.564 190.665 281.64 192.194 282.489C190.784 283.934 189.684 285.234 188.866 286.173C188.443 286.636 188.217 295.479 188.584 297.43C188.638 297.621 188.759 297.785 188.922 297.892C190.699 299.135 213.587 309.279 215.928 307.92C217.494 307.01 236.179 287.084 236.475 286.477C236.926 285.523 236.771 279.165 236.743 276.622C236.63 275.856 235.234 275.033 234.557 274.613ZM189.43 293.702V290.479C195.282 293.369 208.68 299.265 213.756 300.912C215.054 301.346 215.167 301.288 215.844 300.912C219.722 298.369 233.415 282.561 235.925 280.148V283.197C228.31 291.014 215.378 304.712 215.138 303.932C213.742 303.845 190.643 294.28 189.43 293.702ZM234.205 269.744C234.712 270.619 234.984 271.616 234.994 272.634C234.99 272.958 234.912 273.276 234.768 273.564C234.623 273.852 234.416 274.103 234.162 274.296C232.978 273.486 230.736 271.984 228.084 270.221C229.537 267.287 232.766 267.244 234.148 269.744H234.205ZM189.077 278.992C195.085 277.171 206.494 265.9 210.33 261.016C211.253 261.279 212.143 261.653 212.981 262.129C211.571 264.816 213.08 267.764 213.615 267.345C213.912 267.114 213.376 267.027 213.291 265.611C213.255 264.577 213.484 263.551 213.954 262.635C215.9 263.675 218.185 265.033 220.117 266.175C218.932 268.877 220.356 271.55 220.85 271.16C221.343 270.77 220.624 270.857 220.54 269.44C220.505 268.512 220.679 267.587 221.047 266.738C223.036 267.938 225.066 269.18 226.928 270.351C226.641 271.071 226.527 271.851 226.596 272.625C226.665 273.4 226.914 274.146 227.323 274.801C227.341 274.826 227.364 274.847 227.391 274.862C227.417 274.878 227.446 274.888 227.476 274.892C227.506 274.896 227.537 274.894 227.566 274.886C227.596 274.878 227.623 274.864 227.647 274.845C227.671 274.826 227.691 274.802 227.707 274.775C227.722 274.748 227.732 274.718 227.736 274.687C227.739 274.657 227.737 274.625 227.729 274.595C227.722 274.565 227.708 274.537 227.689 274.512C227.436 273.938 227.311 273.313 227.323 272.683C227.335 272.054 227.485 271.434 227.76 270.871C231.046 272.923 233.697 274.642 234.515 275.206C234.36 275.35 219.651 288.76 214.645 292.748C211.359 291.867 194.112 283.095 189.077 278.992ZM189.613 287.04C196.002 289.93 210.513 296.635 213.855 297.285C214.433 297.401 214.659 297.444 215.759 296.548C220.455 292.69 235.728 276.319 235.869 276.492C235.876 276.535 235.876 276.579 235.869 276.622V279.512C232.724 282.098 215.237 300.912 214.955 300.016C213.545 300.016 190.629 290.436 189.458 289.901C189.43 289.294 189.557 287.676 189.613 287.04ZM215.294 306.952C213.883 307.776 192.406 298.831 189.529 297.011C189.421 296.09 189.369 295.163 189.374 294.236C195.55 297.357 213.517 305.131 215.167 305.059C217.578 304.929 234.628 285.263 235.841 283.89C235.855 284.628 235.784 285.366 235.629 286.087C235.389 286.563 216.224 306.417 215.294 306.952ZM98.4562 225.499C98.5549 227.045 98.6254 228.389 98.6254 229.646C98.6254 229.837 98.6997 230.021 98.8319 230.157C98.9642 230.292 99.1435 230.368 99.3305 230.368C99.5175 230.368 99.6969 230.292 99.8291 230.157C99.9614 230.021 100.036 229.837 100.036 229.646C100.036 228.302 99.9651 226.972 99.8664 225.397C99.8533 225.206 99.7665 225.027 99.625 224.901C99.4835 224.775 99.299 224.712 99.1119 224.725C98.9249 224.739 98.7508 224.828 98.6278 224.973C98.5048 225.118 98.4431 225.307 98.4562 225.499ZM313.333 196.527C313.241 196.532 313.15 196.556 313.068 196.598C312.985 196.64 312.911 196.698 312.851 196.769C312.79 196.841 312.744 196.924 312.716 197.014C312.687 197.104 312.676 197.198 312.684 197.293C312.769 198.622 312.853 200.052 312.853 201.44C312.853 201.631 312.927 201.815 313.06 201.951C313.192 202.086 313.371 202.162 313.558 202.162C313.745 202.162 313.925 202.086 314.057 201.951C314.189 201.815 314.263 201.631 314.263 201.44C314.263 199.995 314.179 198.55 314.08 197.191C314.075 197.097 314.051 197.005 314.01 196.92C313.97 196.835 313.913 196.76 313.843 196.698C313.773 196.636 313.692 196.589 313.605 196.559C313.517 196.53 313.425 196.519 313.333 196.527ZM94.8037 221.901C94.9907 221.901 95.1701 221.824 95.3023 221.689C95.4345 221.553 95.5088 221.37 95.5088 221.178C95.5088 220.986 95.4345 220.803 95.3023 220.667C95.1701 220.532 94.9907 220.456 94.8037 220.456C93.0973 220.456 91.673 220.586 90.2628 220.557C90.0744 220.557 89.8936 220.632 89.7591 220.767C89.6246 220.903 89.5472 221.086 89.5435 221.279C89.5435 221.471 89.6178 221.655 89.7501 221.79C89.8823 221.926 90.0617 222.002 90.2487 222.002C91.7012 222.031 93.2948 221.973 94.8037 221.901ZM308.961 192.25C307.269 192.25 305.844 192.351 304.42 192.365C304.233 192.365 304.054 192.441 303.921 192.577C303.789 192.712 303.715 192.896 303.715 193.088C303.715 193.279 303.789 193.463 303.921 193.599C304.054 193.734 304.233 193.81 304.42 193.81C305.943 193.81 307.522 193.81 309.046 193.695C309.233 193.683 309.407 193.596 309.532 193.452C309.656 193.309 309.72 193.12 309.708 192.929C309.697 192.737 309.612 192.558 309.472 192.431C309.332 192.303 309.148 192.238 308.961 192.25ZM98.0754 212.971C98.16 214.3 98.2447 215.731 98.2447 217.118C98.2483 217.308 98.3237 217.49 98.4552 217.624C98.5866 217.759 98.7639 217.836 98.9498 217.84C99.1368 217.84 99.3161 217.764 99.4484 217.629C99.5806 217.493 99.6549 217.309 99.6549 217.118C99.6549 215.673 99.5703 214.228 99.4857 212.869C99.4726 212.678 99.3857 212.499 99.2442 212.373C99.1027 212.247 98.9182 212.184 98.7312 212.198C98.5442 212.211 98.37 212.3 98.247 212.445C98.1241 212.59 98.0623 212.779 98.0754 212.971ZM313.883 188.912C313.883 187.467 313.798 186.022 313.699 184.663C313.686 184.472 313.599 184.293 313.458 184.167C313.316 184.041 313.132 183.978 312.945 183.992C312.758 184.005 312.584 184.094 312.461 184.239C312.338 184.384 312.276 184.573 312.289 184.765C312.374 186.094 312.458 187.524 312.458 188.912C312.458 189.103 312.533 189.287 312.665 189.423C312.797 189.558 312.976 189.634 313.163 189.634C313.352 189.634 313.533 189.559 313.667 189.423C313.802 189.288 313.879 189.105 313.883 188.912ZM108.483 221.713C108.576 221.709 108.667 221.687 108.751 221.647C108.835 221.607 108.911 221.551 108.973 221.481C109.036 221.411 109.085 221.329 109.117 221.24C109.149 221.151 109.164 221.056 109.16 220.961C109.146 220.772 109.062 220.596 108.926 220.467C108.79 220.338 108.612 220.267 108.426 220.268C106.72 220.34 105.296 220.398 103.871 220.369C103.684 220.369 103.505 220.445 103.373 220.58C103.241 220.716 103.166 220.9 103.166 221.091C103.166 221.283 103.241 221.467 103.373 221.602C103.505 221.738 103.684 221.814 103.871 221.814C105.38 221.843 106.96 221.785 108.483 221.713ZM322.64 192.062C321.23 192.134 319.665 192.177 318.099 192.177C318.006 192.173 317.913 192.189 317.826 192.223C317.739 192.257 317.659 192.308 317.592 192.374C317.525 192.44 317.472 192.52 317.435 192.608C317.399 192.695 317.38 192.79 317.38 192.885C317.38 193.078 317.454 193.264 317.586 193.401C317.717 193.539 317.897 193.619 318.085 193.622C319.693 193.622 320.99 193.622 322.697 193.507C322.789 193.503 322.88 193.481 322.964 193.441C323.048 193.401 323.124 193.345 323.187 193.275C323.25 193.205 323.299 193.123 323.331 193.034C323.363 192.945 323.377 192.85 323.373 192.755C323.356 192.567 323.272 192.393 323.136 192.265C323.001 192.137 322.824 192.064 322.64 192.062ZM76.0759 178.898C76.2592 179.042 116.028 173.002 117.734 171.933C117.828 171.862 117.904 171.768 117.953 171.66C118.003 171.551 118.024 171.431 118.016 171.312C118.016 169.448 115.633 151.949 114.49 147.585C114.349 147.051 114.208 146.516 113.884 146.328C111.726 144.999 73.7067 152.339 71.4362 153.842C71.3747 153.879 71.3215 153.929 71.2802 153.989C71.2389 154.049 71.2104 154.117 71.1965 154.189C70.717 155.937 74.849 178.031 76.0759 178.898ZM72.0567 154.536C74.7644 153.278 109.273 146.805 113.221 147.311C114.18 149.839 116.747 168.364 116.916 171.081C114.956 171.673 76.6118 178.421 76.4707 178.45C76.3297 178.479 76.3156 178.652 76.0195 177.742C74.7785 173.927 71.9862 157.801 72.0567 154.536Z" fill="#45657E"/>
<path d="M101.188 198.311C101.265 198.166 101.299 198.001 101.287 197.837C101.287 195.55 98.0811 170.165 96.9422 168.137C96.8529 167.987 96.7266 167.865 96.5759 167.781C96.4253 167.698 96.2557 167.657 96.0846 167.662C91.3745 167.072 51.6414 175.012 49.0263 176.867C48.6607 177.126 48.717 177.773 48.7591 178.463C48.9841 182.246 52.9771 207.128 54.3831 206.984C54.5377 206.984 54.4815 206.869 54.1159 207.631C51.9226 212.248 47.7609 227.034 47.8453 230.011C47.8453 231.262 48.1265 232.887 49.3356 232.801C58.0105 231.708 100.542 224.804 112.774 222.23C113.252 222.129 113.561 221.683 113.547 220.95C113.403 219.728 113.04 218.543 112.478 217.455C110.763 214.161 103.649 201.116 101.188 198.311ZM54.4674 206.538C53.3708 205.1 49.3356 180.319 49.6449 177.572C52.7381 175.932 91.9369 168.18 96.0424 168.813C97.1672 171.977 100.078 194.831 100.26 197.578C95.2831 199.333 60.8225 205.028 54.4674 206.538ZM55.0861 206.97C56.2671 206.668 96.4923 199.778 100.176 198.786C102.187 200.699 111.269 217.225 111.86 218.634C103.789 220.072 55.9156 228.256 48.8716 229.349C48.97 224.991 53.3427 209.76 55.0861 206.97Z" fill="#879DB1"/>
<path d="M60.2451 221.811C61.4736 221.624 87.5395 218.421 96.9576 215.81C97.0157 215.795 97.0654 215.757 97.0958 215.704C97.1263 215.651 97.135 215.588 97.12 215.529C97.105 215.47 97.0676 215.419 97.016 215.388C96.9643 215.357 96.9027 215.348 96.8447 215.363C94.9949 215.753 72.4308 218.825 60.2169 221.364C60.1831 221.358 60.1484 221.36 60.1155 221.369C60.0825 221.379 60.052 221.396 60.0264 221.419C60.0009 221.442 59.9808 221.471 59.9678 221.504C59.9548 221.536 59.9492 221.571 59.9514 221.606C59.9536 221.641 59.9636 221.675 59.9806 221.706C59.9975 221.736 60.0211 221.762 60.0494 221.782C60.0777 221.802 60.11 221.815 60.1439 221.82C60.1778 221.825 60.2124 221.822 60.2451 221.811ZM79.2933 121.44C78.7658 122.657 78.3223 123.91 77.966 125.19C77.945 125.396 78.0004 125.602 78.1213 125.767C79.5474 127.96 94.1618 144.794 97.9743 147.16C98.4967 147.492 99.118 147.723 99.4993 147.247C102.269 143.726 105.883 140.998 109.991 139.327C113.334 138.119 116.839 137.442 120.383 137.322C123.207 137.062 123.701 136.774 124.789 134.884C126.071 132.397 127.773 130.161 129.815 128.277C132.42 125.951 135.311 123.982 138.415 122.42C138.554 122.34 138.663 122.213 138.725 122.062C138.786 121.91 138.796 121.742 138.753 121.584C138.276 120.343 137.645 119.17 136.875 118.093C137.384 117.92 137.949 117.761 137.949 117.242C137.949 115.799 125.636 97.5944 122.219 94.1611C121.866 93.8005 121.357 93.3245 120.891 93.3533C113.831 93.7572 106.955 100.566 102.973 106.509C98.412 106.336 95.4609 105.918 90.2647 108.154C86.5963 109.745 83.2891 112.092 80.55 115.049C80.1264 115.496 77.2458 118.612 77.2035 118.857C77.1611 119.103 77.2458 119.103 79.2933 121.44ZM135.774 121.036C129.886 122.06 126.13 127.065 123.362 132.504C122.134 134.927 122.247 135.043 120.948 135.014C118.676 134.882 116.398 134.969 114.142 135.273C112.487 135.526 110.861 135.942 109.285 136.514C105.698 137.812 101.589 141.967 99.4004 145.054C99.3539 145.117 99.2948 145.17 99.227 145.209C99.1591 145.247 99.0841 145.271 99.0068 145.277C98.9294 145.284 98.8516 145.274 98.7783 145.248C98.705 145.222 98.6379 145.18 98.5815 145.126C93.9924 140.293 85.8733 131.811 81.7925 126.936C81.5949 126.719 81.9337 126.402 82.1314 126.633C84.7719 129.518 91.592 136.427 98.9062 143.943C101.377 140.726 105.19 136.831 108.96 135.475C111.016 134.726 113.155 134.242 115.328 134.033C117.363 133.875 119.407 133.875 121.442 134.033C122.275 133.052 126.398 121.916 135.746 120.675C135.773 120.695 135.796 120.722 135.812 120.753C135.828 120.783 135.837 120.817 135.838 120.852C135.839 120.886 135.833 120.921 135.819 120.953C135.806 120.985 135.786 121.013 135.76 121.036H135.774ZM120.877 94.5218C123.701 96.5413 135.195 113.924 136.692 116.968C134.095 117.808 131.587 118.915 129.208 120.271C126.955 121.425 124.982 123.078 123.434 125.109C121.885 127.14 120.799 129.499 120.256 132.013C115.187 123.589 108.113 114.313 103.411 107.49C103.693 107.303 111.629 95.0843 120.877 94.5218ZM90.5753 108.947C95.7292 106.827 98.5815 107.317 102.846 107.505C107.082 114.89 114.693 125.306 119.705 132.129C115.079 131.01 110.21 131.694 106.051 134.047C103.552 135.49 100.502 138.952 98.6238 141.101C95.9127 138.88 80.2676 121.858 77.7542 118.973C81.6231 114.501 85.1955 111.14 90.5753 108.889V108.947ZM64.7353 145.631C64.3863 145.381 63.9738 145.239 63.5477 145.224C63.1216 145.209 62.7003 145.32 62.3349 145.544C62.0688 145.666 61.8287 145.839 61.6283 146.055C61.4279 146.271 61.2711 146.526 61.1668 146.803C61.0626 147.081 61.0129 147.378 61.0208 147.675C61.0286 147.973 61.0937 148.266 61.2123 148.538C61.331 148.809 61.5009 149.055 61.7124 149.259C61.9239 149.464 62.1728 149.624 62.4448 149.731C62.7169 149.837 63.0068 149.888 63.2981 149.88C63.5893 149.872 63.8762 149.806 64.1423 149.684C64.5674 149.589 64.9542 149.365 65.2514 149.04C65.5486 148.715 65.7422 148.306 65.8065 147.866C65.8708 147.427 65.8028 146.978 65.6115 146.578C65.4202 146.179 65.1147 145.849 64.7353 145.631ZM63.8034 148.516C62.815 148.833 62.2219 148.516 61.9819 148.026C61.53 147.001 62.0949 145.429 63.5634 145.891C64.5941 146.28 65.4272 148.054 63.8034 148.588V148.516ZM136.537 79.6203C136.946 80.4714 138.852 80.1541 139.685 79.88C140.123 79.7357 140.405 79.5771 140.448 79.1443C140.575 78.0624 140.716 68.6859 140.236 67.7771C140.186 67.6818 140.11 67.6036 140.017 67.5523C139.925 67.5009 139.819 67.4788 139.714 67.4886C138.207 67.4843 136.708 67.7079 135.266 68.1522C134.687 68.5128 136.028 78.6683 136.537 79.6203ZM135.562 68.4984C136.867 68.3077 138.186 68.2449 139.502 68.3108C139.587 69.3783 139.361 78.625 139.346 78.7692C138.75 78.9876 138.113 79.0665 137.483 79C137.384 78.6683 137.214 77.7739 137.003 76.6487C136.38 73.9602 135.9 71.2395 135.562 68.4984ZM63.3657 133.456C63.5012 133.527 63.6512 133.564 63.8034 133.564C63.9556 133.564 64.1056 133.527 64.2411 133.456C64.7866 133.112 65.2193 132.61 65.4837 132.013C65.5196 131.918 65.5307 131.815 65.5158 131.713C65.501 131.612 65.4607 131.517 65.399 131.436C64.7212 130.614 57.3222 121.858 56.4185 122.406C55.309 123.14 54.2563 123.96 53.2697 124.858C53.23 124.895 53.1981 124.939 53.1762 124.989C53.1543 125.039 53.1429 125.092 53.1427 125.147C53.1144 125.897 61.3324 132.619 63.3657 133.456ZM56.588 122.781C57.6188 123.546 61.0923 127.931 64.3117 131.811C64.1732 132.034 64.0017 132.234 63.8034 132.403C60.4186 130.19 57.1869 127.741 54.1311 125.075C54.8971 124.253 55.7181 123.487 56.588 122.781ZM78.7708 90.9587C79.0815 85.3616 82.2726 82.7651 85.605 82.1015C84.6589 85.6501 84.8143 90.2663 88.2455 90.8577C89.8834 91.1318 90.6883 90.2663 91.8744 89.2565C96.9435 84.9289 92.8486 80.6013 87.13 80.9042C89.2621 74.9321 94.1901 70.0707 100.728 69.9121C100.788 69.9121 100.845 69.8877 100.887 69.8445C100.93 69.8012 100.954 69.7425 100.954 69.6813C100.954 69.62 100.93 69.5613 100.887 69.518C100.845 69.4748 100.788 69.4504 100.728 69.4504C93.6676 69.3062 88.1184 74.4993 85.9298 80.9908C82.1597 81.6543 78.4178 84.5394 78.319 90.8721C78.3134 90.9024 78.3137 90.9336 78.32 90.9638C78.3262 90.9939 78.3381 91.0226 78.3552 91.048C78.3722 91.0735 78.394 91.0952 78.4193 91.1121C78.4446 91.1289 78.4729 91.1405 78.5025 91.1462C78.5322 91.1519 78.5627 91.1516 78.5922 91.1452C78.6217 91.1389 78.6498 91.1266 78.6747 91.1092C78.6996 91.0918 78.7209 91.0695 78.7374 91.0437C78.7539 91.0179 78.7652 90.989 78.7708 90.9587ZM86.8052 81.9284C88.9091 81.7841 92.0438 82.4477 92.9051 84.3951C93.3993 85.5059 92.9051 86.8763 91.1542 88.3765C90.6789 88.8631 90.1366 89.2761 89.5445 89.6027C87.4265 90.5259 85.0825 87.8572 86.8052 81.9284ZM90.8436 285.947C89.4794 285.573 88.0559 285.482 86.6568 285.68C85.2578 285.877 83.9114 286.358 82.697 287.094C81.4827 287.831 80.4248 288.808 79.5856 289.969C78.7464 291.129 78.1429 292.449 77.8106 293.852C77.1834 296.765 77.7146 299.814 79.2876 302.327C80.8605 304.84 83.3463 306.612 86.198 307.253C89.0498 307.894 92.0339 307.351 94.494 305.744C96.954 304.137 98.6884 301.598 99.3157 298.684C99.5836 297.279 99.5767 295.834 99.2953 294.431C99.0138 293.029 98.4635 291.697 97.6759 290.513C96.8883 289.329 95.8792 288.316 94.7065 287.532C93.5339 286.748 92.221 286.21 90.8436 285.947ZM95.2067 297.703C94.6402 300.012 93.2838 302.037 91.383 303.413C89.4821 304.788 87.1621 305.424 84.8425 305.204C82.7132 304.354 80.9454 302.765 79.8504 300.714C78.7553 298.664 78.403 296.285 78.8555 293.996C79.3839 291.631 80.7276 289.54 82.641 288.105C84.5544 286.669 86.9097 285.985 89.2762 286.177C91.4266 287.085 93.1946 288.738 94.2691 290.847C95.3436 292.955 95.6556 295.383 95.1502 297.703H95.2067Z" fill="#879DB1"/>
<path d="M107.583 287.401C106.353 286.967 105.034 286.862 103.753 287.097C103.222 285.853 102.569 284.667 101.803 283.558C102.722 282.706 105.237 280.336 104.629 279.224C102.467 276.58 99.8991 274.311 97.0264 272.507C95.8269 271.82 94.506 271.383 93.1402 271.221C92.2358 271.351 90.0877 274.948 89.6072 275.757C89.2963 275.757 88.1941 275.396 88.1093 275.353C88.1093 274.312 87.8125 270.557 86.8939 270.123C85.8667 269.737 84.8001 269.47 83.7143 269.329C82.7109 269.17 73.6807 270.86 73.0165 272.102C72.5784 272.94 73.5959 276.104 73.8927 276.985C73.1305 277.414 72.3986 277.897 71.7022 278.43C70.289 279.455 70.6706 279.412 70.4162 279.296C70.1088 279.146 69.7794 279.049 69.4411 279.007C68.3122 278.331 66.9887 278.076 65.6962 278.285C64.3961 278.719 61.3295 285.855 60.8349 287.689C60.673 288.152 60.6292 288.649 60.7077 289.134C61.0468 290.087 63.3079 290.853 64.2548 291.156C63.9933 293.015 63.9933 294.903 64.2548 296.762C63.0112 297.108 60.425 297.888 60.5664 299.188C60.7077 300.489 64.0145 309.069 65.3853 309.748C66.1362 310.178 66.9666 310.442 67.8232 310.524C68.6799 310.606 69.5438 310.504 70.3597 310.225C70.8192 309.991 71.263 309.725 71.6881 309.431C72.2534 309.864 72.8469 310.254 73.4546 310.63C73.0165 311.742 72.0414 314.227 72.3523 315.353C72.5077 315.946 72.9741 316.134 73.6242 316.379C75.4189 317.044 85.0851 319.413 86.5548 319.153C87.1059 319.066 87.4027 318.474 87.5723 317.91C87.8862 316.628 88.0709 315.316 88.1234 313.996C88.8492 313.922 89.5708 313.811 90.2856 313.663C90.7221 314.448 91.2805 315.156 91.939 315.758C92.6597 316.278 93.2674 316.018 94.087 315.483C94.4827 316.004 95.0763 316.726 95.7122 316.798C97.3091 316.986 103.909 310.63 104.587 309.329C105.152 308.246 103.089 306.31 102.17 305.458C103.164 303.929 103.944 302.267 104.488 300.517C105.507 300.674 106.539 300.733 107.569 300.691C108.035 300.691 108.572 300.517 108.77 300.07C109.632 298.062 109.378 290.449 108.77 288.513C108.685 287.949 108.049 287.574 107.583 287.401ZM107.922 288.73C108.403 290.608 108.558 297.701 107.851 299.535C106.63 299.658 105.397 299.6 104.191 299.362C104.063 299.339 103.93 299.367 103.82 299.439C103.711 299.511 103.631 299.623 103.598 299.752C103.035 301.705 102.161 303.55 101.012 305.212C100.93 305.323 100.893 305.461 100.909 305.598C100.924 305.736 100.992 305.861 101.096 305.949C102.088 306.752 102.93 307.731 103.584 308.838C102.877 310.023 97.3515 315.195 95.8252 315.628C95.5991 315.628 94.9773 314.761 94.8219 314.53C94.2999 313.728 93.8279 312.893 93.4087 312.031C93.3475 311.905 93.2426 311.807 93.1145 311.757C92.9864 311.706 92.8444 311.706 92.7162 311.756C88.618 313.331 87.0635 312.406 87.0635 313.447C87.0653 315.004 86.8171 316.551 86.3287 318.026C83.0076 317.657 79.7371 316.911 76.5777 315.801C76.7303 314.259 77.1515 312.757 77.8213 311.366C78.2453 310.398 76.5494 310.673 73.3839 307.379C73.282 307.283 73.1483 307.229 73.0094 307.229C72.8706 307.229 72.7368 307.283 72.6349 307.379C71.2217 308.564 69.3846 309.72 69.0172 309.532C68.2965 309.171 64.9755 301.471 64.7776 299.911C65.7828 299.195 66.9238 298.703 68.1269 298.466C68.2552 298.429 68.366 298.346 68.4387 298.231C68.5115 298.117 68.5413 297.98 68.5226 297.845C68.1762 295.799 68.1762 293.708 68.5226 291.662C68.5442 291.536 68.5183 291.406 68.4501 291.299C68.3819 291.192 68.2765 291.115 68.1551 291.084C67.0898 290.799 66.0641 290.377 65.1027 289.827C64.7918 289.596 64.82 289.611 64.8483 289.365C65.763 285.993 67.2299 282.803 69.1868 279.932C69.9499 279.715 72.0131 281.261 72.7197 281.81C72.7936 281.883 72.8924 281.924 72.9953 281.924C73.0982 281.924 73.197 281.883 73.2709 281.81C73.9202 281.122 74.6193 280.484 75.3624 279.903C77.5104 278.242 78.0898 278.458 77.9061 277.881C77.2565 276.431 76.8915 274.866 76.8321 273.272C77.0511 273.086 77.2996 272.94 77.5669 272.839C78.8863 272.306 80.2418 271.871 81.6228 271.539C83.2967 271.062 85.0171 270.776 86.7526 270.687C87.0494 270.817 87.3179 272.131 87.3885 272.536C87.9114 275.425 87.5581 276.017 87.9679 276.06C91.9955 276.465 92.8152 277.606 93.0978 277.101C93.8814 275.7 94.7948 274.379 95.8252 273.157C96.122 272.853 96.1079 272.709 96.9982 273.229C99.6579 275.006 102.04 277.183 104.064 279.686C104.276 280.062 102.439 282.056 101.096 283.226C100.63 283.645 101.294 283.832 102.51 286.202C103.725 288.571 103.442 289.235 104.092 289.091C105.346 288.784 106.635 288.662 107.922 288.73ZM304.058 168.019C301.095 166.782 297.989 165.942 294.815 165.52C292.498 165.144 289.77 164.769 287.467 164.466C289.686 161.259 296.257 153.14 297.359 151.161C297.67 150.626 297.076 149.875 296.638 149.427C294.179 146.74 289.431 145.729 285.785 145.151C283.694 144.805 274.96 143.707 273.476 144.429C271.696 145.296 258.525 165.52 258.129 168.597C258.129 169.117 258.299 169.319 258.793 169.507C260.871 170.287 270.24 171.501 272.332 172.006C269.505 177.062 256.942 194.152 255.713 196.564C255.416 197.171 255.6 197.532 255.953 197.648C257.225 198.164 258.533 198.579 259.867 198.89C260.376 199.049 261.493 198.341 263.118 197.33C270.41 192.852 301.698 171.732 304.1 169.002C304.166 168.937 304.218 168.86 304.253 168.773C304.287 168.687 304.302 168.594 304.298 168.5C304.294 168.407 304.271 168.316 304.229 168.233C304.188 168.15 304.129 168.077 304.058 168.019ZM273.688 185.354C261.676 193.459 257.62 195.828 257.479 195.929C259.415 192.91 271.441 176.066 273.505 172.035C273.54 171.957 273.559 171.872 273.559 171.786C273.558 171.7 273.539 171.615 273.503 171.538C273.466 171.46 273.413 171.392 273.347 171.338C273.282 171.284 273.205 171.246 273.123 171.226C271.71 170.706 261.422 169.579 258.991 168.698C259.302 166.011 272.134 145.7 273.688 144.891C275.243 144.082 290.321 145.917 293.148 147.983C291.664 150.944 283.468 161.316 282.139 163.729C281.871 164.22 281.786 164.697 282.309 164.827C282.832 164.957 296.115 166.546 299.013 167.514C295.48 170.533 277.645 182.639 273.688 185.297V185.354ZM183.033 97.0319C183.033 97.1619 183.117 97.3208 183.329 98.1586C183.385 98.3404 183.507 98.4931 183.671 98.5846C183.834 98.6762 184.026 98.6996 184.206 98.6498C184.386 98.5962 184.537 98.4717 184.627 98.3037C184.717 98.1357 184.739 97.9381 184.686 97.7542C184.545 97.1908 184.418 96.714 184.333 96.4829C184.25 96.3243 184.113 96.2027 183.948 96.1418C183.783 96.081 183.601 96.0853 183.439 96.1538C183.277 96.2224 183.145 96.3503 183.07 96.5126C182.995 96.675 182.982 96.8601 183.033 97.0319Z" fill="#163A65"/>
</svg>
