<svg width="371" height="371" viewBox="0 0 371 371" fill="none" xmlns="http://www.w3.org/2000/svg">
<circle cx="185.5" cy="185.5" r="185.5" fill="#F0F3F5"/>
<path d="M162.838 128.824C160.611 128.5 140.848 128.5 137.302 128.824C137.241 128.839 137.187 128.879 137.152 128.936C137.116 128.994 137.101 129.064 137.109 129.133C137.122 129.185 137.146 129.232 137.18 129.27C137.214 129.308 137.256 129.335 137.302 129.349C140.49 129.659 160.57 129.798 162.769 129.473C163.085 129.442 163.181 128.871 162.838 128.824ZM255.677 167.483C255.402 167.483 251.87 168.889 252.805 169.461L253.794 170.388C253.574 170.944 255.732 173.478 254.248 179.442C253.629 178.963 253.615 179.442 253.698 179.597C255.993 182.254 272.39 197.01 276.045 199.683C276.375 200.224 278.464 199.065 278.794 198.942C286.056 195.461 293.144 191.541 300.028 187.199C302.543 185.654 302.516 180.107 299.465 177.928C296.255 175.529 292.913 173.361 289.459 171.439L293.72 167.684C294.022 167.421 293.857 166.448 292.703 167.498C290.217 162.982 289.211 157.633 289.858 152.372C290.023 152.264 291.865 151.027 291.054 150.626C286.93 148.694 273.269 143.055 269.064 142.761C267.689 142.653 256.694 152.542 255.663 154.535C253.464 158.66 254.138 163.373 255.746 167.529L255.677 167.483ZM254.578 179.674C255.952 177.99 255.526 173.37 254.866 171.33C256.749 173.03 271.881 185.854 276.691 189.285C279.289 195.465 276.389 198.463 276.485 198.926C268.431 192.638 261.876 185.453 254.578 179.674ZM299.369 178.979C301.664 180.307 301.142 185.839 299.492 186.488C292.016 190.984 284.622 195.032 276.898 198.849C277.912 197.31 278.465 195.449 278.478 193.534L289.061 188.651C289.253 188.543 289.061 188.249 288.91 188.296C285.356 189.631 281.877 191.205 278.492 193.008C278.465 191.507 278.05 190.046 277.296 188.806C280.526 187.369 297.032 177.743 299.369 178.979ZM276.458 163.28C280.501 159.516 284.732 156.013 289.129 152.789C288.809 154.668 288.748 156.591 288.951 158.49C288.277 158.738 279.949 165.598 279.523 165.969C279.344 166.123 279.523 166.448 279.742 166.324L289.047 159.217C289.336 161.395 290.504 166.355 292.304 167.699C290.476 169.368 281.433 177.418 279.234 177.418C277.585 175.63 276.444 173.333 275.955 170.817C275.466 168.301 275.65 165.679 276.485 163.28H276.458ZM274.657 149.946C275.619 150.873 271.634 153.484 271.482 153.531C271.029 153.685 270.727 153.16 271.702 152.109C272.197 151.63 274.011 149.374 274.657 149.961V149.946ZM267.167 152.526C267.854 150.981 270.713 148.416 271.922 147.489C271.982 147.443 272.049 147.409 272.12 147.392C272.191 147.375 272.264 147.373 272.336 147.387C272.407 147.402 272.475 147.432 272.536 147.476C272.598 147.52 272.65 147.577 272.692 147.644C272.733 147.711 272.763 147.786 272.778 147.866C272.794 147.946 272.795 148.028 272.783 148.108C272.77 148.189 272.743 148.265 272.704 148.334C272.665 148.403 272.614 148.462 272.554 148.509C271.482 149.436 268.569 152.511 267.758 153.144C267.697 153.182 267.628 153.202 267.559 153.202C267.489 153.202 267.42 153.182 267.359 153.144C267.311 153.119 267.268 153.084 267.232 153.04C267.196 152.996 267.168 152.945 267.15 152.888C267.133 152.832 267.125 152.773 267.128 152.713C267.13 152.654 267.144 152.595 267.167 152.542V152.526ZM257.079 155.199C262.975 156.998 268.767 159.201 274.424 161.797C274.781 161.998 274.657 162.678 274.231 162.585C268.339 160.739 262.551 158.495 256.9 155.864C256.837 155.824 256.788 155.762 256.762 155.687C256.735 155.611 256.731 155.528 256.752 155.451C256.773 155.373 256.817 155.306 256.876 155.26C256.936 155.215 257.007 155.193 257.079 155.199ZM256.062 168.225C262.618 172.381 274.822 177.665 279.426 178.438C280.347 178.592 287.824 172.69 289.047 171.686C289.844 172.566 296.482 176.785 298.173 177.959C295.727 178.098 277.97 187.4 276.691 188.311C269.064 181.899 261.147 175.394 253.327 169.291L256.076 168.225H256.062ZM162.838 128.824H162.851H162.838ZM185.158 99.3742C185.074 99.3356 184.98 99.3356 184.896 99.3742C184.086 99.9304 179.399 107.1 178.451 108.444C177.544 107.053 176.623 105.678 175.702 104.334C175.523 104.087 175.152 104.334 175.29 104.658C176.21 106.312 177.2 107.903 178.203 109.495C178.368 109.742 178.684 109.618 178.822 109.417C179.688 108.181 185.199 100.703 185.432 99.8532C185.443 99.8014 185.443 99.7479 185.435 99.6958C185.427 99.6437 185.409 99.5939 185.384 99.5494C185.358 99.5049 185.325 99.4665 185.286 99.4364C185.247 99.4063 185.204 99.3852 185.158 99.3742ZM158.948 131.822C150.702 132.007 141.562 131.822 138.016 132.162C137.943 132.162 137.874 132.194 137.822 132.252C137.77 132.31 137.741 132.389 137.741 132.471C137.741 132.553 137.77 132.631 137.822 132.689C137.874 132.747 137.943 132.78 138.016 132.78C142.277 132.78 155.54 133.274 158.948 132.455C159.237 132.378 159.182 131.914 158.948 131.822ZM159.251 116.293C159.525 116.293 159.608 115.768 159.251 115.722C156.502 115.258 140.009 116.17 136.01 116.865C135.937 116.865 135.867 116.897 135.815 116.955C135.764 117.013 135.735 117.092 135.735 117.174C135.735 117.256 135.764 117.335 135.815 117.392C135.867 117.45 135.937 117.483 136.01 117.483C141.397 117.483 153.643 116.54 159.182 116.324L159.251 116.293ZM153.78 119.383C154.014 119.383 154.138 118.858 153.78 118.765C152.406 118.379 138.662 118.765 136.587 119.028C136.554 119.034 136.523 119.047 136.495 119.066C136.467 119.086 136.442 119.111 136.423 119.141C136.404 119.172 136.39 119.206 136.383 119.242C136.376 119.278 136.375 119.316 136.381 119.353C136.388 119.413 136.412 119.469 136.449 119.513C136.486 119.557 136.534 119.588 136.587 119.6C139.24 119.77 152.159 119.878 153.78 119.383ZM183.082 127.882C183.838 126.646 175.551 127.094 175.193 127.511C174.836 127.928 175.193 134.278 175.193 134.866C175.193 135.777 182.876 135.762 183.178 135.499C183.521 132.985 183.521 130.427 183.178 127.913L183.082 127.882ZM182.491 134.804C181.763 134.804 176.362 134.912 175.922 134.526C175.922 132.347 175.798 130.184 175.729 128.021H182.601C182.354 130.271 182.317 132.545 182.491 134.804Z" fill="#45657E"/>
<path d="M279.976 170.82C281.9 169.538 283.866 168.286 285.721 166.896C285.982 166.695 285.721 166.17 285.419 166.355L279.77 170.465C279.738 170.5 279.718 170.546 279.713 170.596C279.708 170.646 279.719 170.696 279.743 170.738C279.768 170.78 279.804 170.811 279.847 170.826C279.889 170.841 279.935 170.839 279.976 170.82ZM266.122 187.786C265.957 187.662 265.737 187.956 265.902 188.11C267.277 189.454 274.039 194.77 275.523 195.944C275.715 196.098 275.88 195.743 275.702 195.589C272.816 193.116 269.187 189.856 266.122 187.786ZM177.09 122.504C177.805 122.504 183.398 123.231 183.343 122.195C183.288 121.16 183.206 115.212 182.849 115.026C182.752 113.991 175.784 114.748 175.138 114.887C174.74 114.887 174.905 120.913 174.932 121.639C174.973 122.69 176.471 122.474 177.09 122.504ZM182.491 115.381V121.886C180.176 121.619 177.846 121.567 175.523 121.732C175.614 119.615 175.577 117.493 175.413 115.381C176.554 115.381 181.763 115.582 182.491 115.381ZM275.221 192.977C275.255 193.01 275.299 193.028 275.344 193.028C275.39 193.028 275.433 193.01 275.468 192.977C275.495 192.943 275.51 192.899 275.51 192.854C275.51 192.808 275.495 192.764 275.468 192.73C269.173 187.708 262.92 181.667 256.735 176.954C256.557 176.8 256.282 177.093 256.46 177.294C259.924 181.003 270.74 189.655 275.276 193.055L275.221 192.977ZM292.826 184.108H292.854H292.826ZM183.316 104.859C183.297 104.79 183.255 104.732 183.198 104.698C183.142 104.663 183.075 104.654 183.013 104.674C182.972 104.685 182.934 104.708 182.902 104.74C182.871 104.773 182.848 104.814 182.835 104.859V110.267H175.221C175.087 107.777 174.84 105.296 174.479 102.835C176.628 102.947 178.783 102.885 180.924 102.65C180.973 102.632 181.014 102.597 181.042 102.549C181.069 102.501 181.081 102.444 181.076 102.387C181.068 102.354 181.054 102.323 181.035 102.297C181.016 102.27 180.992 102.248 180.966 102.233C180.457 102.047 174.094 101.429 174.286 102.665C173.654 102.665 174.575 110.391 174.575 110.391C174.905 111.333 176.293 111.009 177.021 111.009C177.75 111.009 182.807 111.148 183.22 111.009C183.879 110.715 183.508 105.771 183.357 104.828L183.316 104.859Z" fill="#C2C0C0"/>
<path d="M316.122 245.032C298.613 246.238 281.098 247.268 263.58 248.123C263.351 245.305 262.891 242.517 262.205 239.794C279.614 239.279 297.023 238.677 314.432 237.987C314.521 237.975 314.603 237.93 314.668 237.861C314.732 237.791 314.775 237.7 314.789 237.6C314.801 237.48 314.77 237.359 314.703 237.263C314.636 237.168 314.539 237.106 314.432 237.091C296.95 237.822 279.472 238.424 261.999 238.898C257.876 222.736 249.176 207.362 239.033 195.187C238.717 191.077 238.703 189.006 237.137 184.881C234.113 177.078 230.773 175.456 230.856 177.31C230.855 177.798 230.924 178.284 231.062 178.747C230.512 177.974 226.471 173.246 225.647 175.796C225.039 175.366 224.352 175.095 223.639 175.004C222.925 174.913 222.202 175.004 221.524 175.27C218.954 170.635 214.652 170.635 211.903 169.09C206.653 166 209.072 156.142 212.934 152.464C212.934 152.464 229.523 152.109 229.536 151.877C229.839 147.505 233.151 80.9563 233.151 80.9563C192.277 80.0447 148.297 80.9563 107.725 81.8834C107.45 81.8834 107.216 82.0843 107.244 82.3624C109.69 105.771 115.696 153.685 115.696 153.685C116.686 154.133 206.529 152.557 211.903 152.464C209.605 155.282 208.347 158.978 208.385 162.801C208.659 172.535 215.545 168.395 221.18 175.518C217.524 177.279 217.057 182.486 218.431 186.21C218.681 186.924 219.019 187.595 219.435 188.203C219.492 189.655 219.86 191.07 220.507 192.328C222.266 196.083 225.399 197.381 225.564 197.937C225.564 206.683 227.2 217.344 228.753 225.873C223.516 222.783 207.986 215.413 192.016 214.887C192.923 206.034 199.726 204.921 198.791 199.003C201.636 198.88 204.481 198.756 207.326 198.602C208.041 198.602 207.258 196.129 207.175 195.712C206.021 189.995 204.862 184.289 203.698 178.592C203.519 177.82 202.722 172.628 202.049 172.628L193.184 172.814C191.232 170.728 186.656 169.955 184.786 172.381C182.038 166.432 173.544 167.298 173.269 173.076C170.946 171.299 167.497 170.944 165.394 173.354C165.174 173.463 123.599 174.096 117.414 174.374H117.304C117.238 174.422 117.19 174.497 117.172 174.584C117.154 174.671 117.167 174.762 117.208 174.838C117.318 175.641 113.731 194.708 113.305 199.297C113.305 199.946 119.531 199.853 120.177 199.853C111.298 211.55 103.313 224.745 100.935 240.181C85.9547 239.918 70.974 239.501 55.9932 239.563C55.9203 239.563 55.8504 239.595 55.7989 239.653C55.7473 239.711 55.7184 239.79 55.7184 239.872C55.7184 239.954 55.7473 240.032 55.7989 240.09C55.8504 240.148 55.9203 240.181 55.9932 240.181C70.9053 240.907 85.8585 240.984 100.784 241.108C100.34 244.171 100.156 247.276 100.235 250.379C85.3912 250.039 70.5479 249.513 55.7184 249.235C55.3885 249.235 55.3335 249.822 55.7184 249.822C70.5617 250.672 85.4325 250.981 100.303 251.228C100.688 259.618 103.629 269.909 110.941 273.679C113.951 280.323 120.328 286.303 127.434 284.587C127.227 285.793 127.035 287.029 126.829 288.265C126.746 288.821 127.489 289.053 127.571 288.497C129.591 276.259 131.694 263.96 135.226 252.155C135.336 251.785 134.841 251.646 134.718 252.001C131.282 262.26 129.344 273.045 127.557 283.784C120.287 284.974 114.487 279.767 111.477 272.721C109.858 268.998 108.921 264.947 108.723 260.809C108.524 256.67 109.068 252.53 110.322 248.633C114.075 237.817 124.066 230.091 133.879 224.807C143.857 219.491 154.573 216.141 165.559 214.903C166.342 223.154 174.781 225.95 181.213 225.518C187.645 225.085 191.452 222.875 192.002 215.582C192.084 215.582 215.215 216.154 235.185 231.157C241.054 235.561 246.386 241.216 249.506 248.401C252.557 255.338 253.629 263.852 250.88 271.083C246.95 281.621 239.775 283.151 235.02 284.093C233.339 272.779 230.093 261.831 225.399 251.646C225.276 251.383 224.891 251.553 225.015 251.831C229.909 263.696 233.247 276.296 234.924 289.238C234.924 289.64 235.639 289.748 235.639 289.238C235.583 287.824 235.417 286.418 235.144 285.036C240.327 284.534 245.126 281.759 248.503 277.31C259.498 274.22 264.294 260.854 263.621 249.081C281.176 248.277 298.713 247.247 316.232 245.99C316.713 245.79 316.535 245.032 316.122 245.032ZM115.751 143.92C113.003 124.266 110.817 104.705 108.33 85.0354C149.561 84.232 191.864 84.5719 232.532 83.7993L229.358 141.757C212.192 142.344 117.964 142.946 115.751 143.92ZM198.626 198.138C198.375 197.314 197.893 196.604 197.252 196.114C197.965 194.84 198.35 193.37 198.365 191.865H199.107L200.138 198.045L198.626 198.138ZM197.472 186.812C197.707 186.599 197.923 186.361 198.118 186.102C198.448 187.755 198.723 189.408 198.998 191.061H198.338C198.405 189.582 198.105 188.111 197.472 186.812ZM206.873 197.736L200.551 198.045C200.386 195.959 200.028 193.904 199.698 191.865C201.674 191.939 203.652 191.882 205.622 191.695C206.034 193.688 206.46 195.728 206.873 197.736ZM205.498 190.984H199.589L198.599 185.19L204.303 185.005L205.498 190.984ZM204.124 184.34L198.75 184.526C198.853 183.793 198.807 183.043 198.614 182.334C198.421 181.624 198.087 180.974 197.637 180.431C197.554 179.967 197.472 179.489 197.362 179.01L203.024 178.87L204.124 184.34ZM202.021 173.308C202.324 174.853 202.598 176.506 202.873 178.113L197.225 178.222C196.936 176.597 196.564 174.993 196.111 173.416L202.021 173.308ZM196.826 179.859C196.157 179.517 195.401 179.457 194.696 179.689C194.759 179.498 194.809 179.302 194.847 179.102H196.661L196.826 179.859ZM195.452 173.432C195.709 175.054 196.049 176.658 196.469 178.237H194.943C195.1 176.525 194.678 174.809 193.761 173.432H195.452ZM162.178 174.096H164.83C164.27 175.07 164.073 176.252 164.281 177.387L161.944 178.144C162.054 176.815 162.178 175.332 162.178 174.096ZM161.436 174.096V178.407C161.203 178.563 160.978 178.733 160.762 178.917L154.261 179.04C154.322 177.437 154.28 175.832 154.138 174.235L161.436 174.096ZM158.55 185.298H154.22V179.89L159.855 179.782C159.259 180.516 158.829 181.4 158.602 182.361C158.375 183.321 158.357 184.328 158.55 185.298ZM154.248 192.452H158C158.053 193.8 158.497 195.092 159.264 196.129C158.811 196.482 158.446 196.96 158.205 197.518C157.964 198.076 157.856 198.694 157.89 199.312H154.179C154.22 196.995 154.248 194.723 154.248 192.452ZM158.371 190.582C158.25 190.905 158.163 191.242 158.11 191.587H154.316V186.009H158.756C159.054 186.931 159.59 187.732 160.295 188.311C159.436 188.811 158.743 189.607 158.316 190.582H158.371ZM153.767 199.297H136.738C136.917 196.639 136.738 194.971 138.264 192.684L153.615 192.483C153.602 194.754 153.643 197.026 153.712 199.297H153.767ZM138.827 191.834C140.257 190.208 141.338 188.237 141.988 186.071H145.424V191.741L138.827 191.834ZM146.304 174.405L153.506 174.266C153.428 175.867 153.428 177.471 153.506 179.071L146.263 179.21C146.263 177.619 146.276 176.012 146.304 174.405ZM146.208 180.06L153.478 179.921V185.329H146.111C146.111 183.568 146.111 181.822 146.208 180.06ZM146.111 186.055H153.547V191.633L145.809 191.741C145.919 189.841 146.001 188.002 146.111 186.055ZM139.239 174.544L145.823 174.421L145.672 179.226L138.965 179.349C139.128 177.755 139.178 176.148 139.116 174.544H139.239ZM138.91 180.184L145.658 180.06L145.534 185.314H142.167C142.332 184.464 142.634 183.073 141.741 182.61C140.847 182.146 139.995 184.464 138.346 185.298C138.497 183.599 138.635 181.899 138.786 180.199L138.91 180.184ZM133.027 174.668L138.703 174.56C138.507 176.153 138.383 177.757 138.332 179.365H137.865C138.456 177.743 135.268 176.692 132.519 179.365C132.56 178.577 132.945 175.193 132.904 174.668H133.027ZM138.154 180.277C138.057 181.961 137.975 183.629 137.879 185.314H135.735C135.322 183.954 135.735 180.756 136.834 180.277H138.126H138.154ZM132.203 174.714L131.983 179.504H129.413C128.396 177.124 129.042 175.317 128.038 174.745L132.203 174.714ZM131.653 180.369C131.336 180.815 131.068 181.303 130.856 181.822L129.839 180.416L131.653 180.369ZM122.871 174.915L127.282 174.822C125.908 175.564 125.702 178.191 125.702 179.628H123.626C122.926 178.948 122.623 179.628 122.101 179.628L122.843 174.822L122.871 174.915ZM125.922 182.764C125.159 182.192 124.539 181.41 124.121 180.493H125.674C125.691 181.254 125.755 182.013 125.867 182.764H125.922ZM121.373 185.082L122.032 180.539C121.894 182.108 122.068 183.691 122.541 185.175L121.373 185.082ZM122.747 185.839C123.31 187.956 124.121 189.887 124.506 192.019L120.383 192.112L121.208 185.823L122.747 185.839ZM117.758 174.93H122.266C122.005 176.476 121.757 178.144 121.51 179.767C120.012 179.767 118.5 179.859 117.002 179.937C117.326 178.285 117.56 176.614 117.703 174.93H117.758ZM116.906 180.57H121.373C121.166 182.115 120.946 183.66 120.727 185.097H116.122C116.356 183.552 116.603 182.053 116.851 180.57H116.906ZM116.067 185.638C117.579 185.731 119.091 185.777 120.603 185.808C120.342 187.894 120.039 190.011 119.792 192.112C118.184 192.112 116.576 192.236 114.968 192.313C115.339 190.088 115.696 187.863 116.067 185.638ZM119.16 199.034H113.855C114.198 196.964 114.556 194.909 114.927 192.854L119.696 192.993C119.406 194.994 119.209 197.01 119.105 199.034H119.16ZM119.545 199.034L120.355 192.854H124.63C124.671 193.265 124.671 193.679 124.63 194.09L120.768 199.05L119.545 199.034ZM110.185 246.516C108.578 250.634 107.774 255.091 107.828 259.587C107.883 264.084 108.794 268.515 110.501 272.582C97.1972 262.477 100.028 240.134 105.691 225.858C110.322 214.161 117.662 204.226 125.18 194.692C126.279 193.286 122.719 183.877 122.596 181.574C122.513 179.859 123.145 179.504 123.709 180.725C124.272 181.945 125.083 183.336 126.197 183.629C126.636 185.082 126.98 184.618 126.925 184.387C126.458 181.837 125.647 178.206 127.159 175.857C128.258 174.22 128.217 177.233 128.327 177.82C128.588 179.226 129.701 181.945 130.705 182.455C130.361 183.552 130.938 183.166 130.979 183.027C132.931 177.264 138.896 178.082 136.972 179.504C136.464 179.844 136.033 180.311 135.712 180.868C135.39 181.426 135.186 182.058 135.116 182.718C134.415 188.172 138.236 187.353 141.012 183.552C142.167 182.007 142.222 185.329 140.394 188.682C138.841 191.525 136.738 192.545 136.491 196.268C135.804 205.369 134.141 216.231 133.027 224.235C123.901 229.195 114.569 235.901 110.13 246.531L110.185 246.516ZM133.742 223.818C135.084 215.961 136.043 208.028 136.614 200.054H157.931C158.728 205.23 164.446 205.926 165.366 213.96C154.397 215.166 143.697 218.501 133.742 223.818ZM191.768 211.349C191.426 212.564 191.205 213.818 191.109 215.088C190.559 221.639 188.085 223.818 181.612 224.359C174.74 224.992 167.291 222.551 166.246 214.223C165.325 206.806 163.209 207.455 159.814 202.264C158.797 200.718 157.89 197.845 159.814 196.639C160.759 197.807 161.943 198.698 163.264 199.235C166.232 206.729 167.236 215.366 175.867 216.324C192.552 218.07 188.813 207.857 194.105 198.942C195.133 198.407 196.065 197.663 196.854 196.747C197.454 197.311 197.868 198.085 198.03 198.946C198.192 199.806 198.092 200.702 197.747 201.491C196.4 205.153 193.156 206.544 191.768 211.349ZM225.825 176.692C226.293 177.866 226.774 179.025 227.2 180.199C226.526 179.226 223.228 175.178 222.128 177.341C221.565 178.469 222.747 180.153 223.228 181.157C221.383 181.524 219.735 182.675 218.624 184.371C216.864 177.186 223.077 173.602 225.825 176.692ZM219.613 187.214C219.352 186.488 219.077 185.746 218.802 185.02C220.008 183.433 221.629 182.313 223.434 181.822C224.207 183.616 224.709 185.543 224.918 187.523C225.289 191.479 222.596 188.651 221.29 187.291C220.781 186.704 219.929 186.457 219.545 187.214H219.613ZM249.369 275.919C253.918 268.75 254.11 259.495 251.471 251.398C247.733 239.949 238.841 231.93 229.481 226.321C227.682 216.978 226.515 207.494 225.99 197.953C225.99 196.5 221.62 195.511 220.259 189.81C220.012 188.775 219.503 186.055 221.166 188.002C222.829 189.949 225.66 191.741 225.537 187.477C225.372 182.424 222.321 179.056 222.596 177.912C222.939 176.476 225.482 179.179 225.894 179.643C226.968 180.972 227.943 182.398 228.808 183.908C228.959 184.155 229.33 183.908 229.193 183.676C228.872 183.058 228.542 182.44 228.203 181.822C228.423 181.296 225.949 176.383 226.389 175.919C226.829 175.456 228.808 177.063 229.248 177.464C231.543 179.705 231.653 181.204 232.436 182.362C232.472 182.377 232.511 182.377 232.546 182.362C232.595 182.367 232.644 182.35 232.682 182.316C232.72 182.281 232.745 182.232 232.752 182.177C232.67 181.188 232.161 180.632 231.914 179.952C231.667 179.272 231.158 177.743 231.502 177.202C231.667 177.047 232.615 177.835 232.725 177.959C233.632 178.935 234.388 180.073 234.965 181.327C239.171 189.408 237.906 194.615 238.621 195.403C249.052 208.614 260.199 227.959 262.453 245.419C263.978 257.532 260.584 271.655 249.3 275.919H249.369Z" fill="#123054"/>
<path d="M149.685 107.656C150.001 107.548 149.877 107.038 149.589 106.991C144.586 107.1 139.267 106.991 134.333 107.146C133.948 107.146 134.003 107.81 134.333 107.872C136.862 108.336 147.486 108.413 149.685 107.656ZM280.897 190.289C282.766 189.377 291.892 185.236 292.978 184.541C292.998 184.521 293.015 184.496 293.026 184.468C293.037 184.44 293.043 184.409 293.043 184.379C293.043 184.348 293.037 184.318 293.026 184.29C293.015 184.262 292.998 184.237 292.978 184.216C292.955 184.179 292.924 184.149 292.888 184.13C292.852 184.111 292.811 184.104 292.772 184.108C290.463 184.649 282.986 188.651 280.663 189.949C280.54 190.057 280.705 190.382 280.897 190.289ZM188.717 154.009L159.58 154.504C160.831 170.388 189.088 170.635 188.717 154.009ZM188.717 120.017C188.717 120.084 188.74 120.148 188.781 120.197C188.822 120.246 188.878 120.276 188.937 120.279C193.596 120.403 203.451 120.728 207.175 120.156C207.478 120.156 207.381 119.584 207.175 119.584C201.911 119.584 194.311 119.584 189.006 119.754C188.971 119.745 188.935 119.744 188.9 119.753C188.864 119.762 188.832 119.78 188.804 119.805C188.776 119.831 188.754 119.863 188.739 119.9C188.724 119.936 188.716 119.976 188.717 120.017ZM148.86 96.84C149.245 96.84 149.08 96.222 148.764 96.1602C139.295 96.4692 128.987 96.701 119.751 96.9328C119.72 96.9383 119.69 96.9508 119.664 96.9695C119.637 96.9882 119.614 97.0126 119.596 97.0415C119.578 97.0703 119.566 97.1029 119.559 97.1373C119.553 97.1717 119.553 97.2072 119.558 97.2418C119.566 97.2959 119.589 97.3459 119.624 97.3847C119.658 97.4235 119.703 97.4491 119.751 97.4581C126.472 97.9989 140.133 97.18 148.86 96.84ZM154.152 93.3017C154.468 93.3017 154.564 92.6837 154.152 92.6373C151.073 92.2201 120.713 92.7764 118.596 93.3017C118.39 93.3017 118.404 93.7653 118.596 93.7653C126.389 93.7498 145.067 93.1472 154.152 93.3017ZM94.4073 203.67V203.654V203.67ZM94.9845 203.932C96.0433 201.73 96.8558 199.39 97.4034 196.964C97.6593 196.13 97.7178 195.236 97.5733 194.369C97.4287 193.502 97.086 192.692 96.5788 192.019C97.0776 190.608 97.3341 189.103 97.3347 187.585C97.0598 185.066 94.6821 185.221 93.404 187.152C88.25 194.878 82.5601 207.239 82.725 216.741C82.6288 217.189 82.835 217.699 83.1923 217.328C89.2941 210.532 93.8076 202.146 96.3314 192.915C98.0494 195.789 95.3968 200.749 94.4073 203.654C94.2836 204.04 94.8058 204.272 94.9845 203.932ZM83.2473 216.108C83.3481 214.393 83.5594 212.689 83.8795 211.009L85.996 212.724C85.1027 213.836 84.1819 214.995 83.2473 216.108ZM96.0153 191.386C95.0846 190.508 93.9669 189.917 92.7717 189.671C93.231 188.728 93.7843 187.846 94.421 187.044C95.0395 186.395 96.2214 186.132 96.5788 187.229C96.7001 188.636 96.5064 190.054 96.0153 191.355V191.386ZM130.993 112.678C130.389 112.956 126.87 118.858 126.224 119.893C125.424 118.699 124.502 117.615 123.475 116.664C123.418 116.634 123.353 116.629 123.292 116.648C123.232 116.668 123.18 116.712 123.146 116.772C123.126 116.832 123.126 116.898 123.146 116.957C123.929 118.4 124.851 119.742 125.894 120.959C125.932 121.006 125.977 121.043 126.028 121.068C126.079 121.094 126.134 121.107 126.19 121.107C126.245 121.107 126.301 121.094 126.351 121.068C126.402 121.043 126.448 121.006 126.485 120.959V120.882L130.993 113.96C131.625 112.956 131.447 112.415 130.993 112.678ZM213.456 104.566C213.745 104.566 213.8 103.948 213.456 103.901C204.881 103.422 196.287 103.561 187.728 104.318C187.439 104.318 187.467 104.89 187.728 104.875C194.215 104.813 206.378 105.045 213.456 104.566Z" fill="#C2C0C0"/>
<path d="M130.993 122.041C131.543 121.794 130.443 117.189 130.292 116.463C130.288 116.431 130.278 116.4 130.262 116.372C130.247 116.343 130.227 116.319 130.204 116.3C130.18 116.28 130.153 116.266 130.125 116.259C130.096 116.251 130.067 116.25 130.038 116.255C130.009 116.26 129.981 116.271 129.956 116.288C129.931 116.305 129.91 116.328 129.893 116.354C129.875 116.381 129.863 116.411 129.856 116.443C129.849 116.475 129.848 116.508 129.852 116.54C130.017 118.194 130.182 119.862 130.457 121.485C128.162 121.686 126.087 121.67 123.846 121.778C123.434 119.77 123.077 117.143 122.472 115.15C124.201 115.313 125.939 115.313 127.667 115.15C128.808 115.15 128.725 114.346 127.75 114.362C127.172 114.362 122.252 114.254 122.252 114.918C121.606 114.918 122.967 121.392 123.049 121.825C123.063 121.902 123.099 121.972 123.151 122.024C123.203 122.077 123.268 122.11 123.338 122.118C123.503 122.922 130.732 122.798 130.993 122.041ZM214.226 116.618C214.214 116.558 214.184 116.504 214.142 116.465C214.099 116.426 214.047 116.403 213.992 116.401C205.663 116.154 196.757 116.602 188.319 116.587C188.071 116.587 188.057 117.05 188.319 117.081C195.713 117.637 207.148 117.977 214.047 116.958C214.109 116.936 214.162 116.889 214.195 116.826C214.228 116.764 214.239 116.689 214.226 116.618ZM123.53 110.87C125.458 110.93 127.387 110.832 129.303 110.576C130.498 110.916 128.67 102.48 128.451 102.094C128.422 102.021 128.373 101.96 128.311 101.921C128.249 101.882 128.177 101.867 128.107 101.877C126.87 101.877 121.125 101.877 120.314 102.078C119.325 101.182 120.768 108.799 120.974 109.711C121.373 111.241 122.252 110.87 123.53 110.87ZM120.479 102.603C123.015 102.952 125.577 102.993 128.121 102.727L129 109.866L121.799 110.283C121.854 109.757 120.644 103.623 120.479 102.603ZM207.711 107.811C207.784 107.811 207.854 107.778 207.905 107.72C207.957 107.662 207.986 107.583 207.986 107.501C207.986 107.42 207.957 107.341 207.905 107.283C207.854 107.225 207.784 107.192 207.711 107.192C206.007 106.806 191.356 107.393 188.319 107.687C188.085 107.687 188.085 108.135 188.319 108.15C189.968 108.228 206.076 108.274 207.711 107.811ZM92.3044 156.822C92.5655 156.822 94.5034 155.586 94.9569 157.594C95.5891 160.345 98.063 158.691 98.4616 156.59C98.9701 153.994 96.7711 151.955 94.1735 151.955C88.8959 151.955 90.1054 157.1 92.3044 156.822ZM94.1735 152.557C97.1422 152.665 98.9701 155.817 97.1697 157.672C95.6304 159.217 95.7953 156.992 95.0531 156.126C93.5688 154.581 92.3868 156.451 91.5485 155.663C89.8305 154.118 93.1152 152.464 94.1735 152.557ZM126.362 127.387C124.204 127.387 124.121 126.985 124.396 129.349C124.479 130.014 124.905 134.711 125.619 134.757C125.771 135.499 131.942 135.236 132.725 134.974C133.783 134.974 132.725 131.312 132.725 130.895C131.818 125.518 132.945 127.186 126.362 127.387ZM125.963 134.402C125.619 132.455 125.358 129.875 124.863 128.021C127.114 128.268 129.383 128.174 131.612 127.743C131.752 129.894 132.05 132.028 132.505 134.124C130.361 134.232 128.134 134.356 125.963 134.402ZM216.383 92.3902C213.855 92.1276 177.434 92.3902 172.816 92.792C172.756 92.8034 172.703 92.8403 172.667 92.8951C172.631 92.9499 172.615 93.0181 172.623 93.0855C172.633 93.1388 172.656 93.1877 172.691 93.2261C172.725 93.2646 172.768 93.2909 172.816 93.3019C176.733 93.5336 213.58 93.4255 216.383 93.0701C216.464 93.0701 216.541 93.0343 216.597 92.9705C216.654 92.9068 216.686 92.8203 216.686 92.7302C216.686 92.64 216.654 92.5535 216.597 92.4898C216.541 92.426 216.464 92.3902 216.383 92.3902ZM154.358 103.747C154.674 103.67 154.564 103.191 154.289 103.129L133.412 103.716C133.382 103.72 133.352 103.73 133.326 103.747C133.3 103.764 133.277 103.788 133.258 103.815C133.24 103.843 133.228 103.874 133.221 103.908C133.214 103.941 133.214 103.976 133.22 104.01C133.228 104.064 133.25 104.114 133.285 104.152C133.319 104.191 133.364 104.217 133.412 104.226C138.648 104.658 149.808 104.782 154.358 103.747ZM237.137 147.18C237.233 148.354 238.277 160.066 238.662 160.916C241.411 166.942 251.526 167.097 251.746 158.181C252.131 154.473 253.464 143.827 252.942 141.185C253.093 140.32 253.89 136.55 254.041 134.557C254.041 134.232 254.591 125.409 253.492 126.754C252.024 128.95 250.723 131.281 249.602 133.722C249.41 134.665 249.217 135.592 249.011 136.519C248.403 136.261 247.772 136.08 247.128 135.978C247.128 135.345 246.716 132.254 246.524 131.018C245.575 128.948 244.599 127.094 243.775 124.946C242.607 121.717 242.579 121.655 242.249 125.209C241.699 128.829 241.699 132.528 242.249 136.148C236.023 137.6 236.669 141.726 237.123 147.18H237.137ZM252.172 130.184C252.341 130.367 252.542 130.507 252.762 130.595C252.983 130.683 253.217 130.716 253.451 130.694V134.587C252.871 134.651 252.287 134.582 251.732 134.385C251.177 134.189 250.663 133.869 250.221 133.444C250.894 132.378 251.595 131.281 252.172 130.184ZM250.193 134.247C251.104 134.975 252.196 135.359 253.313 135.345C252.86 138.218 252.406 141.077 252.049 143.966C251.581 145.851 249.3 146.531 247.816 146.763C248.723 142.684 249.41 138.296 250.193 134.201V134.247ZM247.444 145.65C247.378 146.038 247.332 146.431 247.307 146.825L243.954 146.917L242.579 132.362C243.201 132.573 243.859 132.61 244.496 132.47C245.133 132.33 245.73 132.018 246.235 131.559C246.235 131.559 247.128 145.419 247.444 145.604V145.65ZM242.744 127.418C242.955 127.48 243.174 127.493 243.389 127.455C243.604 127.418 243.81 127.332 243.995 127.202L245.878 131.003C245.384 131.416 244.812 131.696 244.206 131.819C243.601 131.942 242.978 131.906 242.387 131.714C242.363 130.256 242.483 128.8 242.744 127.372V127.418ZM252.269 145.218C252.021 149.112 251.581 157.332 250.688 161.009C249.107 165.783 242.222 165.861 239.184 161.009C238.607 155.647 238.03 150.193 237.466 144.909C240.037 149.096 250.028 148.586 252.269 145.171V145.218Z" fill="#C2C0C0"/>
<path d="M67.5106 162.245C69.6024 163.473 71.8108 164.432 74.0939 165.103C69.7096 171.886 82.2577 181.559 93.7338 176.398C98.9976 174.034 104.262 166.525 99.1076 161.318C104.605 156.327 106.543 149.127 106.309 141.231C105.952 129.056 101.169 120.094 90.2153 117.205C84.8188 115.785 79.1637 116.276 74.0251 118.611L71.8948 114.47C72.5683 114.068 73.2692 113.682 73.9564 113.342C75.7706 112.647 75.2208 111.148 74.1488 111.596C53.0933 120.233 48.228 151.367 67.5106 162.245ZM74.2588 164.022C73.874 162.477 74.9047 160.932 74.4237 159.247C73.3242 155.246 68.72 157.563 67.5518 154.859C66.2736 151.908 69.6821 151.398 70.3693 149.281C70.4908 148.911 70.5218 148.51 70.4589 148.122C70.3961 147.733 70.2417 147.371 70.0119 147.072C68.0328 144.291 63.4561 147.226 64.7618 140.737C65.7514 135.839 69.957 133.521 73.0081 135.684C76.0592 137.848 77.8871 139.3 81.7492 136.766C88.1813 132.517 87.3841 141.401 85.4187 144.09C84.3742 145.542 82.4776 145.465 81.0207 146.083C76.2654 148.092 76.2929 151.692 80.0587 152.572C81.5155 152.912 83.3847 152.758 84.5254 153.994C87.6178 157.378 81.2269 164.609 79.2065 165.799C78.1208 165.551 74.8085 164.825 74.2588 164.022ZM91.6997 118.564C99.7948 121.392 104.069 127.974 105.224 137.384C105.772 141.445 105.637 145.586 104.825 149.59C104.495 150.1 99.8497 151.537 98.3517 149.374C97.7733 148.5 97.3871 147.484 97.2247 146.41C97.0623 145.336 97.1282 144.234 97.4171 143.194C98.3104 140.598 101.348 138.311 100.413 135.653C99.1213 131.976 95.3418 136.998 93.7475 135.962C91.3561 134.417 95.8366 131.451 90.7239 130.385C88.841 129.998 87.3017 130.864 85.9135 128.53C82.7387 123.184 90.9987 118.549 91.6997 118.518V118.564ZM76.018 125.409C76.0773 125.515 76.1671 125.594 76.2723 125.633C76.3775 125.673 76.4916 125.67 76.5952 125.626C76.7143 125.571 76.8096 125.466 76.8609 125.333C76.9122 125.2 76.9155 125.05 76.8701 124.915L74.3687 119.43C79.4664 117.132 85.0788 116.699 90.4077 118.194C83.5358 120.743 82.725 129.458 87.659 130.956C88.7035 131.281 93.3764 130.817 92.5655 133.058C92.4009 133.421 92.3086 133.82 92.295 134.228C92.2814 134.636 92.3469 135.042 92.4868 135.418C92.6267 135.794 92.8377 136.132 93.1053 136.407C93.3728 136.683 93.6904 136.889 94.0361 137.013C95.9603 137.399 98.0218 134.139 99.4374 135.468C101.911 137.786 95.4517 141.37 96.5512 146.531C97.3759 150.487 98.8327 151.738 102.406 151.166C103.189 151.091 103.948 150.827 104.633 150.394C101.678 162.029 90.6277 167.39 80.526 165.984C82.56 163.883 85.7211 159.711 86.0235 156.713C86.4908 151.398 81.062 152.464 79.0691 151.29C76.3203 149.745 80.2511 147.056 82.7662 146.438C83.5903 146.286 84.3881 145.989 85.1301 145.558C89.2533 142.715 88.1125 131.281 82.134 135.499C77.0213 139.099 75.4407 136.04 73.0631 134.665C69.256 132.486 64.0334 135.916 63.7723 142.39C63.6211 146.794 66.8509 145.851 68.7338 147.026C69.0712 147.168 69.353 147.44 69.5291 147.793C69.7052 148.147 69.7642 148.559 69.6958 148.957C69.256 150.502 67.2632 150.811 66.7134 152.681C66.496 153.41 66.504 154.2 66.736 154.924C66.9679 155.647 67.4104 156.261 67.9916 156.667C69.792 157.841 72.9806 156.822 73.7365 159.618C74.1076 160.978 73.3792 162.369 73.4616 163.744C69.9551 162.327 66.8674 159.843 64.5426 156.569C62.2179 153.296 60.7474 149.36 60.2951 145.202C59.0581 134.695 64.7618 124.482 73.1455 120.017C74.0114 121.809 75.0972 123.663 76.018 125.409ZM63.6486 121.284C65.7118 118.879 68.0893 116.841 70.6991 115.242C71.4652 116.564 72.1671 117.931 72.8019 119.337C68.4885 121.59 64.8986 125.285 62.5224 129.917C60.1463 134.549 59.0996 139.892 59.5254 145.218C59.8119 148.27 60.663 151.222 62.0239 153.882C63.3849 156.543 65.2256 158.855 67.4281 160.669C54.289 152.464 53.7393 133.119 63.6486 121.284ZM210.336 132.177C209.154 131.883 191.48 131.791 188.978 132.177C188.916 132.177 188.857 132.205 188.813 132.254C188.769 132.303 188.745 132.37 188.745 132.44C188.745 132.509 188.769 132.576 188.813 132.625C188.857 132.675 188.916 132.702 188.978 132.702C189.927 132.857 208.398 133.212 210.336 132.702C210.4 132.686 210.458 132.646 210.499 132.589C210.54 132.531 210.562 132.459 210.562 132.386C210.562 132.312 210.54 132.24 210.499 132.182C210.458 132.125 210.4 132.085 210.336 132.069V132.177ZM216.205 96.6392C202.942 96.8092 185.803 96.2993 173.846 96.6392C173.517 96.6392 173.544 97.1646 173.846 97.1955C178.863 97.8135 212.164 97.7672 216.205 97.1955C216.244 97.1917 216.282 97.179 216.317 97.158C216.352 97.137 216.382 97.1083 216.407 97.0735C216.431 97.0388 216.449 96.9988 216.459 96.956C216.469 96.9132 216.472 96.8685 216.466 96.8246C216.444 96.7679 216.407 96.7199 216.361 96.6868C216.314 96.6537 216.26 96.6372 216.205 96.6392ZM214.734 128.824C206.694 128.623 196.647 129.179 188.085 128.932C187.838 128.932 187.783 129.334 188.085 129.365C193.349 129.952 209.828 130.539 214.789 129.458C215.05 129.38 215.078 128.824 214.734 128.824Z" fill="#C2C0C0"/>
</svg>
