<svg xmlns="http://www.w3.org/2000/svg" viewBox="0 0 128 128"><g fill="#00acd7" fill-rule="evenodd"><path d="M11.2 54.8c-.3 0-.3 0-.2-.3l1.2-1.6c.2-.2.5-.3.7-.3h21.6c.3 0 .4.2.2.4l-1 1.5c-.1.2-.4.4-.6.4zM2 60.4c-.2 0-.3-.1-.2-.3l1.3-1.6c.1-.2.4-.3.7-.3h27.6c.2 0 .4.1.3.3l-.5 1.5c0 .2-.3.3-.5.3zM16.7 66c-.3 0-.3-.2-.2-.4l.8-1.5c.2-.2.4-.4.6-.4h12.2c.2 0 .3.2.3.5v1.4c0 .3-.3.4-.5.4zm62.9-12.3-10.2 2.7c-1 .2-1 .3-1.8-.6-.9-1-1.5-1.7-2.8-2.3a10.5 10.5 0 0 0-11 .9A12.9 12.9 0 0 0 47.6 66c.1 4.9 3.4 8.9 8.2 9.5 4.1.6 7.6-.9 10.3-4 .6-.6 1-1.4 1.7-2.2H56c-1.3 0-1.6-.8-1.2-1.8a97 97 0 0 1 3.1-6.6c.2-.4.6-1 1.5-1h22c0 1.6 0 3.3-.3 5-.7 4.3-2.3 8.3-5 11.8-4.3 5.7-10 9.3-17.2 10.3-6 .8-11.5-.4-16.3-4A19 19 0 0 1 35 69.4 23.8 23.8 0 0 1 40 51.7c4.3-5.7 10-9.2 17-10.5 5.7-1 11.1-.4 16 3a19 19 0 0 1 7 8.5c.4.6.2.9-.5 1z"/><path d="M99.6 87.3A22.7 22.7 0 0 1 85 81.9a19 19 0 0 1-6.6-11.7c-1-6.8.8-12.9 5-18.3 4.3-5.8 9.7-8.8 16.9-10.1 6.2-1 12-.5 17.3 3 4.7 3.4 7.7 7.8 8.5 13.6 1 8.2-1.3 14.9-7 20.5-4 4.1-8.9 6.7-14.5 7.8-1.6.3-3.3.4-4.9.6zm14.5-24.5-.2-2a10 10 0 0 0-12.4-8A13.2 13.2 0 0 0 91 63.2a10 10 0 0 0 5.6 11.4c3.3 1.5 6.7 1.3 9.9-.4 4.8-2.4 7.4-6.3 7.7-11.5z" fill-rule="nonzero"/></g></svg>