<svg width="581" height="612" viewBox="0 0 581 612" fill="none" xmlns="http://www.w3.org/2000/svg">
<g opacity="0.14">
<path opacity="0.15" d="M470.3 321.078C461.508 368.352 434.54 409.427 394.364 436.735C354.187 464.044 305.611 474.318 257.585 465.664C209.559 457.01 167.83 430.464 140.087 390.917C112.344 351.37 101.907 303.555 110.698 256.28C119.49 209.006 146.458 167.931 186.635 140.623C226.811 113.314 275.387 103.041 323.414 111.695C371.44 120.349 413.168 146.895 440.911 186.442C468.654 225.989 479.092 273.804 470.3 321.078ZM114.621 256.987C96.8682 352.448 161.324 444.328 258.303 461.802C355.282 479.277 448.624 415.831 466.376 320.371C484.129 224.91 419.674 133.031 322.695 115.556C225.716 98.0811 132.374 161.527 114.621 256.987Z" fill="#D5D5D5"/>
<path opacity="0.15" d="M512.821 328.609L512.798 328.736C511.826 333.964 510.653 339.216 509.313 344.343L497.726 341.408C498.996 336.548 500.108 331.571 501.029 326.615L501.052 326.488L512.821 328.609ZM515.465 309.989L503.558 308.849C504.057 303.799 504.374 298.672 504.501 293.611L516.462 293.902C516.328 299.245 515.993 304.658 515.465 309.989ZM503.777 362.338C501.981 367.395 499.976 372.446 497.816 377.352L486.838 372.668C488.883 368.024 490.783 363.241 492.484 358.452L503.777 362.338ZM516.122 275.098L504.179 275.81C503.868 270.748 503.363 265.637 502.68 260.617L514.538 259.052C515.261 264.354 515.793 269.753 516.122 275.098ZM489.476 394.274C486.894 398.989 484.101 403.672 481.174 408.194L471.084 401.867C473.855 397.585 476.5 393.15 478.943 388.687L489.476 394.274ZM511.197 240.546L499.517 243.099C498.404 238.163 497.09 233.197 495.611 228.341L507.071 224.96C508.633 230.088 510.021 235.332 511.197 240.546ZM470.224 423.62C466.92 427.876 463.415 432.068 459.807 436.075L450.853 428.263C454.269 424.468 457.588 420.501 460.717 416.469L470.224 423.62ZM500.817 207.196L489.688 211.519C487.801 206.812 485.712 202.107 483.478 197.535L494.261 192.431C496.619 197.258 498.825 202.225 500.817 207.196ZM446.541 449.614C442.606 453.305 438.481 456.904 434.282 460.308L426.676 451.218C430.653 447.994 434.56 444.585 438.288 441.088L446.541 449.614ZM485.266 175.842L474.958 181.821C472.343 177.452 469.533 173.123 466.607 168.952L476.452 162.26C479.54 166.662 482.506 171.231 485.266 175.842ZM419.04 471.645C414.569 474.689 409.927 477.611 405.245 480.33L399.166 470.186C403.601 467.611 407.998 464.843 412.235 461.959L419.04 471.645ZM464.944 147.25L455.705 154.732C452.429 150.814 448.968 146.966 445.42 143.295L454.086 135.176C457.833 139.051 461.486 143.113 464.944 147.25ZM388.399 489.192C383.5 491.514 378.456 493.689 373.403 495.655L369.005 484.704C373.789 482.841 378.568 480.782 383.207 478.583L388.399 489.192ZM440.339 122.11L432.399 130.919C428.547 127.554 424.517 124.286 420.423 121.202L427.693 111.849C432.017 115.104 436.271 118.557 440.339 122.11ZM355.361 501.821C350.156 503.361 344.829 504.731 339.528 505.892L336.928 494.397C341.947 493.297 346.991 492 351.918 490.543L355.361 501.821ZM412.028 101.062L405.592 110.989C401.25 108.261 396.747 105.656 392.209 103.246L397.89 92.8815C402.684 95.4271 407.441 98.179 412.028 101.062ZM320.729 509.192C315.341 509.906 309.857 510.434 304.427 510.76L303.699 499.005C308.839 498.697 314.031 498.198 319.131 497.521L320.729 509.192ZM380.704 84.6615L375.939 95.4639C371.219 93.4473 366.361 91.5751 361.5 89.8987L365.455 78.784C370.589 80.5538 375.719 82.531 380.704 84.6615ZM285.326 511.106C279.906 510.977 274.408 510.651 268.983 510.135L270.134 498.412C275.273 498.9 280.481 499.21 285.614 499.332L285.326 511.106ZM347.177 73.3258L344.188 84.7292C339.214 83.4653 334.117 82.361 329.039 81.4461L328.55 81.359L330.661 69.7667L331.193 69.8622C336.55 70.8269 341.928 71.9921 347.177 73.3258ZM252.215 495.957L250.06 507.542L249.849 507.505C244.531 506.546 239.24 505.403 234.078 504.098L237.055 492.691C241.945 493.928 246.96 495.011 251.959 495.912L252.215 495.957ZM310.613 78.922C305.479 78.4391 300.27 78.1358 295.132 78.0198L295.406 66.2458C300.832 66.3687 306.33 66.6883 311.75 67.198L310.613 78.922ZM219.735 487.541L215.795 498.661C210.655 496.896 205.522 494.925 200.538 492.801L205.29 481.993C210.009 484.004 214.868 485.869 219.735 487.541ZM277.048 78.3683C271.902 78.6837 266.71 79.1897 261.617 79.871L260.006 68.2015C265.386 67.4814 270.869 66.9476 276.304 66.6143L277.048 78.3683ZM189.011 474.231L183.341 484.601C178.545 482.061 173.785 479.315 169.193 476.438L175.617 466.502C179.965 469.226 184.471 471.826 189.011 474.231ZM243.825 83.016C238.808 84.1219 233.766 85.4241 228.839 86.8875L225.384 75.6122C230.587 74.067 235.912 72.6913 241.211 71.5234L243.825 83.016ZM160.775 456.306L153.517 465.669C149.193 462.421 144.935 458.974 140.858 455.422L148.787 446.603C152.648 449.966 156.682 453.231 160.775 456.306ZM211.758 92.7466C206.981 94.6115 202.205 96.6763 197.563 98.8829L192.359 88.2784C197.26 85.9479 202.302 83.7682 207.347 81.7988L211.758 92.7466ZM135.753 434.243L127.096 442.372C123.342 438.499 119.684 434.441 116.224 430.311L125.454 422.817C128.732 426.73 132.197 430.574 135.753 434.243ZM181.615 107.299C177.182 109.88 172.789 112.653 168.556 115.541L161.74 105.862C166.207 102.814 170.844 99.8875 175.524 97.1623L181.615 107.299ZM114.534 408.609L104.698 415.314C101.603 410.915 98.6323 406.348 95.867 401.74L106.168 395.751C108.788 400.116 111.603 404.442 114.534 408.609ZM154.128 126.297C150.154 129.528 146.252 132.941 142.528 136.442L134.264 127.926C138.195 124.229 142.315 120.627 146.51 117.217L154.128 126.297ZM97.6287 380.048L86.8523 385.164C84.4907 380.344 82.2789 375.379 80.2788 370.407L91.4028 366.07C93.2968 370.779 95.3919 375.482 97.6287 380.048ZM129.978 149.279C126.562 153.084 123.248 157.055 120.129 161.085L110.613 153.947C113.907 149.691 117.407 145.496 121.015 141.479L129.978 149.279ZM85.4595 349.254L74.0033 352.65C72.4356 347.525 71.0417 342.283 69.8591 337.067L81.5356 334.502C82.6553 339.439 83.9756 344.402 85.4595 349.254ZM109.778 175.703C107.014 179.982 104.376 184.42 101.935 188.89L91.3959 183.316C93.974 178.593 96.7617 173.906 99.6811 169.385L109.778 175.703ZM78.3512 316.986L66.495 318.565C65.7655 313.26 65.2264 307.862 64.8921 302.52L76.8341 301.797C77.1503 306.854 77.6607 311.964 78.3512 316.986ZM94.0599 204.919C92.0203 209.564 90.1269 214.349 88.4323 219.141L77.1333 215.268C78.9239 210.208 80.9234 205.154 83.0777 200.247L94.0599 204.919ZM76.4913 283.994L64.53 283.718C64.658 278.377 64.9865 272.964 65.5074 267.63L77.4164 268.757C76.9237 273.81 76.6118 278.936 76.4913 283.994ZM83.2099 236.192C81.9664 240.969 80.876 245.865 79.969 250.743L79.9023 251.106L68.1282 249.014L68.1976 248.637C69.1574 243.477 70.3075 238.311 71.6203 233.269L83.2099 236.192Z" fill="#D5D5D5"/>
<path opacity="0.23" d="M576.242 340.034L573.627 339.564C574.178 336.588 574.688 333.574 575.141 330.605L577.77 330.995C577.313 333.991 576.799 337.031 576.242 340.034ZM574.426 349.02C573.775 351.997 573.068 355 572.324 357.946L569.744 357.314C570.481 354.395 571.182 351.419 571.827 348.469L574.426 349.02ZM579.008 321.913L576.367 321.606C576.727 318.603 577.041 315.564 577.302 312.573L579.952 312.797C579.688 315.816 579.371 318.882 579.008 321.913ZM569.934 366.802C569.093 369.731 568.193 372.684 567.258 375.579L564.724 374.786C565.65 371.918 566.542 368.992 567.375 366.09L569.934 366.802ZM580.599 303.656L577.945 303.515C578.109 300.511 578.225 297.458 578.291 294.442L580.949 294.499C580.883 297.543 580.765 300.624 580.599 303.656ZM564.298 384.265C563.267 387.142 562.176 390.032 561.056 392.856L558.58 391.904C559.688 389.107 560.77 386.244 561.792 383.394L564.298 384.265ZM581 285.336L578.342 285.364C578.309 282.347 578.226 279.294 578.095 276.288L580.751 276.176C580.884 279.209 580.967 282.291 581 285.336ZM557.535 401.339C556.317 404.144 555.039 406.959 553.738 409.706L551.328 408.6C552.617 405.878 553.883 403.089 555.091 400.31L557.535 401.339ZM580.203 267.029L577.552 267.225C577.321 264.211 577.039 261.169 576.711 258.183L579.354 257.902C579.685 260.916 579.97 263.987 580.203 267.029ZM549.669 417.947C548.271 420.665 546.812 423.393 545.331 426.056L542.999 424.799C544.466 422.161 545.912 419.458 547.297 416.765L549.669 417.947ZM578.207 248.81L575.574 249.174C575.149 246.195 574.667 243.177 574.142 240.204L576.762 239.756C577.291 242.757 577.778 245.803 578.207 248.81ZM540.713 434.047C539.139 436.671 537.499 439.308 535.837 441.884L533.593 440.482C535.239 437.929 536.864 435.316 538.424 432.716L540.713 434.047ZM575.021 230.754L572.417 231.285C571.797 228.34 571.12 225.367 570.407 222.452L572.992 221.839C573.712 224.782 574.395 227.781 575.021 230.754ZM530.71 449.558C528.963 452.081 527.154 454.607 525.333 457.063L523.184 455.521C524.989 453.086 526.781 450.584 528.512 448.084L530.71 449.558ZM570.673 212.989L568.11 213.684C567.297 210.78 566.428 207.856 565.525 204.99L568.065 204.215C568.975 207.107 569.852 210.059 570.673 212.989ZM519.714 464.395C517.81 466.797 515.84 469.201 513.86 471.54L511.817 469.865C513.78 467.547 515.731 465.165 517.618 462.785L519.714 464.395ZM565.172 195.527L562.659 196.381C561.663 193.545 560.604 190.679 559.513 187.864L561.996 186.931C563.099 189.772 564.167 192.664 565.172 195.527ZM507.777 478.496C505.722 480.771 503.6 483.045 501.471 485.254L499.542 483.453C501.651 481.264 503.754 479.011 505.79 476.757L507.777 478.496ZM558.543 178.436L556.091 179.447C554.908 176.67 553.665 173.875 552.396 171.141L554.814 170.053C556.095 172.813 557.35 175.634 558.543 178.436ZM494.952 491.808C492.759 493.943 490.495 496.078 488.224 498.153L486.415 496.234C488.666 494.178 490.909 492.063 493.082 489.947L494.952 491.808ZM550.815 161.79L548.433 162.953C547.068 160.245 545.646 157.533 544.206 154.892L546.549 153.654C548.002 156.32 549.437 159.057 550.815 161.79ZM481.294 504.28C478.966 506.274 476.569 508.261 474.171 510.187L472.49 508.159C474.867 506.251 477.242 504.281 479.55 502.306L481.294 504.28ZM542.02 145.656L539.718 146.966C538.195 144.37 536.599 141.752 534.976 139.182L537.234 137.801C538.872 140.394 540.482 143.037 542.02 145.656ZM466.861 515.865C464.413 517.705 461.894 519.537 459.372 521.31L457.827 519.18C460.325 517.424 462.822 515.608 465.247 513.785L466.861 515.865ZM532.195 130.1L529.982 131.551C528.293 129.055 526.531 126.54 524.745 124.078L526.909 122.557C528.712 125.043 530.49 127.58 532.195 130.1ZM451.713 526.518C449.141 528.207 446.508 529.877 443.89 531.481L442.486 529.258C445.081 527.67 447.689 526.015 450.237 524.341L451.713 526.518ZM521.38 115.183L519.266 116.77C517.409 114.373 515.487 111.974 513.553 109.637L515.614 107.984C517.565 110.342 519.506 112.765 521.38 115.183ZM435.912 536.196C433.234 537.722 430.5 539.223 427.788 540.656L426.53 538.351C429.217 536.93 431.926 535.442 434.581 533.93L435.912 536.196ZM509.618 100.971L507.61 102.688C505.595 100.406 503.52 98.1307 501.444 95.9263L503.394 94.147C505.489 96.3714 507.583 98.6677 509.618 100.971ZM419.525 544.86C416.758 546.212 413.935 547.539 411.131 548.8L410.025 546.421C412.803 545.17 415.601 543.857 418.343 542.516L419.525 544.86ZM496.954 87.5215L495.063 89.3607C492.911 87.2176 490.692 85.0772 488.467 82.9977L490.298 81.0997C492.543 83.1982 494.782 85.3585 496.954 87.5215ZM402.618 552.474C399.776 553.648 396.874 554.793 393.99 555.879L393.041 553.435C395.897 552.359 398.774 551.224 401.59 550.062L402.618 552.474ZM483.435 74.8905L481.667 76.8456C479.379 74.8412 477.024 72.844 474.668 70.9099L476.371 68.9001C478.749 70.8516 481.125 72.8677 483.435 74.8905ZM385.258 559.008C382.34 560.002 379.371 560.962 376.431 561.86L375.643 559.36C378.555 558.471 381.497 557.52 384.389 556.534L385.258 559.008ZM469.115 63.1339L467.479 65.1972C465.065 63.3407 462.583 61.4958 460.104 59.7138L461.671 57.6007C464.173 59.3989 466.678 61.2606 469.115 63.1339ZM367.52 564.43C364.553 565.235 361.529 566.005 358.531 566.718L357.906 564.173C360.877 563.467 363.875 562.705 366.813 561.907L367.52 564.43ZM454.048 52.3053L452.551 54.4672C450.009 52.7614 447.41 51.0771 444.827 49.4615L446.253 47.2529C448.86 48.8837 451.482 50.5837 454.048 52.3053ZM349.475 568.719C346.454 569.335 343.377 569.914 340.331 570.437L339.874 567.859C342.893 567.341 345.941 566.768 348.935 566.156L349.475 568.719ZM438.293 42.4493L436.941 44.7025C434.291 43.161 431.586 41.6452 428.899 40.196L430.178 37.9007C432.888 39.3635 435.619 40.8935 438.293 42.4493ZM331.134 571.863C328.075 572.288 324.966 572.67 321.896 572.997L321.609 570.396C324.652 570.071 327.732 569.693 330.763 569.272L331.134 571.863ZM421.944 33.6267L420.741 35.9613C418.009 34.5988 415.219 33.2619 412.447 31.9881L413.571 29.6172C416.369 30.9021 419.186 32.2515 421.944 33.6267ZM312.625 573.836C309.547 574.066 306.42 574.248 303.333 574.381L303.217 571.766C306.276 571.635 309.374 571.453 312.424 571.226L312.625 573.836ZM405.074 25.8765L404.027 28.2819C401.208 27.0936 398.336 25.9373 395.49 24.8446L396.457 22.406C399.329 23.5098 402.228 24.6771 405.074 25.8765ZM294.027 574.629C290.933 574.663 287.801 574.648 284.718 574.584L284.774 571.967C287.829 572.031 290.932 572.046 293.997 572.013L294.027 574.629ZM387.732 19.2106L386.844 21.6775C383.967 20.675 381.026 19.7029 378.101 18.7875L378.907 16.2928C381.859 17.2171 384.828 18.1992 387.732 19.2106ZM275.415 574.242C272.327 574.081 269.203 573.867 266.129 573.609L266.355 571.001C269.401 571.258 272.496 571.469 275.556 571.629L275.415 574.242ZM369.993 13.6564L369.268 16.1747C366.333 15.3554 363.334 14.5697 360.354 13.8391L360.997 11.2992C364.005 12.0366 367.031 12.8297 369.993 13.6564ZM256.868 572.685C253.798 572.33 250.693 571.922 247.641 571.471L248.035 568.883C251.059 569.329 254.135 569.734 257.178 570.086L256.868 572.685ZM351.93 9.22544L351.37 11.7837C348.382 11.1491 345.339 10.5518 342.324 10.0085L341.805 9.91512L342.284 7.34062L342.803 7.43405C345.845 7.98254 348.916 8.58509 351.93 9.22544ZM238.934 567.397L238.455 569.971L238.195 569.924C235.24 569.392 232.257 568.807 229.327 568.188L229.885 565.629C232.788 566.243 235.746 566.822 238.673 567.35L238.934 567.397ZM332.705 8.4376C329.673 7.99356 326.596 7.59151 323.559 7.243L323.867 4.64331C326.932 4.9955 330.037 5.40122 333.096 5.84894L332.705 8.4376ZM220.899 563.582L220.259 566.122C217.257 565.389 214.23 564.599 211.261 563.773L211.984 561.255C214.925 562.072 217.925 562.855 220.899 563.582ZM314.383 6.3334C311.33 6.08041 308.234 5.87151 305.181 5.71457L305.32 3.10124C308.401 3.26027 311.526 3.47075 314.606 3.72636L314.383 6.3334ZM203.148 558.649L202.343 561.144C199.397 560.224 196.427 559.245 193.516 558.234L194.401 555.767C197.285 556.768 200.227 557.738 203.148 558.649ZM295.964 5.386C292.902 5.32459 289.799 5.31252 286.74 5.34874L286.708 2.73173C289.795 2.69499 292.927 2.70759 296.018 2.76899L295.964 5.386ZM185.753 552.609L184.789 555.047C181.92 553.948 179.02 552.784 176.169 551.586L177.213 549.178C180.038 550.366 182.911 551.52 185.753 552.609ZM277.52 5.60277C274.46 5.73662 271.362 5.92085 268.313 6.15074L268.11 3.54056C271.187 3.30909 274.314 3.12276 277.402 2.98839L277.52 5.60277ZM168.79 545.478L167.667 547.851C164.871 546.569 162.053 545.222 159.293 543.849L160.492 541.514C163.227 542.875 166.019 544.208 168.79 545.478ZM259.128 6.99106C256.084 7.31858 253.004 7.69911 249.977 8.12268L249.603 5.53087C252.659 5.10415 255.767 4.71942 258.84 4.38875L259.128 6.99106ZM152.328 537.287L151.053 539.583C148.329 538.117 145.596 536.589 142.932 535.042L144.284 532.788C146.922 534.32 149.63 535.834 152.328 537.287ZM240.867 9.54351C237.849 10.0642 234.801 10.6394 231.808 11.2546L231.265 8.69217C234.286 8.07177 237.362 7.49126 240.409 6.96534L240.867 9.54351ZM136.393 528.036L134.969 530.246C132.362 528.619 129.738 526.922 127.169 525.201L128.664 523.038C131.21 524.742 133.81 526.424 136.393 528.036ZM222.837 13.2449C219.869 13.9535 216.873 14.7182 213.933 15.5192L213.224 12.9972C216.192 12.1894 219.215 11.4168 222.211 10.7019L222.837 13.2449ZM121.107 517.797L119.541 519.912C117.04 518.117 114.533 516.258 112.092 514.385L113.727 512.32C116.145 514.176 118.629 516.019 121.107 517.797ZM205.105 18.0748C202.18 18.9728 199.238 19.9265 196.362 20.9085L195.49 18.4364C198.394 17.4449 201.362 16.4823 204.314 15.5769L205.105 18.0748ZM106.531 506.614L104.83 508.626C102.454 506.679 100.076 504.666 97.762 502.642L99.5281 500.685C101.821 502.69 104.177 504.685 106.531 506.614ZM187.713 24.0158C184.857 25.0933 181.983 26.2313 179.167 27.3965L178.137 24.9842C180.978 23.8079 183.88 22.66 186.761 21.5725L187.713 24.0158ZM92.7215 494.538L90.8925 496.438C88.6423 494.339 86.4012 492.181 84.231 490.023L86.1208 488.182C88.2712 490.32 90.4921 492.459 92.7215 494.538ZM170.733 31.0438C167.954 32.2993 165.157 33.6157 162.421 34.9567L161.236 32.6137C163.998 31.2601 166.82 29.9316 169.625 28.6651L170.733 31.0438ZM79.7311 481.622L77.7833 483.402C75.6797 481.173 73.5841 478.879 71.5542 476.584L73.5591 474.866C75.5704 477.139 77.6473 479.412 79.7311 481.622ZM154.237 39.1284C151.55 40.5524 148.842 42.0425 146.19 43.5562L144.857 41.2919C147.532 39.7645 150.265 38.2613 152.977 36.8242L154.237 39.1284ZM67.6105 467.92L65.5506 469.575C63.5926 467.213 61.6506 464.793 59.7785 462.382L61.8911 460.793C63.7457 463.182 65.6701 465.58 67.6105 467.92ZM138.29 48.2349C135.687 49.8326 133.081 51.4896 130.543 53.1603L129.065 50.9842C131.626 49.2988 134.257 47.6266 136.882 46.0142L138.29 48.2349ZM56.4053 453.491L54.2426 455.014C52.4413 452.535 50.6604 449.999 48.9493 447.476L51.16 446.023C52.8562 448.523 54.6206 451.035 56.4053 453.491ZM122.958 58.3261C120.459 60.0876 117.964 61.9057 115.542 63.7296L113.927 61.6511C116.371 59.8104 118.888 57.976 121.41 56.1988L122.958 58.3261ZM46.1605 438.395L43.9039 439.778C42.2733 437.202 40.6609 434.561 39.1108 431.928L41.4111 430.616C42.9468 433.225 44.5449 435.842 46.1605 438.395ZM108.304 69.3631C105.929 71.2736 103.556 73.2445 101.251 75.2217L99.5041 73.2492C101.83 71.2532 104.225 69.2639 106.622 67.336L108.304 69.3631ZM36.9166 422.693L34.5752 423.933C33.111 421.253 31.6729 418.517 30.3014 415.801L32.6823 414.636C34.0409 417.327 35.4657 420.038 36.9166 422.693ZM94.3904 81.2987C92.1435 83.3551 89.9024 85.4719 87.729 87.5919L85.8573 85.7333C88.051 83.5939 90.3124 81.4572 92.5807 79.3824L94.3904 81.2987ZM28.7108 406.452L26.2937 407.541C25.0055 404.772 23.7481 401.952 22.5574 399.161L25.0092 398.148C26.1887 400.914 27.4337 403.708 28.7108 406.452ZM81.2743 94.0919C79.1648 96.2858 77.065 98.5407 75.0334 100.794L73.0451 99.0572C75.0958 96.7824 77.2154 94.507 79.344 92.2931L81.2743 94.0919ZM21.5784 389.735L19.0952 390.671C17.9904 387.831 16.9197 384.939 15.9124 382.077L18.425 381.221C19.4226 384.056 20.4843 386.921 21.5784 389.735ZM69.0118 107.692C67.0522 110.012 65.1027 112.395 63.2183 114.777L61.1206 113.169C63.0226 110.765 64.9891 108.359 66.9679 106.018L69.0118 107.692ZM15.5498 372.613L13.0112 373.39C12.094 370.488 11.2137 367.537 10.3952 364.619L12.9578 363.922C13.7694 366.813 14.6412 369.737 15.5498 372.613ZM57.6584 122.045C55.8513 124.488 54.0613 126.992 52.3379 129.487L50.1389 128.015C51.8783 125.498 53.6848 122.971 55.509 120.504L57.6584 122.045ZM10.6522 355.157L8.06765 355.772C7.34407 352.829 6.65941 349.83 6.03074 346.859L8.63394 346.325C9.25621 349.27 9.93552 352.24 10.6522 355.157ZM47.2632 137.097C45.6209 139.648 43.9983 142.262 42.4402 144.865L40.1495 143.537C41.722 140.909 43.36 138.271 45.0178 135.696L47.2632 137.097ZM6.8999 337.407L4.28072 337.858C3.74963 334.865 3.26065 331.819 2.82715 328.806L5.45967 328.438C5.88891 331.424 6.37361 334.441 6.8999 337.407ZM37.8732 152.786C36.4042 155.432 34.9607 158.137 33.5824 160.823L31.209 159.643C32.6001 156.932 34.0574 154.202 35.5393 151.531L37.8732 152.786ZM4.31486 319.43L1.67166 319.713C1.33786 316.69 1.04938 313.62 0.815292 310.588L3.46594 310.389C3.6979 313.394 3.98372 316.436 4.31486 319.43ZM29.5576 168.992C28.2682 171.721 27.005 174.511 25.8032 177.285L23.3578 176.258C24.5709 173.458 25.8458 170.642 27.1474 167.888L29.5576 168.992ZM2.91352 301.326L0.25701 301.441C0.122105 298.41 0.0357259 295.328 0 292.281L2.65866 292.251C2.69385 295.27 2.77968 298.323 2.91352 301.326ZM22.3228 185.693C21.2127 188.504 20.135 191.368 19.1187 194.207L16.611 193.339C17.6363 190.472 18.7247 187.581 19.845 184.746L22.3228 185.693ZM2.70077 283.173L0.0426669 283.118C0.10612 280.08 0.220771 277 0.383937 273.962L3.03885 274.1C2.87782 277.11 2.76423 280.162 2.70077 283.173ZM16.1934 202.819C15.271 205.685 14.3821 208.612 13.5502 211.517L10.9913 210.808C11.8306 207.876 12.728 204.922 13.659 202.028L16.1934 202.819ZM3.67283 265.042L1.02378 264.82C1.28452 261.797 1.59914 258.729 1.95906 255.703L4.59959 256.008C4.2434 259.006 3.93145 262.046 3.67283 265.042ZM11.1907 220.294C10.4554 223.218 9.7569 226.194 9.1149 229.141L6.51544 228.592C7.1633 225.619 7.86771 222.615 8.60996 219.665L11.1907 220.294ZM5.81799 247.007L3.18814 246.62C3.64351 243.62 4.15436 240.579 4.70784 237.581L7.3238 238.048C6.77565 241.02 6.2691 244.034 5.81799 247.007Z" fill="#D5D5D5"/>
<path opacity="0.23" d="M568.699 338.809C561.824 375.777 547.799 410.314 527.013 441.461C506.937 471.546 481.431 497.217 451.205 517.762C420.979 538.307 387.556 552.691 351.862 560.515C314.908 568.614 277.128 569.289 239.571 562.522C202.015 555.755 166.928 541.949 135.285 521.489C104.722 501.727 78.6424 476.621 57.7699 446.869C36.898 417.116 22.2851 384.216 14.3374 349.082C6.10869 312.707 5.42296 275.518 12.2978 238.55C19.1726 201.581 33.198 167.044 53.9835 135.897C74.0599 105.812 99.5655 80.1414 129.792 59.5959C160.018 39.0508 193.441 24.6668 229.135 16.8435C266.089 8.74374 303.869 8.06875 341.425 14.8359C378.982 21.6031 414.069 35.4088 445.711 55.8693C476.275 75.6312 502.354 100.737 523.227 130.49C544.098 160.243 558.712 193.143 566.659 228.277C574.889 264.652 575.575 301.841 568.699 338.809ZM14.2595 238.903C-13.6237 388.837 87.6117 533.145 239.93 560.592C392.25 588.038 538.854 488.389 566.737 338.455C594.621 188.522 493.386 44.213 341.067 16.7664C188.748 -10.6802 42.1433 88.9698 14.2595 238.903Z" fill="#D5D5D5"/>
<path opacity="0.25" d="M460.428 428.346C439.092 453.45 411.775 473.85 381.428 487.34L380.333 484.955C410.317 471.626 437.309 451.47 458.388 426.666L460.428 428.346Z" fill="#D5D5D5"/>
<path opacity="0.15" d="M511.589 299.537L508.933 299.403C511.262 254.584 499.463 210.817 474.812 172.834L477.053 171.426C502.004 209.87 513.946 254.171 511.589 299.537Z" fill="#D5D5D5"/>
<path opacity="0.15" d="M477.053 171.426L474.812 172.835C456.587 144.754 431.677 120.914 402.776 103.893L404.141 101.647C433.395 118.875 458.607 143.004 477.053 171.426Z" fill="#D5D5D5"/>
<path opacity="0.22" d="M305.586 73.9163C258.701 70.6679 212.882 82.1358 173.082 107.082L171.654 104.875C211.937 79.6254 258.315 68.0173 305.772 71.3067L305.586 73.9163Z" fill="#D5D5D5"/>
<path opacity="0.25" d="M102.467 178.663C89.2138 200.604 80.1043 224.578 75.3917 249.919C71.6596 269.986 70.815 290.354 72.8818 310.457L70.2365 310.721C68.1446 290.372 68.9994 269.757 72.7762 249.448C77.5459 223.8 86.7664 199.535 100.182 177.325L102.467 178.663Z" fill="#D5D5D5"/>
<path opacity="0.25" d="M243.998 499.016L243.434 501.573C197.95 491.858 157.44 468.76 126.281 434.776L128.255 433.023C159.038 466.597 199.062 489.417 243.998 499.016Z" fill="#D5D5D5"/>
<g opacity="0.15">
<path opacity="0.15" d="M158.197 392.446L139.996 406.708C105.836 364.469 91.5667 309.767 100.847 256.627L123.775 260.506C115.617 307.219 128.163 355.309 158.197 392.446Z" fill="#D5D5D5"/>
<path opacity="0.15" d="M390.158 450.712C349.898 474.724 302.2 483.348 255.849 474.996L260.038 452.471C300.785 459.813 342.714 452.233 378.103 431.126L390.158 450.712Z" fill="#D5D5D5"/>
<path opacity="0.15" d="M479.78 322.786L456.896 318.663C464.913 275.551 455.607 231.81 430.692 195.496L449.971 182.679C478.314 223.988 488.9 273.746 479.78 322.786Z" fill="#D5D5D5"/>
<path opacity="0.15" d="M449.971 182.678L430.692 195.495C405.028 158.089 366.058 133.014 320.959 124.888L325.148 102.363C351.042 107.028 375.201 116.609 396.952 130.837C417.958 144.577 435.796 162.019 449.971 182.678Z" fill="#D5D5D5"/>
<path opacity="0.15" d="M203.203 146.049C161.661 170.707 132.83 211.765 124.102 258.696C123.989 259.3 123.881 259.903 123.775 260.507L100.847 256.627C100.967 255.942 101.091 255.258 101.218 254.573C111.146 201.188 143.94 154.484 191.19 126.438L203.203 146.049Z" fill="#D5D5D5"/>
</g>
<g opacity="0.5">
<path opacity="0.5" d="M238.93 53.3381C170.869 67.7726 112.105 110.286 77.705 169.979L63.2515 161.908C81.2541 130.669 105.149 103.97 134.273 82.5535C164.393 60.405 198.426 45.1953 235.429 37.3479L238.93 53.3381Z" fill="#D5D5D5"/>
<path opacity="0.5" d="M143.655 481.217L133.684 494.301C82.5698 456.558 47.3733 401.8 34.5781 340.114L50.859 336.842C62.8405 394.604 95.7963 445.878 143.655 481.217Z" fill="#D5D5D5"/>
<path opacity="0.5" d="M506.899 432.665C468.407 488.725 410.112 527.055 342.75 540.593L339.426 524.567C402.502 511.889 457.089 475.999 493.132 423.505L506.899 432.665Z" fill="#D5D5D5"/>
<path opacity="0.5" d="M547.526 334.835C547.163 336.784 546.777 338.731 546.368 340.677C539.431 373.676 526.152 404.624 506.9 432.664L493.133 423.505C530.256 369.436 543.399 304.449 530.139 240.518L546.42 237.246C553.162 269.747 553.53 302.548 547.526 334.835Z" fill="#D5D5D5"/>
<path opacity="0.5" d="M447.759 83.3873L437.759 96.4514C381.743 54.9062 310.235 38.9932 241.571 52.7926C240.69 52.97 239.808 53.1516 238.928 53.3384L235.429 37.3482C236.364 37.1498 237.302 36.9572 238.242 36.7672C275.585 29.2621 313.186 29.768 350.006 38.2689C385.577 46.4815 418.466 61.6618 447.759 83.3873Z" fill="#D5D5D5"/>
</g>
</g>
<path opacity="0.15" d="M290.499 433.019C251.331 433.019 214.507 418.004 186.812 390.742C159.116 363.481 143.863 327.234 143.863 288.679C143.863 250.125 159.116 213.878 186.812 186.615C214.507 159.354 251.331 144.34 290.499 144.34C329.667 144.34 366.49 159.354 394.186 186.615C421.882 213.878 437.135 250.125 437.135 288.679C437.135 327.234 421.882 363.481 394.186 390.742C366.49 418.004 329.667 433.019 290.499 433.019ZM290.499 147.489C211.408 147.489 147.062 210.827 147.062 288.679C147.062 366.532 211.408 429.87 290.499 429.87C369.59 429.87 433.936 366.532 433.936 288.679C433.936 210.827 369.59 147.489 290.499 147.489Z" fill="#D5D5D5"/>
<path opacity="0.15" d="M290.603 467.135H290.499C286.167 467.135 281.788 466.983 277.484 466.683L278.163 457.259C282.241 457.543 286.393 457.687 290.499 457.687H290.603V467.135ZM305.913 466.499L305.107 457.085C309.227 456.743 313.383 456.249 317.458 455.616L318.953 464.948C314.65 465.617 310.262 466.139 305.913 466.499ZM262.258 464.982C257.945 464.318 253.605 463.489 249.361 462.52L251.53 453.317C255.548 454.235 259.657 455.019 263.742 455.648L262.258 464.982ZM333.978 461.969L331.682 452.795C335.695 451.822 339.72 450.692 343.645 449.436L346.613 458.421C342.467 459.748 338.215 460.942 333.978 461.969ZM234.59 458.487C230.438 457.163 226.28 455.67 222.232 454.049L225.846 445.298C229.679 446.832 233.616 448.245 237.547 449.498L234.59 458.487ZM360.966 453.152L357.232 444.449C361.028 442.871 364.819 441.133 368.499 439.283L372.865 447.696C368.979 449.651 364.976 451.486 360.966 453.152ZM208.284 447.772C204.394 445.821 200.528 443.704 196.794 441.48L201.763 433.397C205.299 435.503 208.959 437.507 212.642 439.355L208.284 447.772ZM386.202 440.272L381.129 432.253C384.629 430.107 388.099 427.804 391.442 425.409L397.091 433.047C393.562 435.576 389.898 438.007 386.202 440.272ZM184.025 433.132C180.497 430.608 177.016 427.924 173.681 425.154L179.869 417.933C183.029 420.556 186.325 423.099 189.667 425.489L184.025 433.132ZM409.09 423.664L402.808 416.521C405.932 413.859 408.997 411.051 411.918 408.176L418.706 414.856C415.623 417.891 412.388 420.854 409.09 423.664ZM162.391 414.952C159.304 411.919 156.292 408.736 153.436 405.492L160.69 399.305C163.395 402.378 166.25 405.394 169.173 408.268L162.391 414.952ZM429.076 403.748L421.744 397.653C424.412 394.543 426.997 391.299 429.426 388.012L437.187 393.571C434.622 397.041 431.893 400.465 429.076 403.748ZM143.897 393.687C141.328 390.218 138.856 386.613 136.55 382.973L144.694 377.975C146.878 381.422 149.219 384.836 151.653 388.122L143.897 393.687ZM445.676 381.005L437.467 376.11C439.608 372.632 441.646 369.03 443.526 365.405L452.074 369.701C450.09 373.529 447.936 377.332 445.676 381.005ZM129.001 369.849C127.015 366.029 125.147 362.089 123.451 358.139L132.29 354.459C133.897 358.198 135.665 361.928 137.545 365.545L129.001 369.849ZM458.46 355.975L449.572 352.409C451.132 348.642 452.569 344.768 453.846 340.896L462.975 343.812C461.627 347.903 460.108 351.995 458.46 355.975ZM118.09 344.014C116.738 339.933 115.523 335.749 114.477 331.579L123.797 329.315C124.786 333.262 125.936 337.223 127.216 341.087L118.09 344.014ZM467.082 329.274L457.734 327.134C458.669 323.177 459.468 319.133 460.109 315.115L469.591 316.581C468.914 320.824 468.07 325.095 467.082 329.274ZM111.441 316.791C110.761 312.563 110.229 308.245 109.858 303.956L119.422 303.157C119.773 307.219 120.277 311.31 120.921 315.314L111.441 316.791ZM471.326 301.595L461.753 300.92C462.048 296.874 462.196 292.755 462.196 288.679L462.196 288.287L471.794 288.252L471.794 288.679C471.794 292.979 471.637 297.325 471.326 301.595ZM118.802 288.884H109.204L109.203 288.715C109.203 284.445 109.356 280.17 109.657 275.972L119.231 276.637C118.946 280.614 118.801 284.666 118.801 288.679L118.802 288.884ZM461.559 274.003C461.204 269.946 460.695 265.856 460.045 261.847L469.523 260.36C470.209 264.592 470.747 268.91 471.121 273.193L461.559 274.003ZM120.857 262.439L111.374 260.985C112.046 256.737 112.885 252.466 113.867 248.288L123.218 250.418C122.288 254.373 121.494 258.418 120.857 262.439ZM457.154 247.851C456.158 243.899 455.002 239.94 453.72 236.082L462.842 233.144C464.197 237.219 465.417 241.402 466.469 245.574L457.154 247.851ZM127.089 236.652L117.957 233.746C119.3 229.654 120.814 225.56 122.457 221.578L131.35 225.132C129.795 228.902 128.361 232.778 127.089 236.652ZM448.629 222.716C447.018 218.979 445.245 215.25 443.36 211.635L451.9 207.322C453.89 211.141 455.763 215.078 457.465 219.025L448.629 222.716ZM137.38 212.131L128.826 207.846C130.805 204.018 132.953 200.212 135.212 196.532L143.427 201.418C141.288 204.902 139.254 208.506 137.38 212.131ZM436.195 199.215C434.01 195.773 431.665 192.362 429.226 189.075L436.975 183.501C439.551 186.972 442.027 190.574 444.335 194.207L436.195 199.215ZM151.452 189.508L143.685 183.958C146.248 180.482 148.973 177.056 151.783 173.771L159.125 179.858C156.461 182.969 153.88 186.216 151.452 189.508ZM420.175 177.903C417.466 174.832 414.608 171.82 411.682 168.95L418.456 162.257C421.545 165.286 424.561 168.466 427.421 171.707L420.175 177.903ZM168.936 169.323L162.141 162.652C165.22 159.613 168.452 156.645 171.747 153.832L178.036 160.968C174.916 163.633 171.854 166.444 168.936 169.323ZM400.975 159.298C397.811 156.677 394.511 154.139 391.167 151.752L396.8 144.103C400.331 146.623 403.814 149.302 407.153 152.069L400.975 159.298ZM189.392 152.066L183.734 144.435C187.257 141.904 190.918 139.469 194.614 137.197L199.698 145.211C196.196 147.363 192.729 149.669 189.392 152.066ZM379.062 143.859C375.519 141.755 371.856 139.754 368.175 137.913L372.523 129.49C376.411 131.435 380.279 133.547 384.021 135.769L379.062 143.859ZM212.32 138.166L207.943 129.758C211.824 127.8 215.825 125.96 219.836 124.288L223.58 132.987C219.783 134.57 215.994 136.312 212.32 138.166ZM354.962 131.985C351.132 130.456 347.194 129.047 343.257 127.797L346.204 118.806C350.362 120.126 354.522 121.614 358.568 123.229L354.962 131.985ZM237.161 127.983L234.182 119.002C238.33 117.668 242.579 116.47 246.813 115.439L249.118 124.61C245.11 125.586 241.087 126.721 237.161 127.983ZM329.27 123.996C325.252 123.083 321.142 122.304 317.056 121.679L318.529 112.343C322.844 113.003 327.184 113.826 331.429 114.791L329.27 123.996ZM263.34 121.772L261.835 112.442C266.134 111.769 270.521 111.243 274.873 110.877L275.689 120.291C271.567 120.637 267.413 121.136 263.34 121.772ZM302.632 120.086C298.623 119.81 294.541 119.67 290.499 119.67L290.199 119.671L290.175 110.223L290.487 110.223C294.763 110.223 299.07 110.37 303.301 110.661L302.632 120.086Z" fill="#D5D5D5"/>
<path opacity="0.23" d="M290.607 518.048L290.605 515.949C293.071 515.947 295.56 515.908 298.006 515.831L298.074 517.929C295.606 518.007 293.094 518.047 290.607 518.048ZM283.14 517.936C280.66 517.86 278.151 517.745 275.682 517.592L275.815 515.497C278.262 515.648 280.749 515.763 283.206 515.837L283.14 517.936ZM305.533 517.579L305.398 515.484C307.856 515.329 310.338 515.135 312.774 514.905L312.977 516.995C310.519 517.227 308.015 517.423 305.533 517.579ZM268.237 517.015C265.767 516.784 263.27 516.512 260.814 516.204L261.084 514.121C263.517 514.426 265.991 514.696 268.438 514.924L268.237 517.015ZM320.399 516.177L320.128 514.095C322.56 513.788 325.024 513.438 327.451 513.053L327.79 515.126C325.341 515.515 322.854 515.868 320.399 516.177ZM253.423 515.16C250.968 514.774 248.493 514.344 246.068 513.883L246.473 511.822C248.875 512.279 251.327 512.705 253.759 513.088L253.423 515.16ZM335.143 513.842L334.737 511.782C337.15 511.32 339.587 510.814 341.977 510.279L342.451 512.326C340.038 512.867 337.58 513.377 335.143 513.842ZM238.759 512.373C236.334 511.832 233.893 511.246 231.503 510.633L232.042 508.601C234.41 509.209 236.829 509.79 239.231 510.326L238.759 512.373ZM349.704 510.579L349.163 508.548C351.546 507.933 353.944 507.274 356.29 506.589L356.897 508.601C354.529 509.293 352.109 509.959 349.704 510.579ZM224.308 508.662C221.927 507.969 219.53 507.229 217.181 506.464L217.852 504.471C220.179 505.229 222.554 505.962 224.913 506.649L224.308 508.662ZM364.022 506.397L363.349 504.404C365.676 503.644 368.026 502.834 370.333 501.996L371.071 503.966C368.741 504.811 366.369 505.629 364.022 506.397ZM210.108 504.031C207.777 503.188 205.426 502.295 203.121 501.376L203.921 499.43C206.204 500.34 208.533 501.225 210.843 502.061L210.108 504.031ZM378.036 501.314L377.234 499.368C379.505 498.46 381.79 497.506 384.024 496.53L384.889 498.449C382.634 499.434 380.329 500.398 378.036 501.314ZM196.228 498.502C193.952 497.509 191.667 496.469 189.435 495.409L190.36 493.518C192.572 494.568 194.837 495.599 197.092 496.581L196.228 498.502ZM391.649 495.37L390.721 493.479C392.932 492.429 395.151 491.331 397.317 490.216L398.306 492.076C396.119 493.202 393.879 494.31 391.649 495.37ZM182.746 492.104C180.545 490.972 178.334 489.79 176.172 488.589L177.22 486.76C179.362 487.95 181.554 489.122 183.734 490.244L182.746 492.104ZM404.853 488.575L403.805 486.746C405.935 485.563 408.08 484.327 410.178 483.073L411.285 484.867C409.167 486.133 407.003 487.38 404.853 488.575ZM169.717 484.869C167.596 483.601 165.467 482.282 163.388 480.947L164.554 479.189C166.613 480.511 168.723 481.818 170.825 483.074L169.717 484.869ZM417.597 480.956L416.431 479.198C418.487 477.878 420.547 476.509 422.556 475.128L423.778 476.849C421.75 478.243 419.671 479.625 417.597 480.956ZM157.193 476.83C155.164 475.435 153.126 473.985 151.135 472.521L152.412 470.839C154.385 472.29 156.405 473.727 158.415 475.109L157.193 476.83ZM429.825 472.55L428.548 470.867C430.522 469.416 432.491 467.919 434.4 466.419L435.73 468.06C433.804 469.574 431.817 471.084 429.825 472.55ZM145.221 468.023C143.287 466.502 141.347 464.927 139.457 463.343L140.84 461.745C142.714 463.315 144.635 464.875 146.552 466.382L145.221 468.023ZM441.488 463.387L440.105 461.789C441.966 460.23 443.834 458.612 445.66 456.981L447.094 458.535C445.252 460.182 443.366 461.814 441.488 463.387ZM133.85 458.486C132.021 456.851 130.189 455.159 128.402 453.456L129.886 451.948C131.656 453.635 133.472 455.312 135.284 456.932L133.85 458.486ZM452.54 453.509L451.057 452C452.814 450.328 454.576 448.596 456.291 446.852L457.823 448.313C456.09 450.073 454.313 451.82 452.54 453.509ZM123.122 448.259C121.396 446.504 119.677 444.701 118.013 442.899L119.592 441.487C121.24 443.273 122.943 445.06 124.654 446.798L123.122 448.259ZM462.936 442.954L461.358 441.541C463.011 439.753 464.657 437.913 466.251 436.073L467.874 437.436C466.265 439.291 464.604 441.148 462.936 442.954ZM113.081 437.383C111.47 435.523 109.872 433.616 108.331 431.717L109.998 430.407C111.525 432.289 113.109 434.178 114.705 436.022L113.081 437.383ZM472.629 431.764L470.963 430.453C472.502 428.558 474.026 426.618 475.493 424.687L477.201 425.945C475.72 427.893 474.183 429.851 472.629 431.764ZM103.768 425.906C102.284 423.952 100.813 421.95 99.3968 419.955L101.144 418.752C102.549 420.73 104.005 422.713 105.476 424.649L103.768 425.906ZM481.582 419.985L479.835 418.781C481.242 416.801 482.637 414.768 483.983 412.739L485.769 413.887C484.411 415.934 483.003 417.986 481.582 419.985ZM95.2205 413.873C93.8694 411.836 92.5321 409.747 91.2454 407.663L93.0679 406.573C94.3429 408.637 95.6679 410.707 97.0068 412.726L95.2205 413.873ZM489.755 407.66L487.933 406.569C489.209 404.502 490.47 402.384 491.68 400.275L493.537 401.308C492.316 403.437 491.044 405.573 489.755 407.66ZM87.476 401.333C86.257 399.21 85.0589 397.042 83.9141 394.889L85.8043 393.916C86.938 396.049 88.1255 398.197 89.3327 400.302L87.476 401.333ZM497.112 394.838L495.221 393.866C496.361 391.722 497.481 389.528 498.552 387.345L500.473 388.257C499.392 390.46 498.261 392.675 497.112 394.838ZM80.5665 388.338C79.4926 386.151 78.439 383.913 77.4338 381.687L79.3833 380.834C80.3788 383.04 81.4229 385.258 82.4867 387.425L80.5665 388.338ZM503.616 381.57L501.667 380.72C502.667 378.499 503.642 376.237 504.564 373.997L506.541 374.785C505.609 377.046 504.625 379.329 503.616 381.57ZM74.5219 374.942C73.5909 372.684 72.6828 370.378 71.8238 368.087L73.8245 367.36C74.676 369.63 75.5756 371.915 76.4991 374.152L74.5219 374.942ZM509.242 367.91L507.24 367.185C508.093 364.904 508.917 362.583 509.691 360.288L511.716 360.949C510.934 363.266 510.102 365.608 509.242 367.91ZM69.3518 361.149C68.569 358.835 67.814 356.475 67.108 354.138L69.1524 353.539C69.8525 355.855 70.6001 358.193 71.3754 360.486L69.3518 361.149ZM513.953 353.936L511.907 353.339C512.605 351.02 513.274 348.659 513.894 346.322L515.957 346.853C515.331 349.212 514.656 351.595 513.953 353.936ZM65.0962 347.058C64.4675 344.7 63.8692 342.298 63.3168 339.918L65.3963 339.451C65.9429 341.808 66.5364 344.188 67.1592 346.525L65.0962 347.058ZM517.729 339.713L515.649 339.247C516.194 336.886 516.707 334.488 517.172 332.12L519.266 332.519C518.796 334.908 518.279 337.329 517.729 339.713ZM61.7742 332.726C61.3002 330.328 60.8602 327.893 60.4662 325.489L62.5719 325.154C62.9622 327.536 63.3984 329.949 63.8676 332.325L61.7742 332.726ZM520.567 325.279L518.461 324.946C518.85 322.567 519.204 320.141 519.516 317.737L521.632 318.003C521.317 320.429 520.959 322.877 520.567 325.279ZM59.3955 318.213C59.0787 315.792 58.7988 313.334 58.5615 310.909L60.6848 310.708C60.9194 313.11 61.1972 315.546 61.5108 317.946L59.3955 318.213ZM522.457 310.699L520.334 310.499C520.567 308.101 520.764 305.658 520.919 303.238L523.048 303.37C522.89 305.813 522.692 308.279 522.457 310.699ZM57.9648 303.582C57.8059 301.146 57.6849 298.675 57.6049 296.24L59.7367 296.172C59.8156 298.586 59.9356 301.034 60.0935 303.448L57.9648 303.582ZM523.4 296.028L521.268 295.962C521.346 293.55 521.385 291.099 521.385 288.679V288.263H523.517V288.679C523.517 291.122 523.478 293.594 523.4 296.028ZM59.6141 288.888H57.4812V288.679C57.4812 286.307 57.5185 283.905 57.5921 281.54L59.7239 281.604C59.6509 283.948 59.6141 286.328 59.6141 288.679V288.888ZM521.254 280.981C521.173 278.562 521.05 276.114 520.891 273.705L523.019 273.569C523.18 276 523.303 278.47 523.386 280.911L521.254 280.981ZM60.0668 274.328L57.9382 274.198C58.0923 271.76 58.2885 269.295 58.5215 266.869L60.6448 267.067C60.4139 269.47 60.2198 271.913 60.0668 274.328ZM520.295 266.446C520.057 264.038 519.776 261.603 519.461 259.209L521.577 258.939C521.894 261.356 522.177 263.813 522.417 266.243L520.295 266.446ZM61.4569 259.827L59.3405 259.563C59.6525 257.141 60.0081 254.693 60.3979 252.286L62.5036 252.617C62.1181 255.001 61.7656 257.427 61.4569 259.827ZM518.394 252.002C518.001 249.615 517.562 247.202 517.092 244.832L519.185 244.429C519.661 246.822 520.103 249.257 520.5 251.666L518.394 252.002ZM63.7866 245.444L61.692 245.047C62.1591 242.66 62.6737 240.239 63.2219 237.852L65.3025 238.315C64.7592 240.68 64.2489 243.079 63.7866 245.444ZM515.555 237.707C515.006 235.349 514.411 232.97 513.786 230.634L515.849 230.1C516.479 232.457 517.08 234.858 517.634 237.238L515.555 237.707ZM67.052 231.237L64.9879 230.708C65.6118 228.351 66.2842 225.968 66.9864 223.625L69.0319 224.219C68.336 226.541 67.67 228.902 67.052 231.237ZM511.786 223.622C511.084 221.305 510.334 218.967 509.557 216.677L511.58 216.012C512.364 218.324 513.121 220.683 513.83 223.022L511.786 223.622ZM71.2416 217.268L69.2169 216.609C69.9986 214.281 70.8283 211.938 71.6836 209.645L73.6858 210.369C72.8385 212.641 72.0163 214.962 71.2416 217.268ZM507.102 209.806C506.248 207.537 505.347 205.253 504.422 203.017L506.397 202.225C507.331 204.482 508.241 206.787 509.102 209.077L507.102 209.806ZM76.3551 203.554L74.3774 202.767C75.3052 200.507 76.2869 198.223 77.2952 195.98L79.2457 196.829C78.247 199.052 77.2744 201.315 76.3551 203.554ZM501.53 196.336C500.533 194.133 499.487 191.917 498.421 189.748L500.34 188.834C501.417 191.022 502.473 193.259 503.479 195.482L501.53 196.336ZM82.355 190.201L80.4337 189.291C81.5114 187.088 82.6397 184.873 83.7883 182.707L85.6796 183.678C84.5412 185.824 83.4225 188.019 82.355 190.201ZM495.097 183.26C493.954 181.118 492.765 178.971 491.562 176.878L493.418 175.843C494.632 177.955 495.832 180.122 496.984 182.284L495.097 183.26ZM89.2148 177.264L87.3571 176.233C88.5745 174.107 89.8451 171.969 91.1334 169.879L92.957 170.968C91.6805 173.039 90.421 175.157 89.2148 177.264ZM487.822 170.609C486.545 168.547 485.218 166.479 483.878 164.46L485.663 163.311C487.016 165.348 488.356 167.436 489.644 169.517L487.822 170.609ZM96.9007 164.793L95.1133 163.647C96.4709 161.596 97.8776 159.544 99.2944 157.546L101.043 158.748C99.6393 160.727 98.2455 162.761 96.9007 164.793ZM479.735 158.436C478.327 156.458 476.868 154.476 475.397 152.544L477.104 151.285C478.588 153.235 480.061 155.235 481.481 157.232L479.735 158.436ZM105.379 152.837L103.67 151.581C105.153 149.625 106.69 147.666 108.236 145.758L109.903 147.067C108.371 148.958 106.849 150.9 105.379 152.837ZM470.871 146.79C469.341 144.909 467.755 143.021 466.159 141.18L467.781 139.817C469.392 141.675 470.992 143.58 472.536 145.479L470.871 146.79ZM114.612 141.443L112.987 140.082C114.598 138.22 116.258 136.362 117.92 134.56L119.499 135.972C117.852 137.757 116.208 139.598 114.612 141.443ZM461.267 135.719C459.61 133.928 457.905 132.143 456.199 130.413L457.73 128.951C459.451 130.697 461.172 132.498 462.844 134.305L461.267 135.719ZM124.561 130.656L123.028 129.196C124.755 127.439 126.53 125.689 128.305 123.996L129.789 125.503C128.031 127.181 126.272 128.915 124.561 130.656ZM450.962 125.268C449.189 123.582 447.372 121.906 445.559 120.288L446.993 118.733C448.822 120.366 450.655 122.056 452.445 123.758L450.962 125.268ZM135.183 120.517L133.748 118.964C135.578 117.326 137.462 115.692 139.349 114.107L140.733 115.704C138.863 117.274 136.996 118.893 135.183 120.517ZM439.998 115.48C438.123 113.911 436.2 112.352 434.282 110.847L435.611 109.205C437.547 110.724 439.488 112.297 441.379 113.88L439.998 115.48ZM146.434 111.069L145.102 109.429C147.04 107.905 149.025 106.392 151.004 104.934L152.282 106.616C150.321 108.06 148.354 109.558 146.434 111.069ZM428.419 106.396C426.447 104.948 424.426 103.513 422.412 102.131L423.632 100.409C425.664 101.804 427.703 103.252 429.694 104.714L428.419 106.396ZM158.27 102.349L157.047 100.629C159.081 99.228 161.16 97.8445 163.226 96.516L164.392 98.2738C162.345 99.5897 160.285 100.961 158.27 102.349ZM416.269 98.056C414.205 96.7344 412.094 95.429 409.994 94.1761L411.099 92.3806C413.219 93.645 415.35 94.9624 417.432 96.2961L416.269 98.056ZM170.641 94.394L169.531 92.6005C171.649 91.3324 173.812 90.0827 175.962 88.8865L177.012 90.7141C174.882 91.8992 172.738 93.1374 170.641 94.394ZM403.595 90.4957C401.452 89.3085 399.26 88.1391 397.078 87.0195L398.065 85.1578C400.266 86.2878 402.479 87.4683 404.642 88.6666L403.595 90.4957ZM183.496 87.2379L182.506 85.3782C184.7 84.2466 186.939 83.137 189.16 82.0794L190.089 83.9695C187.888 85.0171 185.669 86.1173 183.496 87.2379ZM390.449 83.7506C388.229 82.6998 385.963 81.6711 383.714 80.6932L384.576 78.7727C386.846 79.76 389.133 80.7982 391.373 81.859L390.449 83.7506ZM196.782 80.9121L195.916 78.9937C198.171 78.007 200.476 77.0412 202.767 76.1242L203.571 78.0689C201.3 78.9774 199.017 79.9343 196.782 80.9121ZM376.881 77.8505C374.599 76.9436 372.268 76.0607 369.956 75.2262L370.691 73.2548C373.024 74.0967 375.375 74.9879 377.68 75.9033L376.881 77.8505ZM210.469 75.4335L209.729 73.4642C212.052 72.6192 214.423 71.7993 216.776 71.0272L217.451 73.0191C215.12 73.7844 212.771 74.5963 210.469 75.4335ZM362.947 72.8233C360.613 72.0649 358.237 71.3343 355.884 70.6514L356.487 68.6375C358.862 69.3266 361.26 70.0641 363.616 70.8293L362.947 72.8233ZM224.507 70.8288L223.898 68.8165C226.273 68.1205 228.692 67.4528 231.089 66.833L231.632 68.8632C229.257 69.4778 226.86 70.1391 224.507 70.8288ZM348.754 68.7052C346.38 68.0979 343.961 67.52 341.563 66.9868L342.033 64.9392C344.453 65.4767 346.895 66.0604 349.29 66.6734L348.754 68.7052ZM238.818 67.1253L238.342 65.0788C240.752 64.5361 243.211 64.0239 245.648 63.5562L246.056 65.6168C243.641 66.0798 241.206 66.5879 238.818 67.1253ZM334.32 65.4982C331.907 65.0416 329.455 64.6185 327.032 64.2391L327.366 62.1658C329.812 62.5484 332.287 62.9757 334.722 63.4365L334.32 65.4982ZM253.341 64.3377L253 62.2655C255.445 61.8761 257.931 61.5202 260.39 61.2079L260.663 63.2901C258.227 63.5992 255.763 63.9519 253.341 64.3377ZM319.705 63.2108C317.274 62.9085 314.8 62.6408 312.351 62.4141L312.55 60.324C315.022 60.5524 317.519 60.8227 319.973 61.1276L319.705 63.2108ZM268.015 62.4739L267.81 60.3844C270.272 60.1503 272.776 59.9514 275.254 59.7939L275.392 61.8892C272.937 62.0451 270.454 62.2419 268.015 62.4739ZM304.974 61.8493C302.524 61.7002 300.037 61.5879 297.582 61.515L297.647 59.4165C300.124 59.49 302.634 59.6034 305.105 59.754L304.974 61.8493ZM282.783 61.5349L282.713 59.4365C285.184 59.3567 287.696 59.3147 290.179 59.311L290.183 61.4105C287.721 61.4137 285.232 61.4557 282.783 61.5349Z" fill="#D5D5D5"/>
<path opacity="0.23" d="M290.499 512.012C259.871 512.012 230.157 506.107 202.185 494.461C175.167 483.213 150.903 467.11 130.067 446.599C109.23 426.089 92.8706 402.205 81.4432 375.61C69.612 348.077 63.6133 318.828 63.6133 288.679C63.6133 258.53 69.612 229.282 81.4432 201.747C92.8706 175.153 109.23 151.269 130.067 130.759C150.903 110.249 175.167 94.1461 202.185 82.8971C230.157 71.2518 259.871 65.3464 290.499 65.3464C321.128 65.3464 350.842 71.2518 378.814 82.8976C405.832 94.1461 430.095 110.249 450.932 130.76C471.768 151.27 488.128 175.154 499.555 201.748C511.387 229.282 517.385 258.53 517.385 288.679C517.385 318.828 511.387 348.077 499.555 375.61C488.128 402.205 471.769 426.089 450.932 446.599C430.095 467.109 405.832 483.213 378.814 494.461C350.842 506.107 321.128 512.012 290.499 512.012ZM290.499 66.921C166.276 66.921 65.2129 166.401 65.2129 288.679C65.2129 410.957 166.276 510.437 290.499 510.437C414.723 510.437 515.786 410.957 515.786 288.679C515.786 166.401 414.723 66.921 290.499 66.921Z" fill="#D5D5D5"/>
<path opacity="0.25" d="M203.081 440.847C179.874 427.901 159.574 409.628 144.375 388.005L146.129 386.811C161.146 408.176 181.203 426.23 204.133 439.02L203.081 440.847Z" fill="#D5D5D5"/>
<path opacity="0.15" d="M313.732 461.979L313.455 459.897C349.721 455.232 383.103 439.744 409.991 415.11L411.444 416.647C384.229 441.581 350.441 457.256 313.732 461.979Z" fill="#D5D5D5"/>
<path opacity="0.15" d="M411.444 416.647L409.991 415.11C429.87 396.898 445.384 374.106 454.854 349.198L456.852 349.933C447.266 375.145 431.565 398.214 411.444 416.647Z" fill="#D5D5D5"/>
<path opacity="0.22" d="M464.846 269.375C460.677 232.488 444.865 198.555 419.118 171.244L420.681 169.816C446.742 197.459 462.747 231.805 466.965 269.143L464.846 269.375Z" fill="#D5D5D5"/>
<path opacity="0.25" d="M351.533 126.735C332.03 119.609 311.495 115.997 290.499 115.997C273.873 115.997 257.423 118.283 241.606 122.792L241.012 120.776C257.022 116.211 273.672 113.897 290.499 113.897C311.749 113.897 332.534 117.554 352.276 124.766L351.533 126.735Z" fill="#D5D5D5"/>
<path opacity="0.25" d="M115.164 282.943L113.032 282.874C114.25 246.142 126.915 211.339 149.658 182.228L151.348 183.508C128.879 212.268 116.367 246.653 115.164 282.943Z" fill="#D5D5D5"/>
<g opacity="0.15">
<path opacity="0.15" d="M188.202 200.903L174.139 188.826C203.066 156.191 244.857 137.205 288.798 136.738L289 155.107C250.374 155.518 213.634 172.21 188.202 200.903Z" fill="#D5D5D5"/>
<path opacity="0.15" d="M175.001 389.495C149.935 361.692 136.131 325.888 136.131 288.679H154.794C154.794 321.39 166.928 352.863 188.96 377.303L175.001 389.495Z" fill="#D5D5D5"/>
<path opacity="0.15" d="M290.499 440.63V422.259C326.218 422.259 359.94 408.712 385.452 384.113L398.512 397.237C369.49 425.219 331.13 440.63 290.499 440.63Z" fill="#D5D5D5"/>
<path opacity="0.15" d="M398.512 397.237L385.452 384.113C411.731 358.775 426.204 324.883 426.204 288.679H444.867C444.867 309.466 440.677 329.615 432.412 348.566C424.432 366.867 413.026 383.242 398.512 397.237Z" fill="#D5D5D5"/>
<path opacity="0.15" d="M392.23 200.269C366.462 171.563 329.383 155.099 290.499 155.099C289.999 155.099 289.499 155.102 288.999 155.107L288.798 136.738C289.365 136.732 289.932 136.729 290.498 136.729C334.729 136.729 376.906 155.455 406.216 188.106L392.23 200.269Z" fill="#D5D5D5"/>
</g>
<g opacity="0.5">
<path opacity="0.5" d="M471.714 214.627C450.311 163.846 407.741 124.343 354.918 106.246L359.301 93.8538C386.944 103.325 411.799 118.028 433.175 137.556C455.282 157.752 472.391 181.991 484.027 209.599L471.714 214.627Z" fill="#D5D5D5"/>
<path opacity="0.5" d="M114.938 202.431L103.008 196.576C125.881 151.421 164.695 116.173 212.299 97.323L217.274 109.496C172.698 127.147 136.354 160.152 114.938 202.431Z" fill="#D5D5D5"/>
<path opacity="0.5" d="M206.331 477.567C155.83 455.767 116.681 416.022 96.0984 365.655L108.465 360.758C127.739 407.921 164.397 445.137 211.686 465.55L206.331 477.567Z" fill="#D5D5D5"/>
<path opacity="0.5" d="M290.626 494.991C289.011 494.991 287.394 494.972 285.775 494.936C258.32 494.314 231.591 488.471 206.332 477.567L211.686 465.55C260.393 486.575 314.389 487.397 363.725 467.861L368.7 480.035C343.618 489.967 317.377 494.991 290.626 494.991Z" fill="#D5D5D5"/>
<path opacity="0.5" d="M477.79 381.176L465.873 375.295C491.086 325.784 493.513 267.941 472.532 216.601C472.263 215.942 471.989 215.284 471.713 214.627L484.026 209.599C484.321 210.297 484.611 210.998 484.899 211.7C496.309 239.622 501.335 268.902 499.84 298.729C498.394 327.545 490.975 355.284 477.79 381.176Z" fill="#D5D5D5"/>
</g>
<path d="M358.351 389.045H224.512V275.846H238.814V240.106C238.814 211.547 262.418 188.312 291.432 188.312C320.446 188.312 344.05 211.547 344.05 240.106V275.846H358.351V389.045ZM227.179 386.421H355.685V278.47H341.384V240.106C341.384 212.994 318.975 190.937 291.432 190.937C263.888 190.937 241.48 212.994 241.48 240.106V278.47H227.179V386.421ZM327.329 278.47H255.534V240.106C255.534 220.623 271.638 204.771 291.431 204.771C311.225 204.771 327.328 220.623 327.328 240.106V278.47H327.329ZM258.201 275.846H324.663V240.106C324.663 222.07 309.756 207.396 291.432 207.396C273.109 207.396 258.201 222.07 258.201 240.106V275.846H258.201Z" fill="#1B782F"/>
<path d="M298.838 354.875H284.026V328.913C280.972 326.633 279.168 323.087 279.168 319.291C279.168 312.634 284.669 307.219 291.432 307.219C298.195 307.219 303.696 312.634 303.696 319.291C303.696 323.087 301.893 326.633 298.838 328.913V354.875H298.838ZM286.692 352.251H296.171V327.537L296.762 327.147C299.434 325.387 301.029 322.45 301.029 319.291C301.029 314.081 296.724 309.843 291.431 309.843C286.139 309.843 281.833 314.081 281.833 319.291C281.833 322.449 283.428 325.386 286.1 327.147L286.691 327.537V352.251H286.692Z" fill="#1B782F"/>
<path opacity="0.46" d="M240.065 407H231V415.923H240.065V407Z" fill="#1A782F"/>
<path opacity="0.46" d="M253.065 407H244V415.923H253.065V407Z" fill="#1A782F"/>
<path opacity="0.46" d="M349.686 372.134H340.622V381.057H349.686V372.134Z" fill="#1A782F"/>
<path opacity="0.46" d="M295.831 291.304H286.766V300.227H295.831V291.304Z" fill="#1A782F"/>
<path opacity="0.46" d="M309.162 291.304H300.097V300.227H309.162V291.304Z" fill="#1A782F"/>
<path opacity="0.46" d="M265.532 407.525V415.398H257.533V407.525H265.532ZM266.065 407H257V415.923H266.065V407Z" fill="#1A782F"/>
<path opacity="0.46" d="M278.532 407.525V415.398H270.533V407.525H278.532ZM279.065 407H270V415.923H279.065V407Z" fill="#1A782F"/>
<path opacity="0.46" d="M342.755 287.629H334.223V296.027H342.755V287.629Z" fill="#1A782F"/>
<path opacity="0.46" d="M330.49 212.048H323.025V219.396H330.49V212.048Z" fill="#1A782F"/>
<path opacity="0.46" d="M342.221 298.127V305.475H334.756V298.127H342.221ZM342.755 297.602H334.223V306H342.755V297.602Z" fill="#1A782F"/>
<path opacity="0.46" d="M342.755 307.575H334.223V315.973H342.755V307.575Z" fill="#1A782F"/>
<path opacity="0.46" d="M252 323.398V315H243.468V323.398H252Z" fill="#197035"/>
<path opacity="0.46" d="M261.171 300.226V307.574H253.706V300.226H261.171ZM261.705 299.701H253.173V308.099H261.705V299.701Z" fill="#197035"/>
<path opacity="0.46" d="M251.574 308.099V299.701H243.042V308.099H251.574Z" fill="#197035"/>
<path opacity="0.46" d="M248.596 352.199C248.596 349.88 246.686 348 244.331 348C241.975 348 240.065 349.88 240.065 352.199C240.065 354.059 241.295 355.634 242.997 356.186V380.524L231 392.333V410.197H233.666V393.42L245.664 381.61V356.186C247.366 355.634 248.596 354.059 248.596 352.199Z" fill="#1A782F"/>
<path opacity="0.46" d="M247.308 293.403C249.369 293.403 251.04 291.758 251.04 289.729C251.04 287.7 249.369 286.055 247.308 286.055C245.246 286.055 243.575 287.7 243.575 289.729C243.575 291.758 245.246 293.403 247.308 293.403Z" fill="#197035"/>
<path opacity="0.46" d="M250.507 233.568C252.569 233.568 254.24 231.923 254.24 229.894C254.24 227.864 252.569 226.219 250.507 226.219C248.446 226.219 246.775 227.864 246.775 229.894C246.775 231.923 248.446 233.568 250.507 233.568Z" fill="#1A782F"/>
<path opacity="0.46" d="M256.906 293.403C258.967 293.403 260.638 291.758 260.638 289.729C260.638 287.7 258.967 286.055 256.906 286.055C254.844 286.055 253.173 287.7 253.173 289.729C253.173 291.758 254.844 293.403 256.906 293.403Z" fill="#197035"/>
<path opacity="0.46" d="M266.504 286.58C268.268 286.58 269.703 287.993 269.703 289.729C269.703 291.466 268.268 292.879 266.504 292.879C264.74 292.879 263.304 291.466 263.304 289.729C263.304 287.993 264.74 286.58 266.504 286.58ZM266.504 286.055C264.442 286.055 262.771 287.7 262.771 289.729C262.771 291.758 264.442 293.403 266.504 293.403C268.565 293.403 270.236 291.758 270.236 289.729C270.236 287.7 268.565 286.055 266.504 286.055Z" fill="#197035"/>
<path opacity="0.46" d="M317.693 203.125C319.457 203.125 320.892 204.538 320.892 206.274C320.892 208.011 319.457 209.424 317.693 209.424C315.929 209.424 314.494 208.011 314.494 206.274C314.494 204.538 315.929 203.125 317.693 203.125ZM317.693 202.6C315.632 202.6 313.961 204.245 313.961 206.274C313.961 208.304 315.632 209.949 317.693 209.949C319.755 209.949 321.426 208.304 321.426 206.274C321.426 204.245 319.755 202.6 317.693 202.6Z" fill="#1A782F"/>
<path opacity="0.46" d="M276.102 286.58C277.866 286.58 279.301 287.993 279.301 289.729C279.301 291.466 277.866 292.879 276.102 292.879C274.338 292.879 272.902 291.466 272.902 289.729C272.902 287.993 274.338 286.58 276.102 286.58ZM276.102 286.055C274.04 286.055 272.369 287.7 272.369 289.729C272.369 291.758 274.04 293.403 276.102 293.403C278.163 293.403 279.834 291.758 279.834 289.729C279.834 287.7 278.163 286.055 276.102 286.055Z" fill="#197035"/>
<path opacity="0.46" d="M286.733 414.348C288.794 414.348 290.465 412.703 290.465 410.674C290.465 408.645 288.794 407 286.733 407C284.671 407 283 408.645 283 410.674C283 412.703 284.671 414.348 286.733 414.348Z" fill="#1A782F"/>
<path opacity="0.46" d="M310.228 381.056C312.29 381.056 313.961 379.411 313.961 377.382C313.961 375.353 312.29 373.708 310.228 373.708C308.167 373.708 306.496 375.353 306.496 377.382C306.496 379.411 308.167 381.056 310.228 381.056Z" fill="#1A782F"/>
<path opacity="0.46" d="M319.826 374.233C321.59 374.233 323.025 375.646 323.025 377.382C323.025 379.119 321.59 380.532 319.826 380.532C318.062 380.532 316.627 379.119 316.627 377.382C316.627 375.646 318.062 374.233 319.826 374.233ZM319.826 373.708C317.765 373.708 316.093 375.353 316.093 377.382C316.093 379.412 317.765 381.056 319.826 381.056C321.887 381.056 323.558 379.412 323.558 377.382C323.558 375.353 321.887 373.708 319.826 373.708Z" fill="#1A782F"/>
<path opacity="0.46" d="M329.424 374.233C331.188 374.233 332.623 375.646 332.623 377.382C332.623 379.119 331.188 380.532 329.424 380.532C327.66 380.532 326.225 379.119 326.225 377.382C326.225 375.646 327.66 374.233 329.424 374.233ZM329.424 373.708C327.363 373.708 325.692 375.353 325.692 377.382C325.692 379.412 327.363 381.056 329.424 381.056C331.486 381.056 333.157 379.412 333.157 377.382C333.157 375.353 331.486 373.708 329.424 373.708Z" fill="#1A782F"/>
<path opacity="0.46" d="M255.666 407.039H253V398.623L262.065 389.7V360.308L271.52 351L273.405 352.856L264.731 361.394V390.787L255.666 399.71V407.039Z" fill="#197035"/>
<path opacity="0.46" d="M290.864 357C288.508 357 286.598 358.88 286.598 361.199C286.598 361.88 286.767 362.521 287.059 363.089L282.332 367.741V387.686L277 392.935V400.827H279.666V394.022L284.998 388.773V368.828L288.944 364.944C289.521 365.232 290.172 365.398 290.864 365.398C293.22 365.398 295.13 363.518 295.13 361.199C295.13 358.88 293.22 357 290.864 357Z" fill="#1A782F"/>
<path opacity="0.46" d="M288.899 361.112H281.967V363.736H288.899V361.112Z" fill="#1A782F"/>
<path opacity="0.46" d="M299.03 361.112H292.099V363.736H299.03V361.112Z" fill="#1A782F"/>
<path opacity="0.46" d="M309.162 361.112H302.23V363.736H309.162V361.112Z" fill="#1A782F"/>
<path opacity="0.46" d="M319.293 361.112H312.361V363.736H319.293V361.112Z" fill="#1A782F"/>
<path opacity="0.46" d="M290.499 283.955H283.567V286.579H290.499V283.955Z" fill="#1A782F"/>
<path opacity="0.46" d="M300.63 283.955H293.698V286.579H300.63V283.955Z" fill="#1A782F"/>
<path opacity="0.46" d="M310.761 283.955H303.829V286.579H310.761V283.955Z" fill="#1A782F"/>
<path opacity="0.46" d="M320.892 283.955H313.961V286.579H320.892V283.955Z" fill="#1A782F"/>
<path opacity="0.46" d="M327.824 317.022V323.846H330.491V317.022H327.824Z" fill="#1A782F"/>
<path opacity="0.46" d="M327.824 307.049V313.873H330.491V307.049H327.824Z" fill="#1A782F"/>
<path opacity="0.46" d="M327.824 297.077V303.901H330.491V297.077H327.824Z" fill="#1A782F"/>
<path opacity="0.46" d="M327.824 287.104V293.928H330.491V287.104H327.824Z" fill="#1A782F"/>
<path opacity="0.46" d="M244.109 269.259V276.082H246.775V269.259H244.109Z" fill="#1A782F"/>
<path opacity="0.46" d="M244.109 259.287V266.11H246.775V259.287H244.109Z" fill="#1A782F"/>
<path opacity="0.46" d="M244.109 249.314V256.137H246.775V249.314H244.109Z" fill="#1A782F"/>
<path opacity="0.46" d="M244.109 239.341V246.165H246.775V239.341H244.109Z" fill="#1A782F"/>
<path opacity="0.46" d="M278.768 346.94C278.768 344.621 276.858 342.741 274.502 342.741C272.147 342.741 270.237 344.621 270.237 346.94C270.237 348.702 271.34 350.208 272.903 350.831V366.622H275.569V351.001C277.408 350.534 278.768 348.895 278.768 346.94Z" fill="#1A7035"/>
<path opacity="0.46" d="M320.892 302.081V289.991H318.226V300.995L310.228 308.868V325.728C308.665 326.351 307.562 327.857 307.562 329.619C307.562 331.938 309.472 333.818 311.828 333.818C314.183 333.818 316.093 331.938 316.093 329.619C316.093 327.663 314.733 326.024 312.894 325.557V309.954L320.892 302.081Z" fill="#1A782F"/>
<path opacity="0.46" d="M322.462 366V375.429L310.979 386.732H307.219C306.586 385.194 305.055 384.108 303.266 384.108C300.91 384.108 299 385.988 299 388.307C299 390.626 300.91 392.506 303.266 392.506C305.253 392.506 306.917 391.167 307.392 389.357H312.083L325.128 376.516V366H322.462Z" fill="#1A782F"/>
<path opacity="0.46" d="M236.377 341.649V290H233.711V341.649C232.008 342.201 230.778 343.776 230.778 345.636C230.778 347.955 232.688 349.835 235.044 349.835C237.4 349.835 239.31 347.955 239.31 345.636C239.31 343.776 238.079 342.201 236.377 341.649Z" fill="#197035"/>
<g opacity="0.46">
<path opacity="0.46" d="M332.09 225.17H329.424V228.319H332.09V225.17Z" fill="#1A782F"/>
<path opacity="0.46" d="M332.09 268.359H329.424V261.686H332.09V268.359ZM332.09 255.012H329.424V248.339H332.09V255.012ZM332.09 241.666H329.424V234.992H332.09V241.666Z" fill="#1A782F"/>
<path opacity="0.46" d="M332.09 275.033H329.424V278.182H332.09V275.033Z" fill="#1A782F"/>
</g>
<path opacity="0.46" d="M337.956 225.17H335.289V278.182H337.956V225.17Z" fill="#1A782F"/>
<path opacity="0.46" d="M329.3 361.514L327.415 359.659L336.889 350.333V324.633H339.555V351.42L329.3 361.514Z" fill="#1A782F"/>
<path opacity="0.46" d="M351.819 324.37C351.819 322.051 349.909 320.171 347.554 320.171C345.198 320.171 343.288 322.051 343.288 324.37C343.288 326.132 344.391 327.638 345.954 328.261V358.731L335.68 368.844L337.565 370.7L348.62 359.818V328.432C350.459 327.965 351.819 326.326 351.819 324.37Z" fill="#1A782F"/>
<path opacity="0.46" d="M305.429 196.827C303.739 196.827 302.312 197.934 301.853 199.451H273.15L265.685 206.799H259.839V211.504L255.377 215.897C255.018 215.784 254.636 215.722 254.24 215.722C252.178 215.722 250.507 217.367 250.507 219.396C250.507 221.425 252.178 223.07 254.24 223.07C256.301 223.07 257.972 221.425 257.972 219.396C257.972 218.723 257.786 218.095 257.465 217.552L262.505 212.591V209.424H266.789L274.254 202.075H302.06C302.66 203.316 303.941 204.175 305.429 204.175C307.49 204.175 309.161 202.53 309.161 200.501C309.161 198.472 307.491 196.827 305.429 196.827Z" fill="#1A782F"/>
<path d="M217.981 596.779H214.248V543.531L244.642 513.613V413.599H248.374V515.135L217.981 545.053V596.779Z" fill="#D5D5D5"/>
<path d="M214.515 425.933H210.782V502.039H214.515V425.933Z" fill="#D5D5D5"/>
<path d="M283.834 441.417H280.101V612H283.834V441.417Z" fill="#D5D5D5"/>
<path d="M251.84 547.178H248.108V587.068H251.84V547.178Z" fill="#D5D5D5"/>
<path d="M320.093 430.395H316.36V605.439H320.093V430.395Z" fill="#D5D5D5"/>
<path d="M381.147 583.395H377.414V527.731L356.352 506.999V418.06H360.084V505.478L381.147 526.21V583.395Z" fill="#D5D5D5"/>
<path d="M348.887 540.88H345.154V584.969H348.887V540.88Z" fill="#D5D5D5"/>
<path d="M212.915 429.345C216.449 429.345 219.313 426.525 219.313 423.046C219.313 419.568 216.449 416.748 212.915 416.748C209.381 416.748 206.516 419.568 206.516 423.046C206.516 426.525 209.381 429.345 212.915 429.345Z" fill="#D5D5D5"/>
<path d="M246.508 419.897C250.042 419.897 252.907 417.077 252.907 413.599C252.907 410.12 250.042 407.3 246.508 407.3C242.974 407.3 240.109 410.12 240.109 413.599C240.109 417.077 242.974 419.897 246.508 419.897Z" fill="#D5D5D5"/>
<path d="M282.234 448.765C285.768 448.765 288.633 445.945 288.633 442.467C288.633 438.988 285.768 436.168 282.234 436.168C278.7 436.168 275.835 438.988 275.835 442.467C275.835 445.945 278.7 448.765 282.234 448.765Z" fill="#D5D5D5"/>
<path d="M347.287 545.341C350.821 545.341 353.686 542.521 353.686 539.043C353.686 535.564 350.821 532.744 347.287 532.744C343.753 532.744 340.888 535.564 340.888 539.043C340.888 542.521 343.753 545.341 347.287 545.341Z" fill="#D5D5D5"/>
<path d="M249.707 550.59C253.241 550.59 256.106 547.77 256.106 544.291C256.106 540.813 253.241 537.993 249.707 537.993C246.173 537.993 243.309 540.813 243.309 544.291C243.309 547.77 246.173 550.59 249.707 550.59Z" fill="#D5D5D5"/>
<path d="M318.493 436.693C322.027 436.693 324.892 433.873 324.892 430.395C324.892 426.916 322.027 424.096 318.493 424.096C314.959 424.096 312.094 426.916 312.094 430.395C312.094 433.873 314.959 436.693 318.493 436.693Z" fill="#D5D5D5"/>
<path d="M358.485 424.096C362.019 424.096 364.883 421.276 364.883 417.798C364.883 414.319 362.019 411.499 358.485 411.499C354.951 411.499 352.086 414.319 352.086 417.798C352.086 421.276 354.951 424.096 358.485 424.096Z" fill="#D5D5D5"/>
<path d="M210.782 192.103C214.316 192.103 217.181 189.283 217.181 185.804C217.181 182.326 214.316 179.506 210.782 179.506C207.248 179.506 204.383 182.326 204.383 185.804C204.383 189.283 207.248 192.103 210.782 192.103Z" fill="#D5D5D5"/>
<path d="M241.709 181.081C245.243 181.081 248.108 178.261 248.108 174.782C248.108 171.304 245.243 168.484 241.709 168.484C238.175 168.484 235.31 171.304 235.31 174.782C235.31 178.261 238.175 181.081 241.709 181.081Z" fill="#D5D5D5"/>
<path d="M275.302 139.616C278.836 139.616 281.701 136.796 281.701 133.317C281.701 129.839 278.836 127.019 275.302 127.019C271.768 127.019 268.903 129.839 268.903 133.317C268.903 136.796 271.768 139.616 275.302 139.616Z" fill="#D5D5D5"/>
<path d="M313.161 32.5422C316.695 32.5422 319.559 29.7223 319.559 26.2438C319.559 22.7652 316.695 19.9453 313.161 19.9453C309.627 19.9453 306.762 22.7652 306.762 26.2438C306.762 29.7223 309.627 32.5422 313.161 32.5422Z" fill="#D5D5D5"/>
<path d="M241.709 51.9624C245.243 51.9624 248.108 49.1425 248.108 45.6639C248.108 42.1854 245.243 39.3655 241.709 39.3655C238.175 39.3655 235.31 42.1854 235.31 45.6639C235.31 49.1425 238.175 51.9624 241.709 51.9624Z" fill="#D5D5D5"/>
<path d="M313.694 158.511C317.228 158.511 320.093 155.691 320.093 152.213C320.093 148.734 317.228 145.914 313.694 145.914C310.16 145.914 307.295 148.734 307.295 152.213C307.295 155.691 310.16 158.511 313.694 158.511Z" fill="#D5D5D5"/>
<path d="M375.015 157.462C378.548 157.462 381.413 154.642 381.413 151.163C381.413 147.685 378.548 144.865 375.015 144.865C371.481 144.865 368.616 147.685 368.616 151.163C368.616 154.642 371.481 157.462 375.015 157.462Z" fill="#D5D5D5"/>
<path d="M346.754 179.506C350.288 179.506 353.152 176.686 353.152 173.207C353.152 169.729 350.288 166.909 346.754 166.909C343.22 166.909 340.355 169.729 340.355 173.207C340.355 176.686 343.22 179.506 346.754 179.506Z" fill="#D5D5D5"/>
<path d="M243.575 172.158H239.843V106.785L208.916 76.3425V0H212.648V74.8204L243.575 105.263V172.158Z" fill="#D5D5D5"/>
<path d="M212.382 115.734H208.649V186.592H212.382V115.734Z" fill="#D5D5D5"/>
<path d="M243.842 0.262451H240.109V48.0257H243.842V0.262451Z" fill="#D5D5D5"/>
<path d="M276.902 0.262451H273.169V135.154H276.902V0.262451Z" fill="#D5D5D5"/>
<path d="M315.294 150.9H311.561V80.8564L339.289 53.5631V0.262451H343.021V55.0853L315.294 82.3786V150.9Z" fill="#D5D5D5"/>
<path d="M314.761 2.88696H311.028V27.5559H314.761V2.88696Z" fill="#D5D5D5"/>
<path d="M348.353 94.2144H344.621V172.42H348.353V94.2144Z" fill="#D5D5D5"/>
<path d="M376.614 5.51123H372.882V150.901H376.614V5.51123Z" fill="#D5D5D5"/>
<path d="M223.846 497.563V500.805L229.445 497.624L235.044 500.805V497.563L229.445 494.382L223.846 497.563Z" fill="#D5D5D5"/>
<path d="M223.846 491.08V494.322L229.445 491.14L235.044 494.322V491.08L229.445 487.898L223.846 491.08Z" fill="#D5D5D5"/>
<path d="M223.846 484.596V487.838L229.445 484.656L235.044 487.838V484.596L229.445 481.414L223.846 484.596Z" fill="#D5D5D5"/>
<path d="M223.846 478.112V481.354L229.445 478.172L235.044 481.354V478.112L229.445 474.93L223.846 478.112Z" fill="#D5D5D5"/>
<path d="M293.165 552.15V555.392L298.764 552.21L304.363 555.392V552.15L298.764 548.968L293.165 552.15Z" fill="#D5D5D5"/>
<path d="M293.165 545.666V548.908L298.764 545.727L304.363 548.908V545.666L298.764 542.484L293.165 545.666Z" fill="#D5D5D5"/>
<path d="M293.165 539.183V542.425L298.764 539.243L304.363 542.425V539.183L298.764 536.001L293.165 539.183Z" fill="#D5D5D5"/>
<path d="M293.165 532.699V535.941L298.764 532.759L304.363 535.941V532.699L298.764 529.517L293.165 532.699Z" fill="#D5D5D5"/>
<path d="M332.624 460.822V464.064L338.222 460.882L343.821 464.064V460.822L338.222 457.64L332.624 460.822Z" fill="#D5D5D5"/>
<path d="M332.624 454.339V457.581L338.222 454.399L343.821 457.581V454.339L338.222 451.157L332.624 454.339Z" fill="#D5D5D5"/>
<path d="M332.624 447.855V451.097L338.222 447.915L343.821 451.097V447.855L338.222 444.673L332.624 447.855Z" fill="#D5D5D5"/>
<path d="M332.623 441.371V444.613L338.222 441.432L343.821 444.613V441.371L338.222 438.189L332.623 441.371Z" fill="#D5D5D5"/>
<path d="M262.238 123.36V120.117L256.639 123.299L251.04 120.117V123.36L256.639 126.541L262.238 123.36Z" fill="#D5D5D5"/>
<path d="M262.238 129.843V126.601L256.639 129.783L251.04 126.601V129.843L256.639 133.025L262.238 129.843Z" fill="#D5D5D5"/>
<path d="M262.238 136.327V133.085L256.639 136.267L251.04 133.085V136.327L256.639 139.509L262.238 136.327Z" fill="#D5D5D5"/>
<path d="M262.238 142.811V139.569L256.639 142.75L251.04 139.569V142.811L256.639 145.992L262.238 142.811Z" fill="#D5D5D5"/>
<path d="M334.756 87.6682V84.426L329.157 87.6078L323.559 84.426V87.6682L329.157 90.8499L334.756 87.6682Z" fill="#D5D5D5"/>
<path d="M334.756 94.1518V90.9097L329.157 94.0914L323.559 90.9097V94.1518L329.157 97.3336L334.756 94.1518Z" fill="#D5D5D5"/>
<path d="M334.756 100.636V97.3936L329.157 100.575L323.559 97.3936V100.636L329.157 103.817L334.756 100.636Z" fill="#D5D5D5"/>
<path d="M334.756 107.119V103.877L329.157 107.059L323.559 103.877V107.119L329.157 110.301L334.756 107.119Z" fill="#D5D5D5"/>
<path d="M296.897 35.706V32.4639L291.299 35.6456L285.7 32.4639V35.706L291.299 38.8878L296.897 35.706Z" fill="#D5D5D5"/>
<path d="M296.897 42.1896V38.9475L291.299 42.1293L285.7 38.9475V42.1896L291.299 45.3714L296.897 42.1896Z" fill="#D5D5D5"/>
<path d="M296.897 48.6733V45.4312L291.299 48.6129L285.7 45.4312V48.6733L291.299 51.8551L296.897 48.6733Z" fill="#D5D5D5"/>
<path d="M296.897 55.1572V51.915L291.299 55.0968L285.7 51.915V55.1572L291.299 58.3389L296.897 55.1572Z" fill="#D5D5D5"/>
<path d="M224.912 61.9349C226.679 61.9349 228.112 60.525 228.112 58.7857C228.112 57.0464 226.679 55.6365 224.912 55.6365C223.146 55.6365 221.713 57.0464 221.713 58.7857C221.713 60.525 223.146 61.9349 224.912 61.9349Z" fill="#D5D5D5"/>
<path d="M224.913 70.8573C226.68 70.8573 228.112 69.4473 228.112 67.7081C228.112 65.9688 226.68 64.5588 224.913 64.5588C223.146 64.5588 221.713 65.9688 221.713 67.7081C221.713 69.4473 223.146 70.8573 224.913 70.8573Z" fill="#D5D5D5"/>
<path d="M224.913 79.7806C226.68 79.7806 228.112 78.3707 228.112 76.6314C228.112 74.8921 226.68 73.4822 224.913 73.4822C223.146 73.4822 221.713 74.8921 221.713 76.6314C221.713 78.3707 223.146 79.7806 224.913 79.7806Z" fill="#D5D5D5"/>
<path d="M224.913 88.7032C226.68 88.7032 228.112 87.2933 228.112 85.554C228.112 83.8147 226.68 82.4048 224.913 82.4048C223.146 82.4048 221.713 83.8147 221.713 85.554C221.713 87.2933 223.146 88.7032 224.913 88.7032Z" fill="#D5D5D5"/>
<path d="M361.951 32.5419C363.717 32.5419 365.15 31.1319 365.15 29.3926C365.15 27.6534 363.717 26.2434 361.951 26.2434C360.184 26.2434 358.751 27.6534 358.751 29.3926C358.751 31.1319 360.184 32.5419 361.951 32.5419Z" fill="#D5D5D5"/>
<path d="M361.951 41.4652C363.718 41.4652 365.15 40.0552 365.15 38.316C365.15 36.5767 363.718 35.1667 361.951 35.1667C360.184 35.1667 358.751 36.5767 358.751 38.316C358.751 40.0552 360.184 41.4652 361.951 41.4652Z" fill="#D5D5D5"/>
<path d="M361.951 50.3876C363.718 50.3876 365.15 48.9776 365.15 47.2383C365.15 45.4991 363.718 44.0891 361.951 44.0891C360.184 44.0891 358.751 45.4991 358.751 47.2383C358.751 48.9776 360.184 50.3876 361.951 50.3876Z" fill="#D5D5D5"/>
<path d="M361.951 59.3107C363.718 59.3107 365.15 57.9007 365.15 56.1614C365.15 54.4222 363.718 53.0122 361.951 53.0122C360.184 53.0122 358.751 54.4222 358.751 56.1614C358.751 57.9007 360.184 59.3107 361.951 59.3107Z" fill="#D5D5D5"/>
<path d="M298.497 117.046C300.264 117.046 301.697 115.636 301.697 113.897C301.697 112.158 300.264 110.748 298.497 110.748C296.73 110.748 295.298 112.158 295.298 113.897C295.298 115.636 296.73 117.046 298.497 117.046Z" fill="#D5D5D5"/>
<path d="M298.497 125.969C300.264 125.969 301.697 124.559 301.697 122.82C301.697 121.08 300.264 119.67 298.497 119.67C296.73 119.67 295.298 121.08 295.298 122.82C295.298 124.559 296.73 125.969 298.497 125.969Z" fill="#D5D5D5"/>
<path d="M298.497 134.892C300.264 134.892 301.697 133.482 301.697 131.742C301.697 130.003 300.264 128.593 298.497 128.593C296.73 128.593 295.298 130.003 295.298 131.742C295.298 133.482 296.73 134.892 298.497 134.892Z" fill="#D5D5D5"/>
<path d="M298.497 143.815C300.264 143.815 301.697 142.405 301.697 140.665C301.697 138.926 300.264 137.516 298.497 137.516C296.73 137.516 295.298 138.926 295.298 140.665C295.298 142.405 296.73 143.815 298.497 143.815Z" fill="#D5D5D5"/>
<path d="M257.972 503.877C259.739 503.877 261.172 502.467 261.172 500.727C261.172 498.988 259.739 497.578 257.972 497.578C256.205 497.578 254.773 498.988 254.773 500.727C254.773 502.467 256.205 503.877 257.972 503.877Z" fill="#D5D5D5"/>
<path d="M257.972 512.799C259.739 512.799 261.172 511.389 261.172 509.65C261.172 507.911 259.739 506.501 257.972 506.501C256.205 506.501 254.773 507.911 254.773 509.65C254.773 511.389 256.205 512.799 257.972 512.799Z" fill="#D5D5D5"/>
<path d="M257.972 521.722C259.739 521.722 261.172 520.312 261.172 518.573C261.172 516.834 259.739 515.424 257.972 515.424C256.205 515.424 254.773 516.834 254.773 518.573C254.773 520.312 256.205 521.722 257.972 521.722Z" fill="#D5D5D5"/>
<path d="M257.972 530.645C259.739 530.645 261.172 529.235 261.172 527.496C261.172 525.757 259.739 524.347 257.972 524.347C256.205 524.347 254.773 525.757 254.773 527.496C254.773 529.235 256.205 530.645 257.972 530.645Z" fill="#D5D5D5"/>
<path d="M342.221 520.672C343.988 520.672 345.421 519.262 345.421 517.523C345.421 515.783 343.988 514.374 342.221 514.374C340.454 514.374 339.022 515.783 339.022 517.523C339.022 519.262 340.454 520.672 342.221 520.672Z" fill="#D5D5D5"/>
<path d="M342.221 529.595C343.988 529.595 345.421 528.185 345.421 526.446C345.421 524.707 343.988 523.297 342.221 523.297C340.454 523.297 339.022 524.707 339.022 526.446C339.022 528.185 340.454 529.595 342.221 529.595Z" fill="#D5D5D5"/>
<path d="M342.221 538.518C343.988 538.518 345.421 537.108 345.421 535.369C345.421 533.629 343.988 532.219 342.221 532.219C340.454 532.219 339.022 533.629 339.022 535.369C339.022 537.108 340.454 538.518 342.221 538.518Z" fill="#D5D5D5"/>
<path d="M342.221 547.441C343.988 547.441 345.421 546.031 345.421 544.291C345.421 542.552 343.988 541.142 342.221 541.142C340.454 541.142 339.022 542.552 339.022 544.291C339.022 546.031 340.454 547.441 342.221 547.441Z" fill="#D5D5D5"/>
<path d="M293.165 448.24C294.932 448.24 296.364 446.83 296.364 445.091C296.364 443.351 294.932 441.941 293.165 441.941C291.398 441.941 289.966 443.351 289.966 445.091C289.966 446.83 291.398 448.24 293.165 448.24Z" fill="#D5D5D5"/>
<path d="M293.165 457.163C294.932 457.163 296.364 455.753 296.364 454.014C296.364 452.274 294.932 450.865 293.165 450.865C291.398 450.865 289.966 452.274 289.966 454.014C289.966 455.753 291.398 457.163 293.165 457.163Z" fill="#D5D5D5"/>
<path d="M293.165 466.086C294.932 466.086 296.364 464.676 296.364 462.937C296.364 461.197 294.932 459.787 293.165 459.787C291.398 459.787 289.966 461.197 289.966 462.937C289.966 464.676 291.398 466.086 293.165 466.086Z" fill="#D5D5D5"/>
<path d="M293.165 475.009C294.932 475.009 296.364 473.599 296.364 471.859C296.364 470.12 294.932 468.71 293.165 468.71C291.398 468.71 289.966 470.12 289.966 471.859C289.966 473.599 291.398 475.009 293.165 475.009Z" fill="#D5D5D5"/>
<path d="M250.507 8.78784H240.376V10.7824H250.507V8.78784Z" fill="#D5D5D5"/>
<path d="M250.507 13.062H240.376V15.0565H250.507V13.062Z" fill="#D5D5D5"/>
<path d="M250.507 17.3362H240.376V19.3307H250.507V17.3362Z" fill="#D5D5D5"/>
<path d="M250.507 21.6096H240.376V23.6041H250.507V21.6096Z" fill="#D5D5D5"/>
<path d="M250.507 25.8835H240.376V27.8781H250.507V25.8835Z" fill="#D5D5D5"/>
<path d="M250.507 30.1572H240.376V32.1517H250.507V30.1572Z" fill="#D5D5D5"/>
<path d="M250.507 34.4314H240.376V36.4259H250.507V34.4314Z" fill="#D5D5D5"/>
<path d="M250.507 38.7056H240.376V40.7001H250.507V38.7056Z" fill="#D5D5D5"/>
<path d="M250.507 42.9795H240.376V44.974H250.507V42.9795Z" fill="#D5D5D5"/>
<path d="M250.507 47.2539H240.376V49.2484H250.507V47.2539Z" fill="#D5D5D5"/>
<path d="M250.507 51.5273H240.376V53.5219H250.507V51.5273Z" fill="#D5D5D5"/>
<path d="M250.507 55.8013H240.376V57.7958H250.507V55.8013Z" fill="#D5D5D5"/>
<path d="M250.507 60.0754H240.376V62.07H250.507V60.0754Z" fill="#D5D5D5"/>
<path d="M250.507 64.3491H240.376V66.3436H250.507V64.3491Z" fill="#D5D5D5"/>
<path d="M250.507 68.623H240.376V70.6176H250.507V68.623Z" fill="#D5D5D5"/>
<path d="M250.507 72.8975H240.376V74.892H250.507V72.8975Z" fill="#D5D5D5"/>
<path d="M250.507 77.1714H240.376V79.1659H250.507V77.1714Z" fill="#D5D5D5"/>
<path d="M250.507 81.4446H240.376V83.4391H250.507V81.4446Z" fill="#D5D5D5"/>
<path d="M250.507 85.7188H240.376V87.7133H250.507V85.7188Z" fill="#D5D5D5"/>
<path d="M250.507 89.9929H240.376V91.9874H250.507V89.9929Z" fill="#D5D5D5"/>
<path d="M353.419 69.1482H343.288V71.1427H353.419V69.1482Z" fill="#D5D5D5"/>
<path d="M353.419 73.4221H343.288V75.4166H353.419V73.4221Z" fill="#D5D5D5"/>
<path d="M353.419 77.696H343.288V79.6905H353.419V77.696Z" fill="#D5D5D5"/>
<path d="M353.419 81.9695H343.288V83.964H353.419V81.9695Z" fill="#D5D5D5"/>
<path d="M353.419 86.2434H343.288V88.2379H353.419V86.2434Z" fill="#D5D5D5"/>
<path d="M353.419 90.5176H343.288V92.5121H353.419V90.5176Z" fill="#D5D5D5"/>
<path d="M353.419 94.7917H343.288V96.7863H353.419V94.7917Z" fill="#D5D5D5"/>
<path d="M353.419 99.0659H343.288V101.06H353.419V99.0659Z" fill="#D5D5D5"/>
<path d="M353.419 103.34H343.288V105.334H353.419V103.34Z" fill="#D5D5D5"/>
<path d="M353.419 107.614H343.288V109.609H353.419V107.614Z" fill="#D5D5D5"/>
<path d="M353.419 111.887H343.288V113.882H353.419V111.887Z" fill="#D5D5D5"/>
<path d="M353.419 116.161H343.288V118.156H353.419V116.161Z" fill="#D5D5D5"/>
<path d="M353.419 120.435H343.288V122.43H353.419V120.435Z" fill="#D5D5D5"/>
<path d="M353.419 124.709H343.288V126.704H353.419V124.709Z" fill="#D5D5D5"/>
<path d="M353.419 128.984H343.288V130.978H353.419V128.984Z" fill="#D5D5D5"/>
<path d="M353.419 133.258H343.288V135.252H353.419V133.258Z" fill="#D5D5D5"/>
<path d="M353.419 137.531H343.288V139.526H353.419V137.531Z" fill="#D5D5D5"/>
<path d="M353.419 141.805H343.288V143.799H353.419V141.805Z" fill="#D5D5D5"/>
<path d="M353.419 146.079H343.288V148.073H353.419V146.079Z" fill="#D5D5D5"/>
<path d="M353.419 150.353H343.288V152.347H353.419V150.353Z" fill="#D5D5D5"/>
<path d="M281.967 427.11H271.836V429.105H281.967V427.11Z" fill="#D5D5D5"/>
<path d="M281.967 431.384H271.836V433.379H281.967V431.384Z" fill="#D5D5D5"/>
<path d="M281.967 435.658H271.836V437.653H281.967V435.658Z" fill="#D5D5D5"/>
<path d="M281.967 439.932H271.836V441.927H281.967V439.932Z" fill="#D5D5D5"/>
<path d="M281.967 444.206H271.836V446.201H281.967V444.206Z" fill="#D5D5D5"/>
<path d="M281.967 448.48H271.836V450.475H281.967V448.48Z" fill="#D5D5D5"/>
<path d="M281.967 452.754H271.836V454.748H281.967V452.754Z" fill="#D5D5D5"/>
<path d="M281.967 457.028H271.836V459.022H281.967V457.028Z" fill="#D5D5D5"/>
<path d="M281.967 461.302H271.836V463.297H281.967V461.302Z" fill="#D5D5D5"/>
<path d="M281.967 465.576H271.836V467.57H281.967V465.576Z" fill="#D5D5D5"/>
<path d="M281.967 469.849H271.836V471.844H281.967V469.849Z" fill="#D5D5D5"/>
<path d="M281.967 474.123H271.836V476.118H281.967V474.123Z" fill="#D5D5D5"/>
<path d="M281.967 478.398H271.836V480.392H281.967V478.398Z" fill="#D5D5D5"/>
<path d="M281.967 482.672H271.836V484.666H281.967V482.672Z" fill="#D5D5D5"/>
<path d="M281.967 486.945H271.836V488.94H281.967V486.945Z" fill="#D5D5D5"/>
<path d="M281.967 491.219H271.836V493.213H281.967V491.219Z" fill="#D5D5D5"/>
<path d="M281.967 495.494H271.836V497.488H281.967V495.494Z" fill="#D5D5D5"/>
<path d="M281.967 499.767H271.836V501.762H281.967V499.767Z" fill="#D5D5D5"/>
<path d="M281.967 504.041H271.836V506.036H281.967V504.041Z" fill="#D5D5D5"/>
<path d="M281.967 508.315H271.836V510.31H281.967V508.315Z" fill="#D5D5D5"/>
<path d="M319.293 480.122H309.162V482.117H319.293V480.122Z" fill="#D5D5D5"/>
<path d="M319.293 484.396H309.161V486.391H319.293V484.396Z" fill="#D5D5D5"/>
<path d="M319.293 488.67H309.161V490.665H319.293V488.67Z" fill="#D5D5D5"/>
<path d="M319.293 492.944H309.161V494.939H319.293V492.944Z" fill="#D5D5D5"/>
<path d="M319.293 497.218H309.161V499.213H319.293V497.218Z" fill="#D5D5D5"/>
<path d="M319.293 501.492H309.161V503.486H319.293V501.492Z" fill="#D5D5D5"/>
<path d="M319.293 505.766H309.161V507.761H319.293V505.766Z" fill="#D5D5D5"/>
<path d="M319.293 510.04H309.161V512.035H319.293V510.04Z" fill="#D5D5D5"/>
<path d="M319.293 514.313H309.161V516.308H319.293V514.313Z" fill="#D5D5D5"/>
<path d="M319.293 518.588H309.161V520.582H319.293V518.588Z" fill="#D5D5D5"/>
<path d="M319.293 522.862H309.161V524.856H319.293V522.862Z" fill="#D5D5D5"/>
<path d="M319.293 527.136H309.161V529.13H319.293V527.136Z" fill="#D5D5D5"/>
<path d="M319.293 531.41H309.161V533.404H319.293V531.41Z" fill="#D5D5D5"/>
<path d="M319.293 535.684H309.161V537.678H319.293V535.684Z" fill="#D5D5D5"/>
<path d="M319.293 539.958H309.161V541.952H319.293V539.958Z" fill="#D5D5D5"/>
<path d="M319.293 544.231H309.161V546.226H319.293V544.231Z" fill="#D5D5D5"/>
<path d="M319.293 548.506H309.161V550.5H319.293V548.506Z" fill="#D5D5D5"/>
<path d="M319.293 552.779H309.161V554.774H319.293V552.779Z" fill="#D5D5D5"/>
<path d="M319.293 557.053H309.161V559.048H319.293V557.053Z" fill="#D5D5D5"/>
<path d="M319.293 561.327H309.161V563.321H319.293V561.327Z" fill="#D5D5D5"/>
<path d="M212.915 543.755L206.783 554.209H219.047L212.915 543.755Z" fill="#D5D5D5"/>
<path d="M212.915 530.263L206.783 540.718H219.047L212.915 530.263Z" fill="#D5D5D5"/>
<path d="M212.915 516.77L206.783 527.225H219.047L212.915 516.77Z" fill="#D5D5D5"/>
<path d="M371.282 507.539L365.15 517.993H377.414L371.282 507.539Z" fill="#D5D5D5"/>
<path d="M371.282 494.046L365.15 504.501H377.414L371.282 494.046Z" fill="#D5D5D5"/>
<path d="M371.282 480.554L365.15 491.009H377.414L371.282 480.554Z" fill="#D5D5D5"/>
<path d="M243.842 446.129L237.71 456.583H249.974L243.842 446.129Z" fill="#D5D5D5"/>
<path d="M243.842 432.636L237.71 443.091H249.974L243.842 432.636Z" fill="#D5D5D5"/>
<path d="M243.842 419.144L237.71 429.599H249.974L243.842 419.144Z" fill="#D5D5D5"/>
<path d="M378.214 113.102L384.346 102.647H372.082L378.214 113.102Z" fill="#D5D5D5"/>
<path d="M378.214 126.594L384.346 116.139H372.082L378.214 126.594Z" fill="#D5D5D5"/>
<path d="M378.214 140.087L384.346 129.632H372.082L378.214 140.087Z" fill="#D5D5D5"/>
<path d="M214.515 116.251L220.647 105.796H208.383L214.515 116.251Z" fill="#D5D5D5"/>
<path d="M214.515 129.743L220.647 119.289H208.383L214.515 129.743Z" fill="#D5D5D5"/>
<path d="M214.515 143.236L220.647 132.781H208.383L214.515 143.236Z" fill="#D5D5D5"/>
<path d="M309.962 82.1344L316.094 71.6794H303.829L309.962 82.1344Z" fill="#D5D5D5"/>
<path d="M309.961 95.6268L316.093 85.1719H303.829L309.961 95.6268Z" fill="#D5D5D5"/>
<path d="M309.961 109.119L316.093 98.6643H303.829L309.961 109.119Z" fill="#D5D5D5"/>
</svg>
