<svg width="207" height="450" viewBox="0 0 207 450" fill="none" xmlns="http://www.w3.org/2000/svg">
<g opacity="0.14">
<path opacity="0.15" d="M123.706 250.285C117.113 287.45 96.8876 319.741 66.757 341.209C36.6265 362.678 0.196365 370.755 -35.8215 363.951C-71.8393 357.148 -103.134 336.279 -123.941 305.189C-144.747 274.099 -152.574 236.509 -145.981 199.344C-139.387 162.18 -119.163 129.889 -89.0316 108.42C-58.9006 86.9513 -22.4709 78.8745 13.5473 85.678C49.5651 92.4814 80.8598 113.35 101.666 144.44C122.472 175.53 130.3 213.12 123.706 250.285ZM-143.039 199.9C-156.353 274.947 -108.014 347.178 -35.2832 360.916C37.4475 374.654 107.45 324.776 120.764 249.729C134.078 174.683 85.7389 102.451 13.0083 88.7133C-59.722 74.9756 -129.725 124.854 -143.039 199.9Z" fill="#D5D5D5" fill-opacity="0.33"/>
<path opacity="0.15" d="M155.596 256.206L155.578 256.305C154.849 260.415 153.969 264.544 152.965 268.575L144.275 266.267C145.227 262.447 146.061 258.534 146.752 254.638L146.77 254.538L155.596 256.206ZM157.579 241.567L148.649 240.671C149.023 236.701 149.261 232.671 149.356 228.692L158.326 228.921C158.226 233.121 157.974 237.377 157.579 241.567ZM148.813 282.722C147.466 286.697 145.962 290.668 144.342 294.525L136.109 290.842C137.643 287.192 139.068 283.432 140.343 279.666L148.813 282.722ZM158.071 214.138L149.114 214.697C148.882 210.718 148.503 206.7 147.991 202.754L156.884 201.523C157.425 205.692 157.825 209.936 158.071 214.138ZM138.088 307.828C136.152 311.535 134.057 315.216 131.862 318.772L124.295 313.797C126.373 310.431 128.356 306.944 130.189 303.436L138.088 307.828ZM154.378 186.974L145.618 188.981C144.783 185.101 143.798 181.197 142.689 177.38L151.284 174.722C152.455 178.753 153.496 182.876 154.378 186.974ZM123.649 330.898C121.172 334.245 118.543 337.54 115.837 340.69L109.122 334.549C111.684 331.566 114.173 328.447 116.52 325.277L123.649 330.898ZM146.593 160.756L138.247 164.155C136.832 160.454 135.265 156.756 133.59 153.161L141.676 149.149C143.445 152.944 145.099 156.849 146.593 160.756ZM105.888 351.334C102.937 354.236 99.8436 357.065 96.6944 359.741L90.9903 352.595C93.9727 350.06 96.9031 347.38 99.6988 344.631L105.888 351.334ZM134.93 136.108L127.2 140.808C125.239 137.374 123.132 133.97 120.937 130.691L128.32 125.43C130.636 128.891 132.861 132.483 134.93 136.108ZM85.2634 368.654C81.9102 371.047 78.4291 373.343 74.918 375.481L70.3592 367.507C73.6852 365.482 76.9827 363.306 80.1599 361.039L85.2634 368.654ZM119.69 113.63L112.761 119.512C110.304 116.431 107.709 113.406 105.047 110.521L111.547 104.138C114.357 107.184 117.097 110.377 119.69 113.63ZM62.2841 382.449C58.6103 384.274 54.8269 385.983 51.0379 387.529L47.7392 378.92C51.3274 377.456 54.9113 375.837 58.3904 374.108L62.2841 382.449ZM101.237 93.866L95.2824 100.791C92.3931 98.1462 89.3715 95.5763 86.3011 93.1521L91.7529 85.7991C94.9956 88.3582 98.1864 91.0725 101.237 93.866ZM37.5066 392.377C33.6036 393.587 29.6087 394.664 25.6329 395.577L23.683 386.54C27.4468 385.675 31.2294 384.656 34.9245 383.51L37.5066 392.377ZM80.0052 77.3187L75.178 85.1228C71.9216 82.9783 68.5445 80.9305 65.1414 79.0357L69.4019 70.8879C72.9974 72.8892 76.5648 75.0526 80.0052 77.3187ZM11.5342 398.171C7.49362 398.733 3.38069 399.148 -0.691452 399.404L-1.2373 390.163C2.61688 389.92 6.51109 389.528 10.3361 388.996L11.5342 398.171ZM56.5128 64.4257L52.9394 72.918C49.3999 71.3327 45.7565 69.8609 42.111 68.5429L45.0767 59.8051C48.9272 61.1965 52.7746 62.7509 56.5128 64.4257ZM-15.0165 399.676C-19.0811 399.574 -23.2044 399.318 -27.2733 398.912L-26.4103 389.697C-22.5557 390.081 -18.65 390.324 -14.8006 390.42L-15.0165 399.676ZM31.3694 55.5142L29.1276 64.479C25.3974 63.4854 21.5744 62.6172 17.7661 61.898L17.3998 61.8295L18.9826 52.7162L19.3817 52.7913C23.3991 53.5497 27.4324 54.4657 31.3694 55.5142ZM-39.8488 387.767L-41.4644 396.874L-41.6228 396.845C-45.6113 396.091 -49.5795 395.192 -53.4505 394.166L-51.2183 385.199C-47.5504 386.171 -43.7894 387.023 -40.0404 387.731L-39.8488 387.767ZM3.94777 59.9136C0.0975647 59.534 -3.80904 59.2955 -7.66283 59.2043L-7.45688 49.9482C-3.38794 50.0448 0.735794 50.2961 4.80032 50.6968L3.94777 59.9136ZM-64.2073 381.15L-67.1625 389.892C-71.0171 388.505 -74.8665 386.955 -78.6044 385.286L-75.0405 376.788C-71.5018 378.369 -67.8571 379.836 -64.2073 381.15ZM-21.2249 59.4783C-25.0839 59.7263 -28.9777 60.1241 -32.7975 60.6597L-34.006 51.4857C-29.971 50.9196 -25.8585 50.4999 -21.7831 50.2379L-21.2249 59.4783ZM-87.2493 370.687L-91.5014 378.839C-95.0981 376.843 -98.6679 374.683 -102.112 372.422L-97.2939 364.611C-94.0335 366.752 -90.654 368.796 -87.2493 370.687ZM-46.1408 63.1321C-49.9034 64.0015 -53.6848 65.0253 -57.3795 66.1757L-59.9708 57.3116C-56.0686 56.0968 -52.0753 55.0153 -48.1015 54.0972L-46.1408 63.1321ZM-108.425 356.594L-113.868 363.955C-117.111 361.402 -120.305 358.692 -123.362 355.9L-117.415 348.967C-114.52 351.611 -111.495 354.177 -108.425 356.594ZM-70.1898 70.7819C-73.7724 72.2479 -77.3539 73.8712 -80.8358 75.6059L-84.7384 67.2692C-81.0625 65.4371 -77.2811 63.7234 -73.4977 62.1753L-70.1898 70.7819ZM-127.191 339.25L-133.683 345.64C-136.498 342.596 -139.241 339.406 -141.837 336.159L-134.914 330.268C-132.456 333.344 -129.857 336.366 -127.191 339.25ZM-92.7958 82.2224C-96.1206 84.2513 -99.4153 86.4316 -102.589 88.7019L-107.701 81.0926C-104.351 78.6961 -100.873 76.3957 -97.3639 74.2533L-92.7958 82.2224ZM-143.104 319.098L-150.481 324.369C-152.801 320.911 -155.03 317.32 -157.103 313.698L-149.378 308.989C-147.413 312.421 -145.302 315.822 -143.104 319.098ZM-113.41 97.1579C-116.39 99.6976 -119.317 102.381 -122.11 105.133L-128.307 98.4379C-125.359 95.5322 -122.269 92.6999 -119.123 90.0194L-113.41 97.1579ZM-155.782 296.644L-163.864 300.666C-165.635 296.877 -167.294 292.974 -168.794 289.065L-160.451 285.656C-159.031 289.358 -157.46 293.055 -155.782 296.644ZM-131.521 115.225C-134.083 118.216 -136.569 121.338 -138.908 124.506L-146.045 118.894C-143.574 115.549 -140.949 112.251 -138.244 109.093L-131.521 115.225ZM-164.909 272.436L-173.5 275.105C-174.676 271.077 -175.721 266.955 -176.608 262.855L-167.851 260.838C-167.012 264.72 -166.022 268.622 -164.909 272.436ZM-146.671 135.998C-148.744 139.362 -150.722 142.851 -152.553 146.365L-160.457 141.983C-158.523 138.27 -156.432 134.585 -154.243 131.031L-146.671 135.998ZM-170.24 247.068L-179.131 248.31C-179.678 244.139 -180.083 239.895 -180.333 235.695L-171.377 235.127C-171.14 239.103 -170.758 243.12 -170.24 247.068ZM-158.459 158.966C-159.988 162.618 -161.408 166.38 -162.679 170.147L-171.153 167.102C-169.81 163.124 -168.311 159.151 -166.695 155.293L-158.459 158.966ZM-171.635 221.132L-180.605 220.914C-180.509 216.716 -180.263 212.46 -179.872 208.266L-170.941 209.153C-171.31 213.125 -171.544 217.155 -171.635 221.132ZM-166.596 183.552C-167.528 187.307 -168.346 191.156 -169.026 194.991L-169.076 195.276L-177.906 193.632L-177.854 193.335C-177.135 189.278 -176.272 185.217 -175.288 181.254L-166.596 183.552Z" fill="#D5D5D5" fill-opacity="0.33"/>
<path opacity="0.23" d="M203.159 265.187L201.197 264.817C201.611 262.478 201.993 260.109 202.333 257.775L204.305 258.081C203.962 260.436 203.576 262.826 203.159 265.187ZM201.797 272.252C201.309 274.592 200.779 276.952 200.221 279.268L198.285 278.772C198.838 276.477 199.364 274.137 199.848 271.818L201.797 272.252ZM205.233 250.941L203.253 250.7C203.523 248.339 203.758 245.95 203.954 243.598L205.941 243.774C205.743 246.148 205.506 248.558 205.233 250.941ZM198.428 286.231C197.798 288.533 197.122 290.855 196.422 293.131L194.521 292.508C195.215 290.253 195.884 287.953 196.509 285.671L198.428 286.231ZM206.427 236.588L204.436 236.477C204.559 234.116 204.646 231.716 204.696 229.345L206.689 229.389C206.639 231.783 206.551 234.205 206.427 236.588ZM194.202 299.96C193.428 302.221 192.61 304.493 191.77 306.713L189.913 305.965C190.744 303.766 191.555 301.515 192.322 299.275L194.202 299.96ZM206.727 222.186L204.734 222.208C204.709 219.837 204.647 217.436 204.549 215.073L206.541 214.985C206.64 217.37 206.703 219.792 206.727 222.186ZM189.129 313.382C188.216 315.587 187.258 317.8 186.282 319.96L184.474 319.09C185.441 316.95 186.391 314.758 187.296 312.573L189.129 313.382ZM206.13 207.794L204.141 207.948C203.968 205.579 203.756 203.187 203.511 200.84L205.493 200.619C205.741 202.989 205.955 205.402 206.13 207.794ZM183.23 326.439C182.182 328.575 181.088 330.72 179.977 332.813L178.228 331.825C179.328 329.751 180.413 327.626 181.451 325.509L183.23 326.439ZM204.633 193.471L202.658 193.758C202.339 191.415 201.978 189.043 201.584 186.705L203.549 186.353C203.946 188.712 204.311 191.107 204.633 193.471ZM176.514 339.096C175.333 341.158 174.103 343.232 172.857 345.256L171.174 344.154C172.408 342.148 173.627 340.093 174.797 338.049L176.514 339.096ZM202.243 179.276L200.291 179.694C199.825 177.378 199.318 175.042 198.783 172.749L200.721 172.268C201.261 174.581 201.774 176.939 202.243 179.276ZM169.011 351.289C167.701 353.273 166.345 355.259 164.979 357.19L163.368 355.978C164.721 354.063 166.065 352.096 167.363 350.131L169.011 351.289ZM198.982 165.31L197.06 165.857C196.451 163.574 195.798 161.275 195.122 159.022L197.027 158.413C197.709 160.686 198.367 163.007 198.982 165.31ZM160.765 362.954C159.337 364.842 157.86 366.732 156.375 368.571L154.843 367.254C156.315 365.432 157.778 363.559 159.193 361.688L160.765 362.954ZM194.857 151.582L192.972 152.254C192.225 150.024 191.431 147.771 190.613 145.558L192.475 144.824C193.302 147.058 194.103 149.332 194.857 151.582ZM151.813 374.039C150.272 375.828 148.68 377.615 147.084 379.352L145.637 377.936C147.219 376.215 148.796 374.444 150.322 372.672L151.813 374.039ZM189.885 138.146L188.046 138.942C187.159 136.758 186.227 134.561 185.275 132.411L187.089 131.556C188.05 133.726 188.991 135.943 189.885 138.146ZM142.194 384.505C140.55 386.183 138.852 387.861 137.149 389.493L135.792 387.984C137.48 386.368 139.163 384.705 140.792 383.042L142.194 384.505ZM184.09 125.06L182.304 125.975C181.28 123.846 180.213 121.714 179.133 119.638L180.89 118.664C181.98 120.76 183.056 122.911 184.09 125.06ZM131.951 394.31C130.206 395.877 128.408 397.439 126.609 398.953L125.349 397.358C127.132 395.859 128.913 394.31 130.643 392.757L131.951 394.31ZM177.494 112.377L175.768 113.406C174.625 111.366 173.428 109.307 172.211 107.287L173.904 106.201C175.133 108.24 176.34 110.317 177.494 112.377ZM121.128 403.417C119.292 404.863 117.402 406.303 115.511 407.698L114.352 406.023C116.226 404.642 118.098 403.215 119.917 401.781L121.128 403.417ZM170.126 100.147L168.466 101.288C167.199 99.3255 165.878 97.3486 164.538 95.4126L166.161 94.2168C167.513 96.1714 168.847 98.166 170.126 100.147ZM109.767 411.791C107.838 413.12 105.863 414.433 103.9 415.693L102.847 413.946C104.793 412.698 106.749 411.397 108.66 410.08L109.767 411.791ZM162.014 88.4198L160.429 89.6675C159.036 87.7835 157.595 85.8974 156.144 84.0599L157.69 82.7606C159.154 84.6145 160.609 86.5188 162.014 88.4198ZM97.9172 419.4C95.9085 420.6 93.8578 421.78 91.824 422.906L90.8806 421.094C92.8961 419.977 94.9276 418.808 96.9186 417.619L97.9172 419.4ZM153.193 77.2474L151.688 78.5971C150.176 76.8026 148.62 75.0143 147.064 73.2812L148.526 71.8824C150.097 73.6311 151.668 75.4364 153.193 77.2474ZM85.6272 426.211C83.5525 427.274 81.4347 428.317 79.3324 429.309L78.5026 427.439C80.5861 426.455 82.6843 425.423 84.7406 424.369L85.6272 426.211ZM143.696 66.6738L142.278 68.1197C140.664 66.4349 139 64.7522 137.331 63.1174L138.705 61.6253C140.388 63.275 142.067 64.9734 143.696 66.6738ZM72.9477 432.197C70.8167 433.12 68.64 434.021 66.4774 434.874L65.7652 432.952C67.9074 432.107 70.0648 431.215 72.1767 430.301L72.9477 432.197ZM133.557 56.7439L132.231 58.281C130.516 56.7051 128.749 55.1351 126.982 53.6145L128.259 52.0346C130.043 53.5687 131.825 55.1536 133.557 56.7439ZM59.9287 437.333C57.7401 438.115 55.513 438.87 53.3084 439.576L52.7173 437.61C54.9012 436.911 57.1078 436.164 59.2769 435.389L59.9287 437.333ZM122.818 47.5014L121.591 49.1235C119.78 47.664 117.919 46.2136 116.06 44.8128L117.235 43.1515C119.112 44.5652 120.99 46.0288 122.818 47.5014ZM46.6253 441.596C44.4007 442.229 42.133 442.834 39.8839 443.395L39.4152 441.395C41.6438 440.839 43.8917 440.24 46.0951 439.613L46.6253 441.596ZM111.518 38.9885L110.395 40.6881C108.489 39.3471 106.54 38.023 104.603 36.7529L105.672 35.0165C107.627 36.2986 109.594 37.6351 111.518 38.9885ZM33.0929 444.968C30.8267 445.453 28.5193 445.908 26.2347 446.319L25.8924 444.292C28.1562 443.885 30.4424 443.435 32.6874 442.953L33.0929 444.968ZM99.7027 31.2402L98.6886 33.0116C96.7015 31.7997 94.6725 30.608 92.6578 29.4688L93.6163 27.6643C95.6494 28.8143 97.6972 30.0171 99.7027 31.2402ZM19.3377 447.44C17.0435 447.774 14.7121 448.074 12.4095 448.332L12.1943 446.286C14.4765 446.031 16.7859 445.734 19.0589 445.403L19.3377 447.44ZM87.4411 24.3043L86.5394 26.1397C84.4907 25.0685 82.3976 24.0175 80.3189 23.0161L81.1623 21.1522C83.2602 22.1623 85.3729 23.2232 87.4411 24.3043ZM5.45688 448.991C3.14828 449.171 0.803299 449.315 -1.5125 449.419L-1.59929 447.363C0.695312 447.26 3.01874 447.118 5.30614 446.939L5.45688 448.991ZM74.7896 18.2114L74.0046 20.1025C71.8904 19.1683 69.7361 18.2593 67.6023 17.4002L68.3273 15.4831C70.4811 16.3509 72.6554 17.2686 74.7896 18.2114ZM-8.49149 449.615C-10.8117 449.641 -13.1603 449.629 -15.4729 449.579L-15.4305 447.522C-13.1395 447.572 -10.8121 447.584 -8.51346 447.558L-8.49149 449.615ZM61.7838 12.971L61.118 14.9104C58.9606 14.1223 56.7543 13.3581 54.5609 12.6385L55.1651 10.6772C57.3789 11.4039 59.6056 12.1759 61.7838 12.971ZM-22.4494 449.31C-24.7652 449.183 -27.1086 449.015 -29.414 448.813L-29.2445 446.762C-26.9599 446.964 -24.6384 447.13 -22.3434 447.256L-22.4494 449.31ZM48.4805 8.6046L47.9362 10.5844C45.7352 9.94028 43.4862 9.32258 41.2516 8.7482L41.7335 6.75149C43.9893 7.33123 46.2591 7.95471 48.4805 8.6046ZM-36.359 448.086C-38.6616 447.807 -40.9902 447.486 -43.2792 447.132L-42.9837 445.097C-40.7155 445.448 -38.4089 445.766 -36.1263 446.042L-36.359 448.086ZM34.934 5.12119L34.5137 7.13235C32.2731 6.63348 29.9905 6.16391 27.7295 5.73684L27.3404 5.66339L27.6995 3.63944L28.0886 3.71289C30.37 4.14409 32.6734 4.61779 34.934 5.12119ZM-49.8087 443.929L-50.1678 445.952L-50.3629 445.916C-52.5792 445.497 -54.8166 445.038 -57.0141 444.551L-56.5954 442.539C-54.4179 443.022 -52.2001 443.477 -50.0043 443.892L-49.8087 443.929ZM20.5154 4.50184C18.2419 4.15275 15.9345 3.83668 13.6567 3.5627L13.8879 1.51895C16.1861 1.79582 18.5147 2.11478 20.8089 2.46675L20.5154 4.50184ZM-63.3344 440.93L-63.8147 442.927C-66.0657 442.35 -68.3359 441.729 -70.5625 441.08L-70.0206 439.1C-67.8144 439.743 -65.565 440.358 -63.3344 440.93ZM6.77495 2.84761C4.48553 2.64872 2.16377 2.4845 -0.126434 2.36112L-0.0220642 0.306644C2.28893 0.43167 4.63193 0.597134 6.94252 0.798084L6.77495 2.84761ZM-76.6473 437.052L-77.2504 439.013C-79.4602 438.29 -81.6876 437.52 -83.8706 436.726L-83.2072 434.786C-81.0442 435.573 -78.8375 436.335 -76.6473 437.052ZM-7.03865 2.10282C-9.33525 2.05454 -11.6622 2.04505 -13.956 2.07352L-13.9801 0.0161534C-11.6651 -0.0127306 -9.31607 -0.0028275 -6.99828 0.04545L-7.03865 2.10282ZM-89.6923 432.303L-90.4157 434.22C-92.5668 433.356 -94.7418 432.441 -96.88 431.499L-96.0975 429.606C-93.9788 430.54 -91.8237 431.447 -89.6923 432.303ZM-20.871 2.27323C-23.166 2.37845 -25.4891 2.52328 -27.7761 2.70402L-27.928 0.652014C-25.6202 0.470045 -23.2756 0.323562 -20.9594 0.217929L-20.871 2.27323ZM-102.414 426.698L-103.256 428.563C-105.353 427.555 -107.466 426.496 -109.537 425.416L-108.637 423.581C-106.586 424.651 -104.492 425.699 -102.414 426.698ZM-34.6639 3.36463C-36.9473 3.62211 -39.2567 3.92127 -41.5273 4.25426L-41.8076 2.2167C-39.5154 1.88123 -37.1848 1.57878 -34.8802 1.31882L-34.6639 3.36463ZM-114.76 420.258L-115.716 422.063C-117.759 420.91 -119.808 419.709 -121.806 418.493L-120.793 416.721C-118.814 417.926 -116.784 419.116 -114.76 420.258ZM-48.3591 5.37125C-50.6225 5.78057 -52.9083 6.23282 -55.1529 6.71642L-55.56 4.70196C-53.2946 4.21424 -50.9876 3.75787 -48.703 3.34442L-48.3591 5.37125ZM-126.711 412.985L-127.779 414.723C-129.733 413.444 -131.702 412.109 -133.628 410.757L-132.507 409.056C-130.598 410.396 -128.648 411.718 -126.711 412.985ZM-61.8808 8.2811C-64.107 8.83815 -66.3536 9.43935 -68.5586 10.069L-69.0901 8.08634C-66.8647 7.45131 -64.5973 6.84392 -62.3503 6.28192L-61.8808 8.2811ZM-138.174 404.936L-139.349 406.598C-141.225 405.188 -143.105 403.726 -144.935 402.253L-143.709 400.63C-141.895 402.089 -140.033 403.538 -138.174 404.936ZM-75.1793 12.0781C-77.3727 12.7841 -79.5789 13.5339 -81.736 14.3059L-82.3898 12.3624C-80.2124 11.583 -77.9862 10.8262 -75.7727 10.1144L-75.1793 12.0781ZM-149.106 396.145L-150.381 397.726C-152.163 396.195 -153.947 394.612 -155.682 393.021L-154.358 391.483C-152.638 393.059 -150.871 394.628 -149.106 396.145ZM-88.2227 16.7487C-90.3642 17.5958 -92.52 18.4904 -94.6314 19.4064L-95.4044 17.51C-93.2734 16.5853 -91.0975 15.6828 -88.9365 14.8279L-88.2227 16.7487ZM-159.463 386.651L-160.834 388.144C-162.522 386.494 -164.202 384.798 -165.83 383.101L-164.413 381.654C-162.8 383.335 -161.134 385.016 -159.463 386.651ZM-100.957 22.2738C-103.041 23.2608 -105.139 24.2956 -107.191 25.3499L-108.079 23.5079C-106.008 22.4438 -103.891 21.3994 -101.788 20.4037L-100.957 22.2738ZM-169.205 376.496L-170.666 377.896C-172.243 376.144 -173.815 374.34 -175.337 372.536L-173.834 371.185C-172.325 372.973 -170.768 374.76 -169.205 376.496ZM-113.328 28.6295C-115.344 29.7489 -117.374 30.9204 -119.363 32.1104L-120.363 30.3303C-118.356 29.1296 -116.307 27.9478 -114.273 26.818L-113.328 28.6295ZM-178.295 365.725L-179.84 367.026C-181.308 365.169 -182.764 363.267 -184.168 361.371L-182.584 360.122C-181.193 362 -179.75 363.885 -178.295 365.725ZM-125.288 35.7886C-127.24 37.0446 -129.194 38.3473 -131.098 39.6607L-132.206 37.9499C-130.285 36.625 -128.313 35.3103 -126.344 34.0427L-125.288 35.7886ZM-186.698 354.382L-188.32 355.579C-189.671 353.63 -191.007 351.636 -192.29 349.653L-190.632 348.511C-189.36 350.476 -188.037 352.451 -186.698 354.382ZM-136.786 43.7218C-138.66 45.1066 -140.531 46.5359 -142.348 47.9698L-143.559 46.3358C-141.726 44.8887 -139.838 43.4465 -137.947 42.0494L-136.786 43.7218ZM-194.381 342.514L-196.074 343.601C-197.297 341.576 -198.506 339.499 -199.668 337.43L-197.943 336.398C-196.792 338.449 -195.593 340.507 -194.381 342.514ZM-147.776 52.3985C-149.557 53.9005 -151.337 55.4499 -153.066 57.0043L-154.376 55.4536C-152.631 53.8844 -150.835 52.3205 -149.038 50.805L-147.776 52.3985ZM-201.314 330.17L-203.07 331.144C-204.168 329.038 -205.247 326.886 -206.275 324.751L-204.49 323.836C-203.471 325.951 -202.402 328.082 -201.314 330.17ZM-158.211 61.7817C-159.896 63.3984 -161.577 65.0625 -163.207 66.7291L-164.61 65.268C-162.965 63.5861 -161.269 61.9063 -159.568 60.2752L-158.211 61.7817ZM-207.468 317.401L-209.281 318.258C-210.247 316.081 -211.19 313.864 -212.083 311.67L-210.244 310.874C-209.36 313.048 -208.426 315.244 -207.468 317.401ZM-168.047 71.8391C-169.629 73.5639 -171.204 75.3365 -172.728 77.108L-174.219 75.7426C-172.681 73.9542 -171.091 72.1655 -169.495 70.425L-168.047 71.8391ZM-212.817 304.26L-214.679 304.996C-215.508 302.763 -216.311 300.489 -217.066 298.239L-215.182 297.566C-214.434 299.795 -213.638 302.047 -212.817 304.26ZM-177.244 82.5307C-178.714 84.3545 -180.176 86.2283 -181.589 88.1008L-183.162 86.8365C-181.736 84.9471 -180.261 83.0556 -178.777 81.2149L-177.244 82.5307ZM-217.338 290.799L-219.242 291.41C-219.93 289.128 -220.59 286.809 -221.204 284.514L-219.282 283.966C-218.673 286.24 -218.02 288.538 -217.338 290.799ZM-185.758 93.8145C-187.114 95.7348 -188.456 97.7035 -189.749 99.6651L-191.398 98.5081C-190.093 96.5287 -188.738 94.5423 -187.37 92.6034L-185.758 93.8145ZM-221.011 277.076L-222.95 277.559C-223.492 275.246 -224.006 272.888 -224.477 270.552L-222.525 270.133C-222.058 272.448 -221.549 274.783 -221.011 277.076ZM-193.554 105.647C-194.786 107.653 -196.003 109.708 -197.171 111.755L-198.889 110.71C-197.71 108.645 -196.482 106.571 -195.238 104.546L-193.554 105.647ZM-223.825 263.122L-225.79 263.476C-226.188 261.123 -226.555 258.728 -226.88 256.36L-224.905 256.071C-224.584 258.418 -224.22 260.79 -223.825 263.122ZM-200.597 117.981C-201.698 120.062 -202.781 122.188 -203.815 124.3L-205.595 123.372C-204.551 121.241 -203.458 119.095 -202.347 116.995L-200.597 117.981ZM-225.764 248.989L-227.746 249.212C-227.997 246.835 -228.213 244.422 -228.389 242.038L-226.401 241.881C-226.227 244.244 -226.012 246.635 -225.764 248.989ZM-206.833 130.722C-207.8 132.867 -208.747 135.061 -209.649 137.242L-211.483 136.434C-210.573 134.233 -209.617 132.019 -208.641 129.854L-206.833 130.722ZM-226.815 234.757L-228.807 234.847C-228.908 232.464 -228.973 230.041 -229 227.646L-227.006 227.622C-226.98 229.996 -226.915 232.396 -226.815 234.757ZM-212.259 143.852C-213.091 146.061 -213.9 148.313 -214.662 150.545L-216.542 149.862C-215.773 147.609 -214.957 145.336 -214.117 143.107L-212.259 143.852ZM-226.975 220.485L-228.968 220.443C-228.92 218.054 -228.834 215.633 -228.712 213.244L-226.721 213.353C-226.842 215.719 -226.927 218.119 -226.975 220.485ZM-216.856 157.315C-217.547 159.568 -218.214 161.869 -218.838 164.153L-220.757 163.596C-220.127 161.29 -219.454 158.969 -218.756 156.694L-216.856 157.315ZM-226.246 206.232L-228.232 206.058C-228.037 203.681 -227.801 201.269 -227.531 198.89L-225.55 199.13C-225.818 201.487 -226.052 203.877 -226.246 206.232ZM-220.607 171.053C-221.159 173.352 -221.683 175.692 -222.164 178.008L-224.114 177.577C-223.628 175.239 -223.1 172.878 -222.543 170.559L-220.607 171.053ZM-224.637 192.053L-226.609 191.749C-226.268 189.391 -225.884 187 -225.469 184.643L-223.507 185.011C-223.919 187.347 -224.298 189.716 -224.637 192.053Z" fill="#D5D5D5" fill-opacity="0.33"/>
<path opacity="0.23" d="M197.502 264.224C192.346 293.287 181.828 320.438 166.24 344.925C151.183 368.576 132.055 388.757 109.386 404.909C86.7179 421.06 61.6516 432.368 34.883 438.519C7.16902 444.886 -21.1648 445.417 -49.3307 440.097C-77.4965 434.777 -103.81 423.924 -127.541 407.839C-150.463 392.303 -170.021 372.566 -185.675 349.176C-201.328 325.786 -212.287 299.921 -218.247 272.3C-224.419 243.704 -224.933 214.468 -219.777 185.405C-214.621 156.343 -204.103 129.191 -188.514 104.705C-173.458 81.0536 -154.33 60.8723 -131.661 44.7204C-108.993 28.5689 -83.9264 17.2608 -57.1578 11.1105C-29.4434 4.74286 -1.11002 4.21222 27.0558 9.53224C55.2217 14.8523 81.5356 25.7056 105.266 41.7907C128.187 57.3266 147.746 77.0639 163.4 100.454C179.053 123.844 190.012 149.709 195.972 177.33C202.144 205.926 202.658 235.162 197.502 264.224ZM-218.306 185.683C-239.217 303.554 -163.295 417.002 -49.0615 438.579C65.1719 460.156 175.12 381.817 196.031 263.946C216.942 146.076 141.02 32.6271 26.7871 11.0499C-87.4463 -10.5273 -197.394 67.8127 -218.306 185.683Z" fill="#D5D5D5" fill-opacity="0.33"/>
<path opacity="0.25" d="M116.303 334.614C100.302 354.35 79.8152 370.388 57.0559 380.993L56.2354 379.118C78.7219 368.639 98.9646 352.793 114.773 333.293L116.303 334.614Z" fill="#D5D5D5" fill-opacity="0.33"/>
<path opacity="0.15" d="M154.672 233.351L152.68 233.245C154.427 198.011 145.578 163.604 127.091 133.743L128.771 132.636C147.483 162.859 156.439 197.686 154.672 233.351Z" fill="#D5D5D5" fill-opacity="0.33"/>
<path opacity="0.15" d="M128.771 132.636L127.091 133.743C113.422 111.667 94.7413 92.9257 73.0662 79.5442L74.0899 77.7786C96.0294 91.3227 114.938 110.292 128.771 132.636Z" fill="#D5D5D5" fill-opacity="0.33"/>
<path opacity="0.22" d="M0.177444 55.978C-34.9846 53.4242 -69.3472 62.4398 -99.1954 82.0512L-100.266 80.3161C-70.0554 60.4662 -35.2741 51.3405 0.317009 53.9264L0.177444 55.978Z" fill="#D5D5D5" fill-opacity="0.33"/>
<g opacity="0.15">
<path opacity="0.15" d="M63.6033 352.197C33.41 371.074 -2.36235 377.854 -37.1233 371.288L-33.9817 353.58C-3.42324 359.352 28.0221 353.393 54.5624 336.8L63.6033 352.197Z" fill="#D5D5D5" fill-opacity="0.33"/>
<path opacity="0.15" d="M130.816 251.628L113.654 248.386C119.667 214.494 112.687 180.106 94.0017 151.558L108.461 141.482C129.716 173.958 137.656 213.075 130.816 251.628Z" fill="#D5D5D5" fill-opacity="0.33"/>
<path opacity="0.15" d="M108.461 141.482L94.0018 151.558C74.7548 122.151 45.5288 102.438 11.7068 96.0499L14.8484 78.3416C34.2677 82.0094 52.3858 89.5411 68.6987 100.727C84.4522 111.528 97.8299 125.241 108.461 141.482Z" fill="#D5D5D5" fill-opacity="0.33"/>
</g>
<g opacity="0.5">
<path opacity="0.5" d="M151.154 338.009C122.287 382.081 78.5677 412.214 28.0493 422.857L25.5564 410.258C72.8605 400.292 113.799 372.076 140.83 330.809L151.154 338.009Z" fill="#D5D5D5" fill-opacity="0.33"/>
<path opacity="0.5" d="M181.623 261.1C181.351 262.633 181.062 264.163 180.755 265.693C175.552 291.635 165.594 315.965 151.155 338.009L140.83 330.808C168.671 288.302 178.528 237.212 168.584 186.953L180.794 184.38C185.85 209.932 186.126 235.718 181.623 261.1Z" fill="#D5D5D5" fill-opacity="0.33"/>
<path opacity="0.5" d="M106.802 63.4239L99.3022 73.6942C57.2924 41.0335 3.66395 28.5234 -47.8314 39.3718C-48.4917 39.5113 -49.1531 39.654 -49.8129 39.8009L-52.437 27.2302C-51.736 27.0742 -51.0326 26.9228 -50.3276 26.7734C-22.3221 20.8732 5.87739 21.271 33.4906 27.954C60.168 34.4104 84.8332 46.3444 106.802 63.4239Z" fill="#D5D5D5" fill-opacity="0.33"/>
</g>
</g>
<path opacity="0.15" d="M-11.1371 338.288C-40.5114 338.288 -68.1278 326.484 -88.8984 305.052C-109.669 283.62 -121.108 255.124 -121.108 224.815C-121.108 194.505 -109.669 166.009 -88.8984 144.577C-68.1278 123.145 -40.5114 111.342 -11.1371 111.342C18.2373 111.342 45.8537 123.145 66.6243 144.577C87.3952 166.009 98.8343 194.505 98.8343 224.815C98.8343 255.124 87.3952 283.62 66.6243 305.052C45.8537 326.484 18.2373 338.288 -11.1371 338.288ZM-11.1371 113.818C-70.4524 113.818 -118.709 163.611 -118.709 224.815C-118.709 286.019 -70.4524 335.812 -11.1371 335.812C48.1783 335.812 96.4349 286.019 96.4349 224.815C96.4349 163.611 48.1783 113.818 -11.1371 113.818Z" fill="#D5D5D5" fill-opacity="0.33"/>
<path opacity="0.15" d="M-11.0586 365.108H-11.137C-14.3858 365.108 -17.6701 364.989 -20.8976 364.753L-20.3886 357.344C-17.3298 357.568 -14.2166 357.681 -11.137 357.681H-11.0586V365.108ZM0.422775 364.608L-0.181854 357.207C2.90854 356.939 6.0249 356.55 9.08131 356.053L10.2023 363.389C6.97549 363.915 3.68472 364.325 0.422775 364.608ZM-32.3163 363.416C-35.5515 362.893 -38.8058 362.242 -41.989 361.481L-40.3622 354.245C-37.3486 354.967 -34.2674 355.583 -31.2038 356.078L-32.3163 363.416ZM21.4705 361.047L19.7489 353.835C22.7581 353.07 25.7766 352.182 28.7206 351.195L30.946 358.258C27.8368 359.301 24.6485 360.239 21.4705 361.047ZM-53.0665 358.31C-56.1804 357.269 -59.2988 356.095 -62.3348 354.821L-59.624 347.941C-56.7495 349.147 -53.7967 350.258 -50.8487 351.243L-53.0665 358.31ZM41.7104 354.116L38.9104 347.273C41.7572 346.033 44.6005 344.667 47.3598 343.212L50.6341 349.826C47.7201 351.363 44.7176 352.806 41.7104 354.116ZM-72.795 349.886C-75.7122 348.352 -78.6114 346.688 -81.4119 344.94L-77.6857 338.585C-75.034 340.241 -72.289 341.816 -69.5266 343.269L-72.795 349.886ZM60.6363 343.99L56.8316 337.686C59.457 335.999 62.0591 334.188 64.5665 332.305L68.8029 338.31C66.1564 340.298 63.4088 342.209 60.6363 343.99ZM-90.9886 338.377C-93.6343 336.393 -96.2448 334.283 -98.7462 332.105L-94.1054 326.428C-91.7356 328.49 -89.2634 330.489 -86.7569 332.368L-90.9886 338.377ZM77.8018 330.934L73.0907 325.318C75.4336 323.225 77.7322 321.018 79.9229 318.757L85.0131 324.009C82.7009 326.395 80.2752 328.724 77.8018 330.934ZM-107.213 324.085C-109.528 321.7 -111.787 319.198 -113.929 316.648L-108.489 311.784C-106.46 314.2 -104.319 316.57 -102.127 318.83L-107.213 324.085ZM92.7907 315.277L87.2913 310.485C89.2924 308.04 91.2311 305.489 93.053 302.906L98.8735 307.276C96.9496 310.004 94.9033 312.696 92.7907 315.277ZM-121.083 307.367C-123.009 304.64 -124.863 301.806 -126.593 298.944L-120.485 295.015C-118.847 297.725 -117.091 300.409 -115.266 302.992L-121.083 307.367ZM105.239 297.397L99.083 293.549C100.689 290.815 102.217 287.983 103.627 285.133L110.038 288.51C108.55 291.52 106.935 294.51 105.239 297.397ZM-132.254 288.627C-133.744 285.624 -135.144 282.527 -136.417 279.421L-129.787 276.528C-128.582 279.467 -127.256 282.4 -125.846 285.243L-132.254 288.627ZM114.827 277.719L108.161 274.916C109.331 271.955 110.409 268.909 111.367 265.865L118.214 268.158C117.202 271.374 116.063 274.591 114.827 277.719ZM-140.437 268.316C-141.451 265.108 -142.362 261.819 -143.146 258.54L-136.157 256.761C-135.415 259.864 -134.552 262.978 -133.593 266.016L-140.437 268.316ZM121.293 256.729L114.283 255.046C114.984 251.936 115.583 248.756 116.064 245.598L123.175 246.75C122.667 250.086 122.034 253.443 121.293 256.729ZM-145.424 246.915C-145.933 243.591 -146.333 240.197 -146.61 236.825L-139.438 236.197C-139.175 239.39 -138.797 242.606 -138.313 245.754L-145.424 246.915ZM124.476 234.969L117.297 234.438C117.518 231.257 117.629 228.019 117.629 224.815L117.629 224.506L124.827 224.479L124.828 224.815C124.828 228.195 124.71 231.612 124.476 234.969ZM-139.903 224.976H-147.101L-147.102 224.843C-147.102 221.486 -146.987 218.126 -146.762 214.825L-139.582 215.348C-139.795 218.475 -139.903 221.66 -139.903 224.815L-139.903 224.976ZM117.151 213.277C116.885 210.088 116.503 206.872 116.016 203.721L123.124 202.552C123.638 205.879 124.042 209.273 124.323 212.64L117.151 213.277ZM-138.362 204.187L-145.474 203.043C-144.97 199.704 -144.341 196.346 -143.604 193.061L-136.591 194.736C-137.289 197.845 -137.884 201.025 -138.362 204.187ZM113.848 192.718C113.101 189.611 112.234 186.498 111.273 183.466L118.114 181.156C119.129 184.36 120.044 187.648 120.834 190.928L113.848 192.718ZM-133.688 183.914L-140.537 181.629C-139.529 178.413 -138.394 175.194 -137.162 172.063L-130.492 174.857C-131.659 177.821 -132.734 180.868 -133.688 183.914ZM107.454 172.958C106.246 170.02 104.916 167.089 103.503 164.247L109.908 160.856C111.4 163.858 112.804 166.953 114.081 170.056L107.454 172.958ZM-125.97 164.636L-132.385 161.267C-130.901 158.259 -129.29 155.267 -127.596 152.374L-121.435 156.214C-123.039 158.953 -124.565 161.787 -125.97 164.636ZM98.1297 154.482C96.491 151.777 94.7322 149.095 92.9027 146.511L98.7143 142.129C100.646 144.858 102.503 147.689 104.234 150.546L98.1297 154.482ZM-115.417 146.851L-121.242 142.488C-119.32 139.756 -117.276 137.062 -115.168 134.48L-109.663 139.265C-111.66 141.71 -113.596 144.263 -115.417 146.851ZM86.1152 137.728C84.0834 135.314 81.9403 132.946 79.7453 130.69L84.826 125.428C87.1426 127.809 89.4044 130.309 91.5494 132.857L86.1152 137.728ZM-102.304 130.983L-107.4 125.738C-105.091 123.349 -102.667 121.016 -100.196 118.804L-95.4794 124.415C-97.82 126.51 -100.116 128.72 -102.304 130.983ZM71.7158 123.101C69.3428 121.042 66.8683 119.046 64.3601 117.169L68.5846 111.156C71.2327 113.137 73.8448 115.244 76.3494 117.418L71.7158 123.101ZM-86.9632 117.417L-91.2065 111.417C-88.5644 109.427 -85.8188 107.513 -83.0467 105.727L-79.2344 112.027C-81.8602 113.719 -84.4607 115.532 -86.9632 117.417ZM55.2821 110.964C52.6248 109.31 49.8779 107.737 47.1174 106.29L50.3782 99.6682C53.2938 101.197 56.1947 102.857 59.0007 104.604L55.2821 110.964ZM-69.7681 106.489L-73.0508 99.8786C-70.14 98.3395 -67.1392 96.8928 -64.1312 95.5786L-61.3239 102.418C-64.1712 103.662 -67.0124 105.032 -69.7681 106.489ZM37.2076 101.629C34.3351 100.427 31.3819 99.3199 28.4299 98.3374L30.6393 91.2687C33.7581 92.3069 36.8781 93.4767 39.9121 94.7459L37.2076 101.629ZM-51.1386 98.4831L-53.3724 91.4226C-50.262 90.3745 -47.0748 89.4325 -43.8997 88.6217L-42.1713 95.832C-45.1769 96.599 -48.1938 97.4912 -51.1386 98.4831ZM17.9398 95.3492C14.9262 94.6312 11.8442 94.0185 8.77983 93.5274L9.88432 86.188C13.1207 86.7067 16.3754 87.3537 19.559 88.1121L17.9398 95.3492ZM-31.5049 93.6009L-32.6342 86.2656C-29.4098 85.737 -26.1195 85.3231 -22.856 85.0355L-22.2437 92.436C-25.3349 92.7084 -28.4509 93.1004 -31.5049 93.6009ZM-2.03737 92.2751C-5.04459 92.0585 -8.10579 91.9483 -11.137 91.9483L-11.3621 91.9487L-11.3802 84.5214L-11.1458 84.521C-7.93903 84.521 -4.70866 84.6369 -1.53589 84.8655L-2.03737 92.2751Z" fill="#D5D5D5" fill-opacity="0.33"/>
<path opacity="0.23" d="M-11.0562 405.133L-11.0571 403.483C-9.20836 403.481 -7.34123 403.45 -5.50691 403.39L-5.45615 405.039C-7.30685 405.101 -9.19073 405.132 -11.0562 405.133ZM-16.6556 405.045C-18.5155 404.985 -20.3974 404.895 -22.2493 404.775L-22.1494 403.127C-20.3142 403.246 -18.4491 403.337 -16.606 403.395L-16.6556 405.045ZM0.138016 404.764L0.0364227 403.117C1.88034 402.996 3.7419 402.843 5.56862 402.662L5.72098 404.305C3.87746 404.487 1.99953 404.642 0.138016 404.764ZM-27.8327 404.321C-29.685 404.14 -31.5577 403.925 -33.3996 403.684L-33.1973 402.046C-31.3726 402.286 -29.5171 402.498 -27.6819 402.677L-27.8327 404.321ZM11.2867 403.662L11.0835 402.025C12.9075 401.784 14.7554 401.509 16.5757 401.207L16.8297 402.836C14.9929 403.141 13.1278 403.419 11.2867 403.662ZM-38.9426 402.863C-40.7837 402.56 -42.6396 402.221 -44.4588 401.859L-44.1548 400.238C-42.3529 400.598 -40.5142 400.933 -38.6902 401.233L-38.9426 402.863ZM22.3446 401.827L22.0399 400.207C23.8499 399.844 25.677 399.446 27.4693 399.025L27.8248 400.635C26.0153 401.06 24.1718 401.461 22.3446 401.827ZM-49.9402 400.672C-51.7585 400.246 -53.5892 399.785 -55.3815 399.304L-54.9776 397.706C-53.2017 398.184 -51.3874 398.641 -49.5862 399.063L-49.9402 400.672ZM33.2646 399.261L32.8591 397.665C34.6462 397.181 36.4446 396.663 38.2037 396.125L38.6592 397.707C36.8832 398.251 35.0681 398.774 33.2646 399.261ZM-60.7777 397.754C-62.5629 397.209 -64.3612 396.628 -66.1223 396.026L-65.6192 394.459C-63.8745 395.056 -62.093 395.632 -60.3238 396.172L-60.7777 397.754ZM44.0022 395.974L43.4975 394.407C45.2427 393.809 47.005 393.172 48.7357 392.514L49.2888 394.063C47.5417 394.727 45.763 395.37 44.0022 395.974ZM-71.4273 394.114C-73.1753 393.451 -74.9384 392.749 -76.6672 392.026L-76.0673 390.497C-74.3546 391.212 -72.6078 391.908 -70.8755 392.565L-71.4273 394.114ZM54.5123 391.977L53.9108 390.448C55.6144 389.734 57.3279 388.984 59.0035 388.217L59.6517 389.726C57.9609 390.5 56.2318 391.257 54.5123 391.977ZM-81.8362 389.767C-83.543 388.987 -85.2573 388.169 -86.9313 387.336L-86.2371 385.849C-84.5779 386.674 -82.8796 387.485 -81.1888 388.257L-81.8362 389.767ZM64.7216 387.305L64.0258 385.818C65.6837 384.992 67.3481 384.129 68.9725 383.253L69.7139 384.715C68.0739 385.6 66.3943 386.471 64.7216 387.305ZM-91.9476 384.737C-93.5979 383.847 -95.2563 382.918 -96.8775 381.974L-96.0917 380.536C-94.4853 381.472 -92.8417 382.393 -91.2062 383.275L-91.9476 384.737ZM74.6242 381.963L73.8384 380.525C75.4356 379.595 77.044 378.623 78.618 377.637L79.4482 379.048C77.8598 380.043 76.2366 381.024 74.6242 381.963ZM-101.719 379.05C-103.309 378.053 -104.906 377.015 -106.465 375.966L-105.591 374.584C-104.046 375.623 -102.464 376.651 -100.888 377.638L-101.719 379.05ZM84.1813 375.974L83.3072 374.591C84.8488 373.553 86.3943 372.477 87.9007 371.391L88.8169 372.744C87.2965 373.841 85.7369 374.927 84.1813 375.974ZM-111.111 372.73C-112.633 371.633 -114.161 370.493 -115.655 369.342L-114.697 368.019C-113.217 369.161 -111.702 370.29 -110.195 371.377L-111.111 372.73ZM93.3521 369.364L92.3944 368.042C93.8748 366.901 95.3512 365.724 96.7828 364.545L97.781 365.835C96.3362 367.025 94.8458 368.212 93.3521 369.364ZM-120.089 365.806C-121.54 364.61 -122.995 363.372 -124.412 362.127L-123.375 360.87C-121.97 362.105 -120.529 363.331 -119.091 364.516L-120.089 365.806ZM102.099 362.162L101.062 360.905C102.457 359.679 103.859 358.408 105.228 357.125L106.303 358.347C104.922 359.642 103.507 360.925 102.099 362.162ZM-128.618 358.308C-129.989 357.023 -131.363 355.692 -132.703 354.354L-131.59 353.168C-130.263 354.495 -128.901 355.813 -127.542 357.087L-128.618 358.308ZM110.388 354.396L109.276 353.209C110.593 351.895 111.914 350.533 113.201 349.162L114.35 350.31C113.05 351.694 111.717 353.068 110.388 354.396ZM-136.663 350.268C-137.958 348.889 -139.247 347.471 -140.495 346.054L-139.31 344.945C-138.074 346.348 -136.797 347.753 -135.514 349.12L-136.663 350.268ZM118.184 346.098L117.001 344.987C118.24 343.581 119.475 342.135 120.67 340.688L121.887 341.76C120.681 343.218 119.435 344.678 118.184 346.098ZM-144.194 341.718C-145.402 340.256 -146.6 338.757 -147.755 337.264L-146.506 336.234C-145.36 337.713 -144.173 339.199 -142.976 340.648L-144.194 341.718ZM125.454 337.301L124.204 336.27C125.358 334.78 126.501 333.255 127.602 331.737L128.883 332.726C127.772 334.258 126.619 335.797 125.454 337.301ZM-151.178 332.695C-152.291 331.16 -153.394 329.586 -154.456 328.017L-153.146 327.072C-152.092 328.626 -151 330.185 -149.897 331.707L-151.178 332.695ZM132.168 328.04L130.858 327.094C131.913 325.538 132.959 323.939 133.968 322.344L135.308 323.247C134.289 324.856 133.233 326.469 132.168 328.04ZM-157.588 323.236C-158.601 321.634 -159.604 319.992 -160.569 318.354L-159.202 317.497C-158.246 319.119 -157.253 320.746 -156.248 322.334L-157.588 323.236ZM138.298 318.351L136.931 317.494C137.888 315.869 138.833 314.204 139.741 312.546L141.134 313.358C140.218 315.031 139.264 316.711 138.298 318.351ZM-163.396 313.378C-164.31 311.709 -165.209 310.004 -166.067 308.311L-164.65 307.546C-163.8 309.223 -162.909 310.912 -162.004 312.567L-163.396 313.378ZM143.815 308.271L142.397 307.507C143.252 305.822 144.092 304.096 144.895 302.38L146.335 303.098C145.525 304.83 144.677 306.571 143.815 308.271ZM-168.578 303.161C-169.383 301.442 -170.174 299.682 -170.927 297.932L-169.465 297.262C-168.719 298.996 -167.936 300.74 -167.138 302.443L-168.578 303.161ZM148.693 297.841L147.23 297.172C147.981 295.426 148.712 293.648 149.404 291.887L150.886 292.507C150.187 294.284 149.45 296.079 148.693 297.841ZM-173.111 292.63C-173.809 290.855 -174.49 289.042 -175.135 287.241L-173.634 286.67C-172.996 288.454 -172.321 290.25 -171.628 292.009L-173.111 292.63ZM152.911 287.102L151.41 286.532C152.05 284.738 152.668 282.914 153.249 281.109L154.767 281.629C154.181 283.451 153.557 285.292 152.911 287.102ZM-176.989 281.787C-177.576 279.967 -178.142 278.112 -178.671 276.275L-177.138 275.804C-176.613 277.625 -176.052 279.463 -175.471 281.265L-176.989 281.787ZM156.445 276.116L154.91 275.647C155.434 273.824 155.935 271.968 156.401 270.131L157.948 270.548C157.478 272.402 156.972 274.275 156.445 276.116ZM-180.18 270.709C-180.652 268.856 -181.1 266.967 -181.515 265.096L-179.955 264.728C-179.545 266.582 -179.1 268.453 -178.633 270.29L-180.18 270.709ZM159.277 264.935L157.717 264.569C158.126 262.712 158.51 260.827 158.859 258.965L160.429 259.279C160.077 261.158 159.689 263.06 159.277 264.935ZM-182.672 259.442C-183.027 257.557 -183.357 255.642 -183.652 253.752L-182.073 253.489C-181.781 255.362 -181.453 257.259 -181.102 259.127L-182.672 259.442ZM161.405 253.587L159.826 253.325C160.117 251.455 160.383 249.548 160.617 247.658L162.204 247.867C161.967 249.775 161.699 251.699 161.405 253.587ZM-184.455 248.033C-184.693 246.129 -184.903 244.196 -185.081 242.29L-183.489 242.132C-183.313 244.021 -183.104 245.936 -182.869 247.822L-184.455 248.033ZM162.823 242.125L161.23 241.968C161.405 240.083 161.553 238.162 161.669 236.26L163.266 236.364C163.148 238.284 162.999 240.222 162.823 242.125ZM-185.528 236.531C-185.648 234.615 -185.738 232.673 -185.798 230.758L-184.2 230.705C-184.14 232.603 -184.05 234.527 -183.932 236.425L-185.528 236.531ZM163.53 230.592L161.931 230.54C161.989 228.644 162.018 226.717 162.018 224.814V224.487H163.618V224.814C163.618 226.734 163.588 228.678 163.53 230.592ZM-184.292 224.979H-185.891V224.814C-185.891 222.95 -185.863 221.061 -185.808 219.202L-184.209 219.252C-184.264 221.095 -184.292 222.966 -184.292 224.814V224.979ZM161.921 218.762C161.859 216.861 161.768 214.936 161.648 213.043L163.244 212.935C163.365 214.847 163.457 216.788 163.519 218.708L161.921 218.762ZM-183.952 213.532L-185.548 213.43C-185.433 211.513 -185.286 209.575 -185.111 207.668L-183.519 207.824C-183.692 209.713 -183.837 211.634 -183.952 213.532ZM161.201 207.335C161.023 205.443 160.812 203.528 160.576 201.646L162.162 201.434C162.401 203.334 162.613 205.266 162.792 207.176L161.201 207.335ZM-182.909 202.132L-184.497 201.925C-184.263 200.021 -183.996 198.096 -183.704 196.204L-182.124 196.464C-182.414 198.339 -182.678 200.246 -182.909 202.132ZM159.775 195.98C159.48 194.104 159.151 192.207 158.799 190.344L160.369 190.027C160.725 191.908 161.057 193.822 161.355 195.716L159.775 195.98ZM-181.162 190.825L-182.733 190.513C-182.383 188.636 -181.997 186.733 -181.586 184.856L-180.025 185.22C-180.433 187.08 -180.816 188.966 -181.162 190.825ZM157.647 184.742C157.235 182.889 156.788 181.018 156.32 179.182L157.867 178.762C158.34 180.615 158.79 182.503 159.206 184.374L157.647 184.742ZM-178.713 179.656L-180.261 179.24C-179.794 177.387 -179.289 175.514 -178.763 173.672L-177.229 174.139C-177.75 175.964 -178.25 177.82 -178.713 179.656ZM154.82 173.669C154.293 171.848 153.73 170.01 153.148 168.21L154.665 167.687C155.253 169.504 155.821 171.359 156.353 173.197L154.82 173.669ZM-175.571 168.674L-177.09 168.156C-176.504 166.326 -175.881 164.484 -175.24 162.682L-173.738 163.251C-174.374 165.036 -174.99 166.861 -175.571 168.674ZM151.307 162.808C150.666 161.024 149.991 159.228 149.297 157.471L150.778 156.848C151.479 158.622 152.161 160.434 152.807 162.235L151.307 162.808ZM-171.736 157.893L-173.22 157.274C-172.524 155.498 -171.788 153.702 -171.031 151.938L-169.569 152.606C-170.318 154.354 -171.047 156.133 -171.736 157.893ZM147.128 152.219C146.381 150.486 145.596 148.744 144.796 147.04L146.236 146.32C147.043 148.041 147.835 149.799 148.59 151.547L147.128 152.219ZM-167.237 147.396L-168.678 146.68C-167.869 144.948 -167.023 143.207 -166.162 141.504L-164.743 142.268C-165.597 143.955 -166.436 145.68 -167.237 147.396ZM142.303 141.939C141.446 140.255 140.555 138.567 139.652 136.922L141.044 136.108C141.955 137.768 142.855 139.472 143.719 141.172L142.303 141.939ZM-162.092 137.225L-163.485 136.415C-162.572 134.743 -161.619 133.062 -160.653 131.419L-159.286 132.275C-160.243 133.904 -161.188 135.569 -162.092 137.225ZM136.848 131.994C135.89 130.372 134.895 128.746 133.89 127.159L135.228 126.256C136.243 127.857 137.248 129.498 138.214 131.134L136.848 131.994ZM-156.328 127.421L-157.668 126.52C-156.65 124.908 -155.595 123.294 -154.533 121.724L-153.222 122.669C-154.274 124.225 -155.319 125.824 -156.328 127.421ZM130.783 122.423C129.727 120.868 128.633 119.31 127.53 117.791L128.81 116.802C129.923 118.335 131.027 119.907 132.092 121.477L130.783 122.423ZM-149.97 118.022L-151.251 117.035C-150.139 115.497 -148.987 113.956 -147.827 112.456L-146.577 113.486C-147.726 114.972 -148.867 116.499 -149.97 118.022ZM124.135 113.268C122.988 111.789 121.798 110.305 120.601 108.858L121.818 107.786C123.026 109.247 124.226 110.744 125.384 112.237L124.135 113.268ZM-143.045 109.065L-144.264 107.995C-143.055 106.531 -141.811 105.07 -140.564 103.653L-139.38 104.763C-140.615 106.166 -141.849 107.614 -143.045 109.065ZM116.932 104.564C115.69 103.157 114.411 101.753 113.132 100.393L114.28 99.2437C115.571 100.616 116.861 102.032 118.115 103.453L116.932 104.564ZM-135.584 100.584L-136.734 99.4364C-135.439 98.0549 -134.107 96.6796 -132.776 95.348L-131.663 96.5331C-132.981 97.8523 -134.301 99.2152 -135.584 100.584ZM109.204 96.3483C107.875 95.0225 106.512 93.7054 105.152 92.4336L106.227 91.211C107.599 92.4943 108.974 93.8234 110.316 95.1611L109.204 96.3483ZM-127.618 92.6136L-128.694 91.3926C-127.322 90.1044 -125.908 88.8198 -124.493 87.5741L-123.455 88.8297C-124.858 90.0639 -126.258 91.3369 -127.618 92.6136ZM100.981 88.6531C99.5753 87.4198 98.1333 86.1943 96.6949 85.0113L97.6914 83.7206C99.1434 84.9143 100.599 86.151 102.017 87.3959L100.981 88.6531ZM-119.18 85.1854L-120.179 83.8964C-118.726 82.6981 -117.237 81.5089 -115.753 80.363L-114.794 81.6847C-116.265 82.8202 -117.74 83.9979 -119.18 85.1854ZM92.298 81.5122C90.8184 80.3737 89.3028 79.2452 87.7928 78.1592L88.7074 76.8053C90.2314 77.9017 91.7609 79.0405 93.2538 80.1897L92.298 81.5122ZM-110.304 78.3304L-111.221 76.9782C-109.695 75.8769 -108.136 74.7892 -106.587 73.7449L-105.712 75.1268C-107.248 76.1612 -108.792 77.239 -110.304 78.3304ZM83.1856 74.9555C81.638 73.9165 80.0548 72.8903 78.48 71.9054L79.3086 70.4938C80.8986 71.4878 82.4962 72.5235 84.0577 73.572L83.1856 74.9555ZM-101.026 72.0766L-101.858 70.6667C-100.269 69.6697 -98.6474 68.6873 -97.0355 67.7469L-96.2481 69.1837C-97.8452 70.1154 -99.4528 71.0888 -101.026 72.0766ZM73.6808 69.012C72.0737 68.0786 70.4297 67.1593 68.7933 66.2792L69.5332 64.8156C71.1843 65.704 72.8435 66.632 74.4659 67.574L73.6808 69.012ZM-91.3853 66.4508L-92.1272 64.9889C-90.482 64.0993 -88.8028 63.227 -87.1369 62.3955L-86.4402 63.8814C-88.0914 64.705 -89.7549 65.5699 -91.3853 66.4508ZM63.8214 63.7093C62.1571 62.8832 60.4575 62.0745 58.7707 61.3058L59.4174 59.796C61.1198 60.5721 62.8345 61.3883 64.5148 62.2222L63.8214 63.7093ZM-81.4207 61.4778L-82.0706 59.9697C-80.3794 59.1939 -78.6506 58.4347 -76.9327 57.7138L-76.3297 59.2426C-78.0324 59.9569 -79.7448 60.7091 -81.4207 61.4778ZM53.6461 59.071C51.9345 58.3579 50.187 57.6639 48.453 57.0078L49.0037 55.458C50.7536 56.1198 52.5172 56.8205 54.2451 57.5401L53.6461 59.071ZM-71.1562 57.1708L-71.7109 55.6226C-69.9689 54.9583 -68.1906 54.3138 -66.4262 53.7068L-65.92 55.2727C-67.6683 55.8743 -69.4299 56.5127 -71.1562 57.1708ZM43.1964 55.1188C41.4461 54.5226 39.6637 53.9482 37.8994 53.4113L38.3517 51.8281C40.1324 52.3699 41.9311 52.9496 43.6978 53.5512L43.1964 55.1188ZM-60.6281 53.5508L-61.0848 51.9688C-59.3037 51.4217 -57.4894 50.8968 -55.6918 50.4095L-55.2848 52.0055C-57.0659 52.4887 -58.8638 53.0086 -60.6281 53.5508ZM32.552 51.8813C30.7716 51.4039 28.9573 50.9496 27.1594 50.5304L27.5117 48.9207C29.3264 49.3432 31.1575 49.8021 32.9543 50.284L32.552 51.8813ZM-49.8957 50.6393L-50.2529 49.0305C-48.4449 48.6038 -46.6014 48.2011 -44.7735 47.8334L-44.4672 49.4534C-46.2783 49.8174 -48.1046 50.2168 -49.8957 50.6393ZM21.7272 49.3602C19.9177 49.0012 18.0785 48.6686 16.2614 48.3703L16.5122 46.7404C18.3465 47.0412 20.2028 47.3771 22.0287 47.7394L21.7272 49.3602ZM-39.0042 48.4478L-39.2597 46.8188C-37.4262 46.5126 -35.5619 46.2328 -33.7176 45.9873L-33.5128 47.6242C-35.3399 47.8673 -37.1879 48.1446 -39.0042 48.4478ZM10.7668 47.5619C8.94331 47.3243 7.0878 47.1138 5.25108 46.9356L5.40027 45.2925C7.25418 45.472 9.12689 45.6845 10.9676 45.9242L10.7668 47.5619ZM-27.9987 46.9826L-28.1526 45.3399C-26.3067 45.1559 -24.4284 44.9995 -22.57 44.8757L-22.4669 46.5229C-24.308 46.6455 -26.1695 46.8002 -27.9987 46.9826ZM-0.281067 46.4916C-2.11859 46.3744 -3.98372 46.2861 -5.82484 46.2287L-5.77641 44.579C-3.9185 44.6368 -2.03622 44.7259 -0.182709 44.8444L-0.281067 46.4916ZM-16.9235 46.2444L-16.9759 44.5947C-15.1232 44.532 -13.2393 44.499 -11.3766 44.4961L-11.3742 46.1466C-13.2201 46.1491 -15.0872 46.1821 -16.9235 46.2444Z" fill="#D5D5D5" fill-opacity="0.33"/>
<path opacity="0.23" d="M-11.1371 400.388C-34.1075 400.388 -56.3917 395.746 -77.3694 386.59C-97.6317 377.747 -115.829 365.088 -131.455 348.964C-147.082 332.839 -159.351 314.063 -167.921 293.156C-176.794 271.51 -181.293 248.516 -181.293 224.814C-181.293 201.113 -176.794 178.119 -167.921 156.473C-159.351 135.566 -147.082 116.789 -131.455 100.665C-115.829 84.5409 -97.6317 71.8819 -77.3694 63.0384C-56.3917 53.8835 -34.1075 49.241 -11.1371 49.241C11.8333 49.241 34.1176 53.8834 55.0953 63.0389C75.3576 71.8819 93.5545 84.5413 109.181 100.666C124.808 116.79 137.077 135.566 145.647 156.473C154.52 178.119 159.019 201.113 159.019 224.814C159.019 248.516 154.52 271.51 145.647 293.156C137.077 314.063 124.808 332.839 109.181 348.964C93.5545 365.087 75.3576 377.747 55.0953 386.59C34.1176 395.746 11.8333 400.388 -11.1371 400.388ZM-11.1371 50.4789C-104.3 50.4789 -180.093 128.686 -180.093 224.814C-180.093 320.944 -104.3 399.15 -11.1371 399.15C82.0258 399.15 157.819 320.944 157.819 224.814C157.819 128.686 82.0258 50.4789 -11.1371 50.4789Z" fill="#D5D5D5" fill-opacity="0.33"/>
<path opacity="0.15" d="M6.28671 361.055L6.07959 359.418C33.2777 355.751 58.3124 343.575 78.4779 324.209L79.5676 325.417C59.1573 345.019 33.8171 357.342 6.28671 361.055Z" fill="#D5D5D5" fill-opacity="0.33"/>
<path opacity="0.15" d="M79.5672 325.417L78.4775 324.209C93.3857 309.891 105.02 291.973 112.123 272.391L113.621 272.97C106.432 292.79 94.6569 310.925 79.5672 325.417Z" fill="#D5D5D5" fill-opacity="0.33"/>
<path opacity="0.22" d="M119.617 209.639C116.491 180.64 104.632 153.963 85.3223 132.493L86.4948 131.37C106.039 153.102 118.043 180.103 121.206 209.456L119.617 209.639Z" fill="#D5D5D5" fill-opacity="0.33"/>
<path opacity="0.25" d="M34.6362 97.5017C20.0092 91.9003 4.60879 89.0602 -11.1371 89.0602C-23.6063 89.0602 -35.943 90.8576 -47.8051 94.4025L-48.2502 92.8172C-36.2434 89.2289 -23.7566 87.4097 -11.1371 87.4097C4.79954 87.4097 20.3871 90.2844 35.1928 95.9544L34.6362 97.5017Z" fill="#D5D5D5" fill-opacity="0.33"/>
<g opacity="0.15">
<path opacity="0.15" d="M-11.1367 344.271V329.829C15.6511 329.829 40.9413 319.179 60.0743 299.841L69.8686 310.158C48.1035 332.157 19.3349 344.271 -11.1367 344.271Z" fill="#D5D5D5" fill-opacity="0.33"/>
<path opacity="0.15" d="M69.8682 310.158L60.074 299.841C79.7824 279.922 90.6364 253.277 90.6364 224.815H104.633C104.633 241.157 101.49 256.997 95.2924 271.896C89.3075 286.283 80.7534 299.156 69.8682 310.158Z" fill="#D5D5D5" fill-opacity="0.33"/>
<path opacity="0.15" d="M65.1569 155.311C45.832 132.744 18.0236 119.801 -11.1376 119.801C-11.5127 119.801 -11.8874 119.803 -12.2621 119.807L-12.4128 105.366C-11.9878 105.361 -11.5631 105.359 -11.138 105.359C22.0334 105.359 53.6647 120.08 75.6454 145.749L65.1569 155.311Z" fill="#D5D5D5" fill-opacity="0.33"/>
</g>
<g opacity="0.5">
<path opacity="0.5" d="M124.767 166.598C108.716 126.677 76.7897 95.6213 37.1748 81.3943L40.4615 71.6521C61.1933 79.0976 79.8337 90.6569 95.8647 106.009C112.444 121.886 125.275 140.941 134.002 162.645L124.767 166.598Z" fill="#D5D5D5" fill-opacity="0.33"/>
<path opacity="0.5" d="M-11.042 387.007C-12.2532 387.007 -13.4657 386.993 -14.6798 386.964C-35.2705 386.475 -55.3157 381.881 -74.2595 373.309L-70.2442 363.862C-33.7153 380.391 6.77939 381.037 43.7794 365.679L47.5104 375.249C28.7001 383.057 9.02001 387.007 -11.042 387.007Z" fill="#D5D5D5" fill-opacity="0.33"/>
<path opacity="0.5" d="M129.324 297.531L120.386 292.908C139.296 253.985 141.116 208.512 125.381 168.15C125.179 167.633 124.974 167.115 124.767 166.599L134.001 162.646C134.222 163.194 134.439 163.745 134.655 164.298C143.212 186.248 146.982 209.267 145.86 232.716C144.776 255.369 139.212 277.176 129.324 297.531Z" fill="#D5D5D5" fill-opacity="0.33"/>
</g>
<path d="M39.7493 303.717H-60.6245V214.725H-49.8989V186.628C-49.8989 164.176 -32.1967 145.91 -10.4376 145.91C11.3215 145.91 29.0237 164.176 29.0237 186.628V214.725H39.7493V303.717ZM-58.625 301.654H37.7499V216.788H27.0242V186.628C27.0242 165.314 10.219 147.974 -10.4376 147.974C-31.0942 147.974 -47.8994 165.314 -47.8994 186.628V216.788H-58.625V301.654ZM16.4838 216.788H-37.3594V186.628C-37.3594 171.311 -25.2825 158.85 -10.438 158.85C4.40655 158.85 16.4834 171.311 16.4834 186.628V216.788H16.4838ZM-35.3595 214.725H14.4847V186.628C14.4847 172.449 3.30482 160.913 -10.4372 160.913C-24.1792 160.913 -35.3591 172.449 -35.3591 186.628V214.725H-35.3595Z" fill="#1B782F"/>
<path opacity="0.46" d="M33.2509 290.423H26.4526V297.437H33.2509V290.423Z" fill="#1A782F"/>
<path opacity="0.46" d="M2.85878 226.878H-3.93945V233.893H2.85878V226.878Z" fill="#1A782F"/>
<path opacity="0.46" d="M28.0529 223.989H21.6545V230.591H28.0529V223.989Z" fill="#1A782F"/>
<path opacity="0.46" d="M18.8551 164.57H13.2566V170.347H18.8551V164.57Z" fill="#1A782F"/>
<path opacity="0.46" d="M27.653 232.242V238.019H22.0544V232.242H27.653ZM28.0529 231.829H21.6545V238.431H28.0529V231.829Z" fill="#1A782F"/>
<path opacity="0.46" d="M28.0529 239.669H21.6545V246.271H28.0529V239.669Z" fill="#1A782F"/>
<path opacity="0.46" d="M9.25777 157.556C10.5806 157.556 11.6571 158.667 11.6571 160.032C11.6571 161.397 10.5806 162.507 9.25777 162.507C7.93491 162.507 6.85839 161.397 6.85839 160.032C6.85839 158.667 7.93491 157.556 9.25777 157.556ZM9.25777 157.143C7.71177 157.143 6.4585 158.436 6.4585 160.032C6.4585 161.627 7.71177 162.92 9.25777 162.92C10.8038 162.92 12.057 161.627 12.057 160.032C12.057 158.436 10.8038 157.143 9.25777 157.143Z" fill="#1A782F"/>
<path opacity="0.46" d="M3.65913 297.437C5.20513 297.437 6.4584 296.144 6.4584 294.549C6.4584 292.953 5.20513 291.66 3.65913 291.66C2.11314 291.66 0.859863 292.953 0.859863 294.549C0.859863 296.144 2.11314 297.437 3.65913 297.437Z" fill="#1A782F"/>
<path opacity="0.46" d="M10.8566 292.073C12.1795 292.073 13.256 293.184 13.256 294.549C13.256 295.914 12.1795 297.024 10.8566 297.024C9.53379 297.024 8.45727 295.914 8.45727 294.549C8.45727 293.184 9.53379 292.073 10.8566 292.073ZM10.8566 291.66C9.31065 291.66 8.05737 292.953 8.05737 294.549C8.05737 296.144 9.31065 297.437 10.8566 297.437C12.4026 297.437 13.6559 296.144 13.6559 294.549C13.6559 292.953 12.4026 291.66 10.8566 291.66Z" fill="#1A782F"/>
<path opacity="0.46" d="M18.0546 292.073C19.3775 292.073 20.454 293.184 20.454 294.549C20.454 295.914 19.3775 297.024 18.0546 297.024C16.7318 297.024 15.6553 295.914 15.6553 294.549C15.6553 293.184 16.7318 292.073 18.0546 292.073ZM18.0546 291.66C16.5086 291.66 15.2554 292.953 15.2554 294.549C15.2554 296.144 16.5086 297.437 18.0546 297.437C19.6006 297.437 20.8539 296.144 20.8539 294.549C20.8539 292.953 19.6006 291.66 18.0546 291.66Z" fill="#1A782F"/>
<path opacity="0.46" d="M2.8588 281.757H-2.33984V283.82H2.8588V281.757Z" fill="#1A782F"/>
<path opacity="0.46" d="M10.4572 281.757H5.25854V283.82H10.4572V281.757Z" fill="#1A782F"/>
<path opacity="0.46" d="M4.059 221.101H-1.13965V223.164H4.059V221.101Z" fill="#1A782F"/>
<path opacity="0.46" d="M11.6571 221.101H6.4585V223.164H11.6571V221.101Z" fill="#1A782F"/>
<path opacity="0.46" d="M16.8555 247.097V252.461H18.8549V247.097H16.8555Z" fill="#1A782F"/>
<path opacity="0.46" d="M16.8555 239.256V244.62H18.8549V239.256H16.8555Z" fill="#1A782F"/>
<path opacity="0.46" d="M16.8555 231.417V236.781H18.8549V231.417H16.8555Z" fill="#1A782F"/>
<path opacity="0.46" d="M16.8555 223.577V228.941H18.8549V223.577H16.8555Z" fill="#1A782F"/>
<path opacity="0.46" d="M11.6568 235.351V225.846H9.65734V234.497L3.6589 240.686V253.941C2.48681 254.43 1.65942 255.615 1.65942 256.999C1.65942 258.822 3.09185 260.3 4.85859 260.3C6.62533 260.3 8.05776 258.822 8.05776 256.999C8.05776 255.462 7.03762 254.174 5.65838 253.806V241.54L11.6568 235.351Z" fill="#1A782F"/>
<path opacity="0.46" d="M12.8339 285.6V293.013L4.22217 301.899H1.40211C0.927429 300.69 -0.220257 299.836 -1.56231 299.836C-3.32905 299.836 -4.76147 301.314 -4.76147 303.137C-4.76147 304.96 -3.32905 306.438 -1.56231 306.438C-0.0722961 306.438 1.17619 305.385 1.5321 303.962H5.04998L14.8334 293.867V285.6H12.8339Z" fill="#1A782F"/>
<g opacity="0.46">
<path opacity="0.46" d="M20.0547 174.886H18.0552V177.362H20.0547V174.886Z" fill="#1A782F"/>
<path opacity="0.46" d="M20.0547 208.84H18.0552V203.594H20.0547V208.84ZM20.0547 198.347H18.0552V193.101H20.0547V198.347ZM20.0547 187.855H18.0552V182.609H20.0547V187.855Z" fill="#1A782F"/>
<path opacity="0.46" d="M20.0547 214.086H18.0552V216.562H20.0547V214.086Z" fill="#1A782F"/>
</g>
<path opacity="0.46" d="M24.4538 174.886H22.4543V216.562H24.4538V174.886Z" fill="#1A782F"/>
<path opacity="0.46" d="M17.9618 282.074L16.5479 280.615L23.6532 273.284V253.08H25.6527V274.138L17.9618 282.074Z" fill="#1A782F"/>
<path opacity="0.46" d="M34.8509 252.873C34.8509 251.05 33.4184 249.572 31.6517 249.572C29.8849 249.572 28.4525 251.05 28.4525 252.873C28.4525 254.258 29.2799 255.442 30.452 255.932V279.886L22.7468 287.837L24.1604 289.295L32.4515 280.74V256.066C33.8307 255.699 34.8509 254.411 34.8509 252.873Z" fill="#1A782F"/>
<path opacity="0.46" d="M0.059864 152.604C-1.20781 152.604 -2.27755 153.474 -2.62186 154.667H-24.1478L-29.7464 160.444H-34.1312V164.143L-37.4776 167.596C-37.7463 167.508 -38.0326 167.459 -38.3301 167.459C-39.8761 167.459 -41.1294 168.752 -41.1294 170.347C-41.1294 171.943 -39.8761 173.236 -38.3301 173.236C-36.7841 173.236 -35.5309 171.943 -35.5309 170.347C-35.5309 169.818 -35.6708 169.324 -35.9116 168.898L-32.1317 164.998V162.507H-28.9186L-23.32 156.731H-2.46667C-2.01719 157.706 -1.05624 158.381 0.0594711 158.381C1.60547 158.381 2.85874 157.088 2.85874 155.493C2.85874 153.897 1.60586 152.604 0.059864 152.604Z" fill="#1A782F"/>
<path d="M20.4546 360.144V362.693L24.6535 360.192L28.8524 362.693V360.144L24.6535 357.643L20.4546 360.144Z" fill="#D5D5D5" fill-opacity="0.33"/>
<path d="M20.4546 355.047V357.596L24.6535 355.095L28.8524 357.596V355.047L24.6535 352.546L20.4546 355.047Z" fill="#D5D5D5" fill-opacity="0.33"/>
<path d="M20.4546 349.95V352.499L24.6535 349.998L28.8524 352.499V349.95L24.6535 347.449L20.4546 349.95Z" fill="#D5D5D5" fill-opacity="0.33"/>
<path d="M20.4546 344.853V347.402L24.6535 344.901L28.8524 347.402V344.853L24.6535 342.352L20.4546 344.853Z" fill="#D5D5D5" fill-opacity="0.33"/>
<path d="M22.0543 66.7893V64.2405L17.8554 66.7418L13.6565 64.2405V66.7893L17.8554 69.2906L22.0543 66.7893Z" fill="#D5D5D5" fill-opacity="0.33"/>
<path d="M22.0541 71.8865V69.3376L17.8552 71.839L13.6562 69.3376V71.8865L17.8552 74.3878L22.0541 71.8865Z" fill="#D5D5D5" fill-opacity="0.33"/>
<path d="M22.0541 76.9836V74.4348L17.8552 76.9362L13.6562 74.4348V76.9836L17.8552 79.485L22.0541 76.9836Z" fill="#D5D5D5" fill-opacity="0.33"/>
<path d="M22.0541 82.0805V79.5317L17.8552 82.0331L13.6562 79.5317V82.0805L17.8552 84.5819L22.0541 82.0805Z" fill="#D5D5D5" fill-opacity="0.33"/>
<path d="M42.4489 23.4515C43.7741 23.4515 44.8483 22.3431 44.8483 20.9758C44.8483 19.6084 43.7741 18.5 42.4489 18.5C41.1238 18.5 40.0496 19.6084 40.0496 20.9758C40.0496 22.3431 41.1238 23.4515 42.4489 23.4515Z" fill="#D5D5D5" fill-opacity="0.33"/>
<path d="M42.4492 30.4669C43.7743 30.4669 44.8486 29.3585 44.8486 27.9912C44.8486 26.6238 43.7743 25.5154 42.4492 25.5154C41.124 25.5154 40.0498 26.6238 40.0498 27.9912C40.0498 29.3585 41.124 30.4669 42.4492 30.4669Z" fill="#D5D5D5" fill-opacity="0.33"/>
<path d="M42.4492 37.4813C43.7743 37.4813 44.8486 36.3729 44.8486 35.0056C44.8486 33.6382 43.7743 32.5298 42.4492 32.5298C41.124 32.5298 40.0498 33.6382 40.0498 35.0056C40.0498 36.3729 41.124 37.4813 42.4492 37.4813Z" fill="#D5D5D5" fill-opacity="0.33"/>
<path d="M42.4492 44.496C43.7743 44.496 44.8486 43.3875 44.8486 42.0202C44.8486 40.6529 43.7743 39.5444 42.4492 39.5444C41.124 39.5444 40.0498 40.6529 40.0498 42.0202C40.0498 43.3875 41.124 44.496 42.4492 44.496Z" fill="#D5D5D5" fill-opacity="0.33"/>
<path d="M27.6528 407.196C28.9779 407.196 30.0522 406.088 30.0522 404.721C30.0522 403.353 28.9779 402.245 27.6528 402.245C26.3277 402.245 25.2534 403.353 25.2534 404.721C25.2534 406.088 26.3277 407.196 27.6528 407.196Z" fill="#D5D5D5" fill-opacity="0.33"/>
<path d="M27.6528 414.211C28.9779 414.211 30.0522 413.103 30.0522 411.735C30.0522 410.368 28.9779 409.26 27.6528 409.26C26.3277 409.26 25.2534 410.368 25.2534 411.735C25.2534 413.103 26.3277 414.211 27.6528 414.211Z" fill="#D5D5D5" fill-opacity="0.33"/>
<path d="M27.6528 421.226C28.9779 421.226 30.0522 420.118 30.0522 418.75C30.0522 417.383 28.9779 416.274 27.6528 416.274C26.3277 416.274 25.2534 417.383 25.2534 418.75C25.2534 420.118 26.3277 421.226 27.6528 421.226Z" fill="#D5D5D5" fill-opacity="0.33"/>
<path d="M27.6528 428.241C28.9779 428.241 30.0522 427.132 30.0522 425.765C30.0522 424.398 28.9779 423.289 27.6528 423.289C26.3277 423.289 25.2534 424.398 25.2534 425.765C25.2534 427.132 26.3277 428.241 27.6528 428.241Z" fill="#D5D5D5" fill-opacity="0.33"/>
<path d="M36.0504 52.23H28.4524V53.798H36.0504V52.23Z" fill="#D5D5D5" fill-opacity="0.33"/>
<path d="M36.0504 55.5896H28.4524V57.1576H36.0504V55.5896Z" fill="#D5D5D5" fill-opacity="0.33"/>
<path d="M36.0504 58.9492H28.4524V60.5172H36.0504V58.9492Z" fill="#D5D5D5" fill-opacity="0.33"/>
<path d="M36.0504 62.3093H28.4524V63.8773H36.0504V62.3093Z" fill="#D5D5D5" fill-opacity="0.33"/>
<path d="M36.0504 65.6689H28.4524V67.2369H36.0504V65.6689Z" fill="#D5D5D5" fill-opacity="0.33"/>
<path d="M36.0504 69.0295H28.4524V70.5975H36.0504V69.0295Z" fill="#D5D5D5" fill-opacity="0.33"/>
<path d="M36.0504 72.3896H28.4524V73.9576H36.0504V72.3896Z" fill="#D5D5D5" fill-opacity="0.33"/>
<path d="M36.0504 75.7498H28.4524V77.3177H36.0504V75.7498Z" fill="#D5D5D5" fill-opacity="0.33"/>
<path d="M36.0504 79.1094H28.4524V80.6774H36.0504V79.1094Z" fill="#D5D5D5" fill-opacity="0.33"/>
<path d="M36.0504 82.4695H28.4524V84.0375H36.0504V82.4695Z" fill="#D5D5D5" fill-opacity="0.33"/>
<path d="M36.0504 85.8291H28.4524V87.3971H36.0504V85.8291Z" fill="#D5D5D5" fill-opacity="0.33"/>
<path d="M36.0504 89.1892H28.4524V90.7572H36.0504V89.1892Z" fill="#D5D5D5" fill-opacity="0.33"/>
<path d="M36.0504 92.5488H28.4524V94.1168H36.0504V92.5488Z" fill="#D5D5D5" fill-opacity="0.33"/>
<path d="M36.0504 95.9089H28.4524V97.4769H36.0504V95.9089Z" fill="#D5D5D5" fill-opacity="0.33"/>
<path d="M36.0504 99.2695H28.4524V100.838H36.0504V99.2695Z" fill="#D5D5D5" fill-opacity="0.33"/>
<path d="M36.0504 102.629H28.4524V104.197H36.0504V102.629Z" fill="#D5D5D5" fill-opacity="0.33"/>
<path d="M36.0504 105.99H28.4524V107.557H36.0504V105.99Z" fill="#D5D5D5" fill-opacity="0.33"/>
<path d="M36.0504 109.349H28.4524V110.917H36.0504V109.349Z" fill="#D5D5D5" fill-opacity="0.33"/>
<path d="M36.0504 112.709H28.4524V114.277H36.0504V112.709Z" fill="#D5D5D5" fill-opacity="0.33"/>
<path d="M36.0504 116.069H28.4524V117.637H36.0504V116.069Z" fill="#D5D5D5" fill-opacity="0.33"/>
<path d="M10.4574 375.318H2.85938V376.886H10.4574V375.318Z" fill="#D5D5D5" fill-opacity="0.33"/>
<path d="M10.4569 378.678H2.85889V380.246H10.4569V378.678Z" fill="#D5D5D5" fill-opacity="0.33"/>
<path d="M10.4569 382.038H2.85889V383.606H10.4569V382.038Z" fill="#D5D5D5" fill-opacity="0.33"/>
<path d="M10.4569 385.397H2.85889V386.965H10.4569V385.397Z" fill="#D5D5D5" fill-opacity="0.33"/>
<path d="M10.4569 388.757H2.85889V390.325H10.4569V388.757Z" fill="#D5D5D5" fill-opacity="0.33"/>
<path d="M10.4569 392.117H2.85889V393.685H10.4569V392.117Z" fill="#D5D5D5" fill-opacity="0.33"/>
<path d="M10.4569 395.478H2.85889V397.046H10.4569V395.478Z" fill="#D5D5D5" fill-opacity="0.33"/>
<path d="M10.4569 398.838H2.85889V400.406H10.4569V398.838Z" fill="#D5D5D5" fill-opacity="0.33"/>
<path d="M10.4569 402.197H2.85889V403.765H10.4569V402.197Z" fill="#D5D5D5" fill-opacity="0.33"/>
<path d="M10.4569 405.557H2.85889V407.125H10.4569V405.557Z" fill="#D5D5D5" fill-opacity="0.33"/>
<path d="M10.4569 408.917H2.85889V410.485H10.4569V408.917Z" fill="#D5D5D5" fill-opacity="0.33"/>
<path d="M10.4569 412.277H2.85889V413.845H10.4569V412.277Z" fill="#D5D5D5" fill-opacity="0.33"/>
<path d="M10.4569 415.637H2.85889V417.205H10.4569V415.637Z" fill="#D5D5D5" fill-opacity="0.33"/>
<path d="M10.4569 418.997H2.85889V420.565H10.4569V418.997Z" fill="#D5D5D5" fill-opacity="0.33"/>
<path d="M10.4569 422.357H2.85889V423.925H10.4569V422.357Z" fill="#D5D5D5" fill-opacity="0.33"/>
<path d="M10.4569 425.717H2.85889V427.285H10.4569V425.717Z" fill="#D5D5D5" fill-opacity="0.33"/>
<path d="M10.4569 429.078H2.85889V430.646H10.4569V429.078Z" fill="#D5D5D5" fill-opacity="0.33"/>
<path d="M10.4569 432.437H2.85889V434.005H10.4569V432.437Z" fill="#D5D5D5" fill-opacity="0.33"/>
<path d="M10.4569 435.797H2.85889V437.365H10.4569V435.797Z" fill="#D5D5D5" fill-opacity="0.33"/>
<path d="M10.4569 439.157H2.85889V440.725H10.4569V439.157Z" fill="#D5D5D5" fill-opacity="0.33"/>
<path d="M49.4469 396.872L44.8481 405.091H54.0457L49.4469 396.872Z" fill="#D5D5D5" fill-opacity="0.33"/>
<path d="M49.4469 386.264L44.8481 394.484H54.0457L49.4469 386.264Z" fill="#D5D5D5" fill-opacity="0.33"/>
<path d="M49.4469 375.657L44.8481 383.877H54.0457L49.4469 375.657Z" fill="#D5D5D5" fill-opacity="0.33"/>
<path d="M54.6454 86.7838L59.2442 78.5647H50.0466L54.6454 86.7838Z" fill="#D5D5D5" fill-opacity="0.33"/>
<path d="M54.6457 97.3908L59.2445 89.1716H50.0469L54.6457 97.3908Z" fill="#D5D5D5" fill-opacity="0.33"/>
<path d="M54.6457 107.998L59.2445 99.7793H50.0469L54.6457 107.998Z" fill="#D5D5D5" fill-opacity="0.33"/>
<path d="M3.45989 62.4389L8.05869 54.2197H-1.13892L3.45989 62.4389Z" fill="#D5D5D5" fill-opacity="0.33"/>
<path d="M3.45915 73.046L8.05795 64.8269H-1.13965L3.45915 73.046Z" fill="#D5D5D5" fill-opacity="0.33"/>
<path d="M3.45915 83.6528L8.05795 75.4341H-1.13965L3.45915 83.6528Z" fill="#D5D5D5" fill-opacity="0.33"/>
</svg>
