<svg width="65" height="122" viewBox="0 0 65 122" fill="none" xmlns="http://www.w3.org/2000/svg">
<ellipse cx="26.6655" cy="120.208" rx="1.73152" ry="1.33128" transform="rotate(-180 26.6655 120.208)" fill="#224769" fill-opacity="0.44"/>
<ellipse cx="26.6655" cy="90.489" rx="1.73152" ry="1.33128" transform="rotate(-180 26.6655 90.489)" fill="#224769" fill-opacity="0.44"/>
<ellipse cx="51.5993" cy="120.208" rx="1.73152" ry="1.33128" transform="rotate(-180 51.5993 120.208)" fill="#224769" fill-opacity="0.44"/>
<ellipse cx="51.5993" cy="90.489" rx="1.73152" ry="1.33128" transform="rotate(-180 51.5993 90.489)" fill="#224769" fill-opacity="0.44"/>
<ellipse cx="26.6657" cy="60.7698" rx="1.73152" ry="1.33128" transform="rotate(-180 26.6657 60.7698)" fill="#224769" fill-opacity="0.44"/>
<ellipse cx="51.5993" cy="60.7698" rx="1.73152" ry="1.33128" transform="rotate(-180 51.5993 60.7698)" fill="#224769" fill-opacity="0.44"/>
<ellipse cx="1.73137" cy="60.7698" rx="1.73152" ry="1.33128" transform="rotate(-180 1.73137 60.7698)" fill="#224769" fill-opacity="0.44"/>
<ellipse cx="26.6657" cy="31.0506" rx="1.73152" ry="1.33128" transform="rotate(-180 26.6657 31.0506)" fill="#224769" fill-opacity="0.44"/>
<ellipse cx="51.5993" cy="31.0506" rx="1.73152" ry="1.33128" transform="rotate(-180 51.5993 31.0506)" fill="#224769" fill-opacity="0.44"/>
<ellipse cx="1.73137" cy="31.0506" rx="1.73152" ry="1.33128" transform="rotate(-180 1.73137 31.0506)" fill="#224769" fill-opacity="0.44"/>
<ellipse cx="26.6657" cy="1.33132" rx="1.73152" ry="1.33128" transform="rotate(-180 26.6657 1.33132)" fill="#224769" fill-opacity="0.44"/>
<ellipse cx="51.5993" cy="1.33132" rx="1.73152" ry="1.33128" transform="rotate(-180 51.5993 1.33132)" fill="#224769" fill-opacity="0.44"/>
<ellipse cx="1.73137" cy="1.33132" rx="1.73152" ry="1.33128" transform="rotate(-180 1.73137 1.33132)" fill="#224769" fill-opacity="0.44"/>
</svg>
