<svg width="163" height="960" viewBox="0 0 163 960" fill="none" xmlns="http://www.w3.org/2000/svg">
<ellipse cx="161.415" cy="142.406" rx="1.5856" ry="1.57712" transform="rotate(-180 161.415 142.406)" fill="#224769" fill-opacity="0.6"/>
<ellipse cx="161.415" cy="107.199" rx="1.5856" ry="1.57712" transform="rotate(-180 161.415 107.199)" fill="#224769" fill-opacity="0.6"/>
<ellipse cx="70.0835" cy="142.406" rx="1.5856" ry="1.57712" transform="rotate(-180 70.0835 142.406)" fill="#224769" fill-opacity="0.6"/>
<ellipse cx="70.0835" cy="107.199" rx="1.5856" ry="1.57712" transform="rotate(-180 70.0835 107.199)" fill="#224769" fill-opacity="0.6"/>
<ellipse cx="115.749" cy="142.406" rx="1.5856" ry="1.57712" transform="rotate(-180 115.749 142.406)" fill="#224769" fill-opacity="0.6"/>
<ellipse cx="115.749" cy="107.199" rx="1.5856" ry="1.57712" transform="rotate(-180 115.749 107.199)" fill="#224769" fill-opacity="0.6"/>
<ellipse cx="24.4184" cy="142.406" rx="1.5856" ry="1.57712" transform="rotate(-180 24.4184 142.406)" fill="#224769" fill-opacity="0.6"/>
<ellipse cx="24.4184" cy="107.199" rx="1.5856" ry="1.57712" transform="rotate(-180 24.4184 107.199)" fill="#224769" fill-opacity="0.6"/>
<ellipse cx="138.582" cy="142.406" rx="1.5856" ry="1.57712" transform="rotate(-180 138.582 142.406)" fill="#224769" fill-opacity="0.6"/>
<ellipse cx="138.582" cy="107.199" rx="1.5856" ry="1.57712" transform="rotate(-180 138.582 107.199)" fill="#224769" fill-opacity="0.6"/>
<ellipse cx="47.2509" cy="142.406" rx="1.5856" ry="1.57712" transform="rotate(-180 47.2509 142.406)" fill="#224769" fill-opacity="0.6"/>
<ellipse cx="47.2509" cy="107.199" rx="1.5856" ry="1.57712" transform="rotate(-180 47.2509 107.199)" fill="#224769" fill-opacity="0.6"/>
<ellipse cx="92.9164" cy="142.406" rx="1.5856" ry="1.57712" transform="rotate(-180 92.9164 142.406)" fill="#224769" fill-opacity="0.6"/>
<ellipse cx="92.916" cy="107.199" rx="1.5856" ry="1.57712" transform="rotate(-180 92.916 107.199)" fill="#224769" fill-opacity="0.6"/>
<ellipse cx="161.415" cy="71.9917" rx="1.5856" ry="1.57712" transform="rotate(-180 161.415 71.9917)" fill="#224769" fill-opacity="0.6"/>
<ellipse cx="70.0835" cy="71.9917" rx="1.5856" ry="1.57712" transform="rotate(-180 70.0835 71.9917)" fill="#224769" fill-opacity="0.6"/>
<ellipse cx="115.749" cy="71.9917" rx="1.5856" ry="1.57712" transform="rotate(-180 115.749 71.9917)" fill="#224769" fill-opacity="0.6"/>
<ellipse cx="24.4184" cy="71.9917" rx="1.5856" ry="1.57712" transform="rotate(-180 24.4184 71.9917)" fill="#224769" fill-opacity="0.6"/>
<ellipse cx="138.582" cy="71.9917" rx="1.5856" ry="1.57712" transform="rotate(-180 138.582 71.9917)" fill="#224769" fill-opacity="0.6"/>
<ellipse cx="47.2509" cy="71.9917" rx="1.5856" ry="1.57712" transform="rotate(-180 47.2509 71.9917)" fill="#224769" fill-opacity="0.6"/>
<ellipse cx="92.9164" cy="71.9917" rx="1.5856" ry="1.57712" transform="rotate(-180 92.9164 71.9917)" fill="#224769" fill-opacity="0.6"/>
<ellipse cx="1.58566" cy="71.9917" rx="1.5856" ry="1.57712" transform="rotate(-180 1.58566 71.9917)" fill="#224769" fill-opacity="0.6"/>
<ellipse cx="161.415" cy="36.7847" rx="1.5856" ry="1.57712" transform="rotate(-180 161.415 36.7847)" fill="#224769" fill-opacity="0.6"/>
<ellipse cx="70.0835" cy="36.7847" rx="1.5856" ry="1.57712" transform="rotate(-180 70.0835 36.7847)" fill="#224769" fill-opacity="0.6"/>
<ellipse cx="115.749" cy="36.7847" rx="1.5856" ry="1.57712" transform="rotate(-180 115.749 36.7847)" fill="#224769" fill-opacity="0.6"/>
<ellipse cx="24.4184" cy="36.7847" rx="1.5856" ry="1.57712" transform="rotate(-180 24.4184 36.7847)" fill="#224769" fill-opacity="0.6"/>
<ellipse cx="138.582" cy="36.7847" rx="1.5856" ry="1.57712" transform="rotate(-180 138.582 36.7847)" fill="#224769" fill-opacity="0.6"/>
<ellipse cx="47.2509" cy="36.7847" rx="1.5856" ry="1.57712" transform="rotate(-180 47.2509 36.7847)" fill="#224769" fill-opacity="0.6"/>
<ellipse cx="92.9164" cy="36.7847" rx="1.5856" ry="1.57712" transform="rotate(-180 92.9164 36.7847)" fill="#224769" fill-opacity="0.6"/>
<ellipse cx="1.58566" cy="36.7847" rx="1.5856" ry="1.57712" transform="rotate(-180 1.58566 36.7847)" fill="#224769" fill-opacity="0.6"/>
<ellipse cx="161.415" cy="1.57669" rx="1.5856" ry="1.57712" transform="rotate(-180 161.415 1.57669)" fill="#224769" fill-opacity="0.6"/>
<ellipse cx="70.0835" cy="1.57669" rx="1.5856" ry="1.57712" transform="rotate(-180 70.0835 1.57669)" fill="#224769" fill-opacity="0.6"/>
<ellipse cx="115.749" cy="1.57669" rx="1.5856" ry="1.57712" transform="rotate(-180 115.749 1.57669)" fill="#224769" fill-opacity="0.6"/>
<ellipse cx="24.4184" cy="1.57669" rx="1.5856" ry="1.57712" transform="rotate(-180 24.4184 1.57669)" fill="#224769" fill-opacity="0.6"/>
<ellipse cx="138.582" cy="1.57669" rx="1.5856" ry="1.57712" transform="rotate(-180 138.582 1.57669)" fill="#224769" fill-opacity="0.6"/>
<ellipse cx="47.2509" cy="1.57669" rx="1.5856" ry="1.57712" transform="rotate(-180 47.2509 1.57669)" fill="#224769" fill-opacity="0.6"/>
<ellipse cx="92.9164" cy="1.57669" rx="1.5856" ry="1.57712" transform="rotate(-180 92.9164 1.57669)" fill="#224769" fill-opacity="0.6"/>
<ellipse cx="1.58566" cy="1.57669" rx="1.5856" ry="1.57712" transform="rotate(-180 1.58566 1.57669)" fill="#224769" fill-opacity="0.6"/>
<ellipse cx="161.415" cy="305.406" rx="1.5856" ry="1.57712" transform="rotate(-180 161.415 305.406)" fill="#224769" fill-opacity="0.6"/>
<ellipse cx="161.415" cy="270.199" rx="1.5856" ry="1.57712" transform="rotate(-180 161.415 270.199)" fill="#224769" fill-opacity="0.6"/>
<ellipse cx="70.0835" cy="305.406" rx="1.5856" ry="1.57712" transform="rotate(-180 70.0835 305.406)" fill="#224769" fill-opacity="0.6"/>
<ellipse cx="70.0835" cy="270.199" rx="1.5856" ry="1.57712" transform="rotate(-180 70.0835 270.199)" fill="#224769" fill-opacity="0.6"/>
<ellipse cx="115.749" cy="305.406" rx="1.5856" ry="1.57712" transform="rotate(-180 115.749 305.406)" fill="#224769" fill-opacity="0.6"/>
<ellipse cx="115.749" cy="270.199" rx="1.5856" ry="1.57712" transform="rotate(-180 115.749 270.199)" fill="#224769" fill-opacity="0.6"/>
<ellipse cx="24.4184" cy="305.406" rx="1.5856" ry="1.57712" transform="rotate(-180 24.4184 305.406)" fill="#224769" fill-opacity="0.6"/>
<ellipse cx="24.4184" cy="270.199" rx="1.5856" ry="1.57712" transform="rotate(-180 24.4184 270.199)" fill="#224769" fill-opacity="0.6"/>
<ellipse cx="138.582" cy="305.406" rx="1.5856" ry="1.57712" transform="rotate(-180 138.582 305.406)" fill="#224769" fill-opacity="0.6"/>
<ellipse cx="138.582" cy="270.199" rx="1.5856" ry="1.57712" transform="rotate(-180 138.582 270.199)" fill="#224769" fill-opacity="0.6"/>
<ellipse cx="47.2509" cy="305.406" rx="1.5856" ry="1.57712" transform="rotate(-180 47.2509 305.406)" fill="#224769" fill-opacity="0.6"/>
<ellipse cx="47.2509" cy="270.199" rx="1.5856" ry="1.57712" transform="rotate(-180 47.2509 270.199)" fill="#224769" fill-opacity="0.6"/>
<ellipse cx="92.9164" cy="305.406" rx="1.5856" ry="1.57712" transform="rotate(-180 92.9164 305.406)" fill="#224769" fill-opacity="0.6"/>
<ellipse cx="92.916" cy="270.199" rx="1.5856" ry="1.57712" transform="rotate(-180 92.916 270.199)" fill="#224769" fill-opacity="0.6"/>
<ellipse cx="161.415" cy="234.992" rx="1.5856" ry="1.57712" transform="rotate(-180 161.415 234.992)" fill="#224769" fill-opacity="0.6"/>
<ellipse cx="70.0835" cy="234.992" rx="1.5856" ry="1.57712" transform="rotate(-180 70.0835 234.992)" fill="#224769" fill-opacity="0.6"/>
<ellipse cx="115.749" cy="234.992" rx="1.5856" ry="1.57712" transform="rotate(-180 115.749 234.992)" fill="#224769" fill-opacity="0.6"/>
<ellipse cx="24.4184" cy="234.992" rx="1.5856" ry="1.57712" transform="rotate(-180 24.4184 234.992)" fill="#224769" fill-opacity="0.6"/>
<ellipse cx="138.582" cy="234.992" rx="1.5856" ry="1.57712" transform="rotate(-180 138.582 234.992)" fill="#224769" fill-opacity="0.6"/>
<ellipse cx="47.2509" cy="234.992" rx="1.5856" ry="1.57712" transform="rotate(-180 47.2509 234.992)" fill="#224769" fill-opacity="0.6"/>
<ellipse cx="92.9164" cy="234.992" rx="1.5856" ry="1.57712" transform="rotate(-180 92.9164 234.992)" fill="#224769" fill-opacity="0.6"/>
<ellipse cx="1.58566" cy="234.992" rx="1.5856" ry="1.57712" transform="rotate(-180 1.58566 234.992)" fill="#224769" fill-opacity="0.6"/>
<ellipse cx="161.415" cy="199.785" rx="1.5856" ry="1.57712" transform="rotate(-180 161.415 199.785)" fill="#224769" fill-opacity="0.6"/>
<ellipse cx="70.0835" cy="199.785" rx="1.5856" ry="1.57712" transform="rotate(-180 70.0835 199.785)" fill="#224769" fill-opacity="0.6"/>
<ellipse cx="115.749" cy="199.785" rx="1.5856" ry="1.57712" transform="rotate(-180 115.749 199.785)" fill="#224769" fill-opacity="0.6"/>
<ellipse cx="24.4184" cy="199.785" rx="1.5856" ry="1.57712" transform="rotate(-180 24.4184 199.785)" fill="#224769" fill-opacity="0.6"/>
<ellipse cx="138.582" cy="199.785" rx="1.5856" ry="1.57712" transform="rotate(-180 138.582 199.785)" fill="#224769" fill-opacity="0.6"/>
<ellipse cx="47.2509" cy="199.785" rx="1.5856" ry="1.57712" transform="rotate(-180 47.2509 199.785)" fill="#224769" fill-opacity="0.6"/>
<ellipse cx="92.9164" cy="199.785" rx="1.5856" ry="1.57712" transform="rotate(-180 92.9164 199.785)" fill="#224769" fill-opacity="0.6"/>
<ellipse cx="1.58566" cy="199.785" rx="1.5856" ry="1.57712" transform="rotate(-180 1.58566 199.785)" fill="#224769" fill-opacity="0.6"/>
<ellipse cx="161.415" cy="164.577" rx="1.5856" ry="1.57712" transform="rotate(-180 161.415 164.577)" fill="#224769" fill-opacity="0.6"/>
<ellipse cx="70.0835" cy="164.577" rx="1.5856" ry="1.57712" transform="rotate(-180 70.0835 164.577)" fill="#224769" fill-opacity="0.6"/>
<ellipse cx="115.749" cy="164.577" rx="1.5856" ry="1.57712" transform="rotate(-180 115.749 164.577)" fill="#224769" fill-opacity="0.6"/>
<ellipse cx="24.4184" cy="164.577" rx="1.5856" ry="1.57712" transform="rotate(-180 24.4184 164.577)" fill="#224769" fill-opacity="0.6"/>
<ellipse cx="138.582" cy="164.577" rx="1.5856" ry="1.57712" transform="rotate(-180 138.582 164.577)" fill="#224769" fill-opacity="0.6"/>
<ellipse cx="47.2509" cy="164.577" rx="1.5856" ry="1.57712" transform="rotate(-180 47.2509 164.577)" fill="#224769" fill-opacity="0.6"/>
<ellipse cx="92.9164" cy="164.577" rx="1.5856" ry="1.57712" transform="rotate(-180 92.9164 164.577)" fill="#224769" fill-opacity="0.6"/>
<ellipse cx="1.58566" cy="164.577" rx="1.5856" ry="1.57712" transform="rotate(-180 1.58566 164.577)" fill="#224769" fill-opacity="0.6"/>
<ellipse cx="161.415" cy="468.406" rx="1.5856" ry="1.57712" transform="rotate(-180 161.415 468.406)" fill="#224769" fill-opacity="0.6"/>
<ellipse cx="161.415" cy="433.199" rx="1.5856" ry="1.57712" transform="rotate(-180 161.415 433.199)" fill="#224769" fill-opacity="0.6"/>
<ellipse cx="70.0835" cy="468.406" rx="1.5856" ry="1.57712" transform="rotate(-180 70.0835 468.406)" fill="#224769" fill-opacity="0.6"/>
<ellipse cx="70.0835" cy="433.199" rx="1.5856" ry="1.57712" transform="rotate(-180 70.0835 433.199)" fill="#224769" fill-opacity="0.6"/>
<ellipse cx="115.749" cy="468.406" rx="1.5856" ry="1.57712" transform="rotate(-180 115.749 468.406)" fill="#224769" fill-opacity="0.6"/>
<ellipse cx="115.749" cy="433.199" rx="1.5856" ry="1.57712" transform="rotate(-180 115.749 433.199)" fill="#224769" fill-opacity="0.6"/>
<ellipse cx="24.4184" cy="468.406" rx="1.5856" ry="1.57712" transform="rotate(-180 24.4184 468.406)" fill="#224769" fill-opacity="0.6"/>
<ellipse cx="24.4184" cy="433.199" rx="1.5856" ry="1.57712" transform="rotate(-180 24.4184 433.199)" fill="#224769" fill-opacity="0.6"/>
<ellipse cx="138.582" cy="468.406" rx="1.5856" ry="1.57712" transform="rotate(-180 138.582 468.406)" fill="#224769" fill-opacity="0.6"/>
<ellipse cx="138.582" cy="433.199" rx="1.5856" ry="1.57712" transform="rotate(-180 138.582 433.199)" fill="#224769" fill-opacity="0.6"/>
<ellipse cx="47.2509" cy="468.406" rx="1.5856" ry="1.57712" transform="rotate(-180 47.2509 468.406)" fill="#224769" fill-opacity="0.6"/>
<ellipse cx="47.2509" cy="433.199" rx="1.5856" ry="1.57712" transform="rotate(-180 47.2509 433.199)" fill="#224769" fill-opacity="0.6"/>
<ellipse cx="92.9164" cy="468.406" rx="1.5856" ry="1.57712" transform="rotate(-180 92.9164 468.406)" fill="#224769" fill-opacity="0.6"/>
<ellipse cx="92.916" cy="433.199" rx="1.5856" ry="1.57712" transform="rotate(-180 92.916 433.199)" fill="#224769" fill-opacity="0.6"/>
<ellipse cx="161.415" cy="397.992" rx="1.5856" ry="1.57712" transform="rotate(-180 161.415 397.992)" fill="#224769" fill-opacity="0.6"/>
<ellipse cx="70.0835" cy="397.992" rx="1.5856" ry="1.57712" transform="rotate(-180 70.0835 397.992)" fill="#224769" fill-opacity="0.6"/>
<ellipse cx="115.749" cy="397.992" rx="1.5856" ry="1.57712" transform="rotate(-180 115.749 397.992)" fill="#224769" fill-opacity="0.6"/>
<ellipse cx="24.4184" cy="397.992" rx="1.5856" ry="1.57712" transform="rotate(-180 24.4184 397.992)" fill="#224769" fill-opacity="0.6"/>
<ellipse cx="138.582" cy="397.992" rx="1.5856" ry="1.57712" transform="rotate(-180 138.582 397.992)" fill="#224769" fill-opacity="0.6"/>
<ellipse cx="47.2509" cy="397.992" rx="1.5856" ry="1.57712" transform="rotate(-180 47.2509 397.992)" fill="#224769" fill-opacity="0.6"/>
<ellipse cx="92.9164" cy="397.992" rx="1.5856" ry="1.57712" transform="rotate(-180 92.9164 397.992)" fill="#224769" fill-opacity="0.6"/>
<ellipse cx="1.58566" cy="397.992" rx="1.5856" ry="1.57712" transform="rotate(-180 1.58566 397.992)" fill="#224769" fill-opacity="0.6"/>
<ellipse cx="161.415" cy="362.785" rx="1.5856" ry="1.57712" transform="rotate(-180 161.415 362.785)" fill="#224769" fill-opacity="0.6"/>
<ellipse cx="70.0835" cy="362.785" rx="1.5856" ry="1.57712" transform="rotate(-180 70.0835 362.785)" fill="#224769" fill-opacity="0.6"/>
<ellipse cx="115.749" cy="362.785" rx="1.5856" ry="1.57712" transform="rotate(-180 115.749 362.785)" fill="#224769" fill-opacity="0.6"/>
<ellipse cx="24.4184" cy="362.785" rx="1.5856" ry="1.57712" transform="rotate(-180 24.4184 362.785)" fill="#224769" fill-opacity="0.6"/>
<ellipse cx="138.582" cy="362.785" rx="1.5856" ry="1.57712" transform="rotate(-180 138.582 362.785)" fill="#224769" fill-opacity="0.6"/>
<ellipse cx="47.2509" cy="362.785" rx="1.5856" ry="1.57712" transform="rotate(-180 47.2509 362.785)" fill="#224769" fill-opacity="0.6"/>
<ellipse cx="92.9164" cy="362.785" rx="1.5856" ry="1.57712" transform="rotate(-180 92.9164 362.785)" fill="#224769" fill-opacity="0.6"/>
<ellipse cx="1.58566" cy="362.785" rx="1.5856" ry="1.57712" transform="rotate(-180 1.58566 362.785)" fill="#224769" fill-opacity="0.6"/>
<ellipse cx="161.415" cy="327.577" rx="1.5856" ry="1.57712" transform="rotate(-180 161.415 327.577)" fill="#224769" fill-opacity="0.6"/>
<ellipse cx="70.0835" cy="327.577" rx="1.5856" ry="1.57712" transform="rotate(-180 70.0835 327.577)" fill="#224769" fill-opacity="0.6"/>
<ellipse cx="115.749" cy="327.577" rx="1.5856" ry="1.57712" transform="rotate(-180 115.749 327.577)" fill="#224769" fill-opacity="0.6"/>
<ellipse cx="24.4184" cy="327.577" rx="1.5856" ry="1.57712" transform="rotate(-180 24.4184 327.577)" fill="#224769" fill-opacity="0.6"/>
<ellipse cx="138.582" cy="327.577" rx="1.5856" ry="1.57712" transform="rotate(-180 138.582 327.577)" fill="#224769" fill-opacity="0.6"/>
<ellipse cx="47.2509" cy="327.577" rx="1.5856" ry="1.57712" transform="rotate(-180 47.2509 327.577)" fill="#224769" fill-opacity="0.6"/>
<ellipse cx="92.9164" cy="327.577" rx="1.5856" ry="1.57712" transform="rotate(-180 92.9164 327.577)" fill="#224769" fill-opacity="0.6"/>
<ellipse cx="1.58566" cy="327.577" rx="1.5856" ry="1.57712" transform="rotate(-180 1.58566 327.577)" fill="#224769" fill-opacity="0.6"/>
<ellipse cx="161.415" cy="632.406" rx="1.5856" ry="1.57712" transform="rotate(-180 161.415 632.406)" fill="#224769" fill-opacity="0.6"/>
<ellipse cx="161.415" cy="597.199" rx="1.5856" ry="1.57712" transform="rotate(-180 161.415 597.199)" fill="#224769" fill-opacity="0.6"/>
<ellipse cx="70.0835" cy="632.406" rx="1.5856" ry="1.57712" transform="rotate(-180 70.0835 632.406)" fill="#224769" fill-opacity="0.6"/>
<ellipse cx="70.0835" cy="597.199" rx="1.5856" ry="1.57712" transform="rotate(-180 70.0835 597.199)" fill="#224769" fill-opacity="0.6"/>
<ellipse cx="115.749" cy="632.406" rx="1.5856" ry="1.57712" transform="rotate(-180 115.749 632.406)" fill="#224769" fill-opacity="0.6"/>
<ellipse cx="115.749" cy="597.199" rx="1.5856" ry="1.57712" transform="rotate(-180 115.749 597.199)" fill="#224769" fill-opacity="0.6"/>
<ellipse cx="24.4184" cy="632.406" rx="1.5856" ry="1.57712" transform="rotate(-180 24.4184 632.406)" fill="#224769" fill-opacity="0.6"/>
<ellipse cx="24.4184" cy="597.199" rx="1.5856" ry="1.57712" transform="rotate(-180 24.4184 597.199)" fill="#224769" fill-opacity="0.6"/>
<ellipse cx="138.582" cy="632.406" rx="1.5856" ry="1.57712" transform="rotate(-180 138.582 632.406)" fill="#224769" fill-opacity="0.6"/>
<ellipse cx="138.582" cy="597.199" rx="1.5856" ry="1.57712" transform="rotate(-180 138.582 597.199)" fill="#224769" fill-opacity="0.6"/>
<ellipse cx="47.2509" cy="632.406" rx="1.5856" ry="1.57712" transform="rotate(-180 47.2509 632.406)" fill="#224769" fill-opacity="0.6"/>
<ellipse cx="47.2509" cy="597.199" rx="1.5856" ry="1.57712" transform="rotate(-180 47.2509 597.199)" fill="#224769" fill-opacity="0.6"/>
<ellipse cx="92.9164" cy="632.406" rx="1.5856" ry="1.57712" transform="rotate(-180 92.9164 632.406)" fill="#224769" fill-opacity="0.6"/>
<ellipse cx="92.916" cy="597.199" rx="1.5856" ry="1.57712" transform="rotate(-180 92.916 597.199)" fill="#224769" fill-opacity="0.6"/>
<ellipse cx="161.415" cy="561.992" rx="1.5856" ry="1.57712" transform="rotate(-180 161.415 561.992)" fill="#224769" fill-opacity="0.6"/>
<ellipse cx="70.0835" cy="561.992" rx="1.5856" ry="1.57712" transform="rotate(-180 70.0835 561.992)" fill="#224769" fill-opacity="0.6"/>
<ellipse cx="115.749" cy="561.992" rx="1.5856" ry="1.57712" transform="rotate(-180 115.749 561.992)" fill="#224769" fill-opacity="0.6"/>
<ellipse cx="24.4184" cy="561.992" rx="1.5856" ry="1.57712" transform="rotate(-180 24.4184 561.992)" fill="#224769" fill-opacity="0.6"/>
<ellipse cx="138.582" cy="561.992" rx="1.5856" ry="1.57712" transform="rotate(-180 138.582 561.992)" fill="#224769" fill-opacity="0.6"/>
<ellipse cx="47.2509" cy="561.992" rx="1.5856" ry="1.57712" transform="rotate(-180 47.2509 561.992)" fill="#224769" fill-opacity="0.6"/>
<ellipse cx="92.9164" cy="561.992" rx="1.5856" ry="1.57712" transform="rotate(-180 92.9164 561.992)" fill="#224769" fill-opacity="0.6"/>
<ellipse cx="1.58566" cy="561.992" rx="1.5856" ry="1.57712" transform="rotate(-180 1.58566 561.992)" fill="#224769" fill-opacity="0.6"/>
<ellipse cx="161.415" cy="526.785" rx="1.5856" ry="1.57712" transform="rotate(-180 161.415 526.785)" fill="#224769" fill-opacity="0.6"/>
<ellipse cx="70.0835" cy="526.785" rx="1.5856" ry="1.57712" transform="rotate(-180 70.0835 526.785)" fill="#224769" fill-opacity="0.6"/>
<ellipse cx="115.749" cy="526.785" rx="1.5856" ry="1.57712" transform="rotate(-180 115.749 526.785)" fill="#224769" fill-opacity="0.6"/>
<ellipse cx="24.4184" cy="526.785" rx="1.5856" ry="1.57712" transform="rotate(-180 24.4184 526.785)" fill="#224769" fill-opacity="0.6"/>
<ellipse cx="138.582" cy="526.785" rx="1.5856" ry="1.57712" transform="rotate(-180 138.582 526.785)" fill="#224769" fill-opacity="0.6"/>
<ellipse cx="47.2509" cy="526.785" rx="1.5856" ry="1.57712" transform="rotate(-180 47.2509 526.785)" fill="#224769" fill-opacity="0.6"/>
<ellipse cx="92.9164" cy="526.785" rx="1.5856" ry="1.57712" transform="rotate(-180 92.9164 526.785)" fill="#224769" fill-opacity="0.6"/>
<ellipse cx="1.58566" cy="526.785" rx="1.5856" ry="1.57712" transform="rotate(-180 1.58566 526.785)" fill="#224769" fill-opacity="0.6"/>
<ellipse cx="161.415" cy="491.577" rx="1.5856" ry="1.57712" transform="rotate(-180 161.415 491.577)" fill="#224769" fill-opacity="0.6"/>
<ellipse cx="70.0835" cy="491.577" rx="1.5856" ry="1.57712" transform="rotate(-180 70.0835 491.577)" fill="#224769" fill-opacity="0.6"/>
<ellipse cx="115.749" cy="491.577" rx="1.5856" ry="1.57712" transform="rotate(-180 115.749 491.577)" fill="#224769" fill-opacity="0.6"/>
<ellipse cx="24.4184" cy="491.577" rx="1.5856" ry="1.57712" transform="rotate(-180 24.4184 491.577)" fill="#224769" fill-opacity="0.6"/>
<ellipse cx="138.582" cy="491.577" rx="1.5856" ry="1.57712" transform="rotate(-180 138.582 491.577)" fill="#224769" fill-opacity="0.6"/>
<ellipse cx="47.2509" cy="491.577" rx="1.5856" ry="1.57712" transform="rotate(-180 47.2509 491.577)" fill="#224769" fill-opacity="0.6"/>
<ellipse cx="92.9164" cy="491.577" rx="1.5856" ry="1.57712" transform="rotate(-180 92.9164 491.577)" fill="#224769" fill-opacity="0.6"/>
<ellipse cx="1.58566" cy="491.577" rx="1.5856" ry="1.57712" transform="rotate(-180 1.58566 491.577)" fill="#224769" fill-opacity="0.6"/>
<ellipse cx="161.415" cy="795.406" rx="1.5856" ry="1.57712" transform="rotate(-180 161.415 795.406)" fill="#224769" fill-opacity="0.6"/>
<ellipse cx="161.415" cy="760.199" rx="1.5856" ry="1.57712" transform="rotate(-180 161.415 760.199)" fill="#224769" fill-opacity="0.6"/>
<ellipse cx="70.0835" cy="795.406" rx="1.5856" ry="1.57712" transform="rotate(-180 70.0835 795.406)" fill="#224769" fill-opacity="0.6"/>
<ellipse cx="70.0835" cy="760.199" rx="1.5856" ry="1.57712" transform="rotate(-180 70.0835 760.199)" fill="#224769" fill-opacity="0.6"/>
<ellipse cx="115.749" cy="795.406" rx="1.5856" ry="1.57712" transform="rotate(-180 115.749 795.406)" fill="#224769" fill-opacity="0.6"/>
<ellipse cx="115.749" cy="760.199" rx="1.5856" ry="1.57712" transform="rotate(-180 115.749 760.199)" fill="#224769" fill-opacity="0.6"/>
<ellipse cx="24.4184" cy="795.406" rx="1.5856" ry="1.57712" transform="rotate(-180 24.4184 795.406)" fill="#224769" fill-opacity="0.6"/>
<ellipse cx="24.4184" cy="760.199" rx="1.5856" ry="1.57712" transform="rotate(-180 24.4184 760.199)" fill="#224769" fill-opacity="0.6"/>
<ellipse cx="138.582" cy="795.406" rx="1.5856" ry="1.57712" transform="rotate(-180 138.582 795.406)" fill="#224769" fill-opacity="0.6"/>
<ellipse cx="138.582" cy="760.199" rx="1.5856" ry="1.57712" transform="rotate(-180 138.582 760.199)" fill="#224769" fill-opacity="0.6"/>
<ellipse cx="47.2509" cy="795.406" rx="1.5856" ry="1.57712" transform="rotate(-180 47.2509 795.406)" fill="#224769" fill-opacity="0.6"/>
<ellipse cx="47.2509" cy="760.199" rx="1.5856" ry="1.57712" transform="rotate(-180 47.2509 760.199)" fill="#224769" fill-opacity="0.6"/>
<ellipse cx="92.9164" cy="795.406" rx="1.5856" ry="1.57712" transform="rotate(-180 92.9164 795.406)" fill="#224769" fill-opacity="0.6"/>
<ellipse cx="92.916" cy="760.199" rx="1.5856" ry="1.57712" transform="rotate(-180 92.916 760.199)" fill="#224769" fill-opacity="0.6"/>
<ellipse cx="161.415" cy="724.992" rx="1.5856" ry="1.57712" transform="rotate(-180 161.415 724.992)" fill="#224769" fill-opacity="0.6"/>
<ellipse cx="70.0835" cy="724.992" rx="1.5856" ry="1.57712" transform="rotate(-180 70.0835 724.992)" fill="#224769" fill-opacity="0.6"/>
<ellipse cx="115.749" cy="724.992" rx="1.5856" ry="1.57712" transform="rotate(-180 115.749 724.992)" fill="#224769" fill-opacity="0.6"/>
<ellipse cx="24.4184" cy="724.992" rx="1.5856" ry="1.57712" transform="rotate(-180 24.4184 724.992)" fill="#224769" fill-opacity="0.6"/>
<ellipse cx="138.582" cy="724.992" rx="1.5856" ry="1.57712" transform="rotate(-180 138.582 724.992)" fill="#224769" fill-opacity="0.6"/>
<ellipse cx="47.2509" cy="724.992" rx="1.5856" ry="1.57712" transform="rotate(-180 47.2509 724.992)" fill="#224769" fill-opacity="0.6"/>
<ellipse cx="92.9164" cy="724.992" rx="1.5856" ry="1.57712" transform="rotate(-180 92.9164 724.992)" fill="#224769" fill-opacity="0.6"/>
<ellipse cx="1.58566" cy="724.992" rx="1.5856" ry="1.57712" transform="rotate(-180 1.58566 724.992)" fill="#224769" fill-opacity="0.6"/>
<ellipse cx="161.415" cy="689.785" rx="1.5856" ry="1.57712" transform="rotate(-180 161.415 689.785)" fill="#224769" fill-opacity="0.6"/>
<ellipse cx="70.0835" cy="689.785" rx="1.5856" ry="1.57712" transform="rotate(-180 70.0835 689.785)" fill="#224769" fill-opacity="0.6"/>
<ellipse cx="115.749" cy="689.785" rx="1.5856" ry="1.57712" transform="rotate(-180 115.749 689.785)" fill="#224769" fill-opacity="0.6"/>
<ellipse cx="24.4184" cy="689.785" rx="1.5856" ry="1.57712" transform="rotate(-180 24.4184 689.785)" fill="#224769" fill-opacity="0.6"/>
<ellipse cx="138.582" cy="689.785" rx="1.5856" ry="1.57712" transform="rotate(-180 138.582 689.785)" fill="#224769" fill-opacity="0.6"/>
<ellipse cx="47.2509" cy="689.785" rx="1.5856" ry="1.57712" transform="rotate(-180 47.2509 689.785)" fill="#224769" fill-opacity="0.6"/>
<ellipse cx="92.9164" cy="689.785" rx="1.5856" ry="1.57712" transform="rotate(-180 92.9164 689.785)" fill="#224769" fill-opacity="0.6"/>
<ellipse cx="1.58566" cy="689.785" rx="1.5856" ry="1.57712" transform="rotate(-180 1.58566 689.785)" fill="#224769" fill-opacity="0.6"/>
<ellipse cx="161.415" cy="654.577" rx="1.5856" ry="1.57712" transform="rotate(-180 161.415 654.577)" fill="#224769" fill-opacity="0.6"/>
<ellipse cx="70.0835" cy="654.577" rx="1.5856" ry="1.57712" transform="rotate(-180 70.0835 654.577)" fill="#224769" fill-opacity="0.6"/>
<ellipse cx="115.749" cy="654.577" rx="1.5856" ry="1.57712" transform="rotate(-180 115.749 654.577)" fill="#224769" fill-opacity="0.6"/>
<ellipse cx="24.4184" cy="654.577" rx="1.5856" ry="1.57712" transform="rotate(-180 24.4184 654.577)" fill="#224769" fill-opacity="0.6"/>
<ellipse cx="138.582" cy="654.577" rx="1.5856" ry="1.57712" transform="rotate(-180 138.582 654.577)" fill="#224769" fill-opacity="0.6"/>
<ellipse cx="47.2509" cy="654.577" rx="1.5856" ry="1.57712" transform="rotate(-180 47.2509 654.577)" fill="#224769" fill-opacity="0.6"/>
<ellipse cx="92.9164" cy="654.577" rx="1.5856" ry="1.57712" transform="rotate(-180 92.9164 654.577)" fill="#224769" fill-opacity="0.6"/>
<ellipse cx="1.58566" cy="654.577" rx="1.5856" ry="1.57712" transform="rotate(-180 1.58566 654.577)" fill="#224769" fill-opacity="0.6"/>
<ellipse cx="161.415" cy="958.406" rx="1.5856" ry="1.57712" transform="rotate(-180 161.415 958.406)" fill="#224769" fill-opacity="0.6"/>
<ellipse cx="161.415" cy="923.199" rx="1.5856" ry="1.57712" transform="rotate(-180 161.415 923.199)" fill="#224769" fill-opacity="0.6"/>
<ellipse cx="70.0835" cy="958.406" rx="1.5856" ry="1.57712" transform="rotate(-180 70.0835 958.406)" fill="#224769" fill-opacity="0.6"/>
<ellipse cx="70.0835" cy="923.199" rx="1.5856" ry="1.57712" transform="rotate(-180 70.0835 923.199)" fill="#224769" fill-opacity="0.6"/>
<ellipse cx="115.749" cy="958.406" rx="1.5856" ry="1.57712" transform="rotate(-180 115.749 958.406)" fill="#224769" fill-opacity="0.6"/>
<ellipse cx="115.749" cy="923.199" rx="1.5856" ry="1.57712" transform="rotate(-180 115.749 923.199)" fill="#224769" fill-opacity="0.6"/>
<ellipse cx="24.4184" cy="958.406" rx="1.5856" ry="1.57712" transform="rotate(-180 24.4184 958.406)" fill="#224769" fill-opacity="0.6"/>
<ellipse cx="24.4184" cy="923.199" rx="1.5856" ry="1.57712" transform="rotate(-180 24.4184 923.199)" fill="#224769" fill-opacity="0.6"/>
<ellipse cx="138.582" cy="958.406" rx="1.5856" ry="1.57712" transform="rotate(-180 138.582 958.406)" fill="#224769" fill-opacity="0.6"/>
<ellipse cx="138.582" cy="923.199" rx="1.5856" ry="1.57712" transform="rotate(-180 138.582 923.199)" fill="#224769" fill-opacity="0.6"/>
<ellipse cx="47.2509" cy="958.406" rx="1.5856" ry="1.57712" transform="rotate(-180 47.2509 958.406)" fill="#224769" fill-opacity="0.6"/>
<ellipse cx="47.2509" cy="923.199" rx="1.5856" ry="1.57712" transform="rotate(-180 47.2509 923.199)" fill="#224769" fill-opacity="0.6"/>
<ellipse cx="92.9164" cy="958.406" rx="1.5856" ry="1.57712" transform="rotate(-180 92.9164 958.406)" fill="#224769" fill-opacity="0.6"/>
<ellipse cx="92.916" cy="923.199" rx="1.5856" ry="1.57712" transform="rotate(-180 92.916 923.199)" fill="#224769" fill-opacity="0.6"/>
<ellipse cx="161.415" cy="887.992" rx="1.5856" ry="1.57712" transform="rotate(-180 161.415 887.992)" fill="#224769" fill-opacity="0.6"/>
<ellipse cx="70.0835" cy="887.992" rx="1.5856" ry="1.57712" transform="rotate(-180 70.0835 887.992)" fill="#224769" fill-opacity="0.6"/>
<ellipse cx="115.749" cy="887.992" rx="1.5856" ry="1.57712" transform="rotate(-180 115.749 887.992)" fill="#224769" fill-opacity="0.6"/>
<ellipse cx="24.4184" cy="887.992" rx="1.5856" ry="1.57712" transform="rotate(-180 24.4184 887.992)" fill="#224769" fill-opacity="0.6"/>
<ellipse cx="138.582" cy="887.992" rx="1.5856" ry="1.57712" transform="rotate(-180 138.582 887.992)" fill="#224769" fill-opacity="0.6"/>
<ellipse cx="47.2509" cy="887.992" rx="1.5856" ry="1.57712" transform="rotate(-180 47.2509 887.992)" fill="#224769" fill-opacity="0.6"/>
<ellipse cx="92.9164" cy="887.992" rx="1.5856" ry="1.57712" transform="rotate(-180 92.9164 887.992)" fill="#224769" fill-opacity="0.6"/>
<ellipse cx="1.58566" cy="887.992" rx="1.5856" ry="1.57712" transform="rotate(-180 1.58566 887.992)" fill="#224769" fill-opacity="0.6"/>
<ellipse cx="161.415" cy="852.785" rx="1.5856" ry="1.57712" transform="rotate(-180 161.415 852.785)" fill="#224769" fill-opacity="0.6"/>
<ellipse cx="70.0835" cy="852.785" rx="1.5856" ry="1.57712" transform="rotate(-180 70.0835 852.785)" fill="#224769" fill-opacity="0.6"/>
<ellipse cx="115.749" cy="852.785" rx="1.5856" ry="1.57712" transform="rotate(-180 115.749 852.785)" fill="#224769" fill-opacity="0.6"/>
<ellipse cx="24.4184" cy="852.785" rx="1.5856" ry="1.57712" transform="rotate(-180 24.4184 852.785)" fill="#224769" fill-opacity="0.6"/>
<ellipse cx="138.582" cy="852.785" rx="1.5856" ry="1.57712" transform="rotate(-180 138.582 852.785)" fill="#224769" fill-opacity="0.6"/>
<ellipse cx="47.2509" cy="852.785" rx="1.5856" ry="1.57712" transform="rotate(-180 47.2509 852.785)" fill="#224769" fill-opacity="0.6"/>
<ellipse cx="92.9164" cy="852.785" rx="1.5856" ry="1.57712" transform="rotate(-180 92.9164 852.785)" fill="#224769" fill-opacity="0.6"/>
<ellipse cx="1.58566" cy="852.785" rx="1.5856" ry="1.57712" transform="rotate(-180 1.58566 852.785)" fill="#224769" fill-opacity="0.6"/>
<ellipse cx="161.415" cy="817.577" rx="1.5856" ry="1.57712" transform="rotate(-180 161.415 817.577)" fill="#224769" fill-opacity="0.6"/>
<ellipse cx="70.0835" cy="817.577" rx="1.5856" ry="1.57712" transform="rotate(-180 70.0835 817.577)" fill="#224769" fill-opacity="0.6"/>
<ellipse cx="115.749" cy="817.577" rx="1.5856" ry="1.57712" transform="rotate(-180 115.749 817.577)" fill="#224769" fill-opacity="0.6"/>
<ellipse cx="24.4184" cy="817.577" rx="1.5856" ry="1.57712" transform="rotate(-180 24.4184 817.577)" fill="#224769" fill-opacity="0.6"/>
<ellipse cx="138.582" cy="817.577" rx="1.5856" ry="1.57712" transform="rotate(-180 138.582 817.577)" fill="#224769" fill-opacity="0.6"/>
<ellipse cx="47.2509" cy="817.577" rx="1.5856" ry="1.57712" transform="rotate(-180 47.2509 817.577)" fill="#224769" fill-opacity="0.6"/>
<ellipse cx="92.9164" cy="817.577" rx="1.5856" ry="1.57712" transform="rotate(-180 92.9164 817.577)" fill="#224769" fill-opacity="0.6"/>
<ellipse cx="1.58566" cy="817.577" rx="1.5856" ry="1.57712" transform="rotate(-180 1.58566 817.577)" fill="#224769" fill-opacity="0.6"/>
</svg>
