<svg width="26" height="26" viewBox="0 0 26 26" fill="none" xmlns="http://www.w3.org/2000/svg">
<path d="M18.4166 11.9166H7.58329C6.38668 11.9166 5.41663 12.8867 5.41663 14.0833V20.5833C5.41663 21.7799 6.38668 22.75 7.58329 22.75H18.4166C19.6132 22.75 20.5833 21.7799 20.5833 20.5833V14.0833C20.5833 12.8867 19.6132 11.9166 18.4166 11.9166Z" stroke="#FCBC7D" stroke-width="2" stroke-linecap="round" stroke-linejoin="round"/>
<path d="M13 18.4167C13.5983 18.4167 14.0833 17.9316 14.0833 17.3333C14.0833 16.735 13.5983 16.25 13 16.25C12.4017 16.25 11.9166 16.735 11.9166 17.3333C11.9166 17.9316 12.4017 18.4167 13 18.4167Z" stroke="#FCBC7D" stroke-width="2" stroke-linecap="round" stroke-linejoin="round"/>
<path d="M8.66663 11.9166V6.49996C8.66663 5.35069 9.12317 4.24849 9.93583 3.43583C10.7485 2.62317 11.8507 2.16663 13 2.16663C14.1492 2.16663 15.2514 2.62317 16.0641 3.43583C16.8767 4.24849 17.3333 5.35069 17.3333 6.49996" stroke="#FCBC7D" stroke-width="2" stroke-linecap="round" stroke-linejoin="round"/>
</svg>
