<svg width="26" height="26" viewBox="0 0 26 26" fill="none" xmlns="http://www.w3.org/2000/svg">
<path d="M13 17.3333C15.3932 17.3333 17.3333 15.3932 17.3333 13C17.3333 10.6067 15.3932 8.66663 13 8.66663C10.6067 8.66663 8.66663 10.6067 8.66663 13C8.66663 15.3932 10.6067 17.3333 13 17.3333Z" stroke="#FCBC7D" stroke-width="2.16667" stroke-linecap="round" stroke-linejoin="round"/>
<path d="M17.3333 13.0001V14.6251C17.3333 15.3434 17.6187 16.0322 18.1266 16.5402C18.6345 17.0481 19.3234 17.3334 20.0417 17.3334C20.76 17.3334 21.4488 17.0481 21.9567 16.5402C22.4647 16.0322 22.75 15.3434 22.75 14.6251V13.0001C22.7527 10.905 22.0805 8.86482 20.8329 7.1817C19.5854 5.49858 17.8289 4.26208 15.8236 3.65535C13.8183 3.04863 11.6709 3.10396 9.69955 3.81315C7.72818 4.52235 6.03768 5.84768 4.87847 7.59281C3.71926 9.33795 3.15301 11.4101 3.2636 13.5022C3.37418 15.5943 4.15573 17.5952 5.49245 19.2084C6.82917 20.8216 8.64997 21.9613 10.6851 22.4588C12.7203 22.9562 14.8615 22.7848 16.7917 21.9701" stroke="#FCBC7D" stroke-width="2.16667" stroke-linecap="round" stroke-linejoin="round"/>
</svg>
