<svg width="153" height="55" fill="none" xmlns="http://www.w3.org/2000/svg"><path fill-rule="evenodd" clip-rule="evenodd" d="M25.1 19.5c0-4 .8-7.3 2.4-10.2 1.6-3 4-5.2 7-6.8C37.3.8 40.8 0 45 0s7.6.8 10.6 2.5a17 17 0 0 1 7 6.8c1.6 2.9 2.4 6.3 2.4 10.2 0 3.9-.8 7.3-2.5 10.2-1.6 2.9-3.9 5.2-6.9 6.8-3 1.7-6.5 2.5-10.6 2.5-4 0-7.6-.8-10.6-2.5-3-1.6-5.3-3.9-6.9-6.8-1.6-3-2.4-6.4-2.4-10.2Zm12.3 0c0 3.1.6 5.5 1.8 7.3 1.3 1.7 3.2 2.6 5.8 2.6 2.6 0 4.5-.9 5.8-2.6 1.2-1.8 1.9-4.2 1.9-7.3 0-3.1-.7-5.6-2-7.3-1.2-1.8-3-2.6-5.7-2.6-2.6 0-4.5.8-5.8 2.6a12.6 12.6 0 0 0-1.8 7.3ZM5.8 48.3a40 40 0 0 1-5.8-.5V39l2.1.3 1.7.1c1.6 0 2.7-.4 3.3-1.3.6-.8.9-2.2.9-4.1V.6h11.7V34c0 3.3-.4 6-1.3 8.1a9.2 9.2 0 0 1-4.5 4.8c-2 1-4.7 1.5-8.1 1.5Zm66-39a21 21 0 0 0-2.3 10.2c0 3.8.8 7.2 2.4 10.2 1.6 2.9 4 5.2 6.9 6.8 3 1.7 6.5 2.5 10.6 2.5 2.8 0 5.4-.4 7.8-1.2h5.9v17h2.3v-17h6.7v-1.9h-11c2.4-1.6 4.4-3.6 5.8-6.2 1.6-3 2.5-6.3 2.5-10.2 0-4-.9-7.3-2.5-10.2a17 17 0 0 0-7-6.8C97 .8 93.6 0 89.5 0s-7.6.8-10.6 2.5a17 17 0 0 0-7 6.8Zm11.8 17.5a12.8 12.8 0 0 1-1.8-7.3c0-3.2.6-5.6 1.8-7.3 1.2-1.8 3.2-2.6 5.8-2.6 2.6 0 4.5.8 5.7 2.6 1.3 1.7 2 4.2 2 7.3 0 3-.7 5.5-2 7.3-1.2 1.7-3.1 2.6-5.7 2.6s-4.6-.9-5.8-2.6Zm58.2 27.6c1.2.4 2.6.6 4.1.6 1.5 0 2.8-.2 3.8-.7 1-.4 1.9-1 2.4-1.8.6-.8.9-1.8.9-2.8a4 4 0 0 0-1.3-3.1 9 9 0 0 0-4-1.7l-3-.6a5.8 5.8 0 0 1-2.7-1c-.5-.6-.8-1.3-.8-2.2 0-1 .4-1.9 1.3-2.5.9-.7 2-1 3.5-1 1.2 0 2.3.2 3.2.5a8 8 0 0 1 2.7 1.6l.8-1.7a7.8 7.8 0 0 0-3-1.7 10.8 10.8 0 0 0-7.4 0c-1 .5-1.9 1.2-2.5 2a5 5 0 0 0-.9 3c0 1.3.5 2.4 1.3 3.2.9.8 2.2 1.4 4 1.8l2.8.5c1.4.3 2.3.6 2.9 1 .5.5.8 1.2.8 2 0 1-.4 1.8-1.2 2.4-.7.6-2 .8-3.6.8-.9 0-1.7 0-2.5-.2a10 10 0 0 1-4-1.8l-.8 1.7c1 .8 2 1.3 3.2 1.7Zm-27-18.5v18.9h2.3V35.9H115Zm7.1 18.9V35.9h7.9c2 0 3.5.5 4.6 1.5a5 5 0 0 1 1.6 4 5 5 0 0 1-1.6 3.9c-1 1-2.6 1.4-4.6 1.4h-5.6v8h-2.3Zm2.3-10h5.3c1.4 0 2.5-.2 3.2-.9.7-.6 1-1.5 1-2.6s-.3-2-1-2.6c-.7-.7-1.8-1-3.2-1h-5.3V45Z" fill="url(#a)"/><defs><linearGradient id="a" x1="169.9" y1="85.1" x2="-93.6" y2="-51.2" gradientUnits="userSpaceOnUse"><stop stop-color="#FAFAFF"/><stop offset="1" stop-color="#343559"/></linearGradient></defs></svg>