<svg width="370" height="388" viewBox="0 0 370 388" fill="none" xmlns="http://www.w3.org/2000/svg">
<g filter="url(#filter0_d_655_6838)">
<rect x="48" y="24" width="273.521" height="290.568" rx="18.5438" fill="white"/>
<rect x="49" y="25" width="271.521" height="288.568" rx="17.5438" stroke="#FFDF00" stroke-width="2"/>
</g>
<path d="M147.32 285V274.425H151.55C152.67 274.425 153.535 274.665 154.145 275.145C154.755 275.625 155.06 276.305 155.06 277.185C155.06 277.845 154.86 278.395 154.46 278.835C154.07 279.275 153.525 279.565 152.825 279.705V279.495C153.605 279.585 154.215 279.855 154.655 280.305C155.105 280.745 155.33 281.34 155.33 282.09C155.33 283.03 155.015 283.75 154.385 284.25C153.765 284.75 152.885 285 151.745 285H147.32ZM148.535 283.995H151.625C152.385 283.995 152.985 283.85 153.425 283.56C153.875 283.26 154.1 282.765 154.1 282.075C154.1 281.375 153.875 280.88 153.425 280.59C152.985 280.29 152.385 280.14 151.625 280.14H148.535V283.995ZM148.535 279.15H151.37C152.19 279.15 152.805 278.99 153.215 278.67C153.625 278.35 153.83 277.89 153.83 277.29C153.83 276.67 153.625 276.205 153.215 275.895C152.805 275.575 152.19 275.415 151.37 275.415H148.535V279.15ZM157.395 285V277.47H158.505V283.875H158.1L162.9 277.47H163.92V285H162.825V278.58H163.23L158.43 285H157.395ZM166.316 285V277.47H169.946C170.816 277.47 171.466 277.64 171.896 277.98C172.336 278.31 172.556 278.8 172.556 279.45C172.556 279.93 172.386 280.335 172.046 280.665C171.716 280.985 171.286 281.175 170.756 281.235V281.055C171.376 281.075 171.871 281.255 172.241 281.595C172.611 281.935 172.796 282.375 172.796 282.915C172.796 283.565 172.556 284.075 172.076 284.445C171.606 284.815 170.936 285 170.066 285H166.316ZM167.471 284.175H170.006C170.536 284.175 170.941 284.065 171.221 283.845C171.511 283.615 171.656 283.29 171.656 282.87C171.656 282.45 171.511 282.13 171.221 281.91C170.941 281.69 170.536 281.58 170.006 281.58H167.471V284.175ZM167.471 280.755H169.871C170.361 280.755 170.741 280.645 171.011 280.425C171.281 280.205 171.416 279.9 171.416 279.51C171.416 279.12 171.281 278.82 171.011 278.61C170.741 278.39 170.361 278.28 169.871 278.28H167.471V280.755ZM179.57 285V281.94C179.28 282.11 178.965 282.24 178.625 282.33C178.285 282.42 177.92 282.465 177.53 282.465C176.47 282.465 175.68 282.22 175.16 281.73C174.65 281.23 174.395 280.475 174.395 279.465V277.47H175.61V279.375C175.61 280.105 175.775 280.635 176.105 280.965C176.445 281.285 176.975 281.445 177.695 281.445C178.065 281.445 178.395 281.405 178.685 281.325C178.975 281.245 179.26 281.11 179.54 280.92V277.47H180.755V285H179.57ZM186.087 285.135C185.417 285.135 184.832 284.98 184.332 284.67C183.832 284.35 183.442 283.9 183.162 283.32C182.892 282.74 182.757 282.045 182.757 281.235C182.757 280.415 182.892 279.715 183.162 279.135C183.442 278.555 183.832 278.11 184.332 277.8C184.832 277.49 185.417 277.335 186.087 277.335C186.767 277.335 187.352 277.51 187.842 277.86C188.342 278.2 188.672 278.665 188.832 279.255H188.652L188.817 277.47H189.987C189.957 277.76 189.927 278.055 189.897 278.355C189.877 278.645 189.867 278.93 189.867 279.21V285H188.652V283.23H188.817C188.657 283.82 188.327 284.285 187.827 284.625C187.327 284.965 186.747 285.135 186.087 285.135ZM186.327 284.145C187.047 284.145 187.617 283.9 188.037 283.41C188.457 282.91 188.667 282.185 188.667 281.235C188.667 280.275 188.457 279.55 188.037 279.06C187.617 278.56 187.047 278.31 186.327 278.31C185.617 278.31 185.047 278.56 184.617 279.06C184.197 279.55 183.987 280.275 183.987 281.235C183.987 282.185 184.197 282.91 184.617 283.41C185.047 283.9 185.617 284.145 186.327 284.145ZM193.922 285V278.445H191.192V277.47H197.882V278.445H195.137V285H193.922ZM199.143 285V277.47H200.253V283.875H199.848L204.648 277.47H205.668V285H204.573V278.58H204.978L200.178 285H199.143Z" fill="#5666F8"/>
<path d="M224.398 281.398C224.593 281.202 224.593 280.886 224.398 280.691L221.216 277.509C221.021 277.313 220.704 277.313 220.509 277.509C220.314 277.704 220.314 278.021 220.509 278.216L223.337 281.044L220.509 283.873C220.314 284.068 220.314 284.384 220.509 284.58C220.704 284.775 221.021 284.775 221.216 284.58L224.398 281.398ZM214 281.544H224.045V280.544H214V281.544Z" fill="#6462EF"/>
<path d="M184.553 79.9942C181.452 80.0089 178.493 80.2726 175.887 80.7338C168.213 82.0894 166.821 84.927 166.821 90.1609V97.0721H184.955V99.3759H160.015C154.745 99.3759 150.13 102.543 148.686 108.571C147.02 115.478 146.947 119.789 148.686 127.001C149.975 132.37 153.053 136.194 158.324 136.194H164.56V127.909C164.56 121.923 169.738 116.644 175.888 116.644H194.001C199.044 116.644 203.068 112.492 203.068 107.429V90.1617C203.068 85.2465 198.922 81.5548 194.001 80.7345C190.885 80.216 187.653 79.9803 184.553 79.9942V79.9942ZM174.746 85.5527C176.619 85.5527 178.149 87.1074 178.149 89.0197C178.149 90.9239 176.619 92.4639 174.746 92.4639C172.866 92.4639 171.344 90.9239 171.344 89.0197C171.343 87.1074 172.866 85.5527 174.746 85.5527V85.5527Z" fill="url(#paint0_linear_655_6838)"/>
<path d="M205.329 99.376V107.429C205.329 113.671 200.036 118.926 194.001 118.926H175.887C170.926 118.926 166.821 123.173 166.821 128.141V145.41C166.821 150.324 171.093 153.215 175.887 154.624C181.627 156.311 187.132 156.617 194.001 154.624C198.565 153.302 203.067 150.642 203.067 145.41V138.498H184.954V136.194H212.135C217.405 136.194 219.37 132.518 221.203 127C223.096 121.32 223.015 115.857 221.203 108.57C219.9 103.323 217.413 99.3752 212.135 99.3752H205.329V99.376ZM195.141 143.106C197.022 143.106 198.544 144.646 198.544 146.551C198.544 148.462 197.021 150.017 195.141 150.017C193.268 150.017 191.739 148.462 191.739 146.551C191.739 144.646 193.268 143.106 195.141 143.106V143.106Z" fill="url(#paint1_linear_655_6838)"/>
<path opacity="0.444" d="M209.461 158.829C209.461 161.431 198.581 163.541 185.16 163.541C171.739 163.541 160.858 161.431 160.858 158.829C160.858 156.227 171.738 154.117 185.16 154.117C198.581 154.117 209.461 156.226 209.461 158.829Z" fill="url(#paint2_radial_655_6838)"/>
<g filter="url(#filter1_b_655_6838)">
<line x1="48" y1="248.5" x2="322" y2="248.5" stroke="black" stroke-opacity="0.05"/>
</g>
<path d="M119.877 224V201.44H129.221C131.632 201.44 133.477 202.016 134.757 203.168C136.037 204.32 136.677 205.909 136.677 207.936C136.677 209.963 136.037 211.563 134.757 212.736C133.477 213.888 131.632 214.464 129.221 214.464H122.853V224H119.877ZM122.853 212.032H128.933C130.512 212.032 131.706 211.68 132.517 210.976C133.328 210.251 133.733 209.237 133.733 207.936C133.733 206.635 133.328 205.632 132.517 204.928C131.706 204.224 130.512 203.872 128.933 203.872H122.853V212.032ZM146.257 224V213.44L146.897 215.392L137.489 201.44H140.945L148.177 212.448H147.441L154.673 201.44H158.033L148.625 215.392L149.233 213.44V224H146.257ZM166.254 224V203.968H158.446V201.44H177.102V203.968H169.262V224H166.254ZM180.283 224V201.44H183.259V211.296H196.379V201.44H199.387V224H196.379V213.824H183.259V224H180.283ZM204.014 212.704C204.014 210.336 204.43 208.288 205.262 206.56C206.094 204.832 207.288 203.499 208.846 202.56C210.424 201.621 212.302 201.152 214.478 201.152C216.632 201.152 218.488 201.621 220.046 202.56C221.624 203.499 222.84 204.832 223.694 206.56C224.547 208.288 224.974 210.325 224.974 212.672C224.974 215.04 224.547 217.099 223.694 218.848C222.84 220.576 221.624 221.92 220.046 222.88C218.488 223.819 216.632 224.288 214.478 224.288C212.302 224.288 210.435 223.819 208.878 222.88C207.32 221.92 206.115 220.576 205.262 218.848C204.43 217.099 204.014 215.051 204.014 212.704ZM207.15 212.704C207.15 215.52 207.768 217.717 209.006 219.296C210.243 220.875 212.067 221.664 214.478 221.664C216.803 221.664 218.606 220.885 219.886 219.328C221.187 217.749 221.838 215.541 221.838 212.704C221.838 209.867 221.198 207.669 219.918 206.112C218.638 204.555 216.824 203.776 214.478 203.776C212.067 203.776 210.243 204.555 209.006 206.112C207.768 207.669 207.15 209.867 207.15 212.704ZM229.69 224V201.44H231.994L246.138 220.128H245.37V201.44H248.154V224H245.882L231.738 205.312H232.474V224H229.69Z" fill="#14355C"/>
<defs>
<filter id="filter0_d_655_6838" x="0.0951872" y="0.820251" width="369.331" height="386.377" filterUnits="userSpaceOnUse" color-interpolation-filters="sRGB">
<feFlood flood-opacity="0" result="BackgroundImageFix"/>
<feColorMatrix in="SourceAlpha" type="matrix" values="0 0 0 0 0 0 0 0 0 0 0 0 0 0 0 0 0 0 127 0" result="hardAlpha"/>
<feMorphology radius="9.2719" operator="erode" in="SourceAlpha" result="effect1_dropShadow_655_6838"/>
<feOffset dy="24.7251"/>
<feGaussianBlur stdDeviation="28.5884"/>
<feColorMatrix type="matrix" values="0 0 0 0 0.0625882 0 0 0 0 0.0926346 0 0 0 0 0.15702 0 0 0 0.2 0"/>
<feBlend mode="normal" in2="BackgroundImageFix" result="effect1_dropShadow_655_6838"/>
<feBlend mode="normal" in="SourceGraphic" in2="effect1_dropShadow_655_6838" result="shape"/>
</filter>
<filter id="filter1_b_655_6838" x="44" y="244" width="282" height="9" filterUnits="userSpaceOnUse" color-interpolation-filters="sRGB">
<feFlood flood-opacity="0" result="BackgroundImageFix"/>
<feGaussianBlur in="BackgroundImage" stdDeviation="2"/>
<feComposite in2="SourceAlpha" operator="in" result="effect1_backgroundBlur_655_6838"/>
<feBlend mode="normal" in="SourceGraphic" in2="effect1_backgroundBlur_655_6838" result="shape"/>
</filter>
<linearGradient id="paint0_linear_655_6838" x1="145.591" y1="82.1552" x2="187.417" y2="117.824" gradientUnits="userSpaceOnUse">
<stop stop-color="#5A9FD4"/>
<stop offset="1" stop-color="#306998"/>
</linearGradient>
<linearGradient id="paint1_linear_655_6838" x1="203.153" y1="139.996" x2="188.154" y2="118.962" gradientUnits="userSpaceOnUse">
<stop stop-color="#FFD43B"/>
<stop offset="1" stop-color="#FFE873"/>
</linearGradient>
<radialGradient id="paint2_radial_655_6838" cx="0" cy="0" r="1" gradientUnits="userSpaceOnUse" gradientTransform="translate(185.062 158.694) rotate(-90) scale(4.71345 20.7196)">
<stop stop-color="#B8B8B8" stop-opacity="0.498"/>
<stop offset="1" stop-color="#7F7F7F" stop-opacity="0"/>
</radialGradient>
</defs>
</svg>
