<svg width="63" height="60" fill="none" xmlns="http://www.w3.org/2000/svg"><path fill-rule="evenodd" clip-rule="evenodd" d="m1 1.5-.5 3c-.3 3.4-.6 15-.5 17.2 0 .7.1 1.5.4 2.2C1 25 2.3 25 3 24c.3-.3.5-.8.5-1.3l.6-4.2L4.8 6c0-1.4 0-2.8-.2-4.2-.2-1-1-1.9-1.8-1.8-1 0-1.5.7-1.8 1.5Zm28.5 27.6.2-.9.5-1.6c2.7-8 7-15.1 12-21.8.6-.8 1.3-1.6 2.1-2 .4-.3 1.3-.3 1.8 0 .4.2.7 1 .6 1.5-.2.8-.5 1.7-1 2.5l-8.6 15.5-2.7 4.5-.7 1.3a19 19 0 0 1-1.3 1.8c-.4.7-1.2 1-1.9.6h-.1c-.5-.3-.9-.5-.9-1.4ZM59 60l-1-.2c-.8 0-1.6-.2-2.3-.3l-13.3-3-2.7-1.1c-1.2-.6-1.6-1.5-1.4-2.4.2-1 1-1.5 2.3-1.6.9 0 1.8 0 2.7.2L60 56c.7.1 1.3.4 1.8.8 1.2 1 .8 2.7-.7 3l-1.3.2H59Z" fill="#fff"/></svg>