<svg width="197" height="198" fill="none" xmlns="http://www.w3.org/2000/svg"><g filter="url(#a)"><path d="M189.4 99.7c0 18-5.4 35.6-15.6 50.5a92.4 92.4 0 0 1-41.6 33.5A94.5 94.5 0 0 1 31 164 89.3 89.3 0 0 1 11 65C18 48.3 30 34 45.1 24A94.1 94.1 0 0 1 96.6 8.7v90.8l92.8.2Z" fill="url(#b)"/></g><path d="M96.6 172.5c41.2 0 74.6-33 74.6-73.7A74.1 74.1 0 0 0 96.6 25C55.4 25 22 58 22 98.8a74.1 74.1 0 0 0 74.6 73.7Z" fill="#fff"/><path d="M153.9.8a38.6 38.6 0 0 0-34.4 32.6v.5a15.7 15.7 0 0 1-17.1 13.9 52.3 52.3 0 0 0-52.5 29 51.2 51.2 0 0 0 38 73.1 52.3 52.3 0 0 0 54.2-25.8c5.3-9.3 7.4-20 6.3-30.6a15.6 15.6 0 0 1 14-17h.5a38.4 38.4 0 0 0 33.6-42.3A38 38 0 0 0 153.9.8Z" fill="url(#c)"/><path d="M91 109.5v2.2c0 1 0 2-.3 2.7-.2.8-.5 1.4-.9 1.9-.3.4-.8.8-1.4 1-.5.2-1.1.3-1.8.3-.5 0-1 0-1.5-.2a3.7 3.7 0 0 1-2.1-1.8c-.3-.4-.5-1-.6-1.6a11 11 0 0 1-.2-2.3v-2.2c0-1 0-2 .3-2.7.2-.8.5-1.4.9-1.8.4-.5.8-.8 1.4-1a5 5 0 0 1 1.8-.3c.5 0 1 0 1.5.2a3.5 3.5 0 0 1 2.2 1.7l.6 1.7.2 2.2Zm-2.2 2.5v-4.3l-.4-1c0-.3-.2-.6-.4-.7-.2-.2-.4-.4-.6-.4l-.8-.2a2 2 0 0 0-1 .2l-.6.7-.5 1.1v6.1c0 .4.2.7.3 1l.4.8.6.4.8.1c.4 0 .7 0 1-.2l.7-.6.4-1.2.1-1.8Zm13.4 3.6v1.8H93V116l4.4-4.8c.5-.6.9-1 1.1-1.5l.6-1a2.7 2.7 0 0 0 0-2.1l-.7-.8a2 2 0 0 0-1.1-.3c-.5 0-1 .1-1.3.4a2 2 0 0 0-.8.9c-.2.3-.2.8-.2 1.3h-2.3c0-.8.2-1.5.5-2.2a4 4 0 0 1 1.6-1.6c.7-.4 1.5-.5 2.5-.5.9 0 1.7.1 2.3.4.6.3 1.1.7 1.4 1.3.4.6.5 1.2.5 2 0 .4 0 .8-.2 1.3a6 6 0 0 1-.5 1.2l-1 1.2-1 1.3-3 3.2h6.3ZM84.4 83v11.7h-2V83h2Zm7 0-4.7 6.7h-2.9l-.2-1.8h2L89 83h2.4Zm-2 11.7-3.8-5.3 1.3-1.6 4.9 6.9h-2.4Zm8-4.4h-3v-1.6h3c.5 0 .9 0 1.2-.2.3-.2.6-.4.7-.7.2-.3.3-.7.3-1 0-.4-.1-.8-.3-1-.1-.4-.4-.7-.7-.9-.3-.2-.7-.3-1.3-.3H95v10h-2V83h4.4a5 5 0 0 1 2.3.5c.7.3 1.2.8 1.5 1.3.3.6.5 1.2.5 2 0 .7-.2 1.3-.5 1.9-.3.5-.8 1-1.5 1.2-.6.3-1.4.4-2.3.4Zm15.3-1.8v.7c0 .9-.2 1.6-.4 2.3-.2.7-.5 1.3-1 1.8-.4.5-.9.9-1.5 1.2a5 5 0 0 1-2 .3c-.7 0-1.3 0-2-.3-.5-.3-1-.7-1.4-1.2-.5-.5-.8-1-1-1.8-.3-.7-.4-1.4-.4-2.3v-.7c0-.8.1-1.6.4-2.3.2-.7.5-1.3 1-1.8.4-.5.9-.9 1.5-1.1.6-.3 1.2-.4 2-.4.7 0 1.3.1 1.9.4.6.2 1.1.6 1.5 1 .5.6.8 1.2 1 1.9.2.7.4 1.5.4 2.3Zm-2 .7v-.7a7 7 0 0 0-.2-1.7c-.2-.5-.3-1-.6-1.3-.2-.3-.5-.6-.9-.7-.3-.2-.7-.3-1.2-.3l-1.2.3c-.3.1-.6.4-.8.7-.3.4-.5.8-.6 1.3a7 7 0 0 0-.2 1.7v.7c0 .6 0 1.2.2 1.7.1.5.3 1 .6 1.3.2.3.5.6.9.8l1.1.2c.5 0 .9 0 1.2-.2l1-.8.5-1.3.2-1.7Zm6-6.2v11.7h-2V83h2Zm7 0-4.7 6.7H116l-.2-1.8h2l3.4-4.9h2.4Zm-2 11.7-3.8-5.3 1.3-1.6 4.9 6.9h-2.4ZM176 58a26 26 0 0 0 0-37.3 27.4 27.4 0 0 0-38.2 0 26 26 0 0 0 0 37.4 27.4 27.4 0 0 0 38.2 0Z" fill="#fff"/><path d="M157.3 38.5v-4.7l-.2-.5a.8.8 0 0 0-1 0c-.2.2-.3.3-.3.5V38l-1.8 1.8a.7.7 0 0 0-.3.5.7.7 0 0 0 .3.5.8.8 0 0 0 1 0l2.3-2.2Z" fill="url(#d)"/><path d="M156.5 24a14.6 14.6 0 0 0-13.3 8.7 13.9 13.9 0 0 0 3 15.4 14.5 14.5 0 0 0 15.8 3c2.6-1 4.8-2.8 6.4-5.2a14 14 0 0 0-1.8-17.8 14.5 14.5 0 0 0-10.1-4.1Zm0 24.8a11.2 11.2 0 0 1-10.2-6.7 10.6 10.6 0 0 1 2.5-11.8 11.1 11.1 0 0 1 12-2.3 10.7 10.7 0 0 1 3.4 17.8 11 11 0 0 1-7.8 3Z" fill="url(#e)"/><defs><linearGradient id="b" x1="8563.2" y1="12779.8" x2="20524.5" y2="12779.8" gradientUnits="userSpaceOnUse"><stop stop-color="#5C92BC"/><stop offset="1" stop-color="#6A82FB"/></linearGradient><linearGradient id="c" x1="7051.7" y1="10536.7" x2="16843.5" y2="10536.7" gradientUnits="userSpaceOnUse"><stop stop-color="#5C92BC"/><stop offset="1" stop-color="#6A82FB"/></linearGradient><linearGradient id="d" x1="320" y1="586.2" x2="552.4" y2="586.2" gradientUnits="userSpaceOnUse"><stop stop-color="#5C92BC"/><stop offset="1" stop-color="#6A82FB"/></linearGradient><linearGradient id="e" x1="1469.9" y1="2005" x2="3325.5" y2="2005" gradientUnits="userSpaceOnUse"><stop stop-color="#5C92BC"/><stop offset="1" stop-color="#6A82FB"/></linearGradient><filter id="a" x=".2" y="8.7" width="192.9" height="189.2" filterUnits="userSpaceOnUse" color-interpolation-filters="sRGB"><feFlood flood-opacity="0" result="BackgroundImageFix"/><feColorMatrix in="SourceAlpha" values="0 0 0 0 0 0 0 0 0 0 0 0 0 0 0 0 0 0 127 0" result="hardAlpha"/><feOffset dy="3.6"/><feGaussianBlur stdDeviation="1.8"/><feComposite in2="hardAlpha" operator="out"/><feColorMatrix values="0 0 0 0 0 0 0 0 0 0 0 0 0 0 0 0 0 0 0.25 0"/><feBlend in2="BackgroundImageFix" result="effect1_dropShadow_1114_260"/><feBlend in="SourceGraphic" in2="effect1_dropShadow_1114_260" result="shape"/></filter></defs></svg>