<svg width="196" height="197" viewBox="0 0 196 197" fill="none" xmlns="http://www.w3.org/2000/svg">
<g filter="url(#filter0_d_1114_261)">
<path d="M189.59 98.2531C189.59 116.246 184.147 133.835 173.951 148.796C163.754 163.757 149.262 175.418 132.306 182.303C115.35 189.189 96.6918 190.991 78.6914 187.48C60.691 183.97 44.1566 175.305 31.179 162.582C18.2014 149.859 9.36357 133.649 5.78307 116.001C2.20256 98.354 4.04021 80.0619 11.0636 63.4383C18.087 46.8148 29.9808 32.6064 45.2408 22.6099C60.5008 12.6134 78.4417 7.27783 96.7948 7.27783V98.0837L189.59 98.2531Z" fill="#ED5565"/>
</g>
<path d="M96.7945 172.854C137.995 172.854 171.394 139.861 171.394 99.1636C171.394 58.4658 137.995 25.4736 96.7945 25.4736C55.5942 25.4736 22.1948 58.4658 22.1948 99.1636C22.1948 139.861 55.5942 172.854 96.7945 172.854Z" fill="white"/>
<path d="M153.838 0.00731977C145.271 0.830208 137.231 4.50059 131.012 10.4278C124.792 16.355 120.756 24.1943 119.551 32.6842C119.551 32.8266 119.551 32.9689 119.551 33.1397C119.09 37.2351 117.038 40.9879 113.833 43.5947C110.629 46.2015 106.528 47.455 102.408 47.0871C91.7351 45.9301 80.9648 48.1016 71.5834 53.3018C62.202 58.502 54.6718 66.4747 50.0321 76.1197C45.3924 85.7646 43.8719 96.6063 45.6803 107.149C47.4887 117.691 52.5369 127.415 60.1283 134.978C67.7197 142.54 77.4801 147.569 88.0626 149.371C98.6451 151.173 109.528 149.658 119.21 145.036C128.891 140.413 136.894 132.912 142.114 123.566C147.334 114.22 149.514 103.49 148.352 92.8576C147.983 88.7529 149.241 84.6674 151.858 81.4754C154.475 78.2834 158.242 76.2387 162.353 75.7791H162.81C172.735 74.4597 181.743 69.3112 187.895 61.4416C194.048 53.572 196.853 43.6105 195.707 33.7011C194.561 23.7917 189.555 14.7266 181.768 8.45703C173.98 2.18743 164.033 -0.785508 154.067 0.178098L153.838 0.00731977Z" fill="url(#paint0_linear_1114_261)"/>
<path d="M91.208 111.603V113.823C91.208 114.887 91.1023 115.795 90.8908 116.547C90.6856 117.293 90.3871 117.9 89.9953 118.366C89.6035 118.833 89.134 119.175 88.5867 119.392C88.0456 119.61 87.4393 119.719 86.7676 119.719C86.2328 119.719 85.7353 119.65 85.2751 119.514C84.8211 119.377 84.4106 119.162 84.0437 118.87C83.6768 118.578 83.3627 118.201 83.1015 117.741C82.8465 117.275 82.6475 116.718 82.5045 116.071C82.3677 115.425 82.2993 114.675 82.2993 113.823V111.603C82.2993 110.533 82.405 109.632 82.6164 108.898C82.8279 108.158 83.1295 107.558 83.5213 107.097C83.9131 106.631 84.3795 106.292 84.9206 106.081C85.4679 105.869 86.0773 105.763 86.749 105.763C87.29 105.763 87.7875 105.832 88.2415 105.969C88.7017 106.099 89.1122 106.307 89.4729 106.594C89.8398 106.88 90.1508 107.253 90.4057 107.713C90.6669 108.167 90.866 108.717 91.0028 109.364C91.1396 110.005 91.208 110.751 91.208 111.603ZM88.9598 114.14V111.267C88.9598 110.726 88.9287 110.25 88.8665 109.84C88.8044 109.423 88.7111 109.072 88.5867 108.786C88.4685 108.493 88.3193 108.257 88.1389 108.077C87.9586 107.89 87.7533 107.757 87.5232 107.676C87.2931 107.589 87.035 107.545 86.749 107.545C86.4007 107.545 86.0898 107.613 85.8161 107.75C85.5425 107.881 85.3124 108.092 85.1258 108.385C84.9392 108.677 84.7962 109.063 84.6967 109.541C84.6034 110.014 84.5568 110.589 84.5568 111.267V114.14C84.5568 114.688 84.5879 115.17 84.6501 115.586C84.7122 116.003 84.8055 116.361 84.9299 116.659C85.0543 116.951 85.2035 117.194 85.3777 117.387C85.558 117.573 85.7633 117.71 85.9934 117.797C86.2297 117.884 86.4878 117.928 86.7676 117.928C87.1221 117.928 87.4362 117.859 87.7098 117.722C87.9834 117.586 88.2135 117.368 88.4001 117.069C88.5867 116.765 88.7266 116.37 88.8199 115.885C88.9132 115.4 88.9598 114.818 88.9598 114.14ZM95.8536 111.724H97.1969C97.7193 111.724 98.1515 111.634 98.4936 111.454C98.8418 111.273 99.0999 111.025 99.2678 110.707C99.4358 110.39 99.5197 110.026 99.5197 109.616C99.5197 109.187 99.442 108.82 99.2865 108.515C99.1372 108.204 98.9071 107.965 98.5962 107.797C98.2915 107.629 97.9028 107.545 97.4301 107.545C97.0321 107.545 96.6714 107.626 96.348 107.788C96.0308 107.943 95.779 108.167 95.5924 108.459C95.4058 108.745 95.3125 109.087 95.3125 109.485H93.055C93.055 108.764 93.2447 108.123 93.6241 107.564C94.0034 107.004 94.5196 106.566 95.1726 106.248C95.8318 105.925 96.5719 105.763 97.3928 105.763C98.2697 105.763 99.0346 105.909 99.6876 106.202C100.347 106.488 100.86 106.917 101.227 107.489C101.594 108.061 101.777 108.77 101.777 109.616C101.777 110.002 101.687 110.393 101.507 110.791C101.326 111.189 101.059 111.553 100.704 111.883C100.35 112.206 99.9084 112.471 99.3798 112.676C98.8512 112.875 98.2386 112.974 97.5421 112.974H95.8536V111.724ZM95.8536 113.478V112.247H97.5421C98.3381 112.247 99.016 112.34 99.5757 112.527C100.142 112.713 100.602 112.971 100.956 113.301C101.311 113.624 101.569 113.994 101.731 114.411C101.898 114.828 101.982 115.269 101.982 115.736C101.982 116.37 101.867 116.936 101.637 117.433C101.413 117.925 101.093 118.341 100.676 118.683C100.26 119.025 99.7716 119.283 99.2119 119.458C98.6584 119.632 98.0551 119.719 97.4021 119.719C96.8176 119.719 96.2578 119.638 95.723 119.476C95.1882 119.315 94.7093 119.075 94.2864 118.758C93.8635 118.435 93.5277 118.033 93.2789 117.555C93.0364 117.069 92.9151 116.51 92.9151 115.875H95.1633C95.1633 116.28 95.2566 116.637 95.4431 116.948C95.6359 117.253 95.9034 117.492 96.2454 117.667C96.5937 117.841 96.9917 117.928 97.4395 117.928C97.9121 117.928 98.3194 117.844 98.6615 117.676C99.0035 117.508 99.2647 117.259 99.4451 116.93C99.6317 116.6 99.7249 116.202 99.7249 115.736C99.7249 115.207 99.6223 114.778 99.4171 114.448C99.2119 114.119 98.9196 113.876 98.5402 113.721C98.1609 113.559 97.7131 113.478 97.1969 113.478H95.8536Z" fill="white"/>
<path d="M84.5514 83.4171V95.0591H82.5525V83.4171H84.5514ZM91.5558 83.4171L86.8223 90.0537H83.9837L83.7119 88.3106H85.7108L89.1011 83.4171H91.5558ZM89.5089 95.0591L85.7428 89.7498L87.0382 88.2066L91.9156 95.0591H89.5089ZM97.4888 90.7173H94.4583V89.1261H97.4888C98.0165 89.1261 98.4429 89.0409 98.7681 88.8703C99.0933 88.6997 99.3305 88.4652 99.4797 88.1666C99.6343 87.8628 99.7116 87.5163 99.7116 87.1272C99.7116 86.7594 99.6343 86.4155 99.4797 86.0957C99.3305 85.7705 99.0933 85.5093 98.7681 85.3121C98.4429 85.1149 98.0165 85.0163 97.4888 85.0163H95.074V95.0591H93.067V83.4171H97.4888C98.3896 83.4171 99.1546 83.577 99.7836 83.8968C100.418 84.2113 100.9 84.6485 101.231 85.2082C101.561 85.7625 101.727 86.3969 101.727 87.1112C101.727 87.8628 101.561 88.5078 101.231 89.0462C100.9 89.5846 100.418 89.9977 99.7836 90.2855C99.1546 90.5734 98.3896 90.7173 97.4888 90.7173ZM112.809 88.9183V89.5579C112.809 90.4375 112.694 91.2264 112.465 91.9247C112.236 92.623 111.908 93.2174 111.482 93.7078C111.06 94.1982 110.554 94.574 109.962 94.8352C109.371 95.0911 108.715 95.219 107.995 95.219C107.281 95.219 106.628 95.0911 106.036 94.8352C105.45 94.574 104.941 94.1982 104.509 93.7078C104.077 93.2174 103.742 92.623 103.502 91.9247C103.267 91.2264 103.15 90.4375 103.15 89.5579V88.9183C103.15 88.0387 103.267 87.2524 103.502 86.5595C103.736 85.8612 104.067 85.2668 104.493 84.7764C104.925 84.2806 105.434 83.9048 106.02 83.649C106.612 83.3878 107.265 83.2572 107.979 83.2572C108.699 83.2572 109.355 83.3878 109.946 83.649C110.538 83.9048 111.047 84.2806 111.474 84.7764C111.9 85.2668 112.228 85.8612 112.457 86.5595C112.692 87.2524 112.809 88.0387 112.809 88.9183ZM110.802 89.5579V88.9023C110.802 88.2519 110.738 87.6789 110.61 87.1831C110.487 86.6821 110.303 86.2636 110.058 85.9278C109.818 85.5866 109.523 85.3308 109.171 85.1602C108.819 84.9843 108.422 84.8963 107.979 84.8963C107.537 84.8963 107.142 84.9843 106.796 85.1602C106.449 85.3308 106.154 85.5866 105.908 85.9278C105.669 86.2636 105.485 86.6821 105.357 87.1831C105.229 87.6789 105.165 88.2519 105.165 88.9023V89.5579C105.165 90.2083 105.229 90.784 105.357 91.285C105.485 91.7861 105.671 92.2099 105.916 92.5564C106.167 92.8975 106.465 93.1561 106.812 93.332C107.158 93.5026 107.553 93.5878 107.995 93.5878C108.443 93.5878 108.84 93.5026 109.187 93.332C109.533 93.1561 109.826 92.8975 110.066 92.5564C110.306 92.2099 110.487 91.7861 110.61 91.285C110.738 90.784 110.802 90.2083 110.802 89.5579ZM116.855 83.4171V95.0591H114.856V83.4171H116.855ZM123.859 83.4171L119.126 90.0537H116.287L116.015 88.3106H118.014L121.404 83.4171H123.859ZM121.812 95.0591L118.046 89.7498L119.341 88.2066L124.219 95.0591H121.812Z" fill="white"/>
<path d="M176.126 57.3716C186.661 47.0437 186.661 30.299 176.126 19.9712C165.59 9.64335 148.509 9.64336 137.974 19.9712C127.439 30.299 127.439 47.0437 137.974 57.3716C148.509 67.6994 165.59 67.6994 176.126 57.3716Z" fill="white"/>
<path d="M161.9 49.0292H150.383C150.242 49.0253 150.102 49.0497 149.971 49.1008C149.84 49.1519 149.721 49.2287 149.621 49.3264C149.521 49.4242 149.443 49.5408 149.391 49.6693C149.339 49.7978 149.314 49.9353 149.318 50.0735C149.314 50.213 149.339 50.3518 149.391 50.4818C149.443 50.6118 149.52 50.7302 149.62 50.8302C149.719 50.9302 149.838 51.0097 149.969 51.0639C150.1 51.1181 150.241 51.146 150.383 51.146H153.694V51.4564C153.694 51.9355 153.888 52.3949 154.234 52.7337C154.58 53.0724 155.048 53.2628 155.537 53.2628H156.775C157.018 53.2666 157.259 53.2225 157.485 53.133C157.71 53.0436 157.915 52.9107 158.087 52.7422C158.258 52.5737 158.394 52.3731 158.485 52.1522C158.576 51.9313 158.622 51.6947 158.618 51.4564V51.146H161.9C162.19 51.146 162.468 51.033 162.673 50.8319C162.879 50.6307 162.994 50.3579 162.994 50.0735C162.994 49.9339 162.965 49.7958 162.91 49.6672C162.855 49.5387 162.774 49.4222 162.672 49.3249C162.57 49.2276 162.449 49.1512 162.316 49.1004C162.184 49.0497 162.042 49.0254 161.9 49.0292Z" fill="url(#paint1_linear_1114_261)"/>
<path d="M164.088 24.6722C161.724 22.6255 158.633 21.5731 155.484 21.7423C152.334 21.9114 149.379 23.2887 147.258 25.5764C145.136 27.8641 144.018 30.8783 144.145 33.9678C144.271 37.0572 145.633 39.9735 147.936 42.0865C148.587 42.57 149.117 43.1923 149.486 43.9062C149.855 44.6201 150.053 45.407 150.067 46.2072V46.6024C150.067 46.8494 150.167 47.0863 150.345 47.261C150.523 47.4357 150.765 47.5338 151.017 47.5338H161.122C161.374 47.5338 161.616 47.4357 161.794 47.261C161.972 47.0863 162.072 46.8494 162.072 46.6024V46.2072C162.092 45.4082 162.293 44.6234 162.662 43.9105C163.031 43.1975 163.557 42.5743 164.203 42.0865C165.428 40.9911 166.406 39.6572 167.076 38.1701C167.745 36.683 168.09 35.0753 168.09 33.4499C168.085 31.794 167.727 30.1573 167.037 28.6455C166.348 27.1337 165.343 25.7801 164.088 24.6722ZM154.846 40.7882L150.815 36.8368L152.687 34.8329L154.702 36.8086L161.468 30.176L163.57 32.2363L154.846 40.7882Z" fill="url(#paint2_linear_1114_261)"/>
<defs>
<filter id="filter0_d_1114_261" x="0.36099" y="7.27783" width="192.868" height="189.229" filterUnits="userSpaceOnUse" color-interpolation-filters="sRGB">
<feFlood flood-opacity="0" result="BackgroundImageFix"/>
<feColorMatrix in="SourceAlpha" type="matrix" values="0 0 0 0 0 0 0 0 0 0 0 0 0 0 0 0 0 0 127 0" result="hardAlpha"/>
<feOffset dy="3.63901"/>
<feGaussianBlur stdDeviation="1.81951"/>
<feComposite in2="hardAlpha" operator="out"/>
<feColorMatrix type="matrix" values="0 0 0 0 0 0 0 0 0 0 0 0 0 0 0 0 0 0 0.25 0"/>
<feBlend mode="normal" in2="BackgroundImageFix" result="effect1_dropShadow_1114_261"/>
<feBlend mode="normal" in="SourceGraphic" in2="effect1_dropShadow_1114_261" result="shape"/>
</filter>
<linearGradient id="paint0_linear_1114_261" x1="7009.93" y1="10536.2" x2="16743.1" y2="10536.2" gradientUnits="userSpaceOnUse">
<stop stop-color="#ED5565"/>
<stop offset="1" stop-color="#6A82FB"/>
</linearGradient>
<linearGradient id="paint1_linear_1114_261" x1="780.066" y1="346.226" x2="1661.5" y2="346.226" gradientUnits="userSpaceOnUse">
<stop stop-color="#ED5565"/>
<stop offset="1" stop-color="#6A82FB"/>
</linearGradient>
<linearGradient id="paint2_linear_1114_261" x1="1248.94" y1="1833.27" x2="2792.85" y2="1833.27" gradientUnits="userSpaceOnUse">
<stop stop-color="#ED5565"/>
<stop offset="1" stop-color="#6A82FB"/>
</linearGradient>
</defs>
</svg>
