<svg width="197" height="198" viewBox="0 0 197 198" fill="none" xmlns="http://www.w3.org/2000/svg">
<g filter="url(#filter0_d_1114_260)">
<path d="M189.443 99.691C189.443 117.684 184 135.273 173.804 150.234C163.607 165.195 149.115 176.855 132.159 183.741C115.203 190.627 96.5449 192.429 78.5444 188.918C60.544 185.408 44.0096 176.743 31.032 164.02C18.0544 151.297 9.2166 135.087 5.63609 117.439C2.05559 99.792 3.89323 81.4999 10.9166 64.8763C17.9401 48.2528 29.8338 34.0444 45.0938 24.0479C60.3538 14.0514 78.2947 8.71582 96.6478 8.71582V99.5499L189.443 99.691Z" fill="url(#paint0_linear_1114_260)"/>
</g>
<path d="M96.6478 172.472C137.848 172.472 171.248 139.48 171.248 98.7817C171.248 58.0839 137.848 25.0918 96.6478 25.0918C55.4475 25.0918 22.0481 58.0839 22.0481 98.7817C22.0481 139.48 55.4475 172.472 96.6478 172.472Z" fill="white"/>
<path d="M153.871 0.791156C145.291 1.61752 137.241 5.28328 131.012 11.1995C124.783 17.1158 120.739 24.9391 119.527 33.4126C119.527 33.4126 119.527 33.7252 119.527 33.8672C119.065 37.9557 117.009 41.7021 113.8 44.3045C110.591 46.9068 106.483 48.1583 102.356 47.791C91.6652 46.6359 80.8771 48.8037 71.4802 53.9951C62.0833 59.1864 54.5407 67.1456 49.8933 76.7742C45.246 86.4027 43.7229 97.2261 45.5343 107.751C47.3456 118.275 52.4022 127.982 60.0062 135.532C67.6101 143.082 77.3866 148.102 87.9866 149.901C98.5866 151.699 109.487 150.187 119.185 145.573C128.883 140.959 136.899 133.47 142.127 124.14C147.356 114.81 149.539 104.098 148.376 93.4837C147.998 89.3845 149.256 85.3018 151.878 82.1136C154.501 78.9253 158.279 76.8861 162.399 76.4342H162.857C172.96 75.251 182.176 70.1315 188.477 62.2019C194.778 54.2724 197.648 44.1823 196.456 34.1514C195.265 24.1205 190.109 14.9705 182.122 8.71422C174.136 2.45796 163.973 -0.392052 153.871 0.791156Z" fill="url(#paint1_linear_1114_260)"/>
<path d="M91.0608 109.491V111.711C91.0608 112.775 90.9551 113.683 90.7436 114.435C90.5384 115.182 90.2399 115.788 89.8481 116.254C89.4563 116.721 88.9867 117.063 88.4395 117.28C87.8984 117.498 87.2921 117.607 86.6204 117.607C86.0856 117.607 85.5881 117.539 85.1278 117.402C84.6739 117.265 84.2634 117.05 83.8965 116.758C83.5296 116.466 83.2155 116.09 82.9543 115.629C82.6993 115.163 82.5003 114.606 82.3573 113.96C82.2205 113.313 82.1521 112.563 82.1521 111.711V109.491C82.1521 108.421 82.2578 107.52 82.4692 106.786C82.6807 106.046 82.9823 105.446 83.3741 104.985C83.7659 104.519 84.2323 104.18 84.7734 103.969C85.3206 103.757 85.9301 103.652 86.6018 103.652C87.1428 103.652 87.6403 103.72 88.0943 103.857C88.5545 103.987 88.965 104.196 89.3257 104.482C89.6926 104.768 90.0036 105.141 90.2585 105.601C90.5197 106.055 90.7187 106.606 90.8556 107.252C90.9924 107.893 91.0608 108.639 91.0608 109.491ZM88.8126 112.029V109.155C88.8126 108.614 88.7815 108.139 88.7193 107.728C88.6571 107.311 88.5639 106.96 88.4395 106.674C88.3213 106.382 88.1721 106.145 87.9917 105.965C87.8114 105.778 87.6061 105.645 87.376 105.564C87.1459 105.477 86.8878 105.433 86.6018 105.433C86.2535 105.433 85.9425 105.502 85.6689 105.638C85.3953 105.769 85.1652 105.981 84.9786 106.273C84.792 106.565 84.649 106.951 84.5495 107.43C84.4562 107.902 84.4096 108.477 84.4096 109.155V112.029C84.4096 112.576 84.4406 113.058 84.5028 113.474C84.565 113.891 84.6583 114.249 84.7827 114.547C84.9071 114.84 85.0563 115.082 85.2305 115.275C85.4108 115.461 85.616 115.598 85.8461 115.685C86.0825 115.772 86.3406 115.816 86.6204 115.816C86.9749 115.816 87.289 115.747 87.5626 115.611C87.8362 115.474 88.0663 115.256 88.2529 114.958C88.4395 114.653 88.5794 114.258 88.6727 113.773C88.766 113.288 88.8126 112.706 88.8126 112.029ZM102.171 115.629V117.42H93.0664V115.881L97.4881 111.058C97.9732 110.511 98.3557 110.038 98.6355 109.64C98.9154 109.242 99.1113 108.885 99.2232 108.568C99.3414 108.244 99.4005 107.93 99.4005 107.625C99.4005 107.196 99.3196 106.82 99.1579 106.497C99.0025 106.167 98.7724 105.909 98.4676 105.722C98.1629 105.53 97.7929 105.433 97.3575 105.433C96.8538 105.433 96.4309 105.542 96.0889 105.76C95.7468 105.977 95.4887 106.279 95.3146 106.665C95.1405 107.044 95.0534 107.479 95.0534 107.971H92.8052C92.8052 107.181 92.9856 106.459 93.3463 105.806C93.707 105.147 94.2294 104.625 94.9135 104.239C95.5976 103.847 96.4216 103.652 97.3855 103.652C98.2935 103.652 99.0647 103.804 99.699 104.109C100.333 104.413 100.815 104.846 101.145 105.405C101.481 105.965 101.649 106.627 101.649 107.392C101.649 107.815 101.58 108.235 101.443 108.652C101.307 109.068 101.111 109.485 100.856 109.902C100.607 110.312 100.312 110.726 99.9695 111.142C99.6275 111.553 99.2512 111.969 98.8408 112.392L95.9023 115.629H102.171Z" fill="white"/>
<path d="M84.4042 83.0353V94.6772H82.4053V83.0353H84.4042ZM91.4086 83.0353L86.675 89.6718H83.8365L83.5647 87.9287H85.5636L88.9539 83.0353H91.4086ZM89.3617 94.6772L85.5956 89.368L86.8909 87.8248L91.7684 94.6772H89.3617ZM97.3415 90.3355H94.3111V88.7443H97.3415C97.8693 88.7443 98.2957 88.659 98.6209 88.4884C98.946 88.3179 99.1833 88.0833 99.3325 87.7848C99.4871 87.481 99.5644 87.1345 99.5644 86.7453C99.5644 86.3775 99.4871 86.0337 99.3325 85.7139C99.1833 85.3887 98.946 85.1275 98.6209 84.9303C98.2957 84.733 97.8693 84.6344 97.3415 84.6344H94.9268V94.6772H92.9198V83.0353H97.3415C98.2424 83.0353 99.0074 83.1952 99.6364 83.515C100.271 83.8295 100.753 84.2666 101.084 84.8263C101.414 85.3807 101.579 86.0151 101.579 86.7293C101.579 87.481 101.414 88.126 101.084 88.6643C100.753 89.2027 100.271 89.6159 99.6364 89.9037C99.0074 90.1916 98.2424 90.3355 97.3415 90.3355ZM112.662 88.5364V89.1761C112.662 90.0556 112.547 90.8446 112.318 91.5429C112.089 92.2412 111.761 92.8355 111.334 93.3259C110.913 93.8164 110.407 94.1922 109.815 94.4534C109.223 94.7092 108.568 94.8372 107.848 94.8372C107.134 94.8372 106.481 94.7092 105.889 94.4534C105.303 94.1922 104.794 93.8164 104.362 93.3259C103.93 92.8355 103.594 92.2412 103.354 91.5429C103.12 90.8446 103.003 90.0556 103.003 89.1761V88.5364C103.003 87.6569 103.12 86.8706 103.354 86.1776C103.589 85.4793 103.919 84.885 104.346 84.3946C104.778 83.8988 105.287 83.523 105.873 83.2671C106.465 83.0059 107.118 82.8753 107.832 82.8753C108.552 82.8753 109.207 83.0059 109.799 83.2671C110.391 83.523 110.9 83.8988 111.326 84.3946C111.753 84.885 112.081 85.4793 112.31 86.1776C112.544 86.8706 112.662 87.6569 112.662 88.5364ZM110.655 89.1761V88.5204C110.655 87.8701 110.591 87.2971 110.463 86.8013C110.34 86.3002 110.156 85.8818 109.911 85.546C109.671 85.2048 109.375 84.9489 109.024 84.7784C108.672 84.6024 108.275 84.5145 107.832 84.5145C107.39 84.5145 106.995 84.6024 106.649 84.7784C106.302 84.9489 106.006 85.2048 105.761 85.546C105.521 85.8818 105.337 86.3002 105.209 86.8013C105.082 87.2971 105.018 87.8701 105.018 88.5204V89.1761C105.018 89.8264 105.082 90.4021 105.209 90.9032C105.337 91.4043 105.524 91.8281 105.769 92.1745C106.02 92.5157 106.318 92.7742 106.665 92.9501C107.011 93.1207 107.406 93.206 107.848 93.206C108.296 93.206 108.693 93.1207 109.04 92.9501C109.386 92.7742 109.679 92.5157 109.919 92.1745C110.159 91.8281 110.34 91.4043 110.463 90.9032C110.591 90.4021 110.655 89.8264 110.655 89.1761ZM116.708 83.0353V94.6772H114.709V83.0353H116.708ZM123.712 83.0353L118.978 89.6718H116.14L115.868 87.9287H117.867L121.257 83.0353H123.712ZM121.665 94.6772L117.899 89.368L119.194 87.8248L124.072 94.6772H121.665Z" fill="white"/>
<path d="M175.958 58.0538C186.493 47.7259 186.493 30.9812 175.958 20.6533C165.422 10.3255 148.341 10.3255 137.806 20.6533C127.271 30.9812 127.271 47.7259 137.806 58.0537C148.341 68.3816 165.422 68.3816 175.958 58.0538Z" fill="white"/>
<path d="M157.319 38.5272V33.7855C157.285 33.612 157.19 33.4557 157.051 33.3433C156.911 33.2309 156.737 33.1694 156.556 33.1694C156.376 33.1694 156.201 33.2309 156.062 33.3433C155.923 33.4557 155.828 33.612 155.793 33.7855V37.9627L153.951 39.7691C153.876 39.8377 153.816 39.9207 153.775 40.013C153.734 40.1052 153.713 40.2047 153.713 40.3053C153.713 40.4059 153.734 40.5054 153.775 40.5976C153.816 40.6899 153.876 40.7729 153.951 40.8416C154.095 40.9745 154.286 41.0486 154.484 41.0486C154.682 41.0486 154.872 40.9745 155.016 40.8416L157.291 38.5836L157.319 38.5272Z" fill="url(#paint2_linear_1114_260)"/>
<path d="M156.455 23.9917C153.608 23.9917 150.825 24.8194 148.458 26.37C146.09 27.9207 144.245 30.1247 143.156 32.7033C142.066 35.282 141.781 38.1194 142.336 40.8569C142.892 43.5944 144.263 46.1089 146.276 48.0825C148.289 50.0562 150.854 51.4002 153.647 51.9447C156.439 52.4892 159.334 52.2098 161.964 51.1417C164.595 50.0735 166.843 48.2648 168.425 45.944C170.007 43.6233 170.851 40.8949 170.851 38.1038C170.851 34.361 169.334 30.7716 166.635 28.125C163.935 25.4785 160.273 23.9917 156.455 23.9917ZM156.455 48.829C154.268 48.8121 152.134 48.1593 150.325 46.9532C148.516 45.7471 147.113 44.0419 146.293 42.0536C145.473 40.0652 145.273 37.883 145.718 35.7832C146.164 33.6835 147.235 31.7606 148.796 30.2579C150.357 28.7553 152.338 27.7404 154.488 27.3419C156.638 26.9434 158.86 27.179 160.873 28.0191C162.886 28.8591 164.599 30.2658 165.796 32.061C166.993 33.8562 167.62 35.9592 167.598 38.1038C167.59 39.5341 167.293 40.9487 166.722 42.2651C166.152 43.5816 165.32 44.7736 164.275 45.7718C163.23 46.77 161.993 47.5544 160.635 48.0792C159.278 48.6041 157.828 48.8589 156.369 48.829H156.455Z" fill="url(#paint3_linear_1114_260)"/>
<defs>
<filter id="filter0_d_1114_260" x="0.214017" y="8.71582" width="192.868" height="189.229" filterUnits="userSpaceOnUse" color-interpolation-filters="sRGB">
<feFlood flood-opacity="0" result="BackgroundImageFix"/>
<feColorMatrix in="SourceAlpha" type="matrix" values="0 0 0 0 0 0 0 0 0 0 0 0 0 0 0 0 0 0 127 0" result="hardAlpha"/>
<feOffset dy="3.63901"/>
<feGaussianBlur stdDeviation="1.81951"/>
<feComposite in2="hardAlpha" operator="out"/>
<feColorMatrix type="matrix" values="0 0 0 0 0 0 0 0 0 0 0 0 0 0 0 0 0 0 0.25 0"/>
<feBlend mode="normal" in2="BackgroundImageFix" result="effect1_dropShadow_1114_260"/>
<feBlend mode="normal" in="SourceGraphic" in2="effect1_dropShadow_1114_260" result="shape"/>
</filter>
<linearGradient id="paint0_linear_1114_260" x1="8563.24" y1="12779.8" x2="20524.5" y2="12779.8" gradientUnits="userSpaceOnUse">
<stop stop-color="#5C92BC"/>
<stop offset="1" stop-color="#6A82FB"/>
</linearGradient>
<linearGradient id="paint1_linear_1114_260" x1="7051.74" y1="10536.7" x2="16843.5" y2="10536.7" gradientUnits="userSpaceOnUse">
<stop stop-color="#5C92BC"/>
<stop offset="1" stop-color="#6A82FB"/>
</linearGradient>
<linearGradient id="paint2_linear_1114_260" x1="320.021" y1="586.206" x2="552.426" y2="586.206" gradientUnits="userSpaceOnUse">
<stop stop-color="#5C92BC"/>
<stop offset="1" stop-color="#6A82FB"/>
</linearGradient>
<linearGradient id="paint3_linear_1114_260" x1="1469.91" y1="2005.05" x2="3325.5" y2="2005.05" gradientUnits="userSpaceOnUse">
<stop stop-color="#5C92BC"/>
<stop offset="1" stop-color="#6A82FB"/>
</linearGradient>
</defs>
</svg>
