<svg width="215" height="216" fill="none" xmlns="http://www.w3.org/2000/svg"><g filter="url(#a)"><path d="M208 108c0 19.8-6 39.1-17.2 55.6a101.6 101.6 0 0 1-45.8 36.8A103.9 103.9 0 0 1 34 178.7a98.2 98.2 0 0 1-22.1-109A100.5 100.5 0 0 1 49.3 25C66.1 13.9 85.8 8 106 8v99.8l102 .2Z" fill="#ED5565"/></g><path d="M106 190c45.3 0 82-36.3 82-81s-36.7-81-82-81-82 36.3-82 81 36.7 81 82 81Z" fill="#fff"/><path d="M168.7 0A42.2 42.2 0 0 0 131 36v.4a17.3 17.3 0 0 1-18.8 15.4 57.2 57.2 0 0 0-57.6 31.9 56.6 56.6 0 0 0 41.8 80.5 57.2 57.2 0 0 0 66.3-62.1A17.3 17.3 0 0 1 178 83.3h.5A42 42 0 0 0 214.7 37 41.8 41.8 0 0 0 169 .2l-.3-.2Z" fill="url(#b)"/><path d="M99.9 123.3v2.4c0 1.2-.2 2.2-.4 3-.2.8-.5 1.5-1 2-.4.5-1 1-1.5 1.1a5.7 5.7 0 0 1-3.6.1 4 4 0 0 1-2.5-1.9 7 7 0 0 1-.6-1.8 12 12 0 0 1-.2-2.5v-2.4c0-1.2 0-2.2.3-3 .2-.8.6-1.5 1-2s1-.9 1.5-1a5.6 5.6 0 0 1 3.7-.1 3.8 3.8 0 0 1 2.4 1.8c.3.5.5 1.1.6 1.8.2.7.3 1.5.3 2.5Zm-2.5 2.8v-3.2l-.1-1.6c0-.4-.2-.8-.3-1.1l-.5-.8-.7-.4-.8-.2-1 .2c-.4.2-.6.4-.8.7l-.5 1.3a10 10 0 0 0-.2 2v3c0 .7 0 1.2.2 1.7 0 .4.1.8.3 1.1 0 .4.3.6.5.8l.6.5.9.1c.4 0 .7 0 1-.2.3-.1.6-.4.8-.7.2-.3.3-.8.4-1.3l.2-2Zm7.6-2.7h1.4c.6 0 1 0 1.5-.3l.8-.8c.2-.3.3-.7.3-1.2s0-.9-.3-1.2c-.1-.4-.4-.6-.7-.8-.4-.2-.8-.3-1.3-.3l-1.2.3a2 2 0 0 0-1.1 1.9h-2.5c0-.8.2-1.5.6-2.2.4-.6 1-1 1.7-1.4.7-.4 1.6-.5 2.5-.5 1 0 1.8.1 2.5.4.7.4 1.3.8 1.7 1.5.4.6.6 1.4.6 2.3 0 .4-.1.9-.3 1.3l-.9 1.2-1.5.9c-.5.2-1.2.3-2 .3H105v-1.4Zm0 2V124h1.8c.9 0 1.6 0 2.3.3a4 4 0 0 1 1.5.9c.4.3.6.7.8 1.2.2.4.3 1 .3 1.4 0 .7-.1 1.3-.4 1.9-.2.5-.6 1-1 1.4l-1.6.8a6.6 6.6 0 0 1-3.9 0 5 5 0 0 1-1.6-.8 4 4 0 0 1-1-1.3 4 4 0 0 1-.5-1.8h2.5l.3 1.2c.2.3.5.6.9.7.4.2.8.3 1.3.3s1 0 1.4-.2a2.6 2.6 0 0 0 1.2-2.1c0-.7-.2-1.1-.4-1.5a2 2 0 0 0-1-.8c-.4-.2-.9-.3-1.5-.3H105ZM97 101.7c0-.6-.2-1-.6-1.3a7 7 0 0 0-2.1-1c-1-.2-1.9-.6-2.5-1-1.2-.7-1.8-1.6-1.8-2.8 0-1 .5-1.9 1.3-2.6.8-.6 2-1 3.3-1 .9 0 1.7.2 2.4.5s1.2.8 1.6 1.4c.4.6.6 1.3.6 2H97a2 2 0 0 0-.6-1.5c-.5-.4-1-.6-1.8-.6s-1.3.2-1.7.5c-.4.3-.6.7-.6 1.3 0 .4.2.8.6 1.1.5.4 1.2.7 2.2 1 1 .3 1.8.6 2.4 1a3.4 3.4 0 0 1 1.7 3c0 1-.4 1.9-1.2 2.5-.8.7-2 1-3.3 1-1 0-1.8-.2-2.6-.5-.8-.4-1.4-.9-1.8-1.5-.4-.6-.6-1.3-.6-2h2.2c0 .7.2 1.2.7 1.6.5.4 1.2.6 2 .6s1.4-.1 1.8-.4c.4-.4.6-.8.6-1.3Zm13.4-7.7h-4v11h-2.2V94h-4v-1.8h10.2V94Zm9.2 5.3h-5.3v4h6.2v1.7H112V92.2h8.3V94h-6v3.5h5.2v1.8Zm4.9 1v4.7h-2.2V92.2h4.9a5 5 0 0 1 3.4 1.1c.8.8 1.2 1.7 1.2 3 0 1.2-.4 2.2-1.2 2.9-.8.7-2 1-3.5 1h-2.6Zm0-1.8h2.7c.8 0 1.4-.2 1.8-.6.4-.4.6-1 .6-1.6 0-.7-.2-1.3-.6-1.7-.4-.4-1-.6-1.8-.6h-2.7v4.5ZM193.2 63a28.7 28.7 0 0 0 0-41 30 30 0 0 0-42 0 28.7 28.7 0 0 0 0 41 30 30 0 0 0 42 0Z" fill="#fff"/><path d="M177.6 53.9h-12.7a1.2 1.2 0 0 0-.8.3 1.1 1.1 0 0 0-.4.8 1.1 1.1 0 0 0 .4.9 1.2 1.2 0 0 0 .8.3h3.6v.4c0 .5.3 1 .6 1.4.4.3 1 .5 1.5.5h1.3a2 2 0 0 0 1.5-.5 2 2 0 0 0 .6-1.4v-.4h3.6c.3 0 .6-.1.8-.3a1.2 1.2 0 0 0 .3-1.3 1.2 1.2 0 0 0-.7-.6l-.4-.1Z" fill="url(#c)"/><path d="M180 27.1a13.4 13.4 0 0 0-18.5 1 12.8 12.8 0 0 0 .7 18.2 5.8 5.8 0 0 1 2.4 4.5v.4c0 .3 0 .6.3.7.2.2.4.3.7.3h11.1c.3 0 .6 0 .7-.3.2-.1.4-.4.4-.7v-.4a5.8 5.8 0 0 1 2.3-4.5 12.9 12.9 0 0 0 4.3-9.5A12.8 12.8 0 0 0 180 27Zm-10.2 17.7-4.4-4.3 2-2.2 2.3 2.2 7.4-7.3 2.3 2.2-9.6 9.4Z" fill="url(#d)"/><defs><linearGradient id="b" x1="7704.9" y1="11581.3" x2="18403.6" y2="11581.3" gradientUnits="userSpaceOnUse"><stop stop-color="#ED5565"/><stop offset="1" stop-color="#6A82FB"/></linearGradient><linearGradient id="c" x1="857.1" y1="380.6" x2="1825.9" y2="380.6" gradientUnits="userSpaceOnUse"><stop stop-color="#ED5565"/><stop offset="1" stop-color="#6A82FB"/></linearGradient><linearGradient id="d" x1="1372.4" y1="2015.1" x2="3069.5" y2="2015.1" gradientUnits="userSpaceOnUse"><stop stop-color="#ED5565"/><stop offset="1" stop-color="#6A82FB"/></linearGradient><filter id="a" x="0" y="8" width="212" height="208" filterUnits="userSpaceOnUse" color-interpolation-filters="sRGB"><feFlood flood-opacity="0" result="BackgroundImageFix"/><feColorMatrix in="SourceAlpha" values="0 0 0 0 0 0 0 0 0 0 0 0 0 0 0 0 0 0 127 0" result="hardAlpha"/><feOffset dy="4"/><feGaussianBlur stdDeviation="2"/><feComposite in2="hardAlpha" operator="out"/><feColorMatrix values="0 0 0 0 0 0 0 0 0 0 0 0 0 0 0 0 0 0 0.25 0"/><feBlend in2="BackgroundImageFix" result="effect1_dropShadow_1120_283"/><feBlend in="SourceGraphic" in2="effect1_dropShadow_1120_283" result="shape"/></filter></defs></svg>