<svg width="214" height="216" fill="none" xmlns="http://www.w3.org/2000/svg"><g filter="url(#a)"><path d="M208 108.4c0 19.7-6 39-17.1 55.3a101.5 101.5 0 0 1-45.8 36.7A104.4 104.4 0 0 1 34 178.9 97.2 97.2 0 0 1 11.7 70.5a100 100 0 0 1 37.6-44.7C66.1 14.8 85.8 9 106 9v99.2l102 .2Z" fill="url(#b)"/></g><path d="M187.3 121.6a81 81 0 0 0-68.2-92.8 82.3 82.3 0 0 0-94.7 66.8 81 81 0 0 0 68.2 92.8 82.3 82.3 0 0 0 94.7-66.8Z" fill="#fff"/><path d="M168.2 0a42 42 0 0 0-37.5 35.7v.5A17.2 17.2 0 0 1 112 51.4a56.8 56.8 0 0 0-60.3 39 56.1 56.1 0 0 0 48.4 73.3 56.9 56.9 0 0 0 55.7-30c5.3-9.9 7.4-21.2 6.2-32.3a17.1 17.1 0 0 1 15.3-18.7h.5a41.8 41.8 0 0 0 36-46A41.5 41.5 0 0 0 168.1.3V0Z" fill="url(#c)"/><path d="M99.9 122.3v2.4c0 1.2-.2 2.2-.4 3-.2.8-.5 1.5-1 2-.4.5-1 1-1.5 1.1a5.7 5.7 0 0 1-3.6.1 4 4 0 0 1-2.5-1.9 7 7 0 0 1-.6-1.8 12 12 0 0 1-.2-2.5v-2.4c0-1.2 0-2.2.3-3 .2-.8.6-1.5 1-2s1-.9 1.5-1a5.6 5.6 0 0 1 3.7-.1 3.8 3.8 0 0 1 2.4 1.8c.3.5.5 1.1.6 1.8.2.7.3 1.5.3 2.5Zm-2.5 2.8v-3.2l-.1-1.6c0-.4-.2-.8-.3-1.1l-.5-.8-.7-.4-.8-.2-1 .2c-.4.2-.6.4-.8.7l-.5 1.3a10 10 0 0 0-.2 2v3c0 .7 0 1.2.2 1.7 0 .4.1.8.3 1.1 0 .4.3.6.5.8l.6.5.9.1c.4 0 .7 0 1-.2.3-.1.6-.4.8-.7.2-.3.3-.8.4-1.3l.2-2Zm11.4-9V131h-2.5v-12l-3.6 1.2v-2l5.8-2.2h.3ZM97 102.7v-.7l-.5-.6-.8-.5-1.4-.5a15 15 0 0 1-1.7-.6l-1.3-.8-1-1a3 3 0 0 1-.2-1.4 3.1 3.1 0 0 1 1.2-2.6c.4-.3 1-.5 1.5-.7.5-.2 1.1-.3 1.8-.3 1 0 1.8.2 2.5.6a4 4 0 0 1 1.6 1.4c.3.6.5 1.2.5 2H97c0-.5 0-.9-.2-1.2L96 95a3 3 0 0 0-1.4-.2c-.5 0-1 0-1.3.2l-.8.6c-.2.3-.2.6-.2 1l.1.6.5.6.9.4 1.2.4 1.9.7c.5.3 1 .6 1.3 1a3.2 3.2 0 0 1 1 2.4c0 .5 0 1-.3 1.4-.2.5-.5.8-1 1.1-.3.3-.8.6-1.4.7a6.8 6.8 0 0 1-5.3-.7l-1.1-1.3c-.3-.5-.4-1-.4-1.8h2.2c0 .4 0 .8.2 1.1.1.3.3.5.6.7.2.2.5.3.9.4a4.5 4.5 0 0 0 2.4 0l.8-.7.2-.9Zm9.5-9.5V106h-2.2V93.2h2.2Zm4 0V95h-10.2v-1.8h10.2Zm10 11v1.8h-6.8v-1.7h6.8Zm-6.1-11V106h-2.2V93.2h2.2Zm5.3 5.3v1.8h-6v-1.8h6Zm.8-5.3V95h-6.8v-1.8h6.8Zm6.7 8H124v-1.7h3.3c.6 0 1-.1 1.4-.3.4-.2.6-.4.8-.8.2-.3.2-.7.2-1.1 0-.4 0-.8-.2-1.2a2 2 0 0 0-.8-.8c-.3-.2-.8-.3-1.4-.3h-2.6v11h-2.3V93.2h5c.9 0 1.7.2 2.4.5.7.4 1.3.9 1.6 1.5a4 4 0 0 1 0 4.2c-.3.6-.9 1-1.6 1.4a6 6 0 0 1-2.5.4ZM172 72c16.6 0 30-13 30-29s-13.4-29-30-29-30 13-30 29 13.4 29 30 29Z" fill="#fff"/><path d="M187.6 45v-5.6h-3.7c-.3-1.3-.8-2.5-1.5-3.6l2.5-2.5-4-4-2.5 2.5c-1.2-.6-2.4-1.1-3.7-1.4v-3.6H169v3.6c-1.4.3-2.6.8-3.7 1.5l-2.6-2.5-4 4 2.5 2.4c-.7 1.2-1.2 2.4-1.5 3.7h-3.5V45h3.6c.3 1.2.8 2.5 1.5 3.6l-2.5 2.5 4 4 2.5-2.5c1.2.7 2.4 1.2 3.8 1.5v3.6h5.6V54c1.4-.3 2.6-.8 3.8-1.5L181 55l4-4-2.5-2.5c.6-1.1 1.1-2.3 1.4-3.6h3.7Zm-15.8 3.7a6.7 6.7 0 0 1-6.2-4 6.4 6.4 0 0 1 1.5-7.1 6.7 6.7 0 0 1 7.2-1.4 6.4 6.4 0 0 1 2.2 10.6 6.7 6.7 0 0 1-4.6 2h-.1Zm0-4.1c-.7 0-1.3-.3-1.8-.7a2.4 2.4 0 0 1 0-3.4 2.5 2.5 0 0 1 3.5 0 2.4 2.4 0 0 1 0 3.4c-.5.4-1 .7-1.7.7Z" fill="url(#d)"/><defs><linearGradient id="b" x1="9412.5" y1="13976.8" x2="22560.3" y2="13976.8" gradientUnits="userSpaceOnUse"><stop stop-color="#FCBC7D"/><stop offset="1" stop-color="#6A82FB"/></linearGradient><linearGradient id="c" x1="7658.8" y1="11511.2" x2="18293" y2="11511.2" gradientUnits="userSpaceOnUse"><stop stop-color="#FCBC7D"/><stop offset="1" stop-color="#6A82FB"/></linearGradient><linearGradient id="d" x1="1604.1" y1="2200" x2="3627.4" y2="2200" gradientUnits="userSpaceOnUse"><stop stop-color="#FCBC7D"/><stop offset="1" stop-color="#6A82FB"/></linearGradient><filter id="a" x="0" y="9" width="212" height="207" filterUnits="userSpaceOnUse" color-interpolation-filters="sRGB"><feFlood flood-opacity="0" result="BackgroundImageFix"/><feColorMatrix in="SourceAlpha" values="0 0 0 0 0 0 0 0 0 0 0 0 0 0 0 0 0 0 127 0" result="hardAlpha"/><feOffset dy="4"/><feGaussianBlur stdDeviation="2"/><feComposite in2="hardAlpha" operator="out"/><feColorMatrix values="0 0 0 0 0 0 0 0 0 0 0 0 0 0 0 0 0 0 0.25 0"/><feBlend in2="BackgroundImageFix" result="effect1_dropShadow_1120_260"/><feBlend in="SourceGraphic" in2="effect1_dropShadow_1120_260" result="shape"/></filter></defs></svg>