<svg width="42" height="11" viewBox="0 0 42 11" fill="none" xmlns="http://www.w3.org/2000/svg">
<path d="M0.789902 0.900631C2.60694 4.32313 12.3076 8.87747 19.224 9.68593C26.6973 10.5752 31.0054 9.82068 39.7975 6.0209C39.6803 6.55988 39.5337 6.99106 39.4751 7.39529C39.3872 7.85342 39.2993 8.3385 39.3286 8.79663C39.3286 8.93137 39.5924 9.17391 39.7682 9.20086C39.944 9.22781 40.2371 9.03916 40.2957 8.90442C40.8232 7.61088 41.2922 6.31734 41.7904 4.99685C41.9369 4.56567 41.7611 4.24228 41.2629 4.10754C39.3579 3.67636 37.4529 3.21823 35.5187 2.814C35.0791 2.73315 34.5516 2.84094 33.9654 2.84094C34.4343 3.99974 35.4894 3.865 36.2514 4.16143C37.0426 4.48482 37.8925 4.67346 38.9183 4.99685C36.4858 6.50598 34.024 7.44919 31.4157 8.04206C21.8616 10.2519 13.0695 8.41934 4.9515 3.51466C3.89645 2.86789 2.92932 2.11333 1.90358 1.43961C1.5812 1.30486 1.28812 1.17012 0.789902 0.900631Z" fill="#163A65"/>
</svg>
