<svg width="1440" height="867" viewBox="0 0 1440 867" fill="none" xmlns="http://www.w3.org/2000/svg">
<path d="M-2 0L1440 1.23357e-06L1440 873L-2 873L-2 0Z" fill="url(#paint0_linear_1175_3807)"/>
<mask id="mask0_1175_3807" style="mask-type:alpha" maskUnits="userSpaceOnUse" x="812" y="70" width="629" height="335">
<path opacity="0.7" fill-rule="evenodd" clip-rule="evenodd" d="M828.292 107.681C846.055 120.582 881.581 156.725 881.581 198.087C881.581 200.982 881.551 204.387 881.518 208.223C880.951 272.901 879.311 460.08 1001.48 389.239C1018.77 379.211 1036.54 369.459 1054.01 359.871C1078.07 346.663 1101.56 333.768 1122.46 320.902C1196.62 386.274 1265.71 427.31 1342.68 339.866C1446.53 221.884 1475.38 20.0062 1389.37 90.5427C1374.28 105.365 1330.83 135.864 1277.75 139.287C1274.03 139.526 1269.66 139.785 1264.74 140.076C1232.57 141.979 1176.81 145.278 1126.43 153.76C981.347 71.3322 748.294 38.2156 828.292 107.681Z" fill="url(#paint1_linear_1175_3807)"/>
</mask>
<g mask="url(#mask0_1175_3807)">
<rect x="792.164" y="-169.385" width="24" height="829.125" stroke="#285994" stroke-opacity="0.28"/>
<rect x="816.164" y="-169.385" width="24" height="829.125" stroke="#285994" stroke-opacity="0.28"/>
<rect x="840.164" y="-169.385" width="24" height="829.125" stroke="#285994" stroke-opacity="0.28"/>
<rect x="864.164" y="-169.385" width="24" height="829.125" stroke="#285994" stroke-opacity="0.28"/>
<rect x="888.164" y="-169.385" width="24" height="829.125" stroke="#285994" stroke-opacity="0.28"/>
<rect x="912.164" y="-169.385" width="24" height="829.125" stroke="#285994" stroke-opacity="0.28"/>
<rect x="936.164" y="-169.385" width="24" height="829.125" stroke="#285994" stroke-opacity="0.28"/>
<rect x="960.164" y="-169.385" width="24" height="829.125" stroke="#285994" stroke-opacity="0.28"/>
<rect x="984.164" y="-169.385" width="24" height="829.125" stroke="#285994" stroke-opacity="0.28"/>
<rect x="1008.16" y="-169.385" width="24" height="829.125" stroke="#285994" stroke-opacity="0.28"/>
<rect x="1032.16" y="-169.385" width="24" height="829.125" stroke="#285994" stroke-opacity="0.28"/>
<rect x="1056.16" y="-169.385" width="24" height="829.125" stroke="#285994" stroke-opacity="0.28"/>
<rect x="1080.16" y="-169.385" width="24" height="829.125" stroke="#285994" stroke-opacity="0.28"/>
<rect x="1104.16" y="-169.385" width="24" height="829.125" stroke="#285994" stroke-opacity="0.28"/>
<rect x="1128.16" y="-169.385" width="24" height="829.125" stroke="#285994" stroke-opacity="0.28"/>
<rect x="1152.16" y="-169.385" width="24" height="829.125" stroke="#285994" stroke-opacity="0.28"/>
<rect x="1176.16" y="-169.385" width="24" height="829.125" stroke="#285994" stroke-opacity="0.28"/>
<rect x="1200.16" y="-169.385" width="24" height="829.125" stroke="#285994" stroke-opacity="0.28"/>
<rect x="1224.16" y="-169.385" width="24" height="829.125" stroke="#285994" stroke-opacity="0.28"/>
<rect x="1248.16" y="-169.385" width="24" height="829.125" stroke="#285994" stroke-opacity="0.28"/>
<rect x="1272.16" y="-169.385" width="24" height="829.125" stroke="#285994" stroke-opacity="0.28"/>
<rect x="1296.16" y="-169.385" width="24" height="829.125" stroke="#285994" stroke-opacity="0.28"/>
<rect x="1320.16" y="-169.385" width="24" height="829.125" stroke="#285994" stroke-opacity="0.28"/>
<rect x="1344.16" y="-169.385" width="24" height="829.125" stroke="#285994" stroke-opacity="0.28"/>
<rect x="1368.16" y="-169.385" width="24" height="829.125" stroke="#285994" stroke-opacity="0.28"/>
<rect x="1392.16" y="-169.385" width="24" height="829.125" stroke="#285994" stroke-opacity="0.28"/>
<rect x="1416.16" y="-169.385" width="24" height="829.125" stroke="#285994" stroke-opacity="0.28"/>
<rect x="1440.16" y="-169.385" width="24" height="829.125" stroke="#285994" stroke-opacity="0.28"/>
<rect x="408.164" y="70.6153" width="24" height="1440" transform="rotate(-90 408.164 70.6153)" stroke="#285994" stroke-opacity="0.28"/>
<rect x="408.164" y="94.6153" width="24" height="1440" transform="rotate(-90 408.164 94.6153)" stroke="#285994" stroke-opacity="0.28"/>
<rect x="408.164" y="118.615" width="24" height="1440" transform="rotate(-90 408.164 118.615)" stroke="#285994" stroke-opacity="0.28"/>
<rect x="408.164" y="142.615" width="24" height="1440" transform="rotate(-90 408.164 142.615)" stroke="#285994" stroke-opacity="0.28"/>
<rect x="408.164" y="166.615" width="24" height="1440" transform="rotate(-90 408.164 166.615)" stroke="#285994" stroke-opacity="0.28"/>
<rect x="408.164" y="190.615" width="24" height="1440" transform="rotate(-90 408.164 190.615)" stroke="#285994" stroke-opacity="0.28"/>
<rect x="408.164" y="214.615" width="24" height="1440" transform="rotate(-90 408.164 214.615)" stroke="#285994" stroke-opacity="0.28"/>
<rect x="408.164" y="238.615" width="24" height="1440" transform="rotate(-90 408.164 238.615)" stroke="#285994" stroke-opacity="0.28"/>
<rect x="408.164" y="262.615" width="24" height="1440" transform="rotate(-90 408.164 262.615)" stroke="#285994" stroke-opacity="0.28"/>
<rect x="408.164" y="286.615" width="24" height="1440" transform="rotate(-90 408.164 286.615)" stroke="#285994" stroke-opacity="0.28"/>
<rect x="408.164" y="310.615" width="24" height="1440" transform="rotate(-90 408.164 310.615)" stroke="#285994" stroke-opacity="0.28"/>
<rect x="408.164" y="334.615" width="24" height="1440" transform="rotate(-90 408.164 334.615)" stroke="#285994" stroke-opacity="0.28"/>
<rect x="408.164" y="358.615" width="24" height="1440" transform="rotate(-90 408.164 358.615)" stroke="#285994" stroke-opacity="0.28"/>
<rect x="408.164" y="382.615" width="24" height="1440" transform="rotate(-90 408.164 382.615)" stroke="#285994" stroke-opacity="0.28"/>
<rect x="408.164" y="406.615" width="24" height="1440" transform="rotate(-90 408.164 406.615)" stroke="#285994" stroke-opacity="0.28"/>
</g>
<mask id="mask1_1175_3807" style="mask-type:alpha" maskUnits="userSpaceOnUse" x="99" y="269" width="629" height="335">
<path opacity="0.7" fill-rule="evenodd" clip-rule="evenodd" d="M115.292 306.681C133.055 319.582 168.581 355.725 168.581 397.087C168.581 399.982 168.551 403.387 168.518 407.223C167.951 471.901 166.311 659.08 288.481 588.239C305.774 578.211 323.542 568.459 341.009 558.871C365.072 545.663 388.564 532.768 409.455 519.902C483.625 585.274 552.705 626.31 629.676 538.866C733.527 420.884 762.378 219.006 676.37 289.543C661.281 304.365 617.833 334.864 564.749 338.287C561.034 338.526 556.662 338.785 551.736 339.076C519.571 340.979 463.814 344.278 413.429 352.76C268.347 270.332 35.2942 237.216 115.292 306.681Z" fill="url(#paint2_linear_1175_3807)"/>
</mask>
<g mask="url(#mask1_1175_3807)">
<rect x="79.1642" y="29.6153" width="24" height="829.125" stroke="#285994" stroke-opacity="0.23"/>
<rect x="103.164" y="29.6153" width="24" height="829.125" stroke="#285994" stroke-opacity="0.23"/>
<rect x="127.164" y="29.6153" width="24" height="829.125" stroke="#285994" stroke-opacity="0.23"/>
<rect x="151.164" y="29.6153" width="24" height="829.125" stroke="#285994" stroke-opacity="0.23"/>
<rect x="175.164" y="29.6153" width="24" height="829.125" stroke="#285994" stroke-opacity="0.23"/>
<rect x="199.164" y="29.6153" width="24" height="829.125" stroke="#285994" stroke-opacity="0.23"/>
<rect x="223.164" y="29.6153" width="24" height="829.125" stroke="#285994" stroke-opacity="0.23"/>
<rect x="247.164" y="29.6153" width="24" height="829.125" stroke="#285994" stroke-opacity="0.23"/>
<rect x="271.164" y="29.6153" width="24" height="829.125" stroke="#285994" stroke-opacity="0.23"/>
<rect x="295.164" y="29.6153" width="24" height="829.125" stroke="#285994" stroke-opacity="0.23"/>
<rect x="319.164" y="29.6153" width="24" height="829.125" stroke="#285994" stroke-opacity="0.23"/>
<rect x="343.164" y="29.6153" width="24" height="829.125" stroke="#285994" stroke-opacity="0.23"/>
<rect x="367.164" y="29.6153" width="24" height="829.125" stroke="#285994" stroke-opacity="0.23"/>
<rect x="391.164" y="29.6153" width="24" height="829.125" stroke="#285994" stroke-opacity="0.23"/>
<rect x="415.164" y="29.6153" width="24" height="829.125" stroke="#285994" stroke-opacity="0.23"/>
<rect x="439.164" y="29.6153" width="24" height="829.125" stroke="#285994" stroke-opacity="0.23"/>
<rect x="463.164" y="29.6153" width="24" height="829.125" stroke="#285994" stroke-opacity="0.23"/>
<rect x="487.164" y="29.6153" width="24" height="829.125" stroke="#285994" stroke-opacity="0.23"/>
<rect x="511.164" y="29.6153" width="24" height="829.125" stroke="#285994" stroke-opacity="0.23"/>
<rect x="535.164" y="29.6153" width="24" height="829.125" stroke="#285994" stroke-opacity="0.23"/>
<rect x="559.164" y="29.6153" width="24" height="829.125" stroke="#285994" stroke-opacity="0.23"/>
<rect x="583.164" y="29.6153" width="24" height="829.125" stroke="#285994" stroke-opacity="0.23"/>
<rect x="607.164" y="29.6153" width="24" height="829.125" stroke="#285994" stroke-opacity="0.23"/>
<rect x="631.164" y="29.6153" width="24" height="829.125" stroke="#285994" stroke-opacity="0.23"/>
<rect x="655.164" y="29.6153" width="24" height="829.125" stroke="#285994" stroke-opacity="0.23"/>
<rect x="679.164" y="29.6153" width="24" height="829.125" stroke="#285994" stroke-opacity="0.23"/>
<rect x="703.164" y="29.6153" width="24" height="829.125" stroke="#285994" stroke-opacity="0.23"/>
<rect x="727.164" y="29.6153" width="24" height="829.125" stroke="#285994" stroke-opacity="0.23"/>
<rect x="-304.836" y="269.615" width="24" height="1440" transform="rotate(-90 -304.836 269.615)" stroke="#285994" stroke-opacity="0.23"/>
<rect x="-304.836" y="293.615" width="24" height="1440" transform="rotate(-90 -304.836 293.615)" stroke="#285994" stroke-opacity="0.23"/>
<rect x="-304.836" y="317.615" width="24" height="1440" transform="rotate(-90 -304.836 317.615)" stroke="#285994" stroke-opacity="0.23"/>
<rect x="-304.836" y="341.615" width="24" height="1440" transform="rotate(-90 -304.836 341.615)" stroke="#285994" stroke-opacity="0.23"/>
<rect x="-304.836" y="365.615" width="24" height="1440" transform="rotate(-90 -304.836 365.615)" stroke="#285994" stroke-opacity="0.23"/>
<rect x="-304.836" y="389.615" width="24" height="1440" transform="rotate(-90 -304.836 389.615)" stroke="#285994" stroke-opacity="0.23"/>
<rect x="-304.836" y="413.615" width="24" height="1440" transform="rotate(-90 -304.836 413.615)" stroke="#285994" stroke-opacity="0.23"/>
<rect x="-304.836" y="437.615" width="24" height="1440" transform="rotate(-90 -304.836 437.615)" stroke="#285994" stroke-opacity="0.23"/>
<rect x="-304.836" y="461.615" width="24" height="1440" transform="rotate(-90 -304.836 461.615)" stroke="#285994" stroke-opacity="0.23"/>
<rect x="-304.836" y="485.615" width="24" height="1440" transform="rotate(-90 -304.836 485.615)" stroke="#285994" stroke-opacity="0.23"/>
<rect x="-304.836" y="509.615" width="24" height="1440" transform="rotate(-90 -304.836 509.615)" stroke="#285994" stroke-opacity="0.23"/>
<rect x="-304.836" y="533.615" width="24" height="1440" transform="rotate(-90 -304.836 533.615)" stroke="#285994" stroke-opacity="0.23"/>
<rect x="-304.836" y="557.615" width="24" height="1440" transform="rotate(-90 -304.836 557.615)" stroke="#285994" stroke-opacity="0.23"/>
<rect x="-304.836" y="581.615" width="24" height="1440" transform="rotate(-90 -304.836 581.615)" stroke="#285994" stroke-opacity="0.23"/>
<rect x="-304.836" y="605.615" width="24" height="1440" transform="rotate(-90 -304.836 605.615)" stroke="#285994" stroke-opacity="0.23"/>
</g>
<mask id="mask2_1175_3807" style="mask-type:alpha" maskUnits="userSpaceOnUse" x="838" y="554" width="628" height="267">
<path opacity="0.7" fill-rule="evenodd" clip-rule="evenodd" d="M854.292 584.032C872.055 594.315 907.581 623.121 907.581 656.087C907.581 658.394 907.551 661.108 907.518 664.166C906.951 715.715 905.311 864.899 1027.48 808.438C1044.77 800.446 1062.54 792.673 1080.01 785.031C1104.07 774.505 1127.56 764.227 1148.46 753.972C1222.62 806.075 1291.71 838.782 1368.68 769.087C1472.53 675.054 1501.38 514.154 1415.37 570.373C1400.28 582.186 1356.83 606.494 1303.75 609.223C1300.03 609.413 1295.66 609.62 1290.74 609.852C1258.57 611.369 1202.81 613.998 1152.43 620.758C1007.35 555.062 774.294 528.667 854.292 584.032Z" fill="url(#paint3_linear_1175_3807)"/>
</mask>
<g mask="url(#mask2_1175_3807)">
<rect x="818.164" y="363.207" width="24" height="660.825" stroke="#285994" stroke-opacity="0.32"/>
<rect x="842.164" y="363.207" width="24" height="660.825" stroke="#285994" stroke-opacity="0.32"/>
<rect x="866.164" y="363.207" width="24" height="660.825" stroke="#285994" stroke-opacity="0.32"/>
<rect x="890.164" y="363.207" width="24" height="660.825" stroke="#285994" stroke-opacity="0.32"/>
<rect x="914.164" y="363.207" width="24" height="660.825" stroke="#285994" stroke-opacity="0.32"/>
<rect x="938.164" y="363.207" width="24" height="660.825" stroke="#285994" stroke-opacity="0.32"/>
<rect x="962.164" y="363.207" width="24" height="660.825" stroke="#285994" stroke-opacity="0.32"/>
<rect x="986.164" y="363.207" width="24" height="660.825" stroke="#285994" stroke-opacity="0.32"/>
<rect x="1010.16" y="363.207" width="24" height="660.825" stroke="#285994" stroke-opacity="0.32"/>
<rect x="1034.16" y="363.207" width="24" height="660.825" stroke="#285994" stroke-opacity="0.32"/>
<rect x="1058.16" y="363.207" width="24" height="660.825" stroke="#285994" stroke-opacity="0.32"/>
<rect x="1082.16" y="363.207" width="24" height="660.825" stroke="#285994" stroke-opacity="0.32"/>
<rect x="1106.16" y="363.207" width="24" height="660.825" stroke="#285994" stroke-opacity="0.32"/>
<rect x="1130.16" y="363.207" width="24" height="660.825" stroke="#285994" stroke-opacity="0.32"/>
<rect x="1154.16" y="363.207" width="24" height="660.825" stroke="#285994" stroke-opacity="0.32"/>
<rect x="1178.16" y="363.207" width="24" height="660.825" stroke="#285994" stroke-opacity="0.32"/>
<rect x="1202.16" y="363.207" width="24" height="660.825" stroke="#285994" stroke-opacity="0.32"/>
<rect x="1226.16" y="363.207" width="24" height="660.825" stroke="#285994" stroke-opacity="0.32"/>
<rect x="1250.16" y="363.207" width="24" height="660.825" stroke="#285994" stroke-opacity="0.32"/>
<rect x="1274.16" y="363.207" width="24" height="660.825" stroke="#285994" stroke-opacity="0.32"/>
<rect x="1298.16" y="363.207" width="24" height="660.825" stroke="#285994" stroke-opacity="0.32"/>
<rect x="1322.16" y="363.207" width="24" height="660.825" stroke="#285994" stroke-opacity="0.32"/>
<rect x="1346.16" y="363.207" width="24" height="660.825" stroke="#285994" stroke-opacity="0.32"/>
<rect x="1370.16" y="363.207" width="24" height="660.825" stroke="#285994" stroke-opacity="0.32"/>
<rect x="1394.16" y="363.207" width="24" height="660.825" stroke="#285994" stroke-opacity="0.32"/>
<rect x="1418.16" y="363.207" width="24" height="660.825" stroke="#285994" stroke-opacity="0.32"/>
<rect x="434.164" y="555.207" width="24" height="1440" transform="rotate(-90 434.164 555.207)" stroke="#285994" stroke-opacity="0.32"/>
<rect x="434.164" y="579.207" width="24" height="1440" transform="rotate(-90 434.164 579.207)" stroke="#285994" stroke-opacity="0.32"/>
<rect x="434.164" y="603.207" width="24" height="1440" transform="rotate(-90 434.164 603.207)" stroke="#285994" stroke-opacity="0.32"/>
<rect x="434.164" y="627.207" width="24" height="1440" transform="rotate(-90 434.164 627.207)" stroke="#285994" stroke-opacity="0.32"/>
<rect x="434.164" y="651.207" width="24" height="1440" transform="rotate(-90 434.164 651.207)" stroke="#285994" stroke-opacity="0.32"/>
<rect x="434.164" y="675.207" width="24" height="1440" transform="rotate(-90 434.164 675.207)" stroke="#285994" stroke-opacity="0.32"/>
<rect x="434.164" y="699.207" width="24" height="1440" transform="rotate(-90 434.164 699.207)" stroke="#285994" stroke-opacity="0.32"/>
<rect x="434.164" y="723.207" width="24" height="1440" transform="rotate(-90 434.164 723.207)" stroke="#285994" stroke-opacity="0.32"/>
<rect x="434.164" y="747.207" width="24" height="1440" transform="rotate(-90 434.164 747.207)" stroke="#285994" stroke-opacity="0.32"/>
<rect x="434.164" y="771.207" width="24" height="1440" transform="rotate(-90 434.164 771.207)" stroke="#285994" stroke-opacity="0.32"/>
<rect x="434.164" y="795.207" width="24" height="1440" transform="rotate(-90 434.164 795.207)" stroke="#285994" stroke-opacity="0.32"/>
<rect x="434.164" y="819.207" width="24" height="1440" transform="rotate(-90 434.164 819.207)" stroke="#285994" stroke-opacity="0.32"/>
<rect x="434.164" y="843.207" width="24" height="1440" transform="rotate(-90 434.164 843.207)" stroke="#285994" stroke-opacity="0.32"/>
</g>
<path opacity="0.46" d="M330.49 298.133H323.025V299.198H330.49V298.133Z" fill="#1A782F"/>
<path opacity="0.46" d="M247.308 309.919C249.369 309.919 251.04 309.68 251.04 309.386C251.04 309.092 249.369 308.854 247.308 308.854C245.246 308.854 243.575 309.092 243.575 309.386C243.575 309.68 245.246 309.919 247.308 309.919Z" fill="#197035"/>
<path opacity="0.46" d="M250.507 301.251C252.569 301.251 254.24 301.012 254.24 300.718C254.24 300.424 252.569 300.186 250.507 300.186C248.446 300.186 246.775 300.424 246.775 300.718C246.775 301.012 248.446 301.251 250.507 301.251Z" fill="#1A782F"/>
<path opacity="0.46" d="M266.504 308.93C268.268 308.93 269.703 309.135 269.703 309.386C269.703 309.638 268.268 309.843 266.504 309.843C264.74 309.843 263.304 309.638 263.304 309.386C263.304 309.135 264.74 308.93 266.504 308.93ZM266.504 308.854C264.442 308.854 262.771 309.092 262.771 309.386C262.771 309.68 264.442 309.919 266.504 309.919C268.565 309.919 270.236 309.68 270.236 309.386C270.236 309.092 268.565 308.854 266.504 308.854Z" fill="#197035"/>
<path opacity="0.46" d="M317.693 296.841C319.457 296.841 320.892 297.045 320.892 297.297C320.892 297.548 319.457 297.753 317.693 297.753C315.929 297.753 314.494 297.548 314.494 297.297C314.494 297.045 315.929 296.841 317.693 296.841ZM317.693 296.765C315.632 296.765 313.961 297.003 313.961 297.297C313.961 297.591 315.632 297.829 317.693 297.829C319.755 297.829 321.426 297.591 321.426 297.297C321.426 297.003 319.755 296.765 317.693 296.765Z" fill="#1A782F"/>
<path opacity="0.46" d="M276.102 308.93C277.866 308.93 279.301 309.135 279.301 309.386C279.301 309.638 277.866 309.843 276.102 309.843C274.338 309.843 272.902 309.638 272.902 309.386C272.902 309.135 274.338 308.93 276.102 308.93ZM276.102 308.854C274.04 308.854 272.369 309.092 272.369 309.386C272.369 309.68 274.04 309.919 276.102 309.919C278.163 309.919 279.834 309.68 279.834 309.386C279.834 309.092 278.163 308.854 276.102 308.854Z" fill="#197035"/>
<path opacity="0.46" d="M300.63 308.55H293.698V308.93H300.63V308.55Z" fill="#1A782F"/>
<path opacity="0.46" d="M310.761 308.55H303.829V308.93H310.761V308.55Z" fill="#1A782F"/>
<path opacity="0.46" d="M327.824 310.451V311.439H330.491V310.451H327.824Z" fill="#1A782F"/>
<path opacity="0.46" d="M327.824 309.006V309.995H330.491V309.006H327.824Z" fill="#1A782F"/>
<path opacity="0.46" d="M244.109 306.421V307.409H246.775V306.421H244.109Z" fill="#1A782F"/>
<path opacity="0.46" d="M244.109 304.976V305.965H246.775V304.976H244.109Z" fill="#1A782F"/>
<path opacity="0.46" d="M244.109 303.532V304.52H246.775V303.532H244.109Z" fill="#1A782F"/>
<path opacity="0.46" d="M244.109 302.087V303.075H246.775V302.087H244.109Z" fill="#1A782F"/>
<g opacity="0.46">
<path opacity="0.46" d="M332.09 300.034H329.424V300.49H332.09V300.034Z" fill="#1A782F"/>
<path opacity="0.46" d="M332.09 307.257H329.424V307.714H332.09V307.257Z" fill="#1A782F"/>
</g>
<defs>
<linearGradient id="paint0_linear_1175_3807" x1="719" y1="-2.26921e-05" x2="1192.5" y2="804" gradientUnits="userSpaceOnUse">
<stop offset="0.4375" stop-color="#163A65"/>
<stop offset="1" stop-color="#163A65"/>
</linearGradient>
<linearGradient id="paint1_linear_1175_3807" x1="1433.4" y1="48.8299" x2="1173.29" y2="396.847" gradientUnits="userSpaceOnUse">
<stop stop-color="white" stop-opacity="0.42"/>
<stop offset="1" stop-color="white"/>
</linearGradient>
<linearGradient id="paint2_linear_1175_3807" x1="720.404" y1="247.83" x2="460.289" y2="595.847" gradientUnits="userSpaceOnUse">
<stop stop-color="white" stop-opacity="0.42"/>
<stop offset="1" stop-color="white"/>
</linearGradient>
<linearGradient id="paint3_linear_1175_3807" x1="1459.4" y1="537.127" x2="1269.32" y2="856.219" gradientUnits="userSpaceOnUse">
<stop stop-color="white" stop-opacity="0.42"/>
<stop offset="1" stop-color="white"/>
</linearGradient>
</defs>
</svg>
