<svg width="1440" height="867" fill="none" xmlns="http://www.w3.org/2000/svg"><g clip-path="url(#a)"><path fill="#fff" d="M0 0h1440v867H0z"/><path d="M-2 0h1442v873H-2V0Z" fill="#fff"/><mask id="c" style="mask-type:alpha" maskUnits="userSpaceOnUse" x="799" y="158" width="628" height="267"><path opacity=".7" fill-rule="evenodd" clip-rule="evenodd" d="M815.292 188.032c17.763 10.283 53.289 39.089 53.289 72.055 0 2.307-.03 5.021-.063 8.079-.567 51.549-2.207 200.733 119.963 144.272 17.289-7.992 35.059-15.765 52.529-23.407 24.06-10.526 47.55-20.804 68.45-31.059 74.16 52.103 143.25 84.81 220.22 15.115 103.85-94.033 132.7-254.933 46.69-198.714-15.09 11.813-58.54 36.121-111.62 38.85-3.72.19-8.09.397-13.01.629-32.17 1.517-87.93 4.146-138.31 10.906-145.083-65.696-378.136-92.091-298.138-36.726Z" fill="url(#b)"/></mask><g mask="url(#c)" stroke="#285994" stroke-opacity=".09"><path d="M779.164-32.793h24v660.825h-24zM803.164-32.793h24v660.825h-24zM827.164-32.793h24v660.825h-24zM851.164-32.793h24v660.825h-24zM875.164-32.793h24v660.825h-24zM899.164-32.793h24v660.825h-24zM923.164-32.793h24v660.825h-24zM947.164-32.793h24v660.825h-24zM971.164-32.793h24v660.825h-24zM995.164-32.793h24v660.825h-24z"/><path d="M1019.16-32.793h24v660.825h-24zM1043.16-32.793h24v660.825h-24zM1067.16-32.793h24v660.825h-24zM1091.16-32.793h24v660.825h-24zM1115.16-32.793h24v660.825h-24zM1139.16-32.793h24v660.825h-24zM1163.16-32.793h24v660.825h-24zM1187.16-32.793h24v660.825h-24zM1211.16-32.793h24v660.825h-24zM1235.16-32.793h24v660.825h-24zM1259.16-32.793h24v660.825h-24zM1283.16-32.793h24v660.825h-24zM1307.16-32.793h24v660.825h-24zM1331.16-32.793h24v660.825h-24zM1355.16-32.793h24v660.825h-24zM1379.16-32.793h24v660.825h-24zM1403.16-32.793h24v660.825h-24zM1427.16-32.793h24v660.825h-24z"/><path d="M395.164 159.207v-24h1440v24zM395.164 183.207v-24h1440v24zM395.164 207.207v-24h1440v24zM395.164 231.207v-24h1440v24zM395.164 255.207v-24h1440v24zM395.164 279.207v-24h1440v24zM395.164 303.207v-24h1440v24zM395.164 327.207v-24h1440v24zM395.164 351.207v-24h1440v24zM395.164 375.207v-24h1440v24zM395.164 399.207v-24h1440v24zM395.164 423.207v-24h1440v24zM395.164 447.207v-24h1440v24z"/></g><mask id="e" style="mask-type:alpha" maskUnits="userSpaceOnUse" x="-132" y="505" width="628" height="267"><path opacity=".7" fill-rule="evenodd" clip-rule="evenodd" d="M-115.708 535.032c17.763 10.283 53.29 39.089 53.29 72.055 0 2.307-.03 5.021-.064 8.079-.567 51.549-2.207 200.733 119.963 144.272 17.293-7.992 35.06-15.765 52.528-23.407 24.063-10.526 47.555-20.804 68.446-31.059 74.17 52.103 143.25 84.81 220.221 15.115 103.851-94.033 132.702-254.933 46.694-198.714-15.089 11.813-58.538 36.121-111.621 38.85-3.715.19-8.087.397-13.013.629-32.165 1.517-87.922 4.146-138.307 10.906-145.082-65.696-378.135-92.091-298.137-36.726Z" fill="url(#d)"/></mask><g mask="url(#e)" stroke="#285994" stroke-opacity=".09"><path d="M-7.836 314.207h24v660.825h-24zM16.164 314.207h24v660.825h-24zM40.164 314.207h24v660.825h-24zM64.164 314.207h24v660.825h-24zM88.164 314.207h24v660.825h-24z"/><path d="M112.164 314.207h24v660.825h-24zM136.164 314.207h24v660.825h-24zM160.164 314.207h24v660.825h-24zM184.164 314.207h24v660.825h-24zM208.164 314.207h24v660.825h-24zM232.164 314.207h24v660.825h-24zM256.164 314.207h24v660.825h-24zM280.164 314.207h24v660.825h-24zM304.164 314.207h24v660.825h-24zM328.164 314.207h24v660.825h-24zM352.164 314.207h24v660.825h-24zM376.164 314.207h24v660.825h-24zM400.164 314.207h24v660.825h-24zM424.164 314.207h24v660.825h-24zM448.164 314.207h24v660.825h-24zM472.164 314.207h24v660.825h-24zM496.164 314.207h24v660.825h-24z"/><path d="M-535.836 506.207v-24h1440v24zM-535.836 530.207v-24h1440v24zM-535.836 554.207v-24h1440v24zM-535.836 578.207v-24h1440v24zM-535.836 602.207v-24h1440v24zM-535.836 626.207v-24h1440v24zM-535.836 650.207v-24h1440v24zM-535.836 674.207v-24h1440v24zM-535.836 698.207v-24h1440v24zM-535.836 722.207v-24h1440v24zM-535.836 746.207v-24h1440v24zM-535.836 770.207v-24h1440v24zM-535.836 794.207v-24h1440v24z"/></g></g><defs><linearGradient id="b" x1="1420.4" y1="141.127" x2="1230.32" y2="460.219" gradientUnits="userSpaceOnUse"><stop stop-color="#fff" stop-opacity=".42"/><stop offset="1" stop-color="#fff"/></linearGradient><linearGradient id="d" x1="489.404" y1="488.127" x2="299.319" y2="807.219" gradientUnits="userSpaceOnUse"><stop stop-color="#fff" stop-opacity=".42"/><stop offset="1" stop-color="#fff"/></linearGradient><clipPath id="a"><path fill="#fff" d="M0 0h1440v867H0z"/></clipPath></defs></svg>