<svg width="371" height="371" fill="none" xmlns="http://www.w3.org/2000/svg"><circle cx="185.5" cy="185.5" r="185.5" fill="#F0F3F5"/><path d="M143 265c2.7-1 5.4-1.7 8.3-2.3l.3 1.3a.6.6 0 0 0 .7.4l11-1.3c3.1-7 8.7-17.5 8.8-17.6V238a418 418 0 0 0-24.5 10v.6l.2 1c-3 0-12-.5-14.2 1.6-.3.4-.5 1-.4 1.6-.2 2.2 1 19.5 2.7 24.6 1 2.7 2.9 2.4 4.2-.2a44 44 0 0 0 3-12l-.1-.3Zm-1.9-14.5 6.9-.2 3 11.8c-2.8.4-5.6 1-8.3 2-.9-4.5-1.4-9-1.6-13.6Z" fill="#879DB1"/><path d="M265.5 129c.4-.5 0-1.1-.4-1.6 1-1.2 2.2-2.2 3.5-3a23 23 0 0 0 6-4.4c.7-.8 2-2.3 1.5-3.2-.5-1-1.4-1-2.6-.5a7 7 0 0 0 1.3-2c.3-1-.6-2-2.6-1.1.7-1.2.9-2.5-.3-3-1-.6-2.5.6-3.4 1.3-1.6 1.5-3.2 3.1-4.6 4.8-1-1.9-2.3-4-4.1-3.4-1.8.7-.4 3.8.5 5.5l-3.2 2.3a3 3 0 0 0-1.6-.4c-3.6.7-20.3 13.7-22 13.7-1.3 0-19.9-9.1-36-11.8v-.2l-.4-.1a44.2 44.2 0 0 0-8.7-.6l-.2.2H187c-.2-1.2-1.3-3.9-1.7-5 1-.8 2.3-1.2 3-2.6 1.3-2.5 1.2-7 .9-9.8 1.6-1.2 1.6-3.2 1.3-5.2-.2-.9-.6-2.7-1.3-3.2-.4-.2-1.2 0-1.9.3-.7-1.7-.7-1-.4-1.6l.2-1c.8.3 2.3-1.2 1.8-3.3a13 13 0 0 0-1-2c.2-.5.6-1.1-.7-3-.6-.5-1.3-1-2.2-1.2h-.6a3.6 3.6 0 0 0-2-1.4 4.6 4.6 0 0 0-3.5.5l-.8.7a4 4 0 0 0-4.2 0 3 3 0 0 0-1.7 1.7 5.2 5.2 0 0 0-4.2.3 10.8 10.8 0 0 0-5.1 6.3v1.3h-.2c-2-.3-4.8 4.8-2.6 8.8.2.5.6 1 .9 1.4.9 1.5.5 1.9 2.6 3.7l1 .8c.4.3.2.1.4 1a3.7 3.7 0 0 0 1.7 2.2c.2 1.4.8 2.8 1.7 3.8l1 .9h.4c.4 2.7 1 6.2 1.1 7.7l-1.2.7a40 40 0 0 0-8.8 4.8c-11.2 6.8-43 51.6-43.3 53.6v.4c.4.7 1 1.4 1.6 2l-.7 1c-2.8 1.9-7 4.7-9.3 7.2a1.3 1.3 0 0 0-.4 1.2 1.3 1.3 0 0 0 .8 1c.4 0 .5 0 3.2-1.5-.7.7-1.3 1.5-1.8 2.4-.2.8.5 1.3 1.4 1.1.5-.1 1-.3 1.4-.6a2.5 2.5 0 0 0 0 2.7c1.5 1.8 5.2-4 7.1-5.3.8 1 1.9 3.4 3.6 2.7 1.5-.5-.2-3.8 0-4.8l1.8-1.6c1.1.9 2.3 1.4 3.7 1.7 2.3 0 26.6-25 28.5-27-.7 6.3-4 33.7-3.3 39 .3 2.4 6 2.8 8.3 3-.7 17.2-1.2 43.4-1.3 43.7-3.7 8.3-4.8 10.5-6 13-2.3 4.5-12 21-13 24.7-.2.6-.2.8.4 2-1.8 1.9-3.5 4-5 6.2a60.3 60.3 0 0 0 4.9 19.6c.5 1 1.4 2.7 2.6 2.7 3.5-.2 3.5-13.1 3.4-16.7l-.1-.3c.6-1 1.3-2 2-2.8l1.5.8c.4.2 1-.2 1.4-.5 4.7-3.8 30-36 35.5-51.3a137 137 0 0 0 6.7-23.3 54.5 54.5 0 0 0 .3-13.3l.2.1v.2c.8 4.3 1 8.7.5 13.1-1 9.5-8.4 29.2-12.3 36.4 3.4-.6 10.2-2 13.5-3 11-3.5 21.2-13.7 22.1-25.1a152.5 152.5 0 0 0-2.8-38.3c3-1.6 5.7-3.6 6.6-5.4 1.9-3.8-3.1-25.8-4.2-32 6 .7 16.2 2 21-1.9 5.5-4.5 17.3-17.2 24.1-26.9ZM148.7 301.7c-2.5-1.6-6-5.3-6.6-8.3l1.7-2.2c2 3 4.3 5.6 7 7.8-.7.9-1.4 1.7-2 2.7ZM261 118.8a.3.3 0 0 0 .2-.4c-.5-1-2-4.3-1-4.7.6-.2 1.1.2 1.6.7.6.9 1.2 1.8 1.5 2.9a.5.5 0 0 0 .4.3.5.5 0 0 0 .4-.2c1.4-1.6 4.8-5.2 6.6-6.2 1.4-.7 1.8.6-1.7 3.9a30.2 30.2 0 0 0-2.3 2.1v.2c0 .4.3.8.8.4l4-3a5 5 0 0 1 2.2-1c-.4 1.4-4.3 5-4.7 5.4l-.1.4.1.4a.5.5 0 0 0 .8 0c1.5-1 4.3-3.4 5.2-3 1 .3-1.8 3-2.5 3.6-4.1 3.6-3 1.3-7.7 6.2-2-2.3-4.4-4.3-7-5.9l3.2-2Zm-61.3 69-.9-6.4.6-.8c2.8-3.7 3.7-9.6 3.4-14.2 1.5 6.7 2.7 13.4 3.6 20l-6.7 1.4Zm-21-49.4c-3.7-2.9-9.7-7.8-13.1-11.2l5.6-3c5.2 5 9.6 10.7 13.2 17 5.4 10.2 9.4 21 12 32.4L176 144.5l2.6-5.6v-.5Zm9.6-16.3 2.5 6-.4 5c-1.8-.7-3.5-1.7-5-2.9.3-1.3 1.7-7 1.8-8.2h1Zm-5 15.5c0-.3.1-.7.3-1l.9.4c.5.4.3-.7.8 2.5l.2 1.8-2.2-3.7Zm-.8-1.3a71 71 0 0 0-9.1-10.7l10.6 4.8c-.4 1-1 4-1.5 6Zm10.8 8.5c-1.4-4-2.5-8.3-3-9.5v-1h1l.2-.4.3-3.4c4.1 10.6 7.5 21.4 10.3 32.5-8-17.4-6.8-12.4-8.8-18.2Zm11.7 27.5a266.4 266.4 0 0 0-15.3-50c2.3 0 4.7.2 7 .6 1.2 11 .2 10.6 1 11 .8.5 5.7 2.5 6.4 2.8 0 1 1 32.8.9 35.6Zm-16.3-75.7c.8 1.7 1 3.5.8 5.3-.1.5-.4.9-.7 1.2a2.5 2.5 0 0 1-2.5.6c-.5-.2-.9-.5-1.1-.8-.7-1.5-1.2-3-1.6-4.6.4-.5 4.5-1.5 5.1-1.7Zm-19.4 14.5-1.6-.7a2.6 2.6 0 0 1-1.5-1.7 2.7 2.7 0 0 1 .5-2.2c.8-.8 1.7-.8 2.4.4.5.9.4 1 .7 1a.5.5 0 0 0 .3 0 .5.5 0 0 0 .3-.3c.2-.9.2-1.8 0-2.7a59 59 0 0 1 0-5.6c.3.2.8.3 1.3.3 2.5-.1 3-1.4 4-2.5 1.2 0 1.4.7 2.8 0 .6-.4 1.2-.8 1.7-1.4l1.1.6a4.3 4.3 0 0 0 5.2-1l.4 1c-1.3.4-2.5 1-3.6 1.8-.3.3 0 2 .2 2.4-1.2.1-2.4.5-3.4 1-.2-.7-.7-2-1.4-2.5h-.7a20 20 0 0 0-6.4 2.4c-.5.5 1 4.7 1.3 5.3 1.7 2.6 6.4 1.9 7.3-1.1.2-1 .2-2 0-3 .4 0 1.6-.5 1.8-.6 1 2.3 1.2 2.4 2.4 4.8l-.6.5c-1 .7-1.3.5-1.2.8l.1.2h.2c.6 0 1.1-.2 1.7-.5.3-.1.6-.4.8-.7.3-.9-1.8-4.3-2.7-5.3l.9-.5c.4 1.6.6 3 2.1 3.5a3.4 3.4 0 0 0 2.8 0 19 19 0 0 1-1 8.8c-.6 1.2-2.1 1.7-3 2.6-.4.3-.2.7 0 1.1 1.5 4.5 1.5 4.4 1.4 5-.4 2.4-1 4.8-1.7 7-.4 0-4.3-2.2-12-5.3-.3-1.6-1.6-10.3-2-12 0-.5 0-.6-.9-1Zm9.9-6c-.5 1.7-2.6 2.3-4.1 2-1.5-.5-1.6-1.3-2.4-3.2-.3-.7-.5-1.5-.6-2.3.4-.5 5.5-1.5 6.1-1.6a8 8 0 0 1 1 5.1Zm-55.2 86.7c-.6.5.1 2.3.3 3.8l-.1.7c-.8.3-1.5-1-2-1.6-.4-.8-.8-1.7-1.5-1.5-1.4.7-4.7 5.1-6 5.6-.7-1.3 3-4.9 3.2-5.1a.6.6 0 0 0 0-.6.6.6 0 0 0-.5-.3c-.3 0-.5.2-.9.6a16.3 16.3 0 0 1-4 3 50.7 50.7 0 0 1 4.5-4.8s-.3-.8-1-.5c-.7.5-4.7 2.8-6 3.4-.1 0 0-.3 0-.4 2-2.5 6.4-5.6 9-7.5.4-.3.7-.7.9-1.1 1.8 1.8 3.8 3.4 5.9 4.9-.7.4-1.3.9-1.8 1.4Zm32.8 13c-.3-.1-.5-.3-.6-.6-.7-5.8 3.6-39.2 3.5-40.5a.6.6 0 0 0-.2-.4l-.2-.1h-.2c-.7 0 .6 0-17.4 17.5-1.2 1.2-10.3 10-11.8 10.6a34 34 0 0 1-11.1-8.5c2.4-5 32.2-46.9 42.5-53.3l3.7-2a280.7 280.7 0 0 0 13 11.4l-2.8 5.5a.5.5 0 0 0 0 .5l21.7 31.7c1.4 7.4 2.3 15 2.6 22.5 0 2 0 1.8.1 1.7 0-.2 0 0 0 0-3.4 3.9-37.2 7.4-42.8 4Zm78-47.7c-6.4 1-13.6-.4-15-.5a28.7 28.7 0 0 0-4.7-10.8h-.1l-.1.2v.2c.8 1.7 3.6 9 4.2 10.8-.2.7 6.4 28.5 4.5 32.3-1.6 3.4-11.3 7.6-14.8 8.9-.7-8-1.8-16-3.4-24 .5-4-.1-28.8-.3-38a.6.6 0 0 0-.4-.4l-6.3-2.7c0-3.5-.2-6.9-.6-10.3 15.8 2.8 34.2 12 35.8 12 2.2 0 18.8-13 22.2-13.4 1.5-.3 8 5.6 8.8 7.2a163.6 163.6 0 0 1-23.9 26.4c-1.7 1.2-3.8 2-5.9 2.1Z" fill="#123054"/><path d="M197.3 77a.7.7 0 0 0-.3-.4.7.7 0 0 0-1.2.4v.3c.3 1.5.4 1.8 1 1.8a.7.7 0 0 0 .6-.3.7.7 0 0 0 0-.7l-.1-1Zm4.3 9.6c.9.3 1.8-.2 1.7-.4 0-.2 0-.1-1.2-.6-.8-.3-1.8-1.4-2-1.3-.4.2 0 1.1.2 1.3.3.5.8.8 1.3 1ZM227.4 73a392 392 0 0 0-3.5 16v1.8c.7 1.6 10.4 4.8 11.6 4.2 1.2-.6 4.4-8 8.1-15.6a31.8 31.8 0 0 0 13.6-2.7c4.8-2.2 10-11.9 10.7-16.8a26 26 0 0 0-3.1-15.1c-11.8-21-46.5-9.8-43.7 13.6a31 31 0 0 0 6.3 14.6ZM236 90c0 .2-.3.2-1.4 0a19 19 0 0 1-6.8-2.2c-1-.6-1.3-.7-1.2-1 .1-.2.4 0 1.9.3l5.7 2c1.7.7 1.8.7 1.8.9Zm-.3-23.5c1.5 0 3-.3 4.4-1 1.2.7 2.6 1 4 1.2-2.4 4.5-7.2 13.7-8.8 18.6l-6-1.7c1.5-3.5 4.6-11.8 6.4-17.1Zm-.5-1.2a5 5 0 0 1-4.1-4.3c-.4-3 1.4-6.2 4.1-5.4 1.8.5 2 1.8 1.7 3.6l-1.7 6Zm3.9-3.5c.1-1 .5-1.8 1-2.6.2-.5.6-.8 1-1 .4-.3 1-.4 1.4-.4 1 .4 1.5 2.4.7 3.7-.9 1-1.9 2-3 2.8-.5-.3-.8-.7-1-1-.2-.5-.3-1-.2-1.5Zm-13-18.4a25.2 25.2 0 0 1 26.8-7.6c4.7 1.6 8.6 5 11 9.3 2.5 4.4 3.5 9.5 3 14.5-.6 4.5-5.6 13.8-10 15.9-4 1.8-8.4 2.8-12.8 2.6-.5 0-1 0-1.2.4l-3.8 8.2c-1-.5-2.1-1-3.2-1.3 1.6-4.8 6.8-14.2 9.2-18.7 2.1.1 4.3-.2 6.2-1.1.5-.3 1-.8 1.3-1.3a3.3 3.3 0 0 0-.2-3.4c-.3-.5-.8-.9-1.3-1.1-2.2-1.1-4.2 1.5-5.3 3.7l-1 2c-1.2 0-2.4-.3-3.4-.7 1-.7 2-1.7 2.8-2.7a4 4 0 0 0-.2-4.7c-.3-.4-.9-.7-1.4-.8-.6 0-1.2 0-1.7.4-1 .6-1.8 1.5-2.3 2.6-.5 1-.7 2.2-.5 3.4.1.7.5 1.3 1 1.7-1 .4-2 .6-3 .6a69 69 0 0 0 1.8-6c.1-.7.2-1.5 0-2.2 0-.6-.3-1.2-.7-1.7-.5-.4-1-.8-1.6-1-3.4-1-6 3-5.5 6.6.2 1.3.7 2.5 1.6 3.5.9 1 2 1.6 3.3 1.8l-6 17.2-3.2-.8c2-10.3 2.2-10 2-10.1a30.1 30.1 0 0 1-6-14.5 19.2 19.2 0 0 1 4.3-14.7Zm19.6 22.2c1-1.8 3-5.8 4.8-4.8a2.3 2.3 0 0 1 1.5 1.9c0 2.5-4 3-6.4 3Zm54 6.4c1.7-1 3.7-1.4 5.6-1 2.1 0 4.1 1 5.7 2.4a8.6 8.6 0 0 1 2.5 5.8c-1.3-.7-2.8-1-4.3-.8-3.5.3-8.1 2.3-7.5 5.8.5 2.9 4.2 2.5 7 1.7 2.9-.8 5.1-2.2 5.7-5 3.4 2.6 4.2 7 4.3 11.4l.1.2a.2.2 0 0 0 .3 0l.1-.2c.1-4.9-.8-9.7-4.7-12.5a9.5 9.5 0 0 0-2.6-6.8 9 9 0 0 0-6.5-2.7c-2-.3-4 0-5.7 1.2-.5.2-.3.6 0 .5Zm12.8 10.4c-1.6 2.1-6 3.2-8.2 2.8-.8 0-1.4-.4-1.6-1.2-.5-3 4.4-4.5 7.3-4.6 1.2-.1 2.4.2 3.4.9-.1.7-.4 1.5-.9 2Zm-19.3-27.3c1.5-1.9.5-5.2-3.7-5.2-1.7 0-2.5 1.7-2.3 3.3.2 3.9 4.5 3.8 6 2Zm-5-2c0-1 .4-2.2 1.4-2.2 2.2 0 3.3 1.1 3.3 2.3 0 2.8-5 4.2-4.8 0Zm-.6 163.8c-12.4-5-18.2 19.5-28.3 40.6v2.7a89 89 0 0 0 1.6 18.5c.3.7 1.7 0 2.4-.4a110.8 110.8 0 0 0 16-12.6c2.6-3.8 12.4-23.8 14.8-33.8 1.7-7 0-12.3-6.5-15Zm4.4 18.4c-6.6-.9-13-3-19-6.3 3.4-6.4 7.5-13.7 14.2-11 7.5 3 7.3 9.4 4.8 17.3ZM268.5 273l-1.4-1c-1.9-1-4-1.2-6.1-.6l-1-13c10.6 4 7.3 2.2 17.8 7.6-1.1 1-5.3 4-9.3 7Zm7.3-41.9 4.2 2.1c-3.2 5.2-6 10.7-8.5 16.3-2.4 5-2.3 5-4.7 10.6l-4.2-1.3 13.2-27.7Zm-8.5 29.1c4.6-8.4 9.3-18.9 13.3-26.8l4.2 1.6-3.5 6.4-6.8 13.7-3 6.7-4.2-1.6Zm4.8 1.8 4.8-9.2 8.5-17.7 3.5.9c-2.6 7.2-10 21.1-12.7 28l-4.2-2Zm.8-32.5 2.6 1.4c-5.1 9-9.6 18.2-13.3 27.7l-2.1-.6c8.2-18 8.6-20.3 12.8-28.5Zm5.8 35.7-2-1c2.2-4.6 9.4-16.5 12.7-28.1l2.3.4a212 212 0 0 1-13 28.7Zm-44.1 9.4a3.6 3.6 0 0 0 1-4c-.1-1-.6-2-1.3-2.7a4.3 4.3 0 0 0-7.2 1.8 576 576 0 0 0-5.6-3.7c1.4-1.9 5.5-1 6 .5v.2h.4v-.2c-.2-2.6-5.3-4-7.4-1a146 146 0 0 0-6-3.6c1.7-1.5 5.3-.7 5.7.8l.1.1h.2a.2.2 0 0 0 .2-.2c-.2-2.3-5-3.9-7.1-1.3-.9-.5-1.8-1-2.8-1.3a1 1 0 0 0-1 .2c-3.7 4.6-15.7 16.4-21.2 17.8l-.4.1-.3.4a.8.8 0 0 0 .1.8c1.3 1.3 2.7 2.3 4.2 3.2-1.4 1.4-2.5 2.7-3.3 3.7-.5.4-.7 9.3-.3 11.2 0 .2.2.4.3.5 1.8 1.2 24.7 11.4 27 10 1.6-.9 20.3-20.8 20.6-21.4.4-1 .3-7.3.2-9.9 0-.7-1.5-1.6-2.1-2Zm-45.2 19.1v-3.2a279 279 0 0 0 24.4 10.4c1.3.4 1.4.4 2 0 4-2.5 17.6-18.3 20.1-20.8v3.1c-7.6 7.8-20.5 21.5-20.8 20.7-1.4 0-24.5-9.6-25.7-10.2Zm44.8-24c.5 1 .8 2 .8 3a2.1 2.1 0 0 1-.8 1.6l-6.1-4c1.4-3 4.7-3 6-.6h.1Zm-45.1 9.3c6-1.8 17.4-13.1 21.2-18l2.7 1.1c-1.4 2.7 0 5.7.6 5.2.3-.2-.2-.3-.3-1.7 0-1 .2-2 .7-3 1.9 1 4.2 2.4 6.1 3.6-1.2 2.7.3 5.4.8 5 .4-.4-.3-.3-.4-1.8 0-.9.2-1.8.5-2.7l6 3.7a5 5 0 0 0 .4 4.5.2.2 0 0 0 .3-.1v-.2a4.3 4.3 0 0 1 0-3.7l6.8 4.3c-.1.2-14.8 13.6-19.9 17.5-3.2-.8-20.5-9.6-25.5-13.7Zm.5 8c6.4 3 21 9.6 24.3 10.3.5.1.8.1 1.9-.8 4.7-3.8 20-20.2 20-20v3.1c-3 2.5-20.6 21.3-20.8 20.4-1.5 0-24.4-9.6-25.5-10.1l.1-2.9Zm25.7 20a131 131 0 0 1-25.8-10l-.1-2.8c6.2 3.2 24.1 11 25.8 10.9 2.4-.2 19.4-19.8 20.6-21.2 0 .7 0 1.5-.2 2.2-.2.5-19.4 20.3-20.3 20.9ZM98.5 225.5a66 66 0 0 1 .3 4.7.7.7 0 0 0 1 0c.2-.2.2-.4.2-.6a67.3 67.3 0 0 0-.4-4.7.7.7 0 0 0-1 0c-.1.2-.2.4-.1.6Zm214.8-29-.2.1a.7.7 0 0 0-.4.4v.3a65.8 65.8 0 0 1 .4 4.7.7.7 0 0 0 1 0l.2-.6a58.8 58.8 0 0 0-.5-4.7l-.2-.1h-.3ZM94.8 222c.2 0 .4 0 .5-.2a.7.7 0 0 0 0-1 .7.7 0 0 0-.5-.2h-4.5c-.2 0-.4.1-.5.3-.2.1-.3.3-.3.5s.1.4.3.5l.4.2 4.6-.1ZM309 192.2l-4.6.2c-.2 0-.3 0-.5.2a.7.7 0 0 0 0 1l.5.2 4.6-.1.5-.2a.7.7 0 0 0 0-1 .7.7 0 0 0-.5-.3ZM98 213a66 66 0 0 1 .5 4.6c0 .2.3.2.4.2.2 0 .4 0 .5-.2.2-.1.3-.3.3-.5a68.5 68.5 0 0 0-.5-4.7.7.7 0 0 0-1 0l-.1.6ZM314 189a58.8 58.8 0 0 0-.4-4.8.7.7 0 0 0-1 0c-.2.2-.2.4-.2.6a65.8 65.8 0 0 1 .4 4.6.7.7 0 0 0 1 0l.2-.5Zm-205.4 32.7a.7.7 0 0 0 .5-.2.7.7 0 0 0 .2-.5c0-.2-.1-.4-.3-.5a72.9 72.9 0 0 1-5.6.1.7.7 0 0 0 0 1l.6.2h4.6Zm214.1-29.6a90.5 90.5 0 0 1-5 .3.7.7 0 0 0-.2.5c0 .2 0 .4.2.5l.5.2h4.6a.7.7 0 0 0 .5-.3.7.7 0 0 0 .2-.5c0-.2-.1-.4-.3-.5a.7.7 0 0 0-.5-.2ZM76.1 178.9a628.7 628.7 0 0 0 41.9-7.2v-.4c0-1.9-2.4-19.4-3.5-23.7-.2-.5-.3-1-.6-1.3-2.2-1.3-40.2 6-42.5 7.5a.5.5 0 0 0-.2.4 115 115 0 0 0 4.9 24.7Zm-4-24.4c2.7-1.2 37.2-7.7 41.1-7.2 1 2.5 3.5 21 3.7 23.8-2 .6-40.3 7.3-40.4 7.3-.2 0-.2.3-.5-.7-1.2-3.8-4-19.9-4-23.2Z" fill="#45657E"/><path d="M101.2 198.3v-.5c0-2.3-3.1-27.6-4.3-29.7a1 1 0 0 0-.8-.4 274 274 0 0 0-47 9.2c-.4.2-.4.9-.3 1.6.2 3.7 4.2 28.6 5.6 28.5l-.3.6c-2.2 4.6-6.3 19.4-6.3 22.4 0 1.3.3 2.9 1.5 2.8 8.7-1 51.2-8 63.5-10.6.5 0 .8-.5.7-1.3-.1-1.2-.5-2.4-1-3.4a185 185 0 0 0-11.3-19.2Zm-46.7 8.2c-1.1-1.4-5.2-26.2-4.9-29 3.1-1.6 42.3-9.3 46.4-8.7 1.2 3.2 4 26 4.3 28.8-5 1.7-39.5 7.4-45.8 9Zm.6.5c1.2-.3 41.4-7.2 45-8.2 2 1.9 11.2 18.4 11.8 19.8-8.1 1.5-56 9.7-63 10.7A90 90 0 0 1 55 207Z" fill="#879DB1"/><path d="M60.2 221.8c1.3-.2 27.3-3.4 36.8-6l.1-.1a.2.2 0 0 0 0-.3h-.3c-1.8.4-24.4 3.4-36.6 6H60v.1a.2.2 0 0 0 .1.3h.1Zm19-100.4a29 29 0 0 0-1.2 3.8l.1.6c1.4 2.2 16 19 19.9 21.4.5.3 1.1.5 1.5 0a25.7 25.7 0 0 1 20.9-9.9c2.8-.2 3.3-.5 4.4-2.4 1.3-2.5 3-4.7 5-6.6a39.7 39.7 0 0 1 9-6.2v-.5c-.5-1.3-1.2-2.4-2-3.5.6-.2 1.1-.3 1.1-.9 0-1.4-12.3-19.6-15.7-23-.3-.4-.8-.9-1.3-.8-7 .4-14 7.2-18 13.1-4.5-.2-7.4-.6-12.6 1.7a29 29 0 0 0-9.8 6.8c-.4.5-3.3 3.6-3.3 3.9 0 .2 0 .2 2 2.5Zm56.6-.4c-6 1-9.7 6-12.4 11.5-1.3 2.4-1.2 2.5-2.5 2.5-2.2-.1-4.5 0-6.8.3-1.6.2-3.2.6-4.8 1.2a25.5 25.5 0 0 0-10 8.7.5.5 0 0 1-.5 0h-.2c-4.6-5-12.7-13.4-16.8-18.3-.2-.2.1-.5.3-.3 2.7 3 9.5 9.8 16.8 17.3 2.5-3.2 6.3-7 10-8.4 2.1-.8 4.3-1.3 6.4-1.5h6.1c.9-1 5-12 14.3-13.3a.2.2 0 0 1 .1.2.2.2 0 0 1 0 .1Zm-15-26.5c2.9 2 14.4 19.4 15.9 22.5a40 40 0 0 0-7.5 3.3 17 17 0 0 0-9 11.7c-5-8.4-12-17.7-16.8-24.5.3-.2 8.2-12.4 17.5-13ZM90.7 109c5.1-2 8-1.6 12.2-1.4 4.3 7.4 11.9 17.8 17 24.6-4.7-1-9.6-.4-13.7 2-2.5 1.4-5.6 4.9-7.5 7A514.6 514.6 0 0 1 77.8 119c3.8-4.5 7.4-7.9 12.8-10.1Zm-25.9 36.7a2.2 2.2 0 0 0-2.4 0 2.2 2.2 0 0 0-1.1 1.2 2.3 2.3 0 0 0 .5 2.5 2.2 2.2 0 0 0 1.6.6c.3 0 .6 0 .8-.2.5-.1.9-.3 1.2-.7a2.2 2.2 0 0 0-.6-3.4Zm-.9 3c-1 .2-1.6 0-1.8-.6-.5-1 0-2.6 1.6-2.1 1 .4 1.8 2.2.2 2.7Zm72.7-69c.4.9 2.4.6 3.2.3.4-.2.7-.3.7-.8a70.7 70.7 0 0 0-.4-11.5l-.3-.1c-1.5 0-3 .2-4.4.7-.6.3.7 10.5 1.2 11.4Zm-1-11.1c1.4-.2 2.7-.3 4-.2l-.2 10.5c-.6.2-1.2.3-1.8.2l-.5-2.4c-.6-2.6-1.1-5.4-1.4-8.1Zm-72.1 65a1 1 0 0 0 .8 0c.6-.4 1-.9 1.3-1.5a.6.6 0 0 0-.1-.6c-.7-.8-8-9.5-9-9a26 26 0 0 0-3.3 2.7c0 .8 8.2 7.5 10.3 8.4Zm-6.8-10.7c1 .7 4.5 5.1 7.7 9l-.5.6a87.8 87.8 0 0 1-9.7-7.3l2.5-2.3ZM78.8 91c.3-5.6 3.5-8.2 6.8-8.9-1 3.6-.8 8.2 2.6 8.8 1.7.2 2.5-.6 3.7-1.6 5-4.4 1-8.7-4.8-8.4 2.2-6 7-10.8 13.6-11h.2a.2.2 0 0 0-.2-.4c-7-.2-12.6 5-14.8 11.5-3.7.7-7.5 3.5-7.6 9.9a.2.2 0 0 0 .1.2.2.2 0 0 0 .2 0 .2.2 0 0 0 .1 0V91Zm8-9c2.1-.2 5.2.4 6.1 2.4.5 1.1 0 2.5-1.7 4a7 7 0 0 1-1.7 1.2c-2 1-4.4-1.7-2.7-7.7Zm4 204a10.3 10.3 0 0 0-11.2 4 11 11 0 0 0-.3 12.3 10.8 10.8 0 0 0 15.2 3.4c2.5-1.6 4.2-4.1 4.8-7a11 11 0 0 0-4.6-11.2c-1.2-.8-2.5-1.3-3.9-1.6Zm4.4 11.7a10 10 0 0 1-3.8 5.7 9.6 9.6 0 0 1-6.6 1.8 9.8 9.8 0 0 1-5-4.5c-1-2-1.4-4.4-1-6.7.6-2.4 2-4.5 3.8-5.9 2-1.4 4.3-2.1 6.7-2 2.1 1 3.9 2.6 5 4.7 1 2.2 1.4 4.6.9 6.9Z" fill="#879DB1"/><path d="M107.6 287.4a7.5 7.5 0 0 0-3.8-.3c-.6-1.2-1.2-2.4-2-3.5 1-.9 3.4-3.3 2.8-4.4-2.1-2.6-4.7-4.9-7.6-6.7-1.2-.7-2.5-1.1-3.9-1.3-.9.2-3 3.7-3.5 4.6a8 8 0 0 1-1.5-.4c0-1-.3-4.8-1.2-5.3-1-.4-2.1-.6-3.2-.8-1-.1-10 1.6-10.7 2.8-.4.8.6 4 .9 4.9l-2.2 1.4c-1.4 1-1 1-1.3.9a3 3 0 0 0-1-.3c-1-.7-2.4-1-3.7-.7-1.3.4-4.4 7.6-4.9 9.4a3 3 0 0 0 0 1.4c.2 1 2.5 1.8 3.5 2-.3 2-.3 3.8 0 5.7-1.3.3-3.9 1-3.7 2.4.1 1.3 3.4 9.9 4.8 10.5a6 6 0 0 0 5 .5l1.3-.8c.6.5 1.1.9 1.8 1.2-.5 1.1-1.5 3.6-1.1 4.8.1.5.6.7 1.2 1 1.8.6 11.5 3 13 2.8.5-.1.8-.7 1-1.3.3-1.3.5-2.6.5-3.9l2.2-.3c.4.7 1 1.5 1.6 2 .8.6 1.4.3 2.2-.2.4.5 1 1.2 1.6 1.3 1.6.2 8.2-6.2 8.9-7.5.6-1-1.5-3-2.4-3.8 1-1.6 1.7-3.2 2.3-5 1 .2 2 .2 3 .2.5 0 1-.2 1.3-.6.8-2 .6-9.7 0-11.6-.1-.6-.8-1-1.2-1.1Zm.3 1.3c.5 2 .7 9 0 10.8-1.3.2-2.5.1-3.7-.1h-.4l-.2.4c-.6 1.9-1.4 3.8-2.6 5.4a.5.5 0 0 0 .1.7c1 .9 1.8 1.8 2.5 3-.7 1.1-6.2 6.3-7.8 6.7-.2 0-.8-.8-1-1l-1.4-2.6a.6.6 0 0 0-.7-.2c-4 1.5-5.6.6-5.6 1.6 0 1.6-.3 3.2-.8 4.6-3.3-.3-6.6-1-9.7-2.2.1-1.5.6-3 1.2-4.4.4-1-1.3-.7-4.4-4a.5.5 0 0 0-.8 0c-1.4 1.2-3.2 2.3-3.6 2.1-.7-.3-4-8-4.2-9.6 1-.7 2.1-1.2 3.3-1.4.2 0 .3-.2.3-.3l.1-.4c-.3-2-.3-4 0-6.1v-.4l-.3-.2c-1.1-.3-2.1-.7-3.1-1.3-.3-.2-.3-.2-.3-.4 1-3.4 2.4-6.6 4.4-9.5.7-.2 2.8 1.4 3.5 2a.4.4 0 0 0 .6 0c.6-.8 1.3-1.4 2-2 2.2-1.7 2.8-1.4 2.6-2-.6-1.5-1-3-1-4.6l.7-.5a28.8 28.8 0 0 1 9.2-2.1c.2.1.5 1.4.6 1.8.5 3 .2 3.5.6 3.6 4 .4 4.8 1.5 5.1 1 .8-1.4 1.7-2.7 2.7-4 .3-.2.3-.4 1.2.1 2.7 1.8 5 4 7 6.5.3.4-1.6 2.4-2.9 3.5-.5.4.2.6 1.4 3s1 3 1.6 2.9c1.2-.3 2.5-.4 3.8-.4ZM304.1 168c-3-1.2-6.1-2-9.3-2.5l-7.3-1c2.2-3.2 8.8-11.4 9.9-13.3.3-.6-.3-1.3-.8-1.8-2.4-2.7-7.2-3.7-10.8-4.2-2.1-.4-10.8-1.5-12.3-.8-1.8.9-15 21.1-15.4 24.2 0 .5.2.7.7 1 2 .7 11.4 1.9 13.5 2.4-2.8 5-15.4 22.2-16.6 24.6-.3.6-.1 1 .3 1 1.2.6 2.5 1 3.9 1.3.5.1 1.6-.6 3.2-1.6a613 613 0 0 0 41.2-28.5.7.7 0 0 0-.2-.8Zm-30.4 17.4c-12 8-16 10.4-16.2 10.5 2-3 14-19.8 16-23.9v-.5a.6.6 0 0 0-.4-.3c-1.4-.5-11.7-1.6-14.1-2.5a128 128 0 0 1 14.7-23.8c1.5-.8 16.6 1 19.4 3-1.4 3-9.6 13.4-11 15.8-.2.5-.3 1 .2 1.1.5.2 13.8 1.7 16.7 2.7-3.5 3-21.4 15.1-25.3 17.8ZM183 97l.3 1.2.4.4h.5c.2 0 .3-.1.4-.3v-.5c0-.6-.2-1-.3-1.3 0-.2-.2-.3-.4-.4h-.5l-.3.4v.5Z" fill="#163A65"/></svg>