<svg width="178" height="122" viewBox="0 0 178 122" fill="none" xmlns="http://www.w3.org/2000/svg">
<ellipse cx="176.268" cy="120.208" rx="1.73152" ry="1.33128" transform="rotate(-180 176.268 120.208)" fill="#224769"/>
<ellipse cx="176.268" cy="90.489" rx="1.73152" ry="1.33128" transform="rotate(-180 176.268 90.489)" fill="#224769"/>
<ellipse cx="76.5331" cy="120.208" rx="1.73152" ry="1.33128" transform="rotate(-180 76.5331 120.208)" fill="#224769"/>
<ellipse cx="76.5331" cy="90.489" rx="1.73152" ry="1.33128" transform="rotate(-180 76.5331 90.489)" fill="#224769"/>
<ellipse cx="126.401" cy="120.208" rx="1.73152" ry="1.33128" transform="rotate(-180 126.401 120.208)" fill="#224769"/>
<ellipse cx="126.401" cy="90.489" rx="1.73152" ry="1.33128" transform="rotate(-180 126.401 90.489)" fill="#224769"/>
<ellipse cx="26.6655" cy="120.208" rx="1.73152" ry="1.33128" transform="rotate(-180 26.6655 120.208)" fill="#224769"/>
<ellipse cx="26.6655" cy="90.489" rx="1.73152" ry="1.33128" transform="rotate(-180 26.6655 90.489)" fill="#224769"/>
<ellipse cx="151.335" cy="120.208" rx="1.73152" ry="1.33128" transform="rotate(-180 151.335 120.208)" fill="#224769"/>
<ellipse cx="151.335" cy="90.489" rx="1.73152" ry="1.33128" transform="rotate(-180 151.335 90.489)" fill="#224769"/>
<ellipse cx="51.5993" cy="120.208" rx="1.73152" ry="1.33128" transform="rotate(-180 51.5993 120.208)" fill="#224769"/>
<ellipse cx="51.5993" cy="90.489" rx="1.73152" ry="1.33128" transform="rotate(-180 51.5993 90.489)" fill="#224769"/>
<ellipse cx="101.467" cy="120.208" rx="1.73152" ry="1.33128" transform="rotate(-180 101.467 120.208)" fill="#224769"/>
<ellipse cx="101.467" cy="90.489" rx="1.73152" ry="1.33128" transform="rotate(-180 101.467 90.489)" fill="#224769"/>
<ellipse cx="176.268" cy="60.7698" rx="1.73152" ry="1.33128" transform="rotate(-180 176.268 60.7698)" fill="#224769"/>
<ellipse cx="76.5331" cy="60.7698" rx="1.73152" ry="1.33128" transform="rotate(-180 76.5331 60.7698)" fill="#224769"/>
<ellipse cx="126.401" cy="60.7698" rx="1.73152" ry="1.33128" transform="rotate(-180 126.401 60.7698)" fill="#224769"/>
<ellipse cx="26.6657" cy="60.7698" rx="1.73152" ry="1.33128" transform="rotate(-180 26.6657 60.7698)" fill="#224769"/>
<ellipse cx="151.335" cy="60.7698" rx="1.73152" ry="1.33128" transform="rotate(-180 151.335 60.7698)" fill="#224769"/>
<ellipse cx="51.5993" cy="60.7698" rx="1.73152" ry="1.33128" transform="rotate(-180 51.5993 60.7698)" fill="#224769"/>
<ellipse cx="101.467" cy="60.7698" rx="1.73152" ry="1.33128" transform="rotate(-180 101.467 60.7698)" fill="#224769"/>
<ellipse cx="1.73137" cy="60.7698" rx="1.73152" ry="1.33128" transform="rotate(-180 1.73137 60.7698)" fill="#224769"/>
<ellipse cx="176.268" cy="31.0504" rx="1.73152" ry="1.33128" transform="rotate(-180 176.268 31.0504)" fill="#224769"/>
<ellipse cx="76.5331" cy="31.0504" rx="1.73152" ry="1.33128" transform="rotate(-180 76.5331 31.0504)" fill="#224769"/>
<ellipse cx="126.401" cy="31.0504" rx="1.73152" ry="1.33128" transform="rotate(-180 126.401 31.0504)" fill="#224769"/>
<ellipse cx="26.6657" cy="31.0504" rx="1.73152" ry="1.33128" transform="rotate(-180 26.6657 31.0504)" fill="#224769"/>
<ellipse cx="151.335" cy="31.0504" rx="1.73152" ry="1.33128" transform="rotate(-180 151.335 31.0504)" fill="#224769"/>
<ellipse cx="51.5993" cy="31.0504" rx="1.73152" ry="1.33128" transform="rotate(-180 51.5993 31.0504)" fill="#224769"/>
<ellipse cx="101.467" cy="31.0504" rx="1.73152" ry="1.33128" transform="rotate(-180 101.467 31.0504)" fill="#224769"/>
<ellipse cx="1.73137" cy="31.0504" rx="1.73152" ry="1.33128" transform="rotate(-180 1.73137 31.0504)" fill="#224769"/>
<ellipse cx="176.268" cy="1.33119" rx="1.73152" ry="1.33128" transform="rotate(-180 176.268 1.33119)" fill="#224769"/>
<ellipse cx="76.5331" cy="1.33119" rx="1.73152" ry="1.33128" transform="rotate(-180 76.5331 1.33119)" fill="#224769"/>
<ellipse cx="126.401" cy="1.33119" rx="1.73152" ry="1.33128" transform="rotate(-180 126.401 1.33119)" fill="#224769"/>
<ellipse cx="26.6657" cy="1.33119" rx="1.73152" ry="1.33128" transform="rotate(-180 26.6657 1.33119)" fill="#224769"/>
<ellipse cx="151.335" cy="1.33119" rx="1.73152" ry="1.33128" transform="rotate(-180 151.335 1.33119)" fill="#224769"/>
<ellipse cx="51.5993" cy="1.33119" rx="1.73152" ry="1.33128" transform="rotate(-180 51.5993 1.33119)" fill="#224769"/>
<ellipse cx="101.467" cy="1.33119" rx="1.73152" ry="1.33128" transform="rotate(-180 101.467 1.33119)" fill="#224769"/>
<ellipse cx="1.73137" cy="1.33119" rx="1.73152" ry="1.33128" transform="rotate(-180 1.73137 1.33119)" fill="#224769"/>
</svg>
