<svg width="93" height="137" fill="none" xmlns="http://www.w3.org/2000/svg"><g filter="url(#a)"><circle cx="47" cy="130.5" r="5" transform="rotate(180 47 130.5)" fill="#F39A27"/></g><circle cx="46.5" cy="46.5" r="37.5" transform="rotate(180 46.5 46.5)" fill="#EEF3F4"/><path d="M0 46.5a46.5 46.5 0 1 1 93 0 46.5 46.5 0 0 1-93 0Zm90.2 0a43.7 43.7 0 1 0-87.4 0 43.7 43.7 0 0 0 87.4 0Z" fill="#F39A27"/><g filter="url(#b)"><circle cx="47" cy="46" r="30" transform="rotate(180 47 46)" fill="#F39A27"/></g><path d="m38 36-1.4-.1-1.1-.6.3-.7.6.5a3.4 3.4 0 0 0 1.6.3c.6 0 1-.1 1.3-.3.3-.2.4-.5.4-.9 0-.3 0-.5-.3-.7l-1-.3-1-.2-1.4-.7c-.3-.2-.4-.6-.4-1.1 0-.4 0-.8.3-1 .2-.4.5-.6.9-.8l1.3-.2c.5 0 .9 0 1.3.2.4.1.7.3 1 .6l-.3.6-1-.5c-.3-.2-.6-.2-1-.2a2 2 0 0 0-1.3.3 1 1 0 0 0-.4 1c0 .3 0 .5.3.7l1 .4 1 .2c.6.1 1 .3 1.4.6.3.2.4.6.4 1.1 0 .4 0 .7-.3 1a2 2 0 0 1-.8.6c-.4.2-.9.3-1.4.3Zm5.3 0v-6h-2.4v-.7h5.5v.6h-2.3V36h-.8Zm4.1 0v-6.7h4.3v.6h-3.5v2.4h3.3v.6h-3.3v2.4h3.5v.7h-4.3Zm5.6 0v-6.7h2.8c.7 0 1.2.1 1.6.5.4.3.6.8.6 1.4 0 .6-.2 1-.6 1.4-.4.4-1 .5-1.6.5h-2V36H53Zm.8-3.5h1.9c.5 0 .9-.1 1.1-.4.3-.2.4-.5.4-.9s-.1-.7-.4-1c-.2-.2-.6-.3-1.1-.3h-1.9v2.6ZM31.3 61a16.3 16.3 0 0 1-1-6.6 25.9 25.9 0 0 1 1-6.7c.3-1 .8-2 1.4-2.8a6.5 6.5 0 0 1 5.3-2.7 6.1 6.1 0 0 1 5.2 2.7c.5.8 1 1.7 1.3 2.8.7 2 1 4.2 1 6.8 0 5.8-1.5 9.4-4.4 11-1 .4-2 .7-3 .7a6.7 6.7 0 0 1-5.4-2.6c-.6-.7-1-1.6-1.4-2.7Zm1.3-6.5c0 3.6.5 6.2 1.6 7.8.9 1.3 2.2 2 3.8 2 1.9 0 3.2-.8 4-2.2a8 8 0 0 0 .9-2.9 34.5 34.5 0 0 0-.7-11.9c-.2-.6-.5-1.1-.9-1.6-.7-1-1.8-1.5-3.3-1.5-3.6 0-5.4 3.4-5.4 10.3ZM48.2 66c0-1.4 0-2.3.2-2.7a25.5 25.5 0 0 1 1-2.3 35.8 35.8 0 0 1 2.2-2.6l3-2.6 3-2.1a11 11 0 0 0 2.3-2.2l.5-.8c.3-.7.4-1.4.4-2.1 0-1.4-.3-2.5-1.1-3.3-.8-.8-2-1.2-3.5-1.2-2 0-3.4.8-4.3 2.3A5 5 0 0 0 51 49h-2.3c0-1.3.4-2.5 1.1-3.5.7-1.1 1.7-2 2.9-2.5 1.1-.6 2.3-.9 3.6-.9a7 7 0 0 1 3.4.9 6.5 6.5 0 0 1 3.4 5.6c0 1.1-.3 2.1-.8 3-.6 1-1.2 1.6-1.7 2.1-.6.5-1 1-1.4 1.2l-1.3 1c-4.9 3.6-7.3 6.2-7.3 7.9h12.1V66H48.2Z" fill="#fff"/><path stroke="#F39A27" stroke-width="2" d="M47 93v34"/><defs><filter id="a" x="41.3" y="125.5" width="11.3" height="11.3" filterUnits="userSpaceOnUse" color-interpolation-filters="sRGB"><feFlood flood-opacity="0" result="BackgroundImageFix"/><feColorMatrix in="SourceAlpha" values="0 0 0 0 0 0 0 0 0 0 0 0 0 0 0 0 0 0 127 0" result="hardAlpha"/><feOffset dy=".7"/><feGaussianBlur stdDeviation=".3"/><feComposite in2="hardAlpha" operator="out"/><feColorMatrix values="0 0 0 0 0 0 0 0 0 0 0 0 0 0 0 0 0 0 0.25 0"/><feBlend in2="BackgroundImageFix" result="effect1_dropShadow_966_5087"/><feBlend in="SourceGraphic" in2="effect1_dropShadow_966_5087" result="shape"/></filter><filter id="b" x="13" y="16" width="68" height="68" filterUnits="userSpaceOnUse" color-interpolation-filters="sRGB"><feFlood flood-opacity="0" result="BackgroundImageFix"/><feColorMatrix in="SourceAlpha" values="0 0 0 0 0 0 0 0 0 0 0 0 0 0 0 0 0 0 127 0" result="hardAlpha"/><feOffset dy="4"/><feGaussianBlur stdDeviation="2"/><feComposite in2="hardAlpha" operator="out"/><feColorMatrix values="0 0 0 0 0 0 0 0 0 0 0 0 0 0 0 0 0 0 0.25 0"/><feBlend in2="BackgroundImageFix" result="effect1_dropShadow_966_5087"/><feBlend in="SourceGraphic" in2="effect1_dropShadow_966_5087" result="shape"/></filter></defs></svg>