<svg width="375" height="881" viewBox="0 0 375 881" fill="none" xmlns="http://www.w3.org/2000/svg">
<g clip-path="url(#clip0_1226_6861)">
<rect width="375" height="881" fill="white"/>
<mask id="mask0_1226_6861" style="mask-type:alpha" maskUnits="userSpaceOnUse" x="-118" y="547" width="475" height="267">
<path opacity="0.7" fill-rule="evenodd" clip-rule="evenodd" d="M-105.677 577.032C-92.2416 587.315 -65.3709 616.121 -65.3709 649.087C-65.3709 651.394 -65.3935 654.108 -65.4189 657.166C-65.8475 708.715 -67.0878 857.899 25.3177 801.438C38.3972 793.446 51.8366 785.673 65.0486 778.031C83.2486 767.505 101.017 757.227 116.819 746.972C172.918 799.075 225.169 831.782 283.387 762.087C361.937 668.053 383.759 507.154 318.705 563.373C307.292 575.186 274.429 599.494 234.279 602.222C231.469 602.413 228.161 602.62 224.435 602.852C200.107 604.368 157.934 606.998 119.824 613.758C10.0885 548.062 -166.185 521.667 -105.677 577.032Z" fill="url(#paint0_linear_1226_6861)"/>
</mask>
<g mask="url(#mask0_1226_6861)">
<rect x="-22.8633" y="356.207" width="24" height="660.825" stroke="#285994" stroke-opacity="0.09"/>
<rect x="1.13672" y="356.207" width="24" height="660.825" stroke="#285994" stroke-opacity="0.09"/>
<rect x="25.1367" y="356.207" width="24" height="660.825" stroke="#285994" stroke-opacity="0.09"/>
<rect x="49.1367" y="356.207" width="24" height="660.825" stroke="#285994" stroke-opacity="0.09"/>
<rect x="73.1367" y="356.207" width="24" height="660.825" stroke="#285994" stroke-opacity="0.09"/>
<rect x="97.1367" y="356.207" width="24" height="660.825" stroke="#285994" stroke-opacity="0.09"/>
<rect x="121.137" y="356.207" width="24" height="660.825" stroke="#285994" stroke-opacity="0.09"/>
<rect x="145.137" y="356.207" width="24" height="660.825" stroke="#285994" stroke-opacity="0.09"/>
<rect x="169.137" y="356.207" width="24" height="660.825" stroke="#285994" stroke-opacity="0.09"/>
<rect x="193.137" y="356.207" width="24" height="660.825" stroke="#285994" stroke-opacity="0.09"/>
<rect x="217.137" y="356.207" width="24" height="660.825" stroke="#285994" stroke-opacity="0.09"/>
<rect x="241.137" y="356.207" width="24" height="660.825" stroke="#285994" stroke-opacity="0.09"/>
<rect x="265.137" y="356.207" width="24" height="660.825" stroke="#285994" stroke-opacity="0.09"/>
<rect x="289.137" y="356.207" width="24" height="660.825" stroke="#285994" stroke-opacity="0.09"/>
<rect x="313.137" y="356.207" width="24" height="660.825" stroke="#285994" stroke-opacity="0.09"/>
<rect x="337.137" y="356.207" width="24" height="660.825" stroke="#285994" stroke-opacity="0.09"/>
<rect x="-598.863" y="548.207" width="24" height="1440" transform="rotate(-90 -598.863 548.207)" stroke="#285994" stroke-opacity="0.09"/>
<rect x="-598.863" y="572.207" width="24" height="1440" transform="rotate(-90 -598.863 572.207)" stroke="#285994" stroke-opacity="0.09"/>
<rect x="-598.863" y="596.207" width="24" height="1440" transform="rotate(-90 -598.863 596.207)" stroke="#285994" stroke-opacity="0.09"/>
<rect x="-598.863" y="620.207" width="24" height="1440" transform="rotate(-90 -598.863 620.207)" stroke="#285994" stroke-opacity="0.09"/>
<rect x="-598.863" y="644.207" width="24" height="1440" transform="rotate(-90 -598.863 644.207)" stroke="#285994" stroke-opacity="0.09"/>
<rect x="-598.863" y="668.207" width="24" height="1440" transform="rotate(-90 -598.863 668.207)" stroke="#285994" stroke-opacity="0.09"/>
<rect x="-598.863" y="692.207" width="24" height="1440" transform="rotate(-90 -598.863 692.207)" stroke="#285994" stroke-opacity="0.09"/>
<rect x="-598.863" y="716.207" width="24" height="1440" transform="rotate(-90 -598.863 716.207)" stroke="#285994" stroke-opacity="0.09"/>
<rect x="-598.863" y="740.207" width="24" height="1440" transform="rotate(-90 -598.863 740.207)" stroke="#285994" stroke-opacity="0.09"/>
<rect x="-598.863" y="764.207" width="24" height="1440" transform="rotate(-90 -598.863 764.207)" stroke="#285994" stroke-opacity="0.09"/>
<rect x="-598.863" y="788.207" width="24" height="1440" transform="rotate(-90 -598.863 788.207)" stroke="#285994" stroke-opacity="0.09"/>
<rect x="-598.863" y="812.207" width="24" height="1440" transform="rotate(-90 -598.863 812.207)" stroke="#285994" stroke-opacity="0.09"/>
<rect x="-598.863" y="836.207" width="24" height="1440" transform="rotate(-90 -598.863 836.207)" stroke="#285994" stroke-opacity="0.09"/>
</g>
<mask id="mask1_1226_6861" style="mask-type:alpha" maskUnits="userSpaceOnUse" x="174" y="111" width="367" height="267">
<path opacity="0.7" fill-rule="evenodd" clip-rule="evenodd" d="M183.521 141.032C193.902 151.315 214.663 180.121 214.663 213.087C214.663 215.394 214.645 218.108 214.626 221.166C214.295 272.715 213.336 421.899 284.732 365.438C294.837 357.446 305.221 349.673 315.429 342.031C329.491 331.505 343.22 321.227 355.428 310.972C398.773 363.075 439.143 395.782 484.125 326.087C544.814 232.053 561.675 71.1541 511.412 127.373C502.594 139.186 477.203 163.494 446.182 166.222C444.011 166.413 441.455 166.62 438.577 166.852C419.78 168.368 387.195 170.998 357.751 177.758C272.965 112.062 136.771 85.6674 183.521 141.032Z" fill="url(#paint1_linear_1226_6861)"/>
</mask>
<g mask="url(#mask1_1226_6861)">
<rect x="166.765" y="-79.7932" width="24" height="660.825" stroke="#285994" stroke-opacity="0.09"/>
<rect x="190.765" y="-79.7932" width="24" height="660.825" stroke="#285994" stroke-opacity="0.09"/>
<rect x="214.765" y="-79.7932" width="24" height="660.825" stroke="#285994" stroke-opacity="0.09"/>
<rect x="238.765" y="-79.7932" width="24" height="660.825" stroke="#285994" stroke-opacity="0.09"/>
<rect x="262.765" y="-79.7932" width="24" height="660.825" stroke="#285994" stroke-opacity="0.09"/>
<rect x="286.765" y="-79.7932" width="24" height="660.825" stroke="#285994" stroke-opacity="0.09"/>
<rect x="310.765" y="-79.7932" width="24" height="660.825" stroke="#285994" stroke-opacity="0.09"/>
<rect x="334.765" y="-79.7932" width="24" height="660.825" stroke="#285994" stroke-opacity="0.09"/>
<rect x="358.765" y="-79.7932" width="24" height="660.825" stroke="#285994" stroke-opacity="0.09"/>
<rect x="-361.235" y="112.207" width="24" height="1440" transform="rotate(-90 -361.235 112.207)" stroke="#285994" stroke-opacity="0.09"/>
<rect x="-361.235" y="136.207" width="24" height="1440" transform="rotate(-90 -361.235 136.207)" stroke="#285994" stroke-opacity="0.09"/>
<rect x="-361.235" y="160.207" width="24" height="1440" transform="rotate(-90 -361.235 160.207)" stroke="#285994" stroke-opacity="0.09"/>
<rect x="-361.235" y="184.207" width="24" height="1440" transform="rotate(-90 -361.235 184.207)" stroke="#285994" stroke-opacity="0.09"/>
<rect x="-361.235" y="208.207" width="24" height="1440" transform="rotate(-90 -361.235 208.207)" stroke="#285994" stroke-opacity="0.09"/>
<rect x="-361.235" y="232.207" width="24" height="1440" transform="rotate(-90 -361.235 232.207)" stroke="#285994" stroke-opacity="0.09"/>
<rect x="-361.235" y="256.207" width="24" height="1440" transform="rotate(-90 -361.235 256.207)" stroke="#285994" stroke-opacity="0.09"/>
<rect x="-361.235" y="280.207" width="24" height="1440" transform="rotate(-90 -361.235 280.207)" stroke="#285994" stroke-opacity="0.09"/>
<rect x="-361.235" y="304.207" width="24" height="1440" transform="rotate(-90 -361.235 304.207)" stroke="#285994" stroke-opacity="0.09"/>
<rect x="-361.235" y="328.207" width="24" height="1440" transform="rotate(-90 -361.235 328.207)" stroke="#285994" stroke-opacity="0.09"/>
<rect x="-361.235" y="352.207" width="24" height="1440" transform="rotate(-90 -361.235 352.207)" stroke="#285994" stroke-opacity="0.09"/>
<rect x="-361.235" y="376.207" width="24" height="1440" transform="rotate(-90 -361.235 376.207)" stroke="#285994" stroke-opacity="0.09"/>
<rect x="-361.235" y="400.207" width="24" height="1440" transform="rotate(-90 -361.235 400.207)" stroke="#285994" stroke-opacity="0.09"/>
</g>
</g>
<defs>
<linearGradient id="paint0_linear_1226_6861" x1="352.011" y1="530.127" x2="141.867" y2="796.948" gradientUnits="userSpaceOnUse">
<stop stop-color="white" stop-opacity="0.42"/>
<stop offset="1" stop-color="white"/>
</linearGradient>
<linearGradient id="paint1_linear_1226_6861" x1="537.145" y1="94.1271" x2="321.022" y2="306.148" gradientUnits="userSpaceOnUse">
<stop stop-color="white" stop-opacity="0.42"/>
<stop offset="1" stop-color="white"/>
</linearGradient>
<clipPath id="clip0_1226_6861">
<rect width="375" height="881" fill="white"/>
</clipPath>
</defs>
</svg>
