<svg xmlns="http://www.w3.org/2000/svg" viewBox="0 0 128 128"><path fill="#f05138" d="M126.3 34a39.3 39.3 0 0 0-.8-7.8 28.8 28.8 0 0 0-2.6-7.5 28.8 28.8 0 0 0-4.8-6.4 23.4 23.4 0 0 0-6.6-4.5 27.3 27.3 0 0 0-7.7-2.5c-2.6-.6-5.5-.6-8.2-.8H30.3a45.5 45.5 0 0 0-6.1.5 21.8 21.8 0 0 0-5.9 1.5l-1.8.8a33.8 33.8 0 0 0-5 3.3c-.5.5-1 .7-1.6 1.2a22.4 22.4 0 0 0-4.8 6.3 23.6 23.6 0 0 0-2.6 7.6 78.5 78.5 0 0 0-.8 7.9v60.3a39.3 39.3 0 0 0 .8 7.9 28.8 28.8 0 0 0 2.6 7.5 28.8 28.8 0 0 0 4.8 6.4 23.4 23.4 0 0 0 6.6 4.5 27.3 27.3 0 0 0 7.7 2.5c2.6.6 5.6.6 8.2.8h63.2a45 45 0 0 0 8.2-.8 27.3 27.3 0 0 0 7.7-2.5 30.1 30.1 0 0 0 6.6-4.5 22.4 22.4 0 0 0 4.8-6.4 23.6 23.6 0 0 0 2.7-7.5 78.5 78.5 0 0 0 .7-7.9V34.1z"/><path fill="#fefefe" d="M85 96.5a48.7 48.7 0 0 1-41.8.5 64.5 64.5 0 0 1-29.4-24 50 50 0 0 0 10.9 6.3c15.9 7.1 31.7 6.6 42.9 0A223.2 223.2 0 0 1 28 40.1a43.5 43.5 0 0 1-5.3-6.8c12.2 10.6 31.5 24 38.4 27.8a271.8 271.8 0 0 1-27-32.4 266.8 266.8 0 0 0 44.5 35l1.7 1a32.7 32.7 0 0 0 1.2-3.6c3.7-12.9-.5-27.5-9.8-39.7C93.3 33.8 106 57 100.7 76.5l-.5 1.6.2.2c10.6 12.6 7.7 26 6.3 23.5C101 91 90.4 94.3 85 96.5z"/></svg>