<svg width="277" height="24" fill="none" xmlns="http://www.w3.org/2000/svg"><path fill-rule="evenodd" clip-rule="evenodd" d="M181.4.1c-.1.1-2.3.2-5 .2-3.3 0-4.7.1-4.7.4 0 .2 0 .2-.3 0-.1-.3-1.2-.4-2.8-.3-3 .1-5 .2-5.7.1a593.7 593.7 0 0 0-14.8.5c-2.7.2-2.6.1-2.4.8.2.4 0 .4-.4-.2-.5-.5-1-.6-2-.5l-2.5.2c-1 0-1.4.2-1.4.4 0 .5-.6.6-.8.1 0-.2-.6-.3-1.2-.3-3.6 0-4.4.1-4.6.5-.2.2-.3.2-.3 0 0-.4-.8-.5-2.5-.5-1.4 0-2.6.1-2.7.2-.1.1-1.7.3-3.4.3-7 .3-8.5.4-9 .8-.3.2-.6.3-.6.1 0-.2-.3-.3-.6-.3-.5 0-.7.2-.6.4.3.6 0 .5-.7 0-.6-.5-.8-.5-2.2-.1-.9.3-1.8.3-2 .2-.3-.1-.7-.2-1-.1l-2.3.3A51 51 0 0 0 98 4h-2.4c-1 0-2 .2-2.1.3-.1.2-.6.3-1 .2-.6-.1-1.9 0-3 .2a42.8 42.8 0 0 1-6.6.8l-3.2.3a85.2 85.2 0 0 0-12.3 1.6c-2.4.2-3.3.3-4.6 1-.7.2-1.1.3-1.1 0s-3 0-3.2.5c0 .1-.4.2-.6 0-.4 0-.6.1-.6.5 0 .5 0 .5-.5 0-.3-.4-.6-.5-1-.4-.2.2-1 .3-1.5.4-.6 0-1.2.2-1.3.4 0 .2-.4.2-.9 0-.7-.2-3.7.3-5.3.9l-1 .1c-.3 0-.4 0-.2.3s0 .4-.5.2c-1-.4-3-.2-4.1.3-.6.2-1.6.5-2.2.5-.6 0-2.5.2-4.1.6l-4 .8c-.6.1-1 .4-1 .7 0 .4 0 .4-.5 0-.4-.2-.7-.2-1 0-.2.2-.8.4-1.3.4-1.6 0-4 .7-4 1.2 0 .3-.2.4-.5.2-.2-.1-.6 0-.9.4-.3.3-.5.4-.5.2s-.4-.4-.9-.4-.9.2-.9.4-.2.2-.6.1c-1-.3-2.3.2-2.3.9s0 .7-.6 0c-.5-.5-.5-.5-.5 0s0 .6-.3.3c-.3-.4-.6-.4-1.7 0-.8.4-2.2.8-3 1-3.8 1-5.2 1.6-4.9 2.3 0 .2 0 .5-.3.6-.3.2-.3.1-.2-.1.9-1.2-1.9-1-3 .3-.4.4-.7.5-.8.3 0-.2-.4 0-.7.4-.4.8-.4 1 0 1.2.8.4 1.8-.2 1.9-1 0-.7 0-.7.3-.2.3.7.7.8 1.1.2.2-.3.3-.3.4 0 0 .2.2.2 1-.2l1.6-.4c.3 0 .6-.2.6-.5s.2-.4.6-.3H9a8 8 0 0 1 1.5-.4c1.3-.1 2.6-.8 2.4-1.2-.1-.3 0-.4.4-.4.4.1.8-.1.9-.4.2-.4.2-.4.3 0 0 .5.2.6 1.2.5 3.1-.4 6-1.4 5.8-2-.2-.4 0-.4.3-.2.7.3 1.5.4 2 .2A96.3 96.3 0 0 0 35 15.2c0-.3.2-.3.2 0 0 .2.2.3.4.2.2-.1.3-.5.2-.8-.2-.7.4-.7 1.1 0 .6.4 1.1.4 3.2 0 .9-.2 1.6-.6 1.6-.8 0-.4.9-.5 1.3 0 .2 0 .5 0 .8-.2.3-.3.5-.2.5 0 0 .3.2.3.6.1.7-.4 2.5-.7 4.7-.8.9-.1 1.8-.3 2-.5.3-.2 1.3-.4 2.1-.5l2-.1.2-.6c0-.5 0-.5.3-.1.2.5 1.9.6 3 .2.7-.2 3.7-.6 6.5-.7 1.2 0 2.5-.3 2.7-.5.3-.1.8-.3 1.3-.3A50.8 50.8 0 0 0 81 8.2c0 .3.3.3.8.2l2-.2c.7 0 1.3-.1 1.4-.3.2-.2.5-.2.9 0s.8.2.9 0l1.8-.2a100.7 100.7 0 0 0 8.6-1c0-.2.1-.4.4-.4.2 0 .2.2.1.3-.1.2.1.3.5.3.5 0 .8 0 .8-.2 0-.1 1-.3 2.4-.3a33.2 33.2 0 0 0 6.2-.4c.5 0 .8-.2.6-.4-.2-.2 0-.2.5 0 .9.4 4 .5 4 .1s1.6-.4 2.2 0c.3.2.4.3.4 0 0-.1.4-.2.8-.1l.7-.1c0-.2 1.1-.3 2.5-.3 1.8 0 2.5 0 2.3-.3-.1-.2 0-.2.4 0 .3.3.6.4.6.2 0-.1 1-.2 2.4-.2 1.6 0 2.5-.2 2.6-.5.1-.3.3-.3.7 0 .2.2.5.3.5.1l.3.2c.3.4.5.4 1.2 0 .7-.2 1-.2 1.1.1.1.3.3.3.5 0 .2-.1 1-.3 2-.3.8 0 2 0 2.5-.2.5 0 1 0 1.3.2.3.2.8.2 1.5 0 .6-.2 1.7-.3 2.6-.2.9 0 2 0 2.7-.2h2c.6.2.7.1.5-.5-.1-.5 0-.5.2-.2.5.6 2.6.8 2.6.2 0-.2.2-.1.4.2l.3.2c0-.2.3-.2.6 0 .5.5 1.1 0 .7-.6-.1-.2.2-.1.7.2.9.5 1.7.5 8.7.3l8.5-.2c.4 0 .8-.1.8-.3 0-.2.3-.3.6-.3s.5.1.3.3c-.3.4 4.1.2 4.6-.2.3-.3.7-.3 1 0l2 .2 2.7.1c1.1 0 1.5 0 1.5-.4 0-.3.1-.4.3 0 .3.3 2 .4 12 .2h11c2.7 0 3.8-.1 3.9-.4 0-.2.3-.4.4-.4.2 0 .3.2.3.4-.1.5 2.3.5 2.7 0 .2-.1.3-.1.3.1 0 .3.5.4 1.3.4.7 0 1.2-.2 1.2-.3a45.8 45.8 0 0 0 9.7 0c-.4.5 2.4.3 3.2-.3.5-.3.6-.3.6 0 0 .4.3.5 1.2.5L233 3h1.5c.8.2 2 .2 3 .1 1.3-.2 1.5-.3 1.5-1 0-.8 0-.8.3.1.2 1 .3 1 2.6 1l3 .2h1.2c.4-.4 1.2-.3 1.8 0h2.9l4 .1c2 0 4.1.2 4.8.3.9.2 1.4 0 2-.3.4-.4.6-.5.6-.2s.5.4 1.2.3c.7 0 1.6.1 1.9.4.5.3.6.3 1 0 .2-.4.3-.4.3-.1 0 .2.3.4.7.4.6 0 .7-.2.6-.7v-.3c0 .2.3.4.5.4s.3-.2.2-.4c-.2-.3 0-.1.4.3.6.7.8.7 1 .2.2-.6 1.1-.6 1.4 0 .2.5.8.5 1.6 0 .5-.2 1.6.1 2 .7.4.6 2.1.6 2.1 0 0-.7-.8-1.1-2.4-1.3l-2.5-.5-1.6-.3c-.3 0-1 0-1.5-.2a54 54 0 0 0-10.2-1.2l-7.6-.4c-3.3 0-6.8-.2-7.8-.3A100.3 100.3 0 0 0 227 .2a1359.9 1359.9 0 0 0-45.5-.1ZM230 1.2c.1.2 0 .3-.2.3s-.4-.1-.4-.3c0-.2.1-.3.2-.3l.4.3Zm18 1-.6.6v-.6c.2-.4.4-.7.6-.7.2 0 .2.3 0 .7Zm-30.2 0-.1.3-.4-.3c-.2-.2 0-.4.1-.4.2 0 .4.2.4.4Zm-53.7.5c0 .2-.2.4-.4.3l-.3-.5c0-.2.1-.3.3-.3.2 0 .4.2.4.5Zm108.7 1.7c-.1.2-.4.2-.5.1-.2 0-.4 0-.4.2 0 .5.6.4 1.1-.2.3-.2.4-.4.3-.4-.2 0-.4.1-.5.3Zm-171.5 1-.2.3-.4-.4c-.1-.1 0-.3.2-.3s.4.2.4.3ZM10.6 20c-.3.2-.5.3-.5 0 0-.4.5-.7.7-.5.1 0 0 .3-.2.5Z" fill="#FCBC7D"/></svg>