<svg width="24" height="24" viewBox="0 0 24 24" fill="none" xmlns="http://www.w3.org/2000/svg">
<path d="M4 15L20 15" stroke="white" stroke-opacity="0.25" stroke-linecap="round" stroke-linejoin="round"/>
<path d="M4 9L20 9" stroke="white" stroke-opacity="0.25" stroke-linecap="round" stroke-linejoin="round"/>
<circle cx="12" cy="12" r="9" stroke="white" stroke-opacity="0.25" stroke-linecap="round" stroke-linejoin="round"/>
<path d="M12.0004 20.818L11.6433 21.1679C11.7373 21.2639 11.866 21.318 12.0004 21.318C12.1348 21.318 12.2635 21.2639 12.3575 21.1679L12.0004 20.818ZM12.0004 3.18164L12.3575 2.83169C12.2635 2.73572 12.1348 2.68164 12.0004 2.68164C11.866 2.68164 11.7373 2.73572 11.6433 2.83169L12.0004 3.18164ZM15.1004 11.9998C15.1004 15.2969 13.7823 18.2851 11.6433 20.468L12.3575 21.1679C14.6723 18.8057 16.1004 15.569 16.1004 11.9998H15.1004ZM11.6433 3.53159C13.7823 5.71449 15.1004 8.70272 15.1004 11.9998H16.1004C16.1004 8.43059 14.6723 5.19393 12.3575 2.83169L11.6433 3.53159ZM8.90039 11.9998C8.90039 8.70272 10.2184 5.71449 12.3575 3.53159L11.6433 2.83169C9.32846 5.19393 7.90039 8.43059 7.90039 11.9998H8.90039ZM12.3575 20.468C10.2184 18.2851 8.90039 15.2969 8.90039 11.9998H7.90039C7.90039 15.569 9.32847 18.8057 11.6433 21.1679L12.3575 20.468Z" fill="white" fill-opacity="0.25"/>
</svg>
