<svg width="761" height="531" fill="none" xmlns="http://www.w3.org/2000/svg"><path d="M694.844 205.116h-16.002c.117-.705.217-1.417.217-2.158 0-7.331-5.941-13.272-13.272-13.272-2.533 0-4.872.745-6.886 1.978.504-2.366.782-4.815.782-7.331 0-19.34-15.678-35.014-35.018-35.014s-35.017 15.677-35.017 35.014c0 2.643.317 5.209.872 7.685a13.183 13.183 0 0 0-7.498-2.329c-7.331 0-13.272 5.941-13.272 13.272 0 .738.1 1.45.217 2.158h-31.616c-4.487 0-8.159 3.673-8.159 8.16s3.672 8.16 8.159 8.16h156.486c4.487 0 8.159-3.673 8.159-8.16.01-4.491-3.662-8.163-8.152-8.163Zm-98.704-.535c.127.181.267.355.398.532h-.451c.026-.174.03-.354.053-.532ZM103.067 378.491H93.05a8.17 8.17 0 0 0 .137-1.349 8.31 8.31 0 0 0-8.31-8.31c-1.584 0-3.05.467-4.31 1.236.314-1.48.49-3.014.49-4.591 0-12.106-9.813-21.919-21.919-21.919-12.105 0-21.919 9.813-21.919 21.919 0 1.654.2 3.261.548 4.811a8.258 8.258 0 0 0-4.694-1.456 8.31 8.31 0 0 0-8.31 8.31c0 .461.063.908.137 1.349H5.109C2.299 378.491 0 380.79 0 383.6s2.299 5.109 5.109 5.109h97.958c2.81 0 5.109-2.299 5.109-5.109-.003-2.81-2.302-5.109-5.109-5.109Zm-61.788-.33c.08.113.167.22.25.334h-.283c.016-.111.016-.224.033-.334ZM80.176 247.571h57.688c5.79 0 10.529-4.738 10.529-10.529 0-5.79-4.739-10.532-10.529-10.532H80.176c-5.791 0-10.529 4.738-10.529 10.532 0 5.787 4.738 10.529 10.529 10.529ZM300.417 202.833h57.689c5.79 0 10.528-4.738 10.528-10.529 0-5.79-4.738-10.528-10.528-10.528h-57.689c-5.79 0-10.528 4.738-10.528 10.528-.004 5.791 4.734 10.529 10.528 10.529ZM692.765 347.838h57.688c5.791 0 10.529-4.738 10.529-10.529 0-5.79-4.738-10.532-10.529-10.532h-57.688c-5.791 0-10.529 4.738-10.529 10.532 0 5.787 4.738 10.529 10.529 10.529ZM615.847 444.44h57.688c5.791 0 10.529-4.738 10.529-10.532 0-5.791-4.738-10.529-10.529-10.529h-57.688c-5.791 0-10.529 4.738-10.529 10.529 0 5.794 4.738 10.532 10.529 10.532Z" fill="#1F4779"/><g clip-path="url(#a)"><path d="M567.103 487.227h-5.81a1.016 1.016 0 0 1-1.017-1.016V170.919c0-.563.457-1.017 1.017-1.017h5.81c.562 0 1.016.457 1.016 1.017v315.292c0 .56-.454 1.016-1.016 1.016Z" fill="#505050"/><path d="m494.88 130.956 67.616 67.618c.889.889 2.33.889 3.22 0l67.615-67.618c.89-.889.89-2.331 0-3.22L565.716 60.12a2.277 2.277 0 0 0-3.22 0l-67.616 67.616a2.277 2.277 0 0 0 0 3.22Z" fill="#E0AF7F"/><path d="M564.11 142.397c3.397 0 6.223 2.828 6.223 6.225 0 3.466-2.826 6.225-6.223 6.225a6.19 6.19 0 0 1-6.227-6.225c-.003-3.397 2.758-6.225 6.227-6.225Zm-5.307-41.311h10.612l-1.416 36.854h-7.778l-1.418-36.854Z" fill="#224769"/><path d="M68.296 111.659 169.616 6.992a14.654 14.654 0 0 1 15.841-3.464L374.47 77.045" stroke="#666" stroke-width="2.593" stroke-miterlimit="10" stroke-linecap="round"/><path d="M169.383 7.005a7.006 7.006 0 0 0 14.011 0 7.006 7.006 0 0 0-14.011 0ZM370.467 84.048a7.006 7.006 0 1 0 14.012-.002 7.006 7.006 0 0 0-14.012.002Z" fill="#3971B7"/><path d="M619.886 509.834H126.802c-6.254 0-11.369-5.115-11.369-11.368 0-6.254 5.115-11.369 11.369-11.369h493.084c6.253 0 11.369 5.115 11.369 11.369 0 6.253-5.118 11.368-11.369 11.368Z" fill="#666"/><path d="M213.989 469.849h309.64a8.877 8.877 0 0 0 8.877-8.878V235.379a8.877 8.877 0 0 0-8.877-8.877h-309.64a8.877 8.877 0 0 0-8.877 8.877v225.592a8.877 8.877 0 0 0 8.877 8.878Z" fill="#fff"/><path d="M532.506 251.612v-16.233a8.877 8.877 0 0 0-8.877-8.877h-309.64a8.877 8.877 0 0 0-8.877 8.877v16.233h327.394Z" fill="#E0AF7F"/><path d="M502.902 242.877a5.106 5.106 0 1 0-.001-10.211 5.106 5.106 0 0 0 .001 10.211ZM490.752 242.877a5.106 5.106 0 1 0-.001-10.211 5.106 5.106 0 0 0 .001 10.211Z" fill="#E4E4E4"/><path d="M515.219 242.877a5.105 5.105 0 1 0 0-10.21 5.105 5.105 0 0 0 0 10.21Z" fill="#7F7F7F"/><path d="M314.549 288.673H521.92c.926 0 1.675-.749 1.675-1.674v-23.565c0-.925-.749-1.675-1.675-1.675H314.549c-.926 0-1.675.75-1.675 1.675v23.565c0 .925.749 1.674 1.675 1.674Z" fill="#E4E4E4"/><path d="M219.568 448.77h84.761a1.962 1.962 0 0 0 1.962-1.963V296.648a1.96 1.96 0 0 0-1.962-1.96h-84.761a1.962 1.962 0 0 0-1.963 1.96V446.81a1.964 1.964 0 0 0 1.963 1.96Z" stroke="#F1F1F1" stroke-width="2.593" stroke-miterlimit="10"/><path d="M219.272 288.673h83.46c.925 0 1.675-.749 1.675-1.674v-23.565c0-.925-.75-1.675-1.675-1.675h-83.46c-.925 0-1.674.75-1.674 1.675v23.565c0 .925.749 1.674 1.674 1.674ZM296.268 312.373h-70.376a.887.887 0 0 1-.887-.887v-4.724c0-.49.397-.887.887-.887h70.376c.49 0 .887.397.887.887v4.724c0 .49-.397.887-.887.887ZM296.268 321.947h-70.376a.886.886 0 0 1-.887-.886v-4.724c0-.49.397-.887.887-.887h70.376c.49 0 .887.397.887.887v4.724c0 .49-.397.886-.887.886ZM296.268 331.522h-70.376a.887.887 0 0 1-.887-.887v-4.724c0-.49.397-.887.887-.887h70.376c.49 0 .887.397.887.887v4.724c0 .49-.397.887-.887.887ZM296.268 341.095h-70.376a.886.886 0 0 1-.887-.886v-4.724c0-.49.397-.887.887-.887h70.376c.49 0 .887.397.887.887v4.724c0 .49-.397.886-.887.886ZM296.268 350.671h-70.376a.887.887 0 0 1-.887-.887v-4.724c0-.49.397-.886.887-.886h70.376c.49 0 .887.396.887.886v4.724c0 .49-.397.887-.887.887ZM296.268 360.245h-70.376a.886.886 0 0 1-.887-.887v-4.723c0-.49.397-.887.887-.887h70.376c.49 0 .887.397.887.887v4.723a.888.888 0 0 1-.887.887ZM296.268 369.817h-70.376a.887.887 0 0 1-.887-.887v-4.724c0-.49.397-.886.887-.886h70.376c.49 0 .887.396.887.886v4.724c0 .49-.397.887-.887.887ZM296.268 379.391h-70.376a.886.886 0 0 1-.887-.887v-4.723c0-.49.397-.887.887-.887h70.376c.49 0 .887.397.887.887v4.723a.886.886 0 0 1-.887.887ZM296.268 388.967h-70.376a.887.887 0 0 1-.887-.887v-4.724c0-.49.397-.886.887-.886h70.376c.49 0 .887.396.887.886v4.724c0 .49-.397.887-.887.887ZM296.268 398.541h-70.376a.887.887 0 0 1-.887-.887v-4.723c0-.49.397-.887.887-.887h70.376c.49 0 .887.397.887.887v4.723c0 .49-.397.887-.887.887ZM296.268 408.115h-70.376a.886.886 0 0 1-.887-.886v-4.724c0-.49.397-.887.887-.887h70.376c.49 0 .887.397.887.887v4.724c0 .49-.397.886-.887.886ZM296.268 417.689h-70.376a.887.887 0 0 1-.887-.887v-4.723c0-.49.397-.887.887-.887h70.376c.49 0 .887.397.887.887v4.723c0 .49-.397.887-.887.887ZM296.268 427.265h-70.376a.887.887 0 0 1-.887-.887v-4.723c0-.49.397-.887.887-.887h70.376c.49 0 .887.397.887.887v4.723c0 .49-.397.887-.887.887ZM296.268 436.839h-70.376a.886.886 0 0 1-.887-.886v-4.724c0-.49.397-.887.887-.887h70.376c.49 0 .887.397.887.887v4.724c0 .49-.397.886-.887.886ZM184.529 464.601l-26.538-26.538 1.297-3.876 27.738 27.739-2.497 2.675Z" fill="#E4E4E4"/><path d="m160.488 464.601 26.538-26.538-1.299-3.876-27.736 27.739 2.497 2.675ZM184.529 429.907l-26.538-26.538 1.297-3.876 27.738 27.739-2.497 2.675Z" fill="#E4E4E4"/><path d="m160.488 429.907 26.538-26.538-1.299-3.876-27.736 27.739 2.497 2.675ZM184.529 395.213l-26.538-26.538 1.297-3.876 27.738 27.738-2.497 2.676Z" fill="#E4E4E4"/><path d="m160.488 395.213 26.538-26.538-1.299-3.876-27.736 27.738 2.497 2.676ZM184.529 360.517l-26.538-26.538 1.297-3.876 27.738 27.739-2.497 2.675Z" fill="#E4E4E4"/><path d="m160.488 360.517 26.538-26.538-1.299-3.876-27.736 27.739 2.497 2.675ZM184.529 325.823l-26.538-26.538 1.297-3.876 27.738 27.738-2.497 2.676Z" fill="#E4E4E4"/><path d="m160.488 325.823 26.538-26.538-1.299-3.876-27.736 27.738 2.497 2.676ZM184.529 291.128l-26.538-26.54 1.297-3.874 27.738 27.739-2.497 2.675Z" fill="#E4E4E4"/><path d="m160.488 291.128 26.538-26.54-1.299-3.874-27.736 27.739 2.497 2.675Z" fill="#E4E4E4"/><path d="M161.471 120.664h-4.672v349.623h4.672V120.664ZM188.567 120.664h-4.672v349.623h4.672V120.664Z" fill="#E4E4E4"/><path d="m184.529 256.431-26.538-26.539 1.297-3.873 27.738 27.736-2.497 2.676Z" fill="#E4E4E4"/><path d="m160.488 256.431 26.538-26.539-1.299-3.873-27.736 27.736 2.497 2.676ZM184.529 221.737l-26.538-26.538 1.297-3.876 27.738 27.739-2.497 2.675Z" fill="#E4E4E4"/><path d="m160.488 221.737 26.538-26.538-1.299-3.876-27.736 27.739 2.497 2.675ZM184.529 187.043l-26.538-26.538 1.297-3.876 27.738 27.738-2.497 2.676Z" fill="#E4E4E4"/><path d="m160.488 187.043 26.538-26.538-1.299-3.876-27.736 27.738 2.497 2.676ZM184.529 152.347l-26.538-26.538 1.297-3.876 27.738 27.739-2.497 2.675Z" fill="#E4E4E4"/><path d="m160.488 152.347 26.538-26.538-1.299-3.876-27.736 27.739 2.497 2.675Z" fill="#E4E4E4"/><path d="M195.543 112.136h-43.341v39.076h43.341v-39.076Z" fill="#DDAA3A"/><path d="M209.575 112.136h-43.341v39.076h43.341v-39.076Z" fill="#E0AF7F"/><path d="M191.991 450.511H148.65v39.076h43.341v-39.076Z" fill="#DDAA3A"/><path d="M209.575 450.511h-43.341v39.076h43.341v-39.076Z" fill="#E0AF7F"/><path opacity=".3" d="M203.327 450.511v28.415a4.413 4.413 0 0 1-4.413 4.413h-32.68v6.25h43.341v-39.076h-6.248v-.002Z" fill="#666"/><path d="M127.694 110.028H86.663v28.242h41.031v-28.242Z" fill="#E4E4E4"/><path d="M127.694 128.602H86.663v9.665h41.031v-9.665Z" fill="#F1F1F1"/><path d="M68.296 111.66a7.209 7.209 0 0 0 14.415 0 7.209 7.209 0 0 0-7.207-7.208 7.209 7.209 0 0 0-7.208 7.208Z" fill="#3971B7"/><path opacity=".3" d="M312.81 456.882h207.659c1.729 0 3.129-1.4 3.129-3.13V297.448c0-1.729-1.4-3.129-3.129-3.129H312.81a3.128 3.128 0 0 0-3.129 3.129v156.304a3.13 3.13 0 0 0 3.129 3.13Z" fill="#666"/><path d="M421.529 108.76h-4.67v178.658h4.67V108.76Z" fill="#224769"/><path d="M315.897 448.77h204.675a3.023 3.023 0 0 0 3.023-3.023V297.708a3.022 3.022 0 0 0-3.023-3.023H315.897a3.022 3.022 0 0 0-3.023 3.023v148.039a3.023 3.023 0 0 0 3.023 3.023Z" fill="#fff" stroke="#979797" stroke-width="2.593" stroke-miterlimit="10"/><path d="M509.798 398.882H324.51a3.763 3.763 0 0 1-3.761-3.762v-67.704a3.763 3.763 0 0 1 3.761-3.762h185.288a3.764 3.764 0 0 1 3.762 3.762v67.704a3.76 3.76 0 0 1-3.762 3.762ZM392.966 319.211H322.39a1.64 1.64 0 0 1-1.641-1.641v-14.156a1.64 1.64 0 0 1 1.641-1.641h70.576a1.64 1.64 0 0 1 1.641 1.641v14.156a1.64 1.64 0 0 1-1.641 1.641ZM362.544 413.243h-39.348a1.077 1.077 0 0 1-1.079-1.078v-6.391c0-.596.482-1.079 1.079-1.079h39.351c.596 0 1.078.483 1.078 1.079v6.391a1.081 1.081 0 0 1-1.081 1.078ZM513.3 425.213H322.864a.748.748 0 0 1-.747-.747v-7.054c0-.413.335-.747.747-.747H513.3c.412 0 .747.334.747.747v7.054a.748.748 0 0 1-.747.747ZM513.3 437.29H322.864a.747.747 0 0 1-.747-.747v-7.054c0-.412.335-.747.747-.747H513.3c.412 0 .747.335.747.747v7.054a.747.747 0 0 1-.747.747ZM412.652 413.243h-39.351a1.077 1.077 0 0 1-1.078-1.078v-6.391c0-.596.482-1.079 1.078-1.079h39.351c.596 0 1.079.483 1.079 1.079v6.391c0 .596-.483 1.078-1.079 1.078ZM462.76 413.243h-39.348a1.077 1.077 0 0 1-1.079-1.078v-6.391c0-.596.482-1.079 1.079-1.079h39.348c.596 0 1.078.483 1.078 1.079v6.391c0 .596-.482 1.078-1.078 1.078ZM512.867 413.243h-39.351a1.077 1.077 0 0 1-1.078-1.078v-6.391c0-.596.482-1.079 1.078-1.079h39.351c.596 0 1.078.483 1.078 1.079v6.391c0 .596-.482 1.078-1.078 1.078Z" fill="#E4E4E4"/><path d="M419.348 276.615a9.236 9.236 0 0 1 9.237 9.237v9.238h-18.472v-9.238c-.003-5.102 4.132-9.237 9.235-9.237Z" fill="#224769"/><path d="m80.821 109.624 26.538-26.539 3.876 1.3-27.738 27.738-2.676-2.499Z" fill="#E4E4E4"/><path d="m93.707 98.834 13.653 13.289 3.876-1.299-15.33-14.679-2.199 2.689ZM115.517 109.624l26.538-26.539 3.876 1.3-27.738 27.738-2.676-2.499Z" fill="#E4E4E4"/><path d="m115.517 85.582 26.538 26.541 3.876-1.299-27.738-27.739-2.676 2.497ZM150.211 109.624l26.538-26.539 3.876 1.3-27.738 27.738-2.676-2.499Z" fill="#E4E4E4"/><path d="m150.211 85.582 26.538 26.541 3.876-1.299-27.738-27.739-2.676 2.497ZM184.905 109.624l26.538-26.539 3.876 1.3-27.738 27.738-2.676-2.499Z" fill="#E4E4E4"/><path d="m184.905 85.582 26.538 26.541 3.876-1.299-27.738-27.739-2.676 2.497ZM219.601 109.624l26.538-26.539 3.876 1.3-27.739 27.738-2.675-2.499Z" fill="#E4E4E4"/><path d="m219.601 85.582 26.538 26.541 3.876-1.299-27.739-27.739-2.675 2.497ZM254.297 109.624l26.539-26.539 3.873 1.3-27.739 27.738-2.673-2.499Z" fill="#E4E4E4"/><path d="m254.297 85.582 26.539 26.541 3.873-1.299-27.739-27.739-2.673 2.497Z" fill="#E4E4E4"/><path d="m103.969 86.567 4.154-4.671h286.682l4.291 4.671H103.969ZM75.136 111.325a2.335 2.335 0 0 1 2.336-2.336H421.75v4.672H77.472a2.336 2.336 0 0 1-2.336-2.336Z" fill="#E4E4E4"/><path d="m288.991 109.624 26.538-26.539 3.876 1.3-27.738 27.738-2.676-2.499Z" fill="#E4E4E4"/><path d="m288.991 85.582 26.538 26.541 3.876-1.299-27.738-27.739-2.676 2.497ZM323.687 109.624l26.538-26.539 3.876 1.3-27.738 27.738-2.676-2.499Z" fill="#E4E4E4"/><path d="m323.687 85.582 26.538 26.541 3.876-1.299-27.738-27.739-2.676 2.497ZM358.381 109.624l26.538-26.539 3.876 1.3-27.739 27.738-2.675-2.499Z" fill="#E4E4E4"/><path d="m358.381 85.582 26.538 26.541 3.876-1.299-27.739-27.739-2.675 2.497ZM393.075 109.624 406.92 95.96l2.859 2.077-14.028 14.086-2.676-2.499Z" fill="#E4E4E4"/><path d="m393.075 85.582 26.538 26.541 1.994-2.888-25.856-26.15-2.676 2.497Z" fill="#E4E4E4"/><path d="M209.275 117.646h-36.452v28.29h36.452v-28.29Z" fill="#E0AF7F"/><path d="M223.369 245.979h11.408a4.291 4.291 0 0 0 4.278-4.278 4.291 4.291 0 0 0-4.278-4.278h-11.408a4.291 4.291 0 0 0-4.278 4.278 4.292 4.292 0 0 0 4.278 4.278ZM241.188 239.24h11.408a4.29 4.29 0 0 0 4.278-4.278 4.29 4.29 0 0 0-4.278-4.277h-11.408a4.29 4.29 0 0 0-4.277 4.277 4.29 4.29 0 0 0 4.277 4.278Z" fill="#F1CB6F"/><path d="M191.053 129.377h11.407a4.29 4.29 0 0 0 4.278-4.277 4.29 4.29 0 0 0-4.278-4.278h-11.407a4.29 4.29 0 0 0-4.278 4.278 4.288 4.288 0 0 0 4.278 4.277Z" fill="#E0AF7F"/><path d="M510.627 489.423h25.644a3.266 3.266 0 0 0 3.266-3.267v-30.39H507.36v30.39a3.27 3.27 0 0 0 3.267 3.267Z" fill="#224769"/><path d="M511.769 485.143h-1.776a1.1 1.1 0 0 1-1.099-1.099v-27.407c0-.607.492-1.099 1.099-1.099h1.776a1.1 1.1 0 0 1 1.099 1.099v27.407a1.1 1.1 0 0 1-1.099 1.099ZM515.334 485.143a1.1 1.1 0 0 1-1.099-1.099v-27.407a1.099 1.099 0 1 1 2.198 0v27.407a1.1 1.1 0 0 1-1.099 1.099Z" fill="#3570A6"/><path opacity=".3" d="M534.91 455.768v29.559a3.266 3.266 0 0 1-3.266 3.266h-23.173c.575.511 1.327.83 2.157.83h25.643a3.266 3.266 0 0 0 3.267-3.267v-30.39h-4.628v.002Z" fill="#666"/><path d="M538.999 457.301h-31.036a2.022 2.022 0 1 1 0-4.045h31.036a2.022 2.022 0 1 1 0 4.045Z" fill="#EEBD42"/><path d="M506.519 461.439a1.157 1.157 0 0 0 2.313 0 1.157 1.157 0 0 0-2.313 0ZM522.867 461.439a1.157 1.157 0 0 0 2.313 0 1.157 1.157 0 0 0-2.313 0Z" fill="#666"/><path d="M524.026 461.44v11.47a5.53 5.53 0 0 1-5.53 5.53h-5.297a5.53 5.53 0 0 1-5.53-5.53v-11.47" stroke="#666" stroke-width="1.213" stroke-miterlimit="10" stroke-linecap="round"/><path d="M529.927 460.34h1.008a.862.862 0 0 0 0-1.722h-1.008a.862.862 0 0 0 0 1.722Z" fill="#3570A6"/><path d="m162.553 82.906 12.875-76.64c.153-.908 1.457-.908 1.608 0l12.882 77.288M167.768 51.959h17.604" stroke="#E4E4E4" stroke-width="5.185" stroke-miterlimit="10"/><path d="M610.617 422.088h-3.393v67.587h3.393v-67.587ZM557.968 422.088h-3.393v67.587h3.393v-67.587Z" fill="#505050"/><path d="m566.298 425.297-5.172 26.531h7.086l5.169-26.531h-7.083ZM582.134 425.297l-5.173 26.531h7.086l5.17-26.531h-7.083ZM549.262 425.297v26.531h3.111l5.172-26.531h-8.283ZM597.97 425.297l-5.173 26.531h7.086l5.172-26.531h-7.085ZM615.798 425.297h-1.994l-5.169 26.531h7.163v-26.531Z" fill="#fff"/><path d="m557.546 425.297-5.172 26.531h8.752l5.173-26.531h-8.753ZM573.381 425.297l-5.17 26.531h8.751l5.172-26.531h-8.753ZM589.217 425.297l-5.17 26.531h8.75l5.173-26.531h-8.753ZM605.055 425.297l-5.172 26.531h8.753l5.169-26.531h-8.75Z" fill="#EEBD42"/><path opacity=".3" d="M611.827 425.321v22.62h-62.588v3.887h66.56v-26.531l-3.972.024Z" fill="#666"/><path d="m566.298 459.536-5.172 21.767h7.086l5.169-21.767h-7.083ZM582.134 459.536l-5.173 21.767h7.086l5.17-21.767h-7.083ZM549.262 459.536v21.767h3.111l5.172-21.767h-8.283ZM597.97 459.536l-5.173 21.767h7.086l5.172-21.767h-7.085ZM615.798 459.536h-1.994l-5.169 21.767h7.163v-21.767Z" fill="#fff"/><path d="m557.546 459.536-5.172 21.767h8.752l5.173-21.767h-8.753ZM573.381 459.536l-5.17 21.767h8.751l5.172-21.767h-8.753ZM589.217 459.536l-5.17 21.767h8.75l5.173-21.767h-8.753ZM605.055 459.536l-5.172 21.767h8.753l5.169-21.767h-8.75Z" fill="#F1CB6F"/><path opacity=".3" d="M611.827 459.559v17.858h-62.588v3.886h66.56v-21.767l-3.972.023Z" fill="#666"/><path d="M272.822 464.713h-1.213c-12.401 0-22.452 10.052-22.452 22.453h46.12c-.003-12.401-10.054-22.453-22.455-22.453Z" fill="#DEB660"/><path opacity=".3" d="M274.038 464.775c6.365 3.964 10.617 11.003 10.617 19.053h-35.223a22.4 22.4 0 0 0-.275 3.337h46.12c-.003-11.988-9.406-21.755-21.239-22.39Z" fill="#666"/><path d="M274.136 475.848h1.68c.808 0 1.47-.661 1.47-1.47 0-.809-.662-1.47-1.47-1.47h-1.68c-.809 0-1.47.661-1.47 1.47 0 .809.661 1.47 1.47 1.47ZM265.17 479.631h-4.203c-.809 0-1.47-.661-1.47-1.47 0-.808.661-1.47 1.47-1.47h4.203c.809 0 1.47.662 1.47 1.47a1.474 1.474 0 0 1-1.47 1.47Z" fill="#E0AF7F"/><path opacity=".3" d="M286.458 474.025h-.579a.664.664 0 0 1-.661-.661c0-.363.298-.661.661-.661h.579c.363 0 .661.298.661.661a.664.664 0 0 1-.661.661ZM288.361 481.306h.495a.332.332 0 0 0 0-.664h-.495a.332.332 0 0 0 0 .664Z" fill="#666"/><path d="M265.158 470.634h.91a.871.871 0 0 0 .868-.869.871.871 0 0 0-.868-.868h-.91a.872.872 0 0 0-.869.868c0 .478.392.869.869.869ZM258.87 474.935h-.578a.621.621 0 0 1-.62-.62c0-.342.28-.619.62-.619h.578a.619.619 0 0 1 0 1.239ZM277.564 481.471h.827a.538.538 0 0 0 0-1.074h-.827a.538.538 0 0 0-.537.537.54.54 0 0 0 .537.537ZM270.99 480.808h-.91a.578.578 0 0 1 0-1.156h.91a.578.578 0 0 1 0 1.156ZM253.865 481.388h1.159a.417.417 0 0 0 .415-.415.417.417 0 0 0-.415-.415h-1.159a.414.414 0 0 0-.412.415c0 .228.184.415.412.415ZM267.433 474.686h-.083a.413.413 0 1 1 0-.827h.083c.228 0 .415.187.415.413a.418.418 0 0 1-.415.414ZM274.877 469.227h.166a.746.746 0 0 0 .744-.744.746.746 0 0 0-.744-.744h-.166a.745.745 0 0 0 0 1.488ZM292.058 488.187h18.047c.827 0 1.504-.677 1.504-1.504s-.677-1.503-1.504-1.503h-18.047c-.827 0-1.504.676-1.504 1.503 0 .827.677 1.504 1.504 1.504Z" fill="#E0AF7F"/><path d="M258.833 489.963h-13.399a1.646 1.646 0 0 1-1.641-1.641c0-.902.739-1.641 1.641-1.641h13.399c.902 0 1.641.739 1.641 1.641 0 .905-.739 1.641-1.641 1.641Z" fill="#505050"/><path d="M312.918 451.229h-2.004c-20.461 0-37.048 16.587-37.048 37.048h76.101c0-20.461-16.588-37.048-37.049-37.048Z" fill="#E0AF7F"/><path opacity=".3" d="M314.925 451.33c10.503 6.539 17.519 18.156 17.519 31.441h-58.125c-.269 1.802-.453 3.63-.453 5.507h76.101c0-19.785-15.519-35.898-35.042-36.948Z" fill="#666"/><path d="M315.083 469.602h2.774a2.434 2.434 0 0 0 2.427-2.427 2.433 2.433 0 0 0-2.427-2.426h-2.774a2.433 2.433 0 0 0-2.427 2.426 2.434 2.434 0 0 0 2.427 2.427ZM300.29 475.843h-6.935a2.433 2.433 0 0 1-2.427-2.427 2.433 2.433 0 0 1 2.427-2.426h6.935a2.433 2.433 0 0 1 2.427 2.426 2.433 2.433 0 0 1-2.427 2.427Z" fill="#E0AF7F"/><path opacity=".3" d="M335.417 466.595h-.956c-.602 0-1.092-.49-1.092-1.091 0-.602.493-1.092 1.092-1.092h.956c.602 0 1.092.49 1.092 1.092 0 .601-.493 1.091-1.092 1.091ZM338.555 478.607h.82a.55.55 0 0 0 .547-.547.55.55 0 0 0-.547-.547h-.82a.55.55 0 0 0-.547.547.552.552 0 0 0 .547.547Z" fill="#666"/><path d="M300.269 460.996h1.501c.788 0 1.434-.645 1.434-1.433 0-.789-.646-1.434-1.434-1.434h-1.501c-.788 0-1.434.645-1.434 1.434 0 .79.646 1.433 1.434 1.433ZM289.896 468.096h-.954a1.029 1.029 0 0 1-1.025-1.025c0-.562.462-1.024 1.025-1.024h.954c.562 0 1.024.462 1.024 1.024a1.03 1.03 0 0 1-1.024 1.025ZM320.743 478.879h1.363a.89.89 0 0 0 .887-.887.89.89 0 0 0-.887-.887h-1.363a.89.89 0 0 0-.887.887.89.89 0 0 0 .887.887ZM309.89 477.787h-1.501a.956.956 0 0 1 0-1.911h1.501c.526 0 .956.431.956.955 0 .526-.43.956-.956.956ZM281.635 478.744h1.911a.683.683 0 0 0 0-1.364h-1.911a.683.683 0 0 0 0 1.364ZM304.023 467.686h-.137a.683.683 0 0 1 0-1.364h.137a.683.683 0 0 1 0 1.364ZM316.307 458.677h.272c.677 0 1.229-.553 1.229-1.229 0-.677-.552-1.229-1.229-1.229h-.272c-.677 0-1.229.552-1.229 1.229 0 .676.552 1.229 1.229 1.229Z" fill="#B99775"/><path d="M344.656 489.962h29.781a2.49 2.49 0 0 0 2.482-2.481 2.488 2.488 0 0 0-2.482-2.481h-29.781a2.489 2.489 0 0 0-2.481 2.481 2.49 2.49 0 0 0 2.481 2.481ZM289.831 492.894h-22.11a2.714 2.714 0 0 1-2.706-2.706 2.715 2.715 0 0 1 2.706-2.707h22.11a2.716 2.716 0 0 1 2.707 2.707 2.713 2.713 0 0 1-2.707 2.706Z" fill="#505050"/><path d="M171.278 459.711h5.564c1.48 0 2.691-1.21 2.691-2.691a2.699 2.699 0 0 0-2.691-2.691h-5.564a2.699 2.699 0 0 0-2.691 2.691 2.698 2.698 0 0 0 2.691 2.691Z" fill="#E0AF7F"/><path d="M177.651 466.893h5.564a2.7 2.7 0 0 0 2.691-2.692 2.699 2.699 0 0 0-2.691-2.691h-5.564a2.699 2.699 0 0 0-2.691 2.691 2.7 2.7 0 0 0 2.691 2.692Z" fill="#B59677"/><path opacity=".3" d="M157.011 486.995h-3.409a2.069 2.069 0 0 1-2.064-2.064c0-1.136.928-2.064 2.064-2.064h3.409c1.136 0 2.064.928 2.064 2.064a2.069 2.069 0 0 1-2.064 2.064ZM161.139 481.787h-3.409a2.069 2.069 0 0 1-2.064-2.064c0-1.135.928-2.063 2.064-2.063h3.409c1.136 0 2.064.928 2.064 2.063a2.069 2.069 0 0 1-2.064 2.064Z" fill="#666"/><path d="M182.546 140.562h7.119a3.123 3.123 0 0 0 3.114-3.114 3.123 3.123 0 0 0-3.114-3.114h-7.119a3.123 3.123 0 0 0-3.114 3.114 3.122 3.122 0 0 0 3.114 3.114Z" fill="#E0AF7F"/><path opacity=".3" d="M112.088 122.17h5.341c1.468 0 2.671-1.2 2.671-2.67a2.679 2.679 0 0 0-2.671-2.671h-5.341c-1.467 0-2.67 1.2-2.67 2.671a2.682 2.682 0 0 0 2.67 2.67Z" fill="#666"/><path d="M234.001 502.944h371.713a2.895 2.895 0 0 0 2.885-2.886 2.894 2.894 0 0 0-2.885-2.885H234.001a2.895 2.895 0 0 0-2.886 2.885 2.895 2.895 0 0 0 2.886 2.886ZM216.349 516.623h-77.803a3.25 3.25 0 0 1-3.24-3.241 3.25 3.25 0 0 1 3.24-3.24h77.803a3.25 3.25 0 0 1 3.24 3.24 3.25 3.25 0 0 1-3.24 3.241ZM331.612 530.309H253.81a3.25 3.25 0 0 1-3.241-3.241 3.25 3.25 0 0 1 3.241-3.241h77.802a3.25 3.25 0 0 1 3.241 3.241 3.253 3.253 0 0 1-3.241 3.241Z" fill="#505050"/></g><defs><clipPath id="a"><path fill="#fff" transform="translate(67)" d="M0 0h567v530.309H0z"/></clipPath></defs></svg>