<svg width="1440" height="867" fill="none" xmlns="http://www.w3.org/2000/svg"><g clip-path="url(#a)"><path fill="#fff" d="M0 0h1440v867H0z"/><path d="M-2 0h1442v873H-2V0Z" fill="#fff"/><mask id="c" style="mask-type:alpha" maskUnits="userSpaceOnUse" x="312" y="155" width="816" height="557"><path opacity=".7" fill-rule="evenodd" clip-rule="evenodd" d="M333.144 217.652c23.052 21.45 69.156 81.544 69.156 150.316 0 4.813-.038 10.475-.082 16.853-.735 107.539-2.863 418.759 155.685 300.973 22.442-16.672 45.501-32.888 68.17-48.83 31.227-21.96 61.714-43.4 88.827-64.793 96.255 108.694 185.905 176.924 285.8 31.531 134.77-196.167 172.21-531.826 60.59-414.546-19.58 24.644-75.964 75.355-144.854 81.046-4.821.398-10.496.829-16.889 1.313-41.742 3.164-114.102 8.649-179.49 22.752-188.284-137.052-490.732-192.114-386.913-76.615Z" fill="url(#b)"/></mask><g mask="url(#c)" stroke="#393953" stroke-opacity=".07"><path d="M290.309-243.022h24v1378.58h-24zM314.309-243.022h24v1378.58h-24zM338.309-243.022h24v1378.58h-24zM362.309-243.022h24v1378.58h-24zM386.309-243.022h24v1378.58h-24zM410.309-243.022h24v1378.58h-24zM434.309-243.022h24v1378.58h-24zM458.309-243.022h24v1378.58h-24zM482.309-243.022h24v1378.58h-24z"/><path d="M506.309-243.022h24v1378.58h-24zM530.309-243.022h24v1378.58h-24zM554.309-243.022h24v1378.58h-24zM578.309-243.022h24v1378.58h-24zM602.309-243.022h24v1378.58h-24zM626.309-243.022h24v1378.58h-24zM650.309-243.022h24v1378.58h-24zM674.309-243.022h24v1378.58h-24zM698.309-243.022h24v1378.58h-24zM722.309-243.022h24v1378.58h-24zM746.309-243.022h24v1378.58h-24zM770.309-243.022h24v1378.58h-24zM794.309-243.022h24v1378.58h-24zM818.309-243.022h24v1378.58h-24zM842.309-243.022h24v1378.58h-24zM866.309-243.022h24v1378.58h-24zM890.309-243.022h24v1378.58h-24zM914.309-243.022h24v1378.58h-24zM938.309-243.022h24v1378.58h-24zM962.309-243.022h24v1378.58h-24zM986.309-243.022h24v1378.58h-24zM1010.31-243.022h24v1378.58h-24zM1034.31-243.022h24v1378.58h-24zM1058.31-243.022h24v1378.58h-24zM1082.31-243.022h24v1378.58h-24zM1106.31-243.022h24v1378.58h-24z"/><path d="M2.309 164.978v-24h1440v24zM2.309 188.978v-24h1440v24zM2.309 212.978v-24h1440v24zM2.309 236.978v-24h1440v24zM2.309 260.978v-24h1440v24zM2.309 284.978v-24h1440v24zM2.309 308.978v-24h1440v24zM2.309 332.978v-24h1440v24zM2.309 356.978v-24h1440v24zM2.309 380.978v-24h1440v24zM2.309 404.978v-24h1440v24zM2.309 428.978v-24h1440v24zM2.309 452.978v-24h1440v24zM2.309 476.978v-24h1440v24zM2.309 500.978v-24h1440v24z"/><path d="M2.309 524.978v-24h1440v24zM2.309 548.978v-24h1440v24z"/></g></g><defs><linearGradient id="b" x1="1118.44" y1="119.801" x2="667.916" y2="590.281" gradientUnits="userSpaceOnUse"><stop stop-color="#fff" stop-opacity=".42"/><stop offset="1" stop-color="#fff"/></linearGradient><clipPath id="a"><path fill="#fff" d="M0 0h1440v867H0z"/></clipPath></defs></svg>