<svg xmlns="http://www.w3.org/2000/svg" viewBox="0 0 128 128"><path fill="#9B4F96" d="M115.4 30.7 67.1 2.9a6 6 0 0 0-3.1-.7 7 7 0 0 0-3.1.7l-48 27.9a6.9 6.9 0 0 0-2.9 5.4v55.7c0 1.1.2 2.4 1 3.5l106.8-62a7 7 0 0 0-2.4-2.7z"/><path fill="#68217A" d="M10.7 95.3c.5.8 1.2 1.5 1.9 1.9l48.2 27.9a6 6 0 0 0 3.1.7 7 7 0 0 0 3.1-.7l48-27.9c1.7-1 2.9-3.5 2.9-5.4V36.1c0-.9-.1-1.9-.6-2.8l-106.6 62z"/><path fill="#fff" d="M85.3 76.1a24.5 24.5 0 1 1 0-24.1l13-7.5a39.5 39.5 0 1 0-.1 39.2l-12.9-7.6zM97 66.2l.9-4.3h-4.2v-4.7h5.1L100 51h4.9l-1.2 6.1h3.8l1.2-6.1h4.8l-1.2 6.1h2.4v4.7h-3.3l-.9 4.3h4.2v4.7h-5.1l-1.2 6h-4.9l1.2-6h-3.8l-1.2 6h-4.8l1.2-6h-2.4v-4.7H97zm4.8 0h3.8l.9-4.3h-3.8l-.9 4.3z"/></svg>