<svg width="371" height="371" fill="none" xmlns="http://www.w3.org/2000/svg"><circle cx="185.5" cy="185.5" r="185.5" fill="#F0F3F5"/><path d="M162.8 128.8a335 335 0 0 0-25.6.1s-.1.2 0 .2v.2h.1c3.2.4 23.3.5 25.5.2.3 0 .4-.6 0-.7Zm92.9 38.7c-.3 0-3.8 1.4-2.9 2l1 .9c-.2.5 2 3 .4 9-.6-.4-.6 0-.5.2 2.3 2.7 18.7 17.4 22.3 20 .4.6 2.5-.5 2.8-.7 7.3-3.4 14.3-7.4 21.2-11.7 2.5-1.5 2.5-7-.5-9.3a89 89 0 0 0-10-6.5l4.2-3.7c.3-.3.2-1.3-1-.2a25.1 25.1 0 0 1-2.8-15.1c.1-.1 2-1.4 1.2-1.8-4.2-2-17.8-7.5-22-7.8a59 59 0 0 0-13.4 11.7c-2.2 4.2-1.6 8.9 0 13Zm-1.1 12.2c1.4-1.7 1-6.3.3-8.4 1.8 1.7 17 14.6 21.8 18 2.6 6.2-.3 9.2-.2 9.6-8-6.3-14.6-13.4-22-19.2Zm44.8-.7c2.3 1.3 1.7 6.8 0 7.5-7.4 4.5-14.8 8.5-22.5 12.3 1-1.5 1.6-3.4 1.6-5.3l10.6-4.8c.2-.2 0-.5-.2-.4a88 88 0 0 0-10.4 4.7c0-1.5-.4-3-1.2-4.2 3.2-1.4 19.7-11 22-9.8Zm-23-15.7c4.1-3.8 8.3-7.3 12.7-10.5-.3 1.9-.4 3.8-.1 5.7-.7.2-9 7.1-9.5 7.5-.2.1 0 .4.2.3l9.3-7c.3 2 1.5 7 3.3 8.4a56.9 56.9 0 0 1-13 9.7c-1.7-1.8-2.9-4-3.3-6.6-.5-2.5-.4-5.1.5-7.5Zm-1.7-13.4c1 1-3 3.6-3.2 3.6-.5.2-.8-.3.2-1.4.5-.5 2.3-2.7 3-2.1Zm-7.5 2.6a20 20 0 0 1 5-5.1.5.5 0 0 1 .3 0l.2.2v.3a.7.7 0 0 1 0 .4l-.1.2c-1.1 1-4 4-4.8 4.6a.4.4 0 0 1-.4 0h-.2v-.2a.5.5 0 0 1 0-.4Zm-10.1 2.7c5.9 1.8 11.7 4 17.3 6.6.4.2.3.9-.2.8a140.8 140.8 0 0 1-17.4-7V155.4l.3-.1Zm-1 13a93.1 93.1 0 0 0 23.3 10.2c1 .2 8.4-5.7 9.6-6.7.8.9 7.5 5 9.2 6.3-2.5.1-20.2 9.4-21.5 10.3a837 837 0 0 0-23.4-19l2.8-1Zm-93.3-39.4Zm22.4-29.4h-.3c-.8.5-5.5 7.7-6.4 9l-2.8-4c-.2-.3-.5 0-.4.3l2.9 4.8c.2.2.5.1.6 0 .9-1.3 6.4-8.8 6.6-9.6a.4.4 0 0 0 0-.4h-.1l-.1-.1Zm-26.3 32.4c-8.2.2-17.3 0-20.9.4h-.2v.5h.2c4.3 0 17.5.6 21-.2.2-.1.2-.6 0-.7Zm.4-15.5c.2 0 .3-.5 0-.6a164.6 164.6 0 0 0-23.5 1.3v.4h.2c5.4 0 17.6-.9 23.2-1v-.1Zm-5.5 3c.2 0 .3-.4 0-.5a154.4 154.4 0 0 0-17.4.4V119.5l.2.1c2.6.2 15.6.3 17.2-.2ZM183 128c.7-1.3-7.5-.8-8-.4-.3.4 0 6.8 0 7.4 0 .9 7.8.9 8 .6.4-2.5.4-5 0-7.6Zm-.6 6.9c-.7 0-6.1.1-6.6-.3l-.2-6.5h6.9c-.2 2.3-.3 4.5-.1 6.8Z" fill="#45657E"/><path d="M280 170.8c1.9-1.3 3.9-2.5 5.7-3.9.3-.2 0-.7-.3-.5l-5.6 4v.4h.2Zm-13.9 17c-.1-.1-.4.2-.2.3 1.4 1.4 8.1 6.7 9.6 7.8.2.2.4-.2.2-.3-2.9-2.5-6.5-5.7-9.6-7.8Zm-89-65.3c.7 0 6.3.7 6.2-.3 0-1 0-7-.5-7.2 0-1-7-.3-7.7-.1-.4 0-.2 6-.2 6.7 0 1 1.6.9 2.2.9Zm5.4-7.1v6.5c-2.3-.3-4.7-.3-7-.2v-6.3c1 0 6.3.2 7 0Zm92.7 77.6H275.5V192.7c-6.3-5-12.6-11-18.8-15.7-.1-.2-.4 0-.2.3 3.4 3.7 14.2 12.4 18.8 15.8v-.1Zm17.6-8.9ZM183.3 105l-.1-.2H182.9V110.3h-7.7c-.1-2.5-.4-5-.7-7.5a40 40 0 0 0 6.5-.3v-.2c-.5-.3-7-.9-6.7.4-.6 0 .3 7.7.3 7.7.3 1 1.7.6 2.4.6h6.2c.7-.3.3-5.2.2-6.2Z" fill="#C2C0C0"/><path d="M316.1 245c-17.5 1.2-35 2.3-52.5 3.1a51 51 0 0 0-1.4-8.3 5205 5205 0 0 0 52.5-2v-.5l-.3-.2c-17.4.7-35 1.3-52.4 1.8a114.5 114.5 0 0 0-23-43.7c-.3-4.1-.3-6.2-1.9-10.3-3-7.8-6.3-9.4-6.2-7.6 0 .5 0 1 .2 1.4-.6-.7-4.6-5.5-5.5-2.9a4.3 4.3 0 0 0-4.1-.5c-2.5-4.7-6.8-4.7-9.6-6.2-5.2-3.1-2.8-13 1-16.6 0 0 16.6-.4 16.6-.6l3.7-71c-41-.9-84.9 0-125.5 1-.3 0-.5.2-.5.5a4960 4960 0 0 0 8.5 71.3c1 .4 90.8-1.1 96.2-1.2a16.1 16.1 0 0 0-3.5 10.3c.3 9.7 7.1 5.6 12.8 12.7-3.7 1.8-4.1 7-2.8 10.7l1 2c0 1.5.5 2.9 1.1 4.1 1.8 3.8 4.9 5 5 5.6 0 8.8 1.7 19.4 3.3 28a86.6 86.6 0 0 0-36.8-11c1-8.9 7.7-10 6.8-15.9l8.5-.4c.7 0 0-2.5-.1-2.9a7382 7382 0 0 0-3.5-17.1c-.2-.8-1-6-1.7-6l-8.8.2c-2-2-6.5-2.8-8.4-.4-2.8-6-11.3-5.1-11.5.7-2.4-1.8-5.8-2.2-8 .3-.1 0-41.7.7-47.9 1h-.1l-.1.2v.2c.1.8-3.5 20-3.9 24.5 0 .6 6.2.6 6.9.6a90.4 90.4 0 0 0-19.3 40.3c-15-.3-30-.7-45-.6h-.1v.5h.2c15 .8 29.9.9 44.8 1a55 55 0 0 0-.6 9.3l-44.5-1.2c-.3 0-.4.6 0 .6 14.9.9 29.7 1.2 44.6 1.4.4 8.4 3.3 18.7 10.6 22.5 3 6.6 9.4 12.6 16.5 10.9l-.6 3.7c0 .5.7.8.8.2 2-12.2 4-24.5 7.6-36.3.1-.4-.4-.6-.5-.2-3.4 10.3-5.4 21-7.1 31.8-7.3 1.2-13.1-4-16.1-11a34 34 0 0 1-1.2-24.2c3.8-10.8 13.8-18.5 23.6-23.8 10-5.3 20.7-8.7 31.7-9.9.7 8.3 9.2 11 15.6 10.6 6.4-.4 10.3-2.6 10.8-10 0 0 23.2.7 43.2 15.7 5.9 4.4 11.2 10 14.3 17.2 3 7 4.1 15.5 1.4 22.7-4 10.5-11.1 12-15.9 13-1.7-11.3-5-22.3-9.6-32.5-.1-.2-.5 0-.4.2a148 148 0 0 1 10 37.4c0 .4.6.5.6 0 0-1.4-.2-2.8-.5-4.2 5.2-.5 10-3.2 13.4-7.7 11-3 15.8-16.4 15.1-28.2 17.6-.8 35.1-1.9 52.6-3.1.5-.2.3-1 0-1ZM115.8 144c-2.8-19.7-5-39.3-7.5-59 41.3-.8 83.6-.4 124.2-1.2l-3.1 58c-17.2.5-111.4 1.1-113.6 2.1Zm82.8 54.1a4 4 0 0 0-1.3-2 8.9 8.9 0 0 0 1-4.2h.8l1 6.1-1.5.1Zm-1.1-11.3.6-.7.9 5h-.7c.1-1.5-.2-3-.8-4.3Zm9.4 11-6.3.2-.9-6.1c2 0 4 0 6-.2l1.2 6Zm-1.4-6.8h-6l-.9-5.8 5.7-.2 1.2 6Zm-1.4-6.7-5.3.2c0-.7 0-1.5-.2-2.2a5 5 0 0 0-1-1.9l-.2-1.4 5.6-.1 1.1 5.4Zm-2-11 .8 4.8-5.7.1-1-4.8h5.8Zm-5.3 6.6c-.6-.4-1.4-.4-2.1-.2l.1-.6h1.9l.1.8Zm-1.3-6.5c.2 1.7.5 3.3 1 4.8h-1.6c.2-1.7-.2-3.4-1.1-4.8h1.7Zm-33.3.7h2.6c-.5 1-.7 2.2-.5 3.3l-2.4.7c.2-1.3.3-2.8.3-4Zm-.8 0v4.3l-.6.5-6.5.1c0-1.6 0-3.2-.2-4.8l7.3-.1Zm-2.8 11.2h-4.4v-5.4l5.7-.1c-.6.7-1 1.6-1.3 2.6a7 7 0 0 0 0 2.9Zm-4.4 7.2h3.8c0 1.3.5 2.6 1.3 3.6-.5.4-.9.9-1 1.4a4 4 0 0 0-.4 1.8h-3.7v-6.8Zm4.2-2a5 5 0 0 0-.3 1h-3.8V186h4.5a5 5 0 0 0 1.5 2.3c-.9.5-1.6 1.3-2 2.3Zm-4.6 8.8h-17c.1-2.7 0-4.3 1.5-6.6l15.3-.2.1 6.8Zm-15-7.5c1.5-1.6 2.5-3.6 3.2-5.7h3.4v5.6l-6.6.1Zm7.5-17.4 7.2-.1v4.8l-7.2.1v-4.8Zm0 5.7 7.2-.2v5.4H146l.1-5.2Zm-.2 6h7.4v5.5l-7.7.1.3-5.6Zm-6.9-11.6h6.6l-.1 4.7-6.7.1c.1-1.5.2-3.2.1-4.8h.1Zm-.3 5.7 6.8-.1-.2 5.2h-3.3c.1-.8.4-2.2-.5-2.7s-1.7 1.9-3.4 2.7l.5-5.1h.1Zm-5.9-5.5 5.7-.1-.4 4.8h-.4c.6-1.7-2.6-2.7-5.4 0l.4-4.7h.1Zm5.2 5.6-.3 5h-2.2c-.4-1.3 0-4.5 1.1-5h1.3Zm-6-5.6-.2 4.8h-2.6c-1-2.4-.4-4.2-1.4-4.8h4.2Zm-.5 5.7c-.4.4-.6.9-.8 1.4l-1-1.4h1.8Zm-8.8-5.5h4.4c-1.4.7-1.6 3.3-1.6 4.7h-2c-.8-.7-1 0-1.6 0l.7-4.8v.1Zm3 7.9a5.9 5.9 0 0 1-1.8-2.3h1.6c0 .8 0 1.5.2 2.3Zm-4.5 2.3.6-4.6c-.1 1.6 0 3.2.5 4.7l-1.1-.1Zm1.3.7c.6 2.2 1.4 4 1.8 6.2l-4.1.1.8-6.3h1.5Zm-5-10.9h4.6l-.8 4.9-4.5.1c.3-1.6.6-3.3.7-5Zm-.8 5.7h4.5l-.7 4.5h-4.6l.8-4.5Zm-.8 5 4.5.2-.8 6.3-4.8.2 1-6.7Zm3 13.4H114l1-6.1h4.8c-.3 2-.5 4.1-.6 6.1Zm.4 0 .9-6.1h4.2v1.2l-3.8 5h-1.3Zm-9.3 47.5a34.9 34.9 0 0 0 .3 26c-13.3-10-10.5-32.4-4.8-46.6a126 126 0 0 1 19.5-31.2c1-1.4-2.5-10.8-2.6-13.1 0-1.7.5-2.1 1.1-.9.6 1.2 1.4 2.6 2.5 3 .4 1.4.8 1 .7.7-.4-2.6-1.3-6.2.3-8.5 1-1.7 1 1.3 1.1 2 .3 1.3 1.4 4 2.4 4.6-.3 1 .2.7.3.5 2-5.7 7.9-5 6-3.5a4 4 0 0 0-1.3 1.4c-.3.5-.5 1.2-.6 1.8-.7 5.5 3.1 4.7 6 .9 1-1.6 1.1 1.7-.7 5-1.6 3-3.7 4-4 7.7-.6 9-2.3 20-3.4 28a47.8 47.8 0 0 0-22.9 22.2Zm23.5-22.7c1.4-7.8 2.3-15.8 3-23.7h21.2c.8 5.1 6.5 5.8 7.5 13.9a87.3 87.3 0 0 0-31.7 9.8Zm58-12.5c-.3 1.3-.5 2.5-.6 3.8-.5 6.5-3 8.7-9.5 9.3-6.9.6-14.3-1.8-15.4-10.2-.9-7.4-3-6.7-6.4-12-1-1.5-2-4.4 0-5.6 1 1.2 2.1 2.1 3.5 2.6 3 7.5 4 16.2 12.6 17.1 16.7 1.8 13-8.4 18.2-17.4 1-.5 2-1.2 2.8-2.2a4 4 0 0 1 1.1 2.2c.2 1 0 1.8-.3 2.6-1.3 3.7-4.5 5-6 9.8Zm34.1-34.6 1.4 3.5c-.7-1-4-5-5-2.9-.6 1.2.5 2.9 1 3.9a7.2 7.2 0 0 0-4.6 3.2c-1.7-7.2 4.5-10.8 7.2-7.7Zm-6.2 10.5-.8-2.2a8.7 8.7 0 0 1 4.6-3.2c.8 1.8 1.3 3.7 1.5 5.7.4 4-2.3 1.2-3.6-.2-.5-.6-1.4-.8-1.8 0h.1Zm29.8 88.7a29.2 29.2 0 0 0 2-24.5 47.4 47.4 0 0 0-22-25c-1.7-9.4-2.9-19-3.4-28.4 0-1.5-4.4-2.5-5.7-8.2-.3-1-.8-3.7.9-1.8 1.6 2 4.5 3.7 4.3-.5-.1-5-3.2-8.4-2.9-9.6.3-1.4 2.9 1.3 3.3 1.7l3 4.3c0 .3.4 0 .3-.2l-1-1.9c.2-.5-2.3-5.4-1.8-5.9.4-.4 2.4 1.2 2.8 1.6 2.3 2.2 2.5 3.7 3.2 4.9H232.7v-.2c0-1-.5-1.6-.8-2.2-.2-.7-.7-2.3-.4-2.8.2-.2 1.1.6 1.2.8 1 1 1.7 2 2.3 3.3 4.2 8.1 3 13.3 3.6 14.1 10.5 13.2 21.6 32.6 23.9 50 1.5 12.1-2 26.3-13.2 30.5Z" fill="#123054"/><path d="M149.7 107.7c.3-.2.2-.7-.1-.7l-15.3.1c-.4 0-.3.7 0 .8 2.6.4 13.2.5 15.4-.2Zm131.2 82.6c1.9-1 11-5 12-5.8h.1a.2.2 0 0 0 0-.2l-.1-.2h-.1c-2.3.5-9.8 4.6-12.1 5.8-.2.2 0 .5.2.4ZM188.7 154l-29.1.5c1.2 15.9 29.5 16.1 29.1-.5Zm0-34v.2h.2c4.7.2 14.6.5 18.3 0 .3 0 .2-.6 0-.6-5.3 0-12.9 0-18.2.2a.2.2 0 0 0-.2 0v.2ZM149 96.8c.3 0 .2-.6-.1-.6l-29 .7h-.1l-.1.1a.3.3 0 0 0 0 .2v.2h.2c6.7.6 20.3-.2 29-.6Zm5.3-3.5c.3 0 .4-.6 0-.7-3.1-.4-33.5.2-35.6.7-.2 0-.2.5 0 .5 7.8 0 26.5-.7 35.6-.5ZM94.4 203.7Zm.6.2c1-2.2 1.9-4.5 2.4-7a5.7 5.7 0 0 0-.8-4.9c.5-1.4.7-2.9.7-4.4-.2-2.5-2.6-2.4-3.9-.4a59.9 59.9 0 0 0-10.7 29.5c0 .5.1 1 .5.6A60.3 60.3 0 0 0 96.3 193c1.7 2.9-.9 7.8-1.9 10.8-.1.3.4.6.6.2Zm-11.8 12.2c.1-1.7.4-3.4.7-5l2.1 1.6-2.8 3.4ZM96 191.4c-1-.9-2-1.5-3.2-1.7.4-1 1-1.9 1.6-2.7.6-.6 1.8-.9 2.2.2.1 1.4 0 2.9-.6 4.2Zm35-78.7c-.6.3-4.1 6.2-4.8 7.2-.8-1.2-1.7-2.3-2.7-3.2h-.4v.3a23 23 0 0 0 3 4 .4.4 0 0 0 .3 0v-.1l4.6-7c.6-1 .4-1.5 0-1.2Zm82.5-8.1c.2 0 .3-.7 0-.7-8.6-.5-17.2-.3-25.8.4-.3 0-.2.6 0 .6 6.5 0 18.7.1 25.8-.3Z" fill="#C2C0C0"/><path d="M131 122c.5-.2-.6-4.8-.7-5.5v-.1l-.1-.1a.2.2 0 0 0-.2 0 .2.2 0 0 0-.1 0v.2c.1 1.7.3 3.4.6 5l-6.7.3c-.4-2-.7-4.7-1.3-6.6h5.2c1.1 0 1-.9 0-.8-.5 0-5.4-.1-5.4.5-.7 0 .7 6.5.7 7l.2.1.1.1c.2.8 7.4.7 7.7 0Zm83.2-5.4v-.1l-.2-.1c-8.3-.2-17.2.2-25.7.2-.2 0-.2.5 0 .5a140.2 140.2 0 0 0 25.9-.3v-.2Zm-90.7-5.7c2 0 3.9 0 5.8-.3 1.2.3-.6-8.1-.8-8.5l-.2-.2h-.2c-1.2 0-7 0-7.8.2-1-1 .5 6.7.7 7.6.4 1.5 1.3 1.2 2.5 1.2Zm-3-8.3c2.5.4 5 .4 7.6.1l.9 7.2-7.2.4-1.3-7.7Zm87.2 5.2h.2v-.5l-.2-.1c-1.7-.4-16.3.2-19.4.5-.2 0-.2.4 0 .5 1.7 0 17.8 0 19.4-.4Zm-115.4 49c.3 0 2.2-1.2 2.7.8.6 2.7 3 1 3.5-1 .5-2.6-1.7-4.6-4.3-4.6-5.3 0-4 5.1-1.9 4.8Zm1.9-4.2c3 0 4.8 3.2 3 5-1.6 1.6-1.4-.6-2.1-1.5-1.5-1.5-2.7.4-3.6-.4-1.7-1.6 1.6-3.2 2.7-3.1Zm32.2-25.2c-2.2 0-2.3-.4-2 2 0 .6.5 5.3 1.2 5.4.2.7 6.3.4 7.1.2 1 0 0-3.7 0-4.1-.9-5.4.2-3.7-6.3-3.5Zm-.4 7c-.4-2-.6-4.5-1.1-6.4 2.2.3 4.5.2 6.7-.3.2 2.2.5 4.3 1 6.4l-6.6.3Zm90.4-42a979.7 979.7 0 0 0-43.7.5V93.2l.1.1a1066.7 1066.7 0 0 0 43.8-.3v-.5l-.2-.1Zm-62 11.3c.3 0 .2-.5-.1-.6l-20.9.6-.1.1a.3.3 0 0 0 0 .2v.2h.1a99 99 0 0 0 21-.5Zm82.7 43.5c.1 1.2 1.2 12.9 1.6 13.7 2.7 6 12.8 6.2 13-2.7.4-3.7 1.8-14.4 1.2-17 .2-.9 1-4.6 1.1-6.6 0-.4.6-9.2-.5-7.8a50.3 50.3 0 0 0-3.9 7l-.6 2.7a8 8 0 0 0-1.9-.5l-.6-5-2.7-6c-1.2-3.3-1.2-3.3-1.6.2-.5 3.6-.5 7.3 0 11-6.2 1.4-5.5 5.5-5 11Zm15-17 .7.4h.7v4c-.6 0-1.2 0-1.8-.2-.5-.2-1-.5-1.5-1l2-3.2Zm-2 4c1 .8 2.1 1.2 3.2 1.1L252 144c-.4 1.9-2.7 2.5-4.2 2.8 1-4.1 1.6-8.5 2.4-12.6Zm-2.7 11.5v1.1l-3.4.1-1.4-14.5c.6.2 1.3.2 1.9 0 .6 0 1.2-.4 1.7-.8 0 0 1 13.8 1.2 14Zm-4.7-18.3h.7c.2 0 .4 0 .6-.2l1.9 3.8c-.5.4-1 .7-1.7.8h-1.8c0-1.5 0-3 .3-4.4Zm9.6 17.8c-.3 4-.7 12.1-1.6 15.8-1.6 4.8-8.5 4.9-11.5 0l-1.7-16c2.5 4.1 12.5 3.6 14.8.2Z" fill="#C2C0C0"/><path d="M67.5 162.2c2.1 1.3 4.3 2.2 6.6 2.9-4.4 6.8 8.2 16.5 19.6 11.3 5.3-2.4 10.6-9.9 5.4-15 5.5-5 7.4-12.3 7.2-20.2-.3-12.1-5.1-21.1-16-24-5.5-1.4-11.1-1-16.3 1.4l-2.1-4.1 2-1.2c1.9-.7 1.3-2.2.2-1.7-21 8.6-25.9 39.8-6.6 50.6Zm6.8 1.8c-.4-1.5.6-3 .1-4.8-1-4-5.7-1.6-6.8-4.3-1.3-3 2-3.5 2.8-5.6a2.5 2.5 0 0 0-.4-2.2c-2-2.8-6.5.1-5.2-6.4 1-4.9 5.2-7.2 8.2-5 3 2.1 4.9 3.6 8.7 1 6.5-4.2 5.7 4.7 3.7 7.4-1 1.4-3 1.4-4.4 2-4.7 2-4.7 5.6-1 6.5 1.5.3 3.4.2 4.5 1.4 3.1 3.4-3.3 10.6-5.3 11.8-1-.2-4.4-1-5-1.8Zm17.4-45.4c8 2.8 12.4 9.4 13.5 18.8.6 4 .4 8.2-.4 12.2-.3.5-5 2-6.4-.2-.6-.9-1-2-1.2-3-.1-1 0-2.2.2-3.2 1-2.6 4-4.9 3-7.5-1.3-3.7-5 1.3-6.7.3-2.3-1.6 2.1-4.5-3-5.6-1.9-.4-3.4.5-4.8-1.9-3.2-5.3 5.1-10 5.8-10ZM76 125.4l.3.2h.3l.3-.3v-.4l-2.5-5.5a23.4 23.4 0 0 1 16-1.2c-6.9 2.5-7.7 11.3-2.7 12.8 1 .3 5.7-.2 4.9 2a3 3 0 0 0 .5 3.4c.3.3.6.5 1 .6 1.9.4 4-2.9 5.3-1.5 2.5 2.3-4 5.9-2.8 11 .8 4 2.2 5.2 5.8 4.7a5 5 0 0 0 2.2-.8c-3 11.6-14 17-24 15.6 2-2.1 5.1-6.3 5.4-9.3.5-5.3-5-4.2-7-5.4-2.7-1.6 1.3-4.2 3.8-4.9.8-.1 1.6-.4 2.3-.8 4.2-2.9 3-14.3-3-10.1-5 3.6-6.7.5-9-.8-3.8-2.2-9 1.2-9.3 7.7-.2 4.4 3 3.5 5 4.6.3.2.6.4.7.8.2.3.3.8.2 1.2-.4 1.5-2.4 1.8-3 3.7-.2.7-.2 1.5 0 2.2.3.7.7 1.4 1.3 1.8 1.8 1.1 5 .1 5.7 3 .4 1.3-.3 2.7-.2 4a20.4 20.4 0 0 1-9-7.1 25.7 25.7 0 0 1 8.6-36.6l3 5.4Zm-12.4-4.1c2.1-2.4 4.5-4.5 7.1-6 .8 1.3 1.5 2.6 2.1 4-4.3 2.3-7.9 6-10.3 10.6-2.4 4.6-3.4 10-3 15.3.3 3 1.2 6 2.5 8.7 1.4 2.6 3.2 5 5.4 6.8-13.1-8.2-13.7-27.6-3.8-39.4Zm146.7 10.9a223.3 223.3 0 0 0-21.5 0v.4l.2.1a228.5 228.5 0 0 0 21.5-.1v-.4l-.2-.1Zm6-35.6c-13.4.2-30.5-.3-42.5 0-.3 0-.3.6 0 .6a502.8 502.8 0 0 0 42.7-.2v-.2l-.1-.1h-.2Zm-1.6 32.2c-8-.2-18 .4-26.6.1-.3 0-.3.4 0 .5 5.2.6 21.7 1.1 26.7 0 .3 0 .3-.6 0-.6Z" fill="#C2C0C0"/></svg>