<svg width="196" height="197" fill="none" xmlns="http://www.w3.org/2000/svg"><g filter="url(#a)"><path d="M189.6 98.6a89 89 0 0 1-15.6 50.3 92.3 92.3 0 0 1-41.6 33.4 95 95 0 0 1-101.2-19.5A88.5 88.5 0 0 1 11 64a91 91 0 0 1 34.2-40.6A94.5 94.5 0 0 1 96.8 8.2v90.3l92.8.1Z" fill="url(#b)"/></g><path d="M170.8 110.6a73.8 73.8 0 0 0-62.1-84.4A74.9 74.9 0 0 0 22.6 87a73.8 73.8 0 0 0 62 84.4 74.9 74.9 0 0 0 86.2-60.8Z" fill="#fff"/><path d="M153.4 0a38.2 38.2 0 0 0-34.1 32.5v.4a15.6 15.6 0 0 1-17 13.9 51.7 51.7 0 0 0-54.9 35.6 51 51 0 0 0 44 66.5 51.7 51.7 0 0 0 50.7-27.2 51 51 0 0 0 5.6-29.5 15.6 15.6 0 0 1 14-17h.4a38 38 0 0 0 32.7-41.7A37.7 37.7 0 0 0 153.4.2V0Z" fill="url(#c)"/><path d="M91.2 110.6v2.2c0 1-.1 2-.3 2.7-.2.8-.5 1.4-.9 1.9-.4.4-.9.8-1.4 1l-1.8.3c-.6 0-1 0-1.5-.2a3.7 3.7 0 0 1-2.2-1.8c-.3-.4-.5-1-.6-1.6a11 11 0 0 1-.2-2.3v-2.2c0-1 .1-2 .3-2.7.2-.7.5-1.3 1-1.8.3-.5.8-.8 1.3-1a5 5 0 0 1 1.8-.3c.6 0 1 0 1.5.2a3.5 3.5 0 0 1 2.2 1.7c.3.5.5 1 .6 1.7l.2 2.2Zm-2.2 2.5v-2.8l-.1-1.5-.3-1-.5-.7c-.1-.2-.3-.3-.6-.4l-.8-.2a2 2 0 0 0-.9.2l-.7.7-.4 1.1-.1 1.8v4.3l.3 1 .5.8.6.4.8.1c.3 0 .6 0 1-.2l.6-.6.4-1.2.2-1.8Zm10.4-8.2v13.6H97v-11l-3.3 1.2v-1.9L99 105h.3ZM84.6 84.3V96h-2V84.3h2Zm7 0L86.8 91H84l-.3-1.8h2l3.4-4.9h2.5Zm-2 11.7-3.9-5.3L87 89l5 6.9h-2.5Zm7.9-4.4h-3V90h3c.5 0 1 0 1.3-.2l.7-.7.2-1c0-.4 0-.8-.2-1.1l-.7-.8c-.4-.2-.8-.3-1.3-.3H95v10h-2V84.4h4.4a5 5 0 0 1 2.3.5c.6.3 1.1.8 1.4 1.3.4.6.5 1.2.5 2 0 .7-.1 1.3-.5 1.9-.3.5-.8 1-1.4 1.2-.6.3-1.4.4-2.3.4Zm15.3-1.8v.7c0 .8-.1 1.6-.3 2.3-.3.7-.6 1.3-1 1.8s-1 .9-1.5 1.1c-.6.3-1.3.4-2 .4s-1.4-.1-2-.4c-.5-.2-1-.6-1.5-1-.4-.6-.8-1.2-1-1.9-.2-.7-.3-1.5-.3-2.3v-.7c0-.9 0-1.6.3-2.3.2-.7.6-1.3 1-1.8s1-.9 1.5-1.1c.6-.3 1.3-.4 2-.4s1.4.1 2 .4c.5.2 1 .6 1.5 1l1 1.9c.2.7.3 1.4.3 2.3Zm-2 .7v-.7a7 7 0 0 0-.2-1.7l-.5-1.3c-.3-.3-.6-.6-1-.7-.3-.2-.7-.3-1.1-.3-.5 0-.9 0-1.2.3-.4.1-.6.4-.9.7l-.5 1.3a7 7 0 0 0-.2 1.7v.7c0 .6 0 1.2.2 1.7 0 .5.3 1 .5 1.3.3.3.6.6 1 .7.3.2.7.3 1 .3.5 0 1 0 1.3-.3.3-.1.6-.4.9-.7l.5-1.3.2-1.7Zm6-6.2V96h-2V84.3h2Zm7 0-4.7 6.7h-2.8l-.3-1.8h2l3.4-4.9h2.5Zm-2 11.7-3.8-5.3 1.3-1.6 5 6.9h-2.5ZM156.8 65.5c15.1 0 27.3-11.8 27.3-26.4a26.8 26.8 0 0 0-27.3-26.4c-15 0-27.3 11.8-27.3 26.4a26.8 26.8 0 0 0 27.3 26.4Z" fill="#fff"/><path d="M171 41v-5.1h-3.3c-.3-1.2-.8-2.3-1.4-3.3l2.3-2.3-3.6-3.6-2.4 2.3c-1-.7-2.2-1.1-3.3-1.4v-3.2H154v3.3c-1.2.2-2.4.7-3.4 1.3l-2.3-2.2-3.7 3.5 2.3 2.3c-.6 1-1 2.1-1.3 3.3h-3.2V41h3.2c.3 1.2.8 2.3 1.4 3.3l-2.3 2.3 3.7 3.7 2.3-2.3c1 .6 2.2 1 3.4 1.3v3.3h5.1v-3.4c1.2-.3 2.4-.8 3.4-1.4l2.3 2.3 3.7-3.6-2.3-2.3c.6-1 1-2.1 1.3-3.3h3.3Zm-14.4 3.3a6.1 6.1 0 0 1-5.6-3.6 5.8 5.8 0 0 1 1.4-6.5 6 6 0 0 1 6.5-1.3 5.8 5.8 0 0 1 2 9.6 6.1 6.1 0 0 1-4.2 1.8Zm0-3.7c-.6 0-1.1-.3-1.5-.7a2.2 2.2 0 0 1 0-3 2.2 2.2 0 0 1 3.1 0 2.2 2.2 0 0 1 0 3c-.4.4-1 .7-1.6.7Z" fill="url(#d)"/><defs><linearGradient id="b" x1="8563.4" y1="12715.4" x2="20524.6" y2="12715.4" gradientUnits="userSpaceOnUse"><stop stop-color="#FCBC7D"/><stop offset="1" stop-color="#6A82FB"/></linearGradient><linearGradient id="c" x1="6968" y1="10472.3" x2="16642.5" y2="10472.3" gradientUnits="userSpaceOnUse"><stop stop-color="#FCBC7D"/><stop offset="1" stop-color="#6A82FB"/></linearGradient><linearGradient id="d" x1="1459.7" y1="2001.5" x2="3300.4" y2="2001.5" gradientUnits="userSpaceOnUse"><stop stop-color="#FCBC7D"/><stop offset="1" stop-color="#6A82FB"/></linearGradient><filter id="a" x=".4" y="8.2" width="192.9" height="188.3" filterUnits="userSpaceOnUse" color-interpolation-filters="sRGB"><feFlood flood-opacity="0" result="BackgroundImageFix"/><feColorMatrix in="SourceAlpha" values="0 0 0 0 0 0 0 0 0 0 0 0 0 0 0 0 0 0 127 0" result="hardAlpha"/><feOffset dy="3.6"/><feGaussianBlur stdDeviation="1.8"/><feComposite in2="hardAlpha" operator="out"/><feColorMatrix values="0 0 0 0 0 0 0 0 0 0 0 0 0 0 0 0 0 0 0.25 0"/><feBlend in2="BackgroundImageFix" result="effect1_dropShadow_1114_262"/><feBlend in="SourceGraphic" in2="effect1_dropShadow_1114_262" result="shape"/></filter></defs></svg>