<svg width="196" height="197" fill="none" xmlns="http://www.w3.org/2000/svg"><g filter="url(#a)"><path d="M189.6 98.3c0 18-5.5 35.5-15.6 50.5a92.4 92.4 0 0 1-41.7 33.5 94.5 94.5 0 0 1-101.1-19.7A89.3 89.3 0 0 1 11 63.5C18 46.7 30 32.5 45.2 22.5A94.1 94.1 0 0 1 96.8 7.3V98l92.8.2Z" fill="#ED5565"/></g><path d="M96.8 172.9c41.2 0 74.6-33 74.6-73.7a74.1 74.1 0 0 0-74.6-73.7c-41.2 0-74.6 33-74.6 73.7a74.1 74.1 0 0 0 74.6 73.7Z" fill="#fff"/><path d="M153.8 0a38.4 38.4 0 0 0-34.2 32.7v.4a15.7 15.7 0 0 1-17.2 14 52 52 0 0 0-56.7 60 51.6 51.6 0 0 0 73.5 38 51.8 51.8 0 0 0 29.2-52.2 15.7 15.7 0 0 1 14-17.1h.4a38.2 38.2 0 0 0 33-42.1A38 38 0 0 0 154 .2l-.3-.2Z" fill="url(#b)"/><path d="M91.2 111.6v2.2c0 1-.1 2-.3 2.7-.2.8-.5 1.4-.9 1.9-.4.4-.9.8-1.4 1l-1.8.3c-.6 0-1 0-1.5-.2a3.7 3.7 0 0 1-2.2-1.8c-.3-.4-.5-1-.6-1.6a11 11 0 0 1-.2-2.3v-2.2c0-1 .1-2 .3-2.7.2-.7.5-1.3 1-1.8.3-.5.8-.8 1.3-1a5 5 0 0 1 1.8-.3c.6 0 1 0 1.5.2a3.5 3.5 0 0 1 2.2 1.7c.3.5.5 1 .6 1.7l.2 2.2Zm-2.2 2.5v-2.8l-.1-1.5-.3-1a2 2 0 0 0-.5-.7c-.1-.2-.3-.3-.6-.4l-.8-.2a2 2 0 0 0-.9.3c-.3 0-.5.3-.7.6l-.4 1.1-.1 1.8v4.3l.3 1 .5.8.6.4.8.1c.3 0 .6 0 1-.2l.6-.6.4-1.2.2-1.8Zm6.9-2.4h1.3c.5 0 1 0 1.3-.2l.8-.8.2-1c0-.5 0-.9-.2-1.2l-.7-.7c-.3-.2-.7-.3-1.2-.3-.4 0-.7.1-1 .3a1.8 1.8 0 0 0-1 1.7H93c0-.7.1-1.4.5-2 .4-.5 1-1 1.6-1.3a5 5 0 0 1 2.2-.4c.9 0 1.6.1 2.3.4.6.3 1.2.7 1.5 1.3.4.6.6 1.3.6 2.1l-.3 1.2c-.2.4-.4.8-.8 1-.4.4-.8.7-1.3.9-.5.2-1.2.3-1.9.3H96v-1.3Zm0 1.8v-1.3h1.6c.8 0 1.5.1 2 .3.6.2 1.1.5 1.5.8.3.3.6.7.7 1.1.2.4.3.9.3 1.3a4 4 0 0 1-.4 1.7c-.2.5-.5 1-1 1.3-.3.3-.8.6-1.4.8a6 6 0 0 1-3.5 0l-1.4-.7c-.4-.4-.8-.8-1-1.2-.3-.5-.4-1-.4-1.7h2.3c0 .4 0 .7.2 1 .2.4.5.6.8.8l1.2.2c.5 0 1 0 1.3-.2.3-.2.6-.4.7-.8.2-.3.3-.7.3-1.2s0-1-.3-1.3c-.2-.3-.5-.5-.9-.7l-1.3-.2h-1.3ZM84.6 83.4v11.7h-2V83.4h2Zm7 0-4.8 6.7H84l-.3-1.8h2l3.4-4.9h2.5Zm-2 11.7-3.9-5.4 1.3-1.5 5 6.9h-2.5Zm7.9-4.4h-3v-1.6h3c.5 0 1 0 1.3-.2l.7-.7.2-1c0-.4 0-.8-.2-1.1l-.7-.8c-.4-.2-.8-.3-1.3-.3H95v10h-2V83.5h4.4a5 5 0 0 1 2.3.5c.6.3 1.1.7 1.4 1.3.4.6.5 1.2.5 2 0 .7-.1 1.3-.5 1.8-.3.6-.8 1-1.4 1.3-.6.3-1.4.4-2.3.4Zm15.3-1.8v.7c0 .8-.1 1.6-.3 2.3-.3.7-.6 1.3-1 1.8s-1 .9-1.5 1.1c-.6.3-1.3.4-2 .4s-1.4-.1-2-.4c-.5-.2-1-.6-1.5-1-.4-.6-.8-1.2-1-1.9-.2-.7-.3-1.5-.3-2.3v-.7c0-.9 0-1.6.3-2.3.2-.7.6-1.3 1-1.8s1-.9 1.5-1.2c.6-.2 1.3-.3 2-.3s1.4 0 2 .3l1.5 1.2c.4.5.7 1 1 1.8.2.7.3 1.4.3 2.3Zm-2 .7v-.7a7 7 0 0 0-.2-1.7l-.5-1.3c-.3-.3-.6-.6-1-.7-.3-.2-.7-.3-1.1-.3-.5 0-.9 0-1.2.3-.4.1-.6.4-.9.7l-.5 1.3a7 7 0 0 0-.2 1.7v.7c0 .6 0 1.2.2 1.7 0 .5.3 1 .5 1.3.3.3.6.6 1 .7.3.2.7.3 1 .3.5 0 1-.1 1.3-.3.3-.1.6-.4.9-.7l.5-1.3.2-1.7Zm6-6.2v11.7h-2V83.4h2Zm7 0-4.7 6.7h-2.8l-.3-1.8h2l3.4-4.9h2.5Zm-2 11.7-3.8-5.4 1.3-1.5 5 6.9h-2.5ZM176.1 57.4a26 26 0 0 0 0-37.4 27.4 27.4 0 0 0-38.1 0 26 26 0 0 0 0 37.4 27.4 27.4 0 0 0 38.1 0Z" fill="#fff"/><path d="M161.9 49h-11.5a1 1 0 0 0-.8.3 1 1 0 0 0-.3.8 1 1 0 0 0 .3.7 1 1 0 0 0 .8.3h3.3v.4c0 .4.2.9.5 1.2.4.4.8.6 1.3.6h1.3a1.8 1.8 0 0 0 1.3-.6 1.8 1.8 0 0 0 .5-1.2V51h3.3c.3 0 .6 0 .8-.3a1 1 0 0 0 .2-1.1 1 1 0 0 0-.6-.6 1 1 0 0 0-.4 0Z" fill="url(#c)"/><path d="M164 24.7a12.2 12.2 0 0 0-16.7.9 11.6 11.6 0 0 0 .6 16.5 5.3 5.3 0 0 1 2.2 4.1v.4c0 .2 0 .5.2.7l.7.2h10.1c.3 0 .5 0 .7-.2.2-.2.3-.5.3-.7v-.4a5.3 5.3 0 0 1 2.1-4.1 11.7 11.7 0 0 0 3.9-8.7 11.7 11.7 0 0 0-4-8.7Zm-9.2 16-4-3.9 1.9-2 2 2 6.8-6.6 2 2-8.7 8.6Z" fill="url(#d)"/><defs><linearGradient id="b" x1="7009.9" y1="10536.2" x2="16743.1" y2="10536.2" gradientUnits="userSpaceOnUse"><stop stop-color="#ED5565"/><stop offset="1" stop-color="#6A82FB"/></linearGradient><linearGradient id="c" x1="780.1" y1="346.2" x2="1661.5" y2="346.2" gradientUnits="userSpaceOnUse"><stop stop-color="#ED5565"/><stop offset="1" stop-color="#6A82FB"/></linearGradient><linearGradient id="d" x1="1248.9" y1="1833.3" x2="2792.8" y2="1833.3" gradientUnits="userSpaceOnUse"><stop stop-color="#ED5565"/><stop offset="1" stop-color="#6A82FB"/></linearGradient><filter id="a" x=".4" y="7.3" width="192.9" height="189.2" filterUnits="userSpaceOnUse" color-interpolation-filters="sRGB"><feFlood flood-opacity="0" result="BackgroundImageFix"/><feColorMatrix in="SourceAlpha" values="0 0 0 0 0 0 0 0 0 0 0 0 0 0 0 0 0 0 127 0" result="hardAlpha"/><feOffset dy="3.6"/><feGaussianBlur stdDeviation="1.8"/><feComposite in2="hardAlpha" operator="out"/><feColorMatrix values="0 0 0 0 0 0 0 0 0 0 0 0 0 0 0 0 0 0 0.25 0"/><feBlend in2="BackgroundImageFix" result="effect1_dropShadow_1114_261"/><feBlend in="SourceGraphic" in2="effect1_dropShadow_1114_261" result="shape"/></filter></defs></svg>