<svg width="216" height="217" fill="none" xmlns="http://www.w3.org/2000/svg"><g filter="url(#a)"><path d="M208 109c0 19.8-6 39.1-17.2 55.6a101.6 101.6 0 0 1-45.8 36.8A103.9 103.9 0 0 1 34 179.7a98.2 98.2 0 0 1-22.1-109A100.5 100.5 0 0 1 49.3 26C66.1 14.9 85.8 9 106 9v99.8l102 .2Z" fill="url(#b)"/></g><path d="M106 189c45.3 0 82-36.3 82-81s-36.7-81-82-81-82 36.3-82 81 36.7 81 82 81Z" fill="#fff"/><path d="M168.9.3A42.4 42.4 0 0 0 131.1 36v.5A17.3 17.3 0 0 1 112.3 52a57.4 57.4 0 0 0-57.7 31.8 56.3 56.3 0 0 0 41.9 80.4 57.5 57.5 0 0 0 59.5-28.3c5.7-10.3 8.1-22 6.9-33.7a17.2 17.2 0 0 1 15.4-18.8h.5a42.2 42.2 0 0 0 37-46.4A41.8 41.8 0 0 0 168.8.3Z" fill="url(#c)"/><path d="M99.8 122.7c0 2.2-.4 3.8-1.2 4.9-.8 1-2 1.6-3.6 1.6s-2.9-.5-3.7-1.6c-.8-1-1.2-2.6-1.2-4.7v-2.6a8 8 0 0 1 1.2-4.8c.8-1.1 2-1.6 3.7-1.6 1.6 0 2.8.5 3.6 1.5.8 1 1.2 2.6 1.2 4.7v2.6Zm-2.4-2.8c0-1.4-.2-2.4-.6-3-.4-.7-1-1-1.8-1-.9 0-1.5.3-1.8.9-.4.6-.6 1.6-.6 2.9v3.4c0 1.4.2 2.4.5 3 .4.8 1 1.1 1.9 1.1a2 2 0 0 0 1.8-1c.3-.6.5-1.6.6-2.9v-3.4ZM112 129h-10v-1.7l5-5.4 1.5-2c.3-.6.4-1.1.4-1.7 0-.7-.2-1.2-.6-1.7a2 2 0 0 0-1.6-.6c-.8 0-1.4.2-1.9.7a3 3 0 0 0-.6 2h-2.5c0-.9.2-1.7.6-2.4.4-.8 1-1.3 1.8-1.7.7-.4 1.6-.6 2.6-.6a5 5 0 0 1 3.4 1c.9.8 1.3 1.8 1.3 3 0 .8-.2 1.6-.6 2.4-.4.8-1.1 1.8-2 2.8l-3.7 4h6.9v1.9ZM97 99.7c0-.6-.2-1-.6-1.3a7 7 0 0 0-2.1-1c-1-.2-1.9-.6-2.5-1-1.2-.7-1.8-1.6-1.8-2.8 0-1 .5-1.9 1.3-2.6.8-.6 2-1 3.3-1 .9 0 1.7.2 2.4.5s1.2.8 1.6 1.4c.4.6.6 1.3.6 2H97a2 2 0 0 0-.6-1.5c-.5-.4-1-.6-1.8-.6s-1.3.2-1.7.5c-.4.3-.6.7-.6 1.3 0 .4.2.8.6 1.1.5.4 1.2.7 2.2 1 1 .3 1.8.6 2.4 1a3.4 3.4 0 0 1 1.7 3c0 1-.4 1.9-1.2 2.5-.8.7-2 1-3.3 1-1 0-1.8-.2-2.6-.5-.8-.4-1.4-.9-1.8-1.5-.4-.6-.6-1.3-.6-2h2.2c0 .7.2 1.2.7 1.6.5.4 1.2.6 2 .6s1.4-.1 1.8-.4c.4-.4.6-.8.6-1.3Zm13.4-7.7h-4v11h-2.2V92h-4v-1.8h10.2V92Zm9.2 5.3h-5.3v4h6.2v1.7H112V90.2h8.3V92h-6v3.5h5.2v1.8Zm4.9 1v4.7h-2.2V90.2h4.9a5 5 0 0 1 3.4 1.1c.8.8 1.2 1.7 1.2 3 0 1.2-.4 2.2-1.2 2.9-.8.7-2 1-3.5 1h-2.6Zm0-1.8h2.7c.8 0 1.4-.2 1.8-.6.4-.4.6-1 .6-1.6 0-.7-.2-1.3-.6-1.7-.4-.4-1-.6-1.8-.6h-2.7v4.5ZM193.2 63.2a28.7 28.7 0 0 0 0-41 30 30 0 0 0-42 0 28.7 28.7 0 0 0 0 41 30 30 0 0 0 42 0Z" fill="#fff"/><path d="M172.7 41.8v-5.2c0-.2-.2-.4-.3-.5a.9.9 0 0 0-1.4.5V41l-2 2a.8.8 0 0 0 0 1.2.9.9 0 0 0 1.2 0l2.5-2.5Z" fill="url(#d)"/><path d="M171.7 25.8a16 16 0 0 0-14.6 9.6 15.2 15.2 0 0 0 3.5 16.9 16 16 0 0 0 17.2 3.3 15.3 15.3 0 0 0 5.1-25.3c-3-2.9-7-4.5-11.2-4.5Zm0 27.3a12.3 12.3 0 0 1-11.1-7.5 11.7 11.7 0 0 1 2.7-13 12.2 12.2 0 0 1 13.3-2.4c2.2 1 4 2.5 5.4 4.5a11.7 11.7 0 0 1-1.7 15 12.1 12.1 0 0 1-8.7 3.4h.1Z" fill="url(#e)"/><defs><linearGradient id="b" x1="9412.5" y1="14047" x2="22560.3" y2="14047" gradientUnits="userSpaceOnUse"><stop stop-color="#5C92BC"/><stop offset="1" stop-color="#6A82FB"/></linearGradient><linearGradient id="c" x1="7751" y1="11581.3" x2="18514.2" y2="11581.3" gradientUnits="userSpaceOnUse"><stop stop-color="#5C92BC"/><stop offset="1" stop-color="#6A82FB"/></linearGradient><linearGradient id="d" x1="351.5" y1="643.8" x2="607" y2="643.8" gradientUnits="userSpaceOnUse"><stop stop-color="#5C92BC"/><stop offset="1" stop-color="#6A82FB"/></linearGradient><linearGradient id="e" x1="1615.5" y1="2203.4" x2="3655.2" y2="2203.4" gradientUnits="userSpaceOnUse"><stop stop-color="#5C92BC"/><stop offset="1" stop-color="#6A82FB"/></linearGradient><filter id="a" x="0" y="9" width="212" height="208" filterUnits="userSpaceOnUse" color-interpolation-filters="sRGB"><feFlood flood-opacity="0" result="BackgroundImageFix"/><feColorMatrix in="SourceAlpha" values="0 0 0 0 0 0 0 0 0 0 0 0 0 0 0 0 0 0 127 0" result="hardAlpha"/><feOffset dy="4"/><feGaussianBlur stdDeviation="2"/><feComposite in2="hardAlpha" operator="out"/><feColorMatrix values="0 0 0 0 0 0 0 0 0 0 0 0 0 0 0 0 0 0 0.25 0"/><feBlend in2="BackgroundImageFix" result="effect1_dropShadow_1120_271"/><feBlend in="SourceGraphic" in2="effect1_dropShadow_1120_271" result="shape"/></filter></defs></svg>